%TF.GenerationSoftware,KiCad,Pcbnew,8.0.1*%
%TF.CreationDate,2024-04-02T10:46:19+02:00*%
%TF.ProjectId,ROBO_III,524f424f-5f49-4494-992e-6b696361645f,rev?*%
%TF.SameCoordinates,Original*%
%TF.FileFunction,Soldermask,Bot*%
%TF.FilePolarity,Negative*%
%FSLAX46Y46*%
G04 Gerber Fmt 4.6, Leading zero omitted, Abs format (unit mm)*
G04 Created by KiCad (PCBNEW 8.0.1) date 2024-04-02 10:46:19*
%MOMM*%
%LPD*%
G01*
G04 APERTURE LIST*
G04 Aperture macros list*
%AMRoundRect*
0 Rectangle with rounded corners*
0 $1 Rounding radius*
0 $2 $3 $4 $5 $6 $7 $8 $9 X,Y pos of 4 corners*
0 Add a 4 corners polygon primitive as box body*
4,1,4,$2,$3,$4,$5,$6,$7,$8,$9,$2,$3,0*
0 Add four circle primitives for the rounded corners*
1,1,$1+$1,$2,$3*
1,1,$1+$1,$4,$5*
1,1,$1+$1,$6,$7*
1,1,$1+$1,$8,$9*
0 Add four rect primitives between the rounded corners*
20,1,$1+$1,$2,$3,$4,$5,0*
20,1,$1+$1,$4,$5,$6,$7,0*
20,1,$1+$1,$6,$7,$8,$9,0*
20,1,$1+$1,$8,$9,$2,$3,0*%
G04 Aperture macros list end*
%ADD10C,0.300000*%
%ADD11RoundRect,0.200000X-0.900000X-0.900000X0.900000X-0.900000X0.900000X0.900000X-0.900000X0.900000X0*%
%ADD12C,2.200000*%
%ADD13RoundRect,0.200000X-0.750000X-0.750000X0.750000X-0.750000X0.750000X0.750000X-0.750000X0.750000X0*%
%ADD14C,1.900000*%
%ADD15C,2.000000*%
%ADD16O,2.000000X2.000000*%
%ADD17C,2.900000*%
%ADD18RoundRect,0.200000X0.800000X0.800000X-0.800000X0.800000X-0.800000X-0.800000X0.800000X-0.800000X0*%
%ADD19C,2.400000*%
%ADD20RoundRect,0.200000X-0.800000X0.800000X-0.800000X-0.800000X0.800000X-0.800000X0.800000X0.800000X0*%
%ADD21RoundRect,0.200000X-2.500000X-1.000000X2.500000X-1.000000X2.500000X1.000000X-2.500000X1.000000X0*%
%ADD22C,18.180000*%
G04 APERTURE END LIST*
D10*
X87185489Y-118170828D02*
X87185489Y-116670828D01*
X86328346Y-118170828D02*
X86971203Y-117313685D01*
X86328346Y-116670828D02*
X87185489Y-117527971D01*
X85685489Y-118170828D02*
X85685489Y-116670828D01*
X85685489Y-117385114D02*
X84828346Y-117385114D01*
X84828346Y-118170828D02*
X84828346Y-116670828D01*
X83614060Y-117385114D02*
X84114060Y-117385114D01*
X84114060Y-118170828D02*
X84114060Y-116670828D01*
X84114060Y-116670828D02*
X83399774Y-116670828D01*
X81399774Y-116670828D02*
X81256917Y-116670828D01*
X81256917Y-116670828D02*
X81114060Y-116742257D01*
X81114060Y-116742257D02*
X81042632Y-116813685D01*
X81042632Y-116813685D02*
X80971203Y-116956542D01*
X80971203Y-116956542D02*
X80899774Y-117242257D01*
X80899774Y-117242257D02*
X80899774Y-117599400D01*
X80899774Y-117599400D02*
X80971203Y-117885114D01*
X80971203Y-117885114D02*
X81042632Y-118027971D01*
X81042632Y-118027971D02*
X81114060Y-118099400D01*
X81114060Y-118099400D02*
X81256917Y-118170828D01*
X81256917Y-118170828D02*
X81399774Y-118170828D01*
X81399774Y-118170828D02*
X81542632Y-118099400D01*
X81542632Y-118099400D02*
X81614060Y-118027971D01*
X81614060Y-118027971D02*
X81685489Y-117885114D01*
X81685489Y-117885114D02*
X81756917Y-117599400D01*
X81756917Y-117599400D02*
X81756917Y-117242257D01*
X81756917Y-117242257D02*
X81685489Y-116956542D01*
X81685489Y-116956542D02*
X81614060Y-116813685D01*
X81614060Y-116813685D02*
X81542632Y-116742257D01*
X81542632Y-116742257D02*
X81399774Y-116670828D01*
X79471203Y-118170828D02*
X80328346Y-118170828D01*
X79899775Y-118170828D02*
X79899775Y-116670828D01*
X79899775Y-116670828D02*
X80042632Y-116885114D01*
X80042632Y-116885114D02*
X80185489Y-117027971D01*
X80185489Y-117027971D02*
X80328346Y-117099400D01*
X78828347Y-118027971D02*
X78756918Y-118099400D01*
X78756918Y-118099400D02*
X78828347Y-118170828D01*
X78828347Y-118170828D02*
X78899775Y-118099400D01*
X78899775Y-118099400D02*
X78828347Y-118027971D01*
X78828347Y-118027971D02*
X78828347Y-118170828D01*
X78185489Y-116813685D02*
X78114061Y-116742257D01*
X78114061Y-116742257D02*
X77971204Y-116670828D01*
X77971204Y-116670828D02*
X77614061Y-116670828D01*
X77614061Y-116670828D02*
X77471204Y-116742257D01*
X77471204Y-116742257D02*
X77399775Y-116813685D01*
X77399775Y-116813685D02*
X77328346Y-116956542D01*
X77328346Y-116956542D02*
X77328346Y-117099400D01*
X77328346Y-117099400D02*
X77399775Y-117313685D01*
X77399775Y-117313685D02*
X78256918Y-118170828D01*
X78256918Y-118170828D02*
X77328346Y-118170828D01*
X76399775Y-116670828D02*
X76256918Y-116670828D01*
X76256918Y-116670828D02*
X76114061Y-116742257D01*
X76114061Y-116742257D02*
X76042633Y-116813685D01*
X76042633Y-116813685D02*
X75971204Y-116956542D01*
X75971204Y-116956542D02*
X75899775Y-117242257D01*
X75899775Y-117242257D02*
X75899775Y-117599400D01*
X75899775Y-117599400D02*
X75971204Y-117885114D01*
X75971204Y-117885114D02*
X76042633Y-118027971D01*
X76042633Y-118027971D02*
X76114061Y-118099400D01*
X76114061Y-118099400D02*
X76256918Y-118170828D01*
X76256918Y-118170828D02*
X76399775Y-118170828D01*
X76399775Y-118170828D02*
X76542633Y-118099400D01*
X76542633Y-118099400D02*
X76614061Y-118027971D01*
X76614061Y-118027971D02*
X76685490Y-117885114D01*
X76685490Y-117885114D02*
X76756918Y-117599400D01*
X76756918Y-117599400D02*
X76756918Y-117242257D01*
X76756918Y-117242257D02*
X76685490Y-116956542D01*
X76685490Y-116956542D02*
X76614061Y-116813685D01*
X76614061Y-116813685D02*
X76542633Y-116742257D01*
X76542633Y-116742257D02*
X76399775Y-116670828D01*
X75328347Y-116813685D02*
X75256919Y-116742257D01*
X75256919Y-116742257D02*
X75114062Y-116670828D01*
X75114062Y-116670828D02*
X74756919Y-116670828D01*
X74756919Y-116670828D02*
X74614062Y-116742257D01*
X74614062Y-116742257D02*
X74542633Y-116813685D01*
X74542633Y-116813685D02*
X74471204Y-116956542D01*
X74471204Y-116956542D02*
X74471204Y-117099400D01*
X74471204Y-117099400D02*
X74542633Y-117313685D01*
X74542633Y-117313685D02*
X75399776Y-118170828D01*
X75399776Y-118170828D02*
X74471204Y-118170828D01*
X73185491Y-117170828D02*
X73185491Y-118170828D01*
X73542633Y-116599400D02*
X73899776Y-117670828D01*
X73899776Y-117670828D02*
X72971205Y-117670828D01*
D11*
%TO.C,D11*%
X88892500Y-34392500D03*
D12*
X91432500Y-34392500D03*
%TD*%
D11*
%TO.C,D8*%
X51592500Y-80567500D03*
D12*
X54132500Y-80567500D03*
%TD*%
D11*
%TO.C,D2*%
X68077500Y-60042500D03*
D12*
X70617500Y-60042500D03*
%TD*%
D13*
%TO.C,T2*%
X58527500Y-84907500D03*
D14*
X61067500Y-82367500D03*
X63607500Y-84907500D03*
%TD*%
D11*
%TO.C,D4*%
X85767500Y-58142500D03*
D12*
X88307500Y-58142500D03*
%TD*%
D11*
%TO.C,D1*%
X52127500Y-57667500D03*
D12*
X54667500Y-57667500D03*
%TD*%
D11*
%TO.C,D5*%
X85542500Y-70492500D03*
D12*
X88082500Y-70492500D03*
%TD*%
D11*
%TO.C,D9*%
X51842500Y-68942500D03*
D12*
X54382500Y-68942500D03*
%TD*%
D13*
%TO.C,T1*%
X76452500Y-84982500D03*
D14*
X78992500Y-82442500D03*
X81532500Y-84982500D03*
%TD*%
D11*
%TO.C,D6*%
X85542500Y-81642500D03*
D12*
X88082500Y-81642500D03*
%TD*%
D11*
%TO.C,D7*%
X68592500Y-86017500D03*
D12*
X71132500Y-86017500D03*
%TD*%
D11*
%TO.C,D10*%
X49317500Y-34392500D03*
D12*
X51857500Y-34392500D03*
%TD*%
D15*
%TO.C,R3*%
X61817500Y-105402500D03*
D16*
X61817500Y-95242500D03*
%TD*%
D17*
%TO.C,T2_B*%
X79542500Y-76442500D03*
%TD*%
%TO.C,GND*%
X83942500Y-51742500D03*
%TD*%
D18*
%TO.C,C1*%
X60192500Y-49292500D03*
D15*
X57692500Y-49292500D03*
%TD*%
D19*
%TO.C,P1*%
X102897500Y-66142500D03*
X97817500Y-66142500D03*
X100357500Y-72238500D03*
X100357500Y-68682500D03*
%TD*%
%TO.C,S1*%
X67667500Y-51617500D03*
X70207500Y-51617500D03*
X72747500Y-51617500D03*
%TD*%
D15*
%TO.C,R5*%
X80792500Y-104952500D03*
D16*
X80792500Y-94792500D03*
%TD*%
D15*
%TO.C,R6*%
X76742500Y-104952500D03*
D16*
X76742500Y-94792500D03*
%TD*%
D15*
%TO.C,R4*%
X57767500Y-105402500D03*
D16*
X57767500Y-95242500D03*
%TD*%
D19*
%TO.C,P2*%
X42481300Y-65831700D03*
X37401300Y-65831700D03*
X39941300Y-71927700D03*
X39941300Y-68371700D03*
%TD*%
D20*
%TO.C,D3*%
X60292500Y-59547500D03*
D16*
X60292500Y-67167500D03*
%TD*%
D17*
%TO.C,Q*%
X79542500Y-69417500D03*
%TD*%
%TO.C,T1_B*%
X59992500Y-76042500D03*
%TD*%
D21*
%TO.C,U2*%
X57938500Y-35535500D03*
X57938500Y-39091500D03*
X83832500Y-35535500D03*
X83832500Y-39091500D03*
D22*
X70892500Y-37567500D03*
%TD*%
D18*
%TO.C,U1*%
X72962500Y-68162500D03*
D16*
X72962500Y-70702500D03*
X72962500Y-73242500D03*
X72962500Y-75782500D03*
X65342500Y-75782500D03*
X65342500Y-73242500D03*
X65342500Y-70702500D03*
X65342500Y-68162500D03*
%TD*%
D17*
%TO.C,VCC*%
X83917500Y-44867500D03*
%TD*%
M02*
