%TF.GenerationSoftware,KiCad,Pcbnew,8.0.1*%
%TF.CreationDate,2024-04-02T10:46:19+02:00*%
%TF.ProjectId,ROBO_III,524f424f-5f49-4494-992e-6b696361645f,rev?*%
%TF.SameCoordinates,Original*%
%TF.FileFunction,Legend,Bot*%
%TF.FilePolarity,Positive*%
%FSLAX46Y46*%
G04 Gerber Fmt 4.6, Leading zero omitted, Abs format (unit mm)*
G04 Created by KiCad (PCBNEW 8.0.1) date 2024-04-02 10:46:19*
%MOMM*%
%LPD*%
G01*
G04 APERTURE LIST*
%ADD10C,0.150000*%
%ADD11C,0.050000*%
%ADD12C,0.120000*%
%ADD13C,0.010000*%
G04 APERTURE END LIST*
D10*
X102867500Y-66167500D02*
X100342500Y-68742500D01*
X39967500Y-68517500D02*
X42567500Y-65831700D01*
X67652700Y-51633100D02*
X70167500Y-51667500D01*
X62779887Y-88006009D02*
X62637030Y-88053628D01*
X62637030Y-88053628D02*
X62589411Y-88101247D01*
X62589411Y-88101247D02*
X62541792Y-88196485D01*
X62541792Y-88196485D02*
X62541792Y-88339342D01*
X62541792Y-88339342D02*
X62589411Y-88434580D01*
X62589411Y-88434580D02*
X62637030Y-88482200D01*
X62637030Y-88482200D02*
X62732268Y-88529819D01*
X62732268Y-88529819D02*
X63113220Y-88529819D01*
X63113220Y-88529819D02*
X63113220Y-87529819D01*
X63113220Y-87529819D02*
X62779887Y-87529819D01*
X62779887Y-87529819D02*
X62684649Y-87577438D01*
X62684649Y-87577438D02*
X62637030Y-87625057D01*
X62637030Y-87625057D02*
X62589411Y-87720295D01*
X62589411Y-87720295D02*
X62589411Y-87815533D01*
X62589411Y-87815533D02*
X62637030Y-87910771D01*
X62637030Y-87910771D02*
X62684649Y-87958390D01*
X62684649Y-87958390D02*
X62779887Y-88006009D01*
X62779887Y-88006009D02*
X63113220Y-88006009D01*
X61541792Y-88434580D02*
X61589411Y-88482200D01*
X61589411Y-88482200D02*
X61732268Y-88529819D01*
X61732268Y-88529819D02*
X61827506Y-88529819D01*
X61827506Y-88529819D02*
X61970363Y-88482200D01*
X61970363Y-88482200D02*
X62065601Y-88386961D01*
X62065601Y-88386961D02*
X62113220Y-88291723D01*
X62113220Y-88291723D02*
X62160839Y-88101247D01*
X62160839Y-88101247D02*
X62160839Y-87958390D01*
X62160839Y-87958390D02*
X62113220Y-87767914D01*
X62113220Y-87767914D02*
X62065601Y-87672676D01*
X62065601Y-87672676D02*
X61970363Y-87577438D01*
X61970363Y-87577438D02*
X61827506Y-87529819D01*
X61827506Y-87529819D02*
X61732268Y-87529819D01*
X61732268Y-87529819D02*
X61589411Y-87577438D01*
X61589411Y-87577438D02*
X61541792Y-87625057D01*
X60637030Y-87529819D02*
X61113220Y-87529819D01*
X61113220Y-87529819D02*
X61160839Y-88006009D01*
X61160839Y-88006009D02*
X61113220Y-87958390D01*
X61113220Y-87958390D02*
X61017982Y-87910771D01*
X61017982Y-87910771D02*
X60779887Y-87910771D01*
X60779887Y-87910771D02*
X60684649Y-87958390D01*
X60684649Y-87958390D02*
X60637030Y-88006009D01*
X60637030Y-88006009D02*
X60589411Y-88101247D01*
X60589411Y-88101247D02*
X60589411Y-88339342D01*
X60589411Y-88339342D02*
X60637030Y-88434580D01*
X60637030Y-88434580D02*
X60684649Y-88482200D01*
X60684649Y-88482200D02*
X60779887Y-88529819D01*
X60779887Y-88529819D02*
X61017982Y-88529819D01*
X61017982Y-88529819D02*
X61113220Y-88482200D01*
X61113220Y-88482200D02*
X61160839Y-88434580D01*
X59732268Y-87863152D02*
X59732268Y-88529819D01*
X59970363Y-87482200D02*
X60208458Y-88196485D01*
X60208458Y-88196485D02*
X59589411Y-88196485D01*
X59065601Y-87958390D02*
X59160839Y-87910771D01*
X59160839Y-87910771D02*
X59208458Y-87863152D01*
X59208458Y-87863152D02*
X59256077Y-87767914D01*
X59256077Y-87767914D02*
X59256077Y-87720295D01*
X59256077Y-87720295D02*
X59208458Y-87625057D01*
X59208458Y-87625057D02*
X59160839Y-87577438D01*
X59160839Y-87577438D02*
X59065601Y-87529819D01*
X59065601Y-87529819D02*
X58875125Y-87529819D01*
X58875125Y-87529819D02*
X58779887Y-87577438D01*
X58779887Y-87577438D02*
X58732268Y-87625057D01*
X58732268Y-87625057D02*
X58684649Y-87720295D01*
X58684649Y-87720295D02*
X58684649Y-87767914D01*
X58684649Y-87767914D02*
X58732268Y-87863152D01*
X58732268Y-87863152D02*
X58779887Y-87910771D01*
X58779887Y-87910771D02*
X58875125Y-87958390D01*
X58875125Y-87958390D02*
X59065601Y-87958390D01*
X59065601Y-87958390D02*
X59160839Y-88006009D01*
X59160839Y-88006009D02*
X59208458Y-88053628D01*
X59208458Y-88053628D02*
X59256077Y-88148866D01*
X59256077Y-88148866D02*
X59256077Y-88339342D01*
X59256077Y-88339342D02*
X59208458Y-88434580D01*
X59208458Y-88434580D02*
X59160839Y-88482200D01*
X59160839Y-88482200D02*
X59065601Y-88529819D01*
X59065601Y-88529819D02*
X58875125Y-88529819D01*
X58875125Y-88529819D02*
X58779887Y-88482200D01*
X58779887Y-88482200D02*
X58732268Y-88434580D01*
X58732268Y-88434580D02*
X58684649Y-88339342D01*
X58684649Y-88339342D02*
X58684649Y-88148866D01*
X58684649Y-88148866D02*
X58732268Y-88053628D01*
X58732268Y-88053628D02*
X58779887Y-88006009D01*
X58779887Y-88006009D02*
X58875125Y-87958390D01*
X81289887Y-87846009D02*
X81147030Y-87893628D01*
X81147030Y-87893628D02*
X81099411Y-87941247D01*
X81099411Y-87941247D02*
X81051792Y-88036485D01*
X81051792Y-88036485D02*
X81051792Y-88179342D01*
X81051792Y-88179342D02*
X81099411Y-88274580D01*
X81099411Y-88274580D02*
X81147030Y-88322200D01*
X81147030Y-88322200D02*
X81242268Y-88369819D01*
X81242268Y-88369819D02*
X81623220Y-88369819D01*
X81623220Y-88369819D02*
X81623220Y-87369819D01*
X81623220Y-87369819D02*
X81289887Y-87369819D01*
X81289887Y-87369819D02*
X81194649Y-87417438D01*
X81194649Y-87417438D02*
X81147030Y-87465057D01*
X81147030Y-87465057D02*
X81099411Y-87560295D01*
X81099411Y-87560295D02*
X81099411Y-87655533D01*
X81099411Y-87655533D02*
X81147030Y-87750771D01*
X81147030Y-87750771D02*
X81194649Y-87798390D01*
X81194649Y-87798390D02*
X81289887Y-87846009D01*
X81289887Y-87846009D02*
X81623220Y-87846009D01*
X80051792Y-88274580D02*
X80099411Y-88322200D01*
X80099411Y-88322200D02*
X80242268Y-88369819D01*
X80242268Y-88369819D02*
X80337506Y-88369819D01*
X80337506Y-88369819D02*
X80480363Y-88322200D01*
X80480363Y-88322200D02*
X80575601Y-88226961D01*
X80575601Y-88226961D02*
X80623220Y-88131723D01*
X80623220Y-88131723D02*
X80670839Y-87941247D01*
X80670839Y-87941247D02*
X80670839Y-87798390D01*
X80670839Y-87798390D02*
X80623220Y-87607914D01*
X80623220Y-87607914D02*
X80575601Y-87512676D01*
X80575601Y-87512676D02*
X80480363Y-87417438D01*
X80480363Y-87417438D02*
X80337506Y-87369819D01*
X80337506Y-87369819D02*
X80242268Y-87369819D01*
X80242268Y-87369819D02*
X80099411Y-87417438D01*
X80099411Y-87417438D02*
X80051792Y-87465057D01*
X79147030Y-87369819D02*
X79623220Y-87369819D01*
X79623220Y-87369819D02*
X79670839Y-87846009D01*
X79670839Y-87846009D02*
X79623220Y-87798390D01*
X79623220Y-87798390D02*
X79527982Y-87750771D01*
X79527982Y-87750771D02*
X79289887Y-87750771D01*
X79289887Y-87750771D02*
X79194649Y-87798390D01*
X79194649Y-87798390D02*
X79147030Y-87846009D01*
X79147030Y-87846009D02*
X79099411Y-87941247D01*
X79099411Y-87941247D02*
X79099411Y-88179342D01*
X79099411Y-88179342D02*
X79147030Y-88274580D01*
X79147030Y-88274580D02*
X79194649Y-88322200D01*
X79194649Y-88322200D02*
X79289887Y-88369819D01*
X79289887Y-88369819D02*
X79527982Y-88369819D01*
X79527982Y-88369819D02*
X79623220Y-88322200D01*
X79623220Y-88322200D02*
X79670839Y-88274580D01*
X78242268Y-87703152D02*
X78242268Y-88369819D01*
X78480363Y-87322200D02*
X78718458Y-88036485D01*
X78718458Y-88036485D02*
X78099411Y-88036485D01*
X77575601Y-87798390D02*
X77670839Y-87750771D01*
X77670839Y-87750771D02*
X77718458Y-87703152D01*
X77718458Y-87703152D02*
X77766077Y-87607914D01*
X77766077Y-87607914D02*
X77766077Y-87560295D01*
X77766077Y-87560295D02*
X77718458Y-87465057D01*
X77718458Y-87465057D02*
X77670839Y-87417438D01*
X77670839Y-87417438D02*
X77575601Y-87369819D01*
X77575601Y-87369819D02*
X77385125Y-87369819D01*
X77385125Y-87369819D02*
X77289887Y-87417438D01*
X77289887Y-87417438D02*
X77242268Y-87465057D01*
X77242268Y-87465057D02*
X77194649Y-87560295D01*
X77194649Y-87560295D02*
X77194649Y-87607914D01*
X77194649Y-87607914D02*
X77242268Y-87703152D01*
X77242268Y-87703152D02*
X77289887Y-87750771D01*
X77289887Y-87750771D02*
X77385125Y-87798390D01*
X77385125Y-87798390D02*
X77575601Y-87798390D01*
X77575601Y-87798390D02*
X77670839Y-87846009D01*
X77670839Y-87846009D02*
X77718458Y-87893628D01*
X77718458Y-87893628D02*
X77766077Y-87988866D01*
X77766077Y-87988866D02*
X77766077Y-88179342D01*
X77766077Y-88179342D02*
X77718458Y-88274580D01*
X77718458Y-88274580D02*
X77670839Y-88322200D01*
X77670839Y-88322200D02*
X77575601Y-88369819D01*
X77575601Y-88369819D02*
X77385125Y-88369819D01*
X77385125Y-88369819D02*
X77289887Y-88322200D01*
X77289887Y-88322200D02*
X77242268Y-88274580D01*
X77242268Y-88274580D02*
X77194649Y-88179342D01*
X77194649Y-88179342D02*
X77194649Y-87988866D01*
X77194649Y-87988866D02*
X77242268Y-87893628D01*
X77242268Y-87893628D02*
X77289887Y-87846009D01*
X77289887Y-87846009D02*
X77385125Y-87798390D01*
X62997506Y-120039819D02*
X62997506Y-120754104D01*
X62997506Y-120754104D02*
X63045125Y-120896961D01*
X63045125Y-120896961D02*
X63140363Y-120992200D01*
X63140363Y-120992200D02*
X63283220Y-121039819D01*
X63283220Y-121039819D02*
X63378458Y-121039819D01*
X62045125Y-121039819D02*
X62521315Y-121039819D01*
X62521315Y-121039819D02*
X62521315Y-120039819D01*
X61140363Y-120944580D02*
X61187982Y-120992200D01*
X61187982Y-120992200D02*
X61330839Y-121039819D01*
X61330839Y-121039819D02*
X61426077Y-121039819D01*
X61426077Y-121039819D02*
X61568934Y-120992200D01*
X61568934Y-120992200D02*
X61664172Y-120896961D01*
X61664172Y-120896961D02*
X61711791Y-120801723D01*
X61711791Y-120801723D02*
X61759410Y-120611247D01*
X61759410Y-120611247D02*
X61759410Y-120468390D01*
X61759410Y-120468390D02*
X61711791Y-120277914D01*
X61711791Y-120277914D02*
X61664172Y-120182676D01*
X61664172Y-120182676D02*
X61568934Y-120087438D01*
X61568934Y-120087438D02*
X61426077Y-120039819D01*
X61426077Y-120039819D02*
X61330839Y-120039819D01*
X61330839Y-120039819D02*
X61187982Y-120087438D01*
X61187982Y-120087438D02*
X61140363Y-120135057D01*
X60426077Y-120039819D02*
X60426077Y-120754104D01*
X60426077Y-120754104D02*
X60473696Y-120896961D01*
X60473696Y-120896961D02*
X60568934Y-120992200D01*
X60568934Y-120992200D02*
X60711791Y-121039819D01*
X60711791Y-121039819D02*
X60807029Y-121039819D01*
X59473696Y-121039819D02*
X59949886Y-121039819D01*
X59949886Y-121039819D02*
X59949886Y-120039819D01*
X58568934Y-120944580D02*
X58616553Y-120992200D01*
X58616553Y-120992200D02*
X58759410Y-121039819D01*
X58759410Y-121039819D02*
X58854648Y-121039819D01*
X58854648Y-121039819D02*
X58997505Y-120992200D01*
X58997505Y-120992200D02*
X59092743Y-120896961D01*
X59092743Y-120896961D02*
X59140362Y-120801723D01*
X59140362Y-120801723D02*
X59187981Y-120611247D01*
X59187981Y-120611247D02*
X59187981Y-120468390D01*
X59187981Y-120468390D02*
X59140362Y-120277914D01*
X59140362Y-120277914D02*
X59092743Y-120182676D01*
X59092743Y-120182676D02*
X58997505Y-120087438D01*
X58997505Y-120087438D02*
X58854648Y-120039819D01*
X58854648Y-120039819D02*
X58759410Y-120039819D01*
X58759410Y-120039819D02*
X58616553Y-120087438D01*
X58616553Y-120087438D02*
X58568934Y-120135057D01*
X57854648Y-120039819D02*
X57854648Y-120754104D01*
X57854648Y-120754104D02*
X57902267Y-120896961D01*
X57902267Y-120896961D02*
X57997505Y-120992200D01*
X57997505Y-120992200D02*
X58140362Y-121039819D01*
X58140362Y-121039819D02*
X58235600Y-121039819D01*
X56902267Y-121039819D02*
X57378457Y-121039819D01*
X57378457Y-121039819D02*
X57378457Y-120039819D01*
X55997505Y-120944580D02*
X56045124Y-120992200D01*
X56045124Y-120992200D02*
X56187981Y-121039819D01*
X56187981Y-121039819D02*
X56283219Y-121039819D01*
X56283219Y-121039819D02*
X56426076Y-120992200D01*
X56426076Y-120992200D02*
X56521314Y-120896961D01*
X56521314Y-120896961D02*
X56568933Y-120801723D01*
X56568933Y-120801723D02*
X56616552Y-120611247D01*
X56616552Y-120611247D02*
X56616552Y-120468390D01*
X56616552Y-120468390D02*
X56568933Y-120277914D01*
X56568933Y-120277914D02*
X56521314Y-120182676D01*
X56521314Y-120182676D02*
X56426076Y-120087438D01*
X56426076Y-120087438D02*
X56283219Y-120039819D01*
X56283219Y-120039819D02*
X56187981Y-120039819D01*
X56187981Y-120039819D02*
X56045124Y-120087438D01*
X56045124Y-120087438D02*
X55997505Y-120135057D01*
X55283219Y-120039819D02*
X55283219Y-120754104D01*
X55283219Y-120754104D02*
X55330838Y-120896961D01*
X55330838Y-120896961D02*
X55426076Y-120992200D01*
X55426076Y-120992200D02*
X55568933Y-121039819D01*
X55568933Y-121039819D02*
X55664171Y-121039819D01*
X54330838Y-121039819D02*
X54807028Y-121039819D01*
X54807028Y-121039819D02*
X54807028Y-120039819D01*
X53426076Y-120944580D02*
X53473695Y-120992200D01*
X53473695Y-120992200D02*
X53616552Y-121039819D01*
X53616552Y-121039819D02*
X53711790Y-121039819D01*
X53711790Y-121039819D02*
X53854647Y-120992200D01*
X53854647Y-120992200D02*
X53949885Y-120896961D01*
X53949885Y-120896961D02*
X53997504Y-120801723D01*
X53997504Y-120801723D02*
X54045123Y-120611247D01*
X54045123Y-120611247D02*
X54045123Y-120468390D01*
X54045123Y-120468390D02*
X53997504Y-120277914D01*
X53997504Y-120277914D02*
X53949885Y-120182676D01*
X53949885Y-120182676D02*
X53854647Y-120087438D01*
X53854647Y-120087438D02*
X53711790Y-120039819D01*
X53711790Y-120039819D02*
X53616552Y-120039819D01*
X53616552Y-120039819D02*
X53473695Y-120087438D01*
X53473695Y-120087438D02*
X53426076Y-120135057D01*
X50185404Y-58006119D02*
X50185404Y-57006119D01*
X49613976Y-58006119D02*
X50042547Y-57434690D01*
X49613976Y-57006119D02*
X50185404Y-57577547D01*
X79901904Y-79774819D02*
X79330476Y-79774819D01*
X79616190Y-80774819D02*
X79616190Y-79774819D01*
X79044761Y-79870057D02*
X78997142Y-79822438D01*
X78997142Y-79822438D02*
X78901904Y-79774819D01*
X78901904Y-79774819D02*
X78663809Y-79774819D01*
X78663809Y-79774819D02*
X78568571Y-79822438D01*
X78568571Y-79822438D02*
X78520952Y-79870057D01*
X78520952Y-79870057D02*
X78473333Y-79965295D01*
X78473333Y-79965295D02*
X78473333Y-80060533D01*
X78473333Y-80060533D02*
X78520952Y-80203390D01*
X78520952Y-80203390D02*
X79092380Y-80774819D01*
X79092380Y-80774819D02*
X78473333Y-80774819D01*
X61581904Y-79554819D02*
X61010476Y-79554819D01*
X61296190Y-80554819D02*
X61296190Y-79554819D01*
X60153333Y-80554819D02*
X60724761Y-80554819D01*
X60439047Y-80554819D02*
X60439047Y-79554819D01*
X60439047Y-79554819D02*
X60534285Y-79697676D01*
X60534285Y-79697676D02*
X60629523Y-79792914D01*
X60629523Y-79792914D02*
X60724761Y-79840533D01*
X62172319Y-100200833D02*
X61696128Y-99867500D01*
X62172319Y-99629405D02*
X61172319Y-99629405D01*
X61172319Y-99629405D02*
X61172319Y-100010357D01*
X61172319Y-100010357D02*
X61219938Y-100105595D01*
X61219938Y-100105595D02*
X61267557Y-100153214D01*
X61267557Y-100153214D02*
X61362795Y-100200833D01*
X61362795Y-100200833D02*
X61505652Y-100200833D01*
X61505652Y-100200833D02*
X61600890Y-100153214D01*
X61600890Y-100153214D02*
X61648509Y-100105595D01*
X61648509Y-100105595D02*
X61696128Y-100010357D01*
X61696128Y-100010357D02*
X61696128Y-99629405D01*
X61172319Y-100534167D02*
X61172319Y-101153214D01*
X61172319Y-101153214D02*
X61553271Y-100819881D01*
X61553271Y-100819881D02*
X61553271Y-100962738D01*
X61553271Y-100962738D02*
X61600890Y-101057976D01*
X61600890Y-101057976D02*
X61648509Y-101105595D01*
X61648509Y-101105595D02*
X61743747Y-101153214D01*
X61743747Y-101153214D02*
X61981842Y-101153214D01*
X61981842Y-101153214D02*
X62077080Y-101105595D01*
X62077080Y-101105595D02*
X62124700Y-101057976D01*
X62124700Y-101057976D02*
X62172319Y-100962738D01*
X62172319Y-100962738D02*
X62172319Y-100677024D01*
X62172319Y-100677024D02*
X62124700Y-100581786D01*
X62124700Y-100581786D02*
X62077080Y-100534167D01*
X63847319Y-99073452D02*
X63847319Y-98597262D01*
X63847319Y-98597262D02*
X64323509Y-98549643D01*
X64323509Y-98549643D02*
X64275890Y-98597262D01*
X64275890Y-98597262D02*
X64228271Y-98692500D01*
X64228271Y-98692500D02*
X64228271Y-98930595D01*
X64228271Y-98930595D02*
X64275890Y-99025833D01*
X64275890Y-99025833D02*
X64323509Y-99073452D01*
X64323509Y-99073452D02*
X64418747Y-99121071D01*
X64418747Y-99121071D02*
X64656842Y-99121071D01*
X64656842Y-99121071D02*
X64752080Y-99073452D01*
X64752080Y-99073452D02*
X64799700Y-99025833D01*
X64799700Y-99025833D02*
X64847319Y-98930595D01*
X64847319Y-98930595D02*
X64847319Y-98692500D01*
X64847319Y-98692500D02*
X64799700Y-98597262D01*
X64799700Y-98597262D02*
X64752080Y-98549643D01*
X63847319Y-99978214D02*
X63847319Y-99787738D01*
X63847319Y-99787738D02*
X63894938Y-99692500D01*
X63894938Y-99692500D02*
X63942557Y-99644881D01*
X63942557Y-99644881D02*
X64085414Y-99549643D01*
X64085414Y-99549643D02*
X64275890Y-99502024D01*
X64275890Y-99502024D02*
X64656842Y-99502024D01*
X64656842Y-99502024D02*
X64752080Y-99549643D01*
X64752080Y-99549643D02*
X64799700Y-99597262D01*
X64799700Y-99597262D02*
X64847319Y-99692500D01*
X64847319Y-99692500D02*
X64847319Y-99882976D01*
X64847319Y-99882976D02*
X64799700Y-99978214D01*
X64799700Y-99978214D02*
X64752080Y-100025833D01*
X64752080Y-100025833D02*
X64656842Y-100073452D01*
X64656842Y-100073452D02*
X64418747Y-100073452D01*
X64418747Y-100073452D02*
X64323509Y-100025833D01*
X64323509Y-100025833D02*
X64275890Y-99978214D01*
X64275890Y-99978214D02*
X64228271Y-99882976D01*
X64228271Y-99882976D02*
X64228271Y-99692500D01*
X64228271Y-99692500D02*
X64275890Y-99597262D01*
X64275890Y-99597262D02*
X64323509Y-99549643D01*
X64323509Y-99549643D02*
X64418747Y-99502024D01*
X63847319Y-100692500D02*
X63847319Y-100787738D01*
X63847319Y-100787738D02*
X63894938Y-100882976D01*
X63894938Y-100882976D02*
X63942557Y-100930595D01*
X63942557Y-100930595D02*
X64037795Y-100978214D01*
X64037795Y-100978214D02*
X64228271Y-101025833D01*
X64228271Y-101025833D02*
X64466366Y-101025833D01*
X64466366Y-101025833D02*
X64656842Y-100978214D01*
X64656842Y-100978214D02*
X64752080Y-100930595D01*
X64752080Y-100930595D02*
X64799700Y-100882976D01*
X64799700Y-100882976D02*
X64847319Y-100787738D01*
X64847319Y-100787738D02*
X64847319Y-100692500D01*
X64847319Y-100692500D02*
X64799700Y-100597262D01*
X64799700Y-100597262D02*
X64752080Y-100549643D01*
X64752080Y-100549643D02*
X64656842Y-100502024D01*
X64656842Y-100502024D02*
X64466366Y-100454405D01*
X64466366Y-100454405D02*
X64228271Y-100454405D01*
X64228271Y-100454405D02*
X64037795Y-100502024D01*
X64037795Y-100502024D02*
X63942557Y-100549643D01*
X63942557Y-100549643D02*
X63894938Y-100597262D01*
X63894938Y-100597262D02*
X63847319Y-100692500D01*
X64847319Y-101454405D02*
X63847319Y-101454405D01*
X64466366Y-101549643D02*
X64847319Y-101835357D01*
X64180652Y-101835357D02*
X64561604Y-101454405D01*
X81085356Y-73422319D02*
X80513928Y-73422319D01*
X80799642Y-74422319D02*
X80799642Y-73422319D01*
X80228213Y-73517557D02*
X80180594Y-73469938D01*
X80180594Y-73469938D02*
X80085356Y-73422319D01*
X80085356Y-73422319D02*
X79847261Y-73422319D01*
X79847261Y-73422319D02*
X79752023Y-73469938D01*
X79752023Y-73469938D02*
X79704404Y-73517557D01*
X79704404Y-73517557D02*
X79656785Y-73612795D01*
X79656785Y-73612795D02*
X79656785Y-73708033D01*
X79656785Y-73708033D02*
X79704404Y-73850890D01*
X79704404Y-73850890D02*
X80275832Y-74422319D01*
X80275832Y-74422319D02*
X79656785Y-74422319D01*
X79466309Y-74517557D02*
X78704404Y-74517557D01*
X78132975Y-73898509D02*
X77990118Y-73946128D01*
X77990118Y-73946128D02*
X77942499Y-73993747D01*
X77942499Y-73993747D02*
X77894880Y-74088985D01*
X77894880Y-74088985D02*
X77894880Y-74231842D01*
X77894880Y-74231842D02*
X77942499Y-74327080D01*
X77942499Y-74327080D02*
X77990118Y-74374700D01*
X77990118Y-74374700D02*
X78085356Y-74422319D01*
X78085356Y-74422319D02*
X78466308Y-74422319D01*
X78466308Y-74422319D02*
X78466308Y-73422319D01*
X78466308Y-73422319D02*
X78132975Y-73422319D01*
X78132975Y-73422319D02*
X78037737Y-73469938D01*
X78037737Y-73469938D02*
X77990118Y-73517557D01*
X77990118Y-73517557D02*
X77942499Y-73612795D01*
X77942499Y-73612795D02*
X77942499Y-73708033D01*
X77942499Y-73708033D02*
X77990118Y-73803271D01*
X77990118Y-73803271D02*
X78037737Y-73850890D01*
X78037737Y-73850890D02*
X78132975Y-73898509D01*
X78132975Y-73898509D02*
X78466308Y-73898509D01*
X84779404Y-53644938D02*
X84874642Y-53597319D01*
X84874642Y-53597319D02*
X85017499Y-53597319D01*
X85017499Y-53597319D02*
X85160356Y-53644938D01*
X85160356Y-53644938D02*
X85255594Y-53740176D01*
X85255594Y-53740176D02*
X85303213Y-53835414D01*
X85303213Y-53835414D02*
X85350832Y-54025890D01*
X85350832Y-54025890D02*
X85350832Y-54168747D01*
X85350832Y-54168747D02*
X85303213Y-54359223D01*
X85303213Y-54359223D02*
X85255594Y-54454461D01*
X85255594Y-54454461D02*
X85160356Y-54549700D01*
X85160356Y-54549700D02*
X85017499Y-54597319D01*
X85017499Y-54597319D02*
X84922261Y-54597319D01*
X84922261Y-54597319D02*
X84779404Y-54549700D01*
X84779404Y-54549700D02*
X84731785Y-54502080D01*
X84731785Y-54502080D02*
X84731785Y-54168747D01*
X84731785Y-54168747D02*
X84922261Y-54168747D01*
X84303213Y-54597319D02*
X84303213Y-53597319D01*
X84303213Y-53597319D02*
X83731785Y-54597319D01*
X83731785Y-54597319D02*
X83731785Y-53597319D01*
X83255594Y-54597319D02*
X83255594Y-53597319D01*
X83255594Y-53597319D02*
X83017499Y-53597319D01*
X83017499Y-53597319D02*
X82874642Y-53644938D01*
X82874642Y-53644938D02*
X82779404Y-53740176D01*
X82779404Y-53740176D02*
X82731785Y-53835414D01*
X82731785Y-53835414D02*
X82684166Y-54025890D01*
X82684166Y-54025890D02*
X82684166Y-54168747D01*
X82684166Y-54168747D02*
X82731785Y-54359223D01*
X82731785Y-54359223D02*
X82779404Y-54454461D01*
X82779404Y-54454461D02*
X82874642Y-54549700D01*
X82874642Y-54549700D02*
X83017499Y-54597319D01*
X83017499Y-54597319D02*
X83255594Y-54597319D01*
X-137665832Y-62747080D02*
X-137618213Y-62794700D01*
X-137618213Y-62794700D02*
X-137475356Y-62842319D01*
X-137475356Y-62842319D02*
X-137380118Y-62842319D01*
X-137380118Y-62842319D02*
X-137237261Y-62794700D01*
X-137237261Y-62794700D02*
X-137142023Y-62699461D01*
X-137142023Y-62699461D02*
X-137094404Y-62604223D01*
X-137094404Y-62604223D02*
X-137046785Y-62413747D01*
X-137046785Y-62413747D02*
X-137046785Y-62270890D01*
X-137046785Y-62270890D02*
X-137094404Y-62080414D01*
X-137094404Y-62080414D02*
X-137142023Y-61985176D01*
X-137142023Y-61985176D02*
X-137237261Y-61889938D01*
X-137237261Y-61889938D02*
X-137380118Y-61842319D01*
X-137380118Y-61842319D02*
X-137475356Y-61842319D01*
X-137475356Y-61842319D02*
X-137618213Y-61889938D01*
X-137618213Y-61889938D02*
X-137665832Y-61937557D01*
X-138618213Y-62842319D02*
X-138046785Y-62842319D01*
X-138332499Y-62842319D02*
X-138332499Y-61842319D01*
X-138332499Y-61842319D02*
X-138237261Y-61985176D01*
X-138237261Y-61985176D02*
X-138142023Y-62080414D01*
X-138142023Y-62080414D02*
X-138046785Y-62128033D01*
X61061547Y-53242557D02*
X61013928Y-53194938D01*
X61013928Y-53194938D02*
X60918690Y-53147319D01*
X60918690Y-53147319D02*
X60680595Y-53147319D01*
X60680595Y-53147319D02*
X60585357Y-53194938D01*
X60585357Y-53194938D02*
X60537738Y-53242557D01*
X60537738Y-53242557D02*
X60490119Y-53337795D01*
X60490119Y-53337795D02*
X60490119Y-53433033D01*
X60490119Y-53433033D02*
X60537738Y-53575890D01*
X60537738Y-53575890D02*
X61109166Y-54147319D01*
X61109166Y-54147319D02*
X60490119Y-54147319D01*
X60109166Y-53242557D02*
X60061547Y-53194938D01*
X60061547Y-53194938D02*
X59966309Y-53147319D01*
X59966309Y-53147319D02*
X59728214Y-53147319D01*
X59728214Y-53147319D02*
X59632976Y-53194938D01*
X59632976Y-53194938D02*
X59585357Y-53242557D01*
X59585357Y-53242557D02*
X59537738Y-53337795D01*
X59537738Y-53337795D02*
X59537738Y-53433033D01*
X59537738Y-53433033D02*
X59585357Y-53575890D01*
X59585357Y-53575890D02*
X60156785Y-54147319D01*
X60156785Y-54147319D02*
X59537738Y-54147319D01*
X58918690Y-53147319D02*
X58823452Y-53147319D01*
X58823452Y-53147319D02*
X58728214Y-53194938D01*
X58728214Y-53194938D02*
X58680595Y-53242557D01*
X58680595Y-53242557D02*
X58632976Y-53337795D01*
X58632976Y-53337795D02*
X58585357Y-53528271D01*
X58585357Y-53528271D02*
X58585357Y-53766366D01*
X58585357Y-53766366D02*
X58632976Y-53956842D01*
X58632976Y-53956842D02*
X58680595Y-54052080D01*
X58680595Y-54052080D02*
X58728214Y-54099700D01*
X58728214Y-54099700D02*
X58823452Y-54147319D01*
X58823452Y-54147319D02*
X58918690Y-54147319D01*
X58918690Y-54147319D02*
X59013928Y-54099700D01*
X59013928Y-54099700D02*
X59061547Y-54052080D01*
X59061547Y-54052080D02*
X59109166Y-53956842D01*
X59109166Y-53956842D02*
X59156785Y-53766366D01*
X59156785Y-53766366D02*
X59156785Y-53528271D01*
X59156785Y-53528271D02*
X59109166Y-53337795D01*
X59109166Y-53337795D02*
X59061547Y-53242557D01*
X59061547Y-53242557D02*
X59013928Y-53194938D01*
X59013928Y-53194938D02*
X58918690Y-53147319D01*
X57728214Y-53480652D02*
X57728214Y-54147319D01*
X58156785Y-53480652D02*
X58156785Y-54004461D01*
X58156785Y-54004461D02*
X58109166Y-54099700D01*
X58109166Y-54099700D02*
X58013928Y-54147319D01*
X58013928Y-54147319D02*
X57871071Y-54147319D01*
X57871071Y-54147319D02*
X57775833Y-54099700D01*
X57775833Y-54099700D02*
X57728214Y-54052080D01*
X56918690Y-53623509D02*
X57252023Y-53623509D01*
X57252023Y-54147319D02*
X57252023Y-53147319D01*
X57252023Y-53147319D02*
X56775833Y-53147319D01*
X101002738Y-75062319D02*
X101574166Y-75062319D01*
X101288452Y-75062319D02*
X101288452Y-74062319D01*
X101288452Y-74062319D02*
X101383690Y-74205176D01*
X101383690Y-74205176D02*
X101478928Y-74300414D01*
X101478928Y-74300414D02*
X101574166Y-74348033D01*
X100383690Y-74062319D02*
X100288452Y-74062319D01*
X100288452Y-74062319D02*
X100193214Y-74109938D01*
X100193214Y-74109938D02*
X100145595Y-74157557D01*
X100145595Y-74157557D02*
X100097976Y-74252795D01*
X100097976Y-74252795D02*
X100050357Y-74443271D01*
X100050357Y-74443271D02*
X100050357Y-74681366D01*
X100050357Y-74681366D02*
X100097976Y-74871842D01*
X100097976Y-74871842D02*
X100145595Y-74967080D01*
X100145595Y-74967080D02*
X100193214Y-75014700D01*
X100193214Y-75014700D02*
X100288452Y-75062319D01*
X100288452Y-75062319D02*
X100383690Y-75062319D01*
X100383690Y-75062319D02*
X100478928Y-75014700D01*
X100478928Y-75014700D02*
X100526547Y-74967080D01*
X100526547Y-74967080D02*
X100574166Y-74871842D01*
X100574166Y-74871842D02*
X100621785Y-74681366D01*
X100621785Y-74681366D02*
X100621785Y-74443271D01*
X100621785Y-74443271D02*
X100574166Y-74252795D01*
X100574166Y-74252795D02*
X100526547Y-74157557D01*
X100526547Y-74157557D02*
X100478928Y-74109938D01*
X100478928Y-74109938D02*
X100383690Y-74062319D01*
X99621785Y-75062319D02*
X99621785Y-74062319D01*
X99526547Y-74681366D02*
X99240833Y-75062319D01*
X99240833Y-74395652D02*
X99621785Y-74776604D01*
X71179404Y-49249700D02*
X71036547Y-49297319D01*
X71036547Y-49297319D02*
X70798452Y-49297319D01*
X70798452Y-49297319D02*
X70703214Y-49249700D01*
X70703214Y-49249700D02*
X70655595Y-49202080D01*
X70655595Y-49202080D02*
X70607976Y-49106842D01*
X70607976Y-49106842D02*
X70607976Y-49011604D01*
X70607976Y-49011604D02*
X70655595Y-48916366D01*
X70655595Y-48916366D02*
X70703214Y-48868747D01*
X70703214Y-48868747D02*
X70798452Y-48821128D01*
X70798452Y-48821128D02*
X70988928Y-48773509D01*
X70988928Y-48773509D02*
X71084166Y-48725890D01*
X71084166Y-48725890D02*
X71131785Y-48678271D01*
X71131785Y-48678271D02*
X71179404Y-48583033D01*
X71179404Y-48583033D02*
X71179404Y-48487795D01*
X71179404Y-48487795D02*
X71131785Y-48392557D01*
X71131785Y-48392557D02*
X71084166Y-48344938D01*
X71084166Y-48344938D02*
X70988928Y-48297319D01*
X70988928Y-48297319D02*
X70750833Y-48297319D01*
X70750833Y-48297319D02*
X70607976Y-48344938D01*
X69655595Y-49297319D02*
X70227023Y-49297319D01*
X69941309Y-49297319D02*
X69941309Y-48297319D01*
X69941309Y-48297319D02*
X70036547Y-48440176D01*
X70036547Y-48440176D02*
X70131785Y-48535414D01*
X70131785Y-48535414D02*
X70227023Y-48583033D01*
X81322319Y-99610833D02*
X80846128Y-99277500D01*
X81322319Y-99039405D02*
X80322319Y-99039405D01*
X80322319Y-99039405D02*
X80322319Y-99420357D01*
X80322319Y-99420357D02*
X80369938Y-99515595D01*
X80369938Y-99515595D02*
X80417557Y-99563214D01*
X80417557Y-99563214D02*
X80512795Y-99610833D01*
X80512795Y-99610833D02*
X80655652Y-99610833D01*
X80655652Y-99610833D02*
X80750890Y-99563214D01*
X80750890Y-99563214D02*
X80798509Y-99515595D01*
X80798509Y-99515595D02*
X80846128Y-99420357D01*
X80846128Y-99420357D02*
X80846128Y-99039405D01*
X80322319Y-100515595D02*
X80322319Y-100039405D01*
X80322319Y-100039405D02*
X80798509Y-99991786D01*
X80798509Y-99991786D02*
X80750890Y-100039405D01*
X80750890Y-100039405D02*
X80703271Y-100134643D01*
X80703271Y-100134643D02*
X80703271Y-100372738D01*
X80703271Y-100372738D02*
X80750890Y-100467976D01*
X80750890Y-100467976D02*
X80798509Y-100515595D01*
X80798509Y-100515595D02*
X80893747Y-100563214D01*
X80893747Y-100563214D02*
X81131842Y-100563214D01*
X81131842Y-100563214D02*
X81227080Y-100515595D01*
X81227080Y-100515595D02*
X81274700Y-100467976D01*
X81274700Y-100467976D02*
X81322319Y-100372738D01*
X81322319Y-100372738D02*
X81322319Y-100134643D01*
X81322319Y-100134643D02*
X81274700Y-100039405D01*
X81274700Y-100039405D02*
X81227080Y-99991786D01*
X83105652Y-99077023D02*
X83772319Y-99077023D01*
X82724700Y-98838928D02*
X83438985Y-98600833D01*
X83438985Y-98600833D02*
X83438985Y-99219880D01*
X83772319Y-99600833D02*
X82772319Y-99600833D01*
X83391366Y-99696071D02*
X83772319Y-99981785D01*
X83105652Y-99981785D02*
X83486604Y-99600833D01*
X82772319Y-100315119D02*
X82772319Y-100981785D01*
X82772319Y-100981785D02*
X83772319Y-100553214D01*
X77197319Y-99685833D02*
X76721128Y-99352500D01*
X77197319Y-99114405D02*
X76197319Y-99114405D01*
X76197319Y-99114405D02*
X76197319Y-99495357D01*
X76197319Y-99495357D02*
X76244938Y-99590595D01*
X76244938Y-99590595D02*
X76292557Y-99638214D01*
X76292557Y-99638214D02*
X76387795Y-99685833D01*
X76387795Y-99685833D02*
X76530652Y-99685833D01*
X76530652Y-99685833D02*
X76625890Y-99638214D01*
X76625890Y-99638214D02*
X76673509Y-99590595D01*
X76673509Y-99590595D02*
X76721128Y-99495357D01*
X76721128Y-99495357D02*
X76721128Y-99114405D01*
X76197319Y-100542976D02*
X76197319Y-100352500D01*
X76197319Y-100352500D02*
X76244938Y-100257262D01*
X76244938Y-100257262D02*
X76292557Y-100209643D01*
X76292557Y-100209643D02*
X76435414Y-100114405D01*
X76435414Y-100114405D02*
X76625890Y-100066786D01*
X76625890Y-100066786D02*
X77006842Y-100066786D01*
X77006842Y-100066786D02*
X77102080Y-100114405D01*
X77102080Y-100114405D02*
X77149700Y-100162024D01*
X77149700Y-100162024D02*
X77197319Y-100257262D01*
X77197319Y-100257262D02*
X77197319Y-100447738D01*
X77197319Y-100447738D02*
X77149700Y-100542976D01*
X77149700Y-100542976D02*
X77102080Y-100590595D01*
X77102080Y-100590595D02*
X77006842Y-100638214D01*
X77006842Y-100638214D02*
X76768747Y-100638214D01*
X76768747Y-100638214D02*
X76673509Y-100590595D01*
X76673509Y-100590595D02*
X76625890Y-100542976D01*
X76625890Y-100542976D02*
X76578271Y-100447738D01*
X76578271Y-100447738D02*
X76578271Y-100257262D01*
X76578271Y-100257262D02*
X76625890Y-100162024D01*
X76625890Y-100162024D02*
X76673509Y-100114405D01*
X76673509Y-100114405D02*
X76768747Y-100066786D01*
X74827319Y-99182023D02*
X74827319Y-98610595D01*
X74827319Y-98896309D02*
X73827319Y-98896309D01*
X73827319Y-98896309D02*
X73970176Y-98801071D01*
X73970176Y-98801071D02*
X74065414Y-98705833D01*
X74065414Y-98705833D02*
X74113033Y-98610595D01*
X73827319Y-99801071D02*
X73827319Y-99896309D01*
X73827319Y-99896309D02*
X73874938Y-99991547D01*
X73874938Y-99991547D02*
X73922557Y-100039166D01*
X73922557Y-100039166D02*
X74017795Y-100086785D01*
X74017795Y-100086785D02*
X74208271Y-100134404D01*
X74208271Y-100134404D02*
X74446366Y-100134404D01*
X74446366Y-100134404D02*
X74636842Y-100086785D01*
X74636842Y-100086785D02*
X74732080Y-100039166D01*
X74732080Y-100039166D02*
X74779700Y-99991547D01*
X74779700Y-99991547D02*
X74827319Y-99896309D01*
X74827319Y-99896309D02*
X74827319Y-99801071D01*
X74827319Y-99801071D02*
X74779700Y-99705833D01*
X74779700Y-99705833D02*
X74732080Y-99658214D01*
X74732080Y-99658214D02*
X74636842Y-99610595D01*
X74636842Y-99610595D02*
X74446366Y-99562976D01*
X74446366Y-99562976D02*
X74208271Y-99562976D01*
X74208271Y-99562976D02*
X74017795Y-99610595D01*
X74017795Y-99610595D02*
X73922557Y-99658214D01*
X73922557Y-99658214D02*
X73874938Y-99705833D01*
X73874938Y-99705833D02*
X73827319Y-99801071D01*
X74827319Y-101134404D02*
X74351128Y-100801071D01*
X74827319Y-100562976D02*
X73827319Y-100562976D01*
X73827319Y-100562976D02*
X73827319Y-100943928D01*
X73827319Y-100943928D02*
X73874938Y-101039166D01*
X73874938Y-101039166D02*
X73922557Y-101086785D01*
X73922557Y-101086785D02*
X74017795Y-101134404D01*
X74017795Y-101134404D02*
X74160652Y-101134404D01*
X74160652Y-101134404D02*
X74255890Y-101086785D01*
X74255890Y-101086785D02*
X74303509Y-101039166D01*
X74303509Y-101039166D02*
X74351128Y-100943928D01*
X74351128Y-100943928D02*
X74351128Y-100562976D01*
X58222319Y-100225833D02*
X57746128Y-99892500D01*
X58222319Y-99654405D02*
X57222319Y-99654405D01*
X57222319Y-99654405D02*
X57222319Y-100035357D01*
X57222319Y-100035357D02*
X57269938Y-100130595D01*
X57269938Y-100130595D02*
X57317557Y-100178214D01*
X57317557Y-100178214D02*
X57412795Y-100225833D01*
X57412795Y-100225833D02*
X57555652Y-100225833D01*
X57555652Y-100225833D02*
X57650890Y-100178214D01*
X57650890Y-100178214D02*
X57698509Y-100130595D01*
X57698509Y-100130595D02*
X57746128Y-100035357D01*
X57746128Y-100035357D02*
X57746128Y-99654405D01*
X57555652Y-101082976D02*
X58222319Y-101082976D01*
X57174700Y-100844881D02*
X57888985Y-100606786D01*
X57888985Y-100606786D02*
X57888985Y-101225833D01*
X54852319Y-98632024D02*
X54852319Y-99251071D01*
X54852319Y-99251071D02*
X55233271Y-98917738D01*
X55233271Y-98917738D02*
X55233271Y-99060595D01*
X55233271Y-99060595D02*
X55280890Y-99155833D01*
X55280890Y-99155833D02*
X55328509Y-99203452D01*
X55328509Y-99203452D02*
X55423747Y-99251071D01*
X55423747Y-99251071D02*
X55661842Y-99251071D01*
X55661842Y-99251071D02*
X55757080Y-99203452D01*
X55757080Y-99203452D02*
X55804700Y-99155833D01*
X55804700Y-99155833D02*
X55852319Y-99060595D01*
X55852319Y-99060595D02*
X55852319Y-98774881D01*
X55852319Y-98774881D02*
X55804700Y-98679643D01*
X55804700Y-98679643D02*
X55757080Y-98632024D01*
X55852319Y-99727262D02*
X55852319Y-99917738D01*
X55852319Y-99917738D02*
X55804700Y-100012976D01*
X55804700Y-100012976D02*
X55757080Y-100060595D01*
X55757080Y-100060595D02*
X55614223Y-100155833D01*
X55614223Y-100155833D02*
X55423747Y-100203452D01*
X55423747Y-100203452D02*
X55042795Y-100203452D01*
X55042795Y-100203452D02*
X54947557Y-100155833D01*
X54947557Y-100155833D02*
X54899938Y-100108214D01*
X54899938Y-100108214D02*
X54852319Y-100012976D01*
X54852319Y-100012976D02*
X54852319Y-99822500D01*
X54852319Y-99822500D02*
X54899938Y-99727262D01*
X54899938Y-99727262D02*
X54947557Y-99679643D01*
X54947557Y-99679643D02*
X55042795Y-99632024D01*
X55042795Y-99632024D02*
X55280890Y-99632024D01*
X55280890Y-99632024D02*
X55376128Y-99679643D01*
X55376128Y-99679643D02*
X55423747Y-99727262D01*
X55423747Y-99727262D02*
X55471366Y-99822500D01*
X55471366Y-99822500D02*
X55471366Y-100012976D01*
X55471366Y-100012976D02*
X55423747Y-100108214D01*
X55423747Y-100108214D02*
X55376128Y-100155833D01*
X55376128Y-100155833D02*
X55280890Y-100203452D01*
X54852319Y-100822500D02*
X54852319Y-100917738D01*
X54852319Y-100917738D02*
X54899938Y-101012976D01*
X54899938Y-101012976D02*
X54947557Y-101060595D01*
X54947557Y-101060595D02*
X55042795Y-101108214D01*
X55042795Y-101108214D02*
X55233271Y-101155833D01*
X55233271Y-101155833D02*
X55471366Y-101155833D01*
X55471366Y-101155833D02*
X55661842Y-101108214D01*
X55661842Y-101108214D02*
X55757080Y-101060595D01*
X55757080Y-101060595D02*
X55804700Y-101012976D01*
X55804700Y-101012976D02*
X55852319Y-100917738D01*
X55852319Y-100917738D02*
X55852319Y-100822500D01*
X55852319Y-100822500D02*
X55804700Y-100727262D01*
X55804700Y-100727262D02*
X55757080Y-100679643D01*
X55757080Y-100679643D02*
X55661842Y-100632024D01*
X55661842Y-100632024D02*
X55471366Y-100584405D01*
X55471366Y-100584405D02*
X55233271Y-100584405D01*
X55233271Y-100584405D02*
X55042795Y-100632024D01*
X55042795Y-100632024D02*
X54947557Y-100679643D01*
X54947557Y-100679643D02*
X54899938Y-100727262D01*
X54899938Y-100727262D02*
X54852319Y-100822500D01*
X55852319Y-101584405D02*
X54852319Y-101584405D01*
X55471366Y-101679643D02*
X55852319Y-101965357D01*
X55185652Y-101965357D02*
X55566604Y-101584405D01*
X40457976Y-75372319D02*
X41029404Y-75372319D01*
X40743690Y-75372319D02*
X40743690Y-74372319D01*
X40743690Y-74372319D02*
X40838928Y-74515176D01*
X40838928Y-74515176D02*
X40934166Y-74610414D01*
X40934166Y-74610414D02*
X41029404Y-74658033D01*
X39838928Y-74372319D02*
X39743690Y-74372319D01*
X39743690Y-74372319D02*
X39648452Y-74419938D01*
X39648452Y-74419938D02*
X39600833Y-74467557D01*
X39600833Y-74467557D02*
X39553214Y-74562795D01*
X39553214Y-74562795D02*
X39505595Y-74753271D01*
X39505595Y-74753271D02*
X39505595Y-74991366D01*
X39505595Y-74991366D02*
X39553214Y-75181842D01*
X39553214Y-75181842D02*
X39600833Y-75277080D01*
X39600833Y-75277080D02*
X39648452Y-75324700D01*
X39648452Y-75324700D02*
X39743690Y-75372319D01*
X39743690Y-75372319D02*
X39838928Y-75372319D01*
X39838928Y-75372319D02*
X39934166Y-75324700D01*
X39934166Y-75324700D02*
X39981785Y-75277080D01*
X39981785Y-75277080D02*
X40029404Y-75181842D01*
X40029404Y-75181842D02*
X40077023Y-74991366D01*
X40077023Y-74991366D02*
X40077023Y-74753271D01*
X40077023Y-74753271D02*
X40029404Y-74562795D01*
X40029404Y-74562795D02*
X39981785Y-74467557D01*
X39981785Y-74467557D02*
X39934166Y-74419938D01*
X39934166Y-74419938D02*
X39838928Y-74372319D01*
X39077023Y-75372319D02*
X39077023Y-74372319D01*
X38505595Y-75372319D02*
X38934166Y-74800890D01*
X38505595Y-74372319D02*
X39077023Y-74943747D01*
X60747319Y-62904405D02*
X59747319Y-62904405D01*
X59747319Y-62904405D02*
X59747319Y-63142500D01*
X59747319Y-63142500D02*
X59794938Y-63285357D01*
X59794938Y-63285357D02*
X59890176Y-63380595D01*
X59890176Y-63380595D02*
X59985414Y-63428214D01*
X59985414Y-63428214D02*
X60175890Y-63475833D01*
X60175890Y-63475833D02*
X60318747Y-63475833D01*
X60318747Y-63475833D02*
X60509223Y-63428214D01*
X60509223Y-63428214D02*
X60604461Y-63380595D01*
X60604461Y-63380595D02*
X60699700Y-63285357D01*
X60699700Y-63285357D02*
X60747319Y-63142500D01*
X60747319Y-63142500D02*
X60747319Y-62904405D01*
X59747319Y-63809167D02*
X59747319Y-64428214D01*
X59747319Y-64428214D02*
X60128271Y-64094881D01*
X60128271Y-64094881D02*
X60128271Y-64237738D01*
X60128271Y-64237738D02*
X60175890Y-64332976D01*
X60175890Y-64332976D02*
X60223509Y-64380595D01*
X60223509Y-64380595D02*
X60318747Y-64428214D01*
X60318747Y-64428214D02*
X60556842Y-64428214D01*
X60556842Y-64428214D02*
X60652080Y-64380595D01*
X60652080Y-64380595D02*
X60699700Y-64332976D01*
X60699700Y-64332976D02*
X60747319Y-64237738D01*
X60747319Y-64237738D02*
X60747319Y-63952024D01*
X60747319Y-63952024D02*
X60699700Y-63856786D01*
X60699700Y-63856786D02*
X60652080Y-63809167D01*
X62867319Y-61214642D02*
X62867319Y-60643214D01*
X62867319Y-60928928D02*
X61867319Y-60928928D01*
X61867319Y-60928928D02*
X62010176Y-60833690D01*
X62010176Y-60833690D02*
X62105414Y-60738452D01*
X62105414Y-60738452D02*
X62153033Y-60643214D01*
X62867319Y-61643214D02*
X61867319Y-61643214D01*
X61867319Y-61643214D02*
X62867319Y-62214642D01*
X62867319Y-62214642D02*
X61867319Y-62214642D01*
X62200652Y-63119404D02*
X62867319Y-63119404D01*
X61819700Y-62881309D02*
X62533985Y-62643214D01*
X62533985Y-62643214D02*
X62533985Y-63262261D01*
X62867319Y-64167023D02*
X62867319Y-63595595D01*
X62867319Y-63881309D02*
X61867319Y-63881309D01*
X61867319Y-63881309D02*
X62010176Y-63786071D01*
X62010176Y-63786071D02*
X62105414Y-63690833D01*
X62105414Y-63690833D02*
X62153033Y-63595595D01*
X62200652Y-65024166D02*
X62867319Y-65024166D01*
X61819700Y-64786071D02*
X62533985Y-64547976D01*
X62533985Y-64547976D02*
X62533985Y-65167023D01*
X62295890Y-65690833D02*
X62248271Y-65595595D01*
X62248271Y-65595595D02*
X62200652Y-65547976D01*
X62200652Y-65547976D02*
X62105414Y-65500357D01*
X62105414Y-65500357D02*
X62057795Y-65500357D01*
X62057795Y-65500357D02*
X61962557Y-65547976D01*
X61962557Y-65547976D02*
X61914938Y-65595595D01*
X61914938Y-65595595D02*
X61867319Y-65690833D01*
X61867319Y-65690833D02*
X61867319Y-65881309D01*
X61867319Y-65881309D02*
X61914938Y-65976547D01*
X61914938Y-65976547D02*
X61962557Y-66024166D01*
X61962557Y-66024166D02*
X62057795Y-66071785D01*
X62057795Y-66071785D02*
X62105414Y-66071785D01*
X62105414Y-66071785D02*
X62200652Y-66024166D01*
X62200652Y-66024166D02*
X62248271Y-65976547D01*
X62248271Y-65976547D02*
X62295890Y-65881309D01*
X62295890Y-65881309D02*
X62295890Y-65690833D01*
X62295890Y-65690833D02*
X62343509Y-65595595D01*
X62343509Y-65595595D02*
X62391128Y-65547976D01*
X62391128Y-65547976D02*
X62486366Y-65500357D01*
X62486366Y-65500357D02*
X62676842Y-65500357D01*
X62676842Y-65500357D02*
X62772080Y-65547976D01*
X62772080Y-65547976D02*
X62819700Y-65595595D01*
X62819700Y-65595595D02*
X62867319Y-65690833D01*
X62867319Y-65690833D02*
X62867319Y-65881309D01*
X62867319Y-65881309D02*
X62819700Y-65976547D01*
X62819700Y-65976547D02*
X62772080Y-66024166D01*
X62772080Y-66024166D02*
X62676842Y-66071785D01*
X62676842Y-66071785D02*
X62486366Y-66071785D01*
X62486366Y-66071785D02*
X62391128Y-66024166D01*
X62391128Y-66024166D02*
X62343509Y-65976547D01*
X62343509Y-65976547D02*
X62295890Y-65881309D01*
X58947319Y-59285595D02*
X57947319Y-59285595D01*
X58947319Y-59857023D02*
X58375890Y-59428452D01*
X57947319Y-59857023D02*
X58518747Y-59285595D01*
X79136147Y-67275157D02*
X79231385Y-67227538D01*
X79231385Y-67227538D02*
X79326623Y-67132300D01*
X79326623Y-67132300D02*
X79469480Y-66989442D01*
X79469480Y-66989442D02*
X79564718Y-66941823D01*
X79564718Y-66941823D02*
X79659956Y-66941823D01*
X79612337Y-67179919D02*
X79707575Y-67132300D01*
X79707575Y-67132300D02*
X79802813Y-67037061D01*
X79802813Y-67037061D02*
X79850432Y-66846585D01*
X79850432Y-66846585D02*
X79850432Y-66513252D01*
X79850432Y-66513252D02*
X79802813Y-66322776D01*
X79802813Y-66322776D02*
X79707575Y-66227538D01*
X79707575Y-66227538D02*
X79612337Y-66179919D01*
X79612337Y-66179919D02*
X79421861Y-66179919D01*
X79421861Y-66179919D02*
X79326623Y-66227538D01*
X79326623Y-66227538D02*
X79231385Y-66322776D01*
X79231385Y-66322776D02*
X79183766Y-66513252D01*
X79183766Y-66513252D02*
X79183766Y-66846585D01*
X79183766Y-66846585D02*
X79231385Y-67037061D01*
X79231385Y-67037061D02*
X79326623Y-67132300D01*
X79326623Y-67132300D02*
X79421861Y-67179919D01*
X79421861Y-67179919D02*
X79612337Y-67179919D01*
X61535356Y-73022319D02*
X60963928Y-73022319D01*
X61249642Y-74022319D02*
X61249642Y-73022319D01*
X60106785Y-74022319D02*
X60678213Y-74022319D01*
X60392499Y-74022319D02*
X60392499Y-73022319D01*
X60392499Y-73022319D02*
X60487737Y-73165176D01*
X60487737Y-73165176D02*
X60582975Y-73260414D01*
X60582975Y-73260414D02*
X60678213Y-73308033D01*
X59916309Y-74117557D02*
X59154404Y-74117557D01*
X58582975Y-73498509D02*
X58440118Y-73546128D01*
X58440118Y-73546128D02*
X58392499Y-73593747D01*
X58392499Y-73593747D02*
X58344880Y-73688985D01*
X58344880Y-73688985D02*
X58344880Y-73831842D01*
X58344880Y-73831842D02*
X58392499Y-73927080D01*
X58392499Y-73927080D02*
X58440118Y-73974700D01*
X58440118Y-73974700D02*
X58535356Y-74022319D01*
X58535356Y-74022319D02*
X58916308Y-74022319D01*
X58916308Y-74022319D02*
X58916308Y-73022319D01*
X58916308Y-73022319D02*
X58582975Y-73022319D01*
X58582975Y-73022319D02*
X58487737Y-73069938D01*
X58487737Y-73069938D02*
X58440118Y-73117557D01*
X58440118Y-73117557D02*
X58392499Y-73212795D01*
X58392499Y-73212795D02*
X58392499Y-73308033D01*
X58392499Y-73308033D02*
X58440118Y-73403271D01*
X58440118Y-73403271D02*
X58487737Y-73450890D01*
X58487737Y-73450890D02*
X58582975Y-73498509D01*
X58582975Y-73498509D02*
X58916308Y-73498509D01*
D11*
X71808214Y-30387519D02*
X71808214Y-31197042D01*
X71808214Y-31197042D02*
X71765357Y-31292280D01*
X71765357Y-31292280D02*
X71722500Y-31339900D01*
X71722500Y-31339900D02*
X71636785Y-31387519D01*
X71636785Y-31387519D02*
X71465357Y-31387519D01*
X71465357Y-31387519D02*
X71379642Y-31339900D01*
X71379642Y-31339900D02*
X71336785Y-31292280D01*
X71336785Y-31292280D02*
X71293928Y-31197042D01*
X71293928Y-31197042D02*
X71293928Y-30387519D01*
X70908214Y-30482757D02*
X70865357Y-30435138D01*
X70865357Y-30435138D02*
X70779643Y-30387519D01*
X70779643Y-30387519D02*
X70565357Y-30387519D01*
X70565357Y-30387519D02*
X70479643Y-30435138D01*
X70479643Y-30435138D02*
X70436785Y-30482757D01*
X70436785Y-30482757D02*
X70393928Y-30577995D01*
X70393928Y-30577995D02*
X70393928Y-30673233D01*
X70393928Y-30673233D02*
X70436785Y-30816090D01*
X70436785Y-30816090D02*
X70951071Y-31387519D01*
X70951071Y-31387519D02*
X70393928Y-31387519D01*
X74413070Y-37097309D02*
X74284498Y-37144928D01*
X74284498Y-37144928D02*
X74241641Y-37192547D01*
X74241641Y-37192547D02*
X74198784Y-37287785D01*
X74198784Y-37287785D02*
X74198784Y-37430642D01*
X74198784Y-37430642D02*
X74241641Y-37525880D01*
X74241641Y-37525880D02*
X74284498Y-37573500D01*
X74284498Y-37573500D02*
X74370213Y-37621119D01*
X74370213Y-37621119D02*
X74713070Y-37621119D01*
X74713070Y-37621119D02*
X74713070Y-36621119D01*
X74713070Y-36621119D02*
X74413070Y-36621119D01*
X74413070Y-36621119D02*
X74327356Y-36668738D01*
X74327356Y-36668738D02*
X74284498Y-36716357D01*
X74284498Y-36716357D02*
X74241641Y-36811595D01*
X74241641Y-36811595D02*
X74241641Y-36906833D01*
X74241641Y-36906833D02*
X74284498Y-37002071D01*
X74284498Y-37002071D02*
X74327356Y-37049690D01*
X74327356Y-37049690D02*
X74413070Y-37097309D01*
X74413070Y-37097309D02*
X74713070Y-37097309D01*
X73855927Y-37335404D02*
X73427356Y-37335404D01*
X73941641Y-37621119D02*
X73641641Y-36621119D01*
X73641641Y-36621119D02*
X73341641Y-37621119D01*
X73170212Y-36621119D02*
X72655927Y-36621119D01*
X72913069Y-37621119D02*
X72913069Y-36621119D01*
X72570213Y-37716357D02*
X71884498Y-37716357D01*
X71670213Y-37621119D02*
X71670213Y-36621119D01*
X71670213Y-37097309D02*
X71155927Y-37097309D01*
X71155927Y-37621119D02*
X71155927Y-36621119D01*
X70298784Y-37621119D02*
X70727356Y-37621119D01*
X70727356Y-37621119D02*
X70727356Y-36621119D01*
X69998785Y-37621119D02*
X69998785Y-36621119D01*
X69998785Y-36621119D02*
X69784499Y-36621119D01*
X69784499Y-36621119D02*
X69655928Y-36668738D01*
X69655928Y-36668738D02*
X69570213Y-36763976D01*
X69570213Y-36763976D02*
X69527356Y-36859214D01*
X69527356Y-36859214D02*
X69484499Y-37049690D01*
X69484499Y-37049690D02*
X69484499Y-37192547D01*
X69484499Y-37192547D02*
X69527356Y-37383023D01*
X69527356Y-37383023D02*
X69570213Y-37478261D01*
X69570213Y-37478261D02*
X69655928Y-37573500D01*
X69655928Y-37573500D02*
X69784499Y-37621119D01*
X69784499Y-37621119D02*
X69998785Y-37621119D01*
X69313071Y-37716357D02*
X68627356Y-37716357D01*
X68455928Y-37573500D02*
X68327357Y-37621119D01*
X68327357Y-37621119D02*
X68113071Y-37621119D01*
X68113071Y-37621119D02*
X68027357Y-37573500D01*
X68027357Y-37573500D02*
X67984499Y-37525880D01*
X67984499Y-37525880D02*
X67941642Y-37430642D01*
X67941642Y-37430642D02*
X67941642Y-37335404D01*
X67941642Y-37335404D02*
X67984499Y-37240166D01*
X67984499Y-37240166D02*
X68027357Y-37192547D01*
X68027357Y-37192547D02*
X68113071Y-37144928D01*
X68113071Y-37144928D02*
X68284499Y-37097309D01*
X68284499Y-37097309D02*
X68370214Y-37049690D01*
X68370214Y-37049690D02*
X68413071Y-37002071D01*
X68413071Y-37002071D02*
X68455928Y-36906833D01*
X68455928Y-36906833D02*
X68455928Y-36811595D01*
X68455928Y-36811595D02*
X68413071Y-36716357D01*
X68413071Y-36716357D02*
X68370214Y-36668738D01*
X68370214Y-36668738D02*
X68284499Y-36621119D01*
X68284499Y-36621119D02*
X68070214Y-36621119D01*
X68070214Y-36621119D02*
X67941642Y-36668738D01*
X67555928Y-37621119D02*
X67555928Y-36621119D01*
X67555928Y-36621119D02*
X67255928Y-37335404D01*
X67255928Y-37335404D02*
X66955928Y-36621119D01*
X66955928Y-36621119D02*
X66955928Y-37621119D01*
X66527357Y-37621119D02*
X66527357Y-36621119D01*
X66527357Y-36621119D02*
X66313071Y-36621119D01*
X66313071Y-36621119D02*
X66184500Y-36668738D01*
X66184500Y-36668738D02*
X66098785Y-36763976D01*
X66098785Y-36763976D02*
X66055928Y-36859214D01*
X66055928Y-36859214D02*
X66013071Y-37049690D01*
X66013071Y-37049690D02*
X66013071Y-37192547D01*
X66013071Y-37192547D02*
X66055928Y-37383023D01*
X66055928Y-37383023D02*
X66098785Y-37478261D01*
X66098785Y-37478261D02*
X66184500Y-37573500D01*
X66184500Y-37573500D02*
X66313071Y-37621119D01*
X66313071Y-37621119D02*
X66527357Y-37621119D01*
D10*
X69929404Y-68722319D02*
X69929404Y-69531842D01*
X69929404Y-69531842D02*
X69881785Y-69627080D01*
X69881785Y-69627080D02*
X69834166Y-69674700D01*
X69834166Y-69674700D02*
X69738928Y-69722319D01*
X69738928Y-69722319D02*
X69548452Y-69722319D01*
X69548452Y-69722319D02*
X69453214Y-69674700D01*
X69453214Y-69674700D02*
X69405595Y-69627080D01*
X69405595Y-69627080D02*
X69357976Y-69531842D01*
X69357976Y-69531842D02*
X69357976Y-68722319D01*
X68357976Y-69722319D02*
X68929404Y-69722319D01*
X68643690Y-69722319D02*
X68643690Y-68722319D01*
X68643690Y-68722319D02*
X68738928Y-68865176D01*
X68738928Y-68865176D02*
X68834166Y-68960414D01*
X68834166Y-68960414D02*
X68929404Y-69008033D01*
X71834166Y-79222319D02*
X71834166Y-78222319D01*
X71834166Y-78222319D02*
X71262738Y-79222319D01*
X71262738Y-79222319D02*
X71262738Y-78222319D01*
X70786547Y-78698509D02*
X70453214Y-78698509D01*
X70310357Y-79222319D02*
X70786547Y-79222319D01*
X70786547Y-79222319D02*
X70786547Y-78222319D01*
X70786547Y-78222319D02*
X70310357Y-78222319D01*
X69405595Y-78222319D02*
X69881785Y-78222319D01*
X69881785Y-78222319D02*
X69929404Y-78698509D01*
X69929404Y-78698509D02*
X69881785Y-78650890D01*
X69881785Y-78650890D02*
X69786547Y-78603271D01*
X69786547Y-78603271D02*
X69548452Y-78603271D01*
X69548452Y-78603271D02*
X69453214Y-78650890D01*
X69453214Y-78650890D02*
X69405595Y-78698509D01*
X69405595Y-78698509D02*
X69357976Y-78793747D01*
X69357976Y-78793747D02*
X69357976Y-79031842D01*
X69357976Y-79031842D02*
X69405595Y-79127080D01*
X69405595Y-79127080D02*
X69453214Y-79174700D01*
X69453214Y-79174700D02*
X69548452Y-79222319D01*
X69548452Y-79222319D02*
X69786547Y-79222319D01*
X69786547Y-79222319D02*
X69881785Y-79174700D01*
X69881785Y-79174700D02*
X69929404Y-79127080D01*
X68453214Y-78222319D02*
X68929404Y-78222319D01*
X68929404Y-78222319D02*
X68977023Y-78698509D01*
X68977023Y-78698509D02*
X68929404Y-78650890D01*
X68929404Y-78650890D02*
X68834166Y-78603271D01*
X68834166Y-78603271D02*
X68596071Y-78603271D01*
X68596071Y-78603271D02*
X68500833Y-78650890D01*
X68500833Y-78650890D02*
X68453214Y-78698509D01*
X68453214Y-78698509D02*
X68405595Y-78793747D01*
X68405595Y-78793747D02*
X68405595Y-79031842D01*
X68405595Y-79031842D02*
X68453214Y-79127080D01*
X68453214Y-79127080D02*
X68500833Y-79174700D01*
X68500833Y-79174700D02*
X68596071Y-79222319D01*
X68596071Y-79222319D02*
X68834166Y-79222319D01*
X68834166Y-79222319D02*
X68929404Y-79174700D01*
X68929404Y-79174700D02*
X68977023Y-79127080D01*
X67500833Y-78222319D02*
X67977023Y-78222319D01*
X67977023Y-78222319D02*
X68024642Y-78698509D01*
X68024642Y-78698509D02*
X67977023Y-78650890D01*
X67977023Y-78650890D02*
X67881785Y-78603271D01*
X67881785Y-78603271D02*
X67643690Y-78603271D01*
X67643690Y-78603271D02*
X67548452Y-78650890D01*
X67548452Y-78650890D02*
X67500833Y-78698509D01*
X67500833Y-78698509D02*
X67453214Y-78793747D01*
X67453214Y-78793747D02*
X67453214Y-79031842D01*
X67453214Y-79031842D02*
X67500833Y-79127080D01*
X67500833Y-79127080D02*
X67548452Y-79174700D01*
X67548452Y-79174700D02*
X67643690Y-79222319D01*
X67643690Y-79222319D02*
X67881785Y-79222319D01*
X67881785Y-79222319D02*
X67977023Y-79174700D01*
X67977023Y-79174700D02*
X68024642Y-79127080D01*
X67024642Y-79222319D02*
X67024642Y-78222319D01*
X67024642Y-78222319D02*
X66643690Y-78222319D01*
X66643690Y-78222319D02*
X66548452Y-78269938D01*
X66548452Y-78269938D02*
X66500833Y-78317557D01*
X66500833Y-78317557D02*
X66453214Y-78412795D01*
X66453214Y-78412795D02*
X66453214Y-78555652D01*
X66453214Y-78555652D02*
X66500833Y-78650890D01*
X66500833Y-78650890D02*
X66548452Y-78698509D01*
X66548452Y-78698509D02*
X66643690Y-78746128D01*
X66643690Y-78746128D02*
X67024642Y-78746128D01*
X85123832Y-47217919D02*
X84790499Y-48217919D01*
X84790499Y-48217919D02*
X84457166Y-47217919D01*
X83552404Y-48122680D02*
X83600023Y-48170300D01*
X83600023Y-48170300D02*
X83742880Y-48217919D01*
X83742880Y-48217919D02*
X83838118Y-48217919D01*
X83838118Y-48217919D02*
X83980975Y-48170300D01*
X83980975Y-48170300D02*
X84076213Y-48075061D01*
X84076213Y-48075061D02*
X84123832Y-47979823D01*
X84123832Y-47979823D02*
X84171451Y-47789347D01*
X84171451Y-47789347D02*
X84171451Y-47646490D01*
X84171451Y-47646490D02*
X84123832Y-47456014D01*
X84123832Y-47456014D02*
X84076213Y-47360776D01*
X84076213Y-47360776D02*
X83980975Y-47265538D01*
X83980975Y-47265538D02*
X83838118Y-47217919D01*
X83838118Y-47217919D02*
X83742880Y-47217919D01*
X83742880Y-47217919D02*
X83600023Y-47265538D01*
X83600023Y-47265538D02*
X83552404Y-47313157D01*
X82552404Y-48122680D02*
X82600023Y-48170300D01*
X82600023Y-48170300D02*
X82742880Y-48217919D01*
X82742880Y-48217919D02*
X82838118Y-48217919D01*
X82838118Y-48217919D02*
X82980975Y-48170300D01*
X82980975Y-48170300D02*
X83076213Y-48075061D01*
X83076213Y-48075061D02*
X83123832Y-47979823D01*
X83123832Y-47979823D02*
X83171451Y-47789347D01*
X83171451Y-47789347D02*
X83171451Y-47646490D01*
X83171451Y-47646490D02*
X83123832Y-47456014D01*
X83123832Y-47456014D02*
X83076213Y-47360776D01*
X83076213Y-47360776D02*
X82980975Y-47265538D01*
X82980975Y-47265538D02*
X82838118Y-47217919D01*
X82838118Y-47217919D02*
X82742880Y-47217919D01*
X82742880Y-47217919D02*
X82600023Y-47265538D01*
X82600023Y-47265538D02*
X82552404Y-47313157D01*
D11*
%TO.C,G\u002A\u002A\u002A*%
X51265000Y-114450000D02*
X51840000Y-114925000D01*
X51840000Y-114925000D02*
X52265000Y-114600000D01*
X52265000Y-114600000D02*
X51265000Y-114450000D01*
D12*
X52590000Y-116038605D02*
X53490000Y-116025000D01*
X52989999Y-117420050D02*
X52589999Y-117420050D01*
X52990000Y-116425000D02*
X52740000Y-116425000D01*
X52990000Y-116475000D02*
X52990000Y-116925000D01*
X52990000Y-116925000D02*
X52690000Y-116925000D01*
X52990000Y-117425000D02*
X52990000Y-117925000D01*
X52990000Y-117925000D02*
X52540000Y-117925000D01*
D11*
X53215000Y-113725000D02*
X53565000Y-112550000D01*
D12*
X53490000Y-116025000D02*
X53540000Y-118475000D01*
X53540000Y-118475000D02*
X52340000Y-118475000D01*
D11*
X53565000Y-112550000D02*
X55365000Y-112600000D01*
D12*
X53815000Y-118475000D02*
X54590000Y-116025000D01*
X54215000Y-118475000D02*
X53815000Y-118475000D01*
X54465000Y-117875000D02*
X54215000Y-118475000D01*
X54540000Y-117475000D02*
X54765000Y-116725000D01*
X54590000Y-116025000D02*
X54915000Y-116025000D01*
X54765000Y-116725000D02*
X55040000Y-117475000D01*
D11*
X54790000Y-114650000D02*
X56465000Y-114750000D01*
D12*
X54915000Y-116025000D02*
X55815000Y-118475000D01*
X55040000Y-117475000D02*
X54540000Y-117475000D01*
X55065000Y-117875000D02*
X54465000Y-117875000D01*
X55315000Y-118475000D02*
X55065000Y-117875000D01*
X55315000Y-118475000D02*
X55815000Y-118475000D01*
D11*
X55365000Y-112600000D02*
X53215000Y-113725000D01*
X55490000Y-114075000D02*
X54790000Y-114650000D01*
D12*
X55990000Y-118000000D02*
X55990000Y-118450000D01*
X55990000Y-118450000D02*
X57240000Y-118450000D01*
D11*
X56490000Y-114750000D02*
X55490000Y-114075000D01*
X56640000Y-114300000D02*
X58265000Y-115425000D01*
X56690000Y-111975000D02*
X57815000Y-113200000D01*
X56715000Y-111575000D02*
X56640000Y-114300000D01*
D12*
X56740000Y-118000000D02*
X55990000Y-118000000D01*
X56765000Y-116000000D02*
X56740000Y-118000000D01*
X57215000Y-116000000D02*
X56765000Y-116000000D01*
X57240000Y-118450000D02*
X57215000Y-116000000D01*
X57415000Y-118450000D02*
X58115000Y-117500000D01*
X57515000Y-118450000D02*
X57415000Y-118450000D01*
D11*
X57815000Y-113200000D02*
X57240000Y-114700000D01*
D12*
X57915000Y-118450000D02*
X57515000Y-118450000D01*
X58156269Y-115994594D02*
X59265000Y-116000000D01*
D11*
X58265000Y-115425000D02*
X59940000Y-115200000D01*
D12*
X58315000Y-116450000D02*
X58765000Y-116450000D01*
X58665000Y-117500000D02*
X57915000Y-118450000D01*
X58765000Y-116450000D02*
X58765000Y-117000000D01*
X58765000Y-117000000D02*
X58265000Y-117000000D01*
X58815000Y-117500000D02*
X58665000Y-117500000D01*
X58815000Y-118450000D02*
X58815000Y-117500000D01*
X59265000Y-116000000D02*
X59265000Y-118450000D01*
X59265000Y-118450000D02*
X58815000Y-118450000D01*
D11*
X59415000Y-115650000D02*
X60390000Y-116000000D01*
D12*
X59715000Y-116000000D02*
X61015000Y-116000000D01*
X59715000Y-116500000D02*
X59715000Y-116000000D01*
X59715000Y-117950000D02*
X60565000Y-117950000D01*
X59715000Y-118450000D02*
X59715000Y-117950000D01*
D11*
X59815000Y-115375000D02*
X59415000Y-115650000D01*
D12*
X59915000Y-116950000D02*
X60565000Y-116950000D01*
X59915000Y-117400000D02*
X59915000Y-116950000D01*
D11*
X59940000Y-115200000D02*
X61765000Y-116100000D01*
X60190000Y-113200000D02*
X56715000Y-111575000D01*
X60190000Y-113200000D02*
X62515000Y-114350000D01*
D12*
X60565000Y-116500000D02*
X59715000Y-116500000D01*
X60565000Y-116950000D02*
X60565000Y-116500000D01*
X60565000Y-117400000D02*
X59915000Y-117400000D01*
X60565000Y-117950000D02*
X60565000Y-117400000D01*
D11*
X60590000Y-115975000D02*
X59815000Y-115375000D01*
X60940000Y-111775000D02*
X60190000Y-113200000D01*
X60940000Y-111775000D02*
X63140000Y-112950000D01*
D12*
X60965000Y-118450000D02*
X59715000Y-118450000D01*
X61015000Y-116000000D02*
X61065000Y-118450000D01*
X61065000Y-118450000D02*
X60965000Y-118450000D01*
X62165000Y-116013605D02*
X63065000Y-116000000D01*
D11*
X62515000Y-114350000D02*
X63990000Y-116075000D01*
X62515000Y-114350000D02*
X68165000Y-117200000D01*
D12*
X62564999Y-117395050D02*
X62164999Y-117395050D01*
X62565000Y-116400000D02*
X62315000Y-116400000D01*
X62565000Y-116450000D02*
X62565000Y-116900000D01*
X62565000Y-116900000D02*
X62265000Y-116900000D01*
X62565000Y-117400000D02*
X62565000Y-117900000D01*
X62565000Y-117900000D02*
X62115000Y-117900000D01*
X63065000Y-116000000D02*
X63115000Y-118450000D01*
X63115000Y-118450000D02*
X61915000Y-118450000D01*
D11*
X63140000Y-112950000D02*
X61565000Y-113850000D01*
X63240000Y-112775000D02*
X62515000Y-114350000D01*
D12*
X63515000Y-116850000D02*
X63515000Y-117550000D01*
D11*
X63815000Y-116175000D02*
X56715000Y-111575000D01*
D12*
X64015000Y-116850000D02*
X64015000Y-117500000D01*
D11*
X64265000Y-113025000D02*
X62515000Y-114350000D01*
X64265000Y-113025000D02*
X63240000Y-112775000D01*
X64340000Y-117100000D02*
X64715000Y-117275000D01*
X64665000Y-116700000D02*
X64340000Y-117100000D01*
D12*
X64715000Y-116850000D02*
X64715000Y-117550000D01*
D11*
X65215000Y-117450000D02*
X65765000Y-117725000D01*
D12*
X65215000Y-117550000D02*
X65215000Y-116850000D01*
D11*
X65265000Y-116725000D02*
X65490000Y-117350000D01*
X65490000Y-117350000D02*
X68165000Y-117200000D01*
X65765000Y-117725000D02*
X65190000Y-116925000D01*
X66840000Y-117675000D02*
X66015000Y-117325000D01*
X68165000Y-117200000D02*
X64265000Y-113025000D01*
X68165000Y-117200000D02*
X65265000Y-116725000D01*
X68165000Y-117200000D02*
X66840000Y-117675000D01*
D12*
X52140001Y-117124999D02*
G75*
G02*
X52590000Y-116038606I449999J449999D01*
G01*
X52340001Y-118474998D02*
G75*
G02*
X52163744Y-117166064I249998J699998D01*
G01*
X52540001Y-117924998D02*
G75*
G02*
X52589999Y-117420051I49999J249998D01*
G01*
X52690000Y-116925000D02*
G75*
G02*
X52750634Y-116432464I0J250000D01*
G01*
X58140001Y-117449998D02*
G75*
G02*
X58156269Y-115994595I249999J724998D01*
G01*
X58265001Y-116999998D02*
G75*
G02*
X58265001Y-116450002I124999J274998D01*
G01*
X61715001Y-117099999D02*
G75*
G02*
X62165000Y-116013606I449999J449999D01*
G01*
X61915001Y-118449998D02*
G75*
G02*
X61738744Y-117141064I249998J699998D01*
G01*
X62115001Y-117899998D02*
G75*
G02*
X62164999Y-117395051I49999J249998D01*
G01*
X62265000Y-116900000D02*
G75*
G02*
X62325634Y-116407464I0J250000D01*
G01*
X63515000Y-116850000D02*
G75*
G02*
X65215000Y-116850000I850000J0D01*
G01*
X64015000Y-116850000D02*
G75*
G02*
X64715000Y-116850000I350000J0D01*
G01*
X64715000Y-117550000D02*
G75*
G02*
X64015000Y-117550000I-350000J0D01*
G01*
X65215000Y-117550000D02*
G75*
G02*
X63515000Y-117550000I-850000J0D01*
G01*
D13*
X73712361Y-171445226D02*
X73648542Y-171509045D01*
X73584723Y-171445226D01*
X73648542Y-171381407D01*
X73712361Y-171445226D01*
G36*
X73712361Y-171445226D02*
G01*
X73648542Y-171509045D01*
X73584723Y-171445226D01*
X73648542Y-171381407D01*
X73712361Y-171445226D01*
G37*
D12*
%TO.C,R3*%
X61817500Y-104362500D02*
X61817500Y-103592500D01*
X60447500Y-103592500D02*
X60447500Y-97052500D01*
X63187500Y-103592500D02*
X60447500Y-103592500D01*
X60447500Y-97052500D02*
X63187500Y-97052500D01*
X63187500Y-97052500D02*
X63187500Y-103592500D01*
X61817500Y-96282500D02*
X61817500Y-97052500D01*
%TO.C,C1*%
X63757500Y-49442500D02*
X63127500Y-49442500D01*
X63442500Y-49127500D02*
X63442500Y-49757500D01*
X58942500Y-46062500D02*
X58942500Y-52522500D01*
X58902500Y-46062500D02*
X58902500Y-52522500D01*
X58862500Y-46062500D02*
X58862500Y-52522500D01*
X58822500Y-46064500D02*
X58822500Y-52520500D01*
X58782500Y-46065500D02*
X58782500Y-52519500D01*
X58742500Y-46068500D02*
X58742500Y-52516500D01*
X58702500Y-50332500D02*
X58702500Y-52514500D01*
X58702500Y-46070500D02*
X58702500Y-48252500D01*
X58662500Y-50332500D02*
X58662500Y-52510500D01*
X58662500Y-46074500D02*
X58662500Y-48252500D01*
X58622500Y-50332500D02*
X58622500Y-52507500D01*
X58622500Y-46077500D02*
X58622500Y-48252500D01*
X58582500Y-50332500D02*
X58582500Y-52503500D01*
X58582500Y-46081500D02*
X58582500Y-48252500D01*
X58542500Y-50332500D02*
X58542500Y-52498500D01*
X58542500Y-46086500D02*
X58542500Y-48252500D01*
X58502500Y-50332500D02*
X58502500Y-52493500D01*
X58502500Y-46091500D02*
X58502500Y-48252500D01*
X58462500Y-50332500D02*
X58462500Y-52487500D01*
X58462500Y-46097500D02*
X58462500Y-48252500D01*
X58422500Y-50332500D02*
X58422500Y-52481500D01*
X58422500Y-46103500D02*
X58422500Y-48252500D01*
X58382500Y-50332500D02*
X58382500Y-52474500D01*
X58382500Y-46110500D02*
X58382500Y-48252500D01*
X58342500Y-50332500D02*
X58342500Y-52467500D01*
X58342500Y-46117500D02*
X58342500Y-48252500D01*
X58302500Y-50332500D02*
X58302500Y-52459500D01*
X58302500Y-46125500D02*
X58302500Y-48252500D01*
X58262500Y-50332500D02*
X58262500Y-52451500D01*
X58262500Y-46133500D02*
X58262500Y-48252500D01*
X58221500Y-50332500D02*
X58221500Y-52442500D01*
X58221500Y-46142500D02*
X58221500Y-48252500D01*
X58181500Y-50332500D02*
X58181500Y-52433500D01*
X58181500Y-46151500D02*
X58181500Y-48252500D01*
X58141500Y-50332500D02*
X58141500Y-52423500D01*
X58141500Y-46161500D02*
X58141500Y-48252500D01*
X58101500Y-50332500D02*
X58101500Y-52413500D01*
X58101500Y-46171500D02*
X58101500Y-48252500D01*
X58061500Y-50332500D02*
X58061500Y-52402500D01*
X58061500Y-46182500D02*
X58061500Y-48252500D01*
X58021500Y-50332500D02*
X58021500Y-52390500D01*
X58021500Y-46194500D02*
X58021500Y-48252500D01*
X57981500Y-50332500D02*
X57981500Y-52378500D01*
X57981500Y-46206500D02*
X57981500Y-48252500D01*
X57941500Y-50332500D02*
X57941500Y-52366500D01*
X57941500Y-46218500D02*
X57941500Y-48252500D01*
X57901500Y-50332500D02*
X57901500Y-52353500D01*
X57901500Y-46231500D02*
X57901500Y-48252500D01*
X57861500Y-50332500D02*
X57861500Y-52339500D01*
X57861500Y-46245500D02*
X57861500Y-48252500D01*
X57821500Y-50332500D02*
X57821500Y-52325500D01*
X57821500Y-46259500D02*
X57821500Y-48252500D01*
X57781500Y-50332500D02*
X57781500Y-52310500D01*
X57781500Y-46274500D02*
X57781500Y-48252500D01*
X57741500Y-50332500D02*
X57741500Y-52294500D01*
X57741500Y-46290500D02*
X57741500Y-48252500D01*
X57701500Y-50332500D02*
X57701500Y-52278500D01*
X57701500Y-46306500D02*
X57701500Y-48252500D01*
X57661500Y-50332500D02*
X57661500Y-52262500D01*
X57661500Y-46322500D02*
X57661500Y-48252500D01*
X57621500Y-50332500D02*
X57621500Y-52244500D01*
X57621500Y-46340500D02*
X57621500Y-48252500D01*
X57581500Y-50332500D02*
X57581500Y-52226500D01*
X57581500Y-46358500D02*
X57581500Y-48252500D01*
X57541500Y-50332500D02*
X57541500Y-52208500D01*
X57541500Y-46376500D02*
X57541500Y-48252500D01*
X57501500Y-50332500D02*
X57501500Y-52188500D01*
X57501500Y-46396500D02*
X57501500Y-48252500D01*
X57461500Y-50332500D02*
X57461500Y-52168500D01*
X57461500Y-46416500D02*
X57461500Y-48252500D01*
X57421500Y-50332500D02*
X57421500Y-52148500D01*
X57421500Y-46436500D02*
X57421500Y-48252500D01*
X57381500Y-50332500D02*
X57381500Y-52126500D01*
X57381500Y-46458500D02*
X57381500Y-48252500D01*
X57341500Y-50332500D02*
X57341500Y-52104500D01*
X57341500Y-46480500D02*
X57341500Y-48252500D01*
X57301500Y-50332500D02*
X57301500Y-52082500D01*
X57301500Y-46502500D02*
X57301500Y-48252500D01*
X57261500Y-50332500D02*
X57261500Y-52058500D01*
X57261500Y-46526500D02*
X57261500Y-48252500D01*
X57221500Y-50332500D02*
X57221500Y-52034500D01*
X57221500Y-46550500D02*
X57221500Y-48252500D01*
X57181500Y-50332500D02*
X57181500Y-52008500D01*
X57181500Y-46576500D02*
X57181500Y-48252500D01*
X57141500Y-50332500D02*
X57141500Y-51982500D01*
X57141500Y-46602500D02*
X57141500Y-48252500D01*
X57101500Y-50332500D02*
X57101500Y-51956500D01*
X57101500Y-46628500D02*
X57101500Y-48252500D01*
X57061500Y-50332500D02*
X57061500Y-51928500D01*
X57061500Y-46656500D02*
X57061500Y-48252500D01*
X57021500Y-50332500D02*
X57021500Y-51899500D01*
X57021500Y-46685500D02*
X57021500Y-48252500D01*
X56981500Y-50332500D02*
X56981500Y-51870500D01*
X56981500Y-46714500D02*
X56981500Y-48252500D01*
X56941500Y-50332500D02*
X56941500Y-51840500D01*
X56941500Y-46744500D02*
X56941500Y-48252500D01*
X56901500Y-50332500D02*
X56901500Y-51808500D01*
X56901500Y-46776500D02*
X56901500Y-48252500D01*
X56861500Y-50332500D02*
X56861500Y-51776500D01*
X56861500Y-46808500D02*
X56861500Y-48252500D01*
X56821500Y-50332500D02*
X56821500Y-51742500D01*
X56821500Y-46842500D02*
X56821500Y-48252500D01*
X56781500Y-50332500D02*
X56781500Y-51708500D01*
X56781500Y-46876500D02*
X56781500Y-48252500D01*
X56741500Y-50332500D02*
X56741500Y-51672500D01*
X56741500Y-46912500D02*
X56741500Y-48252500D01*
X56701500Y-50332500D02*
X56701500Y-51635500D01*
X56701500Y-46949500D02*
X56701500Y-48252500D01*
X56661500Y-50332500D02*
X56661500Y-51597500D01*
X56661500Y-46987500D02*
X56661500Y-48252500D01*
X56621500Y-47027500D02*
X56621500Y-51557500D01*
X56581500Y-47068500D02*
X56581500Y-51516500D01*
X56541500Y-47110500D02*
X56541500Y-51474500D01*
X56501500Y-47155500D02*
X56501500Y-51429500D01*
X56461500Y-47200500D02*
X56461500Y-51384500D01*
X56421500Y-47248500D02*
X56421500Y-51336500D01*
X56381500Y-47297500D02*
X56381500Y-51287500D01*
X56341500Y-47348500D02*
X56341500Y-51236500D01*
X56301500Y-47402500D02*
X56301500Y-51182500D01*
X56261500Y-47458500D02*
X56261500Y-51126500D01*
X56221500Y-47516500D02*
X56221500Y-51068500D01*
X56181500Y-47578500D02*
X56181500Y-51006500D01*
X56141500Y-47642500D02*
X56141500Y-50942500D01*
X56101500Y-47711500D02*
X56101500Y-50873500D01*
X56061500Y-47783500D02*
X56061500Y-50801500D01*
X56021500Y-47860500D02*
X56021500Y-50724500D01*
X55981500Y-47942500D02*
X55981500Y-50642500D01*
X55941500Y-48030500D02*
X55941500Y-50554500D01*
X55901500Y-48127500D02*
X55901500Y-50457500D01*
X55861500Y-48233500D02*
X55861500Y-50351500D01*
X55821500Y-48352500D02*
X55821500Y-50232500D01*
X55781500Y-48490500D02*
X55781500Y-50094500D01*
X55741500Y-48659500D02*
X55741500Y-49925500D01*
X55701500Y-48890500D02*
X55701500Y-49694500D01*
X62212500Y-49292500D02*
G75*
G02*
X55672500Y-49292500I-3270000J0D01*
G01*
X55672500Y-49292500D02*
G75*
G02*
X62212500Y-49292500I3270000J0D01*
G01*
%TO.C,S1*%
X65279900Y-49687100D02*
X65254500Y-53624100D01*
X65279900Y-53624100D02*
X75236700Y-53624100D01*
X75236700Y-49687100D02*
X65279900Y-49687100D01*
X75236700Y-53624100D02*
X75236700Y-49687100D01*
%TO.C,R5*%
X80792500Y-103912500D02*
X80792500Y-103142500D01*
X79422500Y-103142500D02*
X79422500Y-96602500D01*
X82162500Y-103142500D02*
X79422500Y-103142500D01*
X79422500Y-96602500D02*
X82162500Y-96602500D01*
X82162500Y-96602500D02*
X82162500Y-103142500D01*
X80792500Y-95832500D02*
X80792500Y-96602500D01*
%TO.C,R6*%
X76742500Y-103912500D02*
X76742500Y-103142500D01*
X75372500Y-103142500D02*
X75372500Y-96602500D01*
X78112500Y-103142500D02*
X75372500Y-103142500D01*
X75372500Y-96602500D02*
X78112500Y-96602500D01*
X78112500Y-96602500D02*
X78112500Y-103142500D01*
X76742500Y-95832500D02*
X76742500Y-96602500D01*
%TO.C,R4*%
X57767500Y-104362500D02*
X57767500Y-103592500D01*
X56397500Y-103592500D02*
X56397500Y-97052500D01*
X59137500Y-103592500D02*
X56397500Y-103592500D01*
X56397500Y-97052500D02*
X59137500Y-97052500D01*
X59137500Y-97052500D02*
X59137500Y-103592500D01*
X57767500Y-96282500D02*
X57767500Y-97052500D01*
%TO.C,D3*%
X60292500Y-60587500D02*
X60292500Y-61237500D01*
X61412500Y-61237500D02*
X61412500Y-65477500D01*
X59172500Y-61237500D02*
X61412500Y-61237500D01*
X59172500Y-61837500D02*
X61412500Y-61837500D01*
X59172500Y-61957500D02*
X61412500Y-61957500D01*
X59172500Y-62077500D02*
X61412500Y-62077500D01*
X61412500Y-65477500D02*
X59172500Y-65477500D01*
X59172500Y-65477500D02*
X59172500Y-61237500D01*
X60292500Y-66127500D02*
X60292500Y-65477500D01*
%TO.C,U1*%
X71802500Y-77112500D02*
X66502500Y-77112500D01*
X71802500Y-66832500D02*
X71802500Y-77112500D01*
X70152500Y-66832500D02*
X71802500Y-66832500D01*
X66502500Y-77112500D02*
X66502500Y-66832500D01*
X66502500Y-66832500D02*
X68152500Y-66832500D01*
X70152500Y-66832500D02*
G75*
G02*
X68152500Y-66832500I-1000000J0D01*
G01*
%TD*%
M02*
