M48
; DRILL file {KiCad 8.0.1} date 2024-04-02T10:46:23+0200
; FORMAT={-:-/ absolute / inch / decimal}
; #@! TF.CreationDate,2024-04-02T10:46:23+02:00
; #@! TF.GenerationSoftware,Kicad,Pcbnew,8.0.1
; #@! TF.FileFunction,Plated,1,2,PTH
FMAT,2
INCH
; #@! TA.AperFunction,Plated,PTH,ViaDrill
T1C0.0039
; #@! TA.AperFunction,Plated,PTH,ComponentDrill
T2C0.0315
; #@! TA.AperFunction,Plated,PTH,ComponentDrill
T3C0.0354
; #@! TA.AperFunction,Plated,PTH,ComponentDrill
T4C0.0394
; #@! TA.AperFunction,Plated,PTH,ComponentDrill
T5C0.0433
%
G90
G05
T1
X2.0912Y-2.5912
X2.0932Y-2.4692
X2.2015Y-2.5932
X3.169Y-3.4357
X3.2891Y-2.546
X3.3412Y-2.6139
X3.4269Y-2.6139
X3.4279Y-2.4879
T2
X2.2714Y-1.9406
X2.2743Y-3.7497
X2.2743Y-4.1497
X2.3042Y-3.3428
X2.3698Y-1.9406
X2.3737Y-2.3444
X2.3737Y-2.6444
X2.4042Y-3.2428
X2.4338Y-3.7497
X2.4338Y-4.1497
X2.5042Y-3.3428
X2.5725Y-2.6836
X2.5725Y-2.7836
X2.5725Y-2.8836
X2.5725Y-2.9836
X2.8725Y-2.6836
X2.8725Y-2.7836
X2.8725Y-2.8836
X2.8725Y-2.9836
X3.0099Y-3.3458
X3.0214Y-3.732
X3.0214Y-4.132
X3.1099Y-3.2458
X3.1808Y-3.732
X3.1808Y-4.132
X3.2099Y-3.3458
T3
X1.9416Y-1.354
X2.0312Y-3.1719
X2.041Y-2.7143
X2.0416Y-1.354
X2.0523Y-2.2704
X2.1312Y-3.1719
X2.141Y-2.7143
X2.1523Y-2.2704
X2.6802Y-2.3639
X2.7005Y-3.3865
X2.7802Y-2.3639
X2.8005Y-3.3865
X3.3678Y-2.7753
X3.3678Y-3.2143
X3.3767Y-2.2891
X3.4678Y-2.7753
X3.4678Y-3.2143
X3.4767Y-2.2891
X3.4997Y-1.354
X3.5997Y-1.354
T4
X1.4725Y-2.5918
X1.5725Y-2.8318
X1.6725Y-2.5918
X2.6641Y-2.0322
X2.7641Y-2.0322
X2.8641Y-2.0322
X3.8511Y-2.604
X3.9511Y-2.844
X4.0511Y-2.604
T5
X1.5725Y-2.6918
X3.9511Y-2.704
M30
