%TF.GenerationSoftware,KiCad,Pcbnew,8.0.1*%
%TF.CreationDate,2024-04-02T10:46:18+02:00*%
%TF.ProjectId,ROBO_III,524f424f-5f49-4494-992e-6b696361645f,rev?*%
%TF.SameCoordinates,Original*%
%TF.FileFunction,Copper,L1,Top*%
%TF.FilePolarity,Positive*%
%FSLAX46Y46*%
G04 Gerber Fmt 4.6, Leading zero omitted, Abs format (unit mm)*
G04 Created by KiCad (PCBNEW 8.0.1) date 2024-04-02 10:46:18*
%MOMM*%
%LPD*%
G01*
G04 APERTURE LIST*
%TA.AperFunction,ComponentPad*%
%ADD10R,1.800000X1.800000*%
%TD*%
%TA.AperFunction,ComponentPad*%
%ADD11C,1.800000*%
%TD*%
%TA.AperFunction,ComponentPad*%
%ADD12R,1.500000X1.500000*%
%TD*%
%TA.AperFunction,ComponentPad*%
%ADD13C,1.500000*%
%TD*%
%TA.AperFunction,ComponentPad*%
%ADD14C,1.600000*%
%TD*%
%TA.AperFunction,ComponentPad*%
%ADD15O,1.600000X1.600000*%
%TD*%
%TA.AperFunction,ComponentPad*%
%ADD16R,1.600000X1.600000*%
%TD*%
%TA.AperFunction,ComponentPad*%
%ADD17C,2.000000*%
%TD*%
%TA.AperFunction,ViaPad*%
%ADD18C,0.300000*%
%TD*%
%TA.AperFunction,Conductor*%
%ADD19C,0.250000*%
%TD*%
G04 APERTURE END LIST*
D10*
%TO.P,D11,1,K*%
%TO.N,Net-(D1-K)*%
X88892500Y-34392500D03*
D11*
%TO.P,D11,2,A*%
%TO.N,Net-(D1-A)*%
X91432500Y-34392500D03*
%TD*%
D10*
%TO.P,D8,1,K*%
%TO.N,Net-(D1-K)*%
X51592500Y-80567500D03*
D11*
%TO.P,D8,2,A*%
%TO.N,Net-(D1-A)*%
X54132500Y-80567500D03*
%TD*%
D10*
%TO.P,D2,1,K*%
%TO.N,Net-(D1-K)*%
X68077500Y-60042500D03*
D11*
%TO.P,D2,2,A*%
%TO.N,Net-(D1-A)*%
X70617500Y-60042500D03*
%TD*%
D12*
%TO.P,T2,1,E*%
%TO.N,Net-(D1-K)*%
X58527500Y-84907500D03*
D13*
%TO.P,T2,2,B*%
%TO.N,Net-(Q1-B)*%
X61067500Y-82367500D03*
%TO.P,T2,3,C*%
%TO.N,Net-(Q1-C)*%
X63607500Y-84907500D03*
%TD*%
D10*
%TO.P,D4,1,K*%
%TO.N,Net-(D1-K)*%
X85767500Y-58142500D03*
D11*
%TO.P,D4,2,A*%
%TO.N,Net-(D1-A)*%
X88307500Y-58142500D03*
%TD*%
D10*
%TO.P,D1,1,K*%
%TO.N,Net-(D1-K)*%
X52127500Y-57667500D03*
D11*
%TO.P,D1,2,A*%
%TO.N,Net-(D1-A)*%
X54667500Y-57667500D03*
%TD*%
D10*
%TO.P,D5,1,K*%
%TO.N,Net-(D1-K)*%
X85542500Y-70492500D03*
D11*
%TO.P,D5,2,A*%
%TO.N,Net-(D1-A)*%
X88082500Y-70492500D03*
%TD*%
D10*
%TO.P,D9,1,K*%
%TO.N,Net-(D1-K)*%
X51842500Y-68942500D03*
D11*
%TO.P,D9,2,A*%
%TO.N,Net-(D1-A)*%
X54382500Y-68942500D03*
%TD*%
D12*
%TO.P,T1,1,E*%
%TO.N,Net-(D1-A)*%
X76452500Y-84982500D03*
D13*
%TO.P,T1,2,B*%
%TO.N,Net-(Q1-C)*%
X78992500Y-82442500D03*
%TO.P,T1,3,C*%
%TO.N,Net-(Q2-C)*%
X81532500Y-84982500D03*
%TD*%
D10*
%TO.P,D6,1,K*%
%TO.N,Net-(D1-K)*%
X85542500Y-81642500D03*
D11*
%TO.P,D6,2,A*%
%TO.N,Net-(D1-A)*%
X88082500Y-81642500D03*
%TD*%
D10*
%TO.P,D7,1,K*%
%TO.N,Net-(D1-K)*%
X68592500Y-86017500D03*
D11*
%TO.P,D7,2,A*%
%TO.N,Net-(D1-A)*%
X71132500Y-86017500D03*
%TD*%
D10*
%TO.P,D10,1,K*%
%TO.N,Net-(D1-K)*%
X49317500Y-34392500D03*
D11*
%TO.P,D10,2,A*%
%TO.N,Net-(D1-A)*%
X51857500Y-34392500D03*
%TD*%
D14*
%TO.P,R3,1*%
%TO.N,Net-(D3-K)*%
X61817500Y-105402500D03*
D15*
%TO.P,R3,2*%
%TO.N,Net-(Q1-B)*%
X61817500Y-95242500D03*
%TD*%
D16*
%TO.P,C1,1*%
%TO.N,Net-(D3-K)*%
X60192500Y-49292500D03*
D14*
%TO.P,C1,2*%
%TO.N,Net-(D1-K)*%
X57692500Y-49292500D03*
%TD*%
D17*
%TO.P,P1,1,1*%
%TO.N,Net-(S1-E)*%
X102897500Y-66142500D03*
%TO.P,P1,2,2*%
%TO.N,unconnected-(P1-Pad2)*%
X97817500Y-66142500D03*
%TO.P,P1,3,3*%
%TO.N,Net-(D3-A)*%
X100357500Y-72238500D03*
X100357500Y-68682500D03*
%TD*%
%TO.P,S1,1,A*%
%TO.N,Net-(S1-A-Pad1)*%
X67667500Y-51617500D03*
%TO.P,S1,2,E*%
%TO.N,Net-(S1-E)*%
X70207500Y-51617500D03*
%TO.P,S1,3,A*%
%TO.N,unconnected-(S1-A-Pad3)*%
X72747500Y-51617500D03*
%TD*%
D14*
%TO.P,R5,1*%
%TO.N,Net-(S1-E)*%
X80792500Y-104952500D03*
D15*
%TO.P,R5,2*%
%TO.N,Net-(Q1-C)*%
X80792500Y-94792500D03*
%TD*%
D14*
%TO.P,R6,1*%
%TO.N,Net-(S1-E)*%
X76742500Y-104952500D03*
D15*
%TO.P,R6,2*%
%TO.N,Net-(Q2-C)*%
X76742500Y-94792500D03*
%TD*%
D14*
%TO.P,R4,1*%
%TO.N,Net-(Q1-B)*%
X57767500Y-105402500D03*
D15*
%TO.P,R4,2*%
%TO.N,Net-(D1-K)*%
X57767500Y-95242500D03*
%TD*%
D17*
%TO.P,P2,1,1*%
%TO.N,Net-(D3-A)*%
X42481300Y-65831700D03*
%TO.P,P2,2,2*%
%TO.N,unconnected-(P2-Pad2)*%
X37401300Y-65831700D03*
%TO.P,P2,3,3*%
%TO.N,Net-(D3-K)*%
X39941300Y-71927700D03*
X39941300Y-68371700D03*
%TD*%
D16*
%TO.P,D3,1,K*%
%TO.N,Net-(D3-K)*%
X60292500Y-59547500D03*
D15*
%TO.P,D3,2,A*%
%TO.N,Net-(D3-A)*%
X60292500Y-67167500D03*
%TD*%
D16*
%TO.P,U1,1,GND*%
%TO.N,Net-(D1-K)*%
X72962500Y-68162500D03*
D15*
%TO.P,U1,2,TR*%
%TO.N,Net-(D3-K)*%
X72962500Y-70702500D03*
%TO.P,U1,3,Q*%
%TO.N,Net-(U1-Pad3)*%
X72962500Y-73242500D03*
%TO.P,U1,4,R*%
%TO.N,Net-(S1-E)*%
X72962500Y-75782500D03*
%TO.P,U1,5,CV*%
%TO.N,unconnected-(U1-CV-Pad5)*%
X65342500Y-75782500D03*
%TO.P,U1,6,THR*%
%TO.N,Net-(D3-K)*%
X65342500Y-73242500D03*
%TO.P,U1,7,DIS*%
%TO.N,Net-(D3-A)*%
X65342500Y-70702500D03*
%TO.P,U1,8,VCC*%
%TO.N,Net-(S1-E)*%
X65342500Y-68162500D03*
%TD*%
D18*
%TO.N,Net-(D3-K)*%
X53167500Y-62717500D03*
%TO.N,Net-(D3-A)*%
X84867500Y-66392500D03*
X55917500Y-65867500D03*
X87042500Y-66392500D03*
X83542500Y-64667500D03*
X53117500Y-65817500D03*
%TO.N,Net-(S1-E)*%
X87067500Y-63192500D03*
%TO.N,Net-(Q1-C)*%
X80492500Y-87267500D03*
%TD*%
D19*
%TO.N,Net-(D3-K)*%
X67517500Y-80667500D02*
X65842500Y-82342500D01*
X65342500Y-73242500D02*
X67517500Y-75417500D01*
X65842500Y-82342500D02*
X65842500Y-101377500D01*
X39941300Y-68371700D02*
X39941300Y-64418700D01*
X65842500Y-101377500D02*
X61817500Y-105402500D01*
X53167500Y-62717500D02*
X41642500Y-62717500D01*
X39941300Y-64418700D02*
X41642500Y-62717500D01*
X67517500Y-75417500D02*
X67517500Y-80667500D01*
%TO.N,Net-(D1-A)*%
X51857500Y-34392500D02*
X54217500Y-34392500D01*
X56442500Y-57667500D02*
X57917500Y-56192500D01*
X80492500Y-83392500D02*
X87242500Y-83392500D01*
X71067500Y-58192500D02*
X70617500Y-58642500D01*
X84867500Y-49392500D02*
X79742500Y-49392500D01*
X84867500Y-49392500D02*
X88307500Y-52832500D01*
X54382500Y-68942500D02*
X54382500Y-80317500D01*
X70617500Y-58642500D02*
X70617500Y-60042500D01*
X54667500Y-57667500D02*
X56442500Y-57667500D01*
X54667500Y-57667500D02*
X54667500Y-68657500D01*
X56367500Y-36542500D02*
X56367500Y-44392500D01*
X88307500Y-58142500D02*
X88307500Y-70267500D01*
X54417500Y-46342500D02*
X54667500Y-46592500D01*
X79742500Y-49392500D02*
X79742500Y-49517500D01*
X54667500Y-46592500D02*
X54667500Y-57667500D01*
X87242500Y-83392500D02*
X87242500Y-82482500D01*
X88307500Y-70267500D02*
X88082500Y-70492500D01*
X88082500Y-70492500D02*
X88082500Y-81642500D01*
X69067500Y-56192500D02*
X71067500Y-58192500D01*
X88307500Y-52832500D02*
X88307500Y-58142500D01*
X84867500Y-39350292D02*
X84867500Y-49392500D01*
X78902500Y-84982500D02*
X80492500Y-83392500D01*
X87175292Y-37042500D02*
X84867500Y-39350292D01*
X57917500Y-56192500D02*
X69067500Y-56192500D01*
X54217500Y-34392500D02*
X56367500Y-36542500D01*
X55080247Y-57254753D02*
X54667500Y-57667500D01*
X54382500Y-80317500D02*
X54132500Y-80567500D01*
X91432500Y-36202500D02*
X90157500Y-36202500D01*
X56367500Y-44392500D02*
X54417500Y-46342500D01*
X89317500Y-37042500D02*
X87175292Y-37042500D01*
X76452500Y-84982500D02*
X78902500Y-84982500D01*
X54667500Y-68657500D02*
X54382500Y-68942500D01*
X79742500Y-49517500D02*
X71067500Y-58192500D01*
X91432500Y-34392500D02*
X91432500Y-36202500D01*
X87242500Y-82482500D02*
X88082500Y-81642500D01*
X90157500Y-36202500D02*
X89317500Y-37042500D01*
%TO.N,Net-(D3-A)*%
X58992500Y-65867500D02*
X60292500Y-67167500D01*
X47128300Y-65831700D02*
X50991320Y-65831700D01*
X65742500Y-62717500D02*
X81792500Y-62717500D01*
X81792500Y-62717500D02*
X81792500Y-63192500D01*
X42481300Y-65831700D02*
X47128300Y-65831700D01*
X50991320Y-65831700D02*
X51005520Y-65817500D01*
X60292500Y-67167500D02*
X61292500Y-67167500D01*
X83342500Y-64667500D02*
X83542500Y-64667500D01*
X51005520Y-65817500D02*
X53117500Y-65817500D01*
X61292500Y-67167500D02*
X65742500Y-62717500D01*
X81867500Y-63192500D02*
X83342500Y-64667500D01*
X81792500Y-63192500D02*
X81867500Y-63192500D01*
X84867500Y-66392500D02*
X87042500Y-66392500D01*
X55917500Y-65867500D02*
X58992500Y-65867500D01*
%TO.N,Net-(S1-E)*%
X74342500Y-78792500D02*
X72962500Y-77412500D01*
X81592500Y-71442500D02*
X83292500Y-69742500D01*
X84292500Y-65967500D02*
X87067500Y-63192500D01*
X68892500Y-75017500D02*
X69657500Y-75782500D01*
X83292500Y-69742500D02*
X83292500Y-65967500D01*
X72962500Y-75782500D02*
X75927500Y-75782500D01*
X83292500Y-65967500D02*
X84292500Y-65967500D01*
X76742500Y-102542500D02*
X74342500Y-100142500D01*
X72962500Y-77412500D02*
X72962500Y-75782500D01*
X75927500Y-75782500D02*
X78817500Y-72892500D01*
X69657500Y-75782500D02*
X72962500Y-75782500D01*
X67087500Y-68162500D02*
X68892500Y-69967500D01*
X80267500Y-71442500D02*
X81592500Y-71442500D01*
X74342500Y-100142500D02*
X74342500Y-78792500D01*
X76742500Y-104952500D02*
X76742500Y-102542500D01*
X78817500Y-72892500D02*
X80267500Y-71442500D01*
X80792500Y-104952500D02*
X76742500Y-104952500D01*
X68892500Y-69967500D02*
X68892500Y-75017500D01*
X65342500Y-68162500D02*
X67087500Y-68162500D01*
%TO.N,Net-(Q1-B)*%
X61817500Y-95242500D02*
X61817500Y-96292500D01*
X61067500Y-82367500D02*
X61067500Y-94492500D01*
X61817500Y-96292500D02*
X57767500Y-100342500D01*
X61067500Y-94492500D02*
X61817500Y-95242500D01*
X57767500Y-100342500D02*
X57767500Y-105402500D01*
%TO.N,Net-(Q1-C)*%
X80492500Y-87267500D02*
X80792500Y-87567500D01*
X80792500Y-87567500D02*
X80792500Y-94792500D01*
%TO.N,Net-(Q2-C)*%
X81532500Y-84982500D02*
X80477500Y-84982500D01*
X80477500Y-84982500D02*
X76742500Y-88717500D01*
X76742500Y-88717500D02*
X76742500Y-94792500D01*
%TD*%
M02*
