%TF.GenerationSoftware,KiCad,Pcbnew,8.0.1*%
%TF.CreationDate,2024-04-02T10:44:00+02:00*%
%TF.ProjectId,Einhorn,45696e68-6f72-46e2-9e6b-696361645f70,rev?*%
%TF.SameCoordinates,Original*%
%TF.FileFunction,Legend,Bot*%
%TF.FilePolarity,Positive*%
%FSLAX46Y46*%
G04 Gerber Fmt 4.6, Leading zero omitted, Abs format (unit mm)*
G04 Created by KiCad (PCBNEW 8.0.1) date 2024-04-02 10:44:00*
%MOMM*%
%LPD*%
G01*
G04 APERTURE LIST*
%ADD10C,0.150000*%
%ADD11C,0.300000*%
%ADD12C,0.050000*%
%ADD13C,0.120000*%
%ADD14C,0.010000*%
%ADD15C,2.500000*%
G04 APERTURE END LIST*
D10*
X106886000Y-68400000D02*
G75*
G02*
X110562893Y-68426173I1850000J1610000D01*
G01*
X80020000Y-45386000D02*
X80020000Y-47926000D01*
X106886000Y-68400000D02*
X110556000Y-68420000D01*
X97366000Y-65890000D02*
G75*
G02*
X101042893Y-65916173I1850000J1610000D01*
G01*
X40650000Y-77136000D02*
X43190000Y-72056000D01*
X53604000Y-76122000D02*
X56398000Y-70024000D01*
X97366000Y-65890000D02*
X101036000Y-65910000D01*
X88854220Y-94414819D02*
X88854220Y-93414819D01*
X88282792Y-94414819D02*
X88711363Y-93843390D01*
X88282792Y-93414819D02*
X88854220Y-93986247D01*
X89986077Y-45017819D02*
X89652744Y-46017819D01*
X89652744Y-46017819D02*
X89319411Y-45017819D01*
X88414649Y-45922580D02*
X88462268Y-45970200D01*
X88462268Y-45970200D02*
X88605125Y-46017819D01*
X88605125Y-46017819D02*
X88700363Y-46017819D01*
X88700363Y-46017819D02*
X88843220Y-45970200D01*
X88843220Y-45970200D02*
X88938458Y-45874961D01*
X88938458Y-45874961D02*
X88986077Y-45779723D01*
X88986077Y-45779723D02*
X89033696Y-45589247D01*
X89033696Y-45589247D02*
X89033696Y-45446390D01*
X89033696Y-45446390D02*
X88986077Y-45255914D01*
X88986077Y-45255914D02*
X88938458Y-45160676D01*
X88938458Y-45160676D02*
X88843220Y-45065438D01*
X88843220Y-45065438D02*
X88700363Y-45017819D01*
X88700363Y-45017819D02*
X88605125Y-45017819D01*
X88605125Y-45017819D02*
X88462268Y-45065438D01*
X88462268Y-45065438D02*
X88414649Y-45113057D01*
X87414649Y-45922580D02*
X87462268Y-45970200D01*
X87462268Y-45970200D02*
X87605125Y-46017819D01*
X87605125Y-46017819D02*
X87700363Y-46017819D01*
X87700363Y-46017819D02*
X87843220Y-45970200D01*
X87843220Y-45970200D02*
X87938458Y-45874961D01*
X87938458Y-45874961D02*
X87986077Y-45779723D01*
X87986077Y-45779723D02*
X88033696Y-45589247D01*
X88033696Y-45589247D02*
X88033696Y-45446390D01*
X88033696Y-45446390D02*
X87986077Y-45255914D01*
X87986077Y-45255914D02*
X87938458Y-45160676D01*
X87938458Y-45160676D02*
X87843220Y-45065438D01*
X87843220Y-45065438D02*
X87700363Y-45017819D01*
X87700363Y-45017819D02*
X87605125Y-45017819D01*
X87605125Y-45017819D02*
X87462268Y-45065438D01*
X87462268Y-45065438D02*
X87414649Y-45113057D01*
X87128934Y-44970200D02*
X86986077Y-45113057D01*
X52227506Y-106499819D02*
X52227506Y-107214104D01*
X52227506Y-107214104D02*
X52275125Y-107356961D01*
X52275125Y-107356961D02*
X52370363Y-107452200D01*
X52370363Y-107452200D02*
X52513220Y-107499819D01*
X52513220Y-107499819D02*
X52608458Y-107499819D01*
X51275125Y-107499819D02*
X51751315Y-107499819D01*
X51751315Y-107499819D02*
X51751315Y-106499819D01*
X50370363Y-107404580D02*
X50417982Y-107452200D01*
X50417982Y-107452200D02*
X50560839Y-107499819D01*
X50560839Y-107499819D02*
X50656077Y-107499819D01*
X50656077Y-107499819D02*
X50798934Y-107452200D01*
X50798934Y-107452200D02*
X50894172Y-107356961D01*
X50894172Y-107356961D02*
X50941791Y-107261723D01*
X50941791Y-107261723D02*
X50989410Y-107071247D01*
X50989410Y-107071247D02*
X50989410Y-106928390D01*
X50989410Y-106928390D02*
X50941791Y-106737914D01*
X50941791Y-106737914D02*
X50894172Y-106642676D01*
X50894172Y-106642676D02*
X50798934Y-106547438D01*
X50798934Y-106547438D02*
X50656077Y-106499819D01*
X50656077Y-106499819D02*
X50560839Y-106499819D01*
X50560839Y-106499819D02*
X50417982Y-106547438D01*
X50417982Y-106547438D02*
X50370363Y-106595057D01*
X49656077Y-106499819D02*
X49656077Y-107214104D01*
X49656077Y-107214104D02*
X49703696Y-107356961D01*
X49703696Y-107356961D02*
X49798934Y-107452200D01*
X49798934Y-107452200D02*
X49941791Y-107499819D01*
X49941791Y-107499819D02*
X50037029Y-107499819D01*
X48703696Y-107499819D02*
X49179886Y-107499819D01*
X49179886Y-107499819D02*
X49179886Y-106499819D01*
X47798934Y-107404580D02*
X47846553Y-107452200D01*
X47846553Y-107452200D02*
X47989410Y-107499819D01*
X47989410Y-107499819D02*
X48084648Y-107499819D01*
X48084648Y-107499819D02*
X48227505Y-107452200D01*
X48227505Y-107452200D02*
X48322743Y-107356961D01*
X48322743Y-107356961D02*
X48370362Y-107261723D01*
X48370362Y-107261723D02*
X48417981Y-107071247D01*
X48417981Y-107071247D02*
X48417981Y-106928390D01*
X48417981Y-106928390D02*
X48370362Y-106737914D01*
X48370362Y-106737914D02*
X48322743Y-106642676D01*
X48322743Y-106642676D02*
X48227505Y-106547438D01*
X48227505Y-106547438D02*
X48084648Y-106499819D01*
X48084648Y-106499819D02*
X47989410Y-106499819D01*
X47989410Y-106499819D02*
X47846553Y-106547438D01*
X47846553Y-106547438D02*
X47798934Y-106595057D01*
X47084648Y-106499819D02*
X47084648Y-107214104D01*
X47084648Y-107214104D02*
X47132267Y-107356961D01*
X47132267Y-107356961D02*
X47227505Y-107452200D01*
X47227505Y-107452200D02*
X47370362Y-107499819D01*
X47370362Y-107499819D02*
X47465600Y-107499819D01*
X46132267Y-107499819D02*
X46608457Y-107499819D01*
X46608457Y-107499819D02*
X46608457Y-106499819D01*
X45227505Y-107404580D02*
X45275124Y-107452200D01*
X45275124Y-107452200D02*
X45417981Y-107499819D01*
X45417981Y-107499819D02*
X45513219Y-107499819D01*
X45513219Y-107499819D02*
X45656076Y-107452200D01*
X45656076Y-107452200D02*
X45751314Y-107356961D01*
X45751314Y-107356961D02*
X45798933Y-107261723D01*
X45798933Y-107261723D02*
X45846552Y-107071247D01*
X45846552Y-107071247D02*
X45846552Y-106928390D01*
X45846552Y-106928390D02*
X45798933Y-106737914D01*
X45798933Y-106737914D02*
X45751314Y-106642676D01*
X45751314Y-106642676D02*
X45656076Y-106547438D01*
X45656076Y-106547438D02*
X45513219Y-106499819D01*
X45513219Y-106499819D02*
X45417981Y-106499819D01*
X45417981Y-106499819D02*
X45275124Y-106547438D01*
X45275124Y-106547438D02*
X45227505Y-106595057D01*
X44513219Y-106499819D02*
X44513219Y-107214104D01*
X44513219Y-107214104D02*
X44560838Y-107356961D01*
X44560838Y-107356961D02*
X44656076Y-107452200D01*
X44656076Y-107452200D02*
X44798933Y-107499819D01*
X44798933Y-107499819D02*
X44894171Y-107499819D01*
X43560838Y-107499819D02*
X44037028Y-107499819D01*
X44037028Y-107499819D02*
X44037028Y-106499819D01*
X42656076Y-107404580D02*
X42703695Y-107452200D01*
X42703695Y-107452200D02*
X42846552Y-107499819D01*
X42846552Y-107499819D02*
X42941790Y-107499819D01*
X42941790Y-107499819D02*
X43084647Y-107452200D01*
X43084647Y-107452200D02*
X43179885Y-107356961D01*
X43179885Y-107356961D02*
X43227504Y-107261723D01*
X43227504Y-107261723D02*
X43275123Y-107071247D01*
X43275123Y-107071247D02*
X43275123Y-106928390D01*
X43275123Y-106928390D02*
X43227504Y-106737914D01*
X43227504Y-106737914D02*
X43179885Y-106642676D01*
X43179885Y-106642676D02*
X43084647Y-106547438D01*
X43084647Y-106547438D02*
X42941790Y-106499819D01*
X42941790Y-106499819D02*
X42846552Y-106499819D01*
X42846552Y-106499819D02*
X42703695Y-106547438D01*
X42703695Y-106547438D02*
X42656076Y-106595057D01*
X104511792Y-24586580D02*
X104559411Y-24634200D01*
X104559411Y-24634200D02*
X104702268Y-24681819D01*
X104702268Y-24681819D02*
X104797506Y-24681819D01*
X104797506Y-24681819D02*
X104940363Y-24634200D01*
X104940363Y-24634200D02*
X105035601Y-24538961D01*
X105035601Y-24538961D02*
X105083220Y-24443723D01*
X105083220Y-24443723D02*
X105130839Y-24253247D01*
X105130839Y-24253247D02*
X105130839Y-24110390D01*
X105130839Y-24110390D02*
X105083220Y-23919914D01*
X105083220Y-23919914D02*
X105035601Y-23824676D01*
X105035601Y-23824676D02*
X104940363Y-23729438D01*
X104940363Y-23729438D02*
X104797506Y-23681819D01*
X104797506Y-23681819D02*
X104702268Y-23681819D01*
X104702268Y-23681819D02*
X104559411Y-23729438D01*
X104559411Y-23729438D02*
X104511792Y-23777057D01*
X103511792Y-24681819D02*
X103845125Y-24205628D01*
X104083220Y-24681819D02*
X104083220Y-23681819D01*
X104083220Y-23681819D02*
X103702268Y-23681819D01*
X103702268Y-23681819D02*
X103607030Y-23729438D01*
X103607030Y-23729438D02*
X103559411Y-23777057D01*
X103559411Y-23777057D02*
X103511792Y-23872295D01*
X103511792Y-23872295D02*
X103511792Y-24015152D01*
X103511792Y-24015152D02*
X103559411Y-24110390D01*
X103559411Y-24110390D02*
X103607030Y-24158009D01*
X103607030Y-24158009D02*
X103702268Y-24205628D01*
X103702268Y-24205628D02*
X104083220Y-24205628D01*
X103130839Y-23777057D02*
X103083220Y-23729438D01*
X103083220Y-23729438D02*
X102987982Y-23681819D01*
X102987982Y-23681819D02*
X102749887Y-23681819D01*
X102749887Y-23681819D02*
X102654649Y-23729438D01*
X102654649Y-23729438D02*
X102607030Y-23777057D01*
X102607030Y-23777057D02*
X102559411Y-23872295D01*
X102559411Y-23872295D02*
X102559411Y-23967533D01*
X102559411Y-23967533D02*
X102607030Y-24110390D01*
X102607030Y-24110390D02*
X103178458Y-24681819D01*
X103178458Y-24681819D02*
X102559411Y-24681819D01*
X101940363Y-23681819D02*
X101845125Y-23681819D01*
X101845125Y-23681819D02*
X101749887Y-23729438D01*
X101749887Y-23729438D02*
X101702268Y-23777057D01*
X101702268Y-23777057D02*
X101654649Y-23872295D01*
X101654649Y-23872295D02*
X101607030Y-24062771D01*
X101607030Y-24062771D02*
X101607030Y-24300866D01*
X101607030Y-24300866D02*
X101654649Y-24491342D01*
X101654649Y-24491342D02*
X101702268Y-24586580D01*
X101702268Y-24586580D02*
X101749887Y-24634200D01*
X101749887Y-24634200D02*
X101845125Y-24681819D01*
X101845125Y-24681819D02*
X101940363Y-24681819D01*
X101940363Y-24681819D02*
X102035601Y-24634200D01*
X102035601Y-24634200D02*
X102083220Y-24586580D01*
X102083220Y-24586580D02*
X102130839Y-24491342D01*
X102130839Y-24491342D02*
X102178458Y-24300866D01*
X102178458Y-24300866D02*
X102178458Y-24062771D01*
X102178458Y-24062771D02*
X102130839Y-23872295D01*
X102130839Y-23872295D02*
X102083220Y-23777057D01*
X102083220Y-23777057D02*
X102035601Y-23729438D01*
X102035601Y-23729438D02*
X101940363Y-23681819D01*
X101273696Y-23681819D02*
X100654649Y-23681819D01*
X100654649Y-23681819D02*
X100987982Y-24062771D01*
X100987982Y-24062771D02*
X100845125Y-24062771D01*
X100845125Y-24062771D02*
X100749887Y-24110390D01*
X100749887Y-24110390D02*
X100702268Y-24158009D01*
X100702268Y-24158009D02*
X100654649Y-24253247D01*
X100654649Y-24253247D02*
X100654649Y-24491342D01*
X100654649Y-24491342D02*
X100702268Y-24586580D01*
X100702268Y-24586580D02*
X100749887Y-24634200D01*
X100749887Y-24634200D02*
X100845125Y-24681819D01*
X100845125Y-24681819D02*
X101130839Y-24681819D01*
X101130839Y-24681819D02*
X101226077Y-24634200D01*
X101226077Y-24634200D02*
X101273696Y-24586580D01*
X100273696Y-23777057D02*
X100226077Y-23729438D01*
X100226077Y-23729438D02*
X100130839Y-23681819D01*
X100130839Y-23681819D02*
X99892744Y-23681819D01*
X99892744Y-23681819D02*
X99797506Y-23729438D01*
X99797506Y-23729438D02*
X99749887Y-23777057D01*
X99749887Y-23777057D02*
X99702268Y-23872295D01*
X99702268Y-23872295D02*
X99702268Y-23967533D01*
X99702268Y-23967533D02*
X99749887Y-24110390D01*
X99749887Y-24110390D02*
X100321315Y-24681819D01*
X100321315Y-24681819D02*
X99702268Y-24681819D01*
D11*
X119690510Y-37757400D02*
X120833368Y-37757400D01*
X120261939Y-38328828D02*
X120261939Y-37185971D01*
D10*
X112142856Y-52206819D02*
X111571428Y-52206819D01*
X111857142Y-53206819D02*
X111857142Y-52206819D01*
X111285713Y-52302057D02*
X111238094Y-52254438D01*
X111238094Y-52254438D02*
X111142856Y-52206819D01*
X111142856Y-52206819D02*
X110904761Y-52206819D01*
X110904761Y-52206819D02*
X110809523Y-52254438D01*
X110809523Y-52254438D02*
X110761904Y-52302057D01*
X110761904Y-52302057D02*
X110714285Y-52397295D01*
X110714285Y-52397295D02*
X110714285Y-52492533D01*
X110714285Y-52492533D02*
X110761904Y-52635390D01*
X110761904Y-52635390D02*
X111333332Y-53206819D01*
X111333332Y-53206819D02*
X110714285Y-53206819D01*
X110523809Y-53302057D02*
X109761904Y-53302057D01*
X109190475Y-52683009D02*
X109047618Y-52730628D01*
X109047618Y-52730628D02*
X108999999Y-52778247D01*
X108999999Y-52778247D02*
X108952380Y-52873485D01*
X108952380Y-52873485D02*
X108952380Y-53016342D01*
X108952380Y-53016342D02*
X108999999Y-53111580D01*
X108999999Y-53111580D02*
X109047618Y-53159200D01*
X109047618Y-53159200D02*
X109142856Y-53206819D01*
X109142856Y-53206819D02*
X109523808Y-53206819D01*
X109523808Y-53206819D02*
X109523808Y-52206819D01*
X109523808Y-52206819D02*
X109190475Y-52206819D01*
X109190475Y-52206819D02*
X109095237Y-52254438D01*
X109095237Y-52254438D02*
X109047618Y-52302057D01*
X109047618Y-52302057D02*
X108999999Y-52397295D01*
X108999999Y-52397295D02*
X108999999Y-52492533D01*
X108999999Y-52492533D02*
X109047618Y-52587771D01*
X109047618Y-52587771D02*
X109095237Y-52635390D01*
X109095237Y-52635390D02*
X109190475Y-52683009D01*
X109190475Y-52683009D02*
X109523808Y-52683009D01*
X95767904Y-45142438D02*
X95863142Y-45094819D01*
X95863142Y-45094819D02*
X96005999Y-45094819D01*
X96005999Y-45094819D02*
X96148856Y-45142438D01*
X96148856Y-45142438D02*
X96244094Y-45237676D01*
X96244094Y-45237676D02*
X96291713Y-45332914D01*
X96291713Y-45332914D02*
X96339332Y-45523390D01*
X96339332Y-45523390D02*
X96339332Y-45666247D01*
X96339332Y-45666247D02*
X96291713Y-45856723D01*
X96291713Y-45856723D02*
X96244094Y-45951961D01*
X96244094Y-45951961D02*
X96148856Y-46047200D01*
X96148856Y-46047200D02*
X96005999Y-46094819D01*
X96005999Y-46094819D02*
X95910761Y-46094819D01*
X95910761Y-46094819D02*
X95767904Y-46047200D01*
X95767904Y-46047200D02*
X95720285Y-45999580D01*
X95720285Y-45999580D02*
X95720285Y-45666247D01*
X95720285Y-45666247D02*
X95910761Y-45666247D01*
X95291713Y-46094819D02*
X95291713Y-45094819D01*
X95291713Y-45094819D02*
X94720285Y-46094819D01*
X94720285Y-46094819D02*
X94720285Y-45094819D01*
X94244094Y-46094819D02*
X94244094Y-45094819D01*
X94244094Y-45094819D02*
X94005999Y-45094819D01*
X94005999Y-45094819D02*
X93863142Y-45142438D01*
X93863142Y-45142438D02*
X93767904Y-45237676D01*
X93767904Y-45237676D02*
X93720285Y-45332914D01*
X93720285Y-45332914D02*
X93672666Y-45523390D01*
X93672666Y-45523390D02*
X93672666Y-45666247D01*
X93672666Y-45666247D02*
X93720285Y-45856723D01*
X93720285Y-45856723D02*
X93767904Y-45951961D01*
X93767904Y-45951961D02*
X93863142Y-46047200D01*
X93863142Y-46047200D02*
X94005999Y-46094819D01*
X94005999Y-46094819D02*
X94244094Y-46094819D01*
D12*
X102494285Y-34994019D02*
X102494285Y-35803542D01*
X102494285Y-35803542D02*
X102537142Y-35898780D01*
X102537142Y-35898780D02*
X102580000Y-35946400D01*
X102580000Y-35946400D02*
X102665714Y-35994019D01*
X102665714Y-35994019D02*
X102837142Y-35994019D01*
X102837142Y-35994019D02*
X102922857Y-35946400D01*
X102922857Y-35946400D02*
X102965714Y-35898780D01*
X102965714Y-35898780D02*
X103008571Y-35803542D01*
X103008571Y-35803542D02*
X103008571Y-34994019D01*
X103394285Y-35089257D02*
X103437142Y-35041638D01*
X103437142Y-35041638D02*
X103522857Y-34994019D01*
X103522857Y-34994019D02*
X103737142Y-34994019D01*
X103737142Y-34994019D02*
X103822857Y-35041638D01*
X103822857Y-35041638D02*
X103865714Y-35089257D01*
X103865714Y-35089257D02*
X103908571Y-35184495D01*
X103908571Y-35184495D02*
X103908571Y-35279733D01*
X103908571Y-35279733D02*
X103865714Y-35422590D01*
X103865714Y-35422590D02*
X103351428Y-35994019D01*
X103351428Y-35994019D02*
X103908571Y-35994019D01*
X98551429Y-37070209D02*
X98680001Y-37117828D01*
X98680001Y-37117828D02*
X98722858Y-37165447D01*
X98722858Y-37165447D02*
X98765715Y-37260685D01*
X98765715Y-37260685D02*
X98765715Y-37403542D01*
X98765715Y-37403542D02*
X98722858Y-37498780D01*
X98722858Y-37498780D02*
X98680001Y-37546400D01*
X98680001Y-37546400D02*
X98594286Y-37594019D01*
X98594286Y-37594019D02*
X98251429Y-37594019D01*
X98251429Y-37594019D02*
X98251429Y-36594019D01*
X98251429Y-36594019D02*
X98551429Y-36594019D01*
X98551429Y-36594019D02*
X98637144Y-36641638D01*
X98637144Y-36641638D02*
X98680001Y-36689257D01*
X98680001Y-36689257D02*
X98722858Y-36784495D01*
X98722858Y-36784495D02*
X98722858Y-36879733D01*
X98722858Y-36879733D02*
X98680001Y-36974971D01*
X98680001Y-36974971D02*
X98637144Y-37022590D01*
X98637144Y-37022590D02*
X98551429Y-37070209D01*
X98551429Y-37070209D02*
X98251429Y-37070209D01*
X99108572Y-37308304D02*
X99537144Y-37308304D01*
X99022858Y-37594019D02*
X99322858Y-36594019D01*
X99322858Y-36594019D02*
X99622858Y-37594019D01*
X99794287Y-36594019D02*
X100308573Y-36594019D01*
X100051430Y-37594019D02*
X100051430Y-36594019D01*
X100394287Y-37689257D02*
X101080001Y-37689257D01*
X101294286Y-37594019D02*
X101294286Y-36594019D01*
X101294286Y-37070209D02*
X101808572Y-37070209D01*
X101808572Y-37594019D02*
X101808572Y-36594019D01*
X102665715Y-37594019D02*
X102237143Y-37594019D01*
X102237143Y-37594019D02*
X102237143Y-36594019D01*
X102965714Y-37594019D02*
X102965714Y-36594019D01*
X102965714Y-36594019D02*
X103180000Y-36594019D01*
X103180000Y-36594019D02*
X103308571Y-36641638D01*
X103308571Y-36641638D02*
X103394286Y-36736876D01*
X103394286Y-36736876D02*
X103437143Y-36832114D01*
X103437143Y-36832114D02*
X103480000Y-37022590D01*
X103480000Y-37022590D02*
X103480000Y-37165447D01*
X103480000Y-37165447D02*
X103437143Y-37355923D01*
X103437143Y-37355923D02*
X103394286Y-37451161D01*
X103394286Y-37451161D02*
X103308571Y-37546400D01*
X103308571Y-37546400D02*
X103180000Y-37594019D01*
X103180000Y-37594019D02*
X102965714Y-37594019D01*
X103651429Y-37689257D02*
X104337143Y-37689257D01*
X104508571Y-37546400D02*
X104637143Y-37594019D01*
X104637143Y-37594019D02*
X104851428Y-37594019D01*
X104851428Y-37594019D02*
X104937143Y-37546400D01*
X104937143Y-37546400D02*
X104980000Y-37498780D01*
X104980000Y-37498780D02*
X105022857Y-37403542D01*
X105022857Y-37403542D02*
X105022857Y-37308304D01*
X105022857Y-37308304D02*
X104980000Y-37213066D01*
X104980000Y-37213066D02*
X104937143Y-37165447D01*
X104937143Y-37165447D02*
X104851428Y-37117828D01*
X104851428Y-37117828D02*
X104680000Y-37070209D01*
X104680000Y-37070209D02*
X104594285Y-37022590D01*
X104594285Y-37022590D02*
X104551428Y-36974971D01*
X104551428Y-36974971D02*
X104508571Y-36879733D01*
X104508571Y-36879733D02*
X104508571Y-36784495D01*
X104508571Y-36784495D02*
X104551428Y-36689257D01*
X104551428Y-36689257D02*
X104594285Y-36641638D01*
X104594285Y-36641638D02*
X104680000Y-36594019D01*
X104680000Y-36594019D02*
X104894285Y-36594019D01*
X104894285Y-36594019D02*
X105022857Y-36641638D01*
X105408571Y-37594019D02*
X105408571Y-36594019D01*
X105408571Y-36594019D02*
X105708571Y-37308304D01*
X105708571Y-37308304D02*
X106008571Y-36594019D01*
X106008571Y-36594019D02*
X106008571Y-37594019D01*
X106437142Y-37594019D02*
X106437142Y-36594019D01*
X106437142Y-36594019D02*
X106651428Y-36594019D01*
X106651428Y-36594019D02*
X106779999Y-36641638D01*
X106779999Y-36641638D02*
X106865714Y-36736876D01*
X106865714Y-36736876D02*
X106908571Y-36832114D01*
X106908571Y-36832114D02*
X106951428Y-37022590D01*
X106951428Y-37022590D02*
X106951428Y-37165447D01*
X106951428Y-37165447D02*
X106908571Y-37355923D01*
X106908571Y-37355923D02*
X106865714Y-37451161D01*
X106865714Y-37451161D02*
X106779999Y-37546400D01*
X106779999Y-37546400D02*
X106651428Y-37594019D01*
X106651428Y-37594019D02*
X106437142Y-37594019D01*
D10*
X109567904Y-62094819D02*
X108996476Y-62094819D01*
X109282190Y-63094819D02*
X109282190Y-62094819D01*
X108710761Y-62190057D02*
X108663142Y-62142438D01*
X108663142Y-62142438D02*
X108567904Y-62094819D01*
X108567904Y-62094819D02*
X108329809Y-62094819D01*
X108329809Y-62094819D02*
X108234571Y-62142438D01*
X108234571Y-62142438D02*
X108186952Y-62190057D01*
X108186952Y-62190057D02*
X108139333Y-62285295D01*
X108139333Y-62285295D02*
X108139333Y-62380533D01*
X108139333Y-62380533D02*
X108186952Y-62523390D01*
X108186952Y-62523390D02*
X108758380Y-63094819D01*
X108758380Y-63094819D02*
X108139333Y-63094819D01*
X110653142Y-69511009D02*
X110510285Y-69558628D01*
X110510285Y-69558628D02*
X110462666Y-69606247D01*
X110462666Y-69606247D02*
X110415047Y-69701485D01*
X110415047Y-69701485D02*
X110415047Y-69844342D01*
X110415047Y-69844342D02*
X110462666Y-69939580D01*
X110462666Y-69939580D02*
X110510285Y-69987200D01*
X110510285Y-69987200D02*
X110605523Y-70034819D01*
X110605523Y-70034819D02*
X110986475Y-70034819D01*
X110986475Y-70034819D02*
X110986475Y-69034819D01*
X110986475Y-69034819D02*
X110653142Y-69034819D01*
X110653142Y-69034819D02*
X110557904Y-69082438D01*
X110557904Y-69082438D02*
X110510285Y-69130057D01*
X110510285Y-69130057D02*
X110462666Y-69225295D01*
X110462666Y-69225295D02*
X110462666Y-69320533D01*
X110462666Y-69320533D02*
X110510285Y-69415771D01*
X110510285Y-69415771D02*
X110557904Y-69463390D01*
X110557904Y-69463390D02*
X110653142Y-69511009D01*
X110653142Y-69511009D02*
X110986475Y-69511009D01*
X109415047Y-69939580D02*
X109462666Y-69987200D01*
X109462666Y-69987200D02*
X109605523Y-70034819D01*
X109605523Y-70034819D02*
X109700761Y-70034819D01*
X109700761Y-70034819D02*
X109843618Y-69987200D01*
X109843618Y-69987200D02*
X109938856Y-69891961D01*
X109938856Y-69891961D02*
X109986475Y-69796723D01*
X109986475Y-69796723D02*
X110034094Y-69606247D01*
X110034094Y-69606247D02*
X110034094Y-69463390D01*
X110034094Y-69463390D02*
X109986475Y-69272914D01*
X109986475Y-69272914D02*
X109938856Y-69177676D01*
X109938856Y-69177676D02*
X109843618Y-69082438D01*
X109843618Y-69082438D02*
X109700761Y-69034819D01*
X109700761Y-69034819D02*
X109605523Y-69034819D01*
X109605523Y-69034819D02*
X109462666Y-69082438D01*
X109462666Y-69082438D02*
X109415047Y-69130057D01*
X108510285Y-69034819D02*
X108986475Y-69034819D01*
X108986475Y-69034819D02*
X109034094Y-69511009D01*
X109034094Y-69511009D02*
X108986475Y-69463390D01*
X108986475Y-69463390D02*
X108891237Y-69415771D01*
X108891237Y-69415771D02*
X108653142Y-69415771D01*
X108653142Y-69415771D02*
X108557904Y-69463390D01*
X108557904Y-69463390D02*
X108510285Y-69511009D01*
X108510285Y-69511009D02*
X108462666Y-69606247D01*
X108462666Y-69606247D02*
X108462666Y-69844342D01*
X108462666Y-69844342D02*
X108510285Y-69939580D01*
X108510285Y-69939580D02*
X108557904Y-69987200D01*
X108557904Y-69987200D02*
X108653142Y-70034819D01*
X108653142Y-70034819D02*
X108891237Y-70034819D01*
X108891237Y-70034819D02*
X108986475Y-69987200D01*
X108986475Y-69987200D02*
X109034094Y-69939580D01*
X107605523Y-69368152D02*
X107605523Y-70034819D01*
X107843618Y-68987200D02*
X108081713Y-69701485D01*
X108081713Y-69701485D02*
X107462666Y-69701485D01*
X106938856Y-69463390D02*
X107034094Y-69415771D01*
X107034094Y-69415771D02*
X107081713Y-69368152D01*
X107081713Y-69368152D02*
X107129332Y-69272914D01*
X107129332Y-69272914D02*
X107129332Y-69225295D01*
X107129332Y-69225295D02*
X107081713Y-69130057D01*
X107081713Y-69130057D02*
X107034094Y-69082438D01*
X107034094Y-69082438D02*
X106938856Y-69034819D01*
X106938856Y-69034819D02*
X106748380Y-69034819D01*
X106748380Y-69034819D02*
X106653142Y-69082438D01*
X106653142Y-69082438D02*
X106605523Y-69130057D01*
X106605523Y-69130057D02*
X106557904Y-69225295D01*
X106557904Y-69225295D02*
X106557904Y-69272914D01*
X106557904Y-69272914D02*
X106605523Y-69368152D01*
X106605523Y-69368152D02*
X106653142Y-69415771D01*
X106653142Y-69415771D02*
X106748380Y-69463390D01*
X106748380Y-69463390D02*
X106938856Y-69463390D01*
X106938856Y-69463390D02*
X107034094Y-69511009D01*
X107034094Y-69511009D02*
X107081713Y-69558628D01*
X107081713Y-69558628D02*
X107129332Y-69653866D01*
X107129332Y-69653866D02*
X107129332Y-69844342D01*
X107129332Y-69844342D02*
X107081713Y-69939580D01*
X107081713Y-69939580D02*
X107034094Y-69987200D01*
X107034094Y-69987200D02*
X106938856Y-70034819D01*
X106938856Y-70034819D02*
X106748380Y-70034819D01*
X106748380Y-70034819D02*
X106653142Y-69987200D01*
X106653142Y-69987200D02*
X106605523Y-69939580D01*
X106605523Y-69939580D02*
X106557904Y-69844342D01*
X106557904Y-69844342D02*
X106557904Y-69653866D01*
X106557904Y-69653866D02*
X106605523Y-69558628D01*
X106605523Y-69558628D02*
X106653142Y-69511009D01*
X106653142Y-69511009D02*
X106748380Y-69463390D01*
X99957904Y-59654819D02*
X99386476Y-59654819D01*
X99672190Y-60654819D02*
X99672190Y-59654819D01*
X98529333Y-60654819D02*
X99100761Y-60654819D01*
X98815047Y-60654819D02*
X98815047Y-59654819D01*
X98815047Y-59654819D02*
X98910285Y-59797676D01*
X98910285Y-59797676D02*
X99005523Y-59892914D01*
X99005523Y-59892914D02*
X99100761Y-59940533D01*
X101043142Y-67071009D02*
X100900285Y-67118628D01*
X100900285Y-67118628D02*
X100852666Y-67166247D01*
X100852666Y-67166247D02*
X100805047Y-67261485D01*
X100805047Y-67261485D02*
X100805047Y-67404342D01*
X100805047Y-67404342D02*
X100852666Y-67499580D01*
X100852666Y-67499580D02*
X100900285Y-67547200D01*
X100900285Y-67547200D02*
X100995523Y-67594819D01*
X100995523Y-67594819D02*
X101376475Y-67594819D01*
X101376475Y-67594819D02*
X101376475Y-66594819D01*
X101376475Y-66594819D02*
X101043142Y-66594819D01*
X101043142Y-66594819D02*
X100947904Y-66642438D01*
X100947904Y-66642438D02*
X100900285Y-66690057D01*
X100900285Y-66690057D02*
X100852666Y-66785295D01*
X100852666Y-66785295D02*
X100852666Y-66880533D01*
X100852666Y-66880533D02*
X100900285Y-66975771D01*
X100900285Y-66975771D02*
X100947904Y-67023390D01*
X100947904Y-67023390D02*
X101043142Y-67071009D01*
X101043142Y-67071009D02*
X101376475Y-67071009D01*
X99805047Y-67499580D02*
X99852666Y-67547200D01*
X99852666Y-67547200D02*
X99995523Y-67594819D01*
X99995523Y-67594819D02*
X100090761Y-67594819D01*
X100090761Y-67594819D02*
X100233618Y-67547200D01*
X100233618Y-67547200D02*
X100328856Y-67451961D01*
X100328856Y-67451961D02*
X100376475Y-67356723D01*
X100376475Y-67356723D02*
X100424094Y-67166247D01*
X100424094Y-67166247D02*
X100424094Y-67023390D01*
X100424094Y-67023390D02*
X100376475Y-66832914D01*
X100376475Y-66832914D02*
X100328856Y-66737676D01*
X100328856Y-66737676D02*
X100233618Y-66642438D01*
X100233618Y-66642438D02*
X100090761Y-66594819D01*
X100090761Y-66594819D02*
X99995523Y-66594819D01*
X99995523Y-66594819D02*
X99852666Y-66642438D01*
X99852666Y-66642438D02*
X99805047Y-66690057D01*
X98900285Y-66594819D02*
X99376475Y-66594819D01*
X99376475Y-66594819D02*
X99424094Y-67071009D01*
X99424094Y-67071009D02*
X99376475Y-67023390D01*
X99376475Y-67023390D02*
X99281237Y-66975771D01*
X99281237Y-66975771D02*
X99043142Y-66975771D01*
X99043142Y-66975771D02*
X98947904Y-67023390D01*
X98947904Y-67023390D02*
X98900285Y-67071009D01*
X98900285Y-67071009D02*
X98852666Y-67166247D01*
X98852666Y-67166247D02*
X98852666Y-67404342D01*
X98852666Y-67404342D02*
X98900285Y-67499580D01*
X98900285Y-67499580D02*
X98947904Y-67547200D01*
X98947904Y-67547200D02*
X99043142Y-67594819D01*
X99043142Y-67594819D02*
X99281237Y-67594819D01*
X99281237Y-67594819D02*
X99376475Y-67547200D01*
X99376475Y-67547200D02*
X99424094Y-67499580D01*
X97995523Y-66928152D02*
X97995523Y-67594819D01*
X98233618Y-66547200D02*
X98471713Y-67261485D01*
X98471713Y-67261485D02*
X97852666Y-67261485D01*
X97328856Y-67023390D02*
X97424094Y-66975771D01*
X97424094Y-66975771D02*
X97471713Y-66928152D01*
X97471713Y-66928152D02*
X97519332Y-66832914D01*
X97519332Y-66832914D02*
X97519332Y-66785295D01*
X97519332Y-66785295D02*
X97471713Y-66690057D01*
X97471713Y-66690057D02*
X97424094Y-66642438D01*
X97424094Y-66642438D02*
X97328856Y-66594819D01*
X97328856Y-66594819D02*
X97138380Y-66594819D01*
X97138380Y-66594819D02*
X97043142Y-66642438D01*
X97043142Y-66642438D02*
X96995523Y-66690057D01*
X96995523Y-66690057D02*
X96947904Y-66785295D01*
X96947904Y-66785295D02*
X96947904Y-66832914D01*
X96947904Y-66832914D02*
X96995523Y-66928152D01*
X96995523Y-66928152D02*
X97043142Y-66975771D01*
X97043142Y-66975771D02*
X97138380Y-67023390D01*
X97138380Y-67023390D02*
X97328856Y-67023390D01*
X97328856Y-67023390D02*
X97424094Y-67071009D01*
X97424094Y-67071009D02*
X97471713Y-67118628D01*
X97471713Y-67118628D02*
X97519332Y-67213866D01*
X97519332Y-67213866D02*
X97519332Y-67404342D01*
X97519332Y-67404342D02*
X97471713Y-67499580D01*
X97471713Y-67499580D02*
X97424094Y-67547200D01*
X97424094Y-67547200D02*
X97328856Y-67594819D01*
X97328856Y-67594819D02*
X97138380Y-67594819D01*
X97138380Y-67594819D02*
X97043142Y-67547200D01*
X97043142Y-67547200D02*
X96995523Y-67499580D01*
X96995523Y-67499580D02*
X96947904Y-67404342D01*
X96947904Y-67404342D02*
X96947904Y-67213866D01*
X96947904Y-67213866D02*
X96995523Y-67118628D01*
X96995523Y-67118628D02*
X97043142Y-67071009D01*
X97043142Y-67071009D02*
X97138380Y-67023390D01*
X102236856Y-52206819D02*
X101665428Y-52206819D01*
X101951142Y-53206819D02*
X101951142Y-52206819D01*
X100808285Y-53206819D02*
X101379713Y-53206819D01*
X101093999Y-53206819D02*
X101093999Y-52206819D01*
X101093999Y-52206819D02*
X101189237Y-52349676D01*
X101189237Y-52349676D02*
X101284475Y-52444914D01*
X101284475Y-52444914D02*
X101379713Y-52492533D01*
X100617809Y-53302057D02*
X99855904Y-53302057D01*
X99284475Y-52683009D02*
X99141618Y-52730628D01*
X99141618Y-52730628D02*
X99093999Y-52778247D01*
X99093999Y-52778247D02*
X99046380Y-52873485D01*
X99046380Y-52873485D02*
X99046380Y-53016342D01*
X99046380Y-53016342D02*
X99093999Y-53111580D01*
X99093999Y-53111580D02*
X99141618Y-53159200D01*
X99141618Y-53159200D02*
X99236856Y-53206819D01*
X99236856Y-53206819D02*
X99617808Y-53206819D01*
X99617808Y-53206819D02*
X99617808Y-52206819D01*
X99617808Y-52206819D02*
X99284475Y-52206819D01*
X99284475Y-52206819D02*
X99189237Y-52254438D01*
X99189237Y-52254438D02*
X99141618Y-52302057D01*
X99141618Y-52302057D02*
X99093999Y-52397295D01*
X99093999Y-52397295D02*
X99093999Y-52492533D01*
X99093999Y-52492533D02*
X99141618Y-52587771D01*
X99141618Y-52587771D02*
X99189237Y-52635390D01*
X99189237Y-52635390D02*
X99284475Y-52683009D01*
X99284475Y-52683009D02*
X99617808Y-52683009D01*
X49921047Y-102578057D02*
X50016285Y-102530438D01*
X50016285Y-102530438D02*
X50111523Y-102435200D01*
X50111523Y-102435200D02*
X50254380Y-102292342D01*
X50254380Y-102292342D02*
X50349618Y-102244723D01*
X50349618Y-102244723D02*
X50444856Y-102244723D01*
X50397237Y-102482819D02*
X50492475Y-102435200D01*
X50492475Y-102435200D02*
X50587713Y-102339961D01*
X50587713Y-102339961D02*
X50635332Y-102149485D01*
X50635332Y-102149485D02*
X50635332Y-101816152D01*
X50635332Y-101816152D02*
X50587713Y-101625676D01*
X50587713Y-101625676D02*
X50492475Y-101530438D01*
X50492475Y-101530438D02*
X50397237Y-101482819D01*
X50397237Y-101482819D02*
X50206761Y-101482819D01*
X50206761Y-101482819D02*
X50111523Y-101530438D01*
X50111523Y-101530438D02*
X50016285Y-101625676D01*
X50016285Y-101625676D02*
X49968666Y-101816152D01*
X49968666Y-101816152D02*
X49968666Y-102149485D01*
X49968666Y-102149485D02*
X50016285Y-102339961D01*
X50016285Y-102339961D02*
X50111523Y-102435200D01*
X50111523Y-102435200D02*
X50206761Y-102482819D01*
X50206761Y-102482819D02*
X50397237Y-102482819D01*
X117167332Y-45094819D02*
X116833999Y-46094819D01*
X116833999Y-46094819D02*
X116500666Y-45094819D01*
X115595904Y-45999580D02*
X115643523Y-46047200D01*
X115643523Y-46047200D02*
X115786380Y-46094819D01*
X115786380Y-46094819D02*
X115881618Y-46094819D01*
X115881618Y-46094819D02*
X116024475Y-46047200D01*
X116024475Y-46047200D02*
X116119713Y-45951961D01*
X116119713Y-45951961D02*
X116167332Y-45856723D01*
X116167332Y-45856723D02*
X116214951Y-45666247D01*
X116214951Y-45666247D02*
X116214951Y-45523390D01*
X116214951Y-45523390D02*
X116167332Y-45332914D01*
X116167332Y-45332914D02*
X116119713Y-45237676D01*
X116119713Y-45237676D02*
X116024475Y-45142438D01*
X116024475Y-45142438D02*
X115881618Y-45094819D01*
X115881618Y-45094819D02*
X115786380Y-45094819D01*
X115786380Y-45094819D02*
X115643523Y-45142438D01*
X115643523Y-45142438D02*
X115595904Y-45190057D01*
X114595904Y-45999580D02*
X114643523Y-46047200D01*
X114643523Y-46047200D02*
X114786380Y-46094819D01*
X114786380Y-46094819D02*
X114881618Y-46094819D01*
X114881618Y-46094819D02*
X115024475Y-46047200D01*
X115024475Y-46047200D02*
X115119713Y-45951961D01*
X115119713Y-45951961D02*
X115167332Y-45856723D01*
X115167332Y-45856723D02*
X115214951Y-45666247D01*
X115214951Y-45666247D02*
X115214951Y-45523390D01*
X115214951Y-45523390D02*
X115167332Y-45332914D01*
X115167332Y-45332914D02*
X115119713Y-45237676D01*
X115119713Y-45237676D02*
X115024475Y-45142438D01*
X115024475Y-45142438D02*
X114881618Y-45094819D01*
X114881618Y-45094819D02*
X114786380Y-45094819D01*
X114786380Y-45094819D02*
X114643523Y-45142438D01*
X114643523Y-45142438D02*
X114595904Y-45190057D01*
X85500666Y-65893580D02*
X85548285Y-65941200D01*
X85548285Y-65941200D02*
X85691142Y-65988819D01*
X85691142Y-65988819D02*
X85786380Y-65988819D01*
X85786380Y-65988819D02*
X85929237Y-65941200D01*
X85929237Y-65941200D02*
X86024475Y-65845961D01*
X86024475Y-65845961D02*
X86072094Y-65750723D01*
X86072094Y-65750723D02*
X86119713Y-65560247D01*
X86119713Y-65560247D02*
X86119713Y-65417390D01*
X86119713Y-65417390D02*
X86072094Y-65226914D01*
X86072094Y-65226914D02*
X86024475Y-65131676D01*
X86024475Y-65131676D02*
X85929237Y-65036438D01*
X85929237Y-65036438D02*
X85786380Y-64988819D01*
X85786380Y-64988819D02*
X85691142Y-64988819D01*
X85691142Y-64988819D02*
X85548285Y-65036438D01*
X85548285Y-65036438D02*
X85500666Y-65084057D01*
X84548285Y-65988819D02*
X85119713Y-65988819D01*
X84833999Y-65988819D02*
X84833999Y-64988819D01*
X84833999Y-64988819D02*
X84929237Y-65131676D01*
X84929237Y-65131676D02*
X85024475Y-65226914D01*
X85024475Y-65226914D02*
X85119713Y-65274533D01*
X87453047Y-56284057D02*
X87405428Y-56236438D01*
X87405428Y-56236438D02*
X87310190Y-56188819D01*
X87310190Y-56188819D02*
X87072095Y-56188819D01*
X87072095Y-56188819D02*
X86976857Y-56236438D01*
X86976857Y-56236438D02*
X86929238Y-56284057D01*
X86929238Y-56284057D02*
X86881619Y-56379295D01*
X86881619Y-56379295D02*
X86881619Y-56474533D01*
X86881619Y-56474533D02*
X86929238Y-56617390D01*
X86929238Y-56617390D02*
X87500666Y-57188819D01*
X87500666Y-57188819D02*
X86881619Y-57188819D01*
X86500666Y-56284057D02*
X86453047Y-56236438D01*
X86453047Y-56236438D02*
X86357809Y-56188819D01*
X86357809Y-56188819D02*
X86119714Y-56188819D01*
X86119714Y-56188819D02*
X86024476Y-56236438D01*
X86024476Y-56236438D02*
X85976857Y-56284057D01*
X85976857Y-56284057D02*
X85929238Y-56379295D01*
X85929238Y-56379295D02*
X85929238Y-56474533D01*
X85929238Y-56474533D02*
X85976857Y-56617390D01*
X85976857Y-56617390D02*
X86548285Y-57188819D01*
X86548285Y-57188819D02*
X85929238Y-57188819D01*
X85310190Y-56188819D02*
X85214952Y-56188819D01*
X85214952Y-56188819D02*
X85119714Y-56236438D01*
X85119714Y-56236438D02*
X85072095Y-56284057D01*
X85072095Y-56284057D02*
X85024476Y-56379295D01*
X85024476Y-56379295D02*
X84976857Y-56569771D01*
X84976857Y-56569771D02*
X84976857Y-56807866D01*
X84976857Y-56807866D02*
X85024476Y-56998342D01*
X85024476Y-56998342D02*
X85072095Y-57093580D01*
X85072095Y-57093580D02*
X85119714Y-57141200D01*
X85119714Y-57141200D02*
X85214952Y-57188819D01*
X85214952Y-57188819D02*
X85310190Y-57188819D01*
X85310190Y-57188819D02*
X85405428Y-57141200D01*
X85405428Y-57141200D02*
X85453047Y-57093580D01*
X85453047Y-57093580D02*
X85500666Y-56998342D01*
X85500666Y-56998342D02*
X85548285Y-56807866D01*
X85548285Y-56807866D02*
X85548285Y-56569771D01*
X85548285Y-56569771D02*
X85500666Y-56379295D01*
X85500666Y-56379295D02*
X85453047Y-56284057D01*
X85453047Y-56284057D02*
X85405428Y-56236438D01*
X85405428Y-56236438D02*
X85310190Y-56188819D01*
X84119714Y-56522152D02*
X84119714Y-57188819D01*
X84548285Y-56522152D02*
X84548285Y-57045961D01*
X84548285Y-57045961D02*
X84500666Y-57141200D01*
X84500666Y-57141200D02*
X84405428Y-57188819D01*
X84405428Y-57188819D02*
X84262571Y-57188819D01*
X84262571Y-57188819D02*
X84167333Y-57141200D01*
X84167333Y-57141200D02*
X84119714Y-57093580D01*
X83310190Y-56665009D02*
X83643523Y-56665009D01*
X83643523Y-57188819D02*
X83643523Y-56188819D01*
X83643523Y-56188819D02*
X83167333Y-56188819D01*
X53802094Y-72866819D02*
X53802094Y-71866819D01*
X53802094Y-71866819D02*
X53421142Y-71866819D01*
X53421142Y-71866819D02*
X53325904Y-71914438D01*
X53325904Y-71914438D02*
X53278285Y-71962057D01*
X53278285Y-71962057D02*
X53230666Y-72057295D01*
X53230666Y-72057295D02*
X53230666Y-72200152D01*
X53230666Y-72200152D02*
X53278285Y-72295390D01*
X53278285Y-72295390D02*
X53325904Y-72343009D01*
X53325904Y-72343009D02*
X53421142Y-72390628D01*
X53421142Y-72390628D02*
X53802094Y-72390628D01*
X52278285Y-72866819D02*
X52849713Y-72866819D01*
X52563999Y-72866819D02*
X52563999Y-71866819D01*
X52563999Y-71866819D02*
X52659237Y-72009676D01*
X52659237Y-72009676D02*
X52754475Y-72104914D01*
X52754475Y-72104914D02*
X52849713Y-72152533D01*
X54199238Y-78352819D02*
X54770666Y-78352819D01*
X54484952Y-78352819D02*
X54484952Y-77352819D01*
X54484952Y-77352819D02*
X54580190Y-77495676D01*
X54580190Y-77495676D02*
X54675428Y-77590914D01*
X54675428Y-77590914D02*
X54770666Y-77638533D01*
X53580190Y-77352819D02*
X53484952Y-77352819D01*
X53484952Y-77352819D02*
X53389714Y-77400438D01*
X53389714Y-77400438D02*
X53342095Y-77448057D01*
X53342095Y-77448057D02*
X53294476Y-77543295D01*
X53294476Y-77543295D02*
X53246857Y-77733771D01*
X53246857Y-77733771D02*
X53246857Y-77971866D01*
X53246857Y-77971866D02*
X53294476Y-78162342D01*
X53294476Y-78162342D02*
X53342095Y-78257580D01*
X53342095Y-78257580D02*
X53389714Y-78305200D01*
X53389714Y-78305200D02*
X53484952Y-78352819D01*
X53484952Y-78352819D02*
X53580190Y-78352819D01*
X53580190Y-78352819D02*
X53675428Y-78305200D01*
X53675428Y-78305200D02*
X53723047Y-78257580D01*
X53723047Y-78257580D02*
X53770666Y-78162342D01*
X53770666Y-78162342D02*
X53818285Y-77971866D01*
X53818285Y-77971866D02*
X53818285Y-77733771D01*
X53818285Y-77733771D02*
X53770666Y-77543295D01*
X53770666Y-77543295D02*
X53723047Y-77448057D01*
X53723047Y-77448057D02*
X53675428Y-77400438D01*
X53675428Y-77400438D02*
X53580190Y-77352819D01*
X52818285Y-78352819D02*
X52818285Y-77352819D01*
X52723047Y-77971866D02*
X52437333Y-78352819D01*
X52437333Y-77686152D02*
X52818285Y-78067104D01*
X68312094Y-95878819D02*
X68312094Y-94878819D01*
X68312094Y-94878819D02*
X68073999Y-94878819D01*
X68073999Y-94878819D02*
X67931142Y-94926438D01*
X67931142Y-94926438D02*
X67835904Y-95021676D01*
X67835904Y-95021676D02*
X67788285Y-95116914D01*
X67788285Y-95116914D02*
X67740666Y-95307390D01*
X67740666Y-95307390D02*
X67740666Y-95450247D01*
X67740666Y-95450247D02*
X67788285Y-95640723D01*
X67788285Y-95640723D02*
X67835904Y-95735961D01*
X67835904Y-95735961D02*
X67931142Y-95831200D01*
X67931142Y-95831200D02*
X68073999Y-95878819D01*
X68073999Y-95878819D02*
X68312094Y-95878819D01*
X67407332Y-94878819D02*
X66788285Y-94878819D01*
X66788285Y-94878819D02*
X67121618Y-95259771D01*
X67121618Y-95259771D02*
X66978761Y-95259771D01*
X66978761Y-95259771D02*
X66883523Y-95307390D01*
X66883523Y-95307390D02*
X66835904Y-95355009D01*
X66835904Y-95355009D02*
X66788285Y-95450247D01*
X66788285Y-95450247D02*
X66788285Y-95688342D01*
X66788285Y-95688342D02*
X66835904Y-95783580D01*
X66835904Y-95783580D02*
X66883523Y-95831200D01*
X66883523Y-95831200D02*
X66978761Y-95878819D01*
X66978761Y-95878819D02*
X67264475Y-95878819D01*
X67264475Y-95878819D02*
X67359713Y-95831200D01*
X67359713Y-95831200D02*
X67407332Y-95783580D01*
X69983857Y-93592819D02*
X70555285Y-93592819D01*
X70269571Y-93592819D02*
X70269571Y-92592819D01*
X70269571Y-92592819D02*
X70364809Y-92735676D01*
X70364809Y-92735676D02*
X70460047Y-92830914D01*
X70460047Y-92830914D02*
X70555285Y-92878533D01*
X69555285Y-93592819D02*
X69555285Y-92592819D01*
X69555285Y-92592819D02*
X68983857Y-93592819D01*
X68983857Y-93592819D02*
X68983857Y-92592819D01*
X68079095Y-92926152D02*
X68079095Y-93592819D01*
X68317190Y-92545200D02*
X68555285Y-93259485D01*
X68555285Y-93259485D02*
X67936238Y-93259485D01*
X67031476Y-93592819D02*
X67602904Y-93592819D01*
X67317190Y-93592819D02*
X67317190Y-92592819D01*
X67317190Y-92592819D02*
X67412428Y-92735676D01*
X67412428Y-92735676D02*
X67507666Y-92830914D01*
X67507666Y-92830914D02*
X67602904Y-92878533D01*
X66174333Y-92926152D02*
X66174333Y-93592819D01*
X66412428Y-92545200D02*
X66650523Y-93259485D01*
X66650523Y-93259485D02*
X66031476Y-93259485D01*
X65507666Y-93021390D02*
X65602904Y-92973771D01*
X65602904Y-92973771D02*
X65650523Y-92926152D01*
X65650523Y-92926152D02*
X65698142Y-92830914D01*
X65698142Y-92830914D02*
X65698142Y-92783295D01*
X65698142Y-92783295D02*
X65650523Y-92688057D01*
X65650523Y-92688057D02*
X65602904Y-92640438D01*
X65602904Y-92640438D02*
X65507666Y-92592819D01*
X65507666Y-92592819D02*
X65317190Y-92592819D01*
X65317190Y-92592819D02*
X65221952Y-92640438D01*
X65221952Y-92640438D02*
X65174333Y-92688057D01*
X65174333Y-92688057D02*
X65126714Y-92783295D01*
X65126714Y-92783295D02*
X65126714Y-92830914D01*
X65126714Y-92830914D02*
X65174333Y-92926152D01*
X65174333Y-92926152D02*
X65221952Y-92973771D01*
X65221952Y-92973771D02*
X65317190Y-93021390D01*
X65317190Y-93021390D02*
X65507666Y-93021390D01*
X65507666Y-93021390D02*
X65602904Y-93069009D01*
X65602904Y-93069009D02*
X65650523Y-93116628D01*
X65650523Y-93116628D02*
X65698142Y-93211866D01*
X65698142Y-93211866D02*
X65698142Y-93402342D01*
X65698142Y-93402342D02*
X65650523Y-93497580D01*
X65650523Y-93497580D02*
X65602904Y-93545200D01*
X65602904Y-93545200D02*
X65507666Y-93592819D01*
X65507666Y-93592819D02*
X65317190Y-93592819D01*
X65317190Y-93592819D02*
X65221952Y-93545200D01*
X65221952Y-93545200D02*
X65174333Y-93497580D01*
X65174333Y-93497580D02*
X65126714Y-93402342D01*
X65126714Y-93402342D02*
X65126714Y-93211866D01*
X65126714Y-93211866D02*
X65174333Y-93116628D01*
X65174333Y-93116628D02*
X65221952Y-93069009D01*
X65221952Y-93069009D02*
X65317190Y-93021390D01*
X74185904Y-95878819D02*
X74185904Y-94878819D01*
X73614476Y-95878819D02*
X74043047Y-95307390D01*
X73614476Y-94878819D02*
X74185904Y-95450247D01*
X66724666Y-77336819D02*
X67057999Y-76860628D01*
X67296094Y-77336819D02*
X67296094Y-76336819D01*
X67296094Y-76336819D02*
X66915142Y-76336819D01*
X66915142Y-76336819D02*
X66819904Y-76384438D01*
X66819904Y-76384438D02*
X66772285Y-76432057D01*
X66772285Y-76432057D02*
X66724666Y-76527295D01*
X66724666Y-76527295D02*
X66724666Y-76670152D01*
X66724666Y-76670152D02*
X66772285Y-76765390D01*
X66772285Y-76765390D02*
X66819904Y-76813009D01*
X66819904Y-76813009D02*
X66915142Y-76860628D01*
X66915142Y-76860628D02*
X67296094Y-76860628D01*
X65867523Y-76670152D02*
X65867523Y-77336819D01*
X66105618Y-76289200D02*
X66343713Y-77003485D01*
X66343713Y-77003485D02*
X65724666Y-77003485D01*
X67994475Y-74050819D02*
X67375428Y-74050819D01*
X67375428Y-74050819D02*
X67708761Y-74431771D01*
X67708761Y-74431771D02*
X67565904Y-74431771D01*
X67565904Y-74431771D02*
X67470666Y-74479390D01*
X67470666Y-74479390D02*
X67423047Y-74527009D01*
X67423047Y-74527009D02*
X67375428Y-74622247D01*
X67375428Y-74622247D02*
X67375428Y-74860342D01*
X67375428Y-74860342D02*
X67423047Y-74955580D01*
X67423047Y-74955580D02*
X67470666Y-75003200D01*
X67470666Y-75003200D02*
X67565904Y-75050819D01*
X67565904Y-75050819D02*
X67851618Y-75050819D01*
X67851618Y-75050819D02*
X67946856Y-75003200D01*
X67946856Y-75003200D02*
X67994475Y-74955580D01*
X66899237Y-75050819D02*
X66708761Y-75050819D01*
X66708761Y-75050819D02*
X66613523Y-75003200D01*
X66613523Y-75003200D02*
X66565904Y-74955580D01*
X66565904Y-74955580D02*
X66470666Y-74812723D01*
X66470666Y-74812723D02*
X66423047Y-74622247D01*
X66423047Y-74622247D02*
X66423047Y-74241295D01*
X66423047Y-74241295D02*
X66470666Y-74146057D01*
X66470666Y-74146057D02*
X66518285Y-74098438D01*
X66518285Y-74098438D02*
X66613523Y-74050819D01*
X66613523Y-74050819D02*
X66803999Y-74050819D01*
X66803999Y-74050819D02*
X66899237Y-74098438D01*
X66899237Y-74098438D02*
X66946856Y-74146057D01*
X66946856Y-74146057D02*
X66994475Y-74241295D01*
X66994475Y-74241295D02*
X66994475Y-74479390D01*
X66994475Y-74479390D02*
X66946856Y-74574628D01*
X66946856Y-74574628D02*
X66899237Y-74622247D01*
X66899237Y-74622247D02*
X66803999Y-74669866D01*
X66803999Y-74669866D02*
X66613523Y-74669866D01*
X66613523Y-74669866D02*
X66518285Y-74622247D01*
X66518285Y-74622247D02*
X66470666Y-74574628D01*
X66470666Y-74574628D02*
X66423047Y-74479390D01*
X65803999Y-74050819D02*
X65708761Y-74050819D01*
X65708761Y-74050819D02*
X65613523Y-74098438D01*
X65613523Y-74098438D02*
X65565904Y-74146057D01*
X65565904Y-74146057D02*
X65518285Y-74241295D01*
X65518285Y-74241295D02*
X65470666Y-74431771D01*
X65470666Y-74431771D02*
X65470666Y-74669866D01*
X65470666Y-74669866D02*
X65518285Y-74860342D01*
X65518285Y-74860342D02*
X65565904Y-74955580D01*
X65565904Y-74955580D02*
X65613523Y-75003200D01*
X65613523Y-75003200D02*
X65708761Y-75050819D01*
X65708761Y-75050819D02*
X65803999Y-75050819D01*
X65803999Y-75050819D02*
X65899237Y-75003200D01*
X65899237Y-75003200D02*
X65946856Y-74955580D01*
X65946856Y-74955580D02*
X65994475Y-74860342D01*
X65994475Y-74860342D02*
X66042094Y-74669866D01*
X66042094Y-74669866D02*
X66042094Y-74431771D01*
X66042094Y-74431771D02*
X65994475Y-74241295D01*
X65994475Y-74241295D02*
X65946856Y-74146057D01*
X65946856Y-74146057D02*
X65899237Y-74098438D01*
X65899237Y-74098438D02*
X65803999Y-74050819D01*
X65042094Y-75050819D02*
X65042094Y-74050819D01*
X64946856Y-74669866D02*
X64661142Y-75050819D01*
X64661142Y-74384152D02*
X65042094Y-74765104D01*
X66724666Y-83686819D02*
X67057999Y-83210628D01*
X67296094Y-83686819D02*
X67296094Y-82686819D01*
X67296094Y-82686819D02*
X66915142Y-82686819D01*
X66915142Y-82686819D02*
X66819904Y-82734438D01*
X66819904Y-82734438D02*
X66772285Y-82782057D01*
X66772285Y-82782057D02*
X66724666Y-82877295D01*
X66724666Y-82877295D02*
X66724666Y-83020152D01*
X66724666Y-83020152D02*
X66772285Y-83115390D01*
X66772285Y-83115390D02*
X66819904Y-83163009D01*
X66819904Y-83163009D02*
X66915142Y-83210628D01*
X66915142Y-83210628D02*
X67296094Y-83210628D01*
X65819904Y-82686819D02*
X66296094Y-82686819D01*
X66296094Y-82686819D02*
X66343713Y-83163009D01*
X66343713Y-83163009D02*
X66296094Y-83115390D01*
X66296094Y-83115390D02*
X66200856Y-83067771D01*
X66200856Y-83067771D02*
X65962761Y-83067771D01*
X65962761Y-83067771D02*
X65867523Y-83115390D01*
X65867523Y-83115390D02*
X65819904Y-83163009D01*
X65819904Y-83163009D02*
X65772285Y-83258247D01*
X65772285Y-83258247D02*
X65772285Y-83496342D01*
X65772285Y-83496342D02*
X65819904Y-83591580D01*
X65819904Y-83591580D02*
X65867523Y-83639200D01*
X65867523Y-83639200D02*
X65962761Y-83686819D01*
X65962761Y-83686819D02*
X66200856Y-83686819D01*
X66200856Y-83686819D02*
X66296094Y-83639200D01*
X66296094Y-83639200D02*
X66343713Y-83591580D01*
X67248476Y-80480152D02*
X67248476Y-81146819D01*
X67486571Y-80099200D02*
X67724666Y-80813485D01*
X67724666Y-80813485D02*
X67105619Y-80813485D01*
X66724666Y-81146819D02*
X66724666Y-80146819D01*
X66629428Y-80765866D02*
X66343714Y-81146819D01*
X66343714Y-80480152D02*
X66724666Y-80861104D01*
X66010380Y-80146819D02*
X65343714Y-80146819D01*
X65343714Y-80146819D02*
X65772285Y-81146819D01*
X66724666Y-89782819D02*
X67057999Y-89306628D01*
X67296094Y-89782819D02*
X67296094Y-88782819D01*
X67296094Y-88782819D02*
X66915142Y-88782819D01*
X66915142Y-88782819D02*
X66819904Y-88830438D01*
X66819904Y-88830438D02*
X66772285Y-88878057D01*
X66772285Y-88878057D02*
X66724666Y-88973295D01*
X66724666Y-88973295D02*
X66724666Y-89116152D01*
X66724666Y-89116152D02*
X66772285Y-89211390D01*
X66772285Y-89211390D02*
X66819904Y-89259009D01*
X66819904Y-89259009D02*
X66915142Y-89306628D01*
X66915142Y-89306628D02*
X67296094Y-89306628D01*
X65867523Y-88782819D02*
X66057999Y-88782819D01*
X66057999Y-88782819D02*
X66153237Y-88830438D01*
X66153237Y-88830438D02*
X66200856Y-88878057D01*
X66200856Y-88878057D02*
X66296094Y-89020914D01*
X66296094Y-89020914D02*
X66343713Y-89211390D01*
X66343713Y-89211390D02*
X66343713Y-89592342D01*
X66343713Y-89592342D02*
X66296094Y-89687580D01*
X66296094Y-89687580D02*
X66248475Y-89735200D01*
X66248475Y-89735200D02*
X66153237Y-89782819D01*
X66153237Y-89782819D02*
X65962761Y-89782819D01*
X65962761Y-89782819D02*
X65867523Y-89735200D01*
X65867523Y-89735200D02*
X65819904Y-89687580D01*
X65819904Y-89687580D02*
X65772285Y-89592342D01*
X65772285Y-89592342D02*
X65772285Y-89354247D01*
X65772285Y-89354247D02*
X65819904Y-89259009D01*
X65819904Y-89259009D02*
X65867523Y-89211390D01*
X65867523Y-89211390D02*
X65962761Y-89163771D01*
X65962761Y-89163771D02*
X66153237Y-89163771D01*
X66153237Y-89163771D02*
X66248475Y-89211390D01*
X66248475Y-89211390D02*
X66296094Y-89259009D01*
X66296094Y-89259009D02*
X66343713Y-89354247D01*
X67248476Y-87242819D02*
X67819904Y-87242819D01*
X67534190Y-87242819D02*
X67534190Y-86242819D01*
X67534190Y-86242819D02*
X67629428Y-86385676D01*
X67629428Y-86385676D02*
X67724666Y-86480914D01*
X67724666Y-86480914D02*
X67819904Y-86528533D01*
X66629428Y-86242819D02*
X66534190Y-86242819D01*
X66534190Y-86242819D02*
X66438952Y-86290438D01*
X66438952Y-86290438D02*
X66391333Y-86338057D01*
X66391333Y-86338057D02*
X66343714Y-86433295D01*
X66343714Y-86433295D02*
X66296095Y-86623771D01*
X66296095Y-86623771D02*
X66296095Y-86861866D01*
X66296095Y-86861866D02*
X66343714Y-87052342D01*
X66343714Y-87052342D02*
X66391333Y-87147580D01*
X66391333Y-87147580D02*
X66438952Y-87195200D01*
X66438952Y-87195200D02*
X66534190Y-87242819D01*
X66534190Y-87242819D02*
X66629428Y-87242819D01*
X66629428Y-87242819D02*
X66724666Y-87195200D01*
X66724666Y-87195200D02*
X66772285Y-87147580D01*
X66772285Y-87147580D02*
X66819904Y-87052342D01*
X66819904Y-87052342D02*
X66867523Y-86861866D01*
X66867523Y-86861866D02*
X66867523Y-86623771D01*
X66867523Y-86623771D02*
X66819904Y-86433295D01*
X66819904Y-86433295D02*
X66772285Y-86338057D01*
X66772285Y-86338057D02*
X66724666Y-86290438D01*
X66724666Y-86290438D02*
X66629428Y-86242819D01*
X65296095Y-87242819D02*
X65629428Y-86766628D01*
X65867523Y-87242819D02*
X65867523Y-86242819D01*
X65867523Y-86242819D02*
X65486571Y-86242819D01*
X65486571Y-86242819D02*
X65391333Y-86290438D01*
X65391333Y-86290438D02*
X65343714Y-86338057D01*
X65343714Y-86338057D02*
X65296095Y-86433295D01*
X65296095Y-86433295D02*
X65296095Y-86576152D01*
X65296095Y-86576152D02*
X65343714Y-86671390D01*
X65343714Y-86671390D02*
X65391333Y-86719009D01*
X65391333Y-86719009D02*
X65486571Y-86766628D01*
X65486571Y-86766628D02*
X65867523Y-86766628D01*
X50702904Y-86274819D02*
X50702904Y-87084342D01*
X50702904Y-87084342D02*
X50655285Y-87179580D01*
X50655285Y-87179580D02*
X50607666Y-87227200D01*
X50607666Y-87227200D02*
X50512428Y-87274819D01*
X50512428Y-87274819D02*
X50321952Y-87274819D01*
X50321952Y-87274819D02*
X50226714Y-87227200D01*
X50226714Y-87227200D02*
X50179095Y-87179580D01*
X50179095Y-87179580D02*
X50131476Y-87084342D01*
X50131476Y-87084342D02*
X50131476Y-86274819D01*
X49131476Y-87274819D02*
X49702904Y-87274819D01*
X49417190Y-87274819D02*
X49417190Y-86274819D01*
X49417190Y-86274819D02*
X49512428Y-86417676D01*
X49512428Y-86417676D02*
X49607666Y-86512914D01*
X49607666Y-86512914D02*
X49702904Y-86560533D01*
X52714666Y-95668819D02*
X52714666Y-94668819D01*
X52714666Y-94668819D02*
X52143238Y-95668819D01*
X52143238Y-95668819D02*
X52143238Y-94668819D01*
X51667047Y-95145009D02*
X51333714Y-95145009D01*
X51190857Y-95668819D02*
X51667047Y-95668819D01*
X51667047Y-95668819D02*
X51667047Y-94668819D01*
X51667047Y-94668819D02*
X51190857Y-94668819D01*
X50286095Y-94668819D02*
X50762285Y-94668819D01*
X50762285Y-94668819D02*
X50809904Y-95145009D01*
X50809904Y-95145009D02*
X50762285Y-95097390D01*
X50762285Y-95097390D02*
X50667047Y-95049771D01*
X50667047Y-95049771D02*
X50428952Y-95049771D01*
X50428952Y-95049771D02*
X50333714Y-95097390D01*
X50333714Y-95097390D02*
X50286095Y-95145009D01*
X50286095Y-95145009D02*
X50238476Y-95240247D01*
X50238476Y-95240247D02*
X50238476Y-95478342D01*
X50238476Y-95478342D02*
X50286095Y-95573580D01*
X50286095Y-95573580D02*
X50333714Y-95621200D01*
X50333714Y-95621200D02*
X50428952Y-95668819D01*
X50428952Y-95668819D02*
X50667047Y-95668819D01*
X50667047Y-95668819D02*
X50762285Y-95621200D01*
X50762285Y-95621200D02*
X50809904Y-95573580D01*
X49333714Y-94668819D02*
X49809904Y-94668819D01*
X49809904Y-94668819D02*
X49857523Y-95145009D01*
X49857523Y-95145009D02*
X49809904Y-95097390D01*
X49809904Y-95097390D02*
X49714666Y-95049771D01*
X49714666Y-95049771D02*
X49476571Y-95049771D01*
X49476571Y-95049771D02*
X49381333Y-95097390D01*
X49381333Y-95097390D02*
X49333714Y-95145009D01*
X49333714Y-95145009D02*
X49286095Y-95240247D01*
X49286095Y-95240247D02*
X49286095Y-95478342D01*
X49286095Y-95478342D02*
X49333714Y-95573580D01*
X49333714Y-95573580D02*
X49381333Y-95621200D01*
X49381333Y-95621200D02*
X49476571Y-95668819D01*
X49476571Y-95668819D02*
X49714666Y-95668819D01*
X49714666Y-95668819D02*
X49809904Y-95621200D01*
X49809904Y-95621200D02*
X49857523Y-95573580D01*
X48381333Y-94668819D02*
X48857523Y-94668819D01*
X48857523Y-94668819D02*
X48905142Y-95145009D01*
X48905142Y-95145009D02*
X48857523Y-95097390D01*
X48857523Y-95097390D02*
X48762285Y-95049771D01*
X48762285Y-95049771D02*
X48524190Y-95049771D01*
X48524190Y-95049771D02*
X48428952Y-95097390D01*
X48428952Y-95097390D02*
X48381333Y-95145009D01*
X48381333Y-95145009D02*
X48333714Y-95240247D01*
X48333714Y-95240247D02*
X48333714Y-95478342D01*
X48333714Y-95478342D02*
X48381333Y-95573580D01*
X48381333Y-95573580D02*
X48428952Y-95621200D01*
X48428952Y-95621200D02*
X48524190Y-95668819D01*
X48524190Y-95668819D02*
X48762285Y-95668819D01*
X48762285Y-95668819D02*
X48857523Y-95621200D01*
X48857523Y-95621200D02*
X48905142Y-95573580D01*
X47905142Y-95668819D02*
X47905142Y-94668819D01*
X47905142Y-94668819D02*
X47524190Y-94668819D01*
X47524190Y-94668819D02*
X47428952Y-94716438D01*
X47428952Y-94716438D02*
X47381333Y-94764057D01*
X47381333Y-94764057D02*
X47333714Y-94859295D01*
X47333714Y-94859295D02*
X47333714Y-95002152D01*
X47333714Y-95002152D02*
X47381333Y-95097390D01*
X47381333Y-95097390D02*
X47428952Y-95145009D01*
X47428952Y-95145009D02*
X47524190Y-95192628D01*
X47524190Y-95192628D02*
X47905142Y-95192628D01*
X66724666Y-71240819D02*
X67057999Y-70764628D01*
X67296094Y-71240819D02*
X67296094Y-70240819D01*
X67296094Y-70240819D02*
X66915142Y-70240819D01*
X66915142Y-70240819D02*
X66819904Y-70288438D01*
X66819904Y-70288438D02*
X66772285Y-70336057D01*
X66772285Y-70336057D02*
X66724666Y-70431295D01*
X66724666Y-70431295D02*
X66724666Y-70574152D01*
X66724666Y-70574152D02*
X66772285Y-70669390D01*
X66772285Y-70669390D02*
X66819904Y-70717009D01*
X66819904Y-70717009D02*
X66915142Y-70764628D01*
X66915142Y-70764628D02*
X67296094Y-70764628D01*
X66391332Y-70240819D02*
X65772285Y-70240819D01*
X65772285Y-70240819D02*
X66105618Y-70621771D01*
X66105618Y-70621771D02*
X65962761Y-70621771D01*
X65962761Y-70621771D02*
X65867523Y-70669390D01*
X65867523Y-70669390D02*
X65819904Y-70717009D01*
X65819904Y-70717009D02*
X65772285Y-70812247D01*
X65772285Y-70812247D02*
X65772285Y-71050342D01*
X65772285Y-71050342D02*
X65819904Y-71145580D01*
X65819904Y-71145580D02*
X65867523Y-71193200D01*
X65867523Y-71193200D02*
X65962761Y-71240819D01*
X65962761Y-71240819D02*
X66248475Y-71240819D01*
X66248475Y-71240819D02*
X66343713Y-71193200D01*
X66343713Y-71193200D02*
X66391332Y-71145580D01*
X67677047Y-67700819D02*
X68153237Y-67700819D01*
X68153237Y-67700819D02*
X68200856Y-68177009D01*
X68200856Y-68177009D02*
X68153237Y-68129390D01*
X68153237Y-68129390D02*
X68057999Y-68081771D01*
X68057999Y-68081771D02*
X67819904Y-68081771D01*
X67819904Y-68081771D02*
X67724666Y-68129390D01*
X67724666Y-68129390D02*
X67677047Y-68177009D01*
X67677047Y-68177009D02*
X67629428Y-68272247D01*
X67629428Y-68272247D02*
X67629428Y-68510342D01*
X67629428Y-68510342D02*
X67677047Y-68605580D01*
X67677047Y-68605580D02*
X67724666Y-68653200D01*
X67724666Y-68653200D02*
X67819904Y-68700819D01*
X67819904Y-68700819D02*
X68057999Y-68700819D01*
X68057999Y-68700819D02*
X68153237Y-68653200D01*
X68153237Y-68653200D02*
X68200856Y-68605580D01*
X66772285Y-67700819D02*
X66962761Y-67700819D01*
X66962761Y-67700819D02*
X67057999Y-67748438D01*
X67057999Y-67748438D02*
X67105618Y-67796057D01*
X67105618Y-67796057D02*
X67200856Y-67938914D01*
X67200856Y-67938914D02*
X67248475Y-68129390D01*
X67248475Y-68129390D02*
X67248475Y-68510342D01*
X67248475Y-68510342D02*
X67200856Y-68605580D01*
X67200856Y-68605580D02*
X67153237Y-68653200D01*
X67153237Y-68653200D02*
X67057999Y-68700819D01*
X67057999Y-68700819D02*
X66867523Y-68700819D01*
X66867523Y-68700819D02*
X66772285Y-68653200D01*
X66772285Y-68653200D02*
X66724666Y-68605580D01*
X66724666Y-68605580D02*
X66677047Y-68510342D01*
X66677047Y-68510342D02*
X66677047Y-68272247D01*
X66677047Y-68272247D02*
X66724666Y-68177009D01*
X66724666Y-68177009D02*
X66772285Y-68129390D01*
X66772285Y-68129390D02*
X66867523Y-68081771D01*
X66867523Y-68081771D02*
X67057999Y-68081771D01*
X67057999Y-68081771D02*
X67153237Y-68129390D01*
X67153237Y-68129390D02*
X67200856Y-68177009D01*
X67200856Y-68177009D02*
X67248475Y-68272247D01*
X66057999Y-67700819D02*
X65962761Y-67700819D01*
X65962761Y-67700819D02*
X65867523Y-67748438D01*
X65867523Y-67748438D02*
X65819904Y-67796057D01*
X65819904Y-67796057D02*
X65772285Y-67891295D01*
X65772285Y-67891295D02*
X65724666Y-68081771D01*
X65724666Y-68081771D02*
X65724666Y-68319866D01*
X65724666Y-68319866D02*
X65772285Y-68510342D01*
X65772285Y-68510342D02*
X65819904Y-68605580D01*
X65819904Y-68605580D02*
X65867523Y-68653200D01*
X65867523Y-68653200D02*
X65962761Y-68700819D01*
X65962761Y-68700819D02*
X66057999Y-68700819D01*
X66057999Y-68700819D02*
X66153237Y-68653200D01*
X66153237Y-68653200D02*
X66200856Y-68605580D01*
X66200856Y-68605580D02*
X66248475Y-68510342D01*
X66248475Y-68510342D02*
X66296094Y-68319866D01*
X66296094Y-68319866D02*
X66296094Y-68081771D01*
X66296094Y-68081771D02*
X66248475Y-67891295D01*
X66248475Y-67891295D02*
X66200856Y-67796057D01*
X66200856Y-67796057D02*
X66153237Y-67748438D01*
X66153237Y-67748438D02*
X66057999Y-67700819D01*
X65296094Y-68700819D02*
X65296094Y-67700819D01*
X65200856Y-68319866D02*
X64915142Y-68700819D01*
X64915142Y-68034152D02*
X65296094Y-68415104D01*
X40848094Y-74898819D02*
X40848094Y-73898819D01*
X40848094Y-73898819D02*
X40467142Y-73898819D01*
X40467142Y-73898819D02*
X40371904Y-73946438D01*
X40371904Y-73946438D02*
X40324285Y-73994057D01*
X40324285Y-73994057D02*
X40276666Y-74089295D01*
X40276666Y-74089295D02*
X40276666Y-74232152D01*
X40276666Y-74232152D02*
X40324285Y-74327390D01*
X40324285Y-74327390D02*
X40371904Y-74375009D01*
X40371904Y-74375009D02*
X40467142Y-74422628D01*
X40467142Y-74422628D02*
X40848094Y-74422628D01*
X39895713Y-73994057D02*
X39848094Y-73946438D01*
X39848094Y-73946438D02*
X39752856Y-73898819D01*
X39752856Y-73898819D02*
X39514761Y-73898819D01*
X39514761Y-73898819D02*
X39419523Y-73946438D01*
X39419523Y-73946438D02*
X39371904Y-73994057D01*
X39371904Y-73994057D02*
X39324285Y-74089295D01*
X39324285Y-74089295D02*
X39324285Y-74184533D01*
X39324285Y-74184533D02*
X39371904Y-74327390D01*
X39371904Y-74327390D02*
X39943332Y-74898819D01*
X39943332Y-74898819D02*
X39324285Y-74898819D01*
X41340476Y-80384819D02*
X41911904Y-80384819D01*
X41626190Y-80384819D02*
X41626190Y-79384819D01*
X41626190Y-79384819D02*
X41721428Y-79527676D01*
X41721428Y-79527676D02*
X41816666Y-79622914D01*
X41816666Y-79622914D02*
X41911904Y-79670533D01*
X40721428Y-79384819D02*
X40626190Y-79384819D01*
X40626190Y-79384819D02*
X40530952Y-79432438D01*
X40530952Y-79432438D02*
X40483333Y-79480057D01*
X40483333Y-79480057D02*
X40435714Y-79575295D01*
X40435714Y-79575295D02*
X40388095Y-79765771D01*
X40388095Y-79765771D02*
X40388095Y-80003866D01*
X40388095Y-80003866D02*
X40435714Y-80194342D01*
X40435714Y-80194342D02*
X40483333Y-80289580D01*
X40483333Y-80289580D02*
X40530952Y-80337200D01*
X40530952Y-80337200D02*
X40626190Y-80384819D01*
X40626190Y-80384819D02*
X40721428Y-80384819D01*
X40721428Y-80384819D02*
X40816666Y-80337200D01*
X40816666Y-80337200D02*
X40864285Y-80289580D01*
X40864285Y-80289580D02*
X40911904Y-80194342D01*
X40911904Y-80194342D02*
X40959523Y-80003866D01*
X40959523Y-80003866D02*
X40959523Y-79765771D01*
X40959523Y-79765771D02*
X40911904Y-79575295D01*
X40911904Y-79575295D02*
X40864285Y-79480057D01*
X40864285Y-79480057D02*
X40816666Y-79432438D01*
X40816666Y-79432438D02*
X40721428Y-79384819D01*
X39959523Y-80384819D02*
X39959523Y-79384819D01*
X39388095Y-80384819D02*
X39816666Y-79813390D01*
X39388095Y-79384819D02*
X39959523Y-79956247D01*
X83829904Y-48295100D02*
X83687047Y-48342719D01*
X83687047Y-48342719D02*
X83448952Y-48342719D01*
X83448952Y-48342719D02*
X83353714Y-48295100D01*
X83353714Y-48295100D02*
X83306095Y-48247480D01*
X83306095Y-48247480D02*
X83258476Y-48152242D01*
X83258476Y-48152242D02*
X83258476Y-48057004D01*
X83258476Y-48057004D02*
X83306095Y-47961766D01*
X83306095Y-47961766D02*
X83353714Y-47914147D01*
X83353714Y-47914147D02*
X83448952Y-47866528D01*
X83448952Y-47866528D02*
X83639428Y-47818909D01*
X83639428Y-47818909D02*
X83734666Y-47771290D01*
X83734666Y-47771290D02*
X83782285Y-47723671D01*
X83782285Y-47723671D02*
X83829904Y-47628433D01*
X83829904Y-47628433D02*
X83829904Y-47533195D01*
X83829904Y-47533195D02*
X83782285Y-47437957D01*
X83782285Y-47437957D02*
X83734666Y-47390338D01*
X83734666Y-47390338D02*
X83639428Y-47342719D01*
X83639428Y-47342719D02*
X83401333Y-47342719D01*
X83401333Y-47342719D02*
X83258476Y-47390338D01*
X82306095Y-48342719D02*
X82877523Y-48342719D01*
X82591809Y-48342719D02*
X82591809Y-47342719D01*
X82591809Y-47342719D02*
X82687047Y-47485576D01*
X82687047Y-47485576D02*
X82782285Y-47580814D01*
X82782285Y-47580814D02*
X82877523Y-47628433D01*
D12*
%TO.C,G\u002A\u002A\u002A*%
X108155000Y-92206000D02*
X108730000Y-92681000D01*
X108730000Y-92681000D02*
X109155000Y-92356000D01*
X109155000Y-92356000D02*
X108155000Y-92206000D01*
D13*
X109480000Y-93794605D02*
X110380000Y-93781000D01*
X109879999Y-95176050D02*
X109479999Y-95176050D01*
X109880000Y-94181000D02*
X109630000Y-94181000D01*
X109880000Y-94231000D02*
X109880000Y-94681000D01*
X109880000Y-94681000D02*
X109580000Y-94681000D01*
X109880000Y-95181000D02*
X109880000Y-95681000D01*
X109880000Y-95681000D02*
X109430000Y-95681000D01*
D12*
X110105000Y-91481000D02*
X110455000Y-90306000D01*
D13*
X110380000Y-93781000D02*
X110430000Y-96231000D01*
X110430000Y-96231000D02*
X109230000Y-96231000D01*
D12*
X110455000Y-90306000D02*
X112255000Y-90356000D01*
D13*
X110705000Y-96231000D02*
X111480000Y-93781000D01*
X111105000Y-96231000D02*
X110705000Y-96231000D01*
X111355000Y-95631000D02*
X111105000Y-96231000D01*
X111430000Y-95231000D02*
X111655000Y-94481000D01*
X111480000Y-93781000D02*
X111805000Y-93781000D01*
X111655000Y-94481000D02*
X111930000Y-95231000D01*
D12*
X111680000Y-92406000D02*
X113355000Y-92506000D01*
D13*
X111805000Y-93781000D02*
X112705000Y-96231000D01*
X111930000Y-95231000D02*
X111430000Y-95231000D01*
X111955000Y-95631000D02*
X111355000Y-95631000D01*
X112205000Y-96231000D02*
X111955000Y-95631000D01*
X112205000Y-96231000D02*
X112705000Y-96231000D01*
D12*
X112255000Y-90356000D02*
X110105000Y-91481000D01*
X112380000Y-91831000D02*
X111680000Y-92406000D01*
D13*
X112880000Y-95756000D02*
X112880000Y-96206000D01*
X112880000Y-96206000D02*
X114130000Y-96206000D01*
D12*
X113380000Y-92506000D02*
X112380000Y-91831000D01*
X113530000Y-92056000D02*
X115155000Y-93181000D01*
X113580000Y-89731000D02*
X114705000Y-90956000D01*
X113605000Y-89331000D02*
X113530000Y-92056000D01*
D13*
X113630000Y-95756000D02*
X112880000Y-95756000D01*
X113655000Y-93756000D02*
X113630000Y-95756000D01*
X114105000Y-93756000D02*
X113655000Y-93756000D01*
X114130000Y-96206000D02*
X114105000Y-93756000D01*
X114305000Y-96206000D02*
X115005000Y-95256000D01*
X114405000Y-96206000D02*
X114305000Y-96206000D01*
D12*
X114705000Y-90956000D02*
X114130000Y-92456000D01*
D13*
X114805000Y-96206000D02*
X114405000Y-96206000D01*
X115046269Y-93750594D02*
X116155000Y-93756000D01*
D12*
X115155000Y-93181000D02*
X116830000Y-92956000D01*
D13*
X115205000Y-94206000D02*
X115655000Y-94206000D01*
X115555000Y-95256000D02*
X114805000Y-96206000D01*
X115655000Y-94206000D02*
X115655000Y-94756000D01*
X115655000Y-94756000D02*
X115155000Y-94756000D01*
X115705000Y-95256000D02*
X115555000Y-95256000D01*
X115705000Y-96206000D02*
X115705000Y-95256000D01*
X116155000Y-93756000D02*
X116155000Y-96206000D01*
X116155000Y-96206000D02*
X115705000Y-96206000D01*
D12*
X116305000Y-93406000D02*
X117280000Y-93756000D01*
D13*
X116605000Y-93756000D02*
X117905000Y-93756000D01*
X116605000Y-94256000D02*
X116605000Y-93756000D01*
X116605000Y-95706000D02*
X117455000Y-95706000D01*
X116605000Y-96206000D02*
X116605000Y-95706000D01*
D12*
X116705000Y-93131000D02*
X116305000Y-93406000D01*
D13*
X116805000Y-94706000D02*
X117455000Y-94706000D01*
X116805000Y-95156000D02*
X116805000Y-94706000D01*
D12*
X116830000Y-92956000D02*
X118655000Y-93856000D01*
X117080000Y-90956000D02*
X113605000Y-89331000D01*
X117080000Y-90956000D02*
X119405000Y-92106000D01*
D13*
X117455000Y-94256000D02*
X116605000Y-94256000D01*
X117455000Y-94706000D02*
X117455000Y-94256000D01*
X117455000Y-95156000D02*
X116805000Y-95156000D01*
X117455000Y-95706000D02*
X117455000Y-95156000D01*
D12*
X117480000Y-93731000D02*
X116705000Y-93131000D01*
X117830000Y-89531000D02*
X117080000Y-90956000D01*
X117830000Y-89531000D02*
X120030000Y-90706000D01*
D13*
X117855000Y-96206000D02*
X116605000Y-96206000D01*
X117905000Y-93756000D02*
X117955000Y-96206000D01*
X117955000Y-96206000D02*
X117855000Y-96206000D01*
X119055000Y-93769605D02*
X119955000Y-93756000D01*
D12*
X119405000Y-92106000D02*
X120880000Y-93831000D01*
X119405000Y-92106000D02*
X125055000Y-94956000D01*
D13*
X119454999Y-95151050D02*
X119054999Y-95151050D01*
X119455000Y-94156000D02*
X119205000Y-94156000D01*
X119455000Y-94206000D02*
X119455000Y-94656000D01*
X119455000Y-94656000D02*
X119155000Y-94656000D01*
X119455000Y-95156000D02*
X119455000Y-95656000D01*
X119455000Y-95656000D02*
X119005000Y-95656000D01*
X119955000Y-93756000D02*
X120005000Y-96206000D01*
X120005000Y-96206000D02*
X118805000Y-96206000D01*
D12*
X120030000Y-90706000D02*
X118455000Y-91606000D01*
X120130000Y-90531000D02*
X119405000Y-92106000D01*
D13*
X120405000Y-94606000D02*
X120405000Y-95306000D01*
D12*
X120705000Y-93931000D02*
X113605000Y-89331000D01*
D13*
X120905000Y-94606000D02*
X120905000Y-95256000D01*
D12*
X121155000Y-90781000D02*
X119405000Y-92106000D01*
X121155000Y-90781000D02*
X120130000Y-90531000D01*
X121230000Y-94856000D02*
X121605000Y-95031000D01*
X121555000Y-94456000D02*
X121230000Y-94856000D01*
D13*
X121605000Y-94606000D02*
X121605000Y-95306000D01*
D12*
X122105000Y-95206000D02*
X122655000Y-95481000D01*
D13*
X122105000Y-95306000D02*
X122105000Y-94606000D01*
D12*
X122155000Y-94481000D02*
X122380000Y-95106000D01*
X122380000Y-95106000D02*
X125055000Y-94956000D01*
X122655000Y-95481000D02*
X122080000Y-94681000D01*
X123730000Y-95431000D02*
X122905000Y-95081000D01*
X125055000Y-94956000D02*
X121155000Y-90781000D01*
X125055000Y-94956000D02*
X122155000Y-94481000D01*
X125055000Y-94956000D02*
X123730000Y-95431000D01*
D13*
X109030001Y-94880999D02*
G75*
G02*
X109480000Y-93794606I449999J449999D01*
G01*
X109230001Y-96230998D02*
G75*
G02*
X109053744Y-94922064I249998J699998D01*
G01*
X109430001Y-95680998D02*
G75*
G02*
X109479999Y-95176051I49999J249998D01*
G01*
X109580000Y-94681000D02*
G75*
G02*
X109640634Y-94188464I0J250000D01*
G01*
X115030001Y-95205998D02*
G75*
G02*
X115046269Y-93750595I249999J724998D01*
G01*
X115155001Y-94755998D02*
G75*
G02*
X115155001Y-94206002I124999J274998D01*
G01*
X118605001Y-94855999D02*
G75*
G02*
X119055000Y-93769606I449999J449999D01*
G01*
X118805001Y-96205998D02*
G75*
G02*
X118628744Y-94897064I249998J699998D01*
G01*
X119005001Y-95655998D02*
G75*
G02*
X119054999Y-95151051I49999J249998D01*
G01*
X119155000Y-94656000D02*
G75*
G02*
X119215634Y-94163464I0J250000D01*
G01*
X120405000Y-94606000D02*
G75*
G02*
X122105000Y-94606000I850000J0D01*
G01*
X120905000Y-94606000D02*
G75*
G02*
X121605000Y-94606000I350000J0D01*
G01*
X121605000Y-95306000D02*
G75*
G02*
X120905000Y-95306000I-350000J0D01*
G01*
X122105000Y-95306000D02*
G75*
G02*
X120405000Y-95306000I-850000J0D01*
G01*
D14*
X130602361Y-149201226D02*
X130538542Y-149265045D01*
X130474723Y-149201226D01*
X130538542Y-149137407D01*
X130602361Y-149201226D01*
G36*
X130602361Y-149201226D02*
G01*
X130538542Y-149265045D01*
X130474723Y-149201226D01*
X130538542Y-149137407D01*
X130602361Y-149201226D01*
G37*
D13*
%TO.C,C1*%
X81833759Y-62973000D02*
X82463759Y-62973000D01*
X82148759Y-63288000D02*
X82148759Y-62658000D01*
X85334000Y-64364000D02*
X85334000Y-57904000D01*
X85374000Y-64364000D02*
X85374000Y-57904000D01*
X85414000Y-64364000D02*
X85414000Y-57904000D01*
X85454000Y-64362000D02*
X85454000Y-57906000D01*
X85494000Y-64361000D02*
X85494000Y-57907000D01*
X85534000Y-64358000D02*
X85534000Y-57910000D01*
X85574000Y-60094000D02*
X85574000Y-57912000D01*
X85574000Y-64356000D02*
X85574000Y-62174000D01*
X85614000Y-60094000D02*
X85614000Y-57916000D01*
X85614000Y-64352000D02*
X85614000Y-62174000D01*
X85654000Y-60094000D02*
X85654000Y-57919000D01*
X85654000Y-64349000D02*
X85654000Y-62174000D01*
X85694000Y-60094000D02*
X85694000Y-57923000D01*
X85694000Y-64345000D02*
X85694000Y-62174000D01*
X85734000Y-60094000D02*
X85734000Y-57928000D01*
X85734000Y-64340000D02*
X85734000Y-62174000D01*
X85774000Y-60094000D02*
X85774000Y-57933000D01*
X85774000Y-64335000D02*
X85774000Y-62174000D01*
X85814000Y-60094000D02*
X85814000Y-57939000D01*
X85814000Y-64329000D02*
X85814000Y-62174000D01*
X85854000Y-60094000D02*
X85854000Y-57945000D01*
X85854000Y-64323000D02*
X85854000Y-62174000D01*
X85894000Y-60094000D02*
X85894000Y-57952000D01*
X85894000Y-64316000D02*
X85894000Y-62174000D01*
X85934000Y-60094000D02*
X85934000Y-57959000D01*
X85934000Y-64309000D02*
X85934000Y-62174000D01*
X85974000Y-60094000D02*
X85974000Y-57967000D01*
X85974000Y-64301000D02*
X85974000Y-62174000D01*
X86014000Y-60094000D02*
X86014000Y-57975000D01*
X86014000Y-64293000D02*
X86014000Y-62174000D01*
X86055000Y-60094000D02*
X86055000Y-57984000D01*
X86055000Y-64284000D02*
X86055000Y-62174000D01*
X86095000Y-60094000D02*
X86095000Y-57993000D01*
X86095000Y-64275000D02*
X86095000Y-62174000D01*
X86135000Y-60094000D02*
X86135000Y-58003000D01*
X86135000Y-64265000D02*
X86135000Y-62174000D01*
X86175000Y-60094000D02*
X86175000Y-58013000D01*
X86175000Y-64255000D02*
X86175000Y-62174000D01*
X86215000Y-60094000D02*
X86215000Y-58024000D01*
X86215000Y-64244000D02*
X86215000Y-62174000D01*
X86255000Y-60094000D02*
X86255000Y-58036000D01*
X86255000Y-64232000D02*
X86255000Y-62174000D01*
X86295000Y-60094000D02*
X86295000Y-58048000D01*
X86295000Y-64220000D02*
X86295000Y-62174000D01*
X86335000Y-60094000D02*
X86335000Y-58060000D01*
X86335000Y-64208000D02*
X86335000Y-62174000D01*
X86375000Y-60094000D02*
X86375000Y-58073000D01*
X86375000Y-64195000D02*
X86375000Y-62174000D01*
X86415000Y-60094000D02*
X86415000Y-58087000D01*
X86415000Y-64181000D02*
X86415000Y-62174000D01*
X86455000Y-60094000D02*
X86455000Y-58101000D01*
X86455000Y-64167000D02*
X86455000Y-62174000D01*
X86495000Y-60094000D02*
X86495000Y-58116000D01*
X86495000Y-64152000D02*
X86495000Y-62174000D01*
X86535000Y-60094000D02*
X86535000Y-58132000D01*
X86535000Y-64136000D02*
X86535000Y-62174000D01*
X86575000Y-60094000D02*
X86575000Y-58148000D01*
X86575000Y-64120000D02*
X86575000Y-62174000D01*
X86615000Y-60094000D02*
X86615000Y-58164000D01*
X86615000Y-64104000D02*
X86615000Y-62174000D01*
X86655000Y-60094000D02*
X86655000Y-58182000D01*
X86655000Y-64086000D02*
X86655000Y-62174000D01*
X86695000Y-60094000D02*
X86695000Y-58200000D01*
X86695000Y-64068000D02*
X86695000Y-62174000D01*
X86735000Y-60094000D02*
X86735000Y-58218000D01*
X86735000Y-64050000D02*
X86735000Y-62174000D01*
X86775000Y-60094000D02*
X86775000Y-58238000D01*
X86775000Y-64030000D02*
X86775000Y-62174000D01*
X86815000Y-60094000D02*
X86815000Y-58258000D01*
X86815000Y-64010000D02*
X86815000Y-62174000D01*
X86855000Y-60094000D02*
X86855000Y-58278000D01*
X86855000Y-63990000D02*
X86855000Y-62174000D01*
X86895000Y-60094000D02*
X86895000Y-58300000D01*
X86895000Y-63968000D02*
X86895000Y-62174000D01*
X86935000Y-60094000D02*
X86935000Y-58322000D01*
X86935000Y-63946000D02*
X86935000Y-62174000D01*
X86975000Y-60094000D02*
X86975000Y-58344000D01*
X86975000Y-63924000D02*
X86975000Y-62174000D01*
X87015000Y-60094000D02*
X87015000Y-58368000D01*
X87015000Y-63900000D02*
X87015000Y-62174000D01*
X87055000Y-60094000D02*
X87055000Y-58392000D01*
X87055000Y-63876000D02*
X87055000Y-62174000D01*
X87095000Y-60094000D02*
X87095000Y-58418000D01*
X87095000Y-63850000D02*
X87095000Y-62174000D01*
X87135000Y-60094000D02*
X87135000Y-58444000D01*
X87135000Y-63824000D02*
X87135000Y-62174000D01*
X87175000Y-60094000D02*
X87175000Y-58470000D01*
X87175000Y-63798000D02*
X87175000Y-62174000D01*
X87215000Y-60094000D02*
X87215000Y-58498000D01*
X87215000Y-63770000D02*
X87215000Y-62174000D01*
X87255000Y-60094000D02*
X87255000Y-58527000D01*
X87255000Y-63741000D02*
X87255000Y-62174000D01*
X87295000Y-60094000D02*
X87295000Y-58556000D01*
X87295000Y-63712000D02*
X87295000Y-62174000D01*
X87335000Y-60094000D02*
X87335000Y-58586000D01*
X87335000Y-63682000D02*
X87335000Y-62174000D01*
X87375000Y-60094000D02*
X87375000Y-58618000D01*
X87375000Y-63650000D02*
X87375000Y-62174000D01*
X87415000Y-60094000D02*
X87415000Y-58650000D01*
X87415000Y-63618000D02*
X87415000Y-62174000D01*
X87455000Y-60094000D02*
X87455000Y-58684000D01*
X87455000Y-63584000D02*
X87455000Y-62174000D01*
X87495000Y-60094000D02*
X87495000Y-58718000D01*
X87495000Y-63550000D02*
X87495000Y-62174000D01*
X87535000Y-60094000D02*
X87535000Y-58754000D01*
X87535000Y-63514000D02*
X87535000Y-62174000D01*
X87575000Y-60094000D02*
X87575000Y-58791000D01*
X87575000Y-63477000D02*
X87575000Y-62174000D01*
X87615000Y-60094000D02*
X87615000Y-58829000D01*
X87615000Y-63439000D02*
X87615000Y-62174000D01*
X87655000Y-63399000D02*
X87655000Y-58869000D01*
X87695000Y-63358000D02*
X87695000Y-58910000D01*
X87735000Y-63316000D02*
X87735000Y-58952000D01*
X87775000Y-63271000D02*
X87775000Y-58997000D01*
X87815000Y-63226000D02*
X87815000Y-59042000D01*
X87855000Y-63178000D02*
X87855000Y-59090000D01*
X87895000Y-63129000D02*
X87895000Y-59139000D01*
X87935000Y-63078000D02*
X87935000Y-59190000D01*
X87975000Y-63024000D02*
X87975000Y-59244000D01*
X88015000Y-62968000D02*
X88015000Y-59300000D01*
X88055000Y-62910000D02*
X88055000Y-59358000D01*
X88095000Y-62848000D02*
X88095000Y-59420000D01*
X88135000Y-62784000D02*
X88135000Y-59484000D01*
X88175000Y-62715000D02*
X88175000Y-59553000D01*
X88215000Y-62643000D02*
X88215000Y-59625000D01*
X88255000Y-62566000D02*
X88255000Y-59702000D01*
X88295000Y-62484000D02*
X88295000Y-59784000D01*
X88335000Y-62396000D02*
X88335000Y-59872000D01*
X88375000Y-62299000D02*
X88375000Y-59969000D01*
X88415000Y-62193000D02*
X88415000Y-60075000D01*
X88455000Y-62074000D02*
X88455000Y-60194000D01*
X88495000Y-61936000D02*
X88495000Y-60332000D01*
X88535000Y-61767000D02*
X88535000Y-60501000D01*
X88575000Y-61536000D02*
X88575000Y-60732000D01*
X88604000Y-61134000D02*
G75*
G02*
X82064000Y-61134000I-3270000J0D01*
G01*
X82064000Y-61134000D02*
G75*
G02*
X88604000Y-61134000I3270000J0D01*
G01*
%TO.C,P1*%
X57604000Y-72122000D02*
G75*
G02*
X49604000Y-72122000I-4000000J0D01*
G01*
X49604000Y-72122000D02*
G75*
G02*
X57604000Y-72122000I4000000J0D01*
G01*
%TO.C,U3*%
X88647648Y-92855101D02*
X99026000Y-80436000D01*
X88626000Y-92736000D02*
X78309224Y-80262569D01*
X88647649Y-69155102D02*
G75*
G02*
X99025999Y-80435999I4599999J-6182487D01*
G01*
X78309224Y-80262569D02*
G75*
G02*
X88647638Y-69155117I5716776J5044069D01*
G01*
%TO.C,D3*%
X70598000Y-95424000D02*
X69948000Y-95424000D01*
X69948000Y-96544000D02*
X65708000Y-96544000D01*
X69948000Y-94304000D02*
X69948000Y-96544000D01*
X69348000Y-94304000D02*
X69348000Y-96544000D01*
X69228000Y-94304000D02*
X69228000Y-96544000D01*
X69108000Y-94304000D02*
X69108000Y-96544000D01*
X65708000Y-96544000D02*
X65708000Y-94304000D01*
X65708000Y-94304000D02*
X69948000Y-94304000D01*
X65058000Y-95424000D02*
X65708000Y-95424000D01*
%TO.C,R4*%
X70598000Y-77008000D02*
X69828000Y-77008000D01*
X69828000Y-78378000D02*
X63288000Y-78378000D01*
X69828000Y-75638000D02*
X69828000Y-78378000D01*
X63288000Y-78378000D02*
X63288000Y-75638000D01*
X63288000Y-75638000D02*
X69828000Y-75638000D01*
X62518000Y-77008000D02*
X63288000Y-77008000D01*
%TO.C,R5*%
X70598000Y-83230000D02*
X69828000Y-83230000D01*
X69828000Y-84600000D02*
X63288000Y-84600000D01*
X69828000Y-81860000D02*
X69828000Y-84600000D01*
X63288000Y-84600000D02*
X63288000Y-81860000D01*
X63288000Y-81860000D02*
X69828000Y-81860000D01*
X62518000Y-83230000D02*
X63288000Y-83230000D01*
%TO.C,R6*%
X70598000Y-89452000D02*
X69828000Y-89452000D01*
X69828000Y-90822000D02*
X63288000Y-90822000D01*
X69828000Y-88082000D02*
X69828000Y-90822000D01*
X63288000Y-90822000D02*
X63288000Y-88082000D01*
X63288000Y-88082000D02*
X69828000Y-88082000D01*
X62518000Y-89452000D02*
X63288000Y-89452000D01*
%TO.C,U1*%
X52698000Y-94214000D02*
X47398000Y-94214000D01*
X52698000Y-83934000D02*
X52698000Y-94214000D01*
X51048000Y-83934000D02*
X52698000Y-83934000D01*
X47398000Y-94214000D02*
X47398000Y-83934000D01*
X47398000Y-83934000D02*
X49048000Y-83934000D01*
X51048000Y-83934000D02*
G75*
G02*
X49048000Y-83934000I-1000000J0D01*
G01*
%TO.C,R3*%
X70598000Y-70786000D02*
X69828000Y-70786000D01*
X69828000Y-72156000D02*
X63288000Y-72156000D01*
X69828000Y-69416000D02*
X69828000Y-72156000D01*
X63288000Y-72156000D02*
X63288000Y-69416000D01*
X63288000Y-69416000D02*
X69828000Y-69416000D01*
X62518000Y-70786000D02*
X63288000Y-70786000D01*
%TO.C,P2*%
X44650000Y-74154000D02*
G75*
G02*
X36650000Y-74154000I-4000000J0D01*
G01*
X36650000Y-74154000D02*
G75*
G02*
X44650000Y-74154000I4000000J0D01*
G01*
%TO.C,S1*%
X81988500Y-42960300D02*
X78051500Y-42934900D01*
X78051500Y-42960300D02*
X78051500Y-52917100D01*
X81988500Y-52917100D02*
X81988500Y-42960300D01*
X78051500Y-52917100D02*
X81988500Y-52917100D01*
%TD*%
D15*
%TO.C,T2_B*%
X110500000Y-55292000D03*
%TD*%
%TO.C,GND*%
X95006000Y-48180000D03*
%TD*%
%TO.C,T1_B*%
X100594000Y-55292000D03*
%TD*%
%TO.C,Q*%
X50302000Y-99488000D03*
%TD*%
%TO.C,VCC*%
X115834000Y-48180000D03*
%TD*%
%TO.C,*%
X88402000Y-48180000D03*
%TD*%
M02*
