%TF.GenerationSoftware,KiCad,Pcbnew,8.0.1*%
%TF.CreationDate,2024-04-02T10:44:01+02:00*%
%TF.ProjectId,Einhorn,45696e68-6f72-46e2-9e6b-696361645f70,rev?*%
%TF.SameCoordinates,Original*%
%TF.FileFunction,Soldermask,Top*%
%TF.FilePolarity,Negative*%
%FSLAX46Y46*%
G04 Gerber Fmt 4.6, Leading zero omitted, Abs format (unit mm)*
G04 Created by KiCad (PCBNEW 8.0.1) date 2024-04-02 10:44:01*
%MOMM*%
%LPD*%
G01*
G04 APERTURE LIST*
G04 Aperture macros list*
%AMRoundRect*
0 Rectangle with rounded corners*
0 $1 Rounding radius*
0 $2 $3 $4 $5 $6 $7 $8 $9 X,Y pos of 4 corners*
0 Add a 4 corners polygon primitive as box body*
4,1,4,$2,$3,$4,$5,$6,$7,$8,$9,$2,$3,0*
0 Add four circle primitives for the rounded corners*
1,1,$1+$1,$2,$3*
1,1,$1+$1,$4,$5*
1,1,$1+$1,$6,$7*
1,1,$1+$1,$8,$9*
0 Add four rect primitives between the rounded corners*
20,1,$1+$1,$2,$3,$4,$5,0*
20,1,$1+$1,$4,$5,$6,$7,0*
20,1,$1+$1,$6,$7,$8,$9,0*
20,1,$1+$1,$8,$9,$2,$3,0*%
G04 Aperture macros list end*
%ADD10RoundRect,0.200000X-0.750000X-0.750000X0.750000X-0.750000X0.750000X0.750000X-0.750000X0.750000X0*%
%ADD11C,1.900000*%
%ADD12RoundRect,0.200000X-0.800000X-0.800000X0.800000X-0.800000X0.800000X0.800000X-0.800000X0.800000X0*%
%ADD13C,2.000000*%
%ADD14C,1.924000*%
%ADD15O,1.600000X1.900000*%
%ADD16C,1.800000*%
%ADD17RoundRect,0.200000X0.800000X0.800000X-0.800000X0.800000X-0.800000X-0.800000X0.800000X-0.800000X0*%
%ADD18O,2.000000X2.000000*%
%ADD19C,2.400000*%
G04 APERTURE END LIST*
D10*
%TO.C,T2*%
X106256000Y-66790000D03*
D11*
X108796000Y-64250000D03*
X111336000Y-66790000D03*
%TD*%
D10*
%TO.C,T1*%
X96646000Y-64350000D03*
D11*
X99186000Y-61810000D03*
X101726000Y-64350000D03*
%TD*%
D12*
%TO.C,C1*%
X84084000Y-61134000D03*
D13*
X86584000Y-61134000D03*
%TD*%
D14*
%TO.C,P1*%
X56144000Y-70212000D03*
X51064000Y-70212000D03*
X53604000Y-75292000D03*
%TD*%
D15*
%TO.C,U3*%
X100026000Y-77136000D03*
X97126000Y-69436000D03*
X94726000Y-84436000D03*
X88726000Y-91136000D03*
X88622051Y-69860000D03*
X82629949Y-84436000D03*
X80326000Y-69532051D03*
X77426000Y-77136000D03*
D11*
X97726000Y-77136000D03*
X95426000Y-71036000D03*
X93126000Y-82836000D03*
X88726000Y-88836000D03*
X88622051Y-72146000D03*
X84229949Y-82836000D03*
X81826000Y-71132051D03*
D16*
X79826000Y-77136000D03*
%TD*%
D17*
%TO.C,D3*%
X71638000Y-95424000D03*
D18*
X64018000Y-95424000D03*
%TD*%
D13*
%TO.C,R4*%
X71638000Y-77008000D03*
D18*
X61478000Y-77008000D03*
%TD*%
D13*
%TO.C,R5*%
X71638000Y-83230000D03*
D18*
X61478000Y-83230000D03*
%TD*%
D13*
%TO.C,R6*%
X71638000Y-89452000D03*
D18*
X61478000Y-89452000D03*
%TD*%
D17*
%TO.C,U1*%
X53858000Y-85264000D03*
D18*
X53858000Y-87804000D03*
X53858000Y-90344000D03*
X53858000Y-92884000D03*
X46238000Y-92884000D03*
X46238000Y-90344000D03*
X46238000Y-87804000D03*
X46238000Y-85264000D03*
%TD*%
D13*
%TO.C,R3*%
X71638000Y-70786000D03*
D18*
X61478000Y-70786000D03*
%TD*%
D14*
%TO.C,P2*%
X43190000Y-72244000D03*
X38110000Y-72244000D03*
X40650000Y-77324000D03*
%TD*%
D19*
%TO.C,S1*%
X80058100Y-45347900D03*
X80058100Y-47887900D03*
X80058100Y-50427900D03*
%TD*%
M02*
