%TF.GenerationSoftware,KiCad,Pcbnew,8.0.1*%
%TF.CreationDate,2024-04-02T10:44:00+02:00*%
%TF.ProjectId,Einhorn,45696e68-6f72-46e2-9e6b-696361645f70,rev?*%
%TF.SameCoordinates,Original*%
%TF.FileFunction,Legend,Top*%
%TF.FilePolarity,Positive*%
%FSLAX46Y46*%
G04 Gerber Fmt 4.6, Leading zero omitted, Abs format (unit mm)*
G04 Created by KiCad (PCBNEW 8.0.1) date 2024-04-02 10:44:00*
%MOMM*%
%LPD*%
G01*
G04 APERTURE LIST*
%ADD10C,0.150000*%
%ADD11C,0.010000*%
G04 APERTURE END LIST*
D10*
X87589220Y-67605819D02*
X87589220Y-66605819D01*
X87017792Y-67605819D02*
X87446363Y-67034390D01*
X87017792Y-66605819D02*
X87589220Y-67177247D01*
D11*
%TO.C,G\u002A\u002A\u002A*%
X107290292Y-52018423D02*
X107680233Y-52176653D01*
X108009574Y-52451490D01*
X108187861Y-52715908D01*
X108283264Y-53023606D01*
X108319023Y-53412830D01*
X108295013Y-53808025D01*
X108211106Y-54133632D01*
X108190315Y-54177712D01*
X107902200Y-54560558D01*
X107515939Y-54827239D01*
X107067063Y-54965530D01*
X106591103Y-54963206D01*
X106221745Y-54854974D01*
X105859872Y-54610329D01*
X105579906Y-54248230D01*
X105403286Y-53809396D01*
X105351456Y-53334544D01*
X105360087Y-53218688D01*
X105482858Y-52789436D01*
X105725250Y-52444747D01*
X106057227Y-52189960D01*
X106448751Y-52030417D01*
X106869785Y-51971457D01*
X107290292Y-52018423D01*
G36*
X107290292Y-52018423D02*
G01*
X107680233Y-52176653D01*
X108009574Y-52451490D01*
X108187861Y-52715908D01*
X108283264Y-53023606D01*
X108319023Y-53412830D01*
X108295013Y-53808025D01*
X108211106Y-54133632D01*
X108190315Y-54177712D01*
X107902200Y-54560558D01*
X107515939Y-54827239D01*
X107067063Y-54965530D01*
X106591103Y-54963206D01*
X106221745Y-54854974D01*
X105859872Y-54610329D01*
X105579906Y-54248230D01*
X105403286Y-53809396D01*
X105351456Y-53334544D01*
X105360087Y-53218688D01*
X105482858Y-52789436D01*
X105725250Y-52444747D01*
X106057227Y-52189960D01*
X106448751Y-52030417D01*
X106869785Y-51971457D01*
X107290292Y-52018423D01*
G37*
X44742574Y-77475211D02*
X44759845Y-78310080D01*
X44780242Y-79004368D01*
X44806853Y-79586828D01*
X44842763Y-80086212D01*
X44891061Y-80531275D01*
X44954833Y-80950768D01*
X45037166Y-81373444D01*
X45141147Y-81828056D01*
X45261880Y-82312132D01*
X45380421Y-82811546D01*
X45436397Y-83157325D01*
X45423463Y-83355562D01*
X45335272Y-83412351D01*
X45165479Y-83333784D01*
X44907738Y-83125955D01*
X44657048Y-82892900D01*
X43834790Y-82016395D01*
X43167298Y-81107210D01*
X42640419Y-80144548D01*
X42404590Y-79582495D01*
X42280502Y-79233198D01*
X42202412Y-78939619D01*
X42159680Y-78638644D01*
X42141668Y-78267160D01*
X42138405Y-78003400D01*
X42141872Y-77567565D01*
X42162707Y-77252538D01*
X42207692Y-77010125D01*
X42283607Y-76792131D01*
X42320612Y-76708624D01*
X42598501Y-76257216D01*
X42991967Y-75818102D01*
X43457922Y-75427035D01*
X43953279Y-75119766D01*
X44434950Y-74932051D01*
X44472450Y-74923077D01*
X44694957Y-74872690D01*
X44742574Y-77475211D01*
G36*
X44742574Y-77475211D02*
G01*
X44759845Y-78310080D01*
X44780242Y-79004368D01*
X44806853Y-79586828D01*
X44842763Y-80086212D01*
X44891061Y-80531275D01*
X44954833Y-80950768D01*
X45037166Y-81373444D01*
X45141147Y-81828056D01*
X45261880Y-82312132D01*
X45380421Y-82811546D01*
X45436397Y-83157325D01*
X45423463Y-83355562D01*
X45335272Y-83412351D01*
X45165479Y-83333784D01*
X44907738Y-83125955D01*
X44657048Y-82892900D01*
X43834790Y-82016395D01*
X43167298Y-81107210D01*
X42640419Y-80144548D01*
X42404590Y-79582495D01*
X42280502Y-79233198D01*
X42202412Y-78939619D01*
X42159680Y-78638644D01*
X42141668Y-78267160D01*
X42138405Y-78003400D01*
X42141872Y-77567565D01*
X42162707Y-77252538D01*
X42207692Y-77010125D01*
X42283607Y-76792131D01*
X42320612Y-76708624D01*
X42598501Y-76257216D01*
X42991967Y-75818102D01*
X43457922Y-75427035D01*
X43953279Y-75119766D01*
X44434950Y-74932051D01*
X44472450Y-74923077D01*
X44694957Y-74872690D01*
X44742574Y-77475211D01*
G37*
X139982941Y-31199687D02*
X140040714Y-31250033D01*
X140050276Y-31336642D01*
X140015134Y-31459620D01*
X139903776Y-31608250D01*
X139707302Y-31788275D01*
X139416815Y-32005439D01*
X139023415Y-32265487D01*
X138518204Y-32574163D01*
X137892283Y-32937211D01*
X137136755Y-33360374D01*
X136242719Y-33849398D01*
X135721308Y-34130989D01*
X135193821Y-34411272D01*
X134708086Y-34662583D01*
X134286125Y-34874070D01*
X133949960Y-35034880D01*
X133721614Y-35134160D01*
X133629072Y-35162066D01*
X133499954Y-35119135D01*
X133406975Y-34965762D01*
X133357531Y-34808253D01*
X133301759Y-34323865D01*
X133389769Y-33797616D01*
X133574965Y-33312467D01*
X133773538Y-32909723D01*
X133950875Y-32632034D01*
X134142127Y-32444786D01*
X134382445Y-32313364D01*
X134699186Y-32205449D01*
X135249075Y-32056446D01*
X135920954Y-31895002D01*
X136668885Y-31730428D01*
X137446926Y-31572032D01*
X138209137Y-31429125D01*
X138909580Y-31311016D01*
X139502314Y-31227014D01*
X139563443Y-31219735D01*
X139837102Y-31192769D01*
X139982941Y-31199687D01*
G36*
X139982941Y-31199687D02*
G01*
X140040714Y-31250033D01*
X140050276Y-31336642D01*
X140015134Y-31459620D01*
X139903776Y-31608250D01*
X139707302Y-31788275D01*
X139416815Y-32005439D01*
X139023415Y-32265487D01*
X138518204Y-32574163D01*
X137892283Y-32937211D01*
X137136755Y-33360374D01*
X136242719Y-33849398D01*
X135721308Y-34130989D01*
X135193821Y-34411272D01*
X134708086Y-34662583D01*
X134286125Y-34874070D01*
X133949960Y-35034880D01*
X133721614Y-35134160D01*
X133629072Y-35162066D01*
X133499954Y-35119135D01*
X133406975Y-34965762D01*
X133357531Y-34808253D01*
X133301759Y-34323865D01*
X133389769Y-33797616D01*
X133574965Y-33312467D01*
X133773538Y-32909723D01*
X133950875Y-32632034D01*
X134142127Y-32444786D01*
X134382445Y-32313364D01*
X134699186Y-32205449D01*
X135249075Y-32056446D01*
X135920954Y-31895002D01*
X136668885Y-31730428D01*
X137446926Y-31572032D01*
X138209137Y-31429125D01*
X138909580Y-31311016D01*
X139502314Y-31227014D01*
X139563443Y-31219735D01*
X139837102Y-31192769D01*
X139982941Y-31199687D01*
G37*
X108675068Y-55088947D02*
X108674525Y-55270679D01*
X108601912Y-55577763D01*
X108462100Y-56022220D01*
X108306749Y-56480077D01*
X108086382Y-57111362D01*
X107907390Y-57598391D01*
X107761796Y-57958891D01*
X107641622Y-58210587D01*
X107538892Y-58371207D01*
X107445628Y-58458475D01*
X107407958Y-58477290D01*
X107091153Y-58529767D01*
X106710010Y-58493144D01*
X106338868Y-58375494D01*
X106299852Y-58356968D01*
X106116194Y-58248302D01*
X105838235Y-58061945D01*
X105492097Y-57817571D01*
X105103902Y-57534856D01*
X104699772Y-57233476D01*
X104305827Y-56933107D01*
X103948191Y-56653425D01*
X103652984Y-56414105D01*
X103446329Y-56234822D01*
X103357326Y-56140563D01*
X103295993Y-55982514D01*
X103359305Y-55894816D01*
X103555932Y-55875962D01*
X103894544Y-55924443D01*
X104203341Y-55993401D01*
X104725566Y-56100625D01*
X105185857Y-56144607D01*
X105633276Y-56137069D01*
X106157718Y-56083016D01*
X106626339Y-55975093D01*
X107091419Y-55795407D01*
X107605235Y-55526063D01*
X107859182Y-55375174D01*
X108195599Y-55175682D01*
X108440474Y-55053467D01*
X108598674Y-55020549D01*
X108675068Y-55088947D01*
G36*
X108675068Y-55088947D02*
G01*
X108674525Y-55270679D01*
X108601912Y-55577763D01*
X108462100Y-56022220D01*
X108306749Y-56480077D01*
X108086382Y-57111362D01*
X107907390Y-57598391D01*
X107761796Y-57958891D01*
X107641622Y-58210587D01*
X107538892Y-58371207D01*
X107445628Y-58458475D01*
X107407958Y-58477290D01*
X107091153Y-58529767D01*
X106710010Y-58493144D01*
X106338868Y-58375494D01*
X106299852Y-58356968D01*
X106116194Y-58248302D01*
X105838235Y-58061945D01*
X105492097Y-57817571D01*
X105103902Y-57534856D01*
X104699772Y-57233476D01*
X104305827Y-56933107D01*
X103948191Y-56653425D01*
X103652984Y-56414105D01*
X103446329Y-56234822D01*
X103357326Y-56140563D01*
X103295993Y-55982514D01*
X103359305Y-55894816D01*
X103555932Y-55875962D01*
X103894544Y-55924443D01*
X104203341Y-55993401D01*
X104725566Y-56100625D01*
X105185857Y-56144607D01*
X105633276Y-56137069D01*
X106157718Y-56083016D01*
X106626339Y-55975093D01*
X107091419Y-55795407D01*
X107605235Y-55526063D01*
X107859182Y-55375174D01*
X108195599Y-55175682D01*
X108440474Y-55053467D01*
X108598674Y-55020549D01*
X108675068Y-55088947D01*
G37*
X133116455Y-32519797D02*
X133148294Y-32663089D01*
X133067031Y-32920314D01*
X133027336Y-33012853D01*
X132880372Y-33537717D01*
X132865387Y-34110706D01*
X132982196Y-34674084D01*
X133033072Y-34809319D01*
X133124974Y-35071555D01*
X133169052Y-35283212D01*
X133164635Y-35365976D01*
X133077993Y-35436932D01*
X132863214Y-35567330D01*
X132545397Y-35744544D01*
X132149637Y-35955950D01*
X131701031Y-36188921D01*
X131224677Y-36430834D01*
X130745670Y-36669063D01*
X130289107Y-36890983D01*
X129880086Y-37083969D01*
X129543703Y-37235396D01*
X129305054Y-37332639D01*
X129194037Y-37363400D01*
X129075322Y-37308417D01*
X128942714Y-37129981D01*
X128784300Y-36814925D01*
X128612678Y-36360338D01*
X128543589Y-35945392D01*
X128577759Y-35520202D01*
X128715911Y-35034881D01*
X128813881Y-34779422D01*
X129058293Y-34210254D01*
X129276170Y-33782929D01*
X129482474Y-33475120D01*
X129692168Y-33264499D01*
X129920027Y-33128823D01*
X130162797Y-33043255D01*
X130529700Y-32938674D01*
X130978039Y-32825068D01*
X131465116Y-32712427D01*
X131948233Y-32610738D01*
X132384693Y-32529992D01*
X132652261Y-32489630D01*
X132956211Y-32469093D01*
X133116455Y-32519797D01*
G36*
X133116455Y-32519797D02*
G01*
X133148294Y-32663089D01*
X133067031Y-32920314D01*
X133027336Y-33012853D01*
X132880372Y-33537717D01*
X132865387Y-34110706D01*
X132982196Y-34674084D01*
X133033072Y-34809319D01*
X133124974Y-35071555D01*
X133169052Y-35283212D01*
X133164635Y-35365976D01*
X133077993Y-35436932D01*
X132863214Y-35567330D01*
X132545397Y-35744544D01*
X132149637Y-35955950D01*
X131701031Y-36188921D01*
X131224677Y-36430834D01*
X130745670Y-36669063D01*
X130289107Y-36890983D01*
X129880086Y-37083969D01*
X129543703Y-37235396D01*
X129305054Y-37332639D01*
X129194037Y-37363400D01*
X129075322Y-37308417D01*
X128942714Y-37129981D01*
X128784300Y-36814925D01*
X128612678Y-36360338D01*
X128543589Y-35945392D01*
X128577759Y-35520202D01*
X128715911Y-35034881D01*
X128813881Y-34779422D01*
X129058293Y-34210254D01*
X129276170Y-33782929D01*
X129482474Y-33475120D01*
X129692168Y-33264499D01*
X129920027Y-33128823D01*
X130162797Y-33043255D01*
X130529700Y-32938674D01*
X130978039Y-32825068D01*
X131465116Y-32712427D01*
X131948233Y-32610738D01*
X132384693Y-32529992D01*
X132652261Y-32489630D01*
X132956211Y-32469093D01*
X133116455Y-32519797D01*
G37*
X101230558Y-47034560D02*
X101345804Y-47042450D01*
X101726725Y-47079158D01*
X102173583Y-47138063D01*
X102648498Y-47212342D01*
X103113591Y-47295175D01*
X103530985Y-47379739D01*
X103862799Y-47459213D01*
X104071156Y-47526775D01*
X104092619Y-47537141D01*
X104198658Y-47608758D01*
X104183770Y-47688728D01*
X104099631Y-47788058D01*
X103946949Y-47914392D01*
X103699449Y-48077493D01*
X103447592Y-48221787D01*
X102830907Y-48635486D01*
X102273630Y-49173055D01*
X101818802Y-49789823D01*
X101662303Y-50074620D01*
X101515335Y-50395396D01*
X101411755Y-50690138D01*
X101336927Y-51015102D01*
X101276219Y-51426547D01*
X101248407Y-51665740D01*
X101185038Y-52151308D01*
X101118390Y-52474908D01*
X101045111Y-52643904D01*
X100961853Y-52665662D01*
X100865265Y-52547546D01*
X100855429Y-52529607D01*
X100726263Y-52203151D01*
X100606747Y-51743005D01*
X100501064Y-51184725D01*
X100413398Y-50563864D01*
X100347934Y-49915978D01*
X100308854Y-49276622D01*
X100300342Y-48681351D01*
X100326582Y-48165720D01*
X100333840Y-48096855D01*
X100389103Y-47646086D01*
X100449792Y-47338406D01*
X100540096Y-47148614D01*
X100684200Y-47051510D01*
X100906292Y-47021893D01*
X101230558Y-47034560D01*
G36*
X101230558Y-47034560D02*
G01*
X101345804Y-47042450D01*
X101726725Y-47079158D01*
X102173583Y-47138063D01*
X102648498Y-47212342D01*
X103113591Y-47295175D01*
X103530985Y-47379739D01*
X103862799Y-47459213D01*
X104071156Y-47526775D01*
X104092619Y-47537141D01*
X104198658Y-47608758D01*
X104183770Y-47688728D01*
X104099631Y-47788058D01*
X103946949Y-47914392D01*
X103699449Y-48077493D01*
X103447592Y-48221787D01*
X102830907Y-48635486D01*
X102273630Y-49173055D01*
X101818802Y-49789823D01*
X101662303Y-50074620D01*
X101515335Y-50395396D01*
X101411755Y-50690138D01*
X101336927Y-51015102D01*
X101276219Y-51426547D01*
X101248407Y-51665740D01*
X101185038Y-52151308D01*
X101118390Y-52474908D01*
X101045111Y-52643904D01*
X100961853Y-52665662D01*
X100865265Y-52547546D01*
X100855429Y-52529607D01*
X100726263Y-52203151D01*
X100606747Y-51743005D01*
X100501064Y-51184725D01*
X100413398Y-50563864D01*
X100347934Y-49915978D01*
X100308854Y-49276622D01*
X100300342Y-48681351D01*
X100326582Y-48165720D01*
X100333840Y-48096855D01*
X100389103Y-47646086D01*
X100449792Y-47338406D01*
X100540096Y-47148614D01*
X100684200Y-47051510D01*
X100906292Y-47021893D01*
X101230558Y-47034560D01*
G37*
X99690799Y-71166213D02*
X99930381Y-71206154D01*
X100274111Y-71282010D01*
X100664100Y-71380522D01*
X100849610Y-71431644D01*
X101952442Y-71660431D01*
X103069984Y-71722687D01*
X103984723Y-71653076D01*
X104439671Y-71603048D01*
X104764284Y-71603843D01*
X104970693Y-71673656D01*
X105071032Y-71830680D01*
X105077431Y-72093111D01*
X105002022Y-72479141D01*
X104866203Y-72975046D01*
X104524849Y-73997957D01*
X104111597Y-74977347D01*
X103650795Y-75856833D01*
X103548125Y-76027010D01*
X103320973Y-76358680D01*
X103023705Y-76741373D01*
X102676041Y-77154674D01*
X102297704Y-77578167D01*
X101908412Y-77991436D01*
X101527887Y-78374066D01*
X101175848Y-78705642D01*
X100872018Y-78965747D01*
X100636116Y-79133966D01*
X100492755Y-79190069D01*
X100286260Y-79136481D01*
X100184420Y-79040566D01*
X100121616Y-78869347D01*
X100036739Y-78564228D01*
X99936836Y-78158119D01*
X99828953Y-77683930D01*
X99720137Y-77174572D01*
X99617434Y-76662955D01*
X99527891Y-76181989D01*
X99458554Y-75764585D01*
X99418499Y-75463400D01*
X99377276Y-75010350D01*
X99340072Y-74484300D01*
X99308001Y-73916854D01*
X99282179Y-73339618D01*
X99263721Y-72784196D01*
X99253742Y-72282195D01*
X99253359Y-71865219D01*
X99263687Y-71564874D01*
X99276738Y-71446808D01*
X99322832Y-71247906D01*
X99397415Y-71162598D01*
X99555888Y-71153337D01*
X99690799Y-71166213D01*
G36*
X99690799Y-71166213D02*
G01*
X99930381Y-71206154D01*
X100274111Y-71282010D01*
X100664100Y-71380522D01*
X100849610Y-71431644D01*
X101952442Y-71660431D01*
X103069984Y-71722687D01*
X103984723Y-71653076D01*
X104439671Y-71603048D01*
X104764284Y-71603843D01*
X104970693Y-71673656D01*
X105071032Y-71830680D01*
X105077431Y-72093111D01*
X105002022Y-72479141D01*
X104866203Y-72975046D01*
X104524849Y-73997957D01*
X104111597Y-74977347D01*
X103650795Y-75856833D01*
X103548125Y-76027010D01*
X103320973Y-76358680D01*
X103023705Y-76741373D01*
X102676041Y-77154674D01*
X102297704Y-77578167D01*
X101908412Y-77991436D01*
X101527887Y-78374066D01*
X101175848Y-78705642D01*
X100872018Y-78965747D01*
X100636116Y-79133966D01*
X100492755Y-79190069D01*
X100286260Y-79136481D01*
X100184420Y-79040566D01*
X100121616Y-78869347D01*
X100036739Y-78564228D01*
X99936836Y-78158119D01*
X99828953Y-77683930D01*
X99720137Y-77174572D01*
X99617434Y-76662955D01*
X99527891Y-76181989D01*
X99458554Y-75764585D01*
X99418499Y-75463400D01*
X99377276Y-75010350D01*
X99340072Y-74484300D01*
X99308001Y-73916854D01*
X99282179Y-73339618D01*
X99263721Y-72784196D01*
X99253742Y-72282195D01*
X99253359Y-71865219D01*
X99263687Y-71564874D01*
X99276738Y-71446808D01*
X99322832Y-71247906D01*
X99397415Y-71162598D01*
X99555888Y-71153337D01*
X99690799Y-71166213D01*
G37*
X119137894Y-36018836D02*
X119211397Y-36080330D01*
X119203086Y-36239989D01*
X119196091Y-36283900D01*
X119149975Y-36491380D01*
X119066349Y-36802847D01*
X118960743Y-37161473D01*
X118924268Y-37278733D01*
X118804036Y-37705397D01*
X118731411Y-38099237D01*
X118695203Y-38535726D01*
X118685775Y-38887400D01*
X118701880Y-39532630D01*
X118778160Y-40066508D01*
X118928982Y-40540701D01*
X119168714Y-41006876D01*
X119355524Y-41295938D01*
X119545643Y-41579548D01*
X119649744Y-41761370D01*
X119680223Y-41877419D01*
X119649475Y-41963705D01*
X119604350Y-42018880D01*
X119320926Y-42231629D01*
X118920302Y-42402819D01*
X118451557Y-42522912D01*
X117963768Y-42582374D01*
X117506012Y-42571669D01*
X117159564Y-42493896D01*
X116815250Y-42317238D01*
X116517290Y-42049124D01*
X116241546Y-41662859D01*
X116003726Y-41215733D01*
X115753411Y-40650955D01*
X115575905Y-40129206D01*
X115457922Y-39594121D01*
X115386175Y-38989339D01*
X115355048Y-38464066D01*
X115338146Y-38020343D01*
X115334192Y-37709994D01*
X115347281Y-37497290D01*
X115381513Y-37346504D01*
X115440983Y-37221907D01*
X115509531Y-37117009D01*
X115783917Y-36846738D01*
X116047276Y-36709393D01*
X116360166Y-36609336D01*
X116762252Y-36494834D01*
X117216275Y-36374915D01*
X117684977Y-36258608D01*
X118131099Y-36154941D01*
X118517382Y-36072941D01*
X118806568Y-36021639D01*
X118938848Y-36008733D01*
X119137894Y-36018836D01*
G36*
X119137894Y-36018836D02*
G01*
X119211397Y-36080330D01*
X119203086Y-36239989D01*
X119196091Y-36283900D01*
X119149975Y-36491380D01*
X119066349Y-36802847D01*
X118960743Y-37161473D01*
X118924268Y-37278733D01*
X118804036Y-37705397D01*
X118731411Y-38099237D01*
X118695203Y-38535726D01*
X118685775Y-38887400D01*
X118701880Y-39532630D01*
X118778160Y-40066508D01*
X118928982Y-40540701D01*
X119168714Y-41006876D01*
X119355524Y-41295938D01*
X119545643Y-41579548D01*
X119649744Y-41761370D01*
X119680223Y-41877419D01*
X119649475Y-41963705D01*
X119604350Y-42018880D01*
X119320926Y-42231629D01*
X118920302Y-42402819D01*
X118451557Y-42522912D01*
X117963768Y-42582374D01*
X117506012Y-42571669D01*
X117159564Y-42493896D01*
X116815250Y-42317238D01*
X116517290Y-42049124D01*
X116241546Y-41662859D01*
X116003726Y-41215733D01*
X115753411Y-40650955D01*
X115575905Y-40129206D01*
X115457922Y-39594121D01*
X115386175Y-38989339D01*
X115355048Y-38464066D01*
X115338146Y-38020343D01*
X115334192Y-37709994D01*
X115347281Y-37497290D01*
X115381513Y-37346504D01*
X115440983Y-37221907D01*
X115509531Y-37117009D01*
X115783917Y-36846738D01*
X116047276Y-36709393D01*
X116360166Y-36609336D01*
X116762252Y-36494834D01*
X117216275Y-36374915D01*
X117684977Y-36258608D01*
X118131099Y-36154941D01*
X118517382Y-36072941D01*
X118806568Y-36021639D01*
X118938848Y-36008733D01*
X119137894Y-36018836D01*
G37*
X128719646Y-33516544D02*
X128734025Y-33531959D01*
X128720822Y-33638355D01*
X128643911Y-33852347D01*
X128518892Y-34131921D01*
X128487366Y-34196277D01*
X128205728Y-34898795D01*
X128085322Y-35553812D01*
X128126393Y-36166323D01*
X128329184Y-36741329D01*
X128634449Y-37211323D01*
X128750281Y-37390864D01*
X128748144Y-37514759D01*
X128718876Y-37558278D01*
X128608970Y-37638034D01*
X128373170Y-37776673D01*
X128038525Y-37960399D01*
X127632085Y-38175419D01*
X127180900Y-38407938D01*
X126712020Y-38644162D01*
X126252494Y-38870298D01*
X125829371Y-39072550D01*
X125469703Y-39237124D01*
X125219169Y-39342980D01*
X124849850Y-39479864D01*
X124602685Y-39547260D01*
X124447285Y-39549188D01*
X124353260Y-39489671D01*
X124332404Y-39460317D01*
X124285078Y-39293910D01*
X124252414Y-38995539D01*
X124234916Y-38601980D01*
X124233087Y-38150011D01*
X124247431Y-37676408D01*
X124278449Y-37217948D01*
X124298990Y-37017653D01*
X124394419Y-36403545D01*
X124530365Y-35814091D01*
X124695891Y-35282912D01*
X124880061Y-34843628D01*
X125071937Y-34529860D01*
X125129281Y-34465318D01*
X125250790Y-34362375D01*
X125409333Y-34271494D01*
X125633325Y-34182201D01*
X125951181Y-34084026D01*
X126391318Y-33966497D01*
X126680818Y-33893543D01*
X127330928Y-33734333D01*
X127834627Y-33617599D01*
X128208631Y-33540397D01*
X128469658Y-33499783D01*
X128634424Y-33492813D01*
X128719646Y-33516544D01*
G36*
X128719646Y-33516544D02*
G01*
X128734025Y-33531959D01*
X128720822Y-33638355D01*
X128643911Y-33852347D01*
X128518892Y-34131921D01*
X128487366Y-34196277D01*
X128205728Y-34898795D01*
X128085322Y-35553812D01*
X128126393Y-36166323D01*
X128329184Y-36741329D01*
X128634449Y-37211323D01*
X128750281Y-37390864D01*
X128748144Y-37514759D01*
X128718876Y-37558278D01*
X128608970Y-37638034D01*
X128373170Y-37776673D01*
X128038525Y-37960399D01*
X127632085Y-38175419D01*
X127180900Y-38407938D01*
X126712020Y-38644162D01*
X126252494Y-38870298D01*
X125829371Y-39072550D01*
X125469703Y-39237124D01*
X125219169Y-39342980D01*
X124849850Y-39479864D01*
X124602685Y-39547260D01*
X124447285Y-39549188D01*
X124353260Y-39489671D01*
X124332404Y-39460317D01*
X124285078Y-39293910D01*
X124252414Y-38995539D01*
X124234916Y-38601980D01*
X124233087Y-38150011D01*
X124247431Y-37676408D01*
X124278449Y-37217948D01*
X124298990Y-37017653D01*
X124394419Y-36403545D01*
X124530365Y-35814091D01*
X124695891Y-35282912D01*
X124880061Y-34843628D01*
X125071937Y-34529860D01*
X125129281Y-34465318D01*
X125250790Y-34362375D01*
X125409333Y-34271494D01*
X125633325Y-34182201D01*
X125951181Y-34084026D01*
X126391318Y-33966497D01*
X126680818Y-33893543D01*
X127330928Y-33734333D01*
X127834627Y-33617599D01*
X128208631Y-33540397D01*
X128469658Y-33499783D01*
X128634424Y-33492813D01*
X128719646Y-33516544D01*
G37*
X124444703Y-34606513D02*
X124471610Y-34643189D01*
X124439388Y-34757089D01*
X124352306Y-34988694D01*
X124224739Y-35301178D01*
X124111776Y-35565013D01*
X123751943Y-36389733D01*
X123755196Y-37532733D01*
X123758945Y-38005343D01*
X123770842Y-38348610D01*
X123796559Y-38602507D01*
X123841771Y-38807006D01*
X123912152Y-39002079D01*
X123988029Y-39173101D01*
X124107205Y-39446378D01*
X124190202Y-39665527D01*
X124217610Y-39773640D01*
X124145002Y-39833867D01*
X123943475Y-39953749D01*
X123637475Y-40121155D01*
X123251445Y-40323953D01*
X122809832Y-40550012D01*
X122337081Y-40787200D01*
X121857636Y-41023386D01*
X121395942Y-41246439D01*
X120976446Y-41444227D01*
X120623590Y-41604619D01*
X120361822Y-41715483D01*
X120215586Y-41764689D01*
X120202814Y-41766066D01*
X120075738Y-41702293D01*
X119924532Y-41545969D01*
X119903791Y-41517938D01*
X119782293Y-41311792D01*
X119635216Y-41012241D01*
X119497825Y-40692438D01*
X119412140Y-40466989D01*
X119350862Y-40267095D01*
X119309868Y-40057557D01*
X119285036Y-39803176D01*
X119272243Y-39468752D01*
X119267366Y-39019087D01*
X119266576Y-38718066D01*
X119273506Y-38036984D01*
X119298460Y-37482137D01*
X119344480Y-37011092D01*
X119414609Y-36581415D01*
X119422672Y-36541031D01*
X119580734Y-35760995D01*
X120057672Y-35622032D01*
X121127902Y-35315734D01*
X122054311Y-35062287D01*
X122834487Y-34862225D01*
X123466024Y-34716082D01*
X123946511Y-34624393D01*
X124273541Y-34587692D01*
X124444703Y-34606513D01*
G36*
X124444703Y-34606513D02*
G01*
X124471610Y-34643189D01*
X124439388Y-34757089D01*
X124352306Y-34988694D01*
X124224739Y-35301178D01*
X124111776Y-35565013D01*
X123751943Y-36389733D01*
X123755196Y-37532733D01*
X123758945Y-38005343D01*
X123770842Y-38348610D01*
X123796559Y-38602507D01*
X123841771Y-38807006D01*
X123912152Y-39002079D01*
X123988029Y-39173101D01*
X124107205Y-39446378D01*
X124190202Y-39665527D01*
X124217610Y-39773640D01*
X124145002Y-39833867D01*
X123943475Y-39953749D01*
X123637475Y-40121155D01*
X123251445Y-40323953D01*
X122809832Y-40550012D01*
X122337081Y-40787200D01*
X121857636Y-41023386D01*
X121395942Y-41246439D01*
X120976446Y-41444227D01*
X120623590Y-41604619D01*
X120361822Y-41715483D01*
X120215586Y-41764689D01*
X120202814Y-41766066D01*
X120075738Y-41702293D01*
X119924532Y-41545969D01*
X119903791Y-41517938D01*
X119782293Y-41311792D01*
X119635216Y-41012241D01*
X119497825Y-40692438D01*
X119412140Y-40466989D01*
X119350862Y-40267095D01*
X119309868Y-40057557D01*
X119285036Y-39803176D01*
X119272243Y-39468752D01*
X119267366Y-39019087D01*
X119266576Y-38718066D01*
X119273506Y-38036984D01*
X119298460Y-37482137D01*
X119344480Y-37011092D01*
X119414609Y-36581415D01*
X119422672Y-36541031D01*
X119580734Y-35760995D01*
X120057672Y-35622032D01*
X121127902Y-35315734D01*
X122054311Y-35062287D01*
X122834487Y-34862225D01*
X123466024Y-34716082D01*
X123946511Y-34624393D01*
X124273541Y-34587692D01*
X124444703Y-34606513D01*
G37*
X56852511Y-98506723D02*
X56981207Y-98577204D01*
X57076746Y-98751250D01*
X57104820Y-98819959D01*
X57201966Y-99124308D01*
X57306875Y-99556558D01*
X57412012Y-100075969D01*
X57509846Y-100641798D01*
X57592845Y-101213307D01*
X57653475Y-101749755D01*
X57660012Y-101822795D01*
X57690712Y-102833338D01*
X57622156Y-103946463D01*
X57458208Y-105130437D01*
X57202730Y-106353528D01*
X57027081Y-107022614D01*
X56867015Y-107575627D01*
X56738404Y-107977367D01*
X56633427Y-108241274D01*
X56544266Y-108380791D01*
X56463102Y-108409361D01*
X56382115Y-108340424D01*
X56319806Y-108238487D01*
X56280882Y-108102885D01*
X56228486Y-107831212D01*
X56167947Y-107455681D01*
X56104592Y-107008509D01*
X56064258Y-106693320D01*
X55917217Y-105597156D01*
X55762582Y-104653924D01*
X55596798Y-103847271D01*
X55416309Y-103160844D01*
X55217562Y-102578290D01*
X55117094Y-102336313D01*
X54954161Y-102004512D01*
X54721852Y-101578717D01*
X54447131Y-101104189D01*
X54156962Y-100626190D01*
X53878310Y-100189982D01*
X53638138Y-99840826D01*
X53598682Y-99787532D01*
X53367544Y-99439149D01*
X53271508Y-99179051D01*
X53310372Y-98993705D01*
X53483934Y-98869581D01*
X53584443Y-98835851D01*
X53870323Y-98781387D01*
X54208930Y-98749908D01*
X54325276Y-98746883D01*
X54609069Y-98732144D01*
X54989510Y-98693668D01*
X55396805Y-98638875D01*
X55510610Y-98620889D01*
X55899723Y-98563258D01*
X56269701Y-98519248D01*
X56557258Y-98496064D01*
X56623250Y-98494211D01*
X56852511Y-98506723D01*
G36*
X56852511Y-98506723D02*
G01*
X56981207Y-98577204D01*
X57076746Y-98751250D01*
X57104820Y-98819959D01*
X57201966Y-99124308D01*
X57306875Y-99556558D01*
X57412012Y-100075969D01*
X57509846Y-100641798D01*
X57592845Y-101213307D01*
X57653475Y-101749755D01*
X57660012Y-101822795D01*
X57690712Y-102833338D01*
X57622156Y-103946463D01*
X57458208Y-105130437D01*
X57202730Y-106353528D01*
X57027081Y-107022614D01*
X56867015Y-107575627D01*
X56738404Y-107977367D01*
X56633427Y-108241274D01*
X56544266Y-108380791D01*
X56463102Y-108409361D01*
X56382115Y-108340424D01*
X56319806Y-108238487D01*
X56280882Y-108102885D01*
X56228486Y-107831212D01*
X56167947Y-107455681D01*
X56104592Y-107008509D01*
X56064258Y-106693320D01*
X55917217Y-105597156D01*
X55762582Y-104653924D01*
X55596798Y-103847271D01*
X55416309Y-103160844D01*
X55217562Y-102578290D01*
X55117094Y-102336313D01*
X54954161Y-102004512D01*
X54721852Y-101578717D01*
X54447131Y-101104189D01*
X54156962Y-100626190D01*
X53878310Y-100189982D01*
X53638138Y-99840826D01*
X53598682Y-99787532D01*
X53367544Y-99439149D01*
X53271508Y-99179051D01*
X53310372Y-98993705D01*
X53483934Y-98869581D01*
X53584443Y-98835851D01*
X53870323Y-98781387D01*
X54208930Y-98749908D01*
X54325276Y-98746883D01*
X54609069Y-98732144D01*
X54989510Y-98693668D01*
X55396805Y-98638875D01*
X55510610Y-98620889D01*
X55899723Y-98563258D01*
X56269701Y-98519248D01*
X56557258Y-98496064D01*
X56623250Y-98494211D01*
X56852511Y-98506723D01*
G37*
X77695753Y-93643557D02*
X77957144Y-93814548D01*
X78281490Y-94074822D01*
X78645847Y-94404157D01*
X79027272Y-94782334D01*
X79402823Y-95189134D01*
X79585777Y-95402400D01*
X80476118Y-96573821D01*
X81227826Y-97794633D01*
X81495415Y-98304936D01*
X81888691Y-99090806D01*
X81628978Y-99468286D01*
X81331354Y-99821355D01*
X80903571Y-100216956D01*
X80372588Y-100634475D01*
X79765365Y-101053296D01*
X79108862Y-101452805D01*
X78836276Y-101603780D01*
X78440680Y-101789403D01*
X77912508Y-101997387D01*
X77285388Y-102217699D01*
X76592949Y-102440307D01*
X75868821Y-102655178D01*
X75146633Y-102852279D01*
X74460014Y-103021577D01*
X73842593Y-103153040D01*
X73390316Y-103228498D01*
X73021398Y-103266359D01*
X72579920Y-103292702D01*
X72103921Y-103307444D01*
X71631441Y-103310502D01*
X71200518Y-103301793D01*
X70849192Y-103281235D01*
X70615501Y-103248744D01*
X70568773Y-103234633D01*
X70453147Y-103180619D01*
X70372683Y-103107615D01*
X70316279Y-102983457D01*
X70272835Y-102775985D01*
X70231249Y-102453036D01*
X70199976Y-102166146D01*
X70149014Y-101687683D01*
X70092932Y-101160078D01*
X70041899Y-100679026D01*
X70030183Y-100568389D01*
X69995136Y-100174014D01*
X69990615Y-99916839D01*
X70017434Y-99767358D01*
X70053810Y-99712332D01*
X70177437Y-99646550D01*
X70421173Y-99550392D01*
X70742328Y-99440057D01*
X70912262Y-99386569D01*
X71900442Y-99030041D01*
X72861069Y-98579118D01*
X73756707Y-98055173D01*
X74549926Y-97479583D01*
X75068939Y-97013049D01*
X75553141Y-96477594D01*
X76056648Y-95830753D01*
X76544005Y-95121375D01*
X76979759Y-94398308D01*
X77021450Y-94322900D01*
X77201651Y-94009919D01*
X77360861Y-93762352D01*
X77477518Y-93612226D01*
X77520259Y-93582066D01*
X77695753Y-93643557D01*
G36*
X77695753Y-93643557D02*
G01*
X77957144Y-93814548D01*
X78281490Y-94074822D01*
X78645847Y-94404157D01*
X79027272Y-94782334D01*
X79402823Y-95189134D01*
X79585777Y-95402400D01*
X80476118Y-96573821D01*
X81227826Y-97794633D01*
X81495415Y-98304936D01*
X81888691Y-99090806D01*
X81628978Y-99468286D01*
X81331354Y-99821355D01*
X80903571Y-100216956D01*
X80372588Y-100634475D01*
X79765365Y-101053296D01*
X79108862Y-101452805D01*
X78836276Y-101603780D01*
X78440680Y-101789403D01*
X77912508Y-101997387D01*
X77285388Y-102217699D01*
X76592949Y-102440307D01*
X75868821Y-102655178D01*
X75146633Y-102852279D01*
X74460014Y-103021577D01*
X73842593Y-103153040D01*
X73390316Y-103228498D01*
X73021398Y-103266359D01*
X72579920Y-103292702D01*
X72103921Y-103307444D01*
X71631441Y-103310502D01*
X71200518Y-103301793D01*
X70849192Y-103281235D01*
X70615501Y-103248744D01*
X70568773Y-103234633D01*
X70453147Y-103180619D01*
X70372683Y-103107615D01*
X70316279Y-102983457D01*
X70272835Y-102775985D01*
X70231249Y-102453036D01*
X70199976Y-102166146D01*
X70149014Y-101687683D01*
X70092932Y-101160078D01*
X70041899Y-100679026D01*
X70030183Y-100568389D01*
X69995136Y-100174014D01*
X69990615Y-99916839D01*
X70017434Y-99767358D01*
X70053810Y-99712332D01*
X70177437Y-99646550D01*
X70421173Y-99550392D01*
X70742328Y-99440057D01*
X70912262Y-99386569D01*
X71900442Y-99030041D01*
X72861069Y-98579118D01*
X73756707Y-98055173D01*
X74549926Y-97479583D01*
X75068939Y-97013049D01*
X75553141Y-96477594D01*
X76056648Y-95830753D01*
X76544005Y-95121375D01*
X76979759Y-94398308D01*
X77021450Y-94322900D01*
X77201651Y-94009919D01*
X77360861Y-93762352D01*
X77477518Y-93612226D01*
X77520259Y-93582066D01*
X77695753Y-93643557D01*
G37*
X132191052Y-91672502D02*
X132314930Y-91725637D01*
X132535371Y-91885027D01*
X132836494Y-92163253D01*
X133201598Y-92540619D01*
X133613984Y-92997432D01*
X134056953Y-93513996D01*
X134513804Y-94070617D01*
X134967837Y-94647600D01*
X135402354Y-95225250D01*
X135800654Y-95783873D01*
X135978832Y-96046627D01*
X136241989Y-96459524D01*
X136524588Y-96932396D01*
X136814136Y-97441112D01*
X137098140Y-97961543D01*
X137364106Y-98469556D01*
X137599542Y-98941023D01*
X137791955Y-99351811D01*
X137928852Y-99677791D01*
X137997740Y-99894833D01*
X138002670Y-99955735D01*
X137965355Y-100050360D01*
X137864164Y-100137195D01*
X137671071Y-100231305D01*
X137358047Y-100347758D01*
X137129276Y-100425238D01*
X136337120Y-100670666D01*
X135420917Y-100924267D01*
X134417983Y-101177880D01*
X133365635Y-101423349D01*
X132301189Y-101652514D01*
X131261961Y-101857217D01*
X130285269Y-102029300D01*
X129408428Y-102160603D01*
X128927888Y-102218313D01*
X128415687Y-102261207D01*
X127870427Y-102287955D01*
X127324243Y-102298963D01*
X126809267Y-102294640D01*
X126357634Y-102275394D01*
X126001477Y-102241633D01*
X125772930Y-102193764D01*
X125736027Y-102177804D01*
X125589516Y-102044449D01*
X125399662Y-101795191D01*
X125194377Y-101467738D01*
X125143360Y-101377067D01*
X124948267Y-101028723D01*
X124701687Y-100597733D01*
X124428344Y-100126380D01*
X124152962Y-99656945D01*
X123900267Y-99231711D01*
X123694983Y-98892960D01*
X123625507Y-98781344D01*
X123547089Y-98623209D01*
X123583748Y-98509354D01*
X123667840Y-98422977D01*
X123818145Y-98336879D01*
X124090676Y-98229215D01*
X124442469Y-98115653D01*
X124720447Y-98039103D01*
X125946650Y-97652434D01*
X127063663Y-97143788D01*
X128088743Y-96503816D01*
X129039144Y-95723173D01*
X129098648Y-95667432D01*
X130036817Y-94680234D01*
X130832048Y-93627657D01*
X131413154Y-92642258D01*
X131638532Y-92215263D01*
X131810788Y-91923313D01*
X131948144Y-91747885D01*
X132068824Y-91670456D01*
X132191052Y-91672502D01*
G36*
X132191052Y-91672502D02*
G01*
X132314930Y-91725637D01*
X132535371Y-91885027D01*
X132836494Y-92163253D01*
X133201598Y-92540619D01*
X133613984Y-92997432D01*
X134056953Y-93513996D01*
X134513804Y-94070617D01*
X134967837Y-94647600D01*
X135402354Y-95225250D01*
X135800654Y-95783873D01*
X135978832Y-96046627D01*
X136241989Y-96459524D01*
X136524588Y-96932396D01*
X136814136Y-97441112D01*
X137098140Y-97961543D01*
X137364106Y-98469556D01*
X137599542Y-98941023D01*
X137791955Y-99351811D01*
X137928852Y-99677791D01*
X137997740Y-99894833D01*
X138002670Y-99955735D01*
X137965355Y-100050360D01*
X137864164Y-100137195D01*
X137671071Y-100231305D01*
X137358047Y-100347758D01*
X137129276Y-100425238D01*
X136337120Y-100670666D01*
X135420917Y-100924267D01*
X134417983Y-101177880D01*
X133365635Y-101423349D01*
X132301189Y-101652514D01*
X131261961Y-101857217D01*
X130285269Y-102029300D01*
X129408428Y-102160603D01*
X128927888Y-102218313D01*
X128415687Y-102261207D01*
X127870427Y-102287955D01*
X127324243Y-102298963D01*
X126809267Y-102294640D01*
X126357634Y-102275394D01*
X126001477Y-102241633D01*
X125772930Y-102193764D01*
X125736027Y-102177804D01*
X125589516Y-102044449D01*
X125399662Y-101795191D01*
X125194377Y-101467738D01*
X125143360Y-101377067D01*
X124948267Y-101028723D01*
X124701687Y-100597733D01*
X124428344Y-100126380D01*
X124152962Y-99656945D01*
X123900267Y-99231711D01*
X123694983Y-98892960D01*
X123625507Y-98781344D01*
X123547089Y-98623209D01*
X123583748Y-98509354D01*
X123667840Y-98422977D01*
X123818145Y-98336879D01*
X124090676Y-98229215D01*
X124442469Y-98115653D01*
X124720447Y-98039103D01*
X125946650Y-97652434D01*
X127063663Y-97143788D01*
X128088743Y-96503816D01*
X129039144Y-95723173D01*
X129098648Y-95667432D01*
X130036817Y-94680234D01*
X130832048Y-93627657D01*
X131413154Y-92642258D01*
X131638532Y-92215263D01*
X131810788Y-91923313D01*
X131948144Y-91747885D01*
X132068824Y-91670456D01*
X132191052Y-91672502D01*
G37*
X119382140Y-95228169D02*
X119554376Y-95352469D01*
X119812735Y-95584010D01*
X120135170Y-95899752D01*
X120499634Y-96276654D01*
X120884081Y-96691675D01*
X121266465Y-97121775D01*
X121624740Y-97543913D01*
X121776704Y-97730733D01*
X122171367Y-98245709D01*
X122584153Y-98823554D01*
X123002740Y-99443388D01*
X123414809Y-100084332D01*
X123808036Y-100725507D01*
X124170101Y-101346033D01*
X124488682Y-101925031D01*
X124751457Y-102441623D01*
X124946106Y-102874928D01*
X125060307Y-103204068D01*
X125084610Y-103336131D01*
X125078319Y-103531492D01*
X124991277Y-103655241D01*
X124810276Y-103758681D01*
X124572356Y-103851629D01*
X124191445Y-103972905D01*
X123690474Y-104117009D01*
X123092373Y-104278443D01*
X122420071Y-104451709D01*
X121696499Y-104631308D01*
X120944587Y-104811741D01*
X120187265Y-104987511D01*
X119447462Y-105153119D01*
X118748110Y-105303067D01*
X118112137Y-105431855D01*
X117562475Y-105533986D01*
X117122052Y-105603960D01*
X117105610Y-105606205D01*
X116755584Y-105642302D01*
X116293786Y-105673596D01*
X115754795Y-105699372D01*
X115173189Y-105718916D01*
X114583546Y-105731516D01*
X114020447Y-105736456D01*
X113518469Y-105733024D01*
X113112190Y-105720505D01*
X112836191Y-105698185D01*
X112813497Y-105694819D01*
X112335236Y-105562948D01*
X111908768Y-105317033D01*
X111493950Y-104932936D01*
X111432413Y-104864370D01*
X111138073Y-104462870D01*
X110861740Y-103965334D01*
X110623909Y-103421639D01*
X110445075Y-102881662D01*
X110345733Y-102395279D01*
X110332276Y-102187043D01*
X110330502Y-102113624D01*
X110338704Y-102055863D01*
X110377168Y-102005663D01*
X110466181Y-101954928D01*
X110626029Y-101895560D01*
X110877000Y-101819464D01*
X111239379Y-101718542D01*
X111733453Y-101584698D01*
X112067943Y-101494317D01*
X113254563Y-101086511D01*
X114388630Y-100523269D01*
X115456615Y-99813932D01*
X116444986Y-98967840D01*
X117340213Y-97994333D01*
X117581325Y-97688400D01*
X118153897Y-96872419D01*
X118575688Y-96127589D01*
X118762792Y-95698733D01*
X118907910Y-95376976D01*
X119051273Y-95206046D01*
X119215011Y-95169130D01*
X119382140Y-95228169D01*
G36*
X119382140Y-95228169D02*
G01*
X119554376Y-95352469D01*
X119812735Y-95584010D01*
X120135170Y-95899752D01*
X120499634Y-96276654D01*
X120884081Y-96691675D01*
X121266465Y-97121775D01*
X121624740Y-97543913D01*
X121776704Y-97730733D01*
X122171367Y-98245709D01*
X122584153Y-98823554D01*
X123002740Y-99443388D01*
X123414809Y-100084332D01*
X123808036Y-100725507D01*
X124170101Y-101346033D01*
X124488682Y-101925031D01*
X124751457Y-102441623D01*
X124946106Y-102874928D01*
X125060307Y-103204068D01*
X125084610Y-103336131D01*
X125078319Y-103531492D01*
X124991277Y-103655241D01*
X124810276Y-103758681D01*
X124572356Y-103851629D01*
X124191445Y-103972905D01*
X123690474Y-104117009D01*
X123092373Y-104278443D01*
X122420071Y-104451709D01*
X121696499Y-104631308D01*
X120944587Y-104811741D01*
X120187265Y-104987511D01*
X119447462Y-105153119D01*
X118748110Y-105303067D01*
X118112137Y-105431855D01*
X117562475Y-105533986D01*
X117122052Y-105603960D01*
X117105610Y-105606205D01*
X116755584Y-105642302D01*
X116293786Y-105673596D01*
X115754795Y-105699372D01*
X115173189Y-105718916D01*
X114583546Y-105731516D01*
X114020447Y-105736456D01*
X113518469Y-105733024D01*
X113112190Y-105720505D01*
X112836191Y-105698185D01*
X112813497Y-105694819D01*
X112335236Y-105562948D01*
X111908768Y-105317033D01*
X111493950Y-104932936D01*
X111432413Y-104864370D01*
X111138073Y-104462870D01*
X110861740Y-103965334D01*
X110623909Y-103421639D01*
X110445075Y-102881662D01*
X110345733Y-102395279D01*
X110332276Y-102187043D01*
X110330502Y-102113624D01*
X110338704Y-102055863D01*
X110377168Y-102005663D01*
X110466181Y-101954928D01*
X110626029Y-101895560D01*
X110877000Y-101819464D01*
X111239379Y-101718542D01*
X111733453Y-101584698D01*
X112067943Y-101494317D01*
X113254563Y-101086511D01*
X114388630Y-100523269D01*
X115456615Y-99813932D01*
X116444986Y-98967840D01*
X117340213Y-97994333D01*
X117581325Y-97688400D01*
X118153897Y-96872419D01*
X118575688Y-96127589D01*
X118762792Y-95698733D01*
X118907910Y-95376976D01*
X119051273Y-95206046D01*
X119215011Y-95169130D01*
X119382140Y-95228169D01*
G37*
X104584222Y-20796477D02*
X105090892Y-20829684D01*
X105688429Y-20883778D01*
X106351557Y-20955787D01*
X107055002Y-21042738D01*
X107773488Y-21141658D01*
X108481742Y-21249577D01*
X109154488Y-21363520D01*
X109766453Y-21480517D01*
X109863305Y-21500640D01*
X111157956Y-21812889D01*
X112425334Y-22195177D01*
X113638486Y-22636567D01*
X114770457Y-23126123D01*
X115794294Y-23652910D01*
X116683043Y-24205992D01*
X116883381Y-24348866D01*
X117267726Y-24654798D01*
X117718944Y-25051446D01*
X118206255Y-25508116D01*
X118698881Y-25994114D01*
X119166044Y-26478745D01*
X119576965Y-26931317D01*
X119900865Y-27321135D01*
X120007651Y-27464539D01*
X120294339Y-27906561D01*
X120623518Y-28476308D01*
X120980001Y-29142298D01*
X121348600Y-29873049D01*
X121714129Y-30637078D01*
X122061401Y-31402904D01*
X122375228Y-32139044D01*
X122640424Y-32814017D01*
X122785664Y-33223290D01*
X122908087Y-33611755D01*
X122970236Y-33876531D01*
X122977844Y-34049867D01*
X122949157Y-34143175D01*
X122814426Y-34260845D01*
X122552629Y-34388995D01*
X122204271Y-34513747D01*
X121809860Y-34621225D01*
X121409900Y-34697554D01*
X121284541Y-34713439D01*
X121020727Y-34733256D01*
X120867931Y-34709287D01*
X120770226Y-34626092D01*
X120725584Y-34559139D01*
X120612317Y-34368812D01*
X120459737Y-34105566D01*
X120370787Y-33949657D01*
X120144319Y-33596602D01*
X119824975Y-33161963D01*
X119442156Y-32681302D01*
X119025258Y-32190178D01*
X118603681Y-31724154D01*
X118206824Y-31318789D01*
X118153331Y-31267400D01*
X117153049Y-30403520D01*
X116015296Y-29576272D01*
X114770628Y-28801290D01*
X113449601Y-28094210D01*
X112082770Y-27470667D01*
X110700691Y-26946296D01*
X109333920Y-26536732D01*
X108557787Y-26357448D01*
X108101764Y-26278420D01*
X107553359Y-26204269D01*
X106989462Y-26144507D01*
X106591829Y-26114208D01*
X106175675Y-26083775D01*
X105819405Y-26046732D01*
X105557937Y-26007496D01*
X105426186Y-25970482D01*
X105420402Y-25966059D01*
X105360749Y-25851352D01*
X105271856Y-25615114D01*
X105168876Y-25299225D01*
X105120577Y-25137425D01*
X104987105Y-24723462D01*
X104809470Y-24235182D01*
X104616833Y-23750908D01*
X104523325Y-23533226D01*
X104286303Y-22980165D01*
X104072131Y-22444591D01*
X103890846Y-21954696D01*
X103752484Y-21538673D01*
X103667082Y-21224714D01*
X103643610Y-21062157D01*
X103676673Y-20917555D01*
X103806463Y-20837267D01*
X103944576Y-20804611D01*
X104193691Y-20787128D01*
X104584222Y-20796477D01*
G36*
X104584222Y-20796477D02*
G01*
X105090892Y-20829684D01*
X105688429Y-20883778D01*
X106351557Y-20955787D01*
X107055002Y-21042738D01*
X107773488Y-21141658D01*
X108481742Y-21249577D01*
X109154488Y-21363520D01*
X109766453Y-21480517D01*
X109863305Y-21500640D01*
X111157956Y-21812889D01*
X112425334Y-22195177D01*
X113638486Y-22636567D01*
X114770457Y-23126123D01*
X115794294Y-23652910D01*
X116683043Y-24205992D01*
X116883381Y-24348866D01*
X117267726Y-24654798D01*
X117718944Y-25051446D01*
X118206255Y-25508116D01*
X118698881Y-25994114D01*
X119166044Y-26478745D01*
X119576965Y-26931317D01*
X119900865Y-27321135D01*
X120007651Y-27464539D01*
X120294339Y-27906561D01*
X120623518Y-28476308D01*
X120980001Y-29142298D01*
X121348600Y-29873049D01*
X121714129Y-30637078D01*
X122061401Y-31402904D01*
X122375228Y-32139044D01*
X122640424Y-32814017D01*
X122785664Y-33223290D01*
X122908087Y-33611755D01*
X122970236Y-33876531D01*
X122977844Y-34049867D01*
X122949157Y-34143175D01*
X122814426Y-34260845D01*
X122552629Y-34388995D01*
X122204271Y-34513747D01*
X121809860Y-34621225D01*
X121409900Y-34697554D01*
X121284541Y-34713439D01*
X121020727Y-34733256D01*
X120867931Y-34709287D01*
X120770226Y-34626092D01*
X120725584Y-34559139D01*
X120612317Y-34368812D01*
X120459737Y-34105566D01*
X120370787Y-33949657D01*
X120144319Y-33596602D01*
X119824975Y-33161963D01*
X119442156Y-32681302D01*
X119025258Y-32190178D01*
X118603681Y-31724154D01*
X118206824Y-31318789D01*
X118153331Y-31267400D01*
X117153049Y-30403520D01*
X116015296Y-29576272D01*
X114770628Y-28801290D01*
X113449601Y-28094210D01*
X112082770Y-27470667D01*
X110700691Y-26946296D01*
X109333920Y-26536732D01*
X108557787Y-26357448D01*
X108101764Y-26278420D01*
X107553359Y-26204269D01*
X106989462Y-26144507D01*
X106591829Y-26114208D01*
X106175675Y-26083775D01*
X105819405Y-26046732D01*
X105557937Y-26007496D01*
X105426186Y-25970482D01*
X105420402Y-25966059D01*
X105360749Y-25851352D01*
X105271856Y-25615114D01*
X105168876Y-25299225D01*
X105120577Y-25137425D01*
X104987105Y-24723462D01*
X104809470Y-24235182D01*
X104616833Y-23750908D01*
X104523325Y-23533226D01*
X104286303Y-22980165D01*
X104072131Y-22444591D01*
X103890846Y-21954696D01*
X103752484Y-21538673D01*
X103667082Y-21224714D01*
X103643610Y-21062157D01*
X103676673Y-20917555D01*
X103806463Y-20837267D01*
X103944576Y-20804611D01*
X104193691Y-20787128D01*
X104584222Y-20796477D01*
G37*
X43016795Y-69748529D02*
X43698832Y-69884186D01*
X44378970Y-70125438D01*
X45095374Y-70484685D01*
X45573236Y-70771318D01*
X45889552Y-70971000D01*
X45334475Y-72633911D01*
X44779398Y-74296823D01*
X44387670Y-74463766D01*
X43772671Y-74738646D01*
X43285800Y-74990557D01*
X42892455Y-75243354D01*
X42558033Y-75520888D01*
X42247931Y-75847010D01*
X42071612Y-76060239D01*
X41816428Y-76432967D01*
X41644480Y-76824112D01*
X41543548Y-77276766D01*
X41501413Y-77834019D01*
X41498276Y-78082057D01*
X41533753Y-78767979D01*
X41648783Y-79413548D01*
X41856265Y-80067000D01*
X42169099Y-80776574D01*
X42275426Y-80988178D01*
X42657865Y-81686601D01*
X43048449Y-82293788D01*
X43476577Y-82844657D01*
X43971648Y-83374127D01*
X44563059Y-83917114D01*
X45155575Y-84409031D01*
X46145875Y-85203991D01*
X46961221Y-86830096D01*
X47484956Y-87854737D01*
X47962934Y-88746278D01*
X48409382Y-89529975D01*
X48838527Y-90231081D01*
X49119349Y-90661066D01*
X49415444Y-91109450D01*
X49618719Y-91454869D01*
X49731782Y-91734243D01*
X49757240Y-91984491D01*
X49697701Y-92242531D01*
X49555772Y-92545284D01*
X49334061Y-92929666D01*
X49285342Y-93011278D01*
X49062025Y-93405409D01*
X48842983Y-93826515D01*
X48664844Y-94203077D01*
X48616361Y-94317471D01*
X48460125Y-94657963D01*
X48306118Y-94854634D01*
X48123234Y-94915427D01*
X47880365Y-94848285D01*
X47546402Y-94661151D01*
X47467276Y-94610882D01*
X47252479Y-94479405D01*
X46916048Y-94281639D01*
X46484715Y-94032916D01*
X45985212Y-93748566D01*
X45444271Y-93443921D01*
X45011943Y-93202724D01*
X43786211Y-92502817D01*
X42599415Y-91788065D01*
X41480823Y-91077104D01*
X40459703Y-90388570D01*
X39565321Y-89741103D01*
X39510303Y-89699386D01*
X39031134Y-89311353D01*
X38483862Y-88829011D01*
X37897112Y-88281004D01*
X37299506Y-87695976D01*
X36719670Y-87102570D01*
X36186227Y-86529429D01*
X35727801Y-86005198D01*
X35375124Y-85561379D01*
X34652593Y-84499150D01*
X34028840Y-83411975D01*
X33512116Y-82320545D01*
X33110668Y-81245547D01*
X32832745Y-80207670D01*
X32686596Y-79227604D01*
X32665513Y-78765400D01*
X32733421Y-77783462D01*
X32940957Y-76765752D01*
X33273510Y-75746379D01*
X33716468Y-74759456D01*
X34255220Y-73839093D01*
X34875154Y-73019403D01*
X35331984Y-72540362D01*
X36243505Y-71783216D01*
X37260589Y-71125498D01*
X38354798Y-70578784D01*
X39497699Y-70154647D01*
X40660853Y-69864665D01*
X41815827Y-69720412D01*
X42294690Y-69706066D01*
X43016795Y-69748529D01*
G36*
X43016795Y-69748529D02*
G01*
X43698832Y-69884186D01*
X44378970Y-70125438D01*
X45095374Y-70484685D01*
X45573236Y-70771318D01*
X45889552Y-70971000D01*
X45334475Y-72633911D01*
X44779398Y-74296823D01*
X44387670Y-74463766D01*
X43772671Y-74738646D01*
X43285800Y-74990557D01*
X42892455Y-75243354D01*
X42558033Y-75520888D01*
X42247931Y-75847010D01*
X42071612Y-76060239D01*
X41816428Y-76432967D01*
X41644480Y-76824112D01*
X41543548Y-77276766D01*
X41501413Y-77834019D01*
X41498276Y-78082057D01*
X41533753Y-78767979D01*
X41648783Y-79413548D01*
X41856265Y-80067000D01*
X42169099Y-80776574D01*
X42275426Y-80988178D01*
X42657865Y-81686601D01*
X43048449Y-82293788D01*
X43476577Y-82844657D01*
X43971648Y-83374127D01*
X44563059Y-83917114D01*
X45155575Y-84409031D01*
X46145875Y-85203991D01*
X46961221Y-86830096D01*
X47484956Y-87854737D01*
X47962934Y-88746278D01*
X48409382Y-89529975D01*
X48838527Y-90231081D01*
X49119349Y-90661066D01*
X49415444Y-91109450D01*
X49618719Y-91454869D01*
X49731782Y-91734243D01*
X49757240Y-91984491D01*
X49697701Y-92242531D01*
X49555772Y-92545284D01*
X49334061Y-92929666D01*
X49285342Y-93011278D01*
X49062025Y-93405409D01*
X48842983Y-93826515D01*
X48664844Y-94203077D01*
X48616361Y-94317471D01*
X48460125Y-94657963D01*
X48306118Y-94854634D01*
X48123234Y-94915427D01*
X47880365Y-94848285D01*
X47546402Y-94661151D01*
X47467276Y-94610882D01*
X47252479Y-94479405D01*
X46916048Y-94281639D01*
X46484715Y-94032916D01*
X45985212Y-93748566D01*
X45444271Y-93443921D01*
X45011943Y-93202724D01*
X43786211Y-92502817D01*
X42599415Y-91788065D01*
X41480823Y-91077104D01*
X40459703Y-90388570D01*
X39565321Y-89741103D01*
X39510303Y-89699386D01*
X39031134Y-89311353D01*
X38483862Y-88829011D01*
X37897112Y-88281004D01*
X37299506Y-87695976D01*
X36719670Y-87102570D01*
X36186227Y-86529429D01*
X35727801Y-86005198D01*
X35375124Y-85561379D01*
X34652593Y-84499150D01*
X34028840Y-83411975D01*
X33512116Y-82320545D01*
X33110668Y-81245547D01*
X32832745Y-80207670D01*
X32686596Y-79227604D01*
X32665513Y-78765400D01*
X32733421Y-77783462D01*
X32940957Y-76765752D01*
X33273510Y-75746379D01*
X33716468Y-74759456D01*
X34255220Y-73839093D01*
X34875154Y-73019403D01*
X35331984Y-72540362D01*
X36243505Y-71783216D01*
X37260589Y-71125498D01*
X38354798Y-70578784D01*
X39497699Y-70154647D01*
X40660853Y-69864665D01*
X41815827Y-69720412D01*
X42294690Y-69706066D01*
X43016795Y-69748529D01*
G37*
X125512588Y-39962391D02*
X125620881Y-40024487D01*
X125760329Y-40147885D01*
X125947092Y-40347999D01*
X126197329Y-40640244D01*
X126527200Y-41040032D01*
X126773969Y-41342733D01*
X127319858Y-41988650D01*
X127820698Y-42523008D01*
X128313534Y-42982350D01*
X128835409Y-43403220D01*
X128946648Y-43486082D01*
X129250260Y-43692192D01*
X129617213Y-43915213D01*
X130012493Y-44136866D01*
X130401088Y-44338871D01*
X130747985Y-44502948D01*
X131018168Y-44610816D01*
X131165904Y-44644733D01*
X131329641Y-44712748D01*
X131412107Y-44810013D01*
X131449821Y-44958928D01*
X131362788Y-45101501D01*
X131317188Y-45146134D01*
X131092589Y-45289238D01*
X130723227Y-45445928D01*
X130232607Y-45610807D01*
X129644230Y-45778480D01*
X128981602Y-45943551D01*
X128268225Y-46100624D01*
X127527604Y-46244303D01*
X126783240Y-46369194D01*
X126058639Y-46469899D01*
X125377304Y-46541024D01*
X125173377Y-46556578D01*
X124695699Y-46578560D01*
X124353116Y-46559099D01*
X124113657Y-46484362D01*
X123945350Y-46340516D01*
X123816224Y-46113730D01*
X123746933Y-45939416D01*
X123511420Y-45302566D01*
X123328225Y-44820145D01*
X123195014Y-44486309D01*
X123109452Y-44295215D01*
X123069206Y-44241020D01*
X123068592Y-44241528D01*
X123071331Y-44338851D01*
X123117620Y-44566359D01*
X123198764Y-44893166D01*
X123306071Y-45288385D01*
X123430847Y-45721129D01*
X123564396Y-46160511D01*
X123698026Y-46575645D01*
X123823043Y-46935643D01*
X123839396Y-46979973D01*
X124403264Y-48315925D01*
X125047630Y-49506595D01*
X125776734Y-50557889D01*
X126594815Y-51475716D01*
X127506114Y-52265983D01*
X127773610Y-52461716D01*
X128139448Y-52736131D01*
X128354908Y-52942730D01*
X128420875Y-53089809D01*
X128338235Y-53185663D01*
X128107874Y-53238587D01*
X127858276Y-53254560D01*
X127460872Y-53243867D01*
X127034673Y-53199006D01*
X126799943Y-53156976D01*
X126175039Y-52989829D01*
X125607505Y-52773169D01*
X125060136Y-52486802D01*
X124495730Y-52110536D01*
X123877084Y-51624178D01*
X123698593Y-51473645D01*
X123297904Y-51118073D01*
X123011931Y-50826669D01*
X122815438Y-50568275D01*
X122683187Y-50311736D01*
X122624898Y-50148066D01*
X122580633Y-49947987D01*
X122522853Y-49594930D01*
X122453562Y-49104537D01*
X122374769Y-48492452D01*
X122288480Y-47774316D01*
X122196700Y-46965772D01*
X122101438Y-46082462D01*
X122092716Y-45999400D01*
X122043293Y-45415599D01*
X122009264Y-44777871D01*
X121990652Y-44121213D01*
X121987479Y-43480620D01*
X121999765Y-42891086D01*
X122027535Y-42387608D01*
X122070808Y-42005180D01*
X122090146Y-41904060D01*
X122201839Y-41407054D01*
X123654224Y-40710220D01*
X124124027Y-40487475D01*
X124554277Y-40288443D01*
X124916751Y-40125791D01*
X125183227Y-40012185D01*
X125324826Y-39960448D01*
X125419289Y-39946183D01*
X125512588Y-39962391D01*
G36*
X125512588Y-39962391D02*
G01*
X125620881Y-40024487D01*
X125760329Y-40147885D01*
X125947092Y-40347999D01*
X126197329Y-40640244D01*
X126527200Y-41040032D01*
X126773969Y-41342733D01*
X127319858Y-41988650D01*
X127820698Y-42523008D01*
X128313534Y-42982350D01*
X128835409Y-43403220D01*
X128946648Y-43486082D01*
X129250260Y-43692192D01*
X129617213Y-43915213D01*
X130012493Y-44136866D01*
X130401088Y-44338871D01*
X130747985Y-44502948D01*
X131018168Y-44610816D01*
X131165904Y-44644733D01*
X131329641Y-44712748D01*
X131412107Y-44810013D01*
X131449821Y-44958928D01*
X131362788Y-45101501D01*
X131317188Y-45146134D01*
X131092589Y-45289238D01*
X130723227Y-45445928D01*
X130232607Y-45610807D01*
X129644230Y-45778480D01*
X128981602Y-45943551D01*
X128268225Y-46100624D01*
X127527604Y-46244303D01*
X126783240Y-46369194D01*
X126058639Y-46469899D01*
X125377304Y-46541024D01*
X125173377Y-46556578D01*
X124695699Y-46578560D01*
X124353116Y-46559099D01*
X124113657Y-46484362D01*
X123945350Y-46340516D01*
X123816224Y-46113730D01*
X123746933Y-45939416D01*
X123511420Y-45302566D01*
X123328225Y-44820145D01*
X123195014Y-44486309D01*
X123109452Y-44295215D01*
X123069206Y-44241020D01*
X123068592Y-44241528D01*
X123071331Y-44338851D01*
X123117620Y-44566359D01*
X123198764Y-44893166D01*
X123306071Y-45288385D01*
X123430847Y-45721129D01*
X123564396Y-46160511D01*
X123698026Y-46575645D01*
X123823043Y-46935643D01*
X123839396Y-46979973D01*
X124403264Y-48315925D01*
X125047630Y-49506595D01*
X125776734Y-50557889D01*
X126594815Y-51475716D01*
X127506114Y-52265983D01*
X127773610Y-52461716D01*
X128139448Y-52736131D01*
X128354908Y-52942730D01*
X128420875Y-53089809D01*
X128338235Y-53185663D01*
X128107874Y-53238587D01*
X127858276Y-53254560D01*
X127460872Y-53243867D01*
X127034673Y-53199006D01*
X126799943Y-53156976D01*
X126175039Y-52989829D01*
X125607505Y-52773169D01*
X125060136Y-52486802D01*
X124495730Y-52110536D01*
X123877084Y-51624178D01*
X123698593Y-51473645D01*
X123297904Y-51118073D01*
X123011931Y-50826669D01*
X122815438Y-50568275D01*
X122683187Y-50311736D01*
X122624898Y-50148066D01*
X122580633Y-49947987D01*
X122522853Y-49594930D01*
X122453562Y-49104537D01*
X122374769Y-48492452D01*
X122288480Y-47774316D01*
X122196700Y-46965772D01*
X122101438Y-46082462D01*
X122092716Y-45999400D01*
X122043293Y-45415599D01*
X122009264Y-44777871D01*
X121990652Y-44121213D01*
X121987479Y-43480620D01*
X121999765Y-42891086D01*
X122027535Y-42387608D01*
X122070808Y-42005180D01*
X122090146Y-41904060D01*
X122201839Y-41407054D01*
X123654224Y-40710220D01*
X124124027Y-40487475D01*
X124554277Y-40288443D01*
X124916751Y-40125791D01*
X125183227Y-40012185D01*
X125324826Y-39960448D01*
X125419289Y-39946183D01*
X125512588Y-39962391D01*
G37*
X102047483Y-84020366D02*
X102308042Y-84044487D01*
X102667913Y-84067725D01*
X103133982Y-84090256D01*
X103713138Y-84112259D01*
X104412267Y-84133908D01*
X105238259Y-84155381D01*
X106198000Y-84176855D01*
X107298377Y-84198506D01*
X108546279Y-84220511D01*
X109948593Y-84243046D01*
X111512207Y-84266289D01*
X111787952Y-84270229D01*
X117349961Y-84349294D01*
X118745152Y-84859722D01*
X119597189Y-85178535D01*
X120400093Y-85495257D01*
X121198106Y-85828612D01*
X122035473Y-86197323D01*
X122956438Y-86620112D01*
X123425734Y-86840459D01*
X123867586Y-87048035D01*
X124254826Y-87227898D01*
X124562217Y-87368493D01*
X124764528Y-87458268D01*
X124835848Y-87486066D01*
X124921359Y-87524498D01*
X125137093Y-87633098D01*
X125464142Y-87801820D01*
X125883596Y-88020622D01*
X126376548Y-88279459D01*
X126924090Y-88568285D01*
X127507313Y-88877058D01*
X128107311Y-89195732D01*
X128705174Y-89514264D01*
X129281994Y-89822609D01*
X129818864Y-90110722D01*
X130296876Y-90368560D01*
X130697120Y-90586077D01*
X131000690Y-90753231D01*
X131188678Y-90859975D01*
X131201742Y-90867751D01*
X131460028Y-91040539D01*
X131652193Y-91202515D01*
X131737148Y-91318976D01*
X131737377Y-91320100D01*
X131698648Y-91483465D01*
X131547261Y-91753315D01*
X131291775Y-92117899D01*
X130940748Y-92565463D01*
X130502739Y-93084256D01*
X130216936Y-93407891D01*
X129137601Y-94525498D01*
X128026580Y-95497689D01*
X126852866Y-96348383D01*
X125585450Y-97101495D01*
X125104351Y-97351288D01*
X124499105Y-97645367D01*
X124020977Y-97855093D01*
X123653577Y-97986003D01*
X123380518Y-98043634D01*
X123185410Y-98033520D01*
X123135574Y-98016363D01*
X123043432Y-97934655D01*
X122871786Y-97746759D01*
X122644866Y-97480327D01*
X122386902Y-97163011D01*
X122377617Y-97151332D01*
X121945907Y-96634977D01*
X121445997Y-96081291D01*
X120910898Y-95523545D01*
X120373619Y-94995011D01*
X119867171Y-94528959D01*
X119424562Y-94158661D01*
X119357155Y-94106957D01*
X119117299Y-93947731D01*
X118728374Y-93719634D01*
X118189634Y-93422271D01*
X117500338Y-93055247D01*
X116659742Y-92618165D01*
X115667104Y-92110632D01*
X114521679Y-91532252D01*
X114404155Y-91473238D01*
X113231636Y-90886535D01*
X112194562Y-90371878D01*
X111278420Y-89922658D01*
X110468696Y-89532265D01*
X109750880Y-89194089D01*
X109110457Y-88901521D01*
X108532916Y-88647950D01*
X108003745Y-88426768D01*
X107508430Y-88231364D01*
X107032459Y-88055129D01*
X106561320Y-87891453D01*
X106479943Y-87864161D01*
X105731098Y-87626493D01*
X105074602Y-87449366D01*
X104449974Y-87320397D01*
X103796737Y-87227203D01*
X103054411Y-87157401D01*
X103012403Y-87154192D01*
X102603664Y-87120993D01*
X102260423Y-87088834D01*
X102015601Y-87061113D01*
X101902117Y-87041227D01*
X101898558Y-87039237D01*
X101872156Y-86942976D01*
X101831656Y-86712562D01*
X101781702Y-86382138D01*
X101726937Y-85985844D01*
X101672005Y-85557821D01*
X101621551Y-85132211D01*
X101580217Y-84743155D01*
X101566824Y-84600329D01*
X101509690Y-83958259D01*
X102047483Y-84020366D01*
G36*
X102047483Y-84020366D02*
G01*
X102308042Y-84044487D01*
X102667913Y-84067725D01*
X103133982Y-84090256D01*
X103713138Y-84112259D01*
X104412267Y-84133908D01*
X105238259Y-84155381D01*
X106198000Y-84176855D01*
X107298377Y-84198506D01*
X108546279Y-84220511D01*
X109948593Y-84243046D01*
X111512207Y-84266289D01*
X111787952Y-84270229D01*
X117349961Y-84349294D01*
X118745152Y-84859722D01*
X119597189Y-85178535D01*
X120400093Y-85495257D01*
X121198106Y-85828612D01*
X122035473Y-86197323D01*
X122956438Y-86620112D01*
X123425734Y-86840459D01*
X123867586Y-87048035D01*
X124254826Y-87227898D01*
X124562217Y-87368493D01*
X124764528Y-87458268D01*
X124835848Y-87486066D01*
X124921359Y-87524498D01*
X125137093Y-87633098D01*
X125464142Y-87801820D01*
X125883596Y-88020622D01*
X126376548Y-88279459D01*
X126924090Y-88568285D01*
X127507313Y-88877058D01*
X128107311Y-89195732D01*
X128705174Y-89514264D01*
X129281994Y-89822609D01*
X129818864Y-90110722D01*
X130296876Y-90368560D01*
X130697120Y-90586077D01*
X131000690Y-90753231D01*
X131188678Y-90859975D01*
X131201742Y-90867751D01*
X131460028Y-91040539D01*
X131652193Y-91202515D01*
X131737148Y-91318976D01*
X131737377Y-91320100D01*
X131698648Y-91483465D01*
X131547261Y-91753315D01*
X131291775Y-92117899D01*
X130940748Y-92565463D01*
X130502739Y-93084256D01*
X130216936Y-93407891D01*
X129137601Y-94525498D01*
X128026580Y-95497689D01*
X126852866Y-96348383D01*
X125585450Y-97101495D01*
X125104351Y-97351288D01*
X124499105Y-97645367D01*
X124020977Y-97855093D01*
X123653577Y-97986003D01*
X123380518Y-98043634D01*
X123185410Y-98033520D01*
X123135574Y-98016363D01*
X123043432Y-97934655D01*
X122871786Y-97746759D01*
X122644866Y-97480327D01*
X122386902Y-97163011D01*
X122377617Y-97151332D01*
X121945907Y-96634977D01*
X121445997Y-96081291D01*
X120910898Y-95523545D01*
X120373619Y-94995011D01*
X119867171Y-94528959D01*
X119424562Y-94158661D01*
X119357155Y-94106957D01*
X119117299Y-93947731D01*
X118728374Y-93719634D01*
X118189634Y-93422271D01*
X117500338Y-93055247D01*
X116659742Y-92618165D01*
X115667104Y-92110632D01*
X114521679Y-91532252D01*
X114404155Y-91473238D01*
X113231636Y-90886535D01*
X112194562Y-90371878D01*
X111278420Y-89922658D01*
X110468696Y-89532265D01*
X109750880Y-89194089D01*
X109110457Y-88901521D01*
X108532916Y-88647950D01*
X108003745Y-88426768D01*
X107508430Y-88231364D01*
X107032459Y-88055129D01*
X106561320Y-87891453D01*
X106479943Y-87864161D01*
X105731098Y-87626493D01*
X105074602Y-87449366D01*
X104449974Y-87320397D01*
X103796737Y-87227203D01*
X103054411Y-87157401D01*
X103012403Y-87154192D01*
X102603664Y-87120993D01*
X102260423Y-87088834D01*
X102015601Y-87061113D01*
X101902117Y-87041227D01*
X101898558Y-87039237D01*
X101872156Y-86942976D01*
X101831656Y-86712562D01*
X101781702Y-86382138D01*
X101726937Y-85985844D01*
X101672005Y-85557821D01*
X101621551Y-85132211D01*
X101580217Y-84743155D01*
X101566824Y-84600329D01*
X101509690Y-83958259D01*
X102047483Y-84020366D01*
G37*
X97054153Y-20103325D02*
X97168400Y-20133960D01*
X97208241Y-20191677D01*
X97208943Y-20203473D01*
X97156502Y-20309117D01*
X97014076Y-20511460D01*
X96804005Y-20780488D01*
X96572773Y-21058092D01*
X95882476Y-21894718D01*
X95255709Y-22716106D01*
X94708840Y-23498812D01*
X94258236Y-24219393D01*
X93920264Y-24854405D01*
X93915877Y-24863708D01*
X93784472Y-25190828D01*
X93635767Y-25637143D01*
X93482737Y-26155245D01*
X93338358Y-26697724D01*
X93215603Y-27217171D01*
X93127448Y-27666176D01*
X93101784Y-27838400D01*
X93043626Y-28194374D01*
X92955307Y-28464287D01*
X92808659Y-28690506D01*
X92575515Y-28915401D01*
X92227707Y-29181340D01*
X92191627Y-29207430D01*
X91461712Y-29738686D01*
X90846903Y-30198008D01*
X90320895Y-30606611D01*
X89857384Y-30985708D01*
X89430065Y-31356515D01*
X89012633Y-31740246D01*
X88801906Y-31941177D01*
X87650821Y-33123131D01*
X86649554Y-34312919D01*
X85779660Y-35537368D01*
X85022690Y-36823303D01*
X84360199Y-38197548D01*
X84141681Y-38718066D01*
X83752784Y-39713384D01*
X83408149Y-40675466D01*
X83103865Y-41624142D01*
X82836017Y-42579246D01*
X82600692Y-43560608D01*
X82393978Y-44588062D01*
X82211962Y-45681439D01*
X82050730Y-46860570D01*
X81906370Y-48145288D01*
X81774968Y-49555425D01*
X81652612Y-51110812D01*
X81627513Y-51460400D01*
X81514542Y-52961541D01*
X81398854Y-54303942D01*
X81279113Y-55498189D01*
X81153980Y-56554867D01*
X81022121Y-57484565D01*
X80882196Y-58297867D01*
X80732870Y-59005362D01*
X80617076Y-59461400D01*
X80385695Y-60210813D01*
X80105916Y-60967579D01*
X79791909Y-61702551D01*
X79457843Y-62386582D01*
X79117886Y-62990527D01*
X78786210Y-63485238D01*
X78497075Y-63822255D01*
X78306797Y-63995914D01*
X78190158Y-64059323D01*
X78108587Y-64029049D01*
X78082118Y-64000515D01*
X78040402Y-63883515D01*
X77980478Y-63624221D01*
X77907155Y-63248104D01*
X77825241Y-62780631D01*
X77739543Y-62247271D01*
X77693772Y-61943449D01*
X77596349Y-61326328D01*
X77469482Y-60590471D01*
X77321804Y-59782139D01*
X77161949Y-58947592D01*
X76998553Y-58133091D01*
X76859142Y-57471733D01*
X76504363Y-55811972D01*
X76193132Y-54308121D01*
X75924040Y-52952834D01*
X75695679Y-51738766D01*
X75506639Y-50658571D01*
X75355513Y-49704901D01*
X75311775Y-49402910D01*
X75250798Y-48958522D01*
X75201852Y-48564476D01*
X75163546Y-48193610D01*
X75134490Y-47818761D01*
X75113293Y-47412768D01*
X75098565Y-46948467D01*
X75088915Y-46398698D01*
X75082954Y-45736297D01*
X75079289Y-44934102D01*
X75079032Y-44856400D01*
X75078666Y-43897769D01*
X75085938Y-43080705D01*
X75103302Y-42377522D01*
X75133210Y-41760532D01*
X75178116Y-41202049D01*
X75240473Y-40674386D01*
X75322734Y-40149856D01*
X75427352Y-39600773D01*
X75556779Y-38999449D01*
X75624299Y-38702127D01*
X76124921Y-36900301D01*
X76789695Y-35134621D01*
X77616649Y-33408442D01*
X78603807Y-31725115D01*
X79749195Y-30087994D01*
X81050839Y-28500432D01*
X82506764Y-26965784D01*
X82572741Y-26901088D01*
X84119682Y-25494548D01*
X85718736Y-24249045D01*
X87370316Y-23164364D01*
X89074837Y-22240293D01*
X90832713Y-21476619D01*
X92644358Y-20873129D01*
X94510187Y-20429610D01*
X95484374Y-20264706D01*
X96080612Y-20180464D01*
X96528696Y-20125923D01*
X96847065Y-20100428D01*
X97054153Y-20103325D01*
G36*
X97054153Y-20103325D02*
G01*
X97168400Y-20133960D01*
X97208241Y-20191677D01*
X97208943Y-20203473D01*
X97156502Y-20309117D01*
X97014076Y-20511460D01*
X96804005Y-20780488D01*
X96572773Y-21058092D01*
X95882476Y-21894718D01*
X95255709Y-22716106D01*
X94708840Y-23498812D01*
X94258236Y-24219393D01*
X93920264Y-24854405D01*
X93915877Y-24863708D01*
X93784472Y-25190828D01*
X93635767Y-25637143D01*
X93482737Y-26155245D01*
X93338358Y-26697724D01*
X93215603Y-27217171D01*
X93127448Y-27666176D01*
X93101784Y-27838400D01*
X93043626Y-28194374D01*
X92955307Y-28464287D01*
X92808659Y-28690506D01*
X92575515Y-28915401D01*
X92227707Y-29181340D01*
X92191627Y-29207430D01*
X91461712Y-29738686D01*
X90846903Y-30198008D01*
X90320895Y-30606611D01*
X89857384Y-30985708D01*
X89430065Y-31356515D01*
X89012633Y-31740246D01*
X88801906Y-31941177D01*
X87650821Y-33123131D01*
X86649554Y-34312919D01*
X85779660Y-35537368D01*
X85022690Y-36823303D01*
X84360199Y-38197548D01*
X84141681Y-38718066D01*
X83752784Y-39713384D01*
X83408149Y-40675466D01*
X83103865Y-41624142D01*
X82836017Y-42579246D01*
X82600692Y-43560608D01*
X82393978Y-44588062D01*
X82211962Y-45681439D01*
X82050730Y-46860570D01*
X81906370Y-48145288D01*
X81774968Y-49555425D01*
X81652612Y-51110812D01*
X81627513Y-51460400D01*
X81514542Y-52961541D01*
X81398854Y-54303942D01*
X81279113Y-55498189D01*
X81153980Y-56554867D01*
X81022121Y-57484565D01*
X80882196Y-58297867D01*
X80732870Y-59005362D01*
X80617076Y-59461400D01*
X80385695Y-60210813D01*
X80105916Y-60967579D01*
X79791909Y-61702551D01*
X79457843Y-62386582D01*
X79117886Y-62990527D01*
X78786210Y-63485238D01*
X78497075Y-63822255D01*
X78306797Y-63995914D01*
X78190158Y-64059323D01*
X78108587Y-64029049D01*
X78082118Y-64000515D01*
X78040402Y-63883515D01*
X77980478Y-63624221D01*
X77907155Y-63248104D01*
X77825241Y-62780631D01*
X77739543Y-62247271D01*
X77693772Y-61943449D01*
X77596349Y-61326328D01*
X77469482Y-60590471D01*
X77321804Y-59782139D01*
X77161949Y-58947592D01*
X76998553Y-58133091D01*
X76859142Y-57471733D01*
X76504363Y-55811972D01*
X76193132Y-54308121D01*
X75924040Y-52952834D01*
X75695679Y-51738766D01*
X75506639Y-50658571D01*
X75355513Y-49704901D01*
X75311775Y-49402910D01*
X75250798Y-48958522D01*
X75201852Y-48564476D01*
X75163546Y-48193610D01*
X75134490Y-47818761D01*
X75113293Y-47412768D01*
X75098565Y-46948467D01*
X75088915Y-46398698D01*
X75082954Y-45736297D01*
X75079289Y-44934102D01*
X75079032Y-44856400D01*
X75078666Y-43897769D01*
X75085938Y-43080705D01*
X75103302Y-42377522D01*
X75133210Y-41760532D01*
X75178116Y-41202049D01*
X75240473Y-40674386D01*
X75322734Y-40149856D01*
X75427352Y-39600773D01*
X75556779Y-38999449D01*
X75624299Y-38702127D01*
X76124921Y-36900301D01*
X76789695Y-35134621D01*
X77616649Y-33408442D01*
X78603807Y-31725115D01*
X79749195Y-30087994D01*
X81050839Y-28500432D01*
X82506764Y-26965784D01*
X82572741Y-26901088D01*
X84119682Y-25494548D01*
X85718736Y-24249045D01*
X87370316Y-23164364D01*
X89074837Y-22240293D01*
X90832713Y-21476619D01*
X92644358Y-20873129D01*
X94510187Y-20429610D01*
X95484374Y-20264706D01*
X96080612Y-20180464D01*
X96528696Y-20125923D01*
X96847065Y-20100428D01*
X97054153Y-20103325D01*
G37*
X39174100Y-67069676D02*
X40526045Y-67246049D01*
X41823120Y-67570116D01*
X43051616Y-68041493D01*
X43223441Y-68122145D01*
X43882481Y-68458611D01*
X44493828Y-68808277D01*
X45040295Y-69158393D01*
X45504699Y-69496208D01*
X45869852Y-69808972D01*
X46118570Y-70083932D01*
X46233667Y-70308339D01*
X46239610Y-70359990D01*
X46223168Y-70501823D01*
X46140420Y-70547598D01*
X45950628Y-70527994D01*
X45745183Y-70464382D01*
X45448813Y-70335623D01*
X45114655Y-70165567D01*
X44998128Y-70100432D01*
X44575172Y-69868726D01*
X44202707Y-69697166D01*
X43843492Y-69578312D01*
X43460287Y-69504725D01*
X43015854Y-69468967D01*
X42472953Y-69463598D01*
X41883007Y-69478142D01*
X40948075Y-69528779D01*
X40135257Y-69619940D01*
X39400068Y-69761851D01*
X38698022Y-69964734D01*
X37984633Y-70238814D01*
X37384692Y-70511962D01*
X36601841Y-70946753D01*
X35803870Y-71496328D01*
X35028290Y-72128199D01*
X34312610Y-72809874D01*
X33694339Y-73508865D01*
X33301527Y-74048742D01*
X32954032Y-74628398D01*
X32680239Y-75199659D01*
X32474070Y-75790639D01*
X32329449Y-76429456D01*
X32240299Y-77144227D01*
X32200543Y-77963068D01*
X32204105Y-78914096D01*
X32208951Y-79104066D01*
X32232681Y-79732886D01*
X32271115Y-80249469D01*
X32334504Y-80697381D01*
X32433094Y-81120188D01*
X32577134Y-81561456D01*
X32776872Y-82064750D01*
X33042557Y-82673637D01*
X33055415Y-82702400D01*
X33595314Y-83803974D01*
X34218236Y-84891849D01*
X34902868Y-85935735D01*
X35627899Y-86905343D01*
X36372018Y-87770384D01*
X37113912Y-88500570D01*
X37169778Y-88549847D01*
X37850387Y-89133999D01*
X38510232Y-89675247D01*
X39169765Y-90187488D01*
X39849438Y-90684619D01*
X40569701Y-91180537D01*
X41351007Y-91689140D01*
X42213807Y-92224325D01*
X43178552Y-92799989D01*
X44265693Y-93430030D01*
X44800276Y-93734985D01*
X45448888Y-94104963D01*
X46064357Y-94458834D01*
X46627938Y-94785615D01*
X47120889Y-95074320D01*
X47524466Y-95313967D01*
X47819926Y-95493572D01*
X47988525Y-95602150D01*
X47997878Y-95608818D01*
X48211563Y-95792394D01*
X48393761Y-96024370D01*
X48576516Y-96349794D01*
X48682748Y-96571642D01*
X49075980Y-97247472D01*
X49574314Y-97818948D01*
X50157263Y-98269914D01*
X50804340Y-98584212D01*
X51428944Y-98737467D01*
X51837888Y-98838770D01*
X52226975Y-99036321D01*
X52609177Y-99342876D01*
X52997462Y-99771186D01*
X53404800Y-100334006D01*
X53844162Y-101044088D01*
X53935399Y-101202066D01*
X54341228Y-101966613D01*
X54629936Y-102655994D01*
X54807907Y-103310890D01*
X54881528Y-103971977D01*
X54857184Y-104679934D01*
X54741260Y-105475441D01*
X54665363Y-105852154D01*
X54438036Y-106792397D01*
X54179053Y-107608822D01*
X53868607Y-108346528D01*
X53486891Y-109050617D01*
X53014096Y-109766189D01*
X52843191Y-110001107D01*
X52004430Y-111005105D01*
X51018219Y-111960271D01*
X49902954Y-112851955D01*
X48677032Y-113665512D01*
X47358848Y-114386295D01*
X47297943Y-114416173D01*
X46681422Y-114704577D01*
X46100194Y-114946131D01*
X45506008Y-115157731D01*
X44850610Y-115356275D01*
X44085749Y-115558660D01*
X43911276Y-115602102D01*
X43491111Y-115699427D01*
X43097693Y-115773859D01*
X42688393Y-115830708D01*
X42220584Y-115875283D01*
X41651638Y-115912894D01*
X41244276Y-115934314D01*
X40485092Y-115969186D01*
X39869519Y-115991192D01*
X39372337Y-116000538D01*
X38968330Y-115997430D01*
X38632279Y-115982072D01*
X38365610Y-115957777D01*
X38076188Y-115914093D01*
X37686418Y-115839979D01*
X37221487Y-115741716D01*
X36706577Y-115625586D01*
X36166876Y-115497871D01*
X35627567Y-115364853D01*
X35113837Y-115232814D01*
X34650871Y-115108036D01*
X34263853Y-114996800D01*
X33977969Y-114905388D01*
X33818404Y-114840083D01*
X33793610Y-114817403D01*
X33860336Y-114727407D01*
X34021366Y-114616326D01*
X34026443Y-114613532D01*
X34818016Y-114171098D01*
X35484580Y-113774633D01*
X36056448Y-113402660D01*
X36563931Y-113033704D01*
X37037343Y-112646286D01*
X37506995Y-112218931D01*
X37779080Y-111954733D01*
X38684877Y-110963033D01*
X39438272Y-109925894D01*
X40054702Y-108820326D01*
X40376336Y-108086749D01*
X40457497Y-107874817D01*
X40516894Y-107686837D01*
X40557953Y-107491015D01*
X40584105Y-107255560D01*
X40598776Y-106948679D01*
X40605395Y-106538580D01*
X40607390Y-105993469D01*
X40607452Y-105943400D01*
X40605078Y-105339760D01*
X40594210Y-104864866D01*
X40571611Y-104478213D01*
X40534045Y-104139295D01*
X40478274Y-103807605D01*
X40411240Y-103488066D01*
X40012089Y-102080820D01*
X39444486Y-100685548D01*
X38708947Y-99303096D01*
X37805986Y-97934312D01*
X36736120Y-96580043D01*
X35499863Y-95241136D01*
X35231336Y-94973944D01*
X34241950Y-93932135D01*
X33303490Y-92805441D01*
X32433620Y-91620887D01*
X31650005Y-90405501D01*
X30970309Y-89186308D01*
X30412195Y-87990336D01*
X30065759Y-87070383D01*
X29861527Y-86417420D01*
X29704715Y-85814461D01*
X29588670Y-85219034D01*
X29506743Y-84588666D01*
X29452283Y-83880884D01*
X29418640Y-83053217D01*
X29414926Y-82914066D01*
X29403266Y-82135387D01*
X29414995Y-81479546D01*
X29455477Y-80901009D01*
X29530077Y-80354244D01*
X29644160Y-79793717D01*
X29803091Y-79173895D01*
X29893206Y-78854696D01*
X29994015Y-78494223D01*
X30070676Y-78199245D01*
X30114650Y-78004069D01*
X30120301Y-77942535D01*
X30075896Y-77997550D01*
X29990509Y-78168631D01*
X29914926Y-78342059D01*
X29636846Y-79140971D01*
X29408262Y-80060537D01*
X29234640Y-81057903D01*
X29121448Y-82090213D01*
X29074152Y-83114614D01*
X29098220Y-84088249D01*
X29131847Y-84480400D01*
X29278127Y-85552650D01*
X29485750Y-86549762D01*
X29768741Y-87518697D01*
X30141125Y-88506413D01*
X30616929Y-89559872D01*
X30699693Y-89729733D01*
X31151347Y-90610561D01*
X31603764Y-91406805D01*
X32080119Y-92150989D01*
X32603588Y-92875637D01*
X33197346Y-93613274D01*
X33884569Y-94396423D01*
X34489528Y-95048307D01*
X35595796Y-96218215D01*
X35540326Y-97007345D01*
X35388994Y-98125251D01*
X35094384Y-99165509D01*
X34650793Y-100140190D01*
X34052520Y-101061365D01*
X33293862Y-101941107D01*
X33134226Y-102101512D01*
X32729853Y-102473228D01*
X32409671Y-102710644D01*
X32177131Y-102811620D01*
X32041012Y-102779691D01*
X32028407Y-102677735D01*
X32039704Y-102451122D01*
X32072272Y-102142436D01*
X32087397Y-102028690D01*
X32163854Y-101222221D01*
X32155162Y-100451520D01*
X32056440Y-99669060D01*
X31862808Y-98827313D01*
X31703238Y-98287325D01*
X31590531Y-97949382D01*
X31466861Y-97625685D01*
X31318908Y-97288904D01*
X31133354Y-96911711D01*
X30896879Y-96466777D01*
X30596163Y-95926775D01*
X30297197Y-95402400D01*
X29983909Y-94861964D01*
X29688322Y-94365751D01*
X29396024Y-93892339D01*
X29092602Y-93420306D01*
X28763644Y-92928231D01*
X28394735Y-92394692D01*
X27971465Y-91798268D01*
X27479420Y-91117536D01*
X26904187Y-90331077D01*
X26679942Y-90026066D01*
X26119365Y-89253654D01*
X25650822Y-88580689D01*
X25256977Y-87977347D01*
X24920492Y-87413800D01*
X24624033Y-86860221D01*
X24350263Y-86286784D01*
X24081846Y-85663663D01*
X23938081Y-85308727D01*
X23555684Y-84134300D01*
X23305733Y-82884024D01*
X23188107Y-81587403D01*
X23202681Y-80273939D01*
X23349335Y-78973137D01*
X23627945Y-77714501D01*
X23630445Y-77707066D01*
X30152943Y-77707066D01*
X30195276Y-77749400D01*
X30237610Y-77707066D01*
X30195276Y-77664733D01*
X30152943Y-77707066D01*
X23630445Y-77707066D01*
X23973922Y-76685955D01*
X24605130Y-75321056D01*
X25384927Y-74022184D01*
X26301893Y-72799939D01*
X27344612Y-71664924D01*
X28501665Y-70627740D01*
X29761636Y-69698986D01*
X31113105Y-68889264D01*
X32544657Y-68209175D01*
X33491831Y-67848835D01*
X34926150Y-67430578D01*
X36360442Y-67161556D01*
X37780995Y-67041383D01*
X39174100Y-67069676D01*
G36*
X39174100Y-67069676D02*
G01*
X40526045Y-67246049D01*
X41823120Y-67570116D01*
X43051616Y-68041493D01*
X43223441Y-68122145D01*
X43882481Y-68458611D01*
X44493828Y-68808277D01*
X45040295Y-69158393D01*
X45504699Y-69496208D01*
X45869852Y-69808972D01*
X46118570Y-70083932D01*
X46233667Y-70308339D01*
X46239610Y-70359990D01*
X46223168Y-70501823D01*
X46140420Y-70547598D01*
X45950628Y-70527994D01*
X45745183Y-70464382D01*
X45448813Y-70335623D01*
X45114655Y-70165567D01*
X44998128Y-70100432D01*
X44575172Y-69868726D01*
X44202707Y-69697166D01*
X43843492Y-69578312D01*
X43460287Y-69504725D01*
X43015854Y-69468967D01*
X42472953Y-69463598D01*
X41883007Y-69478142D01*
X40948075Y-69528779D01*
X40135257Y-69619940D01*
X39400068Y-69761851D01*
X38698022Y-69964734D01*
X37984633Y-70238814D01*
X37384692Y-70511962D01*
X36601841Y-70946753D01*
X35803870Y-71496328D01*
X35028290Y-72128199D01*
X34312610Y-72809874D01*
X33694339Y-73508865D01*
X33301527Y-74048742D01*
X32954032Y-74628398D01*
X32680239Y-75199659D01*
X32474070Y-75790639D01*
X32329449Y-76429456D01*
X32240299Y-77144227D01*
X32200543Y-77963068D01*
X32204105Y-78914096D01*
X32208951Y-79104066D01*
X32232681Y-79732886D01*
X32271115Y-80249469D01*
X32334504Y-80697381D01*
X32433094Y-81120188D01*
X32577134Y-81561456D01*
X32776872Y-82064750D01*
X33042557Y-82673637D01*
X33055415Y-82702400D01*
X33595314Y-83803974D01*
X34218236Y-84891849D01*
X34902868Y-85935735D01*
X35627899Y-86905343D01*
X36372018Y-87770384D01*
X37113912Y-88500570D01*
X37169778Y-88549847D01*
X37850387Y-89133999D01*
X38510232Y-89675247D01*
X39169765Y-90187488D01*
X39849438Y-90684619D01*
X40569701Y-91180537D01*
X41351007Y-91689140D01*
X42213807Y-92224325D01*
X43178552Y-92799989D01*
X44265693Y-93430030D01*
X44800276Y-93734985D01*
X45448888Y-94104963D01*
X46064357Y-94458834D01*
X46627938Y-94785615D01*
X47120889Y-95074320D01*
X47524466Y-95313967D01*
X47819926Y-95493572D01*
X47988525Y-95602150D01*
X47997878Y-95608818D01*
X48211563Y-95792394D01*
X48393761Y-96024370D01*
X48576516Y-96349794D01*
X48682748Y-96571642D01*
X49075980Y-97247472D01*
X49574314Y-97818948D01*
X50157263Y-98269914D01*
X50804340Y-98584212D01*
X51428944Y-98737467D01*
X51837888Y-98838770D01*
X52226975Y-99036321D01*
X52609177Y-99342876D01*
X52997462Y-99771186D01*
X53404800Y-100334006D01*
X53844162Y-101044088D01*
X53935399Y-101202066D01*
X54341228Y-101966613D01*
X54629936Y-102655994D01*
X54807907Y-103310890D01*
X54881528Y-103971977D01*
X54857184Y-104679934D01*
X54741260Y-105475441D01*
X54665363Y-105852154D01*
X54438036Y-106792397D01*
X54179053Y-107608822D01*
X53868607Y-108346528D01*
X53486891Y-109050617D01*
X53014096Y-109766189D01*
X52843191Y-110001107D01*
X52004430Y-111005105D01*
X51018219Y-111960271D01*
X49902954Y-112851955D01*
X48677032Y-113665512D01*
X47358848Y-114386295D01*
X47297943Y-114416173D01*
X46681422Y-114704577D01*
X46100194Y-114946131D01*
X45506008Y-115157731D01*
X44850610Y-115356275D01*
X44085749Y-115558660D01*
X43911276Y-115602102D01*
X43491111Y-115699427D01*
X43097693Y-115773859D01*
X42688393Y-115830708D01*
X42220584Y-115875283D01*
X41651638Y-115912894D01*
X41244276Y-115934314D01*
X40485092Y-115969186D01*
X39869519Y-115991192D01*
X39372337Y-116000538D01*
X38968330Y-115997430D01*
X38632279Y-115982072D01*
X38365610Y-115957777D01*
X38076188Y-115914093D01*
X37686418Y-115839979D01*
X37221487Y-115741716D01*
X36706577Y-115625586D01*
X36166876Y-115497871D01*
X35627567Y-115364853D01*
X35113837Y-115232814D01*
X34650871Y-115108036D01*
X34263853Y-114996800D01*
X33977969Y-114905388D01*
X33818404Y-114840083D01*
X33793610Y-114817403D01*
X33860336Y-114727407D01*
X34021366Y-114616326D01*
X34026443Y-114613532D01*
X34818016Y-114171098D01*
X35484580Y-113774633D01*
X36056448Y-113402660D01*
X36563931Y-113033704D01*
X37037343Y-112646286D01*
X37506995Y-112218931D01*
X37779080Y-111954733D01*
X38684877Y-110963033D01*
X39438272Y-109925894D01*
X40054702Y-108820326D01*
X40376336Y-108086749D01*
X40457497Y-107874817D01*
X40516894Y-107686837D01*
X40557953Y-107491015D01*
X40584105Y-107255560D01*
X40598776Y-106948679D01*
X40605395Y-106538580D01*
X40607390Y-105993469D01*
X40607452Y-105943400D01*
X40605078Y-105339760D01*
X40594210Y-104864866D01*
X40571611Y-104478213D01*
X40534045Y-104139295D01*
X40478274Y-103807605D01*
X40411240Y-103488066D01*
X40012089Y-102080820D01*
X39444486Y-100685548D01*
X38708947Y-99303096D01*
X37805986Y-97934312D01*
X36736120Y-96580043D01*
X35499863Y-95241136D01*
X35231336Y-94973944D01*
X34241950Y-93932135D01*
X33303490Y-92805441D01*
X32433620Y-91620887D01*
X31650005Y-90405501D01*
X30970309Y-89186308D01*
X30412195Y-87990336D01*
X30065759Y-87070383D01*
X29861527Y-86417420D01*
X29704715Y-85814461D01*
X29588670Y-85219034D01*
X29506743Y-84588666D01*
X29452283Y-83880884D01*
X29418640Y-83053217D01*
X29414926Y-82914066D01*
X29403266Y-82135387D01*
X29414995Y-81479546D01*
X29455477Y-80901009D01*
X29530077Y-80354244D01*
X29644160Y-79793717D01*
X29803091Y-79173895D01*
X29893206Y-78854696D01*
X29994015Y-78494223D01*
X30070676Y-78199245D01*
X30114650Y-78004069D01*
X30120301Y-77942535D01*
X30075896Y-77997550D01*
X29990509Y-78168631D01*
X29914926Y-78342059D01*
X29636846Y-79140971D01*
X29408262Y-80060537D01*
X29234640Y-81057903D01*
X29121448Y-82090213D01*
X29074152Y-83114614D01*
X29098220Y-84088249D01*
X29131847Y-84480400D01*
X29278127Y-85552650D01*
X29485750Y-86549762D01*
X29768741Y-87518697D01*
X30141125Y-88506413D01*
X30616929Y-89559872D01*
X30699693Y-89729733D01*
X31151347Y-90610561D01*
X31603764Y-91406805D01*
X32080119Y-92150989D01*
X32603588Y-92875637D01*
X33197346Y-93613274D01*
X33884569Y-94396423D01*
X34489528Y-95048307D01*
X35595796Y-96218215D01*
X35540326Y-97007345D01*
X35388994Y-98125251D01*
X35094384Y-99165509D01*
X34650793Y-100140190D01*
X34052520Y-101061365D01*
X33293862Y-101941107D01*
X33134226Y-102101512D01*
X32729853Y-102473228D01*
X32409671Y-102710644D01*
X32177131Y-102811620D01*
X32041012Y-102779691D01*
X32028407Y-102677735D01*
X32039704Y-102451122D01*
X32072272Y-102142436D01*
X32087397Y-102028690D01*
X32163854Y-101222221D01*
X32155162Y-100451520D01*
X32056440Y-99669060D01*
X31862808Y-98827313D01*
X31703238Y-98287325D01*
X31590531Y-97949382D01*
X31466861Y-97625685D01*
X31318908Y-97288904D01*
X31133354Y-96911711D01*
X30896879Y-96466777D01*
X30596163Y-95926775D01*
X30297197Y-95402400D01*
X29983909Y-94861964D01*
X29688322Y-94365751D01*
X29396024Y-93892339D01*
X29092602Y-93420306D01*
X28763644Y-92928231D01*
X28394735Y-92394692D01*
X27971465Y-91798268D01*
X27479420Y-91117536D01*
X26904187Y-90331077D01*
X26679942Y-90026066D01*
X26119365Y-89253654D01*
X25650822Y-88580689D01*
X25256977Y-87977347D01*
X24920492Y-87413800D01*
X24624033Y-86860221D01*
X24350263Y-86286784D01*
X24081846Y-85663663D01*
X23938081Y-85308727D01*
X23555684Y-84134300D01*
X23305733Y-82884024D01*
X23188107Y-81587403D01*
X23202681Y-80273939D01*
X23349335Y-78973137D01*
X23627945Y-77714501D01*
X23630445Y-77707066D01*
X30152943Y-77707066D01*
X30195276Y-77749400D01*
X30237610Y-77707066D01*
X30195276Y-77664733D01*
X30152943Y-77707066D01*
X23630445Y-77707066D01*
X23973922Y-76685955D01*
X24605130Y-75321056D01*
X25384927Y-74022184D01*
X26301893Y-72799939D01*
X27344612Y-71664924D01*
X28501665Y-70627740D01*
X29761636Y-69698986D01*
X31113105Y-68889264D01*
X32544657Y-68209175D01*
X33491831Y-67848835D01*
X34926150Y-67430578D01*
X36360442Y-67161556D01*
X37780995Y-67041383D01*
X39174100Y-67069676D01*
G37*
X102147209Y-18138252D02*
X102210588Y-18356771D01*
X102290347Y-18687898D01*
X102379874Y-19104573D01*
X102453372Y-19477566D01*
X102683382Y-20560304D01*
X102944530Y-21525334D01*
X103252871Y-22423607D01*
X103624461Y-23306076D01*
X103732961Y-23538262D01*
X104084489Y-24310942D01*
X104351512Y-24987068D01*
X104545716Y-25609444D01*
X104678786Y-26220877D01*
X104762409Y-26864171D01*
X104802842Y-27457400D01*
X104780394Y-28624366D01*
X104606368Y-29758521D01*
X104286828Y-30841547D01*
X103827837Y-31855127D01*
X103235459Y-32780943D01*
X102905767Y-33188497D01*
X102684994Y-33446947D01*
X102494467Y-33679206D01*
X102375167Y-33835309D01*
X102374603Y-33836126D01*
X102293257Y-33961361D01*
X102320657Y-33963288D01*
X102416936Y-33894291D01*
X102582078Y-33763443D01*
X102803967Y-33577648D01*
X102903020Y-33492125D01*
X103094528Y-33331294D01*
X103236340Y-33242944D01*
X103338574Y-33242813D01*
X103411347Y-33346642D01*
X103464777Y-33570169D01*
X103508981Y-33929133D01*
X103554078Y-34439275D01*
X103560294Y-34514604D01*
X103603112Y-34986646D01*
X103653177Y-35464544D01*
X103703576Y-35885573D01*
X103738924Y-36135733D01*
X103941492Y-36993741D01*
X104276145Y-37896813D01*
X104725334Y-38810752D01*
X105271509Y-39701358D01*
X105897119Y-40534434D01*
X106141237Y-40816823D01*
X106438791Y-41117394D01*
X106805234Y-41440387D01*
X107219065Y-41771702D01*
X107658785Y-42097236D01*
X108102893Y-42402888D01*
X108529889Y-42674556D01*
X108918271Y-42898137D01*
X109246540Y-43059531D01*
X109493195Y-43144635D01*
X109636736Y-43139347D01*
X109654644Y-43121216D01*
X109672788Y-42951366D01*
X109597333Y-42701859D01*
X109333703Y-41923344D01*
X109162852Y-41013624D01*
X109090718Y-40157400D01*
X109073233Y-39688502D01*
X109072737Y-39343972D01*
X109092772Y-39079379D01*
X109136880Y-38850294D01*
X109208605Y-38612285D01*
X109215529Y-38591859D01*
X109301645Y-38326613D01*
X109355732Y-38135041D01*
X109366281Y-38062515D01*
X109320214Y-38119845D01*
X109221291Y-38291357D01*
X109097377Y-38527389D01*
X109011240Y-38701209D01*
X108947932Y-38852697D01*
X108903954Y-39011365D01*
X108875806Y-39206728D01*
X108859990Y-39468297D01*
X108853007Y-39825587D01*
X108851358Y-40308110D01*
X108851438Y-40601900D01*
X108847553Y-41232449D01*
X108834937Y-41699520D01*
X108813264Y-42008759D01*
X108782210Y-42165811D01*
X108760120Y-42189400D01*
X108583483Y-42128334D01*
X108317771Y-41958350D01*
X107983911Y-41699268D01*
X107602827Y-41370909D01*
X107195446Y-40993094D01*
X106782694Y-40585643D01*
X106385496Y-40168376D01*
X106024779Y-39761114D01*
X105721469Y-39383677D01*
X105563845Y-39161966D01*
X105067145Y-38327897D01*
X104655822Y-37442045D01*
X104318661Y-36473853D01*
X104044448Y-35392759D01*
X103894085Y-34611733D01*
X103803680Y-34021900D01*
X103765140Y-33547193D01*
X103784439Y-33139738D01*
X103867551Y-32751666D01*
X104020451Y-32335103D01*
X104236531Y-31867862D01*
X104583802Y-31102818D01*
X104849087Y-30380016D01*
X105044347Y-29651623D01*
X105181541Y-28869802D01*
X105272629Y-27986720D01*
X105296921Y-27626733D01*
X105332241Y-27138389D01*
X105382240Y-26794239D01*
X105465028Y-26569178D01*
X105598712Y-26438102D01*
X105801401Y-26375906D01*
X106091201Y-26357485D01*
X106212975Y-26356733D01*
X106808124Y-26389480D01*
X107521655Y-26482201D01*
X108316983Y-26626619D01*
X109157521Y-26814455D01*
X110006684Y-27037429D01*
X110827885Y-27287264D01*
X111584538Y-27555682D01*
X111684702Y-27594852D01*
X113050316Y-28201764D01*
X114374923Y-28919025D01*
X115634802Y-29729575D01*
X116806229Y-30616355D01*
X117865482Y-31562306D01*
X118788838Y-32550368D01*
X119087545Y-32918400D01*
X119539310Y-33523919D01*
X119877996Y-34033860D01*
X120101520Y-34443890D01*
X120207800Y-34749675D01*
X120194752Y-34946882D01*
X120098988Y-35022971D01*
X119774802Y-35117207D01*
X119328421Y-35242330D01*
X118801639Y-35387025D01*
X118236252Y-35539978D01*
X117674054Y-35689873D01*
X117156840Y-35825394D01*
X116766943Y-35925071D01*
X116200177Y-36076658D01*
X115774389Y-36216700D01*
X115463268Y-36359900D01*
X115240507Y-36520961D01*
X115079795Y-36714586D01*
X114965028Y-36932077D01*
X114890284Y-37127312D01*
X114841155Y-37336995D01*
X114813183Y-37600956D01*
X114801906Y-37959026D01*
X114802267Y-38385543D01*
X114817222Y-38876606D01*
X114850787Y-39373255D01*
X114897820Y-39812863D01*
X114941248Y-40079252D01*
X115160664Y-40827019D01*
X115491462Y-41535910D01*
X115908551Y-42157496D01*
X116167930Y-42446887D01*
X116537363Y-42781412D01*
X116894940Y-43024982D01*
X117261271Y-43177340D01*
X117656966Y-43238228D01*
X118102635Y-43207387D01*
X118618887Y-43084561D01*
X119226332Y-42869491D01*
X119945579Y-42561919D01*
X120307305Y-42395095D01*
X120700278Y-42215899D01*
X120968105Y-42108077D01*
X121135411Y-42063995D01*
X121226821Y-42076023D01*
X121252652Y-42102104D01*
X121287253Y-42231431D01*
X121323919Y-42488839D01*
X121357589Y-42833227D01*
X121377264Y-43114156D01*
X121401725Y-43526866D01*
X121433105Y-44051085D01*
X121467945Y-44629309D01*
X121502786Y-45204030D01*
X121515135Y-45406733D01*
X121551550Y-45883408D01*
X121608934Y-46486172D01*
X121682697Y-47173724D01*
X121768247Y-47904761D01*
X121860995Y-48637978D01*
X121933913Y-49174400D01*
X122079444Y-50231336D01*
X122197059Y-51139302D01*
X122288341Y-51916073D01*
X122354870Y-52579423D01*
X122398229Y-53147127D01*
X122420000Y-53636959D01*
X122421763Y-54066694D01*
X122405101Y-54454106D01*
X122404500Y-54462851D01*
X122291927Y-55480178D01*
X122098891Y-56374092D01*
X121816060Y-57174848D01*
X121434105Y-57912700D01*
X121254189Y-58193005D01*
X120971631Y-58583197D01*
X120676129Y-58945264D01*
X120391487Y-59254252D01*
X120141508Y-59485205D01*
X119949998Y-59613167D01*
X119882780Y-59630733D01*
X119812248Y-59620534D01*
X119768910Y-59570289D01*
X119749417Y-59450524D01*
X119750420Y-59231765D01*
X119768569Y-58884538D01*
X119778981Y-58717271D01*
X119801223Y-58285459D01*
X119800476Y-57948136D01*
X119770579Y-57640291D01*
X119705374Y-57296912D01*
X119604578Y-56876435D01*
X119331931Y-55890283D01*
X119035796Y-55008725D01*
X118725402Y-54257978D01*
X118577370Y-53958066D01*
X118200242Y-53313134D01*
X117707284Y-52593014D01*
X117094680Y-51793007D01*
X116358609Y-50908415D01*
X115495255Y-49934541D01*
X114500800Y-48866685D01*
X114096911Y-48444798D01*
X113428575Y-47745022D01*
X112870149Y-47143646D01*
X112408535Y-46622699D01*
X112030633Y-46164212D01*
X111723344Y-45750214D01*
X111473567Y-45362733D01*
X111268204Y-44983800D01*
X111094155Y-44595444D01*
X110938321Y-44179693D01*
X110894877Y-44052066D01*
X110787825Y-43702733D01*
X110695297Y-43330762D01*
X110615534Y-42918885D01*
X110546777Y-42449831D01*
X110487266Y-41906329D01*
X110435244Y-41271109D01*
X110388951Y-40526902D01*
X110346628Y-39656437D01*
X110306517Y-38642444D01*
X110286971Y-38083066D01*
X110253980Y-37136652D01*
X110222764Y-36340272D01*
X110190914Y-35674675D01*
X110156021Y-35120614D01*
X110115676Y-34658841D01*
X110067471Y-34270105D01*
X110008995Y-33935160D01*
X109937840Y-33634756D01*
X109851597Y-33349644D01*
X109747857Y-33060576D01*
X109624211Y-32748304D01*
X109617117Y-32730889D01*
X109469160Y-32396619D01*
X109293629Y-32043090D01*
X109109520Y-31703540D01*
X108935828Y-31411206D01*
X108791550Y-31199326D01*
X108695682Y-31101136D01*
X108683918Y-31098066D01*
X108703342Y-31166453D01*
X108788136Y-31348616D01*
X108921880Y-31610065D01*
X108976129Y-31711900D01*
X109321279Y-32484791D01*
X109605735Y-33402946D01*
X109825257Y-34451983D01*
X109871955Y-34749719D01*
X109915775Y-35070903D01*
X109946567Y-35366936D01*
X109964672Y-35668571D01*
X109970434Y-36006563D01*
X109964197Y-36411665D01*
X109946302Y-36914631D01*
X109917094Y-37546214D01*
X109905696Y-37774890D01*
X109856208Y-39067877D01*
X109847033Y-40215360D01*
X109879700Y-41236667D01*
X109955735Y-42151127D01*
X110076667Y-42978067D01*
X110244023Y-43736816D01*
X110425087Y-44346074D01*
X110574722Y-44770145D01*
X110732052Y-45155670D01*
X110909749Y-45519747D01*
X111120481Y-45879479D01*
X111376918Y-46251964D01*
X111691730Y-46654305D01*
X112077587Y-47103600D01*
X112547160Y-47616952D01*
X113113116Y-48211460D01*
X113788128Y-48904226D01*
X113845578Y-48962733D01*
X114446755Y-49575576D01*
X114939360Y-50080565D01*
X115334117Y-50490017D01*
X115641755Y-50816252D01*
X115872997Y-51071587D01*
X116038570Y-51268342D01*
X116149201Y-51418834D01*
X116215615Y-51535382D01*
X116248539Y-51630305D01*
X116258698Y-51715921D01*
X116258943Y-51734401D01*
X116222141Y-51867397D01*
X116118284Y-52129422D01*
X115957196Y-52498629D01*
X115748698Y-52953172D01*
X115502613Y-53471203D01*
X115228765Y-54030876D01*
X115203882Y-54080955D01*
X114917120Y-54663967D01*
X114646851Y-55225814D01*
X114405145Y-55740441D01*
X114204076Y-56181789D01*
X114055715Y-56523803D01*
X113972965Y-56737878D01*
X113844301Y-57182205D01*
X113752446Y-57633338D01*
X113697769Y-58112500D01*
X113680643Y-58640919D01*
X113701437Y-59239818D01*
X113760522Y-59930424D01*
X113858268Y-60733961D01*
X113995047Y-61671654D01*
X114067079Y-62128400D01*
X114203902Y-63072767D01*
X114303189Y-63958212D01*
X114363607Y-64762545D01*
X114383825Y-65463577D01*
X114362514Y-66039117D01*
X114321008Y-66361733D01*
X114131006Y-67028125D01*
X113816512Y-67725305D01*
X113404586Y-68408517D01*
X112922284Y-69033004D01*
X112396665Y-69554010D01*
X112385357Y-69563520D01*
X112024152Y-69825911D01*
X111546286Y-70115136D01*
X110996800Y-70407764D01*
X110420733Y-70680366D01*
X109863127Y-70909510D01*
X109654943Y-70983888D01*
X109139848Y-71111419D01*
X108523927Y-71191339D01*
X107869622Y-71220946D01*
X107239375Y-71197538D01*
X106695630Y-71118415D01*
X106671811Y-71112942D01*
X105867518Y-70847820D01*
X105070647Y-70442588D01*
X104322035Y-69923143D01*
X103662518Y-69315378D01*
X103442615Y-69065273D01*
X103131687Y-68651557D01*
X102835017Y-68191337D01*
X102580142Y-67732608D01*
X102394604Y-67323368D01*
X102328591Y-67123733D01*
X102276348Y-66972365D01*
X102237766Y-66981501D01*
X102226600Y-67019222D01*
X102235404Y-67203803D01*
X102306713Y-67494939D01*
X102425340Y-67848729D01*
X102576098Y-68221267D01*
X102743800Y-68568653D01*
X102793926Y-68659277D01*
X102958359Y-68904934D01*
X103204626Y-69223573D01*
X103495128Y-69568136D01*
X103707214Y-69802277D01*
X104109326Y-70237399D01*
X104402021Y-70569716D01*
X104597352Y-70814400D01*
X104707372Y-70986623D01*
X104744135Y-71101557D01*
X104744276Y-71107698D01*
X104666320Y-71184770D01*
X104458060Y-71267621D01*
X104157913Y-71347609D01*
X103804294Y-71416095D01*
X103435618Y-71464438D01*
X103090300Y-71483997D01*
X103070946Y-71484066D01*
X102152878Y-71401839D01*
X101225664Y-71160561D01*
X100307213Y-70768342D01*
X99415437Y-70233290D01*
X98568244Y-69563511D01*
X98322093Y-69334266D01*
X97705369Y-68689957D01*
X97043232Y-67908506D01*
X96352352Y-67010311D01*
X95858033Y-66319400D01*
X95506263Y-65825210D01*
X95154309Y-65357699D01*
X94783142Y-64894842D01*
X94373733Y-64414615D01*
X93907051Y-63894993D01*
X93364066Y-63313954D01*
X92725749Y-62649471D01*
X92383151Y-62297733D01*
X91470389Y-61361764D01*
X90668106Y-60533589D01*
X89966614Y-59801696D01*
X89356225Y-59154574D01*
X88827250Y-58580713D01*
X88370001Y-58068602D01*
X87974789Y-57606731D01*
X87631926Y-57183587D01*
X87331723Y-56787661D01*
X87064493Y-56407442D01*
X86820546Y-56031418D01*
X86590194Y-55648080D01*
X86363749Y-55245915D01*
X86213017Y-54966997D01*
X85751731Y-54018173D01*
X85347946Y-53018658D01*
X85009187Y-51997975D01*
X84742977Y-50985647D01*
X84556842Y-50011197D01*
X84458306Y-49104149D01*
X84454893Y-48294025D01*
X84468553Y-48122480D01*
X84636707Y-47099814D01*
X84931775Y-46086220D01*
X85338060Y-45120416D01*
X85839862Y-44241122D01*
X86264168Y-43671066D01*
X99457511Y-43671066D01*
X99459685Y-44151426D01*
X99470618Y-44510114D01*
X99497392Y-44794784D01*
X99547087Y-45053090D01*
X99626787Y-45332684D01*
X99743571Y-45681220D01*
X99765767Y-45745400D01*
X99896632Y-46130759D01*
X100009926Y-46478241D01*
X100091555Y-46743814D01*
X100123852Y-46864263D01*
X100126009Y-47032511D01*
X100095706Y-47326058D01*
X100038234Y-47705129D01*
X99958884Y-48129953D01*
X99949291Y-48176596D01*
X99762704Y-49352890D01*
X99712276Y-50435086D01*
X99798581Y-51430531D01*
X100022192Y-52346571D01*
X100333798Y-53094397D01*
X100582468Y-53542421D01*
X100917040Y-54081809D01*
X101312892Y-54675633D01*
X101745403Y-55286967D01*
X102189952Y-55878883D01*
X102192936Y-55882726D01*
X102730688Y-56494725D01*
X103373055Y-57094846D01*
X104079665Y-57652608D01*
X104810146Y-58137528D01*
X105524127Y-58519125D01*
X105884565Y-58669996D01*
X106333644Y-58797767D01*
X106787460Y-58859342D01*
X107199807Y-58853274D01*
X107524484Y-58778118D01*
X107625271Y-58724452D01*
X107816127Y-58573501D01*
X107940043Y-58449285D01*
X108043438Y-58289178D01*
X108202315Y-58004240D01*
X108402148Y-57623822D01*
X108628412Y-57177278D01*
X108866583Y-56693959D01*
X109102134Y-56203220D01*
X109320540Y-55734412D01*
X109507278Y-55316888D01*
X109609033Y-55076570D01*
X109863295Y-54425645D01*
X110043804Y-53880681D01*
X110159233Y-53399721D01*
X110218252Y-52940807D01*
X110229534Y-52461982D01*
X110216419Y-52137733D01*
X110120821Y-51282007D01*
X109932192Y-50540965D01*
X109635086Y-49878778D01*
X109214057Y-49259616D01*
X108755399Y-48748653D01*
X108108927Y-48173574D01*
X107407075Y-47706943D01*
X106625872Y-47337959D01*
X105741348Y-47055826D01*
X104729534Y-46849742D01*
X104447943Y-46808015D01*
X104021761Y-46748254D01*
X103630279Y-46691928D01*
X103319170Y-46645695D01*
X103143921Y-46617922D01*
X102869932Y-46509766D01*
X102564964Y-46297100D01*
X102280746Y-46023170D01*
X102069008Y-45731227D01*
X102057292Y-45709429D01*
X101956883Y-45373826D01*
X101932040Y-44917078D01*
X101981952Y-44369170D01*
X102105807Y-43760084D01*
X102110542Y-43741626D01*
X102192648Y-43411379D01*
X102254801Y-43138484D01*
X102286764Y-42968742D01*
X102288943Y-42943701D01*
X102249900Y-42894129D01*
X102146552Y-42965759D01*
X101999569Y-43133324D01*
X101829622Y-43371558D01*
X101657381Y-43655193D01*
X101566396Y-43826907D01*
X101431053Y-44108690D01*
X101345173Y-44335852D01*
X101297495Y-44563525D01*
X101276757Y-44846842D01*
X101271698Y-45240938D01*
X101271646Y-45269942D01*
X101255720Y-45784588D01*
X101208579Y-46133126D01*
X101128463Y-46316198D01*
X101013614Y-46334446D01*
X100862272Y-46188513D01*
X100672679Y-45879043D01*
X100508439Y-45548800D01*
X100255038Y-44965780D01*
X100075038Y-44435614D01*
X99953667Y-43897935D01*
X99876152Y-43292379D01*
X99841736Y-42824400D01*
X99782092Y-41808400D01*
X99619637Y-42147066D01*
X99552145Y-42313732D01*
X99505866Y-42506030D01*
X99477126Y-42758504D01*
X99462249Y-43105693D01*
X99457562Y-43582139D01*
X99457511Y-43671066D01*
X86264168Y-43671066D01*
X86284370Y-43643925D01*
X86519444Y-43350338D01*
X86635364Y-43175212D01*
X86636753Y-43121452D01*
X86528238Y-43191966D01*
X86314441Y-43389661D01*
X86148816Y-43558719D01*
X85431924Y-44431953D01*
X84843676Y-45415256D01*
X84384146Y-46508496D01*
X84282243Y-46822204D01*
X84202720Y-47092493D01*
X84144044Y-47330715D01*
X84102949Y-47570422D01*
X84076166Y-47845167D01*
X84060426Y-48188503D01*
X84052462Y-48633983D01*
X84049005Y-49215159D01*
X84049000Y-49216733D01*
X84053002Y-49950523D01*
X84075188Y-50560776D01*
X84122398Y-51092909D01*
X84201469Y-51592336D01*
X84319242Y-52104476D01*
X84482554Y-52674742D01*
X84648218Y-53196066D01*
X84982828Y-54096364D01*
X85411342Y-55055468D01*
X85906682Y-56021833D01*
X86441774Y-56943916D01*
X86989539Y-57770173D01*
X87200861Y-58055445D01*
X87338894Y-58218768D01*
X87582353Y-58488719D01*
X87917918Y-58851210D01*
X88332267Y-59292151D01*
X88812080Y-59797453D01*
X89344036Y-60353026D01*
X89914815Y-60944781D01*
X90511096Y-61558629D01*
X90571334Y-61620400D01*
X91365353Y-62435687D01*
X92053029Y-63145302D01*
X92647469Y-63763596D01*
X93161777Y-64304922D01*
X93609059Y-64783632D01*
X94002421Y-65214078D01*
X94354967Y-65610612D01*
X94679802Y-65987588D01*
X94990034Y-66359357D01*
X95298765Y-66740271D01*
X95619103Y-67144683D01*
X95640129Y-67171475D01*
X95954760Y-67555752D01*
X96353274Y-68017154D01*
X96798660Y-68514239D01*
X97253902Y-69005567D01*
X97605924Y-69372366D01*
X98812199Y-70604999D01*
X98794763Y-73182366D01*
X98790404Y-73961835D01*
X98791528Y-74611026D01*
X98802084Y-75161365D01*
X98826017Y-75644278D01*
X98867276Y-76091193D01*
X98929807Y-76533535D01*
X99017557Y-77002733D01*
X99134475Y-77530211D01*
X99284506Y-78147397D01*
X99471600Y-78885718D01*
X99549174Y-79188733D01*
X99704501Y-79795170D01*
X99863576Y-80416561D01*
X100015331Y-81009655D01*
X100148701Y-81531201D01*
X100252620Y-81937949D01*
X100264051Y-81982733D01*
X100408431Y-82588837D01*
X100547435Y-83247015D01*
X100676451Y-83927757D01*
X100790866Y-84601552D01*
X100886067Y-85238890D01*
X100957442Y-85810260D01*
X101000378Y-86286153D01*
X101010264Y-86637057D01*
X101005140Y-86724066D01*
X100975084Y-86908206D01*
X100898712Y-87004130D01*
X100726744Y-87053926D01*
X100595610Y-87073825D01*
X100441892Y-87084761D01*
X100135352Y-87097184D01*
X99692488Y-87110726D01*
X99129800Y-87125018D01*
X98463788Y-87139689D01*
X97710953Y-87154370D01*
X96887794Y-87168693D01*
X96010810Y-87182287D01*
X95323183Y-87191842D01*
X94432495Y-87204476D01*
X93595822Y-87218033D01*
X92827869Y-87232163D01*
X92143339Y-87246513D01*
X91556937Y-87260731D01*
X91083367Y-87274465D01*
X90737332Y-87287363D01*
X90533536Y-87299072D01*
X90483046Y-87307750D01*
X90581912Y-87338182D01*
X90815208Y-87384489D01*
X91149447Y-87440686D01*
X91551142Y-87500789D01*
X91606807Y-87508609D01*
X91859356Y-87540319D01*
X92143394Y-87568428D01*
X92472870Y-87593414D01*
X92861735Y-87615751D01*
X93323940Y-87635917D01*
X93873435Y-87654386D01*
X94524171Y-87671636D01*
X95290099Y-87688141D01*
X96185168Y-87704378D01*
X97223330Y-87720823D01*
X98267276Y-87735857D01*
X99346818Y-87752151D01*
X100351315Y-87769854D01*
X101268794Y-87788634D01*
X102087280Y-87808156D01*
X102794798Y-87828086D01*
X103379373Y-87848092D01*
X103829032Y-87867840D01*
X104131798Y-87886996D01*
X104266705Y-87902987D01*
X104986018Y-88087021D01*
X105814447Y-88350772D01*
X106756595Y-88696175D01*
X107817062Y-89125166D01*
X109000448Y-89639678D01*
X110311356Y-90241646D01*
X111754385Y-90933005D01*
X113334136Y-91715691D01*
X113337943Y-91717604D01*
X114352409Y-92231761D01*
X115282962Y-92712097D01*
X116119550Y-93153099D01*
X116852120Y-93549256D01*
X117470619Y-93895057D01*
X117964997Y-94184989D01*
X118325201Y-94413541D01*
X118527094Y-94562835D01*
X118708243Y-94727591D01*
X118780212Y-94845436D01*
X118764317Y-94977367D01*
X118715708Y-95102610D01*
X118547693Y-95411393D01*
X118269966Y-95808235D01*
X117901919Y-96271624D01*
X117462944Y-96780049D01*
X116972435Y-97311999D01*
X116449783Y-97845960D01*
X115914380Y-98360423D01*
X115385621Y-98833874D01*
X115242943Y-98954871D01*
X114327987Y-99647948D01*
X113294898Y-100303455D01*
X112194689Y-100891807D01*
X111078373Y-101383418D01*
X111009610Y-101410111D01*
X110503008Y-101605380D01*
X110129165Y-101754373D01*
X109863406Y-101873172D01*
X109681056Y-101977857D01*
X109557441Y-102084511D01*
X109467886Y-102209213D01*
X109387716Y-102368045D01*
X109323616Y-102508919D01*
X108968488Y-103083837D01*
X108460044Y-103587057D01*
X107798235Y-104018618D01*
X107029387Y-104361532D01*
X106612898Y-104512072D01*
X106325723Y-104602011D01*
X106140292Y-104634470D01*
X106029036Y-104612574D01*
X105964383Y-104539447D01*
X105940992Y-104484852D01*
X105908400Y-104332282D01*
X105868149Y-104047883D01*
X105824779Y-103668719D01*
X105782832Y-103231853D01*
X105772194Y-103107066D01*
X105726404Y-102628914D01*
X105671297Y-102167409D01*
X105613331Y-101770790D01*
X105558965Y-101487293D01*
X105551141Y-101456066D01*
X105441254Y-101118177D01*
X105282526Y-100732840D01*
X105089126Y-100324265D01*
X104875222Y-99916662D01*
X104654986Y-99534241D01*
X104442587Y-99201211D01*
X104252194Y-98941782D01*
X104097978Y-98780164D01*
X103994108Y-98740568D01*
X103972735Y-98759272D01*
X103925868Y-98913579D01*
X103900367Y-99153132D01*
X103898906Y-99218016D01*
X103878268Y-99546795D01*
X103824111Y-99963551D01*
X103745006Y-100426838D01*
X103649526Y-100895208D01*
X103546242Y-101327213D01*
X103443727Y-101681406D01*
X103350553Y-101916339D01*
X103335350Y-101942900D01*
X103208479Y-102089509D01*
X103068755Y-102119979D01*
X102899487Y-102025539D01*
X102683984Y-101797420D01*
X102436940Y-101470900D01*
X101745234Y-100638013D01*
X100918999Y-99871267D01*
X99987086Y-99192288D01*
X98978343Y-98622704D01*
X98173087Y-98274415D01*
X97950800Y-98199485D01*
X97592826Y-98089353D01*
X97127168Y-97952157D01*
X96581834Y-97796032D01*
X95984829Y-97629113D01*
X95420312Y-97474710D01*
X94320088Y-97175163D01*
X93159214Y-96855555D01*
X91951705Y-96519954D01*
X90711579Y-96172427D01*
X89452854Y-95817041D01*
X88189547Y-95457862D01*
X86935676Y-95098959D01*
X85705258Y-94744397D01*
X84512310Y-94398245D01*
X83370850Y-94064569D01*
X82294896Y-93747435D01*
X81298464Y-93450911D01*
X80395573Y-93179065D01*
X79600240Y-92935962D01*
X78926481Y-92725671D01*
X78388316Y-92552257D01*
X78007701Y-92422627D01*
X77424626Y-92187851D01*
X76978217Y-91934490D01*
X76642144Y-91632202D01*
X76390076Y-91250648D01*
X76195682Y-90759488D01*
X76038078Y-90153066D01*
X75931545Y-89536882D01*
X75854501Y-88811608D01*
X75808337Y-88027160D01*
X75794444Y-87233455D01*
X75814210Y-86480409D01*
X75869027Y-85817936D01*
X75909584Y-85538733D01*
X76081901Y-84757816D01*
X76342936Y-83869016D01*
X76681996Y-82901530D01*
X77088387Y-81884554D01*
X77551415Y-80847287D01*
X77863278Y-80204733D01*
X78041093Y-79843732D01*
X78206331Y-79497662D01*
X78332105Y-79223209D01*
X78365128Y-79146691D01*
X78506414Y-78808315D01*
X78200796Y-79104357D01*
X77943807Y-79396542D01*
X77646101Y-79803995D01*
X77333091Y-80286100D01*
X77030189Y-80802239D01*
X76762808Y-81311794D01*
X76605631Y-81653966D01*
X76257585Y-82504026D01*
X75917019Y-83393639D01*
X75599752Y-84278264D01*
X75321600Y-85113356D01*
X75098379Y-85854374D01*
X75045801Y-86046733D01*
X74917067Y-86549009D01*
X74830269Y-86946435D01*
X74777355Y-87295946D01*
X74750275Y-87654479D01*
X74740976Y-88078969D01*
X74740479Y-88205733D01*
X74742558Y-88637833D01*
X74756777Y-88966090D01*
X74792579Y-89244897D01*
X74859406Y-89528645D01*
X74966701Y-89871729D01*
X75094191Y-90243209D01*
X75228709Y-90637321D01*
X75339881Y-90977332D01*
X75416975Y-91229362D01*
X75449255Y-91359532D01*
X75449610Y-91365042D01*
X75411871Y-91439294D01*
X75286963Y-91456298D01*
X75057349Y-91412991D01*
X74705490Y-91306312D01*
X74299134Y-91164225D01*
X72854159Y-90708706D01*
X71423762Y-90397228D01*
X70966813Y-90326743D01*
X70386350Y-90265785D01*
X69687628Y-90223994D01*
X68920683Y-90201835D01*
X68135553Y-90199773D01*
X67382274Y-90218270D01*
X66710885Y-90257793D01*
X66429932Y-90284642D01*
X65946336Y-90325966D01*
X65624462Y-90324133D01*
X65480769Y-90289750D01*
X65418476Y-90233522D01*
X65434358Y-90154884D01*
X65545837Y-90026817D01*
X65770337Y-89822303D01*
X65797610Y-89798411D01*
X66735066Y-88897375D01*
X67511159Y-87972972D01*
X68133276Y-87015855D01*
X68391491Y-86516664D01*
X68615180Y-85923261D01*
X68760994Y-85240090D01*
X68830776Y-84449778D01*
X68826367Y-83534954D01*
X68781997Y-82833678D01*
X68696920Y-82059091D01*
X68570309Y-81391846D01*
X68384556Y-80771654D01*
X68122054Y-80138224D01*
X67816458Y-79527400D01*
X67432375Y-78847882D01*
X66991092Y-78144038D01*
X66513432Y-77443741D01*
X66020215Y-76774868D01*
X65532262Y-76165294D01*
X65070394Y-75642896D01*
X64655434Y-75235547D01*
X64533375Y-75131959D01*
X64158140Y-74828400D01*
X64798156Y-75759733D01*
X65536043Y-76888532D01*
X66194401Y-78007800D01*
X66765271Y-79100117D01*
X67240693Y-80148063D01*
X67612709Y-81134219D01*
X67873361Y-82041165D01*
X68007105Y-82783314D01*
X68057349Y-83386491D01*
X68075424Y-84033451D01*
X68063245Y-84683793D01*
X68022728Y-85297116D01*
X67955785Y-85833018D01*
X67864333Y-86251100D01*
X67839053Y-86329127D01*
X67400462Y-87334766D01*
X66831809Y-88234236D01*
X66129719Y-89031542D01*
X65290815Y-89730685D01*
X64591110Y-90180786D01*
X64243775Y-90387596D01*
X63957551Y-90570094D01*
X63760669Y-90709400D01*
X63681364Y-90786634D01*
X63680943Y-90789419D01*
X63760402Y-90846707D01*
X63999678Y-90867458D01*
X64400118Y-90851616D01*
X64963069Y-90799125D01*
X65689878Y-90709928D01*
X65743317Y-90702792D01*
X67238784Y-90560329D01*
X68711547Y-90533619D01*
X70131570Y-90621439D01*
X71468812Y-90822562D01*
X72081567Y-90961296D01*
X72712974Y-91141925D01*
X73412705Y-91376361D01*
X74143585Y-91649258D01*
X74868436Y-91945270D01*
X75550082Y-92249051D01*
X76151346Y-92545255D01*
X76635050Y-92818537D01*
X76733110Y-92881383D01*
X76954043Y-93058807D01*
X77048122Y-93231080D01*
X77058276Y-93330003D01*
X76993889Y-93561336D01*
X76805763Y-93889427D01*
X76501451Y-94304095D01*
X76088507Y-94795158D01*
X75574484Y-95352435D01*
X75502139Y-95427651D01*
X74580611Y-96326052D01*
X73647529Y-97129248D01*
X72718938Y-97826333D01*
X71810880Y-98406399D01*
X70939399Y-98858538D01*
X70120537Y-99171843D01*
X69906196Y-99232345D01*
X69471665Y-99385363D01*
X69174864Y-99598999D01*
X68986991Y-99903182D01*
X68884733Y-100293871D01*
X68695950Y-100922058D01*
X68353394Y-101485205D01*
X67863413Y-101973371D01*
X67763826Y-102049727D01*
X67313317Y-102353919D01*
X66938373Y-102548385D01*
X66652929Y-102626816D01*
X66520906Y-102612175D01*
X66442632Y-102510740D01*
X66359474Y-102293899D01*
X66304144Y-102075290D01*
X66027660Y-101129794D01*
X65597966Y-100221398D01*
X65031034Y-99380044D01*
X64607586Y-98894771D01*
X64389835Y-98689391D01*
X64205139Y-98551669D01*
X64092719Y-98510742D01*
X64091249Y-98511186D01*
X64008058Y-98605343D01*
X63900552Y-98814500D01*
X63801971Y-99066015D01*
X63635555Y-99467663D01*
X63441795Y-99807026D01*
X63242289Y-100053734D01*
X63058634Y-100177422D01*
X63005393Y-100186066D01*
X62908724Y-100156021D01*
X62848217Y-100040914D01*
X62807196Y-99803293D01*
X62798035Y-99720400D01*
X62759189Y-99347630D01*
X62716416Y-98938301D01*
X62698729Y-98769418D01*
X62624882Y-98285982D01*
X62504138Y-97916229D01*
X62316305Y-97646212D01*
X62041191Y-97461984D01*
X61658603Y-97349600D01*
X61148347Y-97295111D01*
X60548276Y-97284129D01*
X60032025Y-97295987D01*
X59567719Y-97329591D01*
X59094413Y-97392134D01*
X58551162Y-97490811D01*
X58219943Y-97558972D01*
X57081236Y-97794449D01*
X56089113Y-97987457D01*
X55226785Y-98140057D01*
X54477464Y-98254311D01*
X53824361Y-98332281D01*
X53250687Y-98376027D01*
X52739654Y-98387613D01*
X52274471Y-98369100D01*
X51916536Y-98333043D01*
X51228528Y-98215413D01*
X50670453Y-98049092D01*
X50206408Y-97819634D01*
X49800491Y-97512596D01*
X49741177Y-97457802D01*
X49457769Y-97173638D01*
X49256395Y-96917585D01*
X49123231Y-96650737D01*
X49044449Y-96334191D01*
X49006226Y-95929043D01*
X48994735Y-95396390D01*
X48994585Y-95356939D01*
X48991276Y-94295479D01*
X49316843Y-93635475D01*
X49769012Y-92900239D01*
X50359482Y-92229959D01*
X51061158Y-91653293D01*
X51392713Y-91439824D01*
X51696726Y-91253864D01*
X51943389Y-91092985D01*
X52097238Y-90980808D01*
X52128765Y-90949598D01*
X52113491Y-90895721D01*
X51963493Y-90915759D01*
X51693934Y-91004840D01*
X51319976Y-91158090D01*
X50936225Y-91332864D01*
X50171840Y-91693942D01*
X49816677Y-91211493D01*
X49422206Y-90636258D01*
X48987157Y-89933356D01*
X48528030Y-89134544D01*
X48061323Y-88271578D01*
X47603533Y-87376216D01*
X47171161Y-86480214D01*
X46780704Y-85615330D01*
X46448662Y-84813321D01*
X46328658Y-84497616D01*
X45847469Y-83065095D01*
X45463434Y-81653048D01*
X45180122Y-80282193D01*
X45001100Y-78973251D01*
X44929935Y-77746942D01*
X44970196Y-76623983D01*
X44971124Y-76613878D01*
X45078831Y-75774913D01*
X45250221Y-74958136D01*
X45497606Y-74117695D01*
X45833300Y-73207736D01*
X45985181Y-72837514D01*
X46585052Y-71546588D01*
X47244113Y-70400813D01*
X47976800Y-69382029D01*
X48797549Y-68472072D01*
X49720797Y-67652783D01*
X50633643Y-66989637D01*
X52011600Y-66175230D01*
X53469257Y-65507710D01*
X54995821Y-64990840D01*
X56580498Y-64628383D01*
X57923610Y-64448298D01*
X58474643Y-64412648D01*
X59139934Y-64393778D01*
X59874959Y-64390824D01*
X60635193Y-64402925D01*
X61376112Y-64429218D01*
X62053192Y-64468839D01*
X62621909Y-64520927D01*
X62791943Y-64542620D01*
X63709472Y-64703916D01*
X64739286Y-64942091D01*
X65848029Y-65247647D01*
X67002340Y-65611081D01*
X68168862Y-66022893D01*
X68694584Y-66223688D01*
X69415122Y-66499844D01*
X70017969Y-66713762D01*
X70539646Y-66873154D01*
X71016673Y-66985731D01*
X71485570Y-67059203D01*
X71982859Y-67101281D01*
X72545059Y-67119677D01*
X72951943Y-67122579D01*
X73503741Y-67120592D01*
X73922835Y-67111298D01*
X74245811Y-67091211D01*
X74509254Y-67056846D01*
X74749751Y-67004719D01*
X75003887Y-66931345D01*
X75023292Y-66925273D01*
X76055422Y-66520756D01*
X76995051Y-65983070D01*
X77844795Y-65309325D01*
X78607268Y-64496630D01*
X79285087Y-63542096D01*
X79880865Y-62442832D01*
X80397219Y-61195947D01*
X80516576Y-60853782D01*
X80763078Y-60069077D01*
X80978945Y-59262673D01*
X81167989Y-58412162D01*
X81334021Y-57495134D01*
X81480855Y-56489178D01*
X81612304Y-55371885D01*
X81732178Y-54120846D01*
X81798346Y-53319518D01*
X81911320Y-51918446D01*
X82018610Y-50671186D01*
X82121959Y-49562382D01*
X82223112Y-48576677D01*
X82323813Y-47698714D01*
X82425806Y-46913135D01*
X82530836Y-46204582D01*
X82640647Y-45557700D01*
X82737119Y-45054403D01*
X83198473Y-43109600D01*
X83787374Y-41190357D01*
X84489412Y-39339823D01*
X85093402Y-37998400D01*
X85592783Y-37006987D01*
X86074548Y-36142469D01*
X86564489Y-35368066D01*
X87088399Y-34646995D01*
X87672071Y-33942478D01*
X88341299Y-33217734D01*
X88707192Y-32845157D01*
X89324194Y-32242895D01*
X89935746Y-31675499D01*
X90528318Y-31153378D01*
X91088384Y-30686938D01*
X91602415Y-30286587D01*
X92056883Y-29962732D01*
X92438259Y-29725782D01*
X92733015Y-29586143D01*
X92927623Y-29554223D01*
X92966478Y-29568422D01*
X93024974Y-29673214D01*
X93104516Y-29909160D01*
X93194566Y-30241053D01*
X93282872Y-30625550D01*
X93479009Y-31429624D01*
X93726463Y-32246985D01*
X94010719Y-33039545D01*
X94317261Y-33769217D01*
X94631572Y-34397914D01*
X94869696Y-34789152D01*
X95003266Y-34978601D01*
X95069402Y-35051167D01*
X95066288Y-34999056D01*
X94992109Y-34814474D01*
X94845046Y-34489625D01*
X94754750Y-34295910D01*
X94281632Y-33151567D01*
X93922190Y-31990978D01*
X93680357Y-30838504D01*
X93560066Y-29718509D01*
X93565249Y-28655356D01*
X93691802Y-27711400D01*
X94026878Y-26503242D01*
X94522989Y-25305804D01*
X95171841Y-24131579D01*
X95965146Y-22993058D01*
X96894611Y-21902731D01*
X97951947Y-20873090D01*
X98587662Y-20335023D01*
X99064264Y-19963367D01*
X99572040Y-19588514D01*
X100088926Y-19224731D01*
X100592857Y-18886287D01*
X101061767Y-18587449D01*
X101473591Y-18342486D01*
X101806265Y-18165665D01*
X102037723Y-18071255D01*
X102106822Y-18059400D01*
X102147209Y-18138252D01*
G36*
X102147209Y-18138252D02*
G01*
X102210588Y-18356771D01*
X102290347Y-18687898D01*
X102379874Y-19104573D01*
X102453372Y-19477566D01*
X102683382Y-20560304D01*
X102944530Y-21525334D01*
X103252871Y-22423607D01*
X103624461Y-23306076D01*
X103732961Y-23538262D01*
X104084489Y-24310942D01*
X104351512Y-24987068D01*
X104545716Y-25609444D01*
X104678786Y-26220877D01*
X104762409Y-26864171D01*
X104802842Y-27457400D01*
X104780394Y-28624366D01*
X104606368Y-29758521D01*
X104286828Y-30841547D01*
X103827837Y-31855127D01*
X103235459Y-32780943D01*
X102905767Y-33188497D01*
X102684994Y-33446947D01*
X102494467Y-33679206D01*
X102375167Y-33835309D01*
X102374603Y-33836126D01*
X102293257Y-33961361D01*
X102320657Y-33963288D01*
X102416936Y-33894291D01*
X102582078Y-33763443D01*
X102803967Y-33577648D01*
X102903020Y-33492125D01*
X103094528Y-33331294D01*
X103236340Y-33242944D01*
X103338574Y-33242813D01*
X103411347Y-33346642D01*
X103464777Y-33570169D01*
X103508981Y-33929133D01*
X103554078Y-34439275D01*
X103560294Y-34514604D01*
X103603112Y-34986646D01*
X103653177Y-35464544D01*
X103703576Y-35885573D01*
X103738924Y-36135733D01*
X103941492Y-36993741D01*
X104276145Y-37896813D01*
X104725334Y-38810752D01*
X105271509Y-39701358D01*
X105897119Y-40534434D01*
X106141237Y-40816823D01*
X106438791Y-41117394D01*
X106805234Y-41440387D01*
X107219065Y-41771702D01*
X107658785Y-42097236D01*
X108102893Y-42402888D01*
X108529889Y-42674556D01*
X108918271Y-42898137D01*
X109246540Y-43059531D01*
X109493195Y-43144635D01*
X109636736Y-43139347D01*
X109654644Y-43121216D01*
X109672788Y-42951366D01*
X109597333Y-42701859D01*
X109333703Y-41923344D01*
X109162852Y-41013624D01*
X109090718Y-40157400D01*
X109073233Y-39688502D01*
X109072737Y-39343972D01*
X109092772Y-39079379D01*
X109136880Y-38850294D01*
X109208605Y-38612285D01*
X109215529Y-38591859D01*
X109301645Y-38326613D01*
X109355732Y-38135041D01*
X109366281Y-38062515D01*
X109320214Y-38119845D01*
X109221291Y-38291357D01*
X109097377Y-38527389D01*
X109011240Y-38701209D01*
X108947932Y-38852697D01*
X108903954Y-39011365D01*
X108875806Y-39206728D01*
X108859990Y-39468297D01*
X108853007Y-39825587D01*
X108851358Y-40308110D01*
X108851438Y-40601900D01*
X108847553Y-41232449D01*
X108834937Y-41699520D01*
X108813264Y-42008759D01*
X108782210Y-42165811D01*
X108760120Y-42189400D01*
X108583483Y-42128334D01*
X108317771Y-41958350D01*
X107983911Y-41699268D01*
X107602827Y-41370909D01*
X107195446Y-40993094D01*
X106782694Y-40585643D01*
X106385496Y-40168376D01*
X106024779Y-39761114D01*
X105721469Y-39383677D01*
X105563845Y-39161966D01*
X105067145Y-38327897D01*
X104655822Y-37442045D01*
X104318661Y-36473853D01*
X104044448Y-35392759D01*
X103894085Y-34611733D01*
X103803680Y-34021900D01*
X103765140Y-33547193D01*
X103784439Y-33139738D01*
X103867551Y-32751666D01*
X104020451Y-32335103D01*
X104236531Y-31867862D01*
X104583802Y-31102818D01*
X104849087Y-30380016D01*
X105044347Y-29651623D01*
X105181541Y-28869802D01*
X105272629Y-27986720D01*
X105296921Y-27626733D01*
X105332241Y-27138389D01*
X105382240Y-26794239D01*
X105465028Y-26569178D01*
X105598712Y-26438102D01*
X105801401Y-26375906D01*
X106091201Y-26357485D01*
X106212975Y-26356733D01*
X106808124Y-26389480D01*
X107521655Y-26482201D01*
X108316983Y-26626619D01*
X109157521Y-26814455D01*
X110006684Y-27037429D01*
X110827885Y-27287264D01*
X111584538Y-27555682D01*
X111684702Y-27594852D01*
X113050316Y-28201764D01*
X114374923Y-28919025D01*
X115634802Y-29729575D01*
X116806229Y-30616355D01*
X117865482Y-31562306D01*
X118788838Y-32550368D01*
X119087545Y-32918400D01*
X119539310Y-33523919D01*
X119877996Y-34033860D01*
X120101520Y-34443890D01*
X120207800Y-34749675D01*
X120194752Y-34946882D01*
X120098988Y-35022971D01*
X119774802Y-35117207D01*
X119328421Y-35242330D01*
X118801639Y-35387025D01*
X118236252Y-35539978D01*
X117674054Y-35689873D01*
X117156840Y-35825394D01*
X116766943Y-35925071D01*
X116200177Y-36076658D01*
X115774389Y-36216700D01*
X115463268Y-36359900D01*
X115240507Y-36520961D01*
X115079795Y-36714586D01*
X114965028Y-36932077D01*
X114890284Y-37127312D01*
X114841155Y-37336995D01*
X114813183Y-37600956D01*
X114801906Y-37959026D01*
X114802267Y-38385543D01*
X114817222Y-38876606D01*
X114850787Y-39373255D01*
X114897820Y-39812863D01*
X114941248Y-40079252D01*
X115160664Y-40827019D01*
X115491462Y-41535910D01*
X115908551Y-42157496D01*
X116167930Y-42446887D01*
X116537363Y-42781412D01*
X116894940Y-43024982D01*
X117261271Y-43177340D01*
X117656966Y-43238228D01*
X118102635Y-43207387D01*
X118618887Y-43084561D01*
X119226332Y-42869491D01*
X119945579Y-42561919D01*
X120307305Y-42395095D01*
X120700278Y-42215899D01*
X120968105Y-42108077D01*
X121135411Y-42063995D01*
X121226821Y-42076023D01*
X121252652Y-42102104D01*
X121287253Y-42231431D01*
X121323919Y-42488839D01*
X121357589Y-42833227D01*
X121377264Y-43114156D01*
X121401725Y-43526866D01*
X121433105Y-44051085D01*
X121467945Y-44629309D01*
X121502786Y-45204030D01*
X121515135Y-45406733D01*
X121551550Y-45883408D01*
X121608934Y-46486172D01*
X121682697Y-47173724D01*
X121768247Y-47904761D01*
X121860995Y-48637978D01*
X121933913Y-49174400D01*
X122079444Y-50231336D01*
X122197059Y-51139302D01*
X122288341Y-51916073D01*
X122354870Y-52579423D01*
X122398229Y-53147127D01*
X122420000Y-53636959D01*
X122421763Y-54066694D01*
X122405101Y-54454106D01*
X122404500Y-54462851D01*
X122291927Y-55480178D01*
X122098891Y-56374092D01*
X121816060Y-57174848D01*
X121434105Y-57912700D01*
X121254189Y-58193005D01*
X120971631Y-58583197D01*
X120676129Y-58945264D01*
X120391487Y-59254252D01*
X120141508Y-59485205D01*
X119949998Y-59613167D01*
X119882780Y-59630733D01*
X119812248Y-59620534D01*
X119768910Y-59570289D01*
X119749417Y-59450524D01*
X119750420Y-59231765D01*
X119768569Y-58884538D01*
X119778981Y-58717271D01*
X119801223Y-58285459D01*
X119800476Y-57948136D01*
X119770579Y-57640291D01*
X119705374Y-57296912D01*
X119604578Y-56876435D01*
X119331931Y-55890283D01*
X119035796Y-55008725D01*
X118725402Y-54257978D01*
X118577370Y-53958066D01*
X118200242Y-53313134D01*
X117707284Y-52593014D01*
X117094680Y-51793007D01*
X116358609Y-50908415D01*
X115495255Y-49934541D01*
X114500800Y-48866685D01*
X114096911Y-48444798D01*
X113428575Y-47745022D01*
X112870149Y-47143646D01*
X112408535Y-46622699D01*
X112030633Y-46164212D01*
X111723344Y-45750214D01*
X111473567Y-45362733D01*
X111268204Y-44983800D01*
X111094155Y-44595444D01*
X110938321Y-44179693D01*
X110894877Y-44052066D01*
X110787825Y-43702733D01*
X110695297Y-43330762D01*
X110615534Y-42918885D01*
X110546777Y-42449831D01*
X110487266Y-41906329D01*
X110435244Y-41271109D01*
X110388951Y-40526902D01*
X110346628Y-39656437D01*
X110306517Y-38642444D01*
X110286971Y-38083066D01*
X110253980Y-37136652D01*
X110222764Y-36340272D01*
X110190914Y-35674675D01*
X110156021Y-35120614D01*
X110115676Y-34658841D01*
X110067471Y-34270105D01*
X110008995Y-33935160D01*
X109937840Y-33634756D01*
X109851597Y-33349644D01*
X109747857Y-33060576D01*
X109624211Y-32748304D01*
X109617117Y-32730889D01*
X109469160Y-32396619D01*
X109293629Y-32043090D01*
X109109520Y-31703540D01*
X108935828Y-31411206D01*
X108791550Y-31199326D01*
X108695682Y-31101136D01*
X108683918Y-31098066D01*
X108703342Y-31166453D01*
X108788136Y-31348616D01*
X108921880Y-31610065D01*
X108976129Y-31711900D01*
X109321279Y-32484791D01*
X109605735Y-33402946D01*
X109825257Y-34451983D01*
X109871955Y-34749719D01*
X109915775Y-35070903D01*
X109946567Y-35366936D01*
X109964672Y-35668571D01*
X109970434Y-36006563D01*
X109964197Y-36411665D01*
X109946302Y-36914631D01*
X109917094Y-37546214D01*
X109905696Y-37774890D01*
X109856208Y-39067877D01*
X109847033Y-40215360D01*
X109879700Y-41236667D01*
X109955735Y-42151127D01*
X110076667Y-42978067D01*
X110244023Y-43736816D01*
X110425087Y-44346074D01*
X110574722Y-44770145D01*
X110732052Y-45155670D01*
X110909749Y-45519747D01*
X111120481Y-45879479D01*
X111376918Y-46251964D01*
X111691730Y-46654305D01*
X112077587Y-47103600D01*
X112547160Y-47616952D01*
X113113116Y-48211460D01*
X113788128Y-48904226D01*
X113845578Y-48962733D01*
X114446755Y-49575576D01*
X114939360Y-50080565D01*
X115334117Y-50490017D01*
X115641755Y-50816252D01*
X115872997Y-51071587D01*
X116038570Y-51268342D01*
X116149201Y-51418834D01*
X116215615Y-51535382D01*
X116248539Y-51630305D01*
X116258698Y-51715921D01*
X116258943Y-51734401D01*
X116222141Y-51867397D01*
X116118284Y-52129422D01*
X115957196Y-52498629D01*
X115748698Y-52953172D01*
X115502613Y-53471203D01*
X115228765Y-54030876D01*
X115203882Y-54080955D01*
X114917120Y-54663967D01*
X114646851Y-55225814D01*
X114405145Y-55740441D01*
X114204076Y-56181789D01*
X114055715Y-56523803D01*
X113972965Y-56737878D01*
X113844301Y-57182205D01*
X113752446Y-57633338D01*
X113697769Y-58112500D01*
X113680643Y-58640919D01*
X113701437Y-59239818D01*
X113760522Y-59930424D01*
X113858268Y-60733961D01*
X113995047Y-61671654D01*
X114067079Y-62128400D01*
X114203902Y-63072767D01*
X114303189Y-63958212D01*
X114363607Y-64762545D01*
X114383825Y-65463577D01*
X114362514Y-66039117D01*
X114321008Y-66361733D01*
X114131006Y-67028125D01*
X113816512Y-67725305D01*
X113404586Y-68408517D01*
X112922284Y-69033004D01*
X112396665Y-69554010D01*
X112385357Y-69563520D01*
X112024152Y-69825911D01*
X111546286Y-70115136D01*
X110996800Y-70407764D01*
X110420733Y-70680366D01*
X109863127Y-70909510D01*
X109654943Y-70983888D01*
X109139848Y-71111419D01*
X108523927Y-71191339D01*
X107869622Y-71220946D01*
X107239375Y-71197538D01*
X106695630Y-71118415D01*
X106671811Y-71112942D01*
X105867518Y-70847820D01*
X105070647Y-70442588D01*
X104322035Y-69923143D01*
X103662518Y-69315378D01*
X103442615Y-69065273D01*
X103131687Y-68651557D01*
X102835017Y-68191337D01*
X102580142Y-67732608D01*
X102394604Y-67323368D01*
X102328591Y-67123733D01*
X102276348Y-66972365D01*
X102237766Y-66981501D01*
X102226600Y-67019222D01*
X102235404Y-67203803D01*
X102306713Y-67494939D01*
X102425340Y-67848729D01*
X102576098Y-68221267D01*
X102743800Y-68568653D01*
X102793926Y-68659277D01*
X102958359Y-68904934D01*
X103204626Y-69223573D01*
X103495128Y-69568136D01*
X103707214Y-69802277D01*
X104109326Y-70237399D01*
X104402021Y-70569716D01*
X104597352Y-70814400D01*
X104707372Y-70986623D01*
X104744135Y-71101557D01*
X104744276Y-71107698D01*
X104666320Y-71184770D01*
X104458060Y-71267621D01*
X104157913Y-71347609D01*
X103804294Y-71416095D01*
X103435618Y-71464438D01*
X103090300Y-71483997D01*
X103070946Y-71484066D01*
X102152878Y-71401839D01*
X101225664Y-71160561D01*
X100307213Y-70768342D01*
X99415437Y-70233290D01*
X98568244Y-69563511D01*
X98322093Y-69334266D01*
X97705369Y-68689957D01*
X97043232Y-67908506D01*
X96352352Y-67010311D01*
X95858033Y-66319400D01*
X95506263Y-65825210D01*
X95154309Y-65357699D01*
X94783142Y-64894842D01*
X94373733Y-64414615D01*
X93907051Y-63894993D01*
X93364066Y-63313954D01*
X92725749Y-62649471D01*
X92383151Y-62297733D01*
X91470389Y-61361764D01*
X90668106Y-60533589D01*
X89966614Y-59801696D01*
X89356225Y-59154574D01*
X88827250Y-58580713D01*
X88370001Y-58068602D01*
X87974789Y-57606731D01*
X87631926Y-57183587D01*
X87331723Y-56787661D01*
X87064493Y-56407442D01*
X86820546Y-56031418D01*
X86590194Y-55648080D01*
X86363749Y-55245915D01*
X86213017Y-54966997D01*
X85751731Y-54018173D01*
X85347946Y-53018658D01*
X85009187Y-51997975D01*
X84742977Y-50985647D01*
X84556842Y-50011197D01*
X84458306Y-49104149D01*
X84454893Y-48294025D01*
X84468553Y-48122480D01*
X84636707Y-47099814D01*
X84931775Y-46086220D01*
X85338060Y-45120416D01*
X85839862Y-44241122D01*
X86264168Y-43671066D01*
X99457511Y-43671066D01*
X99459685Y-44151426D01*
X99470618Y-44510114D01*
X99497392Y-44794784D01*
X99547087Y-45053090D01*
X99626787Y-45332684D01*
X99743571Y-45681220D01*
X99765767Y-45745400D01*
X99896632Y-46130759D01*
X100009926Y-46478241D01*
X100091555Y-46743814D01*
X100123852Y-46864263D01*
X100126009Y-47032511D01*
X100095706Y-47326058D01*
X100038234Y-47705129D01*
X99958884Y-48129953D01*
X99949291Y-48176596D01*
X99762704Y-49352890D01*
X99712276Y-50435086D01*
X99798581Y-51430531D01*
X100022192Y-52346571D01*
X100333798Y-53094397D01*
X100582468Y-53542421D01*
X100917040Y-54081809D01*
X101312892Y-54675633D01*
X101745403Y-55286967D01*
X102189952Y-55878883D01*
X102192936Y-55882726D01*
X102730688Y-56494725D01*
X103373055Y-57094846D01*
X104079665Y-57652608D01*
X104810146Y-58137528D01*
X105524127Y-58519125D01*
X105884565Y-58669996D01*
X106333644Y-58797767D01*
X106787460Y-58859342D01*
X107199807Y-58853274D01*
X107524484Y-58778118D01*
X107625271Y-58724452D01*
X107816127Y-58573501D01*
X107940043Y-58449285D01*
X108043438Y-58289178D01*
X108202315Y-58004240D01*
X108402148Y-57623822D01*
X108628412Y-57177278D01*
X108866583Y-56693959D01*
X109102134Y-56203220D01*
X109320540Y-55734412D01*
X109507278Y-55316888D01*
X109609033Y-55076570D01*
X109863295Y-54425645D01*
X110043804Y-53880681D01*
X110159233Y-53399721D01*
X110218252Y-52940807D01*
X110229534Y-52461982D01*
X110216419Y-52137733D01*
X110120821Y-51282007D01*
X109932192Y-50540965D01*
X109635086Y-49878778D01*
X109214057Y-49259616D01*
X108755399Y-48748653D01*
X108108927Y-48173574D01*
X107407075Y-47706943D01*
X106625872Y-47337959D01*
X105741348Y-47055826D01*
X104729534Y-46849742D01*
X104447943Y-46808015D01*
X104021761Y-46748254D01*
X103630279Y-46691928D01*
X103319170Y-46645695D01*
X103143921Y-46617922D01*
X102869932Y-46509766D01*
X102564964Y-46297100D01*
X102280746Y-46023170D01*
X102069008Y-45731227D01*
X102057292Y-45709429D01*
X101956883Y-45373826D01*
X101932040Y-44917078D01*
X101981952Y-44369170D01*
X102105807Y-43760084D01*
X102110542Y-43741626D01*
X102192648Y-43411379D01*
X102254801Y-43138484D01*
X102286764Y-42968742D01*
X102288943Y-42943701D01*
X102249900Y-42894129D01*
X102146552Y-42965759D01*
X101999569Y-43133324D01*
X101829622Y-43371558D01*
X101657381Y-43655193D01*
X101566396Y-43826907D01*
X101431053Y-44108690D01*
X101345173Y-44335852D01*
X101297495Y-44563525D01*
X101276757Y-44846842D01*
X101271698Y-45240938D01*
X101271646Y-45269942D01*
X101255720Y-45784588D01*
X101208579Y-46133126D01*
X101128463Y-46316198D01*
X101013614Y-46334446D01*
X100862272Y-46188513D01*
X100672679Y-45879043D01*
X100508439Y-45548800D01*
X100255038Y-44965780D01*
X100075038Y-44435614D01*
X99953667Y-43897935D01*
X99876152Y-43292379D01*
X99841736Y-42824400D01*
X99782092Y-41808400D01*
X99619637Y-42147066D01*
X99552145Y-42313732D01*
X99505866Y-42506030D01*
X99477126Y-42758504D01*
X99462249Y-43105693D01*
X99457562Y-43582139D01*
X99457511Y-43671066D01*
X86264168Y-43671066D01*
X86284370Y-43643925D01*
X86519444Y-43350338D01*
X86635364Y-43175212D01*
X86636753Y-43121452D01*
X86528238Y-43191966D01*
X86314441Y-43389661D01*
X86148816Y-43558719D01*
X85431924Y-44431953D01*
X84843676Y-45415256D01*
X84384146Y-46508496D01*
X84282243Y-46822204D01*
X84202720Y-47092493D01*
X84144044Y-47330715D01*
X84102949Y-47570422D01*
X84076166Y-47845167D01*
X84060426Y-48188503D01*
X84052462Y-48633983D01*
X84049005Y-49215159D01*
X84049000Y-49216733D01*
X84053002Y-49950523D01*
X84075188Y-50560776D01*
X84122398Y-51092909D01*
X84201469Y-51592336D01*
X84319242Y-52104476D01*
X84482554Y-52674742D01*
X84648218Y-53196066D01*
X84982828Y-54096364D01*
X85411342Y-55055468D01*
X85906682Y-56021833D01*
X86441774Y-56943916D01*
X86989539Y-57770173D01*
X87200861Y-58055445D01*
X87338894Y-58218768D01*
X87582353Y-58488719D01*
X87917918Y-58851210D01*
X88332267Y-59292151D01*
X88812080Y-59797453D01*
X89344036Y-60353026D01*
X89914815Y-60944781D01*
X90511096Y-61558629D01*
X90571334Y-61620400D01*
X91365353Y-62435687D01*
X92053029Y-63145302D01*
X92647469Y-63763596D01*
X93161777Y-64304922D01*
X93609059Y-64783632D01*
X94002421Y-65214078D01*
X94354967Y-65610612D01*
X94679802Y-65987588D01*
X94990034Y-66359357D01*
X95298765Y-66740271D01*
X95619103Y-67144683D01*
X95640129Y-67171475D01*
X95954760Y-67555752D01*
X96353274Y-68017154D01*
X96798660Y-68514239D01*
X97253902Y-69005567D01*
X97605924Y-69372366D01*
X98812199Y-70604999D01*
X98794763Y-73182366D01*
X98790404Y-73961835D01*
X98791528Y-74611026D01*
X98802084Y-75161365D01*
X98826017Y-75644278D01*
X98867276Y-76091193D01*
X98929807Y-76533535D01*
X99017557Y-77002733D01*
X99134475Y-77530211D01*
X99284506Y-78147397D01*
X99471600Y-78885718D01*
X99549174Y-79188733D01*
X99704501Y-79795170D01*
X99863576Y-80416561D01*
X100015331Y-81009655D01*
X100148701Y-81531201D01*
X100252620Y-81937949D01*
X100264051Y-81982733D01*
X100408431Y-82588837D01*
X100547435Y-83247015D01*
X100676451Y-83927757D01*
X100790866Y-84601552D01*
X100886067Y-85238890D01*
X100957442Y-85810260D01*
X101000378Y-86286153D01*
X101010264Y-86637057D01*
X101005140Y-86724066D01*
X100975084Y-86908206D01*
X100898712Y-87004130D01*
X100726744Y-87053926D01*
X100595610Y-87073825D01*
X100441892Y-87084761D01*
X100135352Y-87097184D01*
X99692488Y-87110726D01*
X99129800Y-87125018D01*
X98463788Y-87139689D01*
X97710953Y-87154370D01*
X96887794Y-87168693D01*
X96010810Y-87182287D01*
X95323183Y-87191842D01*
X94432495Y-87204476D01*
X93595822Y-87218033D01*
X92827869Y-87232163D01*
X92143339Y-87246513D01*
X91556937Y-87260731D01*
X91083367Y-87274465D01*
X90737332Y-87287363D01*
X90533536Y-87299072D01*
X90483046Y-87307750D01*
X90581912Y-87338182D01*
X90815208Y-87384489D01*
X91149447Y-87440686D01*
X91551142Y-87500789D01*
X91606807Y-87508609D01*
X91859356Y-87540319D01*
X92143394Y-87568428D01*
X92472870Y-87593414D01*
X92861735Y-87615751D01*
X93323940Y-87635917D01*
X93873435Y-87654386D01*
X94524171Y-87671636D01*
X95290099Y-87688141D01*
X96185168Y-87704378D01*
X97223330Y-87720823D01*
X98267276Y-87735857D01*
X99346818Y-87752151D01*
X100351315Y-87769854D01*
X101268794Y-87788634D01*
X102087280Y-87808156D01*
X102794798Y-87828086D01*
X103379373Y-87848092D01*
X103829032Y-87867840D01*
X104131798Y-87886996D01*
X104266705Y-87902987D01*
X104986018Y-88087021D01*
X105814447Y-88350772D01*
X106756595Y-88696175D01*
X107817062Y-89125166D01*
X109000448Y-89639678D01*
X110311356Y-90241646D01*
X111754385Y-90933005D01*
X113334136Y-91715691D01*
X113337943Y-91717604D01*
X114352409Y-92231761D01*
X115282962Y-92712097D01*
X116119550Y-93153099D01*
X116852120Y-93549256D01*
X117470619Y-93895057D01*
X117964997Y-94184989D01*
X118325201Y-94413541D01*
X118527094Y-94562835D01*
X118708243Y-94727591D01*
X118780212Y-94845436D01*
X118764317Y-94977367D01*
X118715708Y-95102610D01*
X118547693Y-95411393D01*
X118269966Y-95808235D01*
X117901919Y-96271624D01*
X117462944Y-96780049D01*
X116972435Y-97311999D01*
X116449783Y-97845960D01*
X115914380Y-98360423D01*
X115385621Y-98833874D01*
X115242943Y-98954871D01*
X114327987Y-99647948D01*
X113294898Y-100303455D01*
X112194689Y-100891807D01*
X111078373Y-101383418D01*
X111009610Y-101410111D01*
X110503008Y-101605380D01*
X110129165Y-101754373D01*
X109863406Y-101873172D01*
X109681056Y-101977857D01*
X109557441Y-102084511D01*
X109467886Y-102209213D01*
X109387716Y-102368045D01*
X109323616Y-102508919D01*
X108968488Y-103083837D01*
X108460044Y-103587057D01*
X107798235Y-104018618D01*
X107029387Y-104361532D01*
X106612898Y-104512072D01*
X106325723Y-104602011D01*
X106140292Y-104634470D01*
X106029036Y-104612574D01*
X105964383Y-104539447D01*
X105940992Y-104484852D01*
X105908400Y-104332282D01*
X105868149Y-104047883D01*
X105824779Y-103668719D01*
X105782832Y-103231853D01*
X105772194Y-103107066D01*
X105726404Y-102628914D01*
X105671297Y-102167409D01*
X105613331Y-101770790D01*
X105558965Y-101487293D01*
X105551141Y-101456066D01*
X105441254Y-101118177D01*
X105282526Y-100732840D01*
X105089126Y-100324265D01*
X104875222Y-99916662D01*
X104654986Y-99534241D01*
X104442587Y-99201211D01*
X104252194Y-98941782D01*
X104097978Y-98780164D01*
X103994108Y-98740568D01*
X103972735Y-98759272D01*
X103925868Y-98913579D01*
X103900367Y-99153132D01*
X103898906Y-99218016D01*
X103878268Y-99546795D01*
X103824111Y-99963551D01*
X103745006Y-100426838D01*
X103649526Y-100895208D01*
X103546242Y-101327213D01*
X103443727Y-101681406D01*
X103350553Y-101916339D01*
X103335350Y-101942900D01*
X103208479Y-102089509D01*
X103068755Y-102119979D01*
X102899487Y-102025539D01*
X102683984Y-101797420D01*
X102436940Y-101470900D01*
X101745234Y-100638013D01*
X100918999Y-99871267D01*
X99987086Y-99192288D01*
X98978343Y-98622704D01*
X98173087Y-98274415D01*
X97950800Y-98199485D01*
X97592826Y-98089353D01*
X97127168Y-97952157D01*
X96581834Y-97796032D01*
X95984829Y-97629113D01*
X95420312Y-97474710D01*
X94320088Y-97175163D01*
X93159214Y-96855555D01*
X91951705Y-96519954D01*
X90711579Y-96172427D01*
X89452854Y-95817041D01*
X88189547Y-95457862D01*
X86935676Y-95098959D01*
X85705258Y-94744397D01*
X84512310Y-94398245D01*
X83370850Y-94064569D01*
X82294896Y-93747435D01*
X81298464Y-93450911D01*
X80395573Y-93179065D01*
X79600240Y-92935962D01*
X78926481Y-92725671D01*
X78388316Y-92552257D01*
X78007701Y-92422627D01*
X77424626Y-92187851D01*
X76978217Y-91934490D01*
X76642144Y-91632202D01*
X76390076Y-91250648D01*
X76195682Y-90759488D01*
X76038078Y-90153066D01*
X75931545Y-89536882D01*
X75854501Y-88811608D01*
X75808337Y-88027160D01*
X75794444Y-87233455D01*
X75814210Y-86480409D01*
X75869027Y-85817936D01*
X75909584Y-85538733D01*
X76081901Y-84757816D01*
X76342936Y-83869016D01*
X76681996Y-82901530D01*
X77088387Y-81884554D01*
X77551415Y-80847287D01*
X77863278Y-80204733D01*
X78041093Y-79843732D01*
X78206331Y-79497662D01*
X78332105Y-79223209D01*
X78365128Y-79146691D01*
X78506414Y-78808315D01*
X78200796Y-79104357D01*
X77943807Y-79396542D01*
X77646101Y-79803995D01*
X77333091Y-80286100D01*
X77030189Y-80802239D01*
X76762808Y-81311794D01*
X76605631Y-81653966D01*
X76257585Y-82504026D01*
X75917019Y-83393639D01*
X75599752Y-84278264D01*
X75321600Y-85113356D01*
X75098379Y-85854374D01*
X75045801Y-86046733D01*
X74917067Y-86549009D01*
X74830269Y-86946435D01*
X74777355Y-87295946D01*
X74750275Y-87654479D01*
X74740976Y-88078969D01*
X74740479Y-88205733D01*
X74742558Y-88637833D01*
X74756777Y-88966090D01*
X74792579Y-89244897D01*
X74859406Y-89528645D01*
X74966701Y-89871729D01*
X75094191Y-90243209D01*
X75228709Y-90637321D01*
X75339881Y-90977332D01*
X75416975Y-91229362D01*
X75449255Y-91359532D01*
X75449610Y-91365042D01*
X75411871Y-91439294D01*
X75286963Y-91456298D01*
X75057349Y-91412991D01*
X74705490Y-91306312D01*
X74299134Y-91164225D01*
X72854159Y-90708706D01*
X71423762Y-90397228D01*
X70966813Y-90326743D01*
X70386350Y-90265785D01*
X69687628Y-90223994D01*
X68920683Y-90201835D01*
X68135553Y-90199773D01*
X67382274Y-90218270D01*
X66710885Y-90257793D01*
X66429932Y-90284642D01*
X65946336Y-90325966D01*
X65624462Y-90324133D01*
X65480769Y-90289750D01*
X65418476Y-90233522D01*
X65434358Y-90154884D01*
X65545837Y-90026817D01*
X65770337Y-89822303D01*
X65797610Y-89798411D01*
X66735066Y-88897375D01*
X67511159Y-87972972D01*
X68133276Y-87015855D01*
X68391491Y-86516664D01*
X68615180Y-85923261D01*
X68760994Y-85240090D01*
X68830776Y-84449778D01*
X68826367Y-83534954D01*
X68781997Y-82833678D01*
X68696920Y-82059091D01*
X68570309Y-81391846D01*
X68384556Y-80771654D01*
X68122054Y-80138224D01*
X67816458Y-79527400D01*
X67432375Y-78847882D01*
X66991092Y-78144038D01*
X66513432Y-77443741D01*
X66020215Y-76774868D01*
X65532262Y-76165294D01*
X65070394Y-75642896D01*
X64655434Y-75235547D01*
X64533375Y-75131959D01*
X64158140Y-74828400D01*
X64798156Y-75759733D01*
X65536043Y-76888532D01*
X66194401Y-78007800D01*
X66765271Y-79100117D01*
X67240693Y-80148063D01*
X67612709Y-81134219D01*
X67873361Y-82041165D01*
X68007105Y-82783314D01*
X68057349Y-83386491D01*
X68075424Y-84033451D01*
X68063245Y-84683793D01*
X68022728Y-85297116D01*
X67955785Y-85833018D01*
X67864333Y-86251100D01*
X67839053Y-86329127D01*
X67400462Y-87334766D01*
X66831809Y-88234236D01*
X66129719Y-89031542D01*
X65290815Y-89730685D01*
X64591110Y-90180786D01*
X64243775Y-90387596D01*
X63957551Y-90570094D01*
X63760669Y-90709400D01*
X63681364Y-90786634D01*
X63680943Y-90789419D01*
X63760402Y-90846707D01*
X63999678Y-90867458D01*
X64400118Y-90851616D01*
X64963069Y-90799125D01*
X65689878Y-90709928D01*
X65743317Y-90702792D01*
X67238784Y-90560329D01*
X68711547Y-90533619D01*
X70131570Y-90621439D01*
X71468812Y-90822562D01*
X72081567Y-90961296D01*
X72712974Y-91141925D01*
X73412705Y-91376361D01*
X74143585Y-91649258D01*
X74868436Y-91945270D01*
X75550082Y-92249051D01*
X76151346Y-92545255D01*
X76635050Y-92818537D01*
X76733110Y-92881383D01*
X76954043Y-93058807D01*
X77048122Y-93231080D01*
X77058276Y-93330003D01*
X76993889Y-93561336D01*
X76805763Y-93889427D01*
X76501451Y-94304095D01*
X76088507Y-94795158D01*
X75574484Y-95352435D01*
X75502139Y-95427651D01*
X74580611Y-96326052D01*
X73647529Y-97129248D01*
X72718938Y-97826333D01*
X71810880Y-98406399D01*
X70939399Y-98858538D01*
X70120537Y-99171843D01*
X69906196Y-99232345D01*
X69471665Y-99385363D01*
X69174864Y-99598999D01*
X68986991Y-99903182D01*
X68884733Y-100293871D01*
X68695950Y-100922058D01*
X68353394Y-101485205D01*
X67863413Y-101973371D01*
X67763826Y-102049727D01*
X67313317Y-102353919D01*
X66938373Y-102548385D01*
X66652929Y-102626816D01*
X66520906Y-102612175D01*
X66442632Y-102510740D01*
X66359474Y-102293899D01*
X66304144Y-102075290D01*
X66027660Y-101129794D01*
X65597966Y-100221398D01*
X65031034Y-99380044D01*
X64607586Y-98894771D01*
X64389835Y-98689391D01*
X64205139Y-98551669D01*
X64092719Y-98510742D01*
X64091249Y-98511186D01*
X64008058Y-98605343D01*
X63900552Y-98814500D01*
X63801971Y-99066015D01*
X63635555Y-99467663D01*
X63441795Y-99807026D01*
X63242289Y-100053734D01*
X63058634Y-100177422D01*
X63005393Y-100186066D01*
X62908724Y-100156021D01*
X62848217Y-100040914D01*
X62807196Y-99803293D01*
X62798035Y-99720400D01*
X62759189Y-99347630D01*
X62716416Y-98938301D01*
X62698729Y-98769418D01*
X62624882Y-98285982D01*
X62504138Y-97916229D01*
X62316305Y-97646212D01*
X62041191Y-97461984D01*
X61658603Y-97349600D01*
X61148347Y-97295111D01*
X60548276Y-97284129D01*
X60032025Y-97295987D01*
X59567719Y-97329591D01*
X59094413Y-97392134D01*
X58551162Y-97490811D01*
X58219943Y-97558972D01*
X57081236Y-97794449D01*
X56089113Y-97987457D01*
X55226785Y-98140057D01*
X54477464Y-98254311D01*
X53824361Y-98332281D01*
X53250687Y-98376027D01*
X52739654Y-98387613D01*
X52274471Y-98369100D01*
X51916536Y-98333043D01*
X51228528Y-98215413D01*
X50670453Y-98049092D01*
X50206408Y-97819634D01*
X49800491Y-97512596D01*
X49741177Y-97457802D01*
X49457769Y-97173638D01*
X49256395Y-96917585D01*
X49123231Y-96650737D01*
X49044449Y-96334191D01*
X49006226Y-95929043D01*
X48994735Y-95396390D01*
X48994585Y-95356939D01*
X48991276Y-94295479D01*
X49316843Y-93635475D01*
X49769012Y-92900239D01*
X50359482Y-92229959D01*
X51061158Y-91653293D01*
X51392713Y-91439824D01*
X51696726Y-91253864D01*
X51943389Y-91092985D01*
X52097238Y-90980808D01*
X52128765Y-90949598D01*
X52113491Y-90895721D01*
X51963493Y-90915759D01*
X51693934Y-91004840D01*
X51319976Y-91158090D01*
X50936225Y-91332864D01*
X50171840Y-91693942D01*
X49816677Y-91211493D01*
X49422206Y-90636258D01*
X48987157Y-89933356D01*
X48528030Y-89134544D01*
X48061323Y-88271578D01*
X47603533Y-87376216D01*
X47171161Y-86480214D01*
X46780704Y-85615330D01*
X46448662Y-84813321D01*
X46328658Y-84497616D01*
X45847469Y-83065095D01*
X45463434Y-81653048D01*
X45180122Y-80282193D01*
X45001100Y-78973251D01*
X44929935Y-77746942D01*
X44970196Y-76623983D01*
X44971124Y-76613878D01*
X45078831Y-75774913D01*
X45250221Y-74958136D01*
X45497606Y-74117695D01*
X45833300Y-73207736D01*
X45985181Y-72837514D01*
X46585052Y-71546588D01*
X47244113Y-70400813D01*
X47976800Y-69382029D01*
X48797549Y-68472072D01*
X49720797Y-67652783D01*
X50633643Y-66989637D01*
X52011600Y-66175230D01*
X53469257Y-65507710D01*
X54995821Y-64990840D01*
X56580498Y-64628383D01*
X57923610Y-64448298D01*
X58474643Y-64412648D01*
X59139934Y-64393778D01*
X59874959Y-64390824D01*
X60635193Y-64402925D01*
X61376112Y-64429218D01*
X62053192Y-64468839D01*
X62621909Y-64520927D01*
X62791943Y-64542620D01*
X63709472Y-64703916D01*
X64739286Y-64942091D01*
X65848029Y-65247647D01*
X67002340Y-65611081D01*
X68168862Y-66022893D01*
X68694584Y-66223688D01*
X69415122Y-66499844D01*
X70017969Y-66713762D01*
X70539646Y-66873154D01*
X71016673Y-66985731D01*
X71485570Y-67059203D01*
X71982859Y-67101281D01*
X72545059Y-67119677D01*
X72951943Y-67122579D01*
X73503741Y-67120592D01*
X73922835Y-67111298D01*
X74245811Y-67091211D01*
X74509254Y-67056846D01*
X74749751Y-67004719D01*
X75003887Y-66931345D01*
X75023292Y-66925273D01*
X76055422Y-66520756D01*
X76995051Y-65983070D01*
X77844795Y-65309325D01*
X78607268Y-64496630D01*
X79285087Y-63542096D01*
X79880865Y-62442832D01*
X80397219Y-61195947D01*
X80516576Y-60853782D01*
X80763078Y-60069077D01*
X80978945Y-59262673D01*
X81167989Y-58412162D01*
X81334021Y-57495134D01*
X81480855Y-56489178D01*
X81612304Y-55371885D01*
X81732178Y-54120846D01*
X81798346Y-53319518D01*
X81911320Y-51918446D01*
X82018610Y-50671186D01*
X82121959Y-49562382D01*
X82223112Y-48576677D01*
X82323813Y-47698714D01*
X82425806Y-46913135D01*
X82530836Y-46204582D01*
X82640647Y-45557700D01*
X82737119Y-45054403D01*
X83198473Y-43109600D01*
X83787374Y-41190357D01*
X84489412Y-39339823D01*
X85093402Y-37998400D01*
X85592783Y-37006987D01*
X86074548Y-36142469D01*
X86564489Y-35368066D01*
X87088399Y-34646995D01*
X87672071Y-33942478D01*
X88341299Y-33217734D01*
X88707192Y-32845157D01*
X89324194Y-32242895D01*
X89935746Y-31675499D01*
X90528318Y-31153378D01*
X91088384Y-30686938D01*
X91602415Y-30286587D01*
X92056883Y-29962732D01*
X92438259Y-29725782D01*
X92733015Y-29586143D01*
X92927623Y-29554223D01*
X92966478Y-29568422D01*
X93024974Y-29673214D01*
X93104516Y-29909160D01*
X93194566Y-30241053D01*
X93282872Y-30625550D01*
X93479009Y-31429624D01*
X93726463Y-32246985D01*
X94010719Y-33039545D01*
X94317261Y-33769217D01*
X94631572Y-34397914D01*
X94869696Y-34789152D01*
X95003266Y-34978601D01*
X95069402Y-35051167D01*
X95066288Y-34999056D01*
X94992109Y-34814474D01*
X94845046Y-34489625D01*
X94754750Y-34295910D01*
X94281632Y-33151567D01*
X93922190Y-31990978D01*
X93680357Y-30838504D01*
X93560066Y-29718509D01*
X93565249Y-28655356D01*
X93691802Y-27711400D01*
X94026878Y-26503242D01*
X94522989Y-25305804D01*
X95171841Y-24131579D01*
X95965146Y-22993058D01*
X96894611Y-21902731D01*
X97951947Y-20873090D01*
X98587662Y-20335023D01*
X99064264Y-19963367D01*
X99572040Y-19588514D01*
X100088926Y-19224731D01*
X100592857Y-18886287D01*
X101061767Y-18587449D01*
X101473591Y-18342486D01*
X101806265Y-18165665D01*
X102037723Y-18071255D01*
X102106822Y-18059400D01*
X102147209Y-18138252D01*
G37*
%TD*%
M02*
