%TF.GenerationSoftware,KiCad,Pcbnew,8.0.1*%
%TF.CreationDate,2024-04-02T10:44:01+02:00*%
%TF.ProjectId,Einhorn,45696e68-6f72-46e2-9e6b-696361645f70,rev?*%
%TF.SameCoordinates,Original*%
%TF.FileFunction,Profile,NP*%
%FSLAX46Y46*%
G04 Gerber Fmt 4.6, Leading zero omitted, Abs format (unit mm)*
G04 Created by KiCad (PCBNEW 8.0.1) date 2024-04-02 10:44:01*
%MOMM*%
%LPD*%
G01*
G04 APERTURE LIST*
%TA.AperFunction,Profile*%
%ADD10C,0.100000*%
%TD*%
G04 APERTURE END LIST*
D10*
X28613860Y-95213200D02*
X29093870Y-95971000D01*
X44070810Y-117159400D02*
X44941310Y-116966400D01*
X73863510Y-42201800D02*
X73829210Y-42795400D01*
X75790610Y-65597400D02*
X75505210Y-65714300D01*
X32353610Y-104385600D02*
X32726010Y-104178600D01*
X126106610Y-54357900D02*
X126650610Y-54515600D01*
X88669910Y-21584100D02*
X87553410Y-22114600D01*
X114180610Y-21857300D02*
X113626310Y-21654600D01*
X74876810Y-36965900D02*
X74701710Y-37533500D01*
X26983510Y-70246900D02*
X26520220Y-70665600D01*
X125529610Y-48341100D02*
X125431610Y-48175300D01*
X115214710Y-56931300D02*
X115359810Y-56632900D01*
X104471810Y-103148600D02*
X104493610Y-103138600D01*
X61002410Y-98941900D02*
X61195010Y-98981800D01*
X60777510Y-101924300D02*
X60759210Y-102068300D01*
X113066110Y-21468800D02*
X112500610Y-21298900D01*
X105737410Y-83233000D02*
X103897810Y-83208700D01*
X35347810Y-66303700D02*
X34734210Y-66413200D01*
X115535610Y-67419200D02*
X115584210Y-67140900D01*
X126869610Y-104309700D02*
X126908610Y-104233700D01*
X64158310Y-101592600D02*
X64297810Y-101501500D01*
X54573210Y-109999400D02*
X54814810Y-109528400D01*
X65628710Y-104820900D02*
X65910010Y-104786100D01*
X115093110Y-57236500D02*
X115214710Y-56931300D01*
X73810710Y-43390000D02*
X73807910Y-43985100D01*
X127767610Y-54728100D02*
X128334610Y-54784100D01*
X131670610Y-52717000D02*
X130850610Y-52569900D01*
X62541210Y-63296200D02*
X61651710Y-63200300D01*
X113370910Y-70870700D02*
X113740910Y-70515600D01*
X59866510Y-63119300D02*
X58973710Y-63136100D01*
X138511610Y-97449500D02*
X138215610Y-96916500D01*
X23166220Y-75127200D02*
X22898100Y-75691000D01*
X22263390Y-85243900D02*
X22478180Y-85864300D01*
X105983110Y-74990300D02*
X106253610Y-74246900D01*
X70142410Y-105123200D02*
X70880010Y-105160300D01*
X36448710Y-99545200D02*
X36468010Y-99390300D01*
X25230000Y-72020000D02*
X24835660Y-72502600D01*
X39429110Y-105167500D02*
X39441510Y-106638100D01*
X122942610Y-57781500D02*
X123114610Y-57383400D01*
X73818210Y-46462800D02*
X73887110Y-47699100D01*
X105087710Y-76819500D02*
X105298710Y-76463300D01*
X35579510Y-101613400D02*
X35803210Y-101252300D01*
X22229110Y-77476900D02*
X22055900Y-78110100D01*
X138794610Y-97989600D02*
X138511610Y-97449500D01*
X96868810Y-19544800D02*
X96101710Y-19618800D01*
X45977010Y-68921200D02*
X45509310Y-68568900D01*
X34140010Y-116388400D02*
X34443310Y-116445400D01*
X47637110Y-67886200D02*
X47213210Y-68338000D01*
X37139010Y-111496400D02*
X36722610Y-111899400D01*
X21734224Y-82676400D02*
X21817311Y-83327800D01*
X74542210Y-38105500D02*
X74398310Y-38681600D01*
X102788810Y-104419300D02*
X102930510Y-104438200D01*
X55499210Y-110305400D02*
X55629310Y-110561400D01*
X33452110Y-103717100D02*
X33801610Y-103462800D01*
X58719710Y-99391200D02*
X58709010Y-99301400D01*
X37103010Y-99442400D02*
X37594210Y-100192900D01*
X37534310Y-111072400D02*
X37139010Y-111496400D01*
X70883110Y-65794400D02*
X70095010Y-65543400D01*
X63008510Y-102508300D02*
X63552410Y-102125000D01*
X118597110Y-57076200D02*
X118670010Y-57403900D01*
X116974010Y-53757400D02*
X117347510Y-54312400D01*
X82364210Y-97451200D02*
X82085910Y-97039200D01*
X73807910Y-43985100D02*
X73791510Y-45224500D01*
X42968210Y-67106300D02*
X42425910Y-66882200D01*
X123502610Y-55241400D02*
X123565610Y-54135700D01*
X109614210Y-20661300D02*
X108442710Y-20489700D01*
X36603710Y-98710300D02*
X37103010Y-99442400D01*
X140917610Y-30422500D02*
X140782610Y-30379800D01*
X104216710Y-105499200D02*
X104204510Y-105819900D01*
X139506610Y-99540000D02*
X139345610Y-99203000D01*
X104415310Y-103221600D02*
X104471810Y-103148600D01*
X63923610Y-104129600D02*
X63934510Y-104246400D01*
X58753110Y-99165800D02*
X58802910Y-99116900D01*
X76871610Y-63982900D02*
X76940810Y-64671400D01*
X140830610Y-32533800D02*
X141063610Y-32295100D01*
X41314610Y-66512100D02*
X40747510Y-66368600D01*
X62716910Y-102706200D02*
X63008510Y-102508300D01*
X34870110Y-113286400D02*
X34366210Y-113572400D01*
X103599610Y-16960850D02*
X103518510Y-16748810D01*
X37209110Y-66124300D02*
X36586010Y-66158800D01*
X101395910Y-80698800D02*
X102030210Y-80169000D01*
X63947210Y-103889500D02*
X63923610Y-104129600D01*
X39141610Y-103409400D02*
X39253310Y-103838700D01*
X24726660Y-89973400D02*
X25404540Y-90874400D01*
X93351910Y-20029800D02*
X92750010Y-20169400D01*
X83384010Y-100291900D02*
X83443310Y-100090600D01*
X64356110Y-104763200D02*
X64491610Y-104798400D01*
X115021010Y-61438400D02*
X114910410Y-60802500D01*
X32634810Y-116115400D02*
X32920810Y-116212400D01*
X31369610Y-104796600D02*
X31499110Y-104787900D01*
X30887510Y-102834200D02*
X30756930Y-103197500D01*
X56310910Y-63428200D02*
X55433210Y-63609400D01*
X115269510Y-22316400D02*
X114728610Y-22077600D01*
X97314910Y-99583700D02*
X97852010Y-99775900D01*
X140577610Y-32755300D02*
X140830610Y-32533800D01*
X132073610Y-52810100D02*
X131670610Y-52717000D01*
X49023410Y-66636800D02*
X48543310Y-67034900D01*
X133047610Y-46037600D02*
X133273610Y-45843800D01*
X106702510Y-72730000D02*
X107209110Y-72792700D01*
X38676410Y-102159700D02*
X38851010Y-102570100D01*
X114787710Y-69240300D02*
X115068910Y-68748300D01*
X128430610Y-41756300D02*
X127987610Y-41235800D01*
X39399210Y-104717600D02*
X39429110Y-105167500D01*
X80971010Y-95433300D02*
X81026910Y-95439100D01*
X131215610Y-103737500D02*
X132607610Y-103471600D01*
X125972610Y-86717200D02*
X124063610Y-85800000D01*
X74270110Y-39261400D02*
X74157410Y-39844400D01*
X116196010Y-107552700D02*
X117372510Y-107403900D01*
X33092810Y-103955800D02*
X33452110Y-103717100D01*
X76010910Y-104582100D02*
X76723910Y-104382300D01*
X30976610Y-100062100D02*
X31081610Y-100499800D01*
X59807710Y-98932100D02*
X60204410Y-98902000D01*
X111054010Y-106785100D02*
X111323410Y-106974500D01*
X60204410Y-98902000D02*
X60606210Y-98901200D01*
X21725958Y-80051600D02*
X21679709Y-80707300D01*
X61625210Y-103095500D02*
X61786010Y-103088400D01*
X133497610Y-45494900D02*
X133531610Y-45366300D01*
X102286210Y-104159000D02*
X102397810Y-104252400D01*
X103257210Y-79051400D02*
X103832410Y-78454900D01*
X32040910Y-115531400D02*
X32088610Y-115653400D01*
X64027110Y-103654900D02*
X63947210Y-103889500D01*
X123495610Y-55689700D02*
X123502610Y-55241400D01*
X125977610Y-105405000D02*
X126895610Y-105103100D01*
X69695810Y-105083900D02*
X69837110Y-105116400D01*
X115391810Y-63130000D02*
X115283410Y-62562700D01*
X74831010Y-53813500D02*
X75121710Y-55164800D01*
X125573610Y-54165000D02*
X126106610Y-54357900D01*
X29093870Y-95971000D02*
X29555450Y-96748500D01*
X102933010Y-16353070D02*
X102933010Y-16353070D01*
X64776810Y-104829700D02*
X65061710Y-104843400D01*
X132679610Y-53067300D02*
X132583610Y-52993200D01*
X100886610Y-101880100D02*
X101199810Y-102241800D01*
X114458610Y-69702800D02*
X114787710Y-69240300D01*
X31178110Y-67557500D02*
X30613380Y-67825000D01*
X67278010Y-104407200D02*
X67799510Y-104173800D01*
X69122210Y-104688300D02*
X69217610Y-104793700D01*
X106474610Y-20273400D02*
X105674710Y-20211000D01*
X57293110Y-109611400D02*
X57593010Y-109032400D01*
X49451910Y-115135400D02*
X49820310Y-114880400D01*
X128904610Y-54807400D02*
X129475610Y-54798900D01*
X131539610Y-89597000D02*
X130632610Y-89081900D01*
X64572110Y-101667300D02*
X64609310Y-101797100D01*
X122212610Y-28877600D02*
X121820610Y-28201600D01*
X141162610Y-30549400D02*
X141044610Y-30478900D01*
X59438710Y-98982400D02*
X59637610Y-98964100D01*
X110328610Y-106110800D02*
X110555610Y-106351800D01*
X61463510Y-103079800D02*
X61625210Y-103095500D01*
X132815610Y-53248600D02*
X132756610Y-53153200D01*
X52687510Y-112537400D02*
X53047210Y-112148400D01*
X103217410Y-104422500D02*
X103358110Y-104388600D01*
X80943010Y-95446100D02*
X80971010Y-95433300D01*
X104460110Y-106205700D02*
X104573410Y-106285400D01*
X36286310Y-112280400D02*
X35831410Y-112639400D01*
X101730410Y-103033300D02*
X101939310Y-103462500D01*
X103944610Y-103970600D02*
X104022810Y-103839400D01*
X126558610Y-47781900D02*
X127387610Y-47662100D01*
X54022410Y-110899400D02*
X54308610Y-110456400D01*
X115584210Y-67140900D02*
X115616710Y-66859800D01*
X34734210Y-66413200D02*
X34125310Y-66546700D01*
X125429610Y-47885700D02*
X125496610Y-47864200D01*
X52215910Y-64678700D02*
X51652010Y-64950300D01*
X114993610Y-57547900D02*
X115093110Y-57236500D01*
X127835610Y-87661300D02*
X126899610Y-87195700D01*
X91559410Y-20497900D02*
X90971210Y-20685700D01*
X61138110Y-102970300D02*
X61301010Y-103038800D01*
X32523110Y-114387400D02*
X32411810Y-114467400D01*
X68789010Y-103892200D02*
X68851310Y-104179200D01*
X134157610Y-91595500D02*
X133280610Y-90750200D01*
X26802200Y-92650200D02*
X27483510Y-93550200D01*
X121402610Y-27542800D02*
X120957610Y-26904000D01*
X118695310Y-61716300D02*
X118807810Y-61767000D01*
X115618910Y-65426100D02*
X115597810Y-64848700D01*
X120160510Y-84150000D02*
X119159410Y-83808000D01*
X69323210Y-104887400D02*
X69438410Y-104967900D01*
X30880310Y-104670800D02*
X30993710Y-104725300D01*
X28462340Y-69096000D02*
X27955320Y-69461600D01*
X105674710Y-20211000D02*
X104878310Y-20153000D01*
X103897810Y-83208700D02*
X102067710Y-83144100D01*
X51523210Y-113622400D02*
X51924310Y-113274400D01*
X132607610Y-103471600D02*
X133992610Y-103167500D01*
X82880710Y-98299100D02*
X82630910Y-97870800D01*
X119710510Y-106975700D02*
X120873610Y-106722400D01*
X113824810Y-107654400D02*
X114420010Y-107657400D01*
X140496610Y-30332700D02*
X140201610Y-30333100D01*
X51111010Y-113957400D02*
X51523210Y-113622400D01*
X72358210Y-105143700D02*
X73096210Y-105090400D01*
X103494010Y-104337800D02*
X103622810Y-104270200D01*
X101482510Y-102626300D02*
X101730410Y-103033300D01*
X61301010Y-103038800D02*
X61463510Y-103079800D01*
X139851610Y-100574000D02*
X139821610Y-100398800D01*
X132235610Y-46361800D02*
X132507610Y-46303000D01*
X44941310Y-116966400D02*
X45804110Y-116741400D01*
X103358110Y-104388600D02*
X103494010Y-104337800D01*
X139657610Y-99880500D02*
X139506610Y-99540000D01*
X111323410Y-106974500D02*
X111604810Y-107144100D01*
X131725610Y-54457500D02*
X132268610Y-54298600D01*
X118890410Y-24605300D02*
X118298310Y-24108800D01*
X69837110Y-105116400D02*
X69986110Y-105130000D01*
X119159410Y-83808000D02*
X118145510Y-83505300D01*
X78049710Y-30627000D02*
X77524710Y-31413500D01*
X100164310Y-17670200D02*
X99517310Y-18092100D01*
X55353910Y-109735400D02*
X55411010Y-110027400D01*
X107619210Y-105985000D02*
X108037810Y-105842500D01*
X60606210Y-98901200D02*
X61002410Y-98941900D01*
X125723610Y-47872600D02*
X126558610Y-47781900D01*
X121150610Y-84525600D02*
X120160510Y-84150000D01*
X65180610Y-63792800D02*
X64307010Y-63593400D01*
X58884110Y-100138300D02*
X58755710Y-99497700D01*
X131446610Y-46645000D02*
X132235610Y-46361800D01*
X130441610Y-52490800D02*
X130039610Y-52391300D01*
X104022810Y-103839400D02*
X104101010Y-103764700D01*
X39339910Y-104274700D02*
X39399210Y-104717600D01*
X101878310Y-82538900D02*
X101708210Y-81928100D01*
X104204510Y-105819900D02*
X104274010Y-105975200D01*
X128212610Y-47513700D02*
X129031610Y-47337200D01*
X53390410Y-111745400D02*
X53715910Y-111329400D01*
X34463410Y-102907500D02*
X34771510Y-102606700D01*
X30483320Y-104058400D02*
X30504310Y-104191800D01*
X117062010Y-83366400D02*
X115974710Y-83283200D01*
X55411010Y-110027400D02*
X55499210Y-110305400D01*
X120849610Y-60584400D02*
X121458610Y-59948700D01*
X106762410Y-106203500D02*
X107193410Y-106104800D01*
X117372510Y-107403900D02*
X118543810Y-107207300D01*
X44530610Y-67920500D02*
X44021510Y-67626700D01*
X132856610Y-53351200D02*
X132815610Y-53248600D01*
X114884610Y-83242800D02*
X113792510Y-83232400D01*
X47893610Y-115988400D02*
X48294610Y-115798400D01*
X140071610Y-33153300D02*
X140577610Y-32755300D01*
X49074410Y-115373400D02*
X49451910Y-115135400D01*
X124162610Y-33233800D02*
X124062610Y-33032600D01*
X115013610Y-107640400D02*
X115605610Y-107605400D01*
X126995610Y-104204600D02*
X127703610Y-104168600D01*
X118807810Y-61767000D02*
X118927010Y-61795300D01*
X141361610Y-30735200D02*
X141268610Y-30634700D01*
X73997210Y-48932200D02*
X74147610Y-50161200D01*
X54562810Y-63834300D02*
X53964410Y-64007700D01*
X116618210Y-54406400D02*
X116974010Y-53757400D01*
X48080810Y-67451600D02*
X47637110Y-67886200D01*
X21683694Y-82021300D02*
X21734224Y-82676400D01*
X100825310Y-17274550D02*
X100164310Y-17670200D01*
X61945510Y-103061100D02*
X62103710Y-103015900D01*
X75273710Y-35845800D02*
X75067510Y-36403200D01*
X102187810Y-104046200D02*
X102286210Y-104159000D01*
X118543810Y-107207300D02*
X119710510Y-106975700D01*
X50258210Y-114586400D02*
X50688910Y-114278400D01*
X33801610Y-103462800D02*
X34139510Y-103192900D01*
X71282710Y-65897900D02*
X70883110Y-65794400D01*
X118927010Y-61795300D02*
X119051110Y-61803100D01*
X132424610Y-90149700D02*
X131539610Y-89597000D01*
X73913410Y-41609500D02*
X73863510Y-42201800D01*
X118737610Y-59075800D02*
X118670710Y-59411300D01*
X130045610Y-54758900D02*
X130612610Y-54688300D01*
X133391610Y-44812000D02*
X133285610Y-44693000D01*
X56326210Y-110836400D02*
X56436210Y-110786400D01*
X77524710Y-31413500D02*
X77029210Y-32219100D01*
X36414310Y-99660700D02*
X36448710Y-99545200D01*
X141063610Y-32295100D02*
X141265610Y-32037500D01*
X32089810Y-114895400D02*
X32045110Y-115020400D01*
X45509310Y-68568900D02*
X45026910Y-68234900D01*
X101851910Y-16753840D02*
X101504310Y-16915900D01*
X133473610Y-44955000D02*
X133391610Y-44812000D01*
X127577610Y-40685500D02*
X127198610Y-40108900D01*
X133441610Y-45617900D02*
X133497610Y-45494900D01*
X74157410Y-39844400D02*
X74060410Y-40430400D01*
X76132010Y-33886800D02*
X75732810Y-34748200D01*
X133044610Y-44503100D02*
X132911610Y-44428300D01*
X97618210Y-19406000D02*
X97246510Y-19487100D01*
X77428110Y-104153900D02*
X78122110Y-103897000D01*
X109749110Y-105307200D02*
X109924310Y-105587100D01*
X23247460Y-87582100D02*
X23509050Y-88082500D01*
X56727710Y-110535400D02*
X56894010Y-110311400D01*
X38851010Y-102570100D02*
X39006810Y-102986600D01*
X86620510Y-96963800D02*
X88424810Y-97411900D01*
X81728010Y-101942000D02*
X82083510Y-101688200D01*
X39463010Y-117466400D02*
X39996210Y-117504400D01*
X103851510Y-18288300D02*
X103799510Y-17838200D01*
X34139510Y-103192900D02*
X34463410Y-102907500D01*
X103074110Y-104439200D02*
X103217410Y-104422500D01*
X119982510Y-25697700D02*
X119451510Y-25135800D01*
X130839610Y-43637000D02*
X130537610Y-43471200D01*
X64609310Y-101797100D02*
X64708110Y-101988300D01*
X102653610Y-79621300D02*
X103257210Y-79051400D01*
X61259110Y-100847200D02*
X61105910Y-101088900D01*
X76042510Y-59215500D02*
X76326110Y-60570300D01*
X94947110Y-19734000D02*
X94567710Y-19802300D01*
X61195010Y-98981800D02*
X61382210Y-99036700D01*
X124433610Y-33514100D02*
X124353610Y-33465300D01*
X132507610Y-46303000D02*
X132785610Y-46192800D01*
X126543610Y-49773500D02*
X126177610Y-49298000D01*
X121458610Y-59948700D02*
X121748610Y-59614400D01*
X139345610Y-99203000D02*
X139191610Y-98868800D01*
X117018010Y-23229700D02*
X116328210Y-22852700D01*
X121748610Y-59614400D02*
X122023610Y-59269100D01*
X55263010Y-108833400D02*
X55290610Y-109131400D01*
X132809610Y-53891700D02*
X132850610Y-53787600D01*
X113626310Y-21654600D02*
X113066110Y-21468800D01*
X129475610Y-54798900D02*
X130045610Y-54758900D01*
X124521610Y-33544700D02*
X124433610Y-33514100D01*
X104101010Y-103764700D02*
X104183810Y-103640700D01*
X114813810Y-58509700D02*
X114855310Y-58185400D01*
X64528210Y-101574500D02*
X64572110Y-101667300D01*
X115885810Y-55693300D02*
X116252010Y-55049900D01*
X30776530Y-104601800D02*
X30880310Y-104670800D01*
X105429910Y-106409300D02*
X105742610Y-106370600D01*
X33317710Y-114066400D02*
X32775510Y-114273400D01*
X82440510Y-101423500D02*
X82776910Y-101139500D01*
X118012410Y-55493200D02*
X118285910Y-56114100D01*
X103850410Y-104086300D02*
X103944610Y-103970600D01*
X47213210Y-68338000D02*
X46810210Y-68806400D01*
X83477910Y-99648000D02*
X83309410Y-99186500D01*
X60768710Y-102350200D02*
X60799710Y-102486100D01*
X115481910Y-63700300D02*
X115391810Y-63130000D01*
X93957910Y-19907300D02*
X93351910Y-20029800D01*
X82630910Y-97870800D02*
X82364210Y-97451200D01*
X123370610Y-56556700D02*
X123450610Y-56128200D01*
X127987610Y-41235800D02*
X127577610Y-40685500D01*
X30546400Y-104313400D02*
X30607320Y-104422600D01*
X29986570Y-97546000D02*
X30375160Y-98363900D01*
X58691710Y-105966600D02*
X58829010Y-105328600D01*
X71619110Y-105167100D02*
X72358210Y-105143700D01*
X30852010Y-99629600D02*
X30976610Y-100062100D01*
X141439610Y-30851600D02*
X141361610Y-30735200D01*
X32045110Y-115020400D02*
X32016910Y-115148400D01*
X88424810Y-97411900D02*
X92039110Y-98286200D01*
X22726270Y-86472700D02*
X23007800Y-87067500D01*
X56894010Y-110311400D02*
X57041510Y-110068400D01*
X105671810Y-75717700D02*
X105983110Y-74990300D01*
X29514780Y-68421200D02*
X28982410Y-68749000D01*
X123189610Y-106202600D02*
X124124610Y-105956400D01*
X132785610Y-46192800D02*
X133047610Y-46037600D01*
X36000610Y-100876300D02*
X36169610Y-100485700D01*
X66189310Y-104736700D02*
X66740210Y-104596800D01*
X114910410Y-60802500D02*
X114827510Y-60152200D01*
X73829210Y-42795400D02*
X73810710Y-43390000D01*
X45026910Y-68234900D02*
X44530610Y-67920500D01*
X126650610Y-54515600D02*
X127205610Y-54638800D01*
X75067510Y-36403200D02*
X74876810Y-36965900D01*
X126927610Y-50234500D02*
X126543610Y-49773500D01*
X117347510Y-54312400D02*
X117696610Y-54891800D01*
X40747510Y-66368600D02*
X40174010Y-66254400D01*
X130612610Y-54688300D02*
X131172610Y-54587600D01*
X118780310Y-58403600D02*
X118777210Y-58741300D01*
X32364610Y-115970400D02*
X32634810Y-116115400D01*
X64297810Y-101501500D02*
X64362410Y-101482400D01*
X114855310Y-58185400D02*
X114914810Y-57864500D01*
X109226610Y-105264700D02*
X109593110Y-105017100D01*
X70880010Y-105160300D02*
X71619110Y-105167100D01*
X122922610Y-30269800D02*
X122579610Y-29568000D01*
X96101710Y-19618800D02*
X95330310Y-19685500D01*
X23790180Y-88570300D02*
X24088420Y-89047000D01*
X22478180Y-85864300D02*
X22726270Y-86472700D01*
X104183810Y-103640700D02*
X104345510Y-103344400D01*
X104387510Y-104542900D02*
X104258510Y-105180100D01*
X78602910Y-29860000D02*
X78049710Y-30627000D01*
X25404540Y-90874400D02*
X26802200Y-92650200D01*
X61105910Y-101088900D02*
X60965810Y-101354800D01*
X139778610Y-100224900D02*
X139657610Y-99880500D01*
X132329610Y-44216200D02*
X131718610Y-44046700D01*
X50688910Y-114278400D02*
X51111010Y-113957400D01*
X104258510Y-105180100D02*
X104216710Y-105499200D01*
X141500610Y-30984500D02*
X141439610Y-30851600D01*
X27462130Y-69845400D02*
X26983510Y-70246900D01*
X102565710Y-16471070D02*
X102205510Y-16605120D01*
X57593010Y-109032400D02*
X57866610Y-108440400D01*
X106253610Y-74246900D02*
X106490910Y-73492000D01*
X36495310Y-98881600D02*
X36514410Y-98761400D01*
X41874410Y-66683700D02*
X41314610Y-66512100D01*
X115612410Y-66005200D02*
X115618910Y-65426100D01*
X97852010Y-99775900D02*
X98373710Y-100002200D01*
X64143510Y-104640400D02*
X64240310Y-104709800D01*
X99806510Y-100935100D02*
X100185710Y-101226400D01*
X28982410Y-68749000D02*
X28462340Y-69096000D01*
X32411810Y-114467400D02*
X32311810Y-114559400D01*
X30485720Y-103913600D02*
X30483320Y-104058400D01*
X58082610Y-63192500D02*
X57194510Y-63289600D01*
X40530110Y-117525400D02*
X41064210Y-117527400D01*
X132211610Y-31848500D02*
X130359610Y-32227500D01*
X118762710Y-58067900D02*
X118780310Y-58403600D01*
X139912610Y-30376400D02*
X139644610Y-30458100D01*
X92039110Y-98286200D02*
X95651210Y-99164200D01*
X56539510Y-110718400D02*
X56727710Y-110535400D01*
X125388610Y-47921900D02*
X125429610Y-47885700D01*
X74536610Y-66011300D02*
X74129810Y-66079700D01*
X46429110Y-69290600D02*
X45977010Y-68921200D01*
X30375160Y-98363900D02*
X30549750Y-98780600D01*
X61335310Y-100417600D02*
X61259110Y-100847200D01*
X133531610Y-45366300D02*
X133540610Y-45232900D01*
X59230810Y-98999200D02*
X59438710Y-98982400D01*
X110797810Y-106577000D02*
X111054010Y-106785100D01*
X35358910Y-112975400D02*
X34870110Y-113286400D01*
X58981710Y-100783700D02*
X58884110Y-100138300D01*
X55952410Y-110844400D02*
X56084810Y-110867400D01*
X132683610Y-54078100D02*
X132753610Y-53989300D01*
X66902010Y-64288000D02*
X66046010Y-64024700D01*
X120873610Y-106722400D02*
X123189610Y-106202600D01*
X35770910Y-116811400D02*
X36815610Y-117056400D01*
X126895610Y-105103100D02*
X126924610Y-104988400D01*
X103062410Y-16370300D02*
X102933010Y-16353070D01*
X74337310Y-51385100D02*
X74565410Y-52602900D01*
X39435410Y-107393500D02*
X39396910Y-108132400D01*
X64307010Y-63593400D02*
X63426710Y-63427500D01*
X103832410Y-78454900D02*
X104370210Y-77827600D01*
X30613380Y-67825000D02*
X30058690Y-68113000D01*
X113488110Y-107663400D02*
X113824810Y-107654400D01*
X74147610Y-50161200D02*
X74337310Y-51385100D01*
X73887110Y-47699100D02*
X73997210Y-48932200D01*
X124731610Y-33541800D02*
X124620610Y-33554800D01*
X30058690Y-68113000D02*
X29514780Y-68421200D01*
X55629310Y-110561400D02*
X55713410Y-110680400D01*
X73721910Y-66121800D02*
X73313310Y-66138800D01*
X103799510Y-17838200D02*
X103720610Y-17394550D01*
X28127470Y-94474800D02*
X28613860Y-95213200D01*
X130632610Y-89081900D02*
X129708610Y-88594300D01*
X104345510Y-103344400D02*
X104415310Y-103221600D01*
X104573410Y-106285400D02*
X104697810Y-106344400D01*
X129031610Y-47337200D02*
X129844610Y-47133300D01*
X27955320Y-69461600D02*
X27462130Y-69845400D01*
X118670010Y-57403900D02*
X118725610Y-57734600D01*
X60850510Y-102617200D02*
X60922810Y-102742300D01*
X102520210Y-104326800D02*
X102651310Y-104382300D01*
X104973710Y-106409500D02*
X105121810Y-106420200D01*
X53964410Y-64007700D02*
X53373110Y-64206600D01*
X64004610Y-104462400D02*
X64065210Y-104557200D01*
X82440610Y-25681600D02*
X81745810Y-26326200D01*
X89809710Y-21106500D02*
X88669910Y-21584100D01*
X104861910Y-77165200D02*
X105087710Y-76819500D01*
X123976610Y-32816500D02*
X123894610Y-32604600D01*
X58113610Y-107836400D02*
X58333610Y-107221600D01*
X92152410Y-20325600D02*
X91559410Y-20497900D01*
X132583610Y-52993200D02*
X132468610Y-52933100D01*
X21933100Y-83974000D02*
X22081740Y-84613300D01*
X64642110Y-102978500D02*
X64510010Y-103139100D01*
X101504310Y-16915900D02*
X100825310Y-17274550D01*
X32088610Y-115653400D02*
X32157710Y-115768400D01*
X119308110Y-61764800D02*
X119565810Y-61667400D01*
X136909610Y-34990200D02*
X138498610Y-34086100D01*
X120484110Y-26288000D02*
X119982510Y-25697700D01*
X108741810Y-72798400D02*
X109250110Y-72739900D01*
X141518610Y-31458800D02*
X141540610Y-31299600D01*
X24460470Y-72999900D02*
X24105160Y-73511600D01*
X107268510Y-20356100D02*
X106474610Y-20273400D01*
X110739110Y-72384200D02*
X111216610Y-72205900D01*
X53047210Y-112148400D02*
X53390410Y-111745400D01*
X55713410Y-110680400D02*
X55811910Y-110790400D01*
X36169610Y-100485700D02*
X36308210Y-100080400D01*
X58973710Y-63136100D02*
X58082610Y-63192500D01*
X99517310Y-18092100D02*
X98880010Y-18529200D01*
X139863610Y-100750500D02*
X139851610Y-100574000D01*
X124620610Y-33554800D02*
X124521610Y-33544700D01*
X79474710Y-103298600D02*
X80130710Y-102957600D01*
X101199810Y-102241800D02*
X101482510Y-102626300D01*
X39253310Y-103838700D02*
X39339910Y-104274700D01*
X32775510Y-114273400D02*
X32644710Y-114321400D01*
X58829010Y-105328600D02*
X58938110Y-104685200D01*
X59637610Y-98964100D02*
X59807710Y-98932100D01*
X129959610Y-43104500D02*
X129415610Y-42694100D01*
X138562610Y-101970100D02*
X139036610Y-101826900D01*
X141542610Y-31134300D02*
X141500610Y-30984500D01*
X81514910Y-96233100D02*
X81429910Y-96103500D01*
X78122110Y-103897000D02*
X78804710Y-103611800D01*
X74701710Y-37533500D02*
X74542210Y-38105500D01*
X103183210Y-16422330D02*
X103062410Y-16370300D01*
X22081740Y-84613300D02*
X22263390Y-85243900D01*
X41064210Y-117527400D02*
X41598410Y-117509400D01*
X34125310Y-66546700D02*
X33521910Y-66703700D01*
X22653670Y-76266700D02*
X22433700Y-76853700D01*
X39011210Y-66119100D02*
X38423910Y-66100300D01*
X62103710Y-103015900D02*
X62414610Y-102881900D01*
X112500610Y-21298900D02*
X111930510Y-21144300D01*
X82776910Y-101139500D02*
X82930610Y-100987800D01*
X76940810Y-64671400D02*
X76773710Y-64916800D01*
X33523510Y-116316400D02*
X34140010Y-116388400D01*
X101708210Y-81928100D02*
X101395910Y-80698800D01*
X108446710Y-105675900D02*
X108843710Y-105483800D01*
X115605610Y-107605400D02*
X116196010Y-107552700D01*
X76723910Y-104382300D02*
X77428110Y-104153900D01*
X38485110Y-101755200D02*
X38676410Y-102159700D01*
X61018110Y-102860300D02*
X61138110Y-102970300D01*
X133169610Y-44590700D02*
X133044610Y-44503100D01*
X141044610Y-30478900D02*
X140917610Y-30422500D01*
X69986110Y-105130000D02*
X70142410Y-105123200D01*
X141540610Y-31299600D02*
X141542610Y-31134300D01*
X80130710Y-102957600D02*
X80771510Y-102589000D01*
X30504310Y-104191800D02*
X30546400Y-104313400D01*
X121820610Y-28201600D02*
X121402610Y-27542800D01*
X115802910Y-22574500D02*
X115269510Y-22316400D01*
X31003810Y-102466500D02*
X30887510Y-102834200D01*
X36485310Y-99039300D02*
X36495310Y-98881600D01*
X104533610Y-103578400D02*
X104505610Y-103902100D01*
X128906610Y-42243600D02*
X128430610Y-41756300D01*
X114420010Y-107657400D02*
X115013610Y-107640400D01*
X126899610Y-87195700D02*
X125972610Y-86717200D01*
X124124610Y-105956400D02*
X125053610Y-105690000D01*
X24088420Y-89047000D02*
X24401390Y-89514200D01*
X99355010Y-100576900D02*
X99806510Y-100935100D01*
X56436210Y-110786400D02*
X56539510Y-110718400D01*
X36815610Y-117056400D02*
X37869610Y-117260400D01*
X114914810Y-57864500D02*
X114993610Y-57547900D01*
X103720610Y-17394550D02*
X103599610Y-16960850D01*
X133992610Y-103167500D02*
X135372610Y-102835200D01*
X108442710Y-20489700D02*
X107268510Y-20356100D01*
X63961310Y-104358000D02*
X64004610Y-104462400D01*
X104453310Y-104223300D02*
X104387510Y-104542900D01*
X64478210Y-101515300D02*
X64528210Y-101574500D01*
X73791510Y-45224500D02*
X73818210Y-46462800D01*
X127767610Y-51085500D02*
X127334610Y-50674200D01*
X31499110Y-104787900D02*
X31627010Y-104762000D01*
X53715910Y-111329400D02*
X54022410Y-110899400D01*
X125371610Y-47970800D02*
X125388610Y-47921900D01*
X60759710Y-63141100D02*
X59866510Y-63119300D01*
X57041510Y-110068400D02*
X57293110Y-109611400D01*
X76067910Y-65463500D02*
X75790610Y-65597400D01*
X83195010Y-100659700D02*
X83300310Y-100481300D01*
X51924310Y-113274400D02*
X52312810Y-112912400D01*
X118725610Y-57734600D02*
X118762710Y-58067900D01*
X47486110Y-116163400D02*
X47893610Y-115988400D01*
X126922610Y-104851300D02*
X126879610Y-104556100D01*
X125496610Y-47864200D02*
X125593610Y-47859200D01*
X79788510Y-28385400D02*
X79182910Y-29112700D01*
X60759210Y-102068300D02*
X60755710Y-102210600D01*
X76567310Y-65127600D02*
X76329410Y-65308400D01*
X112563910Y-71493100D02*
X112977910Y-71196600D01*
X102104810Y-103913600D02*
X102187810Y-104046200D01*
X127334610Y-50674200D02*
X126927610Y-50234500D01*
X123450610Y-56128200D02*
X123495610Y-55689700D01*
X35061610Y-102290700D02*
X35331610Y-101959600D01*
X102205510Y-16605120D02*
X101851910Y-16753840D01*
X21665571Y-81364400D02*
X21683694Y-82021300D01*
X107719210Y-72824900D02*
X108230810Y-72826800D01*
X30607320Y-104422600D02*
X30684790Y-104518900D01*
X68780610Y-103599200D02*
X68789010Y-103892200D01*
X55433210Y-63609400D02*
X54562810Y-63834300D01*
X66740210Y-104596800D02*
X67278010Y-104407200D01*
X123809610Y-32416200D02*
X123536610Y-31696800D01*
X73313310Y-66138800D02*
X72904910Y-66132200D01*
X68301510Y-103902400D02*
X68780610Y-103599200D01*
X103518510Y-16748810D02*
X103421210Y-16540570D01*
X125431610Y-48175300D02*
X125375610Y-48030600D01*
X141265610Y-32037500D02*
X141421610Y-31759300D01*
X39396910Y-108132400D02*
X39153110Y-108665400D01*
X123604610Y-53028800D02*
X124068610Y-53368900D01*
X58938110Y-104685200D02*
X59018610Y-104037800D01*
X68851310Y-104179200D02*
X68963610Y-104448400D01*
X103622810Y-104270200D02*
X103742410Y-104186300D01*
X61651710Y-63200300D02*
X60759710Y-63141100D01*
X136542610Y-94367100D02*
X135790610Y-93406000D01*
X32334510Y-67086500D02*
X31752010Y-67311200D01*
X113156210Y-107643400D02*
X113488110Y-107663400D01*
X53373110Y-64206600D02*
X52789910Y-64430500D01*
X139713610Y-101388900D02*
X139776610Y-101288600D01*
X31186810Y-101332900D02*
X31161610Y-101716400D01*
X102030210Y-80169000D02*
X102653610Y-79621300D01*
X26520220Y-70665600D02*
X26073040Y-71101000D01*
X73979110Y-41018900D02*
X73913410Y-41609500D01*
X133280610Y-90750200D02*
X132856610Y-90443400D01*
X49520210Y-66258100D02*
X49023410Y-66636800D01*
X120031810Y-61357300D02*
X120214210Y-61175300D01*
X73831810Y-105007400D02*
X74563610Y-104894800D01*
X32726010Y-104178600D02*
X33092810Y-103955800D01*
X115298210Y-68231400D02*
X115392010Y-67965000D01*
X30684790Y-104518900D02*
X30776530Y-104601800D01*
X129844610Y-47133300D02*
X130649610Y-46902400D01*
X118413910Y-61409900D02*
X118496810Y-61539600D01*
X104493610Y-103138600D02*
X104510410Y-103150300D01*
X123240610Y-30980400D02*
X122922610Y-30269800D01*
X26073040Y-71101000D02*
X25642710Y-71552600D01*
X118496810Y-61539600D02*
X118591110Y-61641100D01*
X60799710Y-102486100D02*
X60850510Y-102617200D01*
X58868110Y-99078500D02*
X59034010Y-99027100D01*
X129708610Y-88594300D02*
X127835610Y-87661300D01*
X105493810Y-76096200D02*
X105671810Y-75717700D01*
X109250110Y-72739900D02*
X109753810Y-72651300D01*
X38423910Y-66100300D02*
X37833910Y-66115900D01*
X36573110Y-98693400D02*
X36603710Y-98710300D01*
X23457280Y-74575700D02*
X23166220Y-75127200D01*
X64158410Y-103443400D02*
X64027110Y-103654900D01*
X103300910Y-16486610D02*
X103183210Y-16422330D01*
X64491610Y-104798400D02*
X64776810Y-104829700D01*
X96210510Y-99282800D02*
X96766410Y-99421000D01*
X58755710Y-99497700D02*
X58719710Y-99391200D01*
X104878310Y-20153000D02*
X104095110Y-20083500D01*
X124854610Y-33503500D02*
X124731610Y-33541800D01*
X64510010Y-103139100D02*
X64335910Y-103272400D01*
X33848310Y-113833400D02*
X33317710Y-114066400D01*
X69438410Y-104967900D02*
X69562710Y-105033900D01*
X111930510Y-21144300D02*
X110778310Y-20877300D01*
X55032210Y-109044400D02*
X55224010Y-108546400D01*
X132911610Y-44428300D02*
X132628610Y-44308900D01*
X31081610Y-100499800D02*
X31165410Y-100942900D01*
X115068910Y-68748300D02*
X115298210Y-68231400D01*
X113792510Y-83232400D02*
X111606110Y-83250500D01*
X114783310Y-59494600D02*
X114788910Y-58836600D01*
X127387610Y-47662100D02*
X128212610Y-47513700D01*
X126924610Y-104988400D02*
X126922610Y-104851300D01*
X75505210Y-65714300D02*
X74941710Y-65914900D01*
X128410610Y-104114100D02*
X129114610Y-104042500D01*
X76564510Y-33043600D02*
X76132010Y-33886800D01*
X106490910Y-73492000D02*
X106702510Y-72730000D01*
X32920810Y-116212400D02*
X33218410Y-116275400D01*
X76773710Y-64916800D02*
X76567310Y-65127600D01*
X132753610Y-53989300D02*
X132809610Y-53891700D01*
X97246510Y-19487100D02*
X96868810Y-19544800D01*
X75428410Y-56514400D02*
X76042510Y-59215500D01*
X58720910Y-99226700D02*
X58753110Y-99165800D01*
X73096210Y-105090400D02*
X73831810Y-105007400D01*
X31240610Y-104788700D02*
X31369610Y-104796600D01*
X102397810Y-104252400D02*
X102520210Y-104326800D01*
X113740910Y-70515600D02*
X114085910Y-70131300D01*
X59018610Y-104037800D02*
X59070310Y-103387500D01*
X103742410Y-104186300D02*
X103850410Y-104086300D01*
X22898100Y-75691000D02*
X22653670Y-76266700D01*
X75290410Y-104753000D02*
X76010910Y-104582100D01*
X69217610Y-104793700D02*
X69323210Y-104887400D01*
X60965810Y-101354800D02*
X60851910Y-101636200D01*
X125827610Y-48814900D02*
X125753610Y-48675900D01*
X98373710Y-100002200D02*
X98876010Y-100267600D01*
X52789910Y-64430500D02*
X52215910Y-64678700D01*
X115359810Y-56632900D02*
X115529810Y-56342500D01*
X123565610Y-54135700D02*
X123604610Y-53028800D01*
X61382510Y-99963500D02*
X61335310Y-100417600D01*
X31977810Y-104576600D02*
X32353610Y-104385600D01*
X115616710Y-66859800D02*
X115632610Y-66576400D01*
X83309410Y-99186500D02*
X83108610Y-98737300D01*
X138114610Y-102126500D02*
X138330610Y-102042100D01*
X72904910Y-66132200D02*
X72497010Y-66103400D01*
X83108610Y-98737300D02*
X82880710Y-98299100D01*
X103935810Y-19193900D02*
X103851510Y-18288300D01*
X132886610Y-53568700D02*
X132879610Y-53458700D01*
X90387910Y-20888800D02*
X89809710Y-21106500D01*
X126945610Y-104212600D02*
X126995610Y-104204600D01*
X120214210Y-61175300D02*
X120849610Y-60584400D01*
X101939310Y-103462500D02*
X102104810Y-103913600D01*
X33218410Y-116275400D02*
X33523510Y-116316400D01*
X34737710Y-116534400D02*
X35770910Y-116811400D01*
X50559310Y-65561300D02*
X50032510Y-65899300D01*
X30993710Y-104725300D02*
X31114610Y-104764800D01*
X42425910Y-66882200D02*
X41874410Y-66683700D01*
X125645610Y-48513000D02*
X125529610Y-48341100D01*
X64241610Y-103351800D02*
X64158410Y-103443400D01*
X36468010Y-99390300D02*
X36485310Y-99039300D01*
X64708110Y-101988300D02*
X64770910Y-102190200D01*
X36586010Y-66158800D02*
X35965310Y-66218700D01*
X114728610Y-22077600D02*
X114180610Y-21857300D01*
X34771510Y-102606700D02*
X35061610Y-102290700D01*
X74129810Y-66079700D02*
X73721910Y-66121800D01*
X129415610Y-42694100D02*
X128906610Y-42243600D01*
X116328210Y-22852700D02*
X115802910Y-22574500D01*
X78804710Y-103611800D02*
X79474710Y-103298600D01*
X24105160Y-73511600D02*
X23770510Y-74037000D01*
X80418410Y-27678300D02*
X79788510Y-28385400D01*
X90971210Y-20685700D02*
X90387910Y-20888800D01*
X35331610Y-101959600D02*
X35579510Y-101613400D01*
X39441510Y-106638100D02*
X39435410Y-107393500D01*
X60755710Y-102210600D02*
X60768710Y-102350200D01*
X132268610Y-54298600D02*
X132391610Y-54268200D01*
X71685310Y-65984800D02*
X71282710Y-65897900D01*
X125053610Y-105690000D02*
X125977610Y-105405000D01*
X135927610Y-31136200D02*
X132211610Y-31848500D01*
X80956410Y-95518600D02*
X80939310Y-95475300D01*
X82930610Y-100987800D02*
X83070910Y-100828200D01*
X135372610Y-102835200D02*
X138114610Y-102126500D01*
X132599610Y-54155600D02*
X132683610Y-54078100D01*
X48688410Y-115593400D02*
X49074410Y-115373400D01*
X102067710Y-83144100D02*
X101878310Y-82538900D01*
X115283410Y-62562700D02*
X115021010Y-61438400D01*
X100185710Y-101226400D02*
X100547110Y-101541500D01*
X132879610Y-53458700D02*
X132856610Y-53351200D01*
X51652010Y-64950300D02*
X51099510Y-65244800D01*
X115632610Y-66576400D02*
X115631310Y-66291400D01*
X65061710Y-104843400D02*
X65345810Y-104840200D01*
X110117810Y-105855400D02*
X110328610Y-106110800D01*
X64362410Y-101482400D02*
X64422710Y-101485800D01*
X115974710Y-83283200D02*
X114884610Y-83242800D01*
X115551410Y-64273300D02*
X115481910Y-63700300D01*
X139644610Y-30458100D02*
X135927610Y-31136200D01*
X128514610Y-32627000D02*
X126678610Y-33051000D01*
X72090310Y-66053800D02*
X71685310Y-65984800D01*
X104370210Y-77827600D02*
X104622410Y-77501100D01*
X60922810Y-102742300D02*
X61018110Y-102860300D01*
X128334610Y-54784100D02*
X128904610Y-54807400D01*
X38581910Y-109682400D02*
X38256910Y-110164400D01*
X95651210Y-99164200D02*
X96210510Y-99282800D01*
X39153110Y-108665400D02*
X38881010Y-109182400D01*
X130359610Y-32227500D02*
X128514610Y-32627000D01*
X52312810Y-112912400D02*
X52687510Y-112537400D01*
X24835660Y-72502600D02*
X24460470Y-72999900D01*
X38060510Y-100963300D02*
X38485110Y-101755200D01*
X64784510Y-102600900D02*
X64733310Y-102797000D01*
X119451510Y-25135800D02*
X118890410Y-24605300D01*
X128992610Y-51944600D02*
X128729610Y-51795600D01*
X114085910Y-70131300D02*
X114458610Y-69702800D01*
X70095010Y-65543400D02*
X69325610Y-65243200D01*
X118434410Y-60417400D02*
X118386510Y-60750500D01*
X64733310Y-102797000D02*
X64642110Y-102978500D01*
X31161610Y-101716400D02*
X31097910Y-102094100D01*
X24401390Y-89514200D02*
X24726660Y-89973400D01*
X111216610Y-72205900D02*
X111681210Y-71997900D01*
X110555610Y-106351800D02*
X110797810Y-106577000D01*
X23007800Y-87067500D02*
X23247460Y-87582100D01*
X126678610Y-33051000D02*
X124854610Y-33503500D01*
X84634110Y-23877100D02*
X83886110Y-24456700D01*
X132850610Y-53787600D02*
X132876610Y-53679100D01*
X118298310Y-24108800D02*
X117674510Y-23649400D01*
X126879610Y-104556100D02*
X126863610Y-104421000D01*
X98880010Y-18529200D02*
X97618210Y-19406000D01*
X21679709Y-80707300D02*
X21665571Y-81364400D01*
X83475510Y-99876300D02*
X83477910Y-99648000D01*
X62414610Y-102881900D02*
X62716910Y-102706200D01*
X122283610Y-58913100D02*
X122524610Y-58546500D01*
X32157710Y-115768400D02*
X32249410Y-115874400D01*
X138498610Y-34086100D02*
X140071610Y-33153300D01*
X41598410Y-117509400D02*
X42132310Y-117471400D01*
X123114610Y-57383400D02*
X123257610Y-56975100D01*
X103998410Y-19642400D02*
X103935810Y-19193900D01*
X42665610Y-117410400D02*
X43198110Y-117326400D01*
X75732810Y-34748200D02*
X75495510Y-35294000D01*
X140201610Y-30333100D02*
X139912610Y-30376400D01*
X104831810Y-106385000D02*
X104973710Y-106409500D01*
X72497010Y-66103400D02*
X72090310Y-66053800D01*
X65345810Y-104840200D02*
X65628710Y-104820900D01*
X130850610Y-52569900D02*
X130441610Y-52490800D01*
X125593610Y-47859200D02*
X125723610Y-47872600D01*
X141268610Y-30634700D02*
X141162610Y-30549400D01*
X63701310Y-102025100D02*
X63855210Y-101883600D01*
X63552410Y-102125000D02*
X63701310Y-102025100D01*
X127205610Y-54638800D02*
X127767610Y-54728100D01*
X64796710Y-102396500D02*
X64784510Y-102600900D01*
X39594910Y-66170900D02*
X39011210Y-66119100D01*
X118508110Y-56751800D02*
X118597110Y-57076200D01*
X111606110Y-83250500D02*
X110513510Y-83253400D01*
X124552610Y-53671200D02*
X125054610Y-53936300D01*
X104526710Y-103251500D02*
X104533610Y-103578400D01*
X116252010Y-55049900D02*
X116618210Y-54406400D01*
X119051110Y-61803100D02*
X119178710Y-61792300D01*
X125054610Y-53936300D02*
X125573610Y-54165000D01*
X110250810Y-72532700D02*
X110739110Y-72384200D01*
X133540610Y-45232900D02*
X133521610Y-45095600D01*
X124063610Y-85800000D02*
X123100610Y-85356200D01*
X39996210Y-117504400D02*
X40530110Y-117525400D01*
X118670710Y-59411300D02*
X118506310Y-60082700D01*
X36308210Y-100080400D02*
X36414310Y-99660700D01*
X123257610Y-56975100D02*
X123370610Y-56556700D01*
X37833910Y-66115900D02*
X37209110Y-66124300D01*
X81026910Y-95439100D02*
X81235810Y-95515800D01*
X135306610Y-35870800D02*
X136909610Y-34990200D01*
X102930510Y-104438200D02*
X103074110Y-104439200D01*
X123894610Y-32604600D02*
X123809610Y-32416200D01*
X114788910Y-58836600D02*
X114813810Y-58509700D01*
X21804172Y-79399100D02*
X21725958Y-80051600D01*
X59070310Y-103387500D02*
X59092710Y-102735700D01*
X81745810Y-26326200D02*
X81071310Y-26991800D01*
X56084810Y-110867400D02*
X56209210Y-110864400D01*
X140782610Y-30379800D02*
X140496610Y-30332700D01*
X115631310Y-66291400D02*
X115612410Y-66005200D01*
X80939310Y-95475300D02*
X80943010Y-95446100D01*
X106328610Y-106282400D02*
X106762410Y-106203500D01*
X64240310Y-104709800D02*
X64356110Y-104763200D01*
X139640610Y-101477500D02*
X139713610Y-101388900D01*
X130447610Y-38425400D02*
X133692610Y-36733400D01*
X64422710Y-101485800D02*
X64478210Y-101515300D01*
X118386510Y-60750500D02*
X118375410Y-61081600D01*
X133273610Y-45843800D02*
X133366610Y-45734400D01*
X54814810Y-109528400D02*
X55032210Y-109044400D01*
X102651310Y-104382300D02*
X102788810Y-104419300D01*
X112131010Y-71760300D02*
X112563910Y-71493100D01*
X119811410Y-61526400D02*
X120031810Y-61357300D01*
X118285910Y-56114100D02*
X118508110Y-56751800D01*
X42132310Y-117471400D02*
X42665610Y-117410400D01*
X130537610Y-43471200D02*
X129959610Y-43104500D01*
X82085910Y-97039200D02*
X81514910Y-96233100D01*
X85397310Y-23319600D02*
X84634110Y-23877100D01*
X115597810Y-64848700D02*
X115551410Y-64273300D01*
X132876610Y-53679100D02*
X132886610Y-53568700D01*
X108230810Y-72826800D02*
X108741810Y-72798400D01*
X66046010Y-64024700D02*
X65180610Y-63792800D01*
X125375610Y-48030600D02*
X125371610Y-47970800D01*
X58333610Y-107221600D02*
X58526410Y-106598000D01*
X37869610Y-117260400D02*
X38930610Y-117412400D01*
X35831410Y-112639400D02*
X35358910Y-112975400D01*
X118777210Y-58741300D02*
X118737610Y-59075800D01*
X96766410Y-99421000D02*
X97314910Y-99583700D01*
X132756610Y-53153200D02*
X132679610Y-53067300D01*
X55224010Y-108546400D02*
X55263010Y-108833400D01*
X117604210Y-83428100D02*
X117062010Y-83366400D01*
X30709200Y-99202500D02*
X30852010Y-99629600D01*
X139828610Y-101107700D02*
X139856610Y-100928400D01*
X44021510Y-67626700D02*
X43500310Y-67354900D01*
X104510410Y-103150300D02*
X104526710Y-103251500D01*
X83886110Y-24456700D02*
X83154510Y-25058300D01*
X126908610Y-104233700D02*
X126945610Y-104212600D01*
X32311810Y-114559400D02*
X32224110Y-114663400D01*
X31868610Y-104656900D02*
X31977810Y-104576600D01*
X104622410Y-77501100D02*
X104861910Y-77165200D01*
X77029210Y-32219100D02*
X76564510Y-33043600D01*
X123100610Y-85356200D02*
X122129610Y-84929600D01*
X128729610Y-51795600D02*
X128231610Y-51461600D01*
X64335910Y-103272400D02*
X64241610Y-103351800D01*
X119178710Y-61792300D02*
X119308110Y-61764800D01*
X141477610Y-31611900D02*
X141518610Y-31458800D01*
X126177610Y-49298000D02*
X125827610Y-48814900D01*
X58526410Y-106598000D02*
X58691710Y-105966600D01*
X22055900Y-78110100D02*
X21914200Y-78751300D01*
X69325610Y-65243200D02*
X68579710Y-64905000D01*
X83154510Y-25058300D02*
X82440610Y-25681600D01*
X133521610Y-45095600D02*
X133473610Y-44955000D01*
X115529810Y-56342500D02*
X115885810Y-55693300D01*
X31114610Y-104764800D02*
X31240610Y-104788700D01*
X48543310Y-67034900D02*
X48080810Y-67451600D01*
X32249410Y-115874400D02*
X32364610Y-115970400D01*
X35803210Y-101252300D02*
X36000610Y-100876300D01*
X36722610Y-111899400D02*
X36286310Y-112280400D01*
X127198610Y-40108900D02*
X130447610Y-38425400D01*
X32224110Y-114663400D02*
X32149810Y-114776400D01*
X31097910Y-102094100D02*
X31003810Y-102466500D01*
X32016910Y-115148400D02*
X32006110Y-115277400D01*
X38256910Y-110164400D02*
X37907310Y-110627400D01*
X61398710Y-99498500D02*
X61382510Y-99963500D01*
X59092710Y-102735700D02*
X59085710Y-102083600D01*
X133692610Y-36733400D02*
X135306610Y-35870800D01*
X109753810Y-72651300D02*
X110250810Y-72532700D01*
X51099510Y-65244800D02*
X50559310Y-65561300D01*
X32644710Y-114321400D02*
X32523110Y-114387400D01*
X30549750Y-98780600D02*
X30709200Y-99202500D01*
X112977910Y-71196600D02*
X113370910Y-70870700D01*
X46810210Y-68806400D02*
X46429110Y-69290600D01*
X138330610Y-102042100D02*
X138562610Y-101970100D01*
X81429910Y-96103500D02*
X81303910Y-95949200D01*
X50032510Y-65899300D02*
X49520210Y-66258100D01*
X61382210Y-99036700D02*
X61398710Y-99498500D01*
X68963610Y-104448400D02*
X69122210Y-104688300D01*
X81235810Y-95515800D02*
X83024510Y-96020700D01*
X40174010Y-66254400D02*
X39594910Y-66170900D01*
X29555450Y-96748500D02*
X29986570Y-97546000D01*
X137905610Y-96390800D02*
X137248610Y-95362700D01*
X104505610Y-103902100D02*
X104453310Y-104223300D01*
X74563610Y-104894800D02*
X75290410Y-104753000D01*
X56209210Y-110864400D02*
X56326210Y-110836400D01*
X104095110Y-20083500D02*
X103998410Y-19642400D01*
X92750010Y-20169400D02*
X92152410Y-20325600D01*
X36548510Y-98697900D02*
X36573110Y-98693400D01*
X122524610Y-58546500D02*
X122745610Y-58169200D01*
X115392010Y-67965000D02*
X115471310Y-67694000D01*
X103421210Y-16540570D02*
X103300910Y-16486610D01*
X139856610Y-100928400D02*
X139863610Y-100750500D01*
X30756930Y-103197500D02*
X30485720Y-103913600D01*
X134994610Y-92481500D02*
X134157610Y-91595500D01*
X32149810Y-114776400D02*
X32089810Y-114895400D01*
X118375410Y-61081600D02*
X118413910Y-61409900D01*
X123536610Y-31696800D02*
X123240610Y-30980400D01*
X94567710Y-19802300D02*
X93957910Y-19907300D01*
X112199610Y-107417600D02*
X112510910Y-107518800D01*
X107209110Y-72792700D02*
X107719210Y-72824900D01*
X124282610Y-33400700D02*
X124162610Y-33233800D01*
X115471310Y-67694000D02*
X115535610Y-67419200D01*
X132856610Y-90443400D02*
X132424610Y-90149700D01*
X119565810Y-61667400D02*
X119811410Y-61526400D01*
X32006110Y-115277400D02*
X32013810Y-115406400D01*
X105298710Y-76463300D02*
X105493810Y-76096200D01*
X58709010Y-99301400D02*
X58720910Y-99226700D01*
X37594210Y-100192900D02*
X38060510Y-100963300D01*
X108843710Y-105483800D02*
X109226610Y-105264700D01*
X138215610Y-96916500D02*
X137905610Y-96390800D01*
X43198110Y-117326400D02*
X44070810Y-117159400D01*
X76787110Y-63296600D02*
X76871610Y-63982900D01*
X59085710Y-102083600D02*
X59048810Y-101432500D01*
X128231610Y-51461600D02*
X127767610Y-51085500D01*
X137248610Y-95362700D02*
X136542610Y-94367100D01*
X81303910Y-95949200D02*
X81039510Y-95638700D01*
X132391610Y-54268200D02*
X132501610Y-54219800D01*
X31627010Y-104762000D02*
X31750910Y-104718600D01*
X57194510Y-63289600D02*
X56310910Y-63428200D01*
X104359810Y-106103100D02*
X104460110Y-106205700D01*
X32013810Y-115406400D02*
X32040910Y-115531400D01*
X139465610Y-101624100D02*
X139640610Y-101477500D01*
X102933010Y-16353070D02*
X102933010Y-16353070D01*
X37907310Y-110627400D02*
X37534310Y-111072400D01*
X74941710Y-65914900D02*
X74536610Y-66011300D01*
X118145510Y-83505300D02*
X117604210Y-83428100D01*
X139776610Y-101288600D02*
X139828610Y-101107700D01*
X75495510Y-35294000D02*
X75273710Y-35845800D01*
X76578210Y-61930100D02*
X76787110Y-63296600D01*
X100547110Y-101541500D02*
X100886610Y-101880100D01*
X60851910Y-101636200D02*
X60777510Y-101924300D01*
X33521910Y-66703700D02*
X32924710Y-66883800D01*
X61786010Y-103088400D02*
X61945510Y-103061100D01*
X81039510Y-95638700D02*
X80956410Y-95518600D01*
X129816610Y-103955000D02*
X131215610Y-103737500D01*
X129645610Y-52258700D02*
X129265610Y-52080500D01*
X81071310Y-26991800D02*
X80418410Y-27678300D01*
X110513510Y-83253400D02*
X109422410Y-83235000D01*
X67747010Y-64581800D02*
X66902010Y-64288000D01*
X129265610Y-52080500D02*
X128992610Y-51944600D01*
X111681210Y-71997900D02*
X112131010Y-71760300D01*
X109593110Y-105017100D02*
X109749110Y-105307200D01*
X139063610Y-98536700D02*
X138794610Y-97989600D01*
X120957610Y-26904000D02*
X120484110Y-26288000D01*
X133285610Y-44693000D02*
X133169610Y-44590700D01*
X27811360Y-94008600D02*
X28127470Y-94474800D01*
X139191610Y-98868800D02*
X139063610Y-98536700D01*
X69562710Y-105033900D02*
X69695810Y-105083900D01*
X102933010Y-16353070D02*
X102565710Y-16471070D01*
X67799510Y-104173800D02*
X68301510Y-103902400D01*
X64770910Y-102190200D02*
X64796710Y-102396500D01*
X139261610Y-101737500D02*
X139465610Y-101624100D01*
X25642710Y-71552600D02*
X25230000Y-72020000D01*
X110778310Y-20877300D02*
X109614210Y-20661300D01*
X131424610Y-43937500D02*
X131151610Y-43790700D01*
X131151610Y-43790700D02*
X130839610Y-43637000D01*
X55290610Y-109131400D02*
X55353910Y-109735400D01*
X104274010Y-105975200D02*
X104359810Y-106103100D01*
X68579710Y-64905000D02*
X67747010Y-64581800D01*
X105121810Y-106420200D02*
X105429910Y-106409300D01*
X21914200Y-78751300D02*
X21804172Y-79399100D01*
X31750910Y-104718600D02*
X31868610Y-104656900D01*
X104697810Y-106344400D02*
X104831810Y-106385000D01*
X82083510Y-101688200D02*
X82440510Y-101423500D01*
X32924710Y-66883800D02*
X32334510Y-67086500D01*
X46654210Y-116475400D02*
X47486110Y-116163400D01*
X83300310Y-100481300D02*
X83384010Y-100291900D01*
X105742610Y-106370600D02*
X106328610Y-106282400D01*
X83443310Y-100090600D02*
X83475510Y-99876300D01*
X63855210Y-101883600D02*
X64158310Y-101592600D01*
X45804110Y-116741400D02*
X46654210Y-116475400D01*
X64065210Y-104557200D02*
X64143510Y-104640400D01*
X132628610Y-44308900D02*
X132329610Y-44216200D01*
X65910010Y-104786100D02*
X66189310Y-104736700D01*
X127703610Y-104168600D02*
X128410610Y-104114100D01*
X141421610Y-31759300D02*
X141477610Y-31611900D01*
X130649610Y-46902400D02*
X131446610Y-46645000D01*
X84819910Y-96501700D02*
X86620510Y-96963800D01*
X111604810Y-107144100D02*
X111897210Y-107292200D01*
X31165410Y-100942900D02*
X31186810Y-101332900D01*
X76326110Y-60570300D02*
X76578210Y-61930100D01*
X139036610Y-101826900D02*
X139261610Y-101737500D01*
X122579610Y-29568000D02*
X122212610Y-28877600D01*
X124068610Y-53368900D02*
X124552610Y-53671200D01*
X135790610Y-93406000D02*
X134994610Y-92481500D01*
X118591110Y-61641100D02*
X118695310Y-61716300D01*
X108037810Y-105842500D02*
X108446710Y-105675900D01*
X133366610Y-45734400D02*
X133441610Y-45617900D01*
X23509050Y-88082500D02*
X23790180Y-88570300D01*
X112830110Y-107594400D02*
X113156210Y-107643400D01*
X139821610Y-100398800D02*
X139778610Y-100224900D01*
X129114610Y-104042500D02*
X129816610Y-103955000D01*
X83024510Y-96020700D02*
X84819910Y-96501700D01*
X23770510Y-74037000D02*
X23457280Y-74575700D01*
X122023610Y-59269100D02*
X122283610Y-58913100D01*
X126863610Y-104421000D02*
X126869610Y-104309700D01*
X118506310Y-60082700D02*
X118434410Y-60417400D01*
X38881010Y-109182400D02*
X38581910Y-109682400D01*
X131718610Y-44046700D02*
X131424610Y-43937500D01*
X79182910Y-29112700D02*
X78602910Y-29860000D01*
X38930610Y-117412400D02*
X39463010Y-117466400D01*
X81395910Y-102192900D02*
X81728010Y-101942000D01*
X109924310Y-105587100D02*
X110117810Y-105855400D01*
X21817311Y-83327800D02*
X21933100Y-83974000D01*
X125753610Y-48675900D02*
X125645610Y-48513000D01*
X34366210Y-113572400D02*
X33848310Y-113833400D01*
X34443310Y-116445400D02*
X34737710Y-116534400D01*
X74398310Y-38681600D02*
X74270110Y-39261400D01*
X83070910Y-100828200D02*
X83195010Y-100659700D01*
X63426710Y-63427500D02*
X62541210Y-63296200D01*
X49820310Y-114880400D02*
X50258210Y-114586400D01*
X57866610Y-108440400D02*
X58113610Y-107836400D01*
X75121710Y-55164800D02*
X75428410Y-56514400D01*
X74060410Y-40430400D02*
X73979110Y-41018900D01*
X31752010Y-67311200D02*
X31178110Y-67557500D01*
X43500310Y-67354900D02*
X42968210Y-67106300D01*
X74565410Y-52602900D02*
X74831010Y-53813500D01*
X76329410Y-65308400D02*
X76067910Y-65463500D01*
X124353610Y-33465300D02*
X124282610Y-33400700D01*
X87553410Y-22114600D02*
X86462010Y-22694400D01*
X36514410Y-98761400D02*
X36548510Y-98697900D01*
X131172610Y-54587600D02*
X131725610Y-54457500D01*
X132501610Y-54219800D02*
X132599610Y-54155600D01*
X59048810Y-101432500D02*
X58981710Y-100783700D01*
X117674510Y-23649400D02*
X117018010Y-23229700D01*
X112510910Y-107518800D02*
X112830110Y-107594400D01*
X22433700Y-76853700D02*
X22229110Y-77476900D01*
X111897210Y-107292200D02*
X112199610Y-107417600D01*
X86462010Y-22694400D02*
X85397310Y-23319600D01*
X109422410Y-83235000D02*
X105737410Y-83233000D01*
X95330310Y-19685500D02*
X94947110Y-19734000D01*
X35965310Y-66218700D02*
X35347810Y-66303700D01*
X117696610Y-54891800D02*
X118012410Y-55493200D01*
X27483510Y-93550200D02*
X27811360Y-94008600D01*
X122745610Y-58169200D02*
X122942610Y-57781500D01*
X122129610Y-84929600D02*
X121150610Y-84525600D01*
X132468610Y-52933100D02*
X132073610Y-52810100D01*
X59034010Y-99027100D02*
X59230810Y-98999200D01*
X114827510Y-60152200D02*
X114783310Y-59494600D01*
X54308610Y-110456400D02*
X54573210Y-109999400D01*
X130039610Y-52391300D02*
X129645610Y-52258700D01*
X124062610Y-33032600D02*
X123976610Y-32816500D01*
X58802910Y-99116900D02*
X58868110Y-99078500D01*
X48294610Y-115798400D02*
X48688410Y-115593400D01*
X107193410Y-106104800D02*
X107619210Y-105985000D01*
X98876010Y-100267600D02*
X99355010Y-100576900D01*
X80771510Y-102589000D02*
X81395910Y-102192900D01*
X63934510Y-104246400D02*
X63961310Y-104358000D01*
X39006810Y-102986600D02*
X39141610Y-103409400D01*
X55811910Y-110790400D02*
X55952410Y-110844400D01*
M02*
