%TF.GenerationSoftware,KiCad,Pcbnew,8.0.1*%
%TF.CreationDate,2024-04-02T10:44:00+02:00*%
%TF.ProjectId,Einhorn,45696e68-6f72-46e2-9e6b-696361645f70,rev?*%
%TF.SameCoordinates,Original*%
%TF.FileFunction,Copper,L1,Top*%
%TF.FilePolarity,Positive*%
%FSLAX46Y46*%
G04 Gerber Fmt 4.6, Leading zero omitted, Abs format (unit mm)*
G04 Created by KiCad (PCBNEW 8.0.1) date 2024-04-02 10:44:00*
%MOMM*%
%LPD*%
G01*
G04 APERTURE LIST*
%TA.AperFunction,ComponentPad*%
%ADD10R,1.500000X1.500000*%
%TD*%
%TA.AperFunction,ComponentPad*%
%ADD11C,1.500000*%
%TD*%
%TA.AperFunction,ComponentPad*%
%ADD12R,1.600000X1.600000*%
%TD*%
%TA.AperFunction,ComponentPad*%
%ADD13C,1.600000*%
%TD*%
%TA.AperFunction,ComponentPad*%
%ADD14C,1.524000*%
%TD*%
%TA.AperFunction,ComponentPad*%
%ADD15O,1.200000X1.500000*%
%TD*%
%TA.AperFunction,ComponentPad*%
%ADD16C,1.400000*%
%TD*%
%TA.AperFunction,ComponentPad*%
%ADD17O,1.600000X1.600000*%
%TD*%
%TA.AperFunction,ComponentPad*%
%ADD18C,2.000000*%
%TD*%
%TA.AperFunction,ViaPad*%
%ADD19C,0.300000*%
%TD*%
%TA.AperFunction,Conductor*%
%ADD20C,0.250000*%
%TD*%
G04 APERTURE END LIST*
D10*
%TO.P,T2,1*%
%TO.N,Net-(Q2-E)*%
X106256000Y-66790000D03*
D11*
%TO.P,T2,2*%
%TO.N,Net-(Q1-C)*%
X108796000Y-64250000D03*
%TO.P,T2,3*%
%TO.N,Net-(Q2-C)*%
X111336000Y-66790000D03*
%TD*%
D10*
%TO.P,T1,1*%
%TO.N,Net-(Q1-E)*%
X96646000Y-64350000D03*
D11*
%TO.P,T1,2*%
%TO.N,Net-(Q1-B)*%
X99186000Y-61810000D03*
%TO.P,T1,3*%
%TO.N,Net-(Q1-C)*%
X101726000Y-64350000D03*
%TD*%
D12*
%TO.P,C1,1*%
%TO.N,Net-(D3-K)*%
X84084000Y-61134000D03*
D13*
%TO.P,C1,2*%
%TO.N,Net-(Q1-E)*%
X86584000Y-61134000D03*
%TD*%
D14*
%TO.P,P1,1,1*%
%TO.N,Net-(S1-E)*%
X56144000Y-70212000D03*
%TO.P,P1,2,2*%
%TO.N,unconnected-(P1-Pad2)*%
X51064000Y-70212000D03*
%TO.P,P1,3,3*%
%TO.N,Net-(D3-A)*%
X53604000Y-75292000D03*
%TD*%
D15*
%TO.P,U3,1,K*%
%TO.N,Net-(Q1-E)*%
X100026000Y-77136000D03*
X97126000Y-69436000D03*
X94726000Y-84436000D03*
X88726000Y-91136000D03*
X88622051Y-69860000D03*
X82629949Y-84436000D03*
X80326000Y-69532051D03*
X77426000Y-77136000D03*
D11*
%TO.P,U3,2,A*%
%TO.N,Net-(Q2-E)*%
X97726000Y-77136000D03*
X95426000Y-71036000D03*
X93126000Y-82836000D03*
X88726000Y-88836000D03*
X88622051Y-72146000D03*
X84229949Y-82836000D03*
X81826000Y-71132051D03*
D16*
X79826000Y-77136000D03*
%TD*%
D12*
%TO.P,D3,1,K*%
%TO.N,Net-(D3-K)*%
X71638000Y-95424000D03*
D17*
%TO.P,D3,2,A*%
%TO.N,Net-(D3-A)*%
X64018000Y-95424000D03*
%TD*%
D13*
%TO.P,R4,1*%
%TO.N,Net-(Q1-B)*%
X71638000Y-77008000D03*
D17*
%TO.P,R4,2*%
%TO.N,Net-(Q1-E)*%
X61478000Y-77008000D03*
%TD*%
D13*
%TO.P,R5,1*%
%TO.N,Net-(S1-E)*%
X71638000Y-83230000D03*
D17*
%TO.P,R5,2*%
%TO.N,Net-(Q1-C)*%
X61478000Y-83230000D03*
%TD*%
D13*
%TO.P,R6,1*%
%TO.N,Net-(S1-E)*%
X71638000Y-89452000D03*
D17*
%TO.P,R6,2*%
%TO.N,Net-(Q2-C)*%
X61478000Y-89452000D03*
%TD*%
D12*
%TO.P,U1,1,GND*%
%TO.N,Net-(Q1-E)*%
X53858000Y-85264000D03*
D17*
%TO.P,U1,2,TR*%
%TO.N,Net-(D3-K)*%
X53858000Y-87804000D03*
%TO.P,U1,3,Q*%
%TO.N,unconnected-(U1-Q-Pad3)*%
X53858000Y-90344000D03*
%TO.P,U1,4,R*%
%TO.N,Net-(S1-E)*%
X53858000Y-92884000D03*
%TO.P,U1,5,CV*%
%TO.N,unconnected-(U1-CV-Pad5)*%
X46238000Y-92884000D03*
%TO.P,U1,6,THR*%
%TO.N,Net-(D3-K)*%
X46238000Y-90344000D03*
%TO.P,U1,7,DIS*%
%TO.N,Net-(D3-A)*%
X46238000Y-87804000D03*
%TO.P,U1,8,VCC*%
%TO.N,Net-(S1-E)*%
X46238000Y-85264000D03*
%TD*%
D13*
%TO.P,R3,1*%
%TO.N,Net-(D3-K)*%
X71638000Y-70786000D03*
D17*
%TO.P,R3,2*%
%TO.N,Net-(Q1-B)*%
X61478000Y-70786000D03*
%TD*%
D14*
%TO.P,P2,1,1*%
%TO.N,Net-(D3-A)*%
X43190000Y-72244000D03*
%TO.P,P2,2,2*%
%TO.N,unconnected-(P2-Pad2)*%
X38110000Y-72244000D03*
%TO.P,P2,3,3*%
%TO.N,Net-(D3-K)*%
X40650000Y-77324000D03*
%TD*%
D18*
%TO.P,S1,1,A*%
%TO.N,Net-(S1-A-Pad1)*%
X80058100Y-45347900D03*
%TO.P,S1,2,E*%
%TO.N,Net-(S1-E)*%
X80058100Y-47887900D03*
%TO.P,S1,3,A*%
%TO.N,unconnected-(S1-A-Pad3)*%
X80058100Y-50427900D03*
%TD*%
D19*
%TO.N,Net-(S1-E)*%
X85354000Y-50974000D03*
%TO.N,Net-(Q1-C)*%
X98308000Y-74088000D03*
%TO.N,Net-(Q1-B)*%
X75702000Y-71294000D03*
%TD*%
D20*
%TO.N,Net-(D3-K)*%
X69098000Y-92884000D02*
X71638000Y-95424000D01*
X56144000Y-87804000D02*
X56144000Y-89836000D01*
X42682000Y-90344000D02*
X46238000Y-90344000D01*
X59192000Y-92884000D02*
X69098000Y-92884000D01*
X53858000Y-87804000D02*
X56144000Y-87804000D01*
X40650000Y-77324000D02*
X40650000Y-88312000D01*
X56144000Y-89836000D02*
X59192000Y-92884000D01*
X40650000Y-88312000D02*
X42682000Y-90344000D01*
%TO.N,Net-(D3-A)*%
X43190000Y-86280000D02*
X43190000Y-72244000D01*
X48778000Y-95424000D02*
X64018000Y-95424000D01*
X46238000Y-87804000D02*
X48016000Y-87804000D01*
X48016000Y-87804000D02*
X48016000Y-94662000D01*
X48016000Y-94662000D02*
X48778000Y-95424000D01*
X44714000Y-87804000D02*
X43190000Y-86280000D01*
X46238000Y-75292000D02*
X53604000Y-75292000D01*
X43190000Y-72244000D02*
X46238000Y-75292000D01*
X46238000Y-87804000D02*
X44714000Y-87804000D01*
%TO.N,Net-(S1-E)*%
X83144200Y-50974000D02*
X82725100Y-50554900D01*
X79766000Y-60372000D02*
X79766000Y-65452000D01*
X69100000Y-80692000D02*
X71638000Y-83230000D01*
X50048000Y-90090000D02*
X50048000Y-87042000D01*
X75194000Y-67992000D02*
X57922000Y-67992000D01*
X56144000Y-70212000D02*
X56144000Y-78152000D01*
X85354000Y-50974000D02*
X83144200Y-50974000D01*
X53858000Y-92884000D02*
X52842000Y-92884000D01*
X56144000Y-78406000D02*
X58430000Y-80692000D01*
X80058100Y-47887900D02*
X82725100Y-50554900D01*
X48270000Y-85264000D02*
X46238000Y-85264000D01*
X56144000Y-78152000D02*
X56144000Y-78406000D01*
X52842000Y-92884000D02*
X50048000Y-90090000D01*
X79766000Y-65452000D02*
X78242000Y-66976000D01*
X56906000Y-69008000D02*
X56906000Y-69450000D01*
X56144000Y-78152000D02*
X47762000Y-78152000D01*
X78242000Y-66976000D02*
X76210000Y-66976000D01*
X50048000Y-87042000D02*
X48270000Y-85264000D01*
X82725100Y-50554900D02*
X82890200Y-50720000D01*
X57922000Y-67992000D02*
X56906000Y-69008000D01*
X58430000Y-80692000D02*
X69100000Y-80692000D01*
X46238000Y-79676000D02*
X46238000Y-85264000D01*
X47762000Y-78152000D02*
X46238000Y-79676000D01*
X82890200Y-57247800D02*
X79766000Y-60372000D01*
X56906000Y-69450000D02*
X56144000Y-70212000D01*
X76210000Y-66976000D02*
X75194000Y-67992000D01*
X82890200Y-50720000D02*
X82890200Y-57247800D01*
%TO.N,Net-(Q1-C)*%
X96784000Y-74088000D02*
X98308000Y-74088000D01*
X81036000Y-87296000D02*
X83576000Y-87296000D01*
X83576000Y-87296000D02*
X96784000Y-74088000D01*
X64528000Y-86280000D02*
X80020000Y-86280000D01*
X80020000Y-86280000D02*
X81036000Y-87296000D01*
X61478000Y-83230000D02*
X64528000Y-86280000D01*
%TO.N,Net-(Q1-B)*%
X75702000Y-71294000D02*
X71638000Y-75358000D01*
X71638000Y-75358000D02*
X71638000Y-77008000D01*
%TO.N,Net-(Q2-C)*%
X92466000Y-94408000D02*
X85862000Y-94408000D01*
X65542000Y-91868000D02*
X63126000Y-89452000D01*
X106366000Y-71760000D02*
X111336000Y-66790000D01*
X63126000Y-89452000D02*
X61478000Y-89452000D01*
X102118000Y-76393000D02*
X102118000Y-78660000D01*
X102118000Y-78660000D02*
X99324000Y-81454000D01*
X99324000Y-81454000D02*
X99324000Y-87550000D01*
X83322000Y-91868000D02*
X65542000Y-91868000D01*
X99324000Y-87550000D02*
X92466000Y-94408000D01*
X85862000Y-94408000D02*
X83322000Y-91868000D01*
X106366000Y-72145000D02*
X106366000Y-71760000D01*
X106366000Y-72145000D02*
X102118000Y-76393000D01*
%TO.N,Net-(S1-A-Pad1)*%
X80058100Y-45347900D02*
X81036000Y-44370000D01*
%TO.N,Net-(Q1-E)*%
X80653949Y-69860000D02*
X80326000Y-69532051D01*
X77353000Y-78787000D02*
X77426000Y-78714000D01*
X77426000Y-78714000D02*
X77426000Y-77136000D01*
X76718000Y-79422000D02*
X77353000Y-78787000D01*
X61478000Y-77008000D02*
X63892000Y-79422000D01*
X94726000Y-85136000D02*
X94726000Y-84436000D01*
X77426000Y-72432051D02*
X77426000Y-77136000D01*
X97126000Y-69436000D02*
X89046051Y-69436000D01*
X100026000Y-72336000D02*
X100026000Y-77136000D01*
X96646000Y-68956000D02*
X97126000Y-69436000D01*
X80326000Y-69532051D02*
X77426000Y-72432051D01*
X94726000Y-84436000D02*
X100026000Y-79136000D01*
X82629949Y-84436000D02*
X77353000Y-79159051D01*
X96646000Y-64350000D02*
X96646000Y-68956000D01*
X97126000Y-69436000D02*
X100026000Y-72336000D01*
X77353000Y-79159051D02*
X77353000Y-78787000D01*
X88726000Y-91136000D02*
X94726000Y-85136000D01*
X63892000Y-79422000D02*
X76718000Y-79422000D01*
X100026000Y-79136000D02*
X100026000Y-77136000D01*
X88622051Y-69860000D02*
X88622051Y-63172051D01*
X89046051Y-69436000D02*
X88622051Y-69860000D01*
X88622051Y-63172051D02*
X86584000Y-61134000D01*
X88622051Y-69860000D02*
X80653949Y-69860000D01*
%TD*%
M02*
