M48
; DRILL file {KiCad 8.0.1} date 2024-04-02T10:44:05+0200
; FORMAT={-:-/ absolute / inch / decimal}
; #@! TF.CreationDate,2024-04-02T10:44:05+02:00
; #@! TF.GenerationSoftware,Kicad,Pcbnew,8.0.1
; #@! TF.FileFunction,Plated,1,2,PTH
FMAT,2
INCH
; #@! TA.AperFunction,Plated,PTH,ViaDrill
T1C0.0039
; #@! TA.AperFunction,Plated,PTH,ComponentDrill
T2C0.0300
; #@! TA.AperFunction,Plated,PTH,ComponentDrill
T3C0.0315
; #@! TA.AperFunction,Plated,PTH,ComponentDrill
T4C0.0394
%
G90
G05
T1
X2.9804Y-2.8069
X3.3604Y-2.0069
X3.8704Y-2.9169
T2
X1.5004Y-2.8443
X1.6004Y-3.0443
X1.7004Y-2.8443
X2.0104Y-2.7643
X2.1104Y-2.9643
X2.2104Y-2.7643
T3
X1.8204Y-3.3569
X1.8204Y-3.4569
X1.8204Y-3.5569
X1.8204Y-3.6569
X2.1204Y-3.3569
X2.1204Y-3.4569
X2.1204Y-3.5569
X2.1204Y-3.6569
X2.4204Y-2.7869
X2.4204Y-3.0318
X2.4204Y-3.2768
X2.4204Y-3.5217
X2.5204Y-3.7569
X2.8204Y-2.7869
X2.8204Y-3.0318
X2.8204Y-3.2768
X2.8204Y-3.5217
X2.8204Y-3.7569
X3.0483Y-3.0369
X3.1428Y-3.0369
X3.1624Y-2.7375
X3.2215Y-2.8005
X3.2531Y-3.3243
X3.3104Y-2.4069
X3.3161Y-3.2613
X3.4088Y-2.4069
X3.4891Y-2.7504
X3.4891Y-2.8404
X3.4931Y-3.4975
X3.4931Y-3.588
X3.6664Y-3.2613
X3.7294Y-3.3243
X3.7569Y-2.7967
X3.805Y-2.5335
X3.8239Y-2.7337
X3.8475Y-3.0369
X3.905Y-2.4335
X3.938Y-3.0369
X4.005Y-2.5335
X4.1833Y-2.6295
X4.2833Y-2.5295
X4.3833Y-2.6295
T4
X3.1519Y-1.7854
X3.1519Y-1.8854
X3.1519Y-1.9854
M30
