%TF.GenerationSoftware,KiCad,Pcbnew,8.0.1*%
%TF.CreationDate,2024-04-02T10:44:00+02:00*%
%TF.ProjectId,Einhorn,45696e68-6f72-46e2-9e6b-696361645f70,rev?*%
%TF.SameCoordinates,Original*%
%TF.FileFunction,Copper,L2,Bot*%
%TF.FilePolarity,Positive*%
%FSLAX46Y46*%
G04 Gerber Fmt 4.6, Leading zero omitted, Abs format (unit mm)*
G04 Created by KiCad (PCBNEW 8.0.1) date 2024-04-02 10:44:00*
%MOMM*%
%LPD*%
G01*
G04 APERTURE LIST*
%ADD10C,0.300000*%
%TA.AperFunction,NonConductor*%
%ADD11C,0.300000*%
%TD*%
%TA.AperFunction,SMDPad,CuDef*%
%ADD12C,2.500000*%
%TD*%
%TA.AperFunction,SMDPad,CuDef*%
%ADD13R,5.000000X2.000000*%
%TD*%
%TA.AperFunction,SMDPad,CuDef*%
%ADD14C,17.780000*%
%TD*%
%TA.AperFunction,ComponentPad*%
%ADD15R,1.500000X1.500000*%
%TD*%
%TA.AperFunction,ComponentPad*%
%ADD16C,1.500000*%
%TD*%
%TA.AperFunction,ComponentPad*%
%ADD17R,1.600000X1.600000*%
%TD*%
%TA.AperFunction,ComponentPad*%
%ADD18C,1.600000*%
%TD*%
%TA.AperFunction,ComponentPad*%
%ADD19C,1.524000*%
%TD*%
%TA.AperFunction,ComponentPad*%
%ADD20O,1.200000X1.500000*%
%TD*%
%TA.AperFunction,ComponentPad*%
%ADD21C,1.400000*%
%TD*%
%TA.AperFunction,ComponentPad*%
%ADD22O,1.600000X1.600000*%
%TD*%
%TA.AperFunction,ComponentPad*%
%ADD23C,2.000000*%
%TD*%
%TA.AperFunction,ViaPad*%
%ADD24C,0.300000*%
%TD*%
%TA.AperFunction,Conductor*%
%ADD25C,0.250000*%
%TD*%
G04 APERTURE END LIST*
D10*
D11*
X122335489Y-99930828D02*
X122335489Y-98430828D01*
X121478346Y-99930828D02*
X122121203Y-99073685D01*
X121478346Y-98430828D02*
X122335489Y-99287971D01*
X120835489Y-99930828D02*
X120835489Y-98430828D01*
X120835489Y-99145114D02*
X119978346Y-99145114D01*
X119978346Y-99930828D02*
X119978346Y-98430828D01*
X118764060Y-99145114D02*
X119264060Y-99145114D01*
X119264060Y-99930828D02*
X119264060Y-98430828D01*
X119264060Y-98430828D02*
X118549774Y-98430828D01*
X116549774Y-98430828D02*
X116406917Y-98430828D01*
X116406917Y-98430828D02*
X116264060Y-98502257D01*
X116264060Y-98502257D02*
X116192632Y-98573685D01*
X116192632Y-98573685D02*
X116121203Y-98716542D01*
X116121203Y-98716542D02*
X116049774Y-99002257D01*
X116049774Y-99002257D02*
X116049774Y-99359400D01*
X116049774Y-99359400D02*
X116121203Y-99645114D01*
X116121203Y-99645114D02*
X116192632Y-99787971D01*
X116192632Y-99787971D02*
X116264060Y-99859400D01*
X116264060Y-99859400D02*
X116406917Y-99930828D01*
X116406917Y-99930828D02*
X116549774Y-99930828D01*
X116549774Y-99930828D02*
X116692632Y-99859400D01*
X116692632Y-99859400D02*
X116764060Y-99787971D01*
X116764060Y-99787971D02*
X116835489Y-99645114D01*
X116835489Y-99645114D02*
X116906917Y-99359400D01*
X116906917Y-99359400D02*
X116906917Y-99002257D01*
X116906917Y-99002257D02*
X116835489Y-98716542D01*
X116835489Y-98716542D02*
X116764060Y-98573685D01*
X116764060Y-98573685D02*
X116692632Y-98502257D01*
X116692632Y-98502257D02*
X116549774Y-98430828D01*
X114621203Y-99930828D02*
X115478346Y-99930828D01*
X115049775Y-99930828D02*
X115049775Y-98430828D01*
X115049775Y-98430828D02*
X115192632Y-98645114D01*
X115192632Y-98645114D02*
X115335489Y-98787971D01*
X115335489Y-98787971D02*
X115478346Y-98859400D01*
X113978347Y-99787971D02*
X113906918Y-99859400D01*
X113906918Y-99859400D02*
X113978347Y-99930828D01*
X113978347Y-99930828D02*
X114049775Y-99859400D01*
X114049775Y-99859400D02*
X113978347Y-99787971D01*
X113978347Y-99787971D02*
X113978347Y-99930828D01*
X113335489Y-98573685D02*
X113264061Y-98502257D01*
X113264061Y-98502257D02*
X113121204Y-98430828D01*
X113121204Y-98430828D02*
X112764061Y-98430828D01*
X112764061Y-98430828D02*
X112621204Y-98502257D01*
X112621204Y-98502257D02*
X112549775Y-98573685D01*
X112549775Y-98573685D02*
X112478346Y-98716542D01*
X112478346Y-98716542D02*
X112478346Y-98859400D01*
X112478346Y-98859400D02*
X112549775Y-99073685D01*
X112549775Y-99073685D02*
X113406918Y-99930828D01*
X113406918Y-99930828D02*
X112478346Y-99930828D01*
X111549775Y-98430828D02*
X111406918Y-98430828D01*
X111406918Y-98430828D02*
X111264061Y-98502257D01*
X111264061Y-98502257D02*
X111192633Y-98573685D01*
X111192633Y-98573685D02*
X111121204Y-98716542D01*
X111121204Y-98716542D02*
X111049775Y-99002257D01*
X111049775Y-99002257D02*
X111049775Y-99359400D01*
X111049775Y-99359400D02*
X111121204Y-99645114D01*
X111121204Y-99645114D02*
X111192633Y-99787971D01*
X111192633Y-99787971D02*
X111264061Y-99859400D01*
X111264061Y-99859400D02*
X111406918Y-99930828D01*
X111406918Y-99930828D02*
X111549775Y-99930828D01*
X111549775Y-99930828D02*
X111692633Y-99859400D01*
X111692633Y-99859400D02*
X111764061Y-99787971D01*
X111764061Y-99787971D02*
X111835490Y-99645114D01*
X111835490Y-99645114D02*
X111906918Y-99359400D01*
X111906918Y-99359400D02*
X111906918Y-99002257D01*
X111906918Y-99002257D02*
X111835490Y-98716542D01*
X111835490Y-98716542D02*
X111764061Y-98573685D01*
X111764061Y-98573685D02*
X111692633Y-98502257D01*
X111692633Y-98502257D02*
X111549775Y-98430828D01*
X110478347Y-98573685D02*
X110406919Y-98502257D01*
X110406919Y-98502257D02*
X110264062Y-98430828D01*
X110264062Y-98430828D02*
X109906919Y-98430828D01*
X109906919Y-98430828D02*
X109764062Y-98502257D01*
X109764062Y-98502257D02*
X109692633Y-98573685D01*
X109692633Y-98573685D02*
X109621204Y-98716542D01*
X109621204Y-98716542D02*
X109621204Y-98859400D01*
X109621204Y-98859400D02*
X109692633Y-99073685D01*
X109692633Y-99073685D02*
X110549776Y-99930828D01*
X110549776Y-99930828D02*
X109621204Y-99930828D01*
X108335491Y-98930828D02*
X108335491Y-99930828D01*
X108692633Y-98359400D02*
X109049776Y-99430828D01*
X109049776Y-99430828D02*
X108121205Y-99430828D01*
D12*
%TO.P,T2_B,1*%
%TO.N,Net-(Q1-C)*%
X110500000Y-55292000D03*
%TD*%
%TO.P,GND,1*%
%TO.N,Net-(Q1-E)*%
X95006000Y-48180000D03*
%TD*%
D13*
%TO.P,U2,1*%
%TO.N,Net-(S1-A-Pad1)*%
X89940000Y-34210000D03*
X89940000Y-37766000D03*
X115834000Y-34210000D03*
X115834000Y-37766000D03*
D14*
%TO.P,U2,2*%
%TO.N,Net-(Q1-E)*%
X102880000Y-35734000D03*
%TD*%
D15*
%TO.P,T2,1*%
%TO.N,Net-(Q2-E)*%
X106256000Y-66790000D03*
D16*
%TO.P,T2,2*%
%TO.N,Net-(Q1-C)*%
X108796000Y-64250000D03*
%TO.P,T2,3*%
%TO.N,Net-(Q2-C)*%
X111336000Y-66790000D03*
%TD*%
D15*
%TO.P,T1,1*%
%TO.N,Net-(Q1-E)*%
X96646000Y-64350000D03*
D16*
%TO.P,T1,2*%
%TO.N,Net-(Q1-B)*%
X99186000Y-61810000D03*
%TO.P,T1,3*%
%TO.N,Net-(Q1-C)*%
X101726000Y-64350000D03*
%TD*%
D12*
%TO.P,T1_B,1*%
%TO.N,Net-(Q1-B)*%
X100594000Y-55292000D03*
%TD*%
%TO.P,Q,1*%
%TO.N,unconnected-(U1-Q-Pad3)*%
X50302000Y-99488000D03*
%TD*%
%TO.P,VCC,1*%
%TO.N,Net-(S1-A-Pad1)*%
X115834000Y-48180000D03*
%TD*%
%TO.P,,1*%
%TO.N,Net-(S1-E)*%
X88402000Y-48180000D03*
%TD*%
D17*
%TO.P,C1,1*%
%TO.N,Net-(D3-K)*%
X84084000Y-61134000D03*
D18*
%TO.P,C1,2*%
%TO.N,Net-(Q1-E)*%
X86584000Y-61134000D03*
%TD*%
D19*
%TO.P,P1,1,1*%
%TO.N,Net-(S1-E)*%
X56144000Y-70212000D03*
%TO.P,P1,2,2*%
%TO.N,unconnected-(P1-Pad2)*%
X51064000Y-70212000D03*
%TO.P,P1,3,3*%
%TO.N,Net-(D3-A)*%
X53604000Y-75292000D03*
%TD*%
D20*
%TO.P,U3,1,K*%
%TO.N,Net-(Q1-E)*%
X100026000Y-77136000D03*
X97126000Y-69436000D03*
X94726000Y-84436000D03*
X88726000Y-91136000D03*
X88622051Y-69860000D03*
X82629949Y-84436000D03*
X80326000Y-69532051D03*
X77426000Y-77136000D03*
D16*
%TO.P,U3,2,A*%
%TO.N,Net-(Q2-E)*%
X97726000Y-77136000D03*
X95426000Y-71036000D03*
X93126000Y-82836000D03*
X88726000Y-88836000D03*
X88622051Y-72146000D03*
X84229949Y-82836000D03*
X81826000Y-71132051D03*
D21*
X79826000Y-77136000D03*
%TD*%
D17*
%TO.P,D3,1,K*%
%TO.N,Net-(D3-K)*%
X71638000Y-95424000D03*
D22*
%TO.P,D3,2,A*%
%TO.N,Net-(D3-A)*%
X64018000Y-95424000D03*
%TD*%
D18*
%TO.P,R4,1*%
%TO.N,Net-(Q1-B)*%
X71638000Y-77008000D03*
D22*
%TO.P,R4,2*%
%TO.N,Net-(Q1-E)*%
X61478000Y-77008000D03*
%TD*%
D18*
%TO.P,R5,1*%
%TO.N,Net-(S1-E)*%
X71638000Y-83230000D03*
D22*
%TO.P,R5,2*%
%TO.N,Net-(Q1-C)*%
X61478000Y-83230000D03*
%TD*%
D18*
%TO.P,R6,1*%
%TO.N,Net-(S1-E)*%
X71638000Y-89452000D03*
D22*
%TO.P,R6,2*%
%TO.N,Net-(Q2-C)*%
X61478000Y-89452000D03*
%TD*%
D17*
%TO.P,U1,1,GND*%
%TO.N,Net-(Q1-E)*%
X53858000Y-85264000D03*
D22*
%TO.P,U1,2,TR*%
%TO.N,Net-(D3-K)*%
X53858000Y-87804000D03*
%TO.P,U1,3,Q*%
%TO.N,unconnected-(U1-Q-Pad3)*%
X53858000Y-90344000D03*
%TO.P,U1,4,R*%
%TO.N,Net-(S1-E)*%
X53858000Y-92884000D03*
%TO.P,U1,5,CV*%
%TO.N,unconnected-(U1-CV-Pad5)*%
X46238000Y-92884000D03*
%TO.P,U1,6,THR*%
%TO.N,Net-(D3-K)*%
X46238000Y-90344000D03*
%TO.P,U1,7,DIS*%
%TO.N,Net-(D3-A)*%
X46238000Y-87804000D03*
%TO.P,U1,8,VCC*%
%TO.N,Net-(S1-E)*%
X46238000Y-85264000D03*
%TD*%
D18*
%TO.P,R3,1*%
%TO.N,Net-(D3-K)*%
X71638000Y-70786000D03*
D22*
%TO.P,R3,2*%
%TO.N,Net-(Q1-B)*%
X61478000Y-70786000D03*
%TD*%
D19*
%TO.P,P2,1,1*%
%TO.N,Net-(D3-A)*%
X43190000Y-72244000D03*
%TO.P,P2,2,2*%
%TO.N,unconnected-(P2-Pad2)*%
X38110000Y-72244000D03*
%TO.P,P2,3,3*%
%TO.N,Net-(D3-K)*%
X40650000Y-77324000D03*
%TD*%
D23*
%TO.P,S1,1,A*%
%TO.N,Net-(S1-A-Pad1)*%
X80058100Y-45347900D03*
%TO.P,S1,2,E*%
%TO.N,Net-(S1-E)*%
X80058100Y-47887900D03*
%TO.P,S1,3,A*%
%TO.N,unconnected-(S1-A-Pad3)*%
X80058100Y-50427900D03*
%TD*%
D24*
%TO.N,Net-(S1-E)*%
X85354000Y-50974000D03*
%TO.N,Net-(Q1-C)*%
X98308000Y-74088000D03*
%TO.N,Net-(Q1-B)*%
X75702000Y-71294000D03*
%TD*%
D25*
%TO.N,Net-(D3-K)*%
X73416000Y-70786000D02*
X71638000Y-70786000D01*
X84084000Y-61134000D02*
X84084000Y-63674000D01*
X76464000Y-67738000D02*
X73416000Y-70786000D01*
X74432000Y-73580000D02*
X74432000Y-93392000D01*
X48778000Y-90344000D02*
X51318000Y-87804000D01*
X46238000Y-90344000D02*
X48778000Y-90344000D01*
X84084000Y-63674000D02*
X80020000Y-67738000D01*
X71638000Y-70786000D02*
X74432000Y-73580000D01*
X72400000Y-95424000D02*
X71638000Y-95424000D01*
X80020000Y-67738000D02*
X76464000Y-67738000D01*
X51318000Y-87804000D02*
X53858000Y-87804000D01*
X74432000Y-93392000D02*
X72400000Y-95424000D01*
%TO.N,Net-(S1-E)*%
X85608000Y-50974000D02*
X85354000Y-50974000D01*
X88402000Y-48180000D02*
X85608000Y-50974000D01*
X71638000Y-83230000D02*
X71638000Y-89452000D01*
%TO.N,Net-(Q1-C)*%
X114310000Y-67992000D02*
X110754000Y-71548000D01*
X104150000Y-74088000D02*
X98308000Y-74088000D01*
X106690000Y-71548000D02*
X104150000Y-74088000D01*
X108878000Y-64350000D02*
X108906000Y-64378000D01*
X112534411Y-62784000D02*
X114310000Y-64559589D01*
X108696000Y-64350000D02*
X108796000Y-64250000D01*
X114310000Y-64559589D02*
X114310000Y-67992000D01*
X110754000Y-71548000D02*
X106690000Y-71548000D01*
X108796000Y-64250000D02*
X110262000Y-62784000D01*
X110500000Y-55292000D02*
X110500000Y-62784000D01*
X110500000Y-62784000D02*
X112534411Y-62784000D01*
X110262000Y-62784000D02*
X110500000Y-62784000D01*
X101726000Y-64350000D02*
X108696000Y-64350000D01*
%TO.N,Net-(Q1-B)*%
X100594000Y-59660000D02*
X100594000Y-60524000D01*
X75702000Y-71294000D02*
X78750000Y-68246000D01*
X99186000Y-61810000D02*
X100594000Y-60402000D01*
X89418000Y-67230000D02*
X94838000Y-61810000D01*
X100594000Y-60402000D02*
X100594000Y-59660000D01*
X78750000Y-68246000D02*
X80528000Y-68246000D01*
X65416000Y-70786000D02*
X61478000Y-70786000D01*
X81544000Y-67230000D02*
X89418000Y-67230000D01*
X71638000Y-77008000D02*
X65416000Y-70786000D01*
X80528000Y-68246000D02*
X81544000Y-67230000D01*
X94838000Y-61810000D02*
X99186000Y-61810000D01*
X100594000Y-55292000D02*
X100594000Y-59660000D01*
%TO.N,unconnected-(U1-Q-Pad3)*%
X53858000Y-90344000D02*
X51318000Y-90344000D01*
X50302000Y-91360000D02*
X50302000Y-99488000D01*
X51318000Y-90344000D02*
X50302000Y-91360000D01*
%TO.N,Net-(S1-A-Pad1)*%
X80058100Y-45347900D02*
X87170100Y-45347900D01*
X92720000Y-24050000D02*
X113040000Y-24050000D01*
X89940000Y-42578000D02*
X89940000Y-37766000D01*
X89940000Y-26830000D02*
X92720000Y-24050000D01*
X113040000Y-24050000D02*
X115834000Y-26844000D01*
X115834000Y-34210000D02*
X115834000Y-37766000D01*
X89940000Y-34210000D02*
X89940000Y-26830000D01*
X87170100Y-45347900D02*
X89940000Y-42578000D01*
X89940000Y-37766000D02*
X89940000Y-34210000D01*
X115834000Y-26844000D02*
X115834000Y-34210000D01*
X115834000Y-48180000D02*
X115834000Y-37766000D01*
%TO.N,Net-(Q1-E)*%
X101610000Y-48180000D02*
X95006000Y-48180000D01*
X53858000Y-84628000D02*
X53858000Y-85264000D01*
X61478000Y-77008000D02*
X53858000Y-84628000D01*
X95006000Y-52712000D02*
X86584000Y-61134000D01*
X102880000Y-46910000D02*
X101610000Y-48180000D01*
X95006000Y-48180000D02*
X95006000Y-52712000D01*
X102880000Y-35734000D02*
X102880000Y-46910000D01*
%TO.N,Net-(Q2-E)*%
X94316000Y-72146000D02*
X95426000Y-71036000D01*
X88622051Y-72146000D02*
X94316000Y-72146000D01*
X95426000Y-74836000D02*
X97726000Y-77136000D01*
X81826000Y-71132051D02*
X81826000Y-75136000D01*
X88726000Y-88836000D02*
X88726000Y-87236000D01*
X88440949Y-87047000D02*
X88915000Y-87047000D01*
X95426000Y-71036000D02*
X95426000Y-74836000D01*
X81826000Y-75136000D02*
X79826000Y-77136000D01*
X93126000Y-82836000D02*
X93126000Y-81736000D01*
X81826000Y-71132051D02*
X83414051Y-71132051D01*
X88915000Y-87047000D02*
X93126000Y-82836000D01*
X93126000Y-81736000D02*
X97726000Y-77136000D01*
X83414051Y-71132051D02*
X84428000Y-72146000D01*
X84229949Y-82836000D02*
X88440949Y-87047000D01*
X84428000Y-72146000D02*
X88622051Y-72146000D01*
X88726000Y-87236000D02*
X88915000Y-87047000D01*
X106256000Y-66790000D02*
X106256000Y-68250000D01*
X106256000Y-68250000D02*
X103470000Y-71036000D01*
X103470000Y-71036000D02*
X95426000Y-71036000D01*
%TD*%
M02*
