<?xml version="1.0" encoding="UTF-8" standalone="no"?>
<!-- Created with Inkscape (http://www.inkscape.org/) -->

<svg
   width="110.0mm"
   height="110.0mm"
   viewBox="0 0 110.0 110.0"
   version="1.1"
   id="svg1"
   xml:space="preserve"
   inkscape:version="1.1 (c68e22c387, 2021-05-23)"
   sodipodi:docname="Baerli.svg"
   xmlns:inkscape="http://www.inkscape.org/namespaces/inkscape"
   xmlns:sodipodi="http://sodipodi.sourceforge.net/DTD/sodipodi-0.dtd"
   xmlns="http://www.w3.org/2000/svg"
   xmlns:svg="http://www.w3.org/2000/svg"><sodipodi:namedview
     id="namedview1"
     pagecolor="#ffffff"
     bordercolor="#666666"
     borderopacity="1.0"
     inkscape:showpageshadow="2"
     inkscape:pageopacity="0.0"
     inkscape:pagecheckerboard="0"
     inkscape:deskcolor="#d1d1d1"
     inkscape:document-units="mm"
     inkscape:zoom="1.3879489"
     inkscape:cx="38.906331"
     inkscape:cy="249.64896"
     inkscape:window-width="1920"
     inkscape:window-height="1017"
     inkscape:window-x="-8"
     inkscape:window-y="-8"
     inkscape:window-maximized="1"
     inkscape:current-layer="g882"
     inkscape:pageshadow="2"
     showgrid="false"
     borderlayer="true"
     showguides="false"
     inkscape:snap-global="false"><inkscape:grid
       spacingx="2.54"
       spacingy="2.54"
       empspacing="1"
       type="xygrid"
       units="mm"
       id="grid862"
       originx="0"
       originy="0"
       visible="false" /></sodipodi:namedview><defs
     id="defs1" /><g
     inkscape:label="Ebene 1"
     inkscape:groupmode="layer"
     id="layer1" /><g
     inkscape:label="[fixed] BG"
     inkscape:groupmode="layer"
     sodipodi:insensitive="true"
     id="g880"><rect
       x="0"
       y="0"
       width="110.0"
       height="110.0"
       style="fill:#FFFFFF;fill-opacity:1;stroke:none"
       id="rect878" /></g><g
     inkscape:label="Edge.Cuts"
     inkscape:groupmode="layer"
     id="g882"
     style="display:inline"><path
       id="path27"
       style="fill:none;stroke:#020202;stroke-width:0.226668;stroke-dasharray:none;stroke-opacity:1"
       d="M 63.6621 5.63281 L 63.2288 5.68558 L 62.8028 5.76776 L 62.3844 5.87711 L 61.9735 6.0114 L 61.5706 6.16842 L 61.1756 6.34593 L 60.7888 6.5417 L 60.4105 6.75351 L 60.123 6.89198 L 59.8468 7.0462 L 59.5814 7.21501 L 59.326 7.39724 L 58.8427 7.79727 L 58.3919 8.23693 L 57.9682 8.70687 L 57.5666 9.19771 L 56.8084 10.2047 L 56.564 10.5778 L 56.332 10.9583 L 55.8926 11.7344 L 54.6669 11.5898 L 53.4413 11.4454 L 52.8275 11.3913 L 52.2126 11.3588 L 51.5963 11.3551 L 50.9781 11.3875 L 49.6167 11.3773 L 48.2513 11.3907 L 46.886 11.4397 L 45.5247 11.5365 L 44.8468 11.6066 L 44.1715 11.6931 L 43.4992 11.7976 L 42.8304 11.9216 L 42.1656 12.0666 L 41.5053 12.2342 L 40.8501 12.4257 L 40.2003 12.6428 L 38.9907 13.0194 L 37.7948 13.4436 L 36.6193 13.9189 L 36.0412 14.1768 L 35.4706 14.4488 L 35.0217 14.7117 L 34.7848 14.8361 L 34.5432 14.9353 L 34.2994 14.994 L 34.1775 15.0034 L 34.056 14.997 L 33.9352 14.9728 L 33.8155 14.9289 L 33.6972 14.8634 L 33.5807 14.7745 L 32.7278 14.3767 L 31.8566 14.0066 L 30.9687 13.6753 L 30.0655 13.3939 L 29.6088 13.2754 L 29.1488 13.1735 L 28.6858 13.0897 L 28.2199 13.0254 L 27.7514 12.9819 L 27.2805 12.9606 L 26.8073 12.9629 L 26.332 12.9902 L 25.8742 12.9747 L 25.4205 12.9928 L 24.9717 13.0428 L 24.5286 13.1232 L 24.0918 13.2323 L 23.6621 13.3685 L 23.2403 13.53 L 22.827 13.7153 L 22.423 13.9226 L 22.029 14.1504 L 21.6457 14.3969 L 21.2739 14.6606 L 20.9143 14.9397 L 20.5676 15.2327 L 20.2346 15.5378 L 19.916 15.8535 L 19.5447 16.2885 L 19.1861 16.7334 L 18.8424 17.189 L 18.5154 17.6561 L 18.2071 18.1352 L 17.9194 18.6272 L 17.6544 19.1328 L 17.4141 19.6527 L 17.1761 20.2201 L 16.9829 20.8019 L 16.8258 21.395 L 16.6964 21.9965 L 16.4862 23.2123 L 16.2839 24.4248 L 16.1886 24.9293 L 16.1193 25.4363 L 16.0752 25.945 L 16.0557 26.4547 L 16.0601 26.9647 L 16.0875 27.474 L 16.1374 27.9819 L 16.2089 28.4876 L 16.3014 28.9903 L 16.4142 29.4892 L 16.5466 29.9835 L 16.6978 30.4725 L 16.8672 30.9553 L 17.054 31.4312 L 17.2574 31.8993 L 17.4769 32.3589 L 17.7012 32.692 L 17.9393 33.0157 L 18.1907 33.3294 L 18.4551 33.6326 L 18.7318 33.9245 L 19.0205 34.2046 L 19.3207 34.4723 L 19.6318 34.7268 L 19.9535 34.9677 L 20.2852 35.1942 L 20.6265 35.4058 L 20.9768 35.6019 L 21.3358 35.7818 L 21.7029 35.9449 L 22.0777 36.0905 L 22.4597 36.2182 L 22.7515 36.3433 L 22.8785 36.4018 L 22.9818 36.4686 L 23.0532 36.5518 L 23.0846 36.6597 L 23.0676 36.8005 L 22.9941 36.9824 L 22.9508 37.7088 L 22.932 38.4459 L 22.9487 39.1864 L 23.0117 39.9225 L 23.0639 40.2866 L 23.1318 40.6469 L 23.2167 41.0022 L 23.32 41.3518 L 23.443 41.6947 L 23.587 42.0298 L 23.7535 42.3564 L 23.9438 42.6734 L 24.1233 42.8619 L 24.3281 43.0256 L 24.5534 43.1612 L 24.7947 43.2656 L 25.0471 43.3356 L 25.306 43.3682 L 25.5666 43.3603 L 25.8242 43.3086 L 25.8892 44.1599 L 25.998 45.0097 L 26.1525 45.8537 L 26.3541 46.6876 L 26.6046 47.5072 L 26.9056 48.308 L 27.2587 49.0859 L 27.4553 49.4649 L 27.6656 49.8366 L 27.8465 50.0133 L 28.0508 50.1593 L 28.2739 50.2746 L 28.5112 50.3589 L 28.758 50.4121 L 29.0098 50.4339 L 29.2619 50.4242 L 29.5098 50.3828 L 29.8846 51.0571 L 30.2777 51.7214 L 30.4903 52.0423 L 30.7185 52.3517 L 30.966 52.6466 L 31.2363 52.9238 L 30.7267 52.9105 L 30.215 52.9165 L 29.7047 52.9479 L 29.1992 53.0109 L 28.7021 53.1118 L 28.2169 53.2566 L 27.747 53.4517 L 27.5189 53.5699 L 27.296 53.7031 L 26.8521 53.9447 L 26.4199 54.2058 L 26.0001 54.4859 L 25.5935 54.7843 L 25.2006 55.1003 L 24.8222 55.4332 L 24.4589 55.7824 L 24.1115 56.1473 L 23.7806 56.5271 L 23.4669 56.9213 L 23.171 57.3291 L 22.8938 57.75 L 22.6357 58.1832 L 22.3976 58.6282 L 22.1801 59.0841 L 21.9839 59.5505 L 21.7606 60.0025 L 21.5668 60.464 L 21.4007 60.9339 L 21.2608 61.4115 L 21.1454 61.8956 L 21.0531 62.3853 L 20.982 62.8797 L 20.9307 63.3778 L 20.8975 63.8787 L 20.8808 64.3812 L 20.8904 65.3878 L 20.9466 66.3898 L 21.0366 67.3795 L 21.2042 68.0715 L 21.292 68.4212 L 21.3932 68.7665 L 21.5161 69.1021 L 21.6687 69.4227 L 21.8592 69.7231 L 22.0957 69.998 L 21.7698 70.1491 L 21.4379 70.2625 L 21.1007 70.3435 L 20.7592 70.3975 L 20.4142 70.4298 L 20.0664 70.4458 L 19.3661 70.4502 L 18.665 70.4535 L 18.3162 70.4681 L 17.9696 70.4985 L 17.6262 70.55 L 17.2868 70.628 L 16.9521 70.7378 L 16.623 70.8848 L 16.3097 70.9942 L 16.008 71.1243 L 15.7175 71.2733 L 15.4374 71.4397 L 15.1671 71.6219 L 14.906 71.8183 L 14.4084 72.2472 L 13.9394 72.7136 L 13.4938 73.2046 L 12.6518 74.2093 L 12.2776 74.6154 L 11.8714 74.9873 L 11.4452 75.338 L 11.0113 75.6801 L 10.5817 76.0268 L 10.1684 76.3908 L 9.78358 76.785 L 9.60564 76.9975 L 9.43934 77.2224 L 9.12355 77.6389 L 8.84666 78.0735 L 8.60688 78.5243 L 8.40244 78.9895 L 8.23156 79.4675 L 8.09247 79.9563 L 7.98337 80.4543 L 7.90249 80.9596 L 7.84806 81.4705 L 7.81829 81.9852 L 7.8114 82.5018 L 7.82562 83.0187 L 7.85917 83.5339 L 7.91025 84.0459 L 7.97711 84.5527 L 8.05795 85.0526 L 8.152 85.6822 L 8.21915 86.3174 L 8.32605 87.5934 L 8.39243 88.2289 L 8.48519 88.8592 L 8.61764 89.4815 L 8.70292 89.7889 L 8.80312 90.0932 L 9.02368 90.8234 L 9.28812 91.5378 L 9.59145 92.2371 L 9.92868 92.9216 L 10.2948 93.592 L 10.6848 94.2487 L 11.0937 94.8923 L 11.5165 95.5232 L 12.407 96.5939 L 12.8684 97.1156 L 13.3433 97.6244 L 13.8336 98.1175 L 14.3414 98.5922 L 14.8688 99.0457 L 15.4177 99.4751 L 16.2161 100.137 L 17.0351 100.775 L 17.8695 101.393 L 18.7141 101.993 L 19.7421 102.648 L 20.7856 103.281 L 21.8466 103.884 L 22.927 104.451 L 24.0284 104.975 L 24.5877 105.218 L 25.1529 105.448 L 25.7244 105.663 L 26.3023 105.863 L 26.887 106.048 L 27.4785 106.215 L 28.4455 106.4 L 29.4145 106.584 L 29.9015 106.654 L 30.3909 106.701 L 30.8835 106.715 L 31.3799 106.688 L 31.9765 106.668 L 32.5675 106.612 L 33.1521 106.521 L 33.7293 106.396 L 34.2983 106.24 L 34.8582 106.053 L 35.4081 105.837 L 35.9473 105.593 L 36.4747 105.324 L 36.9895 105.029 L 37.491 104.711 L 37.9781 104.371 L 38.45 104.011 L 38.9059 103.632 L 39.3448 103.235 L 39.766 102.822 L 40.1771 102.459 L 40.6061 102.119 L 41.0486 101.797 L 41.5004 101.488 L 42.4142 100.881 L 42.8677 100.572 L 43.313 100.253 L 43.922 99.8708 L 44.5182 99.4707 L 45.1116 99.0679 L 45.7122 98.6776 L 45.9835 98.7587 L 46.2559 98.8657 L 46.806 99.123 L 47.3666 99.3816 L 47.652 99.4902 L 47.9415 99.5736 L 48.5772 99.8086 L 49.218 100.029 L 49.8636 100.233 L 50.5138 100.422 L 51.1682 100.595 L 51.8266 100.751 L 52.4888 100.89 L 53.1543 101.012 L 53.9086 101.14 L 54.6643 101.282 L 55.0419 101.341 L 55.4189 101.382 L 55.795 101.4 L 56.1697 101.387 L 57.5774 101.414 L 58.9883 101.417 L 59.693 101.402 L 60.3959 101.368 L 61.0963 101.315 L 61.7933 101.236 L 62.2479 101.129 L 62.7076 101.046 L 63.6339 100.915 L 64.0964 100.847 L 64.5556 100.765 L 65.0097 100.658 L 65.4564 100.516 L 66.2433 100.329 L 67.0191 100.1 L 67.7857 99.84 L 68.5449 99.5605 L 68.6325 99.8927 L 68.735 100.219 L 68.9815 100.854 L 69.2776 101.466 L 69.6165 102.056 L 69.9914 102.627 L 70.3954 103.178 L 70.8216 103.711 L 71.2632 104.228 L 71.6883 104.616 L 72.1262 104.99 L 72.5762 105.351 L 73.0374 105.698 L 73.5093 106.03 L 73.9909 106.348 L 74.4815 106.65 L 74.9805 106.936 L 75.6397 107.216 L 76.3059 107.494 L 76.6426 107.62 L 76.9823 107.732 L 77.3256 107.824 L 77.6727 107.892 L 79.482 107.931 L 80.391 107.941 L 81.2979 107.924 L 82.1993 107.861 L 82.6468 107.808 L 83.0915 107.738 L 83.5331 107.648 L 83.971 107.537 L 84.4048 107.402 L 84.834 107.242 L 85.5327 106.994 L 86.2255 106.729 L 86.9119 106.446 L 87.5913 106.146 L 88.2629 105.829 L 88.9261 105.495 L 89.5804 105.146 L 90.2251 104.78 L 91.7308 103.819 L 93.217 102.825 L 93.946 102.308 L 94.6619 101.774 L 95.362 101.221 L 96.0436 100.645 L 96.7753 99.9502 L 97.4978 99.2399 L 98.2018 98.5097 L 98.8781 97.7549 L 99.5172 96.971 L 99.82 96.5667 L 100.11 96.1534 L 100.386 95.7305 L 100.647 95.2975 L 100.892 94.8537 L 101.119 94.3986 L 101.393 93.9402 L 101.632 93.4667 L 101.84 92.9804 L 102.021 92.4835 L 102.18 91.978 L 102.321 91.4662 L 102.564 90.4321 L 102.643 90.1507 L 102.705 89.8665 L 102.785 89.2917 L 102.825 88.7108 L 102.846 88.1269 L 102.867 87.5434 L 102.91 86.9633 L 102.995 86.3898 L 103.06 86.1065 L 103.143 85.826 L 103.205 84.9846 L 103.239 84.1328 L 103.231 83.2787 L 103.208 82.8533 L 103.168 82.4303 L 103.111 82.0108 L 103.035 81.5958 L 102.937 81.1864 L 102.817 80.7834 L 102.672 80.388 L 102.5 80.0011 L 102.3 79.6238 L 102.071 79.2571 L 101.774 78.7632 L 101.436 78.3028 L 101.062 77.8731 L 100.657 77.471 L 100.227 77.0936 L 99.777 76.7382 L 99.3134 76.4018 L 98.8414 76.0815 L 98.3127 75.515 L 97.8029 74.9315 L 97.3108 74.3309 L 96.835 73.7128 L 96.4698 73.3535 L 96.073 73.0301 L 95.6484 72.7445 L 95.1996 72.4984 L 94.7304 72.2935 L 94.2444 72.1316 L 93.7453 72.0143 L 93.2369 71.9435 L 93.0219 71.8769 L 92.8049 71.8255 L 92.3663 71.761 L 91.9231 71.7346 L 91.4775 71.731 L 90.587 71.731 L 90.1462 71.7039 L 89.7113 71.6384 L 89.0874 71.379 L 88.447 71.1686 L 87.7935 71.0084 L 87.1303 70.8999 L 86.461 70.8443 L 85.7889 70.843 L 85.1175 70.8973 L 84.4502 71.0086 L 84.2853 71.0573 L 84.1227 71.082 L 83.9621 71.0853 L 83.8032 71.0698 L 83.4896 70.9921 L 83.1797 70.8691 L 83.5787 69.8309 L 83.9633 68.7832 L 84.3086 67.7258 L 84.4588 67.1933 L 84.5898 66.6582 L 84.8734 66.7231 L 85.1591 66.7685 L 85.4464 66.7955 L 85.7347 66.805 L 86.0235 66.798 L 86.3124 66.7755 L 86.8877 66.6881 L 87.4565 66.5507 L 88.0144 66.3712 L 88.557 66.1576 L 89.0801 65.918 L 89.6289 65.6056 L 90.1509 65.2534 L 90.6475 64.8659 L 91.12 64.448 L 91.5696 64.0043 L 91.9978 63.5395 L 92.4058 63.0583 L 92.795 62.5655 L 93.1385 61.9519 L 93.4534 61.3188 L 93.7307 60.6682 L 93.9619 60.0018 L 94.0573 59.6634 L 94.1379 59.3216 L 94.2026 58.9769 L 94.2502 58.6295 L 94.2796 58.2795 L 94.2898 57.9272 L 94.2797 57.5729 L 94.248 57.2168 L 94.2695 56.0345 L 94.2592 55.4426 L 94.2252 54.853 L 94.1602 54.2678 L 94.0569 53.6888 L 93.9082 53.1183 L 93.7066 52.5582 L 93.4748 51.9682 L 93.2268 51.3834 L 92.9593 50.8071 L 92.6695 50.2425 L 92.3542 49.693 L 92.0102 49.1618 L 91.6346 48.6523 L 91.2243 48.1677 L 90.886 47.7874 L 90.5259 47.4289 L 90.147 47.0902 L 89.7523 46.769 L 89.3448 46.4631 L 88.9277 46.1703 L 88.0762 45.6152 L 87.6675 45.4011 L 87.2467 45.216 L 86.8155 45.0595 L 86.3755 44.9314 L 85.9285 44.8315 L 85.4759 44.7596 L 85.0196 44.7153 L 84.5612 44.6984 L 84.1023 44.7088 L 83.6446 44.746 L 83.1898 44.8099 L 82.7395 44.9003 L 82.2953 45.0168 L 81.859 45.1593 L 81.4322 45.3274 L 81.0166 45.5209 L 80.5019 45.7356 L 80.0016 45.9805 L 79.516 46.2537 L 79.0459 46.5531 L 78.5918 46.8768 L 78.1544 47.223 L 77.7343 47.5895 L 77.332 47.9746 L 76.6219 47.7522 L 75.9045 47.5531 L 75.1788 47.3903 L 74.4434 47.2773 L 74.777 46.6481 L 75.0791 46.0031 L 75.3511 45.3446 L 75.5946 44.6746 L 75.811 43.9954 L 76.0017 43.309 L 76.1683 42.6178 L 76.3123 41.9237 L 76.3364 41.7805 L 76.3372 41.6206 L 76.3298 41.305 L 76.352 41.1761 L 76.3763 41.1248 L 76.4118 41.0845 L 76.4606 41.0568 L 76.5244 41.0434 L 76.6053 41.046 L 76.7051 41.0664 L 76.9269 41.0305 L 77.1385 40.9715 L 77.3395 40.8912 L 77.5294 40.791 L 77.7078 40.6726 L 77.8743 40.5376 L 78.0284 40.3876 L 78.1697 40.224 L 78.2977 40.0486 L 78.412 39.863 L 78.5122 39.6686 L 78.5978 39.4671 L 78.6683 39.2602 L 78.7234 39.0493 L 78.7626 38.8361 L 78.7854 38.6221 L 78.8752 38.472 L 78.9496 38.3177 L 79.0579 37.9984 L 79.1215 37.6675 L 79.1518 37.3282 L 79.1567 36.6382 L 79.1538 36.294 L 79.1622 35.9549 L 79.1132 35.3892 L 79.0332 34.824 L 78.9195 34.2636 L 78.7695 33.7123 L 78.5804 33.1745 L 78.3495 32.6545 L 78.0743 32.1568 L 77.752 31.6855 L 77.9215 31.5146 L 78.0611 31.3309 L 78.1727 31.1362 L 78.2581 30.9318 L 78.3191 30.7194 L 78.3574 30.5005 L 78.3749 30.2766 L 78.3735 30.0492 L 78.3548 29.8198 L 78.3208 29.59 L 78.2138 29.1354 L 78.067 28.6975 L 77.8949 28.2885 L 77.6428 27.6071 L 77.3472 26.9433 L 77.0096 26.2997 L 76.6315 25.6789 L 76.2147 25.0834 L 75.7608 24.5158 L 75.2714 23.9787 L 74.748 23.4746 L 75.1838 22.8483 L 75.6038 22.2077 L 76.0024 21.5524 L 76.3742 20.882 L 76.7136 20.1961 L 77.0151 19.4943 L 77.2732 18.776 L 77.4824 18.041 L 77.5883 17.2304 L 77.6921 16.4191 L 77.7184 16.0138 L 77.7144 15.6089 L 77.6702 15.2048 L 77.5759 14.8017 L 77.5717 14.5189 L 77.5493 14.2394 L 77.5095 13.9632 L 77.4533 13.6906 L 77.3817 13.4219 L 77.2956 13.1572 L 77.0837 12.6406 L 76.8252 12.1425 L 76.5278 11.6647 L 76.199 11.2088 L 75.8465 10.7764 L 75.254 10.0718 L 74.6185 9.40543 L 73.9431 8.77914 L 73.2308 8.19491 L 72.4847 7.65467 L 71.7077 7.16036 L 70.9031 6.71391 L 70.0738 6.31728 L 69.691 6.18105 L 69.3039 6.06328 L 68.9129 5.96271 L 68.5185 5.87803 L 67.7209 5.75122 L 66.9144 5.67252 L 66.102 5.63165 L 65.287 5.61828 L 63.6621 5.63281 L 63.6621 5.63281" /></g><g
     inkscape:label="F.SilkS"
     inkscape:groupmode="layer"
     id="g884"
     style="display:inline"><path
       id="path4"
       style="opacity:0.98062;fill:#00ffff;fill-opacity:1;stroke:#020202;stroke-width:1.211;stroke-linecap:round;stroke-linejoin:round;stroke-miterlimit:4;stroke-dasharray:none;stroke-opacity:1"
       d="m 87.116255,72.145916 0.190686,0.0036 0.206189,0.0093 0.22841,0.01292 0.204639,0.03721 0.166398,0.05685 0.111621,0.07286 0.09147,0.06976 0.114722,0.05736 0.12454,0.03876 0.118339,0.01395 0.120923,0.01499 0.129708,0.03979 0.12299,0.05891 0.101286,0.07235 0.07855,0.06098 0.109554,0.04806 0.179317,0.03721 0.288354,0.02946 1.057817,0.04858 1.959053,0.05374 0.267684,0.01964 0.232545,0.04134 0.182934,0.05994 0.117822,0.07493 0.09457,0.06976 0.12454,0.05736 0.137976,0.03824 0.135393,0.01447 0.12609,0.01344 0.113171,0.03617 0.08785,0.05374 0.04961,0.06563 0.04806,0.07131 0.08268,0.06924 0.105937,0.05943 0.117305,0.04186 0.1757,0.09147 0.266651,0.196887 0.319877,0.272335 0.33848,0.319361 0.459921,0.468704 0.344165,0.382923 0.294555,0.377754 0.31316,0.451651 0.185001,0.246499 0.214457,0.241845 0.192237,0.184484 0.07183,0.05426 0.04702,0.01912 0.08992,0.03669 0.155029,0.09767 0.417545,0.309541 0.412378,0.3452 0.148312,0.141594 0.08113,0.09818 0.05116,0.06666 0.0677,0.05374 0.07597,0.03669 0.07493,0.01344 0.0677,0.01447 0.05529,0.03876 0.03772,0.05685 0.01344,0.06976 0.01395,0.07028 0.03876,0.05685 0.05736,0.03876 0.06976,0.01447 0.06976,0.01188 0.0574,0.03307 0.0388,0.04857 0.0139,0.05943 0.0165,0.07493 0.0455,0.08992 0.0667,0.09457 0.0817,0.08682 0.22117,0.228925 0.20257,0.251148 0.14831,0.225309 0.0424,0.08785 0.015,0.06253 0.0191,0.06511 0.0517,0.09973 0.16899,0.246496 0.0935,0.146244 0.076,0.172601 0.0517,0.177249 0.0191,0.161229 0.014,0.150898 0.0388,0.150378 0.0574,0.132808 0.0698,0.09767 0.0439,0.08527 0.0388,0.154512 0.0605,0.479041 0.0377,0.637686 0.0145,0.717785 -0.009,0.71727 -0.0326,0.637688 -0.0563,0.478522 -0.0372,0.153996 -0.0434,0.08475 -0.0413,0.06718 -0.0372,0.115755 -0.0667,0.391708 -0.0558,0.623734 -0.0496,0.879533 -0.0496,0.890902 -0.0568,0.626835 -0.0677,0.393774 -0.0393,0.119891 -0.0434,0.07286 -0.0656,0.111103 -0.0543,0.161748 -0.0362,0.191201 -0.0134,0.198956 -0.0129,0.202571 -0.0346,0.201538 -0.0522,0.176734 -0.063,0.129191 -0.0703,0.128674 -0.0698,0.1757 -0.0625,0.199472 -0.046,0.199988 -0.047,0.194818 -0.0636,0.18552 -0.0729,0.154512 -0.0734,0.103351 -0.0667,0.08372 -0.0543,0.100769 -0.0367,0.105937 -0.0139,0.09767 -0.014,0.0956 -0.0388,0.101285 -0.0568,0.09405 -0.07028,0.07493 -0.06976,0.06977 -0.05736,0.07958 -0.03824,0.0801 -0.01447,0.07028 -0.01344,0.06976 -0.03721,0.07855 -0.05478,0.07803 -0.06666,0.06718 -0.07286,0.0832 -0.07131,0.120923 -0.0615,0.142626 -0.04392,0.147794 -0.04341,0.136427 -0.06098,0.11162 -0.0708,0.07545 -0.07235,0.02791 -0.06615,0.0155 -0.05426,0.04186 -0.03669,0.06253 -0.01344,0.07596 -0.02067,0.127125 -0.05633,0.152963 -0.0832,0.165881 -0.101286,0.165364 -0.11007,0.151929 -0.110588,0.12454 -0.102319,0.08475 -0.08475,0.03101 -0.06614,0.01912 -0.05426,0.05168 -0.03617,0.07596 -0.01344,0.09302 -0.01447,0.09405 -0.03824,0.07596 -0.05736,0.05116 -0.07028,0.01912 -0.06976,0.01034 -0.05684,0.02842 -0.03876,0.04237 -0.01447,0.05168 -0.02687,0.09198 -0.07545,0.13281 -0.274402,0.361217 -0.393774,0.446485 -0.463021,0.480077 -0.480074,0.4625 -0.446485,0.39378 -0.361218,0.2744 -0.132809,0.0755 -0.09198,0.0269 -0.05168,0.0145 -0.04186,0.0382 -0.02842,0.0574 -0.01034,0.0698 -0.01447,0.0698 -0.03876,0.0574 -0.05684,0.0388 -0.06976,0.0145 -0.07028,0.01 -0.05684,0.0264 -0.03876,0.0393 -0.01447,0.0481 -0.01654,0.0548 -0.04496,0.0563 -0.06666,0.0522 -0.08165,0.0408 -0.111105,0.0625 -0.146761,0.11007 -0.326078,0.30334 -0.157096,0.15348 -0.152446,0.12609 -0.130224,0.0853 -0.08992,0.031 -0.125057,0.0326 -0.164331,0.10645 -0.221176,0.19481 -0.295589,0.29559 -0.08992,0.0822 -0.09457,0.0661 -0.08785,0.045 -0.0708,0.0171 -0.05994,0.014 -0.05943,0.0388 -0.05219,0.0574 -0.03772,0.0698 -0.04547,0.0703 -0.07286,0.0568 -0.09043,0.0388 -0.09767,0.0139 -0.100252,0.0124 -0.09612,0.032 -0.08165,0.0476 -0.05581,0.0584 -0.07958,0.0961 -0.11834,0.10956 -0.306441,0.22634 -0.316259,0.1819 -0.131775,0.0548 -0.09819,0.0202 -0.07183,0.01 -0.05891,0.0274 -0.03927,0.0408 -0.01499,0.0481 -0.03049,0.063 -0.08372,0.078 -0.124023,0.0827 -0.151412,0.078 -0.569991,0.28525 -0.179834,0.0977 -0.179834,0.0801 -0.145728,0.0641 -0.189136,0.1049 -0.642855,0.41031 -0.266133,0.1478 -0.113172,0.045 -0.07958,0.0171 -0.06821,0.0139 -0.0832,0.0382 -0.168465,0.12765 -0.09147,0.0692 -0.116788,0.0579 -0.126608,0.0382 -0.121439,0.014 -0.118856,0.0139 -0.118339,0.0367 -0.104386,0.0543 -0.07648,0.0661 -0.09198,0.0718 -0.14521,0.0718 -0.178284,0.061 -0.192236,0.0439 -0.19172,0.0444 -0.1788,0.062 -0.145211,0.0708 -0.09147,0.0729 -0.08785,0.0661 -0.133842,0.0538 -0.161748,0.0372 -0.172082,0.0129 -0.174666,0.014 -0.170533,0.0393 -0.145727,0.0568 -0.102836,0.0703 -0.07545,0.061 -0.09302,0.0506 -0.111621,0.0403 -0.129707,0.0289 -0.311609,0.0269 -0.381889,-0.016 -0.134359,0.008 -0.15813,0.0377 -0.161747,0.063 -0.145728,0.0822 -0.105419,0.062 -0.12299,0.0491 -0.153479,0.0377 -0.196888,0.0269 -0.578259,0.032 -0.912089,0.008 -0.779797,-0.008 -0.578776,-0.0269 -0.379822,-0.0439 -0.116272,-0.0289 -0.0677,-0.0331 -0.115755,-0.062 -0.188619,-0.063 -0.235128,-0.0568 -0.256315,-0.0439 -0.253215,-0.0455 -0.227893,-0.061 -0.177767,-0.0708 -0.102319,-0.0698 -0.07493,-0.0641 -0.102836,-0.0532 -0.117305,-0.0351 -0.118339,-0.0129 -0.12144,-0.0139 -0.125057,-0.0367 -0.114722,-0.0553 -0.0894,-0.0677 -0.09302,-0.0744 -0.125057,-0.0729 -0.140559,-0.063 -0.139527,-0.045 -0.130224,-0.0439 -0.115756,-0.0589 -0.08837,-0.0661 -0.04858,-0.0662 -0.04392,-0.0646 -0.07648,-0.0631 -0.09767,-0.0553 -0.10852,-0.0377 -0.131775,-0.0553 -0.160714,-0.0977 -0.170015,-0.12919 -0.158647,-0.14521 -0.148828,-0.14004 -0.144694,-0.11576 -0.123507,-0.078 -0.0863,-0.03 -0.05788,-0.015 -0.04806,-0.0398 -0.03204,-0.0584 -0.01189,-0.0698 -0.01188,-0.0703 -0.03204,-0.0579 -0.04754,-0.0398 -0.05839,-0.016 -0.09095,-0.0341 -0.136426,-0.0909 -0.163814,-0.13281 -0.251664,-0.19637 c -0.766306,-0.41925 -1.462626,-1.2604 -1.980758,-2.47323 -0.513502,-1.04607 -0.527865,-3.140469 -0.19172,-5.184179 l 1.659847,-4.872053 c 2.061699,-4.271579 3.555513,-8.997715 6.70295,-13.117547 1.412668,-2.175148 2.733003,-4.352663 8.650118,-5.573302 z"
       sodipodi:nodetypes="cccccccccccccccccccccccccccccccccccccccccccccccccccccccccccccccccccccccccccccccccccccccccccccccccccccccccccccccccccccccccccccccccccccccccccccccccccccccccccccccccccccccccccccccccccccccccccccccccccccccccccccccccccccccccccccccccccccccccccccccccccccccccccccccccccccccccccccccccccccccccccccccccccccccccccccccccccccccccccccccccccccccccccccccccccccccccccccccccc" /><path
       id="path4-0"
       style="display:inline;opacity:0.98062;fill:#00ffff;fill-opacity:1;fill-rule:evenodd;stroke:#020202;stroke-width:1.211;stroke-linecap:round;stroke-linejoin:round;stroke-miterlimit:4;stroke-dasharray:none;stroke-opacity:1"
       d="m 23.7278,71.012774 -0.190686,0.004 -0.206189,0.009 -0.22841,0.0129 -0.204639,0.0372 -0.166398,0.0568 -0.111621,0.0729 -0.09147,0.0698 -0.114722,0.0574 -0.12454,0.0388 -0.118339,0.0139 -0.120923,0.015 -0.129708,0.0398 -0.12299,0.0589 -0.101286,0.0724 -0.07855,0.061 -0.109554,0.0481 -0.179317,0.0372 -0.288354,0.0295 -1.057817,0.0486 -1.959053,0.0537 -0.267684,0.0196 -0.232545,0.0413 -0.182934,0.0599 -0.117822,0.0749 -0.09457,0.0698 -0.12454,0.0574 -0.137976,0.0382 -0.135393,0.0145 -0.12609,0.0134 -0.113171,0.0362 -0.08785,0.0537 -0.04961,0.0656 -0.04806,0.0713 -0.08268,0.0692 -0.105937,0.0594 -0.117305,0.0419 -0.1757,0.0915 -0.266651,0.19689 -0.319877,0.27234 -0.33848,0.31936 -0.459921,0.4687 -0.344165,0.38292 -0.294555,0.37776 -0.31316,0.45165 -0.185001,0.2465 -0.214457,0.24184 -0.192237,0.18449 -0.07183,0.0543 -0.04702,0.0191 -0.08992,0.0367 -0.155029,0.0977 -0.417545,0.30954 -0.412378,0.3452 -0.148312,0.14159 -0.08113,0.0982 -0.05116,0.0667 -0.0677,0.0537 -0.07597,0.0367 -0.07493,0.0134 -0.0677,0.0145 -0.05529,0.0388 -0.03772,0.0568 -0.01344,0.0698 -0.01395,0.0703 -0.03876,0.0568 -0.05736,0.0388 -0.06976,0.0145 -0.06976,0.0119 -0.05736,0.0331 -0.03876,0.0486 -0.01395,0.0594 -0.01654,0.0749 -0.04547,0.0899 -0.06666,0.0946 -0.08165,0.0868 -0.221175,0.22893 -0.202572,0.25115 -0.1483111,0.2253 -0.04237,0.0879 -0.01499,0.0625 -0.01912,0.0651 -0.05168,0.0997 -0.168982,0.2465 -0.09353,0.14624 -0.07596,0.1726 -0.05168,0.17725 -0.01912,0.16123 -0.01395,0.1509 -0.03876,0.15038 -0.05736,0.13281 -0.06976,0.0977 -0.04393,0.0853 -0.03876,0.15451 -0.06046,0.47904 -0.03772,0.63769 -0.01447,0.71778 0.0088,0.71727 0.03256,0.63769 0.05633,0.47852 0.03721,0.154 0.04341,0.0847 0.04134,0.0672 0.03721,0.11575 0.06666,0.39171 0.05581,0.62373 0.04961,0.87954 0.04961,0.8909 0.05684,0.62683 0.0677,0.39378 0.03927,0.11989 0.04341,0.0729 0.06563,0.1111 0.05426,0.16175 0.03617,0.1912 0.01344,0.19896 0.01292,0.20257 0.03462,0.20154 0.05219,0.17673 0.06305,0.12919 0.07028,0.12867 0.06976,0.1757 0.06253,0.19948 0.04599,0.19998 0.04703,0.19482 0.06356,0.18552 0.07286,0.15451 0.07338,0.10336 0.06666,0.0837 0.05426,0.10076 0.03669,0.10594 0.01395,0.0977 0.01395,0.0956 0.03876,0.10129 0.05684,0.094 0.07028,0.0749 0.06976,0.0698 0.05736,0.0796 0.03824,0.0801 0.01447,0.0703 0.01344,0.0698 0.03721,0.0786 0.05478,0.078 0.06666,0.0672 0.07286,0.0832 0.07131,0.12092 0.0615,0.14263 0.04392,0.14779 0.04341,0.13643 0.06098,0.11162 0.0708,0.0754 0.07235,0.0279 0.06615,0.0155 0.05426,0.0419 0.03669,0.0625 0.01344,0.076 0.02067,0.12712 0.05633,0.15297 0.0832,0.16588 0.101286,0.16536 0.11007,0.15193 0.110588,0.12454 0.102319,0.0848 0.08475,0.031 0.06614,0.0191 0.05426,0.0517 0.03617,0.076 0.01344,0.093 0.01447,0.094 0.03824,0.076 0.05736,0.0512 0.07028,0.0191 0.06976,0.0103 0.05684,0.0284 0.03876,0.0424 0.01447,0.0517 0.02687,0.092 0.07545,0.13281 0.274402,0.36122 0.393774,0.44648 0.463021,0.48008 0.480074,0.4625 0.446485,0.39378 0.361218,0.2744 0.132809,0.0755 0.09198,0.0269 0.05168,0.0145 0.04186,0.0382 0.02842,0.0574 0.01034,0.0698 0.01447,0.0698 0.03876,0.0574 0.05684,0.0388 0.06976,0.0145 0.07028,0.01 0.05684,0.0264 0.03876,0.0393 0.01447,0.0481 0.01654,0.0548 0.04496,0.0563 0.06666,0.0522 0.08165,0.0408 0.111105,0.0625 0.146761,0.11007 0.326078,0.30334 0.157096,0.15348 0.152446,0.12609 0.130224,0.0853 0.08992,0.031 0.125057,0.0326 0.164331,0.10645 0.221176,0.194806 0.295589,0.29559 0.08992,0.0822 0.09457,0.0661 0.08785,0.045 0.0708,0.0171 0.05994,0.014 0.05943,0.0388 0.05219,0.0574 0.03772,0.0698 0.04547,0.0703 0.07286,0.0568 0.09043,0.0388 0.09767,0.0139 0.100252,0.0124 0.09612,0.032 0.08165,0.0476 0.05581,0.0584 0.07958,0.0961 0.11834,0.10956 0.306441,0.22634 0.316259,0.1819 0.131775,0.0548 0.09819,0.0202 0.07183,0.01 0.05891,0.0274 0.03927,0.0408 0.01499,0.0481 0.03049,0.063 0.08372,0.078 0.124023,0.0827 0.151412,0.078 0.569991,0.28525 0.179834,0.0977 0.179834,0.0801 0.145728,0.0641 0.189136,0.1049 0.642855,0.41031 0.266133,0.1478 0.113172,0.045 0.07958,0.0171 0.06821,0.0139 0.0832,0.0382 0.168465,0.12765 0.09147,0.0692 0.116788,0.0579 0.126608,0.0382 0.121439,0.014 0.118856,0.0139 0.118339,0.0367 0.104386,0.0543 0.07648,0.0661 0.09198,0.0718 0.14521,0.0718 0.178284,0.061 0.192236,0.0439 0.19172,0.0444 0.1788,0.062 0.145211,0.0708 0.09147,0.0729 0.08785,0.0661 0.133842,0.0538 0.161748,0.0372 0.172082,0.0129 0.174666,0.014 0.170533,0.0393 0.145727,0.0568 0.102836,0.0703 0.07545,0.061 0.09302,0.0506 0.111621,0.0403 0.129707,0.0289 0.311609,0.0269 0.381889,-0.016 0.134359,0.008 0.15813,0.0377 0.161747,0.063 0.145728,0.0822 0.105419,0.062 0.12299,0.0491 0.153479,0.0377 0.196888,0.0269 0.578259,0.032 0.912089,0.008 0.779797,-0.008 0.578776,-0.0269 0.379822,-0.0439 0.116272,-0.0289 0.0677,-0.0331 0.115755,-0.062 0.188619,-0.063 0.235128,-0.0568 0.256315,-0.0439 0.253215,-0.0455 0.227893,-0.061 0.177767,-0.0708 0.102319,-0.0698 0.07493,-0.0641 0.102836,-0.0532 0.117305,-0.0351 0.118339,-0.0129 0.12144,-0.0139 0.125057,-0.0367 0.114722,-0.0553 0.0894,-0.0677 0.09302,-0.0744 0.125057,-0.0729 0.140559,-0.063 0.139527,-0.045 0.130224,-0.0439 0.115756,-0.0589 0.08837,-0.0661 0.04858,-0.0662 0.04392,-0.0646 0.07648,-0.0631 0.09767,-0.0553 0.10852,-0.0377 0.131775,-0.0553 0.160714,-0.0977 0.170015,-0.12919 0.158647,-0.14521 0.148828,-0.14004 0.144694,-0.11576 0.123507,-0.078 0.0863,-0.03 0.05788,-0.015 0.04806,-0.0398 0.03204,-0.0584 0.01189,-0.0698 0.01188,-0.0703 0.03204,-0.0579 0.04754,-0.0398 0.05839,-0.016 0.09095,-0.0341 0.136426,-0.0909 0.163814,-0.13281 0.251664,-0.19637 c 0.766306,-0.41925 1.462626,-1.2604 1.980758,-2.473226 0.513502,-1.04607 0.527865,-3.14047 0.19172,-5.18418 l -1.659847,-4.87205 c -2.061699,-4.27158 -3.555512,-8.99772 -6.702949,-13.11755 -1.412668,-2.17515 -2.733003,-4.35266 -8.650119,-5.5733 z"
       sodipodi:nodetypes="cccccccccccccccccccccccccccccccccccccccccccccccccccccccccccccccccccccccccccccccccccccccccccccccccccccccccccccccccccccccccccccccccccccccccccccccccccccccccccccccccccccccccccccccccccccccccccccccccccccccccccccccccccccccccccccccccccccccccccccccccccccccccccccccccccccccccccccccccccccccccccccccccccccccccccccccccccccccccccccccccccccccccccccccccccccccccccccccccc" /><ellipse
       style="opacity:0.98062;fill:#ffd5d5;fill-opacity:1;stroke:#020202;stroke-width:0.211426;stroke-linecap:round;stroke-linejoin:round;stroke-dasharray:none;stroke-opacity:1"
       id="path4-2"
       transform="matrix(0.8360042,0.54872304,-0.54426144,0.83891566,0,0)"
       ry="13.535072"
       rx="8.8362494"
       cy="27.607141"
       cx="121.06989" /><ellipse
       style="display:inline;opacity:0.98062;fill:#ffd5d5;fill-opacity:1;fill-rule:evenodd;stroke:#020202;stroke-width:0.211426;stroke-linecap:round;stroke-linejoin:round;stroke-dasharray:none;stroke-opacity:1"
       id="path4-2-3"
       transform="matrix(0.79054289,-0.61240667,0.6166096,0.78726908,0,0)"
       ry="13.535072"
       rx="8.8362494"
       cy="85.486916"
       cx="-34.848225" /><path
       style="opacity:0.98062;fill:#ffd5d5;fill-opacity:1;stroke:#020202;stroke-width:0;stroke-linecap:round;stroke-linejoin:round;stroke-miterlimit:4;stroke-dasharray:none;stroke-opacity:1"
       d="m 25.649684,70.983972 c -0.632658,-1.383147 -1.541196,-1.567053 -1.850785,-2.693212 -1.604733,-5.837389 1.200821,-9.99639 4.448291,-12.276053 0.692307,-0.485987 1.211701,-0.717686 2.01439,-0.789833 2.822793,-0.467925 5.279545,0.452522 6.949365,2.547397 1.690062,1.505306 1.214693,3.196282 1.035894,4.632001 -0.03461,0.277923 -0.09567,0.598237 -0.38351,0.859612 -0.536679,0.487338 -0.35751,0.177391 -0.980971,0.178714 l -3.47686,-1.984164 -0.481046,0.749621 c 1.260542,0.524521 2.278437,1.287784 3.534621,2.134795 0.493477,0.294576 0.775143,0.701545 0.897406,1.145767 0.541702,1.968171 -0.434589,3.589277 -3.054423,4.675161 -1.337946,-0.794758 -2.05221,-1.838988 -3.009113,-2.786164 l -0.446996,0.604069 2.424923,2.886812 c 0.362117,0.762643 -0.05596,1.668317 -0.914508,2.143747 -0.240462,0.133158 -0.515477,-0.06842 -0.81758,0.05024 -1.912037,-1.100803 -3.868282,-2.372175 -5.889098,-2.602734 z"
       id="path5"
       sodipodi:nodetypes="cssccssccccsccccsccc" /><path
       style="fill:#ffd5d5;fill-opacity:1;stroke:#020202;stroke-width:0;stroke-linecap:round;stroke-linejoin:round;stroke-miterlimit:4;stroke-dasharray:none;stroke-opacity:1"
       d="m 77.843677,50.026209 c 0.9903,-1.61256 3.654652,-2.692936 5.269317,-2.883054 1.886053,-0.14926 2.65233,0.157655 3.193106,0.531563 6.395144,2.424714 6.800525,9.730939 4.873081,12.892558 -0.90445,2.586571 -2.67959,3.613786 -5.391831,4.324703 -2.051774,-0.02339 -3.393706,-1.077816 -4.377448,-2.703245 l 2.999695,-1.864677 -0.457032,-0.668707 -3.239299,1.747807 c -3.009698,-0.780006 -3.441634,-4.120534 -2.546278,-5.862395 l 4.349267,-1.197268 -0.312401,-0.762357 -4.07143,0.870551 c -0.797796,-1.307486 -0.939383,-2.120345 -0.747692,-3.335028 0.05886,-0.372947 0.230828,-0.718993 0.458945,-1.090451 z"
       id="path6"
       sodipodi:nodetypes="sccccccccccccss" /><path
       id="path1-6"
       style="fill:#ffd5d5;fill-opacity:1;stroke:#020202;stroke-width:0.119797;stroke-miterlimit:4;stroke-dasharray:none;stroke-opacity:1"
       d="m 64.759024,8.2320521 c -1.827511,-0.030536 -2.259904,-0.00682 -2.55846,0.1406702 -0.197598,0.097617 -0.449547,0.1775352 -0.559891,0.1775352 -0.322496,0 -0.560383,0.1245317 -0.560383,0.2934671 0,0.099565 -0.126051,0.1566774 -0.344852,0.1566774 -0.201478,0 -0.371754,0.070078 -0.409999,0.1688042 -0.036,0.092885 -0.162677,0.1688041 -0.28166,0.1688041 -0.118989,0 -0.3039,0.101711 -0.410981,0.2255572 -0.107086,0.1238457 -0.26005,0.2250721 -0.339951,0.2250721 -0.07991,0 -0.145485,0.04766 -0.145485,0.1057453 0,0.058089 -0.215288,0.4594401 -0.653025,0.8920421 -0.465965,1.00783 -1.234129,2.360773 -1.980095,2.906598 0,0.282874 -0.103415,0.261391 -1.069126,0.261391 -0.571501,0 -1.19554,-0.07223 -1.511662,-0.174625 -0.453644,-0.146949 -1.16834,-0.169052 -4.535472,-0.140671 -3.008041,0.02534 -4.031845,0.0687 -4.138698,0.174626 -0.08076,0.08006 -0.424608,0.14067 -0.797468,0.14067 -0.360501,0 -0.874855,0.07248 -1.142807,0.161043 -0.267951,0.08858 -0.691836,0.19547 -0.941972,0.237683 -0.250131,0.04223 -0.567856,0.147383 -0.706356,0.233319 -0.138499,0.08593 -0.422784,0.156192 -0.631899,0.156192 -0.209112,0 -0.479652,0.0745 -0.601041,0.165409 -0.12138,0.09091 -0.324177,0.166676 -0.450166,0.168804 -0.125991,0.002 -0.419616,0.104622 -0.652964,0.228468 -0.233342,0.123846 -0.554201,0.225072 -0.712723,0.225072 -0.158525,0 -0.317658,0.0764 -0.353669,0.169289 -0.03598,0.09288 -0.164449,0.168805 -0.286069,0.168805 -0.121617,0 -0.410926,0.09896 -0.642187,0.219736 -0.23125,0.120778 -0.496953,0.247239 -0.590751,0.280853 -0.09379,0.03364 -0.247133,0.108044 -0.340932,0.165895 -0.09379,0.05785 -0.247623,0.137001 -0.341423,0.175596 -0.0938,0.03858 -0.346572,0.162133 -0.56185,0.274549 -0.312496,0.163182 -0.473103,0.182345 -0.795999,0.09555 -2.400291,-0.980097 -4.929423,-1.942694 -6.901423,-1.944158 -1.696812,0 -1.977559,0.02541 -2.169033,0.196938 -0.120977,0.108366 -0.358064,0.196938 -0.527072,0.196938 -0.169004,0 -0.336762,0.0764 -0.372772,0.169289 -0.03598,0.09288 -0.166989,0.168805 -0.290479,0.168805 -0.123482,0 -0.442682,0.177145 -0.709784,0.393876 -0.267096,0.216734 -0.534855,0.393875 -0.595162,0.393875 -0.164085,0 -1.405016,1.34517 -1.521946,1.649722 -0.05584,0.145433 -0.154391,0.264362 -0.21847,0.264362 -0.06409,0 -0.116585,0.07421 -0.116585,0.164924 0,0.0907 -0.102222,0.219427 -0.227288,0.285705 -0.128687,0.06821 -0.227288,0.235883 -0.227288,0.386117 0,0.146003 -0.07666,0.294187 -0.170467,0.329846 -0.0938,0.03564 -0.170465,0.168528 -0.170465,0.294922 0,0.126401 -0.102708,0.316455 -0.227778,0.422497 -0.125065,0.106041 -0.227287,0.327435 -0.227287,0.491859 0,0.164429 -0.07666,0.361899 -0.170467,0.438988 -0.104441,0.08584 -0.170466,0.332631 -0.170466,0.636897 0,0.273253 -0.07241,0.608889 -0.160668,0.746036 -0.08942,0.138962 -0.195101,0.723349 -0.239044,1.319389 -0.04336,0.588268 -0.124,1.123991 -0.178793,1.190845 -0.172181,0.210102 -0.242879,1.978589 -0.103358,2.580569 0.07176,0.309617 0.190506,0.902821 0.264027,1.317934 0.07351,0.415118 0.197617,0.817779 0.275781,0.894953 0.07815,0.07718 0.142055,0.276092 0.142055,0.441897 0,0.165805 0.07666,0.364325 0.170466,0.441413 0.09379,0.07709 0.170467,0.235775 0.170467,0.352646 0,0.116873 0.102222,0.299476 0.227287,0.405518 0.12507,0.106042 0.227778,0.236886 0.227778,0.290556 0,0.158405 0.829692,0.9779 0.989977,0.9779 0.08092,0 0.146952,0.04856 0.146952,0.107685 0,0.180435 0.508307,0.612642 0.977241,0.830925 0.244137,0.113638 0.63283,0.303441 0.864086,0.42201 0.231252,0.118574 0.545634,0.215857 0.698519,0.215857 0.15289,0 0.30737,0.07592 0.343381,0.168803 0.04725,0.121952 0.240461,0.168805 0.6946,0.168805 0.587,0 0.628961,0.01802 0.628961,0.268729 0,0.147731 -0.07654,0.413448 -0.169977,0.590814 -0.247513,0.469665 -0.248206,3.778739 -9.48e-4,3.981933 0.09379,0.07709 0.170468,0.321067 0.170468,0.54231 0,0.283141 0.09062,0.495631 0.305661,0.717902 0.383343,0.396209 0.466579,0.394406 0.926787,-0.02183 0.205393,-0.185767 0.421375,-0.338092 0.480048,-0.338092 0.05867,0 0.108066,-0.06325 0.110215,-0.14067 0.0021,-0.07739 0.116964,-0.221968 0.255699,-0.321114 l 0.252269,-0.179963 0.0387,1.868972 c 0.02816,1.360764 0.08266,1.936757 0.199368,2.118298 0.08816,0.137154 0.160179,0.467826 0.160179,0.734881 0,0.267055 0.07029,0.585572 0.156261,0.707716 0.08595,0.122144 0.192979,0.437786 0.237573,0.700926 0.0446,0.263143 0.148876,0.516203 0.232188,0.56268 0.08331,0.04648 0.168453,0.257001 0.189079,0.467606 0.0246,0.251204 0.137553,0.456239 0.327707,0.596151 0.467984,0.344351 0.641496,0.197326 1.026715,-0.866819 0.06956,-0.192186 0.08339,-0.179527 0.09307,0.08392 0.0065,0.177676 0.107658,0.368225 0.238554,0.449175 0.139153,0.08605 0.227289,0.262228 0.227289,0.454509 0,0.175437 0.07572,0.343154 0.170955,0.379324 0.09379,0.03565 0.170465,0.160724 0.170465,0.277943 0,0.117225 0.102225,0.314172 0.227288,0.43802 0.125071,0.123855 0.227288,0.309619 0.227288,0.412794 0,0.103165 0.07503,0.268146 0.166548,0.366226 0.09152,0.09808 0.344437,0.369699 0.561853,0.603427 1.128375,0.931808 2.907559,3.227146 5.599903,3.275188 0.737948,0.01316 1.325132,-0.25748 2.077923,-0.360892 2.687663,-0.369212 4.856589,0.0889 7.045437,0.862939 4.452598,1.574577 6.977348,6.385452 6.977348,6.385452 0.548192,-2.42883 1.206093,-4.805237 2.513883,-6.872462 -0.06757,0.08096 -0.208125,0.190492 -0.274313,0.218282 -0.481399,0.202281 -0.85833,0.280368 -1.374994,0.435107 -2.03297,0.608863 -4.084596,0.84775 -5.928591,0.510292 -0.07496,-0.01373 -0.153704,-0.01491 -0.223859,-0.04366 -0.914359,-0.374683 -1.902413,-0.898137 -3.867324,-1.337338 -0.117339,-0.02622 -0.213523,-0.10943 -0.316929,-0.167833 -1.602723,-0.905169 -2.69965,-2.415014 -3.225629,-4.137157 -1.42758,-4.674143 2.329922,-9.93509 8.392511,-11.750805 1.326191,-0.397189 2.653117,-0.596762 3.931495,-0.617009 4.565628,-0.07229 8.515535,2.141023 9.630837,5.792698 0.633963,2.075705 0.245327,4.266951 -0.913561,6.221015 -0.03069,0.05178 -0.03823,0.130641 -0.09404,0.154736 -0.01729,0.0075 -0.03647,0.01808 -0.05388,0.02572 2.039845,-0.871115 4.620608,-1.484922 7.931076,-1.7511 0.262141,-0.177336 0.670109,-0.610293 0.670109,-0.674246 0,-0.06394 0.0772,-0.145902 0.171934,-0.181902 0.09473,-0.036 0.22355,-0.18117 0.286069,-0.322086 0.06251,-0.140915 0.214295,-0.407954 0.337504,-0.593724 0.123205,-0.18577 0.276551,-0.464626 0.340443,-0.619434 0.06388,-0.154808 0.192699,-0.415778 0.286068,-0.580142 0.09337,-0.16436 0.169486,-0.450367 0.169486,-0.635443 0,-0.195241 0.07151,-0.363535 0.170467,-0.401152 0.110159,-0.04185 0.170956,-0.216291 0.170956,-0.492345 0,-0.235073 0.102217,-0.616345 0.227286,-0.847416 0.198772,-0.367265 0.227288,-0.635051 0.227288,-2.129455 v -1.709379 l 0.32281,0.357982 c 0.177541,0.196917 0.382478,0.35798 0.455066,0.35798 0.07258,0 0.131767,0.07592 0.131767,0.168804 0,0.09288 0.07248,0.168804 0.16116,0.168804 0.08867,0 0.240506,0.03008 0.337502,0.06694 0.111594,0.0424 0.303172,-0.07019 0.521195,-0.306565 0.269794,-0.292509 0.34436,-0.476678 0.34436,-0.849358 0,-0.336184 0.05833,-0.508479 0.198877,-0.586448 0.173757,-0.0964 0.198027,-0.289354 0.19055,-1.523118 -0.007,-1.154963 -0.04322,-1.450787 -0.198877,-1.621102 -0.105897,-0.11587 -0.19055,-0.393386 -0.19055,-0.625254 0,-0.266692 -0.06136,-0.440227 -0.170465,-0.481673 -0.09379,-0.03563 -0.170467,-0.187482 -0.170467,-0.337608 0,-0.150127 -0.07828,-0.302725 -0.173894,-0.339064 -0.09559,-0.03633 -0.275219,-0.28633 -0.399224,-0.55589 -0.124,-0.269563 -0.320922,-0.540708 -0.437431,-0.602455 -0.11651,-0.06175 -0.239137,-0.215197 -0.272354,-0.341006 -0.05441,-0.206015 -0.0067,-0.228952 0.47515,-0.228952 0.294301,0 0.596045,-0.06054 0.671087,-0.134848 0.209582,-0.20754 0.162459,-0.944445 -0.09062,-1.412037 -0.125071,-0.231072 -0.227776,-0.528486 -0.227776,-0.661151 0,-0.132663 -0.07666,-0.304659 -0.170467,-0.381749 -0.09379,-0.07709 -0.170466,-0.252729 -0.170466,-0.390481 0,-0.137751 -0.10222,-0.367012 -0.227288,-0.509808 -0.125066,-0.142795 -0.227287,-0.329382 -0.227287,-0.414734 0,-0.08535 -0.07716,-0.184561 -0.170957,-0.220221 -0.09378,-0.03564 -0.170466,-0.16642 -0.170466,-0.290556 0,-0.223681 -1.948953,-2.226954 -2.166584,-2.226954 -0.180641,0 -0.118969,-0.276664 0.09159,-0.409884 0.109438,-0.06922 0.301586,-0.321698 0.426654,-0.561225 0.125066,-0.239526 0.36784,-0.5732 0.53981,-0.741672 0.171964,-0.168471 0.313011,-0.398123 0.313011,-0.510292 0,-0.112175 0.102222,-0.290745 0.227287,-0.396787 0.12507,-0.106041 0.227288,-0.289145 0.227288,-0.406973 0,-0.117826 0.07666,-0.243255 0.170466,-0.278915 0.09379,-0.03564 0.170466,-0.186984 0.170466,-0.336153 0,-0.14917 0.07586,-0.333186 0.168017,-0.408914 0.09214,-0.07572 0.201932,-0.321266 0.244432,-0.545702 0.0425,-0.224439 0.146508,-0.476389 0.230717,-0.55977 0.09665,-0.09569 0.152832,-0.419149 0.152832,-0.877007 0,-0.398917 0.06213,-0.823912 0.138136,-0.94443 0.108462,-0.171973 0.108462,-0.300117 0,-0.59712 -0.076,-0.20814 -0.138136,-0.718562 -0.138136,-1.134092 0,-0.567702 -0.04234,-0.772044 -0.170465,-0.820737 -0.09739,-0.03701 -0.170467,-0.204804 -0.170467,-0.391451 0,-0.187493 -0.09682,-0.408901 -0.227288,-0.51951 -0.12507,-0.10604 -0.227778,-0.234069 -0.227778,-0.284736 0,-0.356946 -2.643079,-3.069409 -3.102186,-3.183509 -0.171218,-0.04255 -0.349238,-0.135186 -0.395338,-0.205679 -0.09245,-0.1413563 -0.387599,-0.3379547 -0.822939,-0.5486172 -0.156331,-0.075651 -0.324728,-0.2021496 -0.37473,-0.2808551 -0.05001,-0.07871 -0.210547,-0.1430955 -0.356117,-0.1430955 -0.145569,0 -0.322558,-0.069687 -0.393836,-0.1547371 -0.0713,-0.085046 -0.396405,-0.189565 -0.722047,-0.2323435 C 67.54879,8.5705423 67.209256,8.4757323 67.120075,8.4023115 67.011072,8.3125676 66.237438,8.2567329 64.759024,8.2320521 Z M 62.711962,48.945864 c -1.458343,0.622785 -2.631079,1.381361 -3.59595,2.23908 1.124042,-0.937653 2.468059,-1.744922 3.59595,-2.23908 z m -3.59595,2.23908 c -0.894598,0.746256 -1.647403,1.573191 -2.038242,2.386543 0.550355,-0.85695 1.218507,-1.657839 2.038242,-2.386543 z m -2.038242,2.386543 c -0.01524,0.02372 -0.03245,0.04654 -0.04752,0.07033 0.01352,-0.0162 0.02872,-0.03324 0.03477,-0.04608 0.0038,-0.0081 0.009,-0.01621 0.01274,-0.02425 z m 7.519115,-41.860032 c 4.076552,-0.05003 6.326403,2.371057 7.034171,6.022621 -0.148507,1.547067 -0.216776,3.140144 -1.176118,4.220103 L 60.335235,14.429784 c 0.28504,-1.204014 1.204028,-1.80994 2.224875,-2.319601 0.703771,-0.134371 1.026438,-0.355466 1.636571,-0.386116 0.135315,-0.0067 0.268702,-0.011 0.400204,-0.01262 z m -35.772382,7.086378 c 1.142232,0.04779 2.231707,0.224686 2.992461,1.205398 l -6.08926,10.985365 c -1.323519,-0.59252 -2.048756,-2.015925 -2.827874,-3.364926 -0.902917,-3.732562 0.236618,-6.940826 4.272427,-8.509572 0.568676,-0.221053 0.955095,-0.151505 1.652246,-0.316265 z m 27.997075,10.140375 c 1.284533,-0.05678 2.660328,0.991262 3.354457,2.555346 0.847205,1.908717 0.402437,3.929102 -0.993404,4.5126 -1.395958,0.583414 -3.214335,-0.491198 -4.061304,-2.400123 -0.846924,-1.908713 -0.401948,-3.928826 0.993896,-4.512116 0.220856,-0.09233 0.45833,-0.144683 0.706355,-0.155707 z m 1.160932,1.523119 c -0.03678,-0.0028 -0.06922,0.0038 -0.09649,0.01941 -0.173025,0.09863 -0.105908,0.534329 0.149892,0.97305 0.255609,0.438418 0.602915,0.713945 0.775914,0.615553 0.173335,-0.09841 0.106189,-0.534508 -0.149894,-0.973534 -0.209653,-0.359518 -0.48834,-0.61977 -0.679415,-0.63447 z m -18.465675,3.496864 c 1.281925,-0.100288 2.683865,0.914557 3.418136,2.47434 0.896055,1.903448 0.504137,3.962729 -0.875354,4.599428 -1.379342,0.636471 -3.223644,-0.390266 -4.119593,-2.293409 -0.896055,-1.903448 -0.504138,-3.962728 0.875353,-4.599428 0.218196,-0.100715 0.454023,-0.161544 0.701458,-0.180931 z m 0.991446,2.092588 c -0.01834,0.0018 -0.03568,0.0062 -0.05192,0.0131 -0.206335,0.08803 -0.196684,0.564212 0.02155,1.063272 0.218128,0.498854 0.562032,0.831588 0.768076,0.743127 0.206335,-0.08803 0.196684,-0.564212 -0.02155,-1.063271 C 41.02617,36.35361 40.719766,36.03006 40.508285,36.050782 Z m 11.476081,2.355983 c -0.848449,-0.01924 -1.76618,0.163063 -2.6481,0.567046 -2.35179,1.077288 -3.557889,3.323427 -2.693166,5.016588 0.705312,1.38103 2.90483,2.014692 4.82448,1.60946 0.785167,1.781858 1.439963,3.727021 2.003955,5.565686 -4.8649,1.378695 -6.488184,-0.706416 -7.925198,-2.37296 0.239736,-0.519705 0.391728,-0.59887 1.249105,-0.730029 0.577913,-0.262382 0.359243,-0.700379 0,-0.770291 -1.800723,-0.191535 -2.703376,0.910357 -3.153621,2.331729 -0.06546,0.623195 0.57781,0.705794 0.716643,0.58839 0.42772,-0.269203 0.317431,-1.42827 0.696559,-0.831408 1.255428,1.643448 2.506409,2.962285 4.894529,3.163621 1.633497,0.17181 3.733117,-0.141093 6.184291,-1.31842 1.25017,-0.705007 2.340118,-1.648219 3.15411,-3.001123 0.576849,-1.621654 0.657864,-3.148507 0.47123,-4.284132 0.498978,0.02844 0.694981,0.343307 0.941971,0.567531 0.340153,0.120379 0.759088,-0.347167 0.553033,-0.730029 -0.429548,-0.662975 -1.088366,-0.957272 -2.063714,-1.079765 -0.767819,0.01031 -1.364174,0.246123 -1.807039,0.578203 -0.24337,0.216558 -0.302334,0.627847 0.102378,0.689283 0.48443,-0.0651 0.880494,-0.366538 1.464146,-0.06063 -0.03428,1.301264 0.07992,2.536343 -0.726928,4.035776 -1.034072,1.17697 -2.065879,2.355961 -3.686082,2.899745 -0.804695,-1.885203 -1.570844,-3.60084 -2.04902,-5.59382 l 0.06122,-0.202758 c 2.351792,-1.077289 3.475595,-3.262311 2.610873,-4.95547 -0.540451,-1.058227 -1.761577,-1.650146 -3.175664,-1.68222 z"
       sodipodi:nodetypes="csssscssssccsscssccssscsscsscscscccscscsssscscssscssccsccscsssssssscssccscsscccccscssscscsscsssscssscccsscscsscsccccssssssscsssccssssssssssssssssssssssssssscssssssssssssssssssssssscsscccccccscsssscccccssccccscccccccscsccsscsccscscccssscssccccccccccccccccccccccscc" /><path
       style="fill:#ffd5d5;fill-opacity:1;stroke:#020202;stroke-width:0.252;stroke-linecap:round;stroke-linejoin:round;stroke-miterlimit:4;stroke-dasharray:none;stroke-opacity:1"
       d="m 38.184568,56.516808 c 1.69756,-0.317395 2.000562,-0.236421 3.320872,-0.325887 7.23564,-0.490316 10.248964,3.739175 12.196615,6.574022 0.588681,0.856838 1.138309,2.204401 1.574159,3.012835 1.312603,-8.468178 5.24234,-15.787074 17.132521,-16.109051 1.947181,-0.05273 3.38231,-0.177105 3.97187,0.21589 -0.130884,1.105288 -0.479209,3.384245 0.759643,5.294195 0.391283,0.0092 -1.694172,4.643128 2.105278,7.189421 0.45147,0.302563 1.154525,0.359226 1.786206,0.597432 0.595088,1.324472 0.667379,1.445563 1.698867,2.417818 -0.98597,2.358072 -1.173323,4.592078 -2.499622,6.661624 -6.365723,9.933024 -11.020853,18.875059 -17.154483,26.374201 -9.17603,-2.874607 -16.161115,-5.285926 -23.748395,-13.058291 -3.0317,-3.283852 -4.488327,-7.331581 -6.725604,-11.069389 1.244483,-0.500992 1.822124,-1.219618 1.264903,-2.952715 l 0.790109,-0.159552 c 1.626795,-0.512641 3.275386,-2.055086 3.736441,-3.986359 0.242627,-0.950629 0.172119,-1.780992 -0.113828,-2.555431 l 0.629243,-0.938369 c 0.872087,-2.666158 1.024538,-3.347372 0.04247,-5.822086 z"
       id="path12"
       sodipodi:nodetypes="csscsccsscscccccccccc" /><path
       style="fill:none;stroke:#020202;stroke-width:1.2;stroke-linecap:round;stroke-linejoin:round;stroke-miterlimit:4;stroke-dasharray:none"
       d="m 40.674413,100.22013 c 1.718637,-0.746575 3.437273,-1.417235 5.15591,-3.032886 5.584722,2.596075 11.896124,4.505846 23.858727,1.078362"
       id="path922"
       sodipodi:nodetypes="ccc" /></g></svg>
