M48
; DRILL file {KiCad 8.0.1} date 2024-04-02T10:43:10+0200
; FORMAT={-:-/ absolute / inch / decimal}
; #@! TF.CreationDate,2024-04-02T10:43:10+02:00
; #@! TF.GenerationSoftware,Kicad,Pcbnew,8.0.1
; #@! TF.FileFunction,Plated,1,2,PTH
FMAT,2
INCH
; #@! TA.AperFunction,Plated,PTH,ViaDrill
T1C0.0157
; #@! TA.AperFunction,Plated,PTH,ComponentDrill
T2C0.0315
; #@! TA.AperFunction,Plated,PTH,ComponentDrill
T3C0.0394
; #@! TA.AperFunction,Plated,PTH,ComponentDrill
T4C0.0433
%
G90
G05
T1
X2.3099Y-2.9276
X2.5304Y-2.9267
T2
X1.1599Y-4.2977
X1.4599Y-4.2977
X1.57Y-4.39
X1.67Y-4.29
X1.77Y-4.39
X2.0075Y-3.6323
X2.0981Y-3.6323
X2.1123Y-1.2977
X2.1123Y-1.3977
X2.1123Y-1.4977
X2.1123Y-1.5977
X2.1275Y-3.3223
X2.1325Y-3.8423
X2.1945Y-3.3853
X2.2231Y-3.8423
X2.4123Y-1.2977
X2.4123Y-1.3977
X2.4123Y-1.4977
X2.4123Y-1.5977
X2.4498Y-4.0928
X2.5128Y-4.0298
X2.6275Y-3.376
X2.6275Y-3.466
X2.6879Y-1.3095
X2.6879Y-1.4079
X2.7825Y-4.1823
X2.7825Y-4.2729
X2.8343Y-1.6245
X2.8343Y-1.7839
X2.8343Y-1.9434
X2.8343Y-2.1028
X2.9871Y-3.9198
X3.0475Y-3.2323
X3.0501Y-3.9828
X3.1066Y-3.1693
X3.158Y-3.6773
X3.2046Y-3.3823
X3.2343Y-1.6245
X3.2343Y-1.7839
X3.2343Y-1.9434
X3.2343Y-2.1028
X3.2525Y-3.6773
X3.2951Y-3.3823
X3.63Y-4.38
X3.73Y-4.28
X3.83Y-4.38
T3
X1.2567Y-3.8788
X1.2567Y-4.0788
X1.4967Y-3.9788
X1.6091Y-3.0268
X1.6091Y-3.1268
X1.6091Y-3.2268
X3.8532Y-3.9788
X4.0932Y-3.8788
X4.0932Y-4.0788
T4
X1.3567Y-3.9788
X3.9932Y-3.9788
M30
