%TF.GenerationSoftware,KiCad,Pcbnew,8.0.1*%
%TF.CreationDate,2024-04-02T10:43:05+02:00*%
%TF.ProjectId,Baerli,42616572-6c69-42e6-9b69-6361645f7063,rev?*%
%TF.SameCoordinates,Original*%
%TF.FileFunction,Soldermask,Bot*%
%TF.FilePolarity,Negative*%
%FSLAX46Y46*%
G04 Gerber Fmt 4.6, Leading zero omitted, Abs format (unit mm)*
G04 Created by KiCad (PCBNEW 8.0.1) date 2024-04-02 10:43:05*
%MOMM*%
%LPD*%
G01*
G04 APERTURE LIST*
G04 Aperture macros list*
%AMRoundRect*
0 Rectangle with rounded corners*
0 $1 Rounding radius*
0 $2 $3 $4 $5 $6 $7 $8 $9 X,Y pos of 4 corners*
0 Add a 4 corners polygon primitive as box body*
4,1,4,$2,$3,$4,$5,$6,$7,$8,$9,$2,$3,0*
0 Add four circle primitives for the rounded corners*
1,1,$1+$1,$2,$3*
1,1,$1+$1,$4,$5*
1,1,$1+$1,$6,$7*
1,1,$1+$1,$8,$9*
0 Add four rect primitives between the rounded corners*
20,1,$1+$1,$2,$3,$4,$5,0*
20,1,$1+$1,$4,$5,$6,$7,0*
20,1,$1+$1,$6,$7,$8,$9,0*
20,1,$1+$1,$8,$9,$2,$3,0*%
G04 Aperture macros list end*
%ADD10C,0.300000*%
%ADD11RoundRect,0.200000X-0.600000X-0.750000X0.600000X-0.750000X0.600000X0.750000X-0.600000X0.750000X0*%
%ADD12RoundRect,0.200000X0.600000X0.750000X-0.600000X0.750000X-0.600000X-0.750000X0.600000X-0.750000X0*%
%ADD13C,1.900000*%
%ADD14RoundRect,0.200000X-0.750000X-0.750000X0.750000X-0.750000X0.750000X0.750000X-0.750000X0.750000X0*%
%ADD15C,2.000000*%
%ADD16O,2.000000X2.000000*%
%ADD17C,2.400000*%
%ADD18RoundRect,0.200000X0.800000X0.800000X-0.800000X0.800000X-0.800000X-0.800000X0.800000X-0.800000X0*%
%ADD19RoundRect,0.200000X-1.000000X2.500000X-1.000000X-2.500000X1.000000X-2.500000X1.000000X2.500000X0*%
%ADD20C,18.180000*%
%ADD21RoundRect,0.200000X0.800000X-0.800000X0.800000X0.800000X-0.800000X0.800000X-0.800000X-0.800000X0*%
G04 APERTURE END LIST*
D10*
X43895489Y-42218828D02*
X43895489Y-40718828D01*
X43038346Y-42218828D02*
X43681203Y-41361685D01*
X43038346Y-40718828D02*
X43895489Y-41575971D01*
X42395489Y-42218828D02*
X42395489Y-40718828D01*
X42395489Y-41433114D02*
X41538346Y-41433114D01*
X41538346Y-42218828D02*
X41538346Y-40718828D01*
X40324060Y-41433114D02*
X40824060Y-41433114D01*
X40824060Y-42218828D02*
X40824060Y-40718828D01*
X40824060Y-40718828D02*
X40109774Y-40718828D01*
X38109774Y-40718828D02*
X37966917Y-40718828D01*
X37966917Y-40718828D02*
X37824060Y-40790257D01*
X37824060Y-40790257D02*
X37752632Y-40861685D01*
X37752632Y-40861685D02*
X37681203Y-41004542D01*
X37681203Y-41004542D02*
X37609774Y-41290257D01*
X37609774Y-41290257D02*
X37609774Y-41647400D01*
X37609774Y-41647400D02*
X37681203Y-41933114D01*
X37681203Y-41933114D02*
X37752632Y-42075971D01*
X37752632Y-42075971D02*
X37824060Y-42147400D01*
X37824060Y-42147400D02*
X37966917Y-42218828D01*
X37966917Y-42218828D02*
X38109774Y-42218828D01*
X38109774Y-42218828D02*
X38252632Y-42147400D01*
X38252632Y-42147400D02*
X38324060Y-42075971D01*
X38324060Y-42075971D02*
X38395489Y-41933114D01*
X38395489Y-41933114D02*
X38466917Y-41647400D01*
X38466917Y-41647400D02*
X38466917Y-41290257D01*
X38466917Y-41290257D02*
X38395489Y-41004542D01*
X38395489Y-41004542D02*
X38324060Y-40861685D01*
X38324060Y-40861685D02*
X38252632Y-40790257D01*
X38252632Y-40790257D02*
X38109774Y-40718828D01*
X36181203Y-42218828D02*
X37038346Y-42218828D01*
X36609775Y-42218828D02*
X36609775Y-40718828D01*
X36609775Y-40718828D02*
X36752632Y-40933114D01*
X36752632Y-40933114D02*
X36895489Y-41075971D01*
X36895489Y-41075971D02*
X37038346Y-41147400D01*
X35538347Y-42075971D02*
X35466918Y-42147400D01*
X35466918Y-42147400D02*
X35538347Y-42218828D01*
X35538347Y-42218828D02*
X35609775Y-42147400D01*
X35609775Y-42147400D02*
X35538347Y-42075971D01*
X35538347Y-42075971D02*
X35538347Y-42218828D01*
X34895489Y-40861685D02*
X34824061Y-40790257D01*
X34824061Y-40790257D02*
X34681204Y-40718828D01*
X34681204Y-40718828D02*
X34324061Y-40718828D01*
X34324061Y-40718828D02*
X34181204Y-40790257D01*
X34181204Y-40790257D02*
X34109775Y-40861685D01*
X34109775Y-40861685D02*
X34038346Y-41004542D01*
X34038346Y-41004542D02*
X34038346Y-41147400D01*
X34038346Y-41147400D02*
X34109775Y-41361685D01*
X34109775Y-41361685D02*
X34966918Y-42218828D01*
X34966918Y-42218828D02*
X34038346Y-42218828D01*
X33109775Y-40718828D02*
X32966918Y-40718828D01*
X32966918Y-40718828D02*
X32824061Y-40790257D01*
X32824061Y-40790257D02*
X32752633Y-40861685D01*
X32752633Y-40861685D02*
X32681204Y-41004542D01*
X32681204Y-41004542D02*
X32609775Y-41290257D01*
X32609775Y-41290257D02*
X32609775Y-41647400D01*
X32609775Y-41647400D02*
X32681204Y-41933114D01*
X32681204Y-41933114D02*
X32752633Y-42075971D01*
X32752633Y-42075971D02*
X32824061Y-42147400D01*
X32824061Y-42147400D02*
X32966918Y-42218828D01*
X32966918Y-42218828D02*
X33109775Y-42218828D01*
X33109775Y-42218828D02*
X33252633Y-42147400D01*
X33252633Y-42147400D02*
X33324061Y-42075971D01*
X33324061Y-42075971D02*
X33395490Y-41933114D01*
X33395490Y-41933114D02*
X33466918Y-41647400D01*
X33466918Y-41647400D02*
X33466918Y-41290257D01*
X33466918Y-41290257D02*
X33395490Y-41004542D01*
X33395490Y-41004542D02*
X33324061Y-40861685D01*
X33324061Y-40861685D02*
X33252633Y-40790257D01*
X33252633Y-40790257D02*
X33109775Y-40718828D01*
X32038347Y-40861685D02*
X31966919Y-40790257D01*
X31966919Y-40790257D02*
X31824062Y-40718828D01*
X31824062Y-40718828D02*
X31466919Y-40718828D01*
X31466919Y-40718828D02*
X31324062Y-40790257D01*
X31324062Y-40790257D02*
X31252633Y-40861685D01*
X31252633Y-40861685D02*
X31181204Y-41004542D01*
X31181204Y-41004542D02*
X31181204Y-41147400D01*
X31181204Y-41147400D02*
X31252633Y-41361685D01*
X31252633Y-41361685D02*
X32109776Y-42218828D01*
X32109776Y-42218828D02*
X31181204Y-42218828D01*
X29895491Y-41218828D02*
X29895491Y-42218828D01*
X30252633Y-40647400D02*
X30609776Y-41718828D01*
X30609776Y-41718828D02*
X29681205Y-41718828D01*
D11*
%TO.C,REF\u002A\u002A*%
X50991086Y-92260914D03*
X54039086Y-84386914D03*
X54166086Y-97594914D03*
X62225137Y-103955914D03*
X66739086Y-85750914D03*
X70676086Y-108530914D03*
X77472086Y-101161914D03*
X78907086Y-80500914D03*
X82614086Y-93403914D03*
D12*
X83695984Y-85910914D03*
D13*
X53291086Y-92260914D03*
X55739086Y-85986914D03*
X56466086Y-97594914D03*
X63825137Y-102355914D03*
X66739086Y-88036914D03*
X70676086Y-106230914D03*
X75872086Y-99561914D03*
X77407086Y-82100914D03*
X80214086Y-93403914D03*
X81395984Y-85910914D03*
%TD*%
D14*
%TO.C,T2*%
X92202000Y-111252000D03*
D13*
X94742000Y-108712000D03*
X97282000Y-111252000D03*
%TD*%
D14*
%TO.C,T1*%
X39878000Y-111506000D03*
D13*
X42418000Y-108966000D03*
X44958000Y-111506000D03*
%TD*%
D15*
%TO.C,R6*%
X82152086Y-53411914D03*
D16*
X71992086Y-53411914D03*
%TD*%
D17*
%TO.C,S1*%
X40872086Y-76881914D03*
X40872086Y-79421914D03*
X40872086Y-81961914D03*
%TD*%
D15*
%TO.C,R3*%
X82152086Y-41261914D03*
D16*
X71992086Y-41261914D03*
%TD*%
D18*
%TO.C,D3*%
X37082086Y-109161914D03*
D16*
X29462086Y-109161914D03*
%TD*%
D15*
%TO.C,R5*%
X82152086Y-49361914D03*
D16*
X71992086Y-49361914D03*
%TD*%
D18*
%TO.C,U1*%
X61272086Y-32961914D03*
D16*
X61272086Y-35501914D03*
X61272086Y-38041914D03*
X61272086Y-40581914D03*
X53652086Y-40581914D03*
X53652086Y-38041914D03*
X53652086Y-35501914D03*
X53652086Y-32961914D03*
%TD*%
D17*
%TO.C,P1*%
X103968086Y-103601914D03*
X103968086Y-98521914D03*
X97872086Y-101061914D03*
X101428086Y-101061914D03*
%TD*%
D19*
%TO.C,U2*%
X52504086Y-46907914D03*
X48948086Y-46907914D03*
X52504086Y-72801914D03*
X48948086Y-72801914D03*
D20*
X50472086Y-59861914D03*
%TD*%
D15*
%TO.C,R4*%
X82152086Y-45311914D03*
D16*
X71992086Y-45311914D03*
%TD*%
D17*
%TO.C,P2*%
X31919086Y-98521914D03*
X31919086Y-103601914D03*
X38015086Y-101061914D03*
X34459086Y-101061914D03*
%TD*%
D21*
%TO.C,C1*%
X68272086Y-35761914D03*
D15*
X68272086Y-33261914D03*
%TD*%
M02*
