%TF.GenerationSoftware,KiCad,Pcbnew,8.0.1*%
%TF.CreationDate,2024-04-02T10:43:05+02:00*%
%TF.ProjectId,Baerli,42616572-6c69-42e6-9b69-6361645f7063,rev?*%
%TF.SameCoordinates,Original*%
%TF.FileFunction,Legend,Bot*%
%TF.FilePolarity,Positive*%
%FSLAX46Y46*%
G04 Gerber Fmt 4.6, Leading zero omitted, Abs format (unit mm)*
G04 Created by KiCad (PCBNEW 8.0.1) date 2024-04-02 10:43:05*
%MOMM*%
%LPD*%
G01*
G04 APERTURE LIST*
%ADD10C,0.150000*%
%ADD11C,0.050000*%
%ADD12C,0.120000*%
%ADD13C,0.010000*%
G04 APERTURE END LIST*
D10*
X44229887Y-113706009D02*
X44087030Y-113753628D01*
X44087030Y-113753628D02*
X44039411Y-113801247D01*
X44039411Y-113801247D02*
X43991792Y-113896485D01*
X43991792Y-113896485D02*
X43991792Y-114039342D01*
X43991792Y-114039342D02*
X44039411Y-114134580D01*
X44039411Y-114134580D02*
X44087030Y-114182200D01*
X44087030Y-114182200D02*
X44182268Y-114229819D01*
X44182268Y-114229819D02*
X44563220Y-114229819D01*
X44563220Y-114229819D02*
X44563220Y-113229819D01*
X44563220Y-113229819D02*
X44229887Y-113229819D01*
X44229887Y-113229819D02*
X44134649Y-113277438D01*
X44134649Y-113277438D02*
X44087030Y-113325057D01*
X44087030Y-113325057D02*
X44039411Y-113420295D01*
X44039411Y-113420295D02*
X44039411Y-113515533D01*
X44039411Y-113515533D02*
X44087030Y-113610771D01*
X44087030Y-113610771D02*
X44134649Y-113658390D01*
X44134649Y-113658390D02*
X44229887Y-113706009D01*
X44229887Y-113706009D02*
X44563220Y-113706009D01*
X42991792Y-114134580D02*
X43039411Y-114182200D01*
X43039411Y-114182200D02*
X43182268Y-114229819D01*
X43182268Y-114229819D02*
X43277506Y-114229819D01*
X43277506Y-114229819D02*
X43420363Y-114182200D01*
X43420363Y-114182200D02*
X43515601Y-114086961D01*
X43515601Y-114086961D02*
X43563220Y-113991723D01*
X43563220Y-113991723D02*
X43610839Y-113801247D01*
X43610839Y-113801247D02*
X43610839Y-113658390D01*
X43610839Y-113658390D02*
X43563220Y-113467914D01*
X43563220Y-113467914D02*
X43515601Y-113372676D01*
X43515601Y-113372676D02*
X43420363Y-113277438D01*
X43420363Y-113277438D02*
X43277506Y-113229819D01*
X43277506Y-113229819D02*
X43182268Y-113229819D01*
X43182268Y-113229819D02*
X43039411Y-113277438D01*
X43039411Y-113277438D02*
X42991792Y-113325057D01*
X42087030Y-113229819D02*
X42563220Y-113229819D01*
X42563220Y-113229819D02*
X42610839Y-113706009D01*
X42610839Y-113706009D02*
X42563220Y-113658390D01*
X42563220Y-113658390D02*
X42467982Y-113610771D01*
X42467982Y-113610771D02*
X42229887Y-113610771D01*
X42229887Y-113610771D02*
X42134649Y-113658390D01*
X42134649Y-113658390D02*
X42087030Y-113706009D01*
X42087030Y-113706009D02*
X42039411Y-113801247D01*
X42039411Y-113801247D02*
X42039411Y-114039342D01*
X42039411Y-114039342D02*
X42087030Y-114134580D01*
X42087030Y-114134580D02*
X42134649Y-114182200D01*
X42134649Y-114182200D02*
X42229887Y-114229819D01*
X42229887Y-114229819D02*
X42467982Y-114229819D01*
X42467982Y-114229819D02*
X42563220Y-114182200D01*
X42563220Y-114182200D02*
X42610839Y-114134580D01*
X41182268Y-113563152D02*
X41182268Y-114229819D01*
X41420363Y-113182200D02*
X41658458Y-113896485D01*
X41658458Y-113896485D02*
X41039411Y-113896485D01*
X40515601Y-113658390D02*
X40610839Y-113610771D01*
X40610839Y-113610771D02*
X40658458Y-113563152D01*
X40658458Y-113563152D02*
X40706077Y-113467914D01*
X40706077Y-113467914D02*
X40706077Y-113420295D01*
X40706077Y-113420295D02*
X40658458Y-113325057D01*
X40658458Y-113325057D02*
X40610839Y-113277438D01*
X40610839Y-113277438D02*
X40515601Y-113229819D01*
X40515601Y-113229819D02*
X40325125Y-113229819D01*
X40325125Y-113229819D02*
X40229887Y-113277438D01*
X40229887Y-113277438D02*
X40182268Y-113325057D01*
X40182268Y-113325057D02*
X40134649Y-113420295D01*
X40134649Y-113420295D02*
X40134649Y-113467914D01*
X40134649Y-113467914D02*
X40182268Y-113563152D01*
X40182268Y-113563152D02*
X40229887Y-113610771D01*
X40229887Y-113610771D02*
X40325125Y-113658390D01*
X40325125Y-113658390D02*
X40515601Y-113658390D01*
X40515601Y-113658390D02*
X40610839Y-113706009D01*
X40610839Y-113706009D02*
X40658458Y-113753628D01*
X40658458Y-113753628D02*
X40706077Y-113848866D01*
X40706077Y-113848866D02*
X40706077Y-114039342D01*
X40706077Y-114039342D02*
X40658458Y-114134580D01*
X40658458Y-114134580D02*
X40610839Y-114182200D01*
X40610839Y-114182200D02*
X40515601Y-114229819D01*
X40515601Y-114229819D02*
X40325125Y-114229819D01*
X40325125Y-114229819D02*
X40229887Y-114182200D01*
X40229887Y-114182200D02*
X40182268Y-114134580D01*
X40182268Y-114134580D02*
X40134649Y-114039342D01*
X40134649Y-114039342D02*
X40134649Y-113848866D01*
X40134649Y-113848866D02*
X40182268Y-113753628D01*
X40182268Y-113753628D02*
X40229887Y-113706009D01*
X40229887Y-113706009D02*
X40325125Y-113658390D01*
X38568285Y-111574990D02*
X38234952Y-111574990D01*
X38092095Y-111051180D02*
X38568285Y-111051180D01*
X38568285Y-111051180D02*
X38568285Y-112051180D01*
X38568285Y-112051180D02*
X38092095Y-112051180D01*
X73799506Y-113677819D02*
X73799506Y-114392104D01*
X73799506Y-114392104D02*
X73847125Y-114534961D01*
X73847125Y-114534961D02*
X73942363Y-114630200D01*
X73942363Y-114630200D02*
X74085220Y-114677819D01*
X74085220Y-114677819D02*
X74180458Y-114677819D01*
X72847125Y-114677819D02*
X73323315Y-114677819D01*
X73323315Y-114677819D02*
X73323315Y-113677819D01*
X71942363Y-114582580D02*
X71989982Y-114630200D01*
X71989982Y-114630200D02*
X72132839Y-114677819D01*
X72132839Y-114677819D02*
X72228077Y-114677819D01*
X72228077Y-114677819D02*
X72370934Y-114630200D01*
X72370934Y-114630200D02*
X72466172Y-114534961D01*
X72466172Y-114534961D02*
X72513791Y-114439723D01*
X72513791Y-114439723D02*
X72561410Y-114249247D01*
X72561410Y-114249247D02*
X72561410Y-114106390D01*
X72561410Y-114106390D02*
X72513791Y-113915914D01*
X72513791Y-113915914D02*
X72466172Y-113820676D01*
X72466172Y-113820676D02*
X72370934Y-113725438D01*
X72370934Y-113725438D02*
X72228077Y-113677819D01*
X72228077Y-113677819D02*
X72132839Y-113677819D01*
X72132839Y-113677819D02*
X71989982Y-113725438D01*
X71989982Y-113725438D02*
X71942363Y-113773057D01*
X71228077Y-113677819D02*
X71228077Y-114392104D01*
X71228077Y-114392104D02*
X71275696Y-114534961D01*
X71275696Y-114534961D02*
X71370934Y-114630200D01*
X71370934Y-114630200D02*
X71513791Y-114677819D01*
X71513791Y-114677819D02*
X71609029Y-114677819D01*
X70275696Y-114677819D02*
X70751886Y-114677819D01*
X70751886Y-114677819D02*
X70751886Y-113677819D01*
X69370934Y-114582580D02*
X69418553Y-114630200D01*
X69418553Y-114630200D02*
X69561410Y-114677819D01*
X69561410Y-114677819D02*
X69656648Y-114677819D01*
X69656648Y-114677819D02*
X69799505Y-114630200D01*
X69799505Y-114630200D02*
X69894743Y-114534961D01*
X69894743Y-114534961D02*
X69942362Y-114439723D01*
X69942362Y-114439723D02*
X69989981Y-114249247D01*
X69989981Y-114249247D02*
X69989981Y-114106390D01*
X69989981Y-114106390D02*
X69942362Y-113915914D01*
X69942362Y-113915914D02*
X69894743Y-113820676D01*
X69894743Y-113820676D02*
X69799505Y-113725438D01*
X69799505Y-113725438D02*
X69656648Y-113677819D01*
X69656648Y-113677819D02*
X69561410Y-113677819D01*
X69561410Y-113677819D02*
X69418553Y-113725438D01*
X69418553Y-113725438D02*
X69370934Y-113773057D01*
X68656648Y-113677819D02*
X68656648Y-114392104D01*
X68656648Y-114392104D02*
X68704267Y-114534961D01*
X68704267Y-114534961D02*
X68799505Y-114630200D01*
X68799505Y-114630200D02*
X68942362Y-114677819D01*
X68942362Y-114677819D02*
X69037600Y-114677819D01*
X67704267Y-114677819D02*
X68180457Y-114677819D01*
X68180457Y-114677819D02*
X68180457Y-113677819D01*
X66799505Y-114582580D02*
X66847124Y-114630200D01*
X66847124Y-114630200D02*
X66989981Y-114677819D01*
X66989981Y-114677819D02*
X67085219Y-114677819D01*
X67085219Y-114677819D02*
X67228076Y-114630200D01*
X67228076Y-114630200D02*
X67323314Y-114534961D01*
X67323314Y-114534961D02*
X67370933Y-114439723D01*
X67370933Y-114439723D02*
X67418552Y-114249247D01*
X67418552Y-114249247D02*
X67418552Y-114106390D01*
X67418552Y-114106390D02*
X67370933Y-113915914D01*
X67370933Y-113915914D02*
X67323314Y-113820676D01*
X67323314Y-113820676D02*
X67228076Y-113725438D01*
X67228076Y-113725438D02*
X67085219Y-113677819D01*
X67085219Y-113677819D02*
X66989981Y-113677819D01*
X66989981Y-113677819D02*
X66847124Y-113725438D01*
X66847124Y-113725438D02*
X66799505Y-113773057D01*
X66085219Y-113677819D02*
X66085219Y-114392104D01*
X66085219Y-114392104D02*
X66132838Y-114534961D01*
X66132838Y-114534961D02*
X66228076Y-114630200D01*
X66228076Y-114630200D02*
X66370933Y-114677819D01*
X66370933Y-114677819D02*
X66466171Y-114677819D01*
X65132838Y-114677819D02*
X65609028Y-114677819D01*
X65609028Y-114677819D02*
X65609028Y-113677819D01*
X64228076Y-114582580D02*
X64275695Y-114630200D01*
X64275695Y-114630200D02*
X64418552Y-114677819D01*
X64418552Y-114677819D02*
X64513790Y-114677819D01*
X64513790Y-114677819D02*
X64656647Y-114630200D01*
X64656647Y-114630200D02*
X64751885Y-114534961D01*
X64751885Y-114534961D02*
X64799504Y-114439723D01*
X64799504Y-114439723D02*
X64847123Y-114249247D01*
X64847123Y-114249247D02*
X64847123Y-114106390D01*
X64847123Y-114106390D02*
X64799504Y-113915914D01*
X64799504Y-113915914D02*
X64751885Y-113820676D01*
X64751885Y-113820676D02*
X64656647Y-113725438D01*
X64656647Y-113725438D02*
X64513790Y-113677819D01*
X64513790Y-113677819D02*
X64418552Y-113677819D01*
X64418552Y-113677819D02*
X64275695Y-113725438D01*
X64275695Y-113725438D02*
X64228076Y-113773057D01*
X90384285Y-111320990D02*
X90050952Y-111320990D01*
X89908095Y-110797180D02*
X90384285Y-110797180D01*
X90384285Y-110797180D02*
X90384285Y-111797180D01*
X90384285Y-111797180D02*
X89908095Y-111797180D01*
X96549887Y-113646009D02*
X96407030Y-113693628D01*
X96407030Y-113693628D02*
X96359411Y-113741247D01*
X96359411Y-113741247D02*
X96311792Y-113836485D01*
X96311792Y-113836485D02*
X96311792Y-113979342D01*
X96311792Y-113979342D02*
X96359411Y-114074580D01*
X96359411Y-114074580D02*
X96407030Y-114122200D01*
X96407030Y-114122200D02*
X96502268Y-114169819D01*
X96502268Y-114169819D02*
X96883220Y-114169819D01*
X96883220Y-114169819D02*
X96883220Y-113169819D01*
X96883220Y-113169819D02*
X96549887Y-113169819D01*
X96549887Y-113169819D02*
X96454649Y-113217438D01*
X96454649Y-113217438D02*
X96407030Y-113265057D01*
X96407030Y-113265057D02*
X96359411Y-113360295D01*
X96359411Y-113360295D02*
X96359411Y-113455533D01*
X96359411Y-113455533D02*
X96407030Y-113550771D01*
X96407030Y-113550771D02*
X96454649Y-113598390D01*
X96454649Y-113598390D02*
X96549887Y-113646009D01*
X96549887Y-113646009D02*
X96883220Y-113646009D01*
X95311792Y-114074580D02*
X95359411Y-114122200D01*
X95359411Y-114122200D02*
X95502268Y-114169819D01*
X95502268Y-114169819D02*
X95597506Y-114169819D01*
X95597506Y-114169819D02*
X95740363Y-114122200D01*
X95740363Y-114122200D02*
X95835601Y-114026961D01*
X95835601Y-114026961D02*
X95883220Y-113931723D01*
X95883220Y-113931723D02*
X95930839Y-113741247D01*
X95930839Y-113741247D02*
X95930839Y-113598390D01*
X95930839Y-113598390D02*
X95883220Y-113407914D01*
X95883220Y-113407914D02*
X95835601Y-113312676D01*
X95835601Y-113312676D02*
X95740363Y-113217438D01*
X95740363Y-113217438D02*
X95597506Y-113169819D01*
X95597506Y-113169819D02*
X95502268Y-113169819D01*
X95502268Y-113169819D02*
X95359411Y-113217438D01*
X95359411Y-113217438D02*
X95311792Y-113265057D01*
X94407030Y-113169819D02*
X94883220Y-113169819D01*
X94883220Y-113169819D02*
X94930839Y-113646009D01*
X94930839Y-113646009D02*
X94883220Y-113598390D01*
X94883220Y-113598390D02*
X94787982Y-113550771D01*
X94787982Y-113550771D02*
X94549887Y-113550771D01*
X94549887Y-113550771D02*
X94454649Y-113598390D01*
X94454649Y-113598390D02*
X94407030Y-113646009D01*
X94407030Y-113646009D02*
X94359411Y-113741247D01*
X94359411Y-113741247D02*
X94359411Y-113979342D01*
X94359411Y-113979342D02*
X94407030Y-114074580D01*
X94407030Y-114074580D02*
X94454649Y-114122200D01*
X94454649Y-114122200D02*
X94549887Y-114169819D01*
X94549887Y-114169819D02*
X94787982Y-114169819D01*
X94787982Y-114169819D02*
X94883220Y-114122200D01*
X94883220Y-114122200D02*
X94930839Y-114074580D01*
X93502268Y-113503152D02*
X93502268Y-114169819D01*
X93740363Y-113122200D02*
X93978458Y-113836485D01*
X93978458Y-113836485D02*
X93359411Y-113836485D01*
X92835601Y-113598390D02*
X92930839Y-113550771D01*
X92930839Y-113550771D02*
X92978458Y-113503152D01*
X92978458Y-113503152D02*
X93026077Y-113407914D01*
X93026077Y-113407914D02*
X93026077Y-113360295D01*
X93026077Y-113360295D02*
X92978458Y-113265057D01*
X92978458Y-113265057D02*
X92930839Y-113217438D01*
X92930839Y-113217438D02*
X92835601Y-113169819D01*
X92835601Y-113169819D02*
X92645125Y-113169819D01*
X92645125Y-113169819D02*
X92549887Y-113217438D01*
X92549887Y-113217438D02*
X92502268Y-113265057D01*
X92502268Y-113265057D02*
X92454649Y-113360295D01*
X92454649Y-113360295D02*
X92454649Y-113407914D01*
X92454649Y-113407914D02*
X92502268Y-113503152D01*
X92502268Y-113503152D02*
X92549887Y-113550771D01*
X92549887Y-113550771D02*
X92645125Y-113598390D01*
X92645125Y-113598390D02*
X92835601Y-113598390D01*
X92835601Y-113598390D02*
X92930839Y-113646009D01*
X92930839Y-113646009D02*
X92978458Y-113693628D01*
X92978458Y-113693628D02*
X93026077Y-113788866D01*
X93026077Y-113788866D02*
X93026077Y-113979342D01*
X93026077Y-113979342D02*
X92978458Y-114074580D01*
X92978458Y-114074580D02*
X92930839Y-114122200D01*
X92930839Y-114122200D02*
X92835601Y-114169819D01*
X92835601Y-114169819D02*
X92645125Y-114169819D01*
X92645125Y-114169819D02*
X92549887Y-114122200D01*
X92549887Y-114122200D02*
X92502268Y-114074580D01*
X92502268Y-114074580D02*
X92454649Y-113979342D01*
X92454649Y-113979342D02*
X92454649Y-113788866D01*
X92454649Y-113788866D02*
X92502268Y-113693628D01*
X92502268Y-113693628D02*
X92549887Y-113646009D01*
X92549887Y-113646009D02*
X92645125Y-113598390D01*
X67098357Y-83496733D02*
X67098357Y-82496733D01*
X66526929Y-83496733D02*
X66955500Y-82925304D01*
X66526929Y-82496733D02*
X67098357Y-83068161D01*
X95531904Y-106234819D02*
X94960476Y-106234819D01*
X95246190Y-107234819D02*
X95246190Y-106234819D01*
X94674761Y-106330057D02*
X94627142Y-106282438D01*
X94627142Y-106282438D02*
X94531904Y-106234819D01*
X94531904Y-106234819D02*
X94293809Y-106234819D01*
X94293809Y-106234819D02*
X94198571Y-106282438D01*
X94198571Y-106282438D02*
X94150952Y-106330057D01*
X94150952Y-106330057D02*
X94103333Y-106425295D01*
X94103333Y-106425295D02*
X94103333Y-106520533D01*
X94103333Y-106520533D02*
X94150952Y-106663390D01*
X94150952Y-106663390D02*
X94722380Y-107234819D01*
X94722380Y-107234819D02*
X94103333Y-107234819D01*
X43211904Y-106174819D02*
X42640476Y-106174819D01*
X42926190Y-107174819D02*
X42926190Y-106174819D01*
X41783333Y-107174819D02*
X42354761Y-107174819D01*
X42069047Y-107174819D02*
X42069047Y-106174819D01*
X42069047Y-106174819D02*
X42164285Y-106317676D01*
X42164285Y-106317676D02*
X42259523Y-106412914D01*
X42259523Y-106412914D02*
X42354761Y-106460533D01*
X77238752Y-53916733D02*
X77572085Y-53440542D01*
X77810180Y-53916733D02*
X77810180Y-52916733D01*
X77810180Y-52916733D02*
X77429228Y-52916733D01*
X77429228Y-52916733D02*
X77333990Y-52964352D01*
X77333990Y-52964352D02*
X77286371Y-53011971D01*
X77286371Y-53011971D02*
X77238752Y-53107209D01*
X77238752Y-53107209D02*
X77238752Y-53250066D01*
X77238752Y-53250066D02*
X77286371Y-53345304D01*
X77286371Y-53345304D02*
X77333990Y-53392923D01*
X77333990Y-53392923D02*
X77429228Y-53440542D01*
X77429228Y-53440542D02*
X77810180Y-53440542D01*
X76381609Y-52916733D02*
X76572085Y-52916733D01*
X76572085Y-52916733D02*
X76667323Y-52964352D01*
X76667323Y-52964352D02*
X76714942Y-53011971D01*
X76714942Y-53011971D02*
X76810180Y-53154828D01*
X76810180Y-53154828D02*
X76857799Y-53345304D01*
X76857799Y-53345304D02*
X76857799Y-53726256D01*
X76857799Y-53726256D02*
X76810180Y-53821494D01*
X76810180Y-53821494D02*
X76762561Y-53869114D01*
X76762561Y-53869114D02*
X76667323Y-53916733D01*
X76667323Y-53916733D02*
X76476847Y-53916733D01*
X76476847Y-53916733D02*
X76381609Y-53869114D01*
X76381609Y-53869114D02*
X76333990Y-53821494D01*
X76333990Y-53821494D02*
X76286371Y-53726256D01*
X76286371Y-53726256D02*
X76286371Y-53488161D01*
X76286371Y-53488161D02*
X76333990Y-53392923D01*
X76333990Y-53392923D02*
X76381609Y-53345304D01*
X76381609Y-53345304D02*
X76476847Y-53297685D01*
X76476847Y-53297685D02*
X76667323Y-53297685D01*
X76667323Y-53297685D02*
X76762561Y-53345304D01*
X76762561Y-53345304D02*
X76810180Y-53392923D01*
X76810180Y-53392923D02*
X76857799Y-53488161D01*
X69662562Y-53716733D02*
X70233990Y-53716733D01*
X69948276Y-53716733D02*
X69948276Y-52716733D01*
X69948276Y-52716733D02*
X70043514Y-52859590D01*
X70043514Y-52859590D02*
X70138752Y-52954828D01*
X70138752Y-52954828D02*
X70233990Y-53002447D01*
X69043514Y-52716733D02*
X68948276Y-52716733D01*
X68948276Y-52716733D02*
X68853038Y-52764352D01*
X68853038Y-52764352D02*
X68805419Y-52811971D01*
X68805419Y-52811971D02*
X68757800Y-52907209D01*
X68757800Y-52907209D02*
X68710181Y-53097685D01*
X68710181Y-53097685D02*
X68710181Y-53335780D01*
X68710181Y-53335780D02*
X68757800Y-53526256D01*
X68757800Y-53526256D02*
X68805419Y-53621494D01*
X68805419Y-53621494D02*
X68853038Y-53669114D01*
X68853038Y-53669114D02*
X68948276Y-53716733D01*
X68948276Y-53716733D02*
X69043514Y-53716733D01*
X69043514Y-53716733D02*
X69138752Y-53669114D01*
X69138752Y-53669114D02*
X69186371Y-53621494D01*
X69186371Y-53621494D02*
X69233990Y-53526256D01*
X69233990Y-53526256D02*
X69281609Y-53335780D01*
X69281609Y-53335780D02*
X69281609Y-53097685D01*
X69281609Y-53097685D02*
X69233990Y-52907209D01*
X69233990Y-52907209D02*
X69186371Y-52811971D01*
X69186371Y-52811971D02*
X69138752Y-52764352D01*
X69138752Y-52764352D02*
X69043514Y-52716733D01*
X67710181Y-53716733D02*
X68043514Y-53240542D01*
X68281609Y-53716733D02*
X68281609Y-52716733D01*
X68281609Y-52716733D02*
X67900657Y-52716733D01*
X67900657Y-52716733D02*
X67805419Y-52764352D01*
X67805419Y-52764352D02*
X67757800Y-52811971D01*
X67757800Y-52811971D02*
X67710181Y-52907209D01*
X67710181Y-52907209D02*
X67710181Y-53050066D01*
X67710181Y-53050066D02*
X67757800Y-53145304D01*
X67757800Y-53145304D02*
X67805419Y-53192923D01*
X67805419Y-53192923D02*
X67900657Y-53240542D01*
X67900657Y-53240542D02*
X68281609Y-53240542D01*
X37279286Y-78660009D02*
X37326905Y-78802866D01*
X37326905Y-78802866D02*
X37326905Y-79040961D01*
X37326905Y-79040961D02*
X37279286Y-79136199D01*
X37279286Y-79136199D02*
X37231666Y-79183818D01*
X37231666Y-79183818D02*
X37136428Y-79231437D01*
X37136428Y-79231437D02*
X37041190Y-79231437D01*
X37041190Y-79231437D02*
X36945952Y-79183818D01*
X36945952Y-79183818D02*
X36898333Y-79136199D01*
X36898333Y-79136199D02*
X36850714Y-79040961D01*
X36850714Y-79040961D02*
X36803095Y-78850485D01*
X36803095Y-78850485D02*
X36755476Y-78755247D01*
X36755476Y-78755247D02*
X36707857Y-78707628D01*
X36707857Y-78707628D02*
X36612619Y-78660009D01*
X36612619Y-78660009D02*
X36517381Y-78660009D01*
X36517381Y-78660009D02*
X36422143Y-78707628D01*
X36422143Y-78707628D02*
X36374524Y-78755247D01*
X36374524Y-78755247D02*
X36326905Y-78850485D01*
X36326905Y-78850485D02*
X36326905Y-79088580D01*
X36326905Y-79088580D02*
X36374524Y-79231437D01*
X37326905Y-80183818D02*
X37326905Y-79612390D01*
X37326905Y-79898104D02*
X36326905Y-79898104D01*
X36326905Y-79898104D02*
X36469762Y-79802866D01*
X36469762Y-79802866D02*
X36565000Y-79707628D01*
X36565000Y-79707628D02*
X36612619Y-79612390D01*
X77238752Y-41716733D02*
X77572085Y-41240542D01*
X77810180Y-41716733D02*
X77810180Y-40716733D01*
X77810180Y-40716733D02*
X77429228Y-40716733D01*
X77429228Y-40716733D02*
X77333990Y-40764352D01*
X77333990Y-40764352D02*
X77286371Y-40811971D01*
X77286371Y-40811971D02*
X77238752Y-40907209D01*
X77238752Y-40907209D02*
X77238752Y-41050066D01*
X77238752Y-41050066D02*
X77286371Y-41145304D01*
X77286371Y-41145304D02*
X77333990Y-41192923D01*
X77333990Y-41192923D02*
X77429228Y-41240542D01*
X77429228Y-41240542D02*
X77810180Y-41240542D01*
X76905418Y-40716733D02*
X76286371Y-40716733D01*
X76286371Y-40716733D02*
X76619704Y-41097685D01*
X76619704Y-41097685D02*
X76476847Y-41097685D01*
X76476847Y-41097685D02*
X76381609Y-41145304D01*
X76381609Y-41145304D02*
X76333990Y-41192923D01*
X76333990Y-41192923D02*
X76286371Y-41288161D01*
X76286371Y-41288161D02*
X76286371Y-41526256D01*
X76286371Y-41526256D02*
X76333990Y-41621494D01*
X76333990Y-41621494D02*
X76381609Y-41669114D01*
X76381609Y-41669114D02*
X76476847Y-41716733D01*
X76476847Y-41716733D02*
X76762561Y-41716733D01*
X76762561Y-41716733D02*
X76857799Y-41669114D01*
X76857799Y-41669114D02*
X76905418Y-41621494D01*
X69491133Y-40816733D02*
X69967323Y-40816733D01*
X69967323Y-40816733D02*
X70014942Y-41292923D01*
X70014942Y-41292923D02*
X69967323Y-41245304D01*
X69967323Y-41245304D02*
X69872085Y-41197685D01*
X69872085Y-41197685D02*
X69633990Y-41197685D01*
X69633990Y-41197685D02*
X69538752Y-41245304D01*
X69538752Y-41245304D02*
X69491133Y-41292923D01*
X69491133Y-41292923D02*
X69443514Y-41388161D01*
X69443514Y-41388161D02*
X69443514Y-41626256D01*
X69443514Y-41626256D02*
X69491133Y-41721494D01*
X69491133Y-41721494D02*
X69538752Y-41769114D01*
X69538752Y-41769114D02*
X69633990Y-41816733D01*
X69633990Y-41816733D02*
X69872085Y-41816733D01*
X69872085Y-41816733D02*
X69967323Y-41769114D01*
X69967323Y-41769114D02*
X70014942Y-41721494D01*
X68586371Y-40816733D02*
X68776847Y-40816733D01*
X68776847Y-40816733D02*
X68872085Y-40864352D01*
X68872085Y-40864352D02*
X68919704Y-40911971D01*
X68919704Y-40911971D02*
X69014942Y-41054828D01*
X69014942Y-41054828D02*
X69062561Y-41245304D01*
X69062561Y-41245304D02*
X69062561Y-41626256D01*
X69062561Y-41626256D02*
X69014942Y-41721494D01*
X69014942Y-41721494D02*
X68967323Y-41769114D01*
X68967323Y-41769114D02*
X68872085Y-41816733D01*
X68872085Y-41816733D02*
X68681609Y-41816733D01*
X68681609Y-41816733D02*
X68586371Y-41769114D01*
X68586371Y-41769114D02*
X68538752Y-41721494D01*
X68538752Y-41721494D02*
X68491133Y-41626256D01*
X68491133Y-41626256D02*
X68491133Y-41388161D01*
X68491133Y-41388161D02*
X68538752Y-41292923D01*
X68538752Y-41292923D02*
X68586371Y-41245304D01*
X68586371Y-41245304D02*
X68681609Y-41197685D01*
X68681609Y-41197685D02*
X68872085Y-41197685D01*
X68872085Y-41197685D02*
X68967323Y-41245304D01*
X68967323Y-41245304D02*
X69014942Y-41292923D01*
X69014942Y-41292923D02*
X69062561Y-41388161D01*
X67872085Y-40816733D02*
X67776847Y-40816733D01*
X67776847Y-40816733D02*
X67681609Y-40864352D01*
X67681609Y-40864352D02*
X67633990Y-40911971D01*
X67633990Y-40911971D02*
X67586371Y-41007209D01*
X67586371Y-41007209D02*
X67538752Y-41197685D01*
X67538752Y-41197685D02*
X67538752Y-41435780D01*
X67538752Y-41435780D02*
X67586371Y-41626256D01*
X67586371Y-41626256D02*
X67633990Y-41721494D01*
X67633990Y-41721494D02*
X67681609Y-41769114D01*
X67681609Y-41769114D02*
X67776847Y-41816733D01*
X67776847Y-41816733D02*
X67872085Y-41816733D01*
X67872085Y-41816733D02*
X67967323Y-41769114D01*
X67967323Y-41769114D02*
X68014942Y-41721494D01*
X68014942Y-41721494D02*
X68062561Y-41626256D01*
X68062561Y-41626256D02*
X68110180Y-41435780D01*
X68110180Y-41435780D02*
X68110180Y-41197685D01*
X68110180Y-41197685D02*
X68062561Y-41007209D01*
X68062561Y-41007209D02*
X68014942Y-40911971D01*
X68014942Y-40911971D02*
X67967323Y-40864352D01*
X67967323Y-40864352D02*
X67872085Y-40816733D01*
X67110180Y-41816733D02*
X67110180Y-40816733D01*
X67014942Y-41435780D02*
X66729228Y-41816733D01*
X66729228Y-41150066D02*
X67110180Y-41531018D01*
X33610180Y-109616733D02*
X33610180Y-108616733D01*
X33610180Y-108616733D02*
X33372085Y-108616733D01*
X33372085Y-108616733D02*
X33229228Y-108664352D01*
X33229228Y-108664352D02*
X33133990Y-108759590D01*
X33133990Y-108759590D02*
X33086371Y-108854828D01*
X33086371Y-108854828D02*
X33038752Y-109045304D01*
X33038752Y-109045304D02*
X33038752Y-109188161D01*
X33038752Y-109188161D02*
X33086371Y-109378637D01*
X33086371Y-109378637D02*
X33133990Y-109473875D01*
X33133990Y-109473875D02*
X33229228Y-109569114D01*
X33229228Y-109569114D02*
X33372085Y-109616733D01*
X33372085Y-109616733D02*
X33610180Y-109616733D01*
X32705418Y-108616733D02*
X32086371Y-108616733D01*
X32086371Y-108616733D02*
X32419704Y-108997685D01*
X32419704Y-108997685D02*
X32276847Y-108997685D01*
X32276847Y-108997685D02*
X32181609Y-109045304D01*
X32181609Y-109045304D02*
X32133990Y-109092923D01*
X32133990Y-109092923D02*
X32086371Y-109188161D01*
X32086371Y-109188161D02*
X32086371Y-109426256D01*
X32086371Y-109426256D02*
X32133990Y-109521494D01*
X32133990Y-109521494D02*
X32181609Y-109569114D01*
X32181609Y-109569114D02*
X32276847Y-109616733D01*
X32276847Y-109616733D02*
X32562561Y-109616733D01*
X32562561Y-109616733D02*
X32657799Y-109569114D01*
X32657799Y-109569114D02*
X32705418Y-109521494D01*
X35414943Y-111736733D02*
X35986371Y-111736733D01*
X35700657Y-111736733D02*
X35700657Y-110736733D01*
X35700657Y-110736733D02*
X35795895Y-110879590D01*
X35795895Y-110879590D02*
X35891133Y-110974828D01*
X35891133Y-110974828D02*
X35986371Y-111022447D01*
X34986371Y-111736733D02*
X34986371Y-110736733D01*
X34986371Y-110736733D02*
X34414943Y-111736733D01*
X34414943Y-111736733D02*
X34414943Y-110736733D01*
X33510181Y-111070066D02*
X33510181Y-111736733D01*
X33748276Y-110689114D02*
X33986371Y-111403399D01*
X33986371Y-111403399D02*
X33367324Y-111403399D01*
X32462562Y-111736733D02*
X33033990Y-111736733D01*
X32748276Y-111736733D02*
X32748276Y-110736733D01*
X32748276Y-110736733D02*
X32843514Y-110879590D01*
X32843514Y-110879590D02*
X32938752Y-110974828D01*
X32938752Y-110974828D02*
X33033990Y-111022447D01*
X31605419Y-111070066D02*
X31605419Y-111736733D01*
X31843514Y-110689114D02*
X32081609Y-111403399D01*
X32081609Y-111403399D02*
X31462562Y-111403399D01*
X30938752Y-111165304D02*
X31033990Y-111117685D01*
X31033990Y-111117685D02*
X31081609Y-111070066D01*
X31081609Y-111070066D02*
X31129228Y-110974828D01*
X31129228Y-110974828D02*
X31129228Y-110927209D01*
X31129228Y-110927209D02*
X31081609Y-110831971D01*
X31081609Y-110831971D02*
X31033990Y-110784352D01*
X31033990Y-110784352D02*
X30938752Y-110736733D01*
X30938752Y-110736733D02*
X30748276Y-110736733D01*
X30748276Y-110736733D02*
X30653038Y-110784352D01*
X30653038Y-110784352D02*
X30605419Y-110831971D01*
X30605419Y-110831971D02*
X30557800Y-110927209D01*
X30557800Y-110927209D02*
X30557800Y-110974828D01*
X30557800Y-110974828D02*
X30605419Y-111070066D01*
X30605419Y-111070066D02*
X30653038Y-111117685D01*
X30653038Y-111117685D02*
X30748276Y-111165304D01*
X30748276Y-111165304D02*
X30938752Y-111165304D01*
X30938752Y-111165304D02*
X31033990Y-111212923D01*
X31033990Y-111212923D02*
X31081609Y-111260542D01*
X31081609Y-111260542D02*
X31129228Y-111355780D01*
X31129228Y-111355780D02*
X31129228Y-111546256D01*
X31129228Y-111546256D02*
X31081609Y-111641494D01*
X31081609Y-111641494D02*
X31033990Y-111689114D01*
X31033990Y-111689114D02*
X30938752Y-111736733D01*
X30938752Y-111736733D02*
X30748276Y-111736733D01*
X30748276Y-111736733D02*
X30653038Y-111689114D01*
X30653038Y-111689114D02*
X30605419Y-111641494D01*
X30605419Y-111641494D02*
X30557800Y-111546256D01*
X30557800Y-111546256D02*
X30557800Y-111355780D01*
X30557800Y-111355780D02*
X30605419Y-111260542D01*
X30605419Y-111260542D02*
X30653038Y-111212923D01*
X30653038Y-111212923D02*
X30748276Y-111165304D01*
X37343990Y-107816733D02*
X37343990Y-106816733D01*
X36772562Y-107816733D02*
X37201133Y-107245304D01*
X36772562Y-106816733D02*
X37343990Y-107388161D01*
X77238752Y-49816733D02*
X77572085Y-49340542D01*
X77810180Y-49816733D02*
X77810180Y-48816733D01*
X77810180Y-48816733D02*
X77429228Y-48816733D01*
X77429228Y-48816733D02*
X77333990Y-48864352D01*
X77333990Y-48864352D02*
X77286371Y-48911971D01*
X77286371Y-48911971D02*
X77238752Y-49007209D01*
X77238752Y-49007209D02*
X77238752Y-49150066D01*
X77238752Y-49150066D02*
X77286371Y-49245304D01*
X77286371Y-49245304D02*
X77333990Y-49292923D01*
X77333990Y-49292923D02*
X77429228Y-49340542D01*
X77429228Y-49340542D02*
X77810180Y-49340542D01*
X76333990Y-48816733D02*
X76810180Y-48816733D01*
X76810180Y-48816733D02*
X76857799Y-49292923D01*
X76857799Y-49292923D02*
X76810180Y-49245304D01*
X76810180Y-49245304D02*
X76714942Y-49197685D01*
X76714942Y-49197685D02*
X76476847Y-49197685D01*
X76476847Y-49197685D02*
X76381609Y-49245304D01*
X76381609Y-49245304D02*
X76333990Y-49292923D01*
X76333990Y-49292923D02*
X76286371Y-49388161D01*
X76286371Y-49388161D02*
X76286371Y-49626256D01*
X76286371Y-49626256D02*
X76333990Y-49721494D01*
X76333990Y-49721494D02*
X76381609Y-49769114D01*
X76381609Y-49769114D02*
X76476847Y-49816733D01*
X76476847Y-49816733D02*
X76714942Y-49816733D01*
X76714942Y-49816733D02*
X76810180Y-49769114D01*
X76810180Y-49769114D02*
X76857799Y-49721494D01*
X69462562Y-49350066D02*
X69462562Y-50016733D01*
X69700657Y-48969114D02*
X69938752Y-49683399D01*
X69938752Y-49683399D02*
X69319705Y-49683399D01*
X68938752Y-50016733D02*
X68938752Y-49016733D01*
X68843514Y-49635780D02*
X68557800Y-50016733D01*
X68557800Y-49350066D02*
X68938752Y-49731018D01*
X68224466Y-49016733D02*
X67557800Y-49016733D01*
X67557800Y-49016733D02*
X67986371Y-50016733D01*
X58223990Y-36116733D02*
X58223990Y-36926256D01*
X58223990Y-36926256D02*
X58176371Y-37021494D01*
X58176371Y-37021494D02*
X58128752Y-37069114D01*
X58128752Y-37069114D02*
X58033514Y-37116733D01*
X58033514Y-37116733D02*
X57843038Y-37116733D01*
X57843038Y-37116733D02*
X57747800Y-37069114D01*
X57747800Y-37069114D02*
X57700181Y-37021494D01*
X57700181Y-37021494D02*
X57652562Y-36926256D01*
X57652562Y-36926256D02*
X57652562Y-36116733D01*
X56652562Y-37116733D02*
X57223990Y-37116733D01*
X56938276Y-37116733D02*
X56938276Y-36116733D01*
X56938276Y-36116733D02*
X57033514Y-36259590D01*
X57033514Y-36259590D02*
X57128752Y-36354828D01*
X57128752Y-36354828D02*
X57223990Y-36402447D01*
X60338752Y-44116733D02*
X60338752Y-43116733D01*
X60338752Y-43116733D02*
X59767324Y-44116733D01*
X59767324Y-44116733D02*
X59767324Y-43116733D01*
X59291133Y-43592923D02*
X58957800Y-43592923D01*
X58814943Y-44116733D02*
X59291133Y-44116733D01*
X59291133Y-44116733D02*
X59291133Y-43116733D01*
X59291133Y-43116733D02*
X58814943Y-43116733D01*
X57910181Y-43116733D02*
X58386371Y-43116733D01*
X58386371Y-43116733D02*
X58433990Y-43592923D01*
X58433990Y-43592923D02*
X58386371Y-43545304D01*
X58386371Y-43545304D02*
X58291133Y-43497685D01*
X58291133Y-43497685D02*
X58053038Y-43497685D01*
X58053038Y-43497685D02*
X57957800Y-43545304D01*
X57957800Y-43545304D02*
X57910181Y-43592923D01*
X57910181Y-43592923D02*
X57862562Y-43688161D01*
X57862562Y-43688161D02*
X57862562Y-43926256D01*
X57862562Y-43926256D02*
X57910181Y-44021494D01*
X57910181Y-44021494D02*
X57957800Y-44069114D01*
X57957800Y-44069114D02*
X58053038Y-44116733D01*
X58053038Y-44116733D02*
X58291133Y-44116733D01*
X58291133Y-44116733D02*
X58386371Y-44069114D01*
X58386371Y-44069114D02*
X58433990Y-44021494D01*
X56957800Y-43116733D02*
X57433990Y-43116733D01*
X57433990Y-43116733D02*
X57481609Y-43592923D01*
X57481609Y-43592923D02*
X57433990Y-43545304D01*
X57433990Y-43545304D02*
X57338752Y-43497685D01*
X57338752Y-43497685D02*
X57100657Y-43497685D01*
X57100657Y-43497685D02*
X57005419Y-43545304D01*
X57005419Y-43545304D02*
X56957800Y-43592923D01*
X56957800Y-43592923D02*
X56910181Y-43688161D01*
X56910181Y-43688161D02*
X56910181Y-43926256D01*
X56910181Y-43926256D02*
X56957800Y-44021494D01*
X56957800Y-44021494D02*
X57005419Y-44069114D01*
X57005419Y-44069114D02*
X57100657Y-44116733D01*
X57100657Y-44116733D02*
X57338752Y-44116733D01*
X57338752Y-44116733D02*
X57433990Y-44069114D01*
X57433990Y-44069114D02*
X57481609Y-44021494D01*
X56005419Y-43116733D02*
X56481609Y-43116733D01*
X56481609Y-43116733D02*
X56529228Y-43592923D01*
X56529228Y-43592923D02*
X56481609Y-43545304D01*
X56481609Y-43545304D02*
X56386371Y-43497685D01*
X56386371Y-43497685D02*
X56148276Y-43497685D01*
X56148276Y-43497685D02*
X56053038Y-43545304D01*
X56053038Y-43545304D02*
X56005419Y-43592923D01*
X56005419Y-43592923D02*
X55957800Y-43688161D01*
X55957800Y-43688161D02*
X55957800Y-43926256D01*
X55957800Y-43926256D02*
X56005419Y-44021494D01*
X56005419Y-44021494D02*
X56053038Y-44069114D01*
X56053038Y-44069114D02*
X56148276Y-44116733D01*
X56148276Y-44116733D02*
X56386371Y-44116733D01*
X56386371Y-44116733D02*
X56481609Y-44069114D01*
X56481609Y-44069114D02*
X56529228Y-44021494D01*
X55529228Y-44116733D02*
X55529228Y-43116733D01*
X55529228Y-43116733D02*
X55148276Y-43116733D01*
X55148276Y-43116733D02*
X55053038Y-43164352D01*
X55053038Y-43164352D02*
X55005419Y-43211971D01*
X55005419Y-43211971D02*
X54957800Y-43307209D01*
X54957800Y-43307209D02*
X54957800Y-43450066D01*
X54957800Y-43450066D02*
X55005419Y-43545304D01*
X55005419Y-43545304D02*
X55053038Y-43592923D01*
X55053038Y-43592923D02*
X55148276Y-43640542D01*
X55148276Y-43640542D02*
X55529228Y-43640542D01*
X107603324Y-101516733D02*
X108174752Y-101516733D01*
X107889038Y-101516733D02*
X107889038Y-100516733D01*
X107889038Y-100516733D02*
X107984276Y-100659590D01*
X107984276Y-100659590D02*
X108079514Y-100754828D01*
X108079514Y-100754828D02*
X108174752Y-100802447D01*
X106984276Y-100516733D02*
X106889038Y-100516733D01*
X106889038Y-100516733D02*
X106793800Y-100564352D01*
X106793800Y-100564352D02*
X106746181Y-100611971D01*
X106746181Y-100611971D02*
X106698562Y-100707209D01*
X106698562Y-100707209D02*
X106650943Y-100897685D01*
X106650943Y-100897685D02*
X106650943Y-101135780D01*
X106650943Y-101135780D02*
X106698562Y-101326256D01*
X106698562Y-101326256D02*
X106746181Y-101421494D01*
X106746181Y-101421494D02*
X106793800Y-101469114D01*
X106793800Y-101469114D02*
X106889038Y-101516733D01*
X106889038Y-101516733D02*
X106984276Y-101516733D01*
X106984276Y-101516733D02*
X107079514Y-101469114D01*
X107079514Y-101469114D02*
X107127133Y-101421494D01*
X107127133Y-101421494D02*
X107174752Y-101326256D01*
X107174752Y-101326256D02*
X107222371Y-101135780D01*
X107222371Y-101135780D02*
X107222371Y-100897685D01*
X107222371Y-100897685D02*
X107174752Y-100707209D01*
X107174752Y-100707209D02*
X107127133Y-100611971D01*
X107127133Y-100611971D02*
X107079514Y-100564352D01*
X107079514Y-100564352D02*
X106984276Y-100516733D01*
X106222371Y-101516733D02*
X106222371Y-100516733D01*
X106127133Y-101135780D02*
X105841419Y-101516733D01*
X105841419Y-100850066D02*
X106222371Y-101231018D01*
D11*
X56572105Y-59406199D02*
X57381628Y-59406199D01*
X57381628Y-59406199D02*
X57476866Y-59449056D01*
X57476866Y-59449056D02*
X57524486Y-59491914D01*
X57524486Y-59491914D02*
X57572105Y-59577628D01*
X57572105Y-59577628D02*
X57572105Y-59749056D01*
X57572105Y-59749056D02*
X57524486Y-59834771D01*
X57524486Y-59834771D02*
X57476866Y-59877628D01*
X57476866Y-59877628D02*
X57381628Y-59920485D01*
X57381628Y-59920485D02*
X56572105Y-59920485D01*
X56667343Y-60306199D02*
X56619724Y-60349056D01*
X56619724Y-60349056D02*
X56572105Y-60434771D01*
X56572105Y-60434771D02*
X56572105Y-60649056D01*
X56572105Y-60649056D02*
X56619724Y-60734771D01*
X56619724Y-60734771D02*
X56667343Y-60777628D01*
X56667343Y-60777628D02*
X56762581Y-60820485D01*
X56762581Y-60820485D02*
X56857819Y-60820485D01*
X56857819Y-60820485D02*
X57000676Y-60777628D01*
X57000676Y-60777628D02*
X57572105Y-60263342D01*
X57572105Y-60263342D02*
X57572105Y-60820485D01*
X52928295Y-51313343D02*
X52975914Y-51441915D01*
X52975914Y-51441915D02*
X53023533Y-51484772D01*
X53023533Y-51484772D02*
X53118771Y-51527629D01*
X53118771Y-51527629D02*
X53261628Y-51527629D01*
X53261628Y-51527629D02*
X53356866Y-51484772D01*
X53356866Y-51484772D02*
X53404486Y-51441915D01*
X53404486Y-51441915D02*
X53452105Y-51356200D01*
X53452105Y-51356200D02*
X53452105Y-51013343D01*
X53452105Y-51013343D02*
X52452105Y-51013343D01*
X52452105Y-51013343D02*
X52452105Y-51313343D01*
X52452105Y-51313343D02*
X52499724Y-51399058D01*
X52499724Y-51399058D02*
X52547343Y-51441915D01*
X52547343Y-51441915D02*
X52642581Y-51484772D01*
X52642581Y-51484772D02*
X52737819Y-51484772D01*
X52737819Y-51484772D02*
X52833057Y-51441915D01*
X52833057Y-51441915D02*
X52880676Y-51399058D01*
X52880676Y-51399058D02*
X52928295Y-51313343D01*
X52928295Y-51313343D02*
X52928295Y-51013343D01*
X53166390Y-51870486D02*
X53166390Y-52299058D01*
X53452105Y-51784772D02*
X52452105Y-52084772D01*
X52452105Y-52084772D02*
X53452105Y-52384772D01*
X52452105Y-52556201D02*
X52452105Y-53070487D01*
X53452105Y-52813344D02*
X52452105Y-52813344D01*
X53547343Y-53156201D02*
X53547343Y-53841915D01*
X53452105Y-54056200D02*
X52452105Y-54056200D01*
X52928295Y-54056200D02*
X52928295Y-54570486D01*
X53452105Y-54570486D02*
X52452105Y-54570486D01*
X53452105Y-55427629D02*
X53452105Y-54999057D01*
X53452105Y-54999057D02*
X52452105Y-54999057D01*
X53452105Y-55727628D02*
X52452105Y-55727628D01*
X52452105Y-55727628D02*
X52452105Y-55941914D01*
X52452105Y-55941914D02*
X52499724Y-56070485D01*
X52499724Y-56070485D02*
X52594962Y-56156200D01*
X52594962Y-56156200D02*
X52690200Y-56199057D01*
X52690200Y-56199057D02*
X52880676Y-56241914D01*
X52880676Y-56241914D02*
X53023533Y-56241914D01*
X53023533Y-56241914D02*
X53214009Y-56199057D01*
X53214009Y-56199057D02*
X53309247Y-56156200D01*
X53309247Y-56156200D02*
X53404486Y-56070485D01*
X53404486Y-56070485D02*
X53452105Y-55941914D01*
X53452105Y-55941914D02*
X53452105Y-55727628D01*
X53547343Y-56413343D02*
X53547343Y-57099057D01*
X53404486Y-57270485D02*
X53452105Y-57399057D01*
X53452105Y-57399057D02*
X53452105Y-57613342D01*
X53452105Y-57613342D02*
X53404486Y-57699057D01*
X53404486Y-57699057D02*
X53356866Y-57741914D01*
X53356866Y-57741914D02*
X53261628Y-57784771D01*
X53261628Y-57784771D02*
X53166390Y-57784771D01*
X53166390Y-57784771D02*
X53071152Y-57741914D01*
X53071152Y-57741914D02*
X53023533Y-57699057D01*
X53023533Y-57699057D02*
X52975914Y-57613342D01*
X52975914Y-57613342D02*
X52928295Y-57441914D01*
X52928295Y-57441914D02*
X52880676Y-57356199D01*
X52880676Y-57356199D02*
X52833057Y-57313342D01*
X52833057Y-57313342D02*
X52737819Y-57270485D01*
X52737819Y-57270485D02*
X52642581Y-57270485D01*
X52642581Y-57270485D02*
X52547343Y-57313342D01*
X52547343Y-57313342D02*
X52499724Y-57356199D01*
X52499724Y-57356199D02*
X52452105Y-57441914D01*
X52452105Y-57441914D02*
X52452105Y-57656199D01*
X52452105Y-57656199D02*
X52499724Y-57784771D01*
X53452105Y-58170485D02*
X52452105Y-58170485D01*
X52452105Y-58170485D02*
X53166390Y-58470485D01*
X53166390Y-58470485D02*
X52452105Y-58770485D01*
X52452105Y-58770485D02*
X53452105Y-58770485D01*
X53452105Y-59199056D02*
X52452105Y-59199056D01*
X52452105Y-59199056D02*
X52452105Y-59413342D01*
X52452105Y-59413342D02*
X52499724Y-59541913D01*
X52499724Y-59541913D02*
X52594962Y-59627628D01*
X52594962Y-59627628D02*
X52690200Y-59670485D01*
X52690200Y-59670485D02*
X52880676Y-59713342D01*
X52880676Y-59713342D02*
X53023533Y-59713342D01*
X53023533Y-59713342D02*
X53214009Y-59670485D01*
X53214009Y-59670485D02*
X53309247Y-59627628D01*
X53309247Y-59627628D02*
X53404486Y-59541913D01*
X53404486Y-59541913D02*
X53452105Y-59413342D01*
X53452105Y-59413342D02*
X53452105Y-59199056D01*
D10*
X77238752Y-45716733D02*
X77572085Y-45240542D01*
X77810180Y-45716733D02*
X77810180Y-44716733D01*
X77810180Y-44716733D02*
X77429228Y-44716733D01*
X77429228Y-44716733D02*
X77333990Y-44764352D01*
X77333990Y-44764352D02*
X77286371Y-44811971D01*
X77286371Y-44811971D02*
X77238752Y-44907209D01*
X77238752Y-44907209D02*
X77238752Y-45050066D01*
X77238752Y-45050066D02*
X77286371Y-45145304D01*
X77286371Y-45145304D02*
X77333990Y-45192923D01*
X77333990Y-45192923D02*
X77429228Y-45240542D01*
X77429228Y-45240542D02*
X77810180Y-45240542D01*
X76381609Y-45050066D02*
X76381609Y-45716733D01*
X76619704Y-44669114D02*
X76857799Y-45383399D01*
X76857799Y-45383399D02*
X76238752Y-45383399D01*
X70062561Y-44816733D02*
X69443514Y-44816733D01*
X69443514Y-44816733D02*
X69776847Y-45197685D01*
X69776847Y-45197685D02*
X69633990Y-45197685D01*
X69633990Y-45197685D02*
X69538752Y-45245304D01*
X69538752Y-45245304D02*
X69491133Y-45292923D01*
X69491133Y-45292923D02*
X69443514Y-45388161D01*
X69443514Y-45388161D02*
X69443514Y-45626256D01*
X69443514Y-45626256D02*
X69491133Y-45721494D01*
X69491133Y-45721494D02*
X69538752Y-45769114D01*
X69538752Y-45769114D02*
X69633990Y-45816733D01*
X69633990Y-45816733D02*
X69919704Y-45816733D01*
X69919704Y-45816733D02*
X70014942Y-45769114D01*
X70014942Y-45769114D02*
X70062561Y-45721494D01*
X68967323Y-45816733D02*
X68776847Y-45816733D01*
X68776847Y-45816733D02*
X68681609Y-45769114D01*
X68681609Y-45769114D02*
X68633990Y-45721494D01*
X68633990Y-45721494D02*
X68538752Y-45578637D01*
X68538752Y-45578637D02*
X68491133Y-45388161D01*
X68491133Y-45388161D02*
X68491133Y-45007209D01*
X68491133Y-45007209D02*
X68538752Y-44911971D01*
X68538752Y-44911971D02*
X68586371Y-44864352D01*
X68586371Y-44864352D02*
X68681609Y-44816733D01*
X68681609Y-44816733D02*
X68872085Y-44816733D01*
X68872085Y-44816733D02*
X68967323Y-44864352D01*
X68967323Y-44864352D02*
X69014942Y-44911971D01*
X69014942Y-44911971D02*
X69062561Y-45007209D01*
X69062561Y-45007209D02*
X69062561Y-45245304D01*
X69062561Y-45245304D02*
X69014942Y-45340542D01*
X69014942Y-45340542D02*
X68967323Y-45388161D01*
X68967323Y-45388161D02*
X68872085Y-45435780D01*
X68872085Y-45435780D02*
X68681609Y-45435780D01*
X68681609Y-45435780D02*
X68586371Y-45388161D01*
X68586371Y-45388161D02*
X68538752Y-45340542D01*
X68538752Y-45340542D02*
X68491133Y-45245304D01*
X67872085Y-44816733D02*
X67776847Y-44816733D01*
X67776847Y-44816733D02*
X67681609Y-44864352D01*
X67681609Y-44864352D02*
X67633990Y-44911971D01*
X67633990Y-44911971D02*
X67586371Y-45007209D01*
X67586371Y-45007209D02*
X67538752Y-45197685D01*
X67538752Y-45197685D02*
X67538752Y-45435780D01*
X67538752Y-45435780D02*
X67586371Y-45626256D01*
X67586371Y-45626256D02*
X67633990Y-45721494D01*
X67633990Y-45721494D02*
X67681609Y-45769114D01*
X67681609Y-45769114D02*
X67776847Y-45816733D01*
X67776847Y-45816733D02*
X67872085Y-45816733D01*
X67872085Y-45816733D02*
X67967323Y-45769114D01*
X67967323Y-45769114D02*
X68014942Y-45721494D01*
X68014942Y-45721494D02*
X68062561Y-45626256D01*
X68062561Y-45626256D02*
X68110180Y-45435780D01*
X68110180Y-45435780D02*
X68110180Y-45197685D01*
X68110180Y-45197685D02*
X68062561Y-45007209D01*
X68062561Y-45007209D02*
X68014942Y-44911971D01*
X68014942Y-44911971D02*
X67967323Y-44864352D01*
X67967323Y-44864352D02*
X67872085Y-44816733D01*
X67110180Y-45816733D02*
X67110180Y-44816733D01*
X67014942Y-45435780D02*
X66729228Y-45816733D01*
X66729228Y-45150066D02*
X67110180Y-45531018D01*
X29474324Y-101516733D02*
X30045752Y-101516733D01*
X29760038Y-101516733D02*
X29760038Y-100516733D01*
X29760038Y-100516733D02*
X29855276Y-100659590D01*
X29855276Y-100659590D02*
X29950514Y-100754828D01*
X29950514Y-100754828D02*
X30045752Y-100802447D01*
X28855276Y-100516733D02*
X28760038Y-100516733D01*
X28760038Y-100516733D02*
X28664800Y-100564352D01*
X28664800Y-100564352D02*
X28617181Y-100611971D01*
X28617181Y-100611971D02*
X28569562Y-100707209D01*
X28569562Y-100707209D02*
X28521943Y-100897685D01*
X28521943Y-100897685D02*
X28521943Y-101135780D01*
X28521943Y-101135780D02*
X28569562Y-101326256D01*
X28569562Y-101326256D02*
X28617181Y-101421494D01*
X28617181Y-101421494D02*
X28664800Y-101469114D01*
X28664800Y-101469114D02*
X28760038Y-101516733D01*
X28760038Y-101516733D02*
X28855276Y-101516733D01*
X28855276Y-101516733D02*
X28950514Y-101469114D01*
X28950514Y-101469114D02*
X28998133Y-101421494D01*
X28998133Y-101421494D02*
X29045752Y-101326256D01*
X29045752Y-101326256D02*
X29093371Y-101135780D01*
X29093371Y-101135780D02*
X29093371Y-100897685D01*
X29093371Y-100897685D02*
X29045752Y-100707209D01*
X29045752Y-100707209D02*
X28998133Y-100611971D01*
X28998133Y-100611971D02*
X28950514Y-100564352D01*
X28950514Y-100564352D02*
X28855276Y-100516733D01*
X28093371Y-101516733D02*
X28093371Y-100516733D01*
X27998133Y-101135780D02*
X27712419Y-101516733D01*
X27712419Y-100850066D02*
X28093371Y-101231018D01*
X68138752Y-30621494D02*
X68186371Y-30669114D01*
X68186371Y-30669114D02*
X68329228Y-30716733D01*
X68329228Y-30716733D02*
X68424466Y-30716733D01*
X68424466Y-30716733D02*
X68567323Y-30669114D01*
X68567323Y-30669114D02*
X68662561Y-30573875D01*
X68662561Y-30573875D02*
X68710180Y-30478637D01*
X68710180Y-30478637D02*
X68757799Y-30288161D01*
X68757799Y-30288161D02*
X68757799Y-30145304D01*
X68757799Y-30145304D02*
X68710180Y-29954828D01*
X68710180Y-29954828D02*
X68662561Y-29859590D01*
X68662561Y-29859590D02*
X68567323Y-29764352D01*
X68567323Y-29764352D02*
X68424466Y-29716733D01*
X68424466Y-29716733D02*
X68329228Y-29716733D01*
X68329228Y-29716733D02*
X68186371Y-29764352D01*
X68186371Y-29764352D02*
X68138752Y-29811971D01*
X67186371Y-30716733D02*
X67757799Y-30716733D01*
X67472085Y-30716733D02*
X67472085Y-29716733D01*
X67472085Y-29716733D02*
X67567323Y-29859590D01*
X67567323Y-29859590D02*
X67662561Y-29954828D01*
X67662561Y-29954828D02*
X67757799Y-30002447D01*
X76791133Y-33411971D02*
X76743514Y-33364352D01*
X76743514Y-33364352D02*
X76648276Y-33316733D01*
X76648276Y-33316733D02*
X76410181Y-33316733D01*
X76410181Y-33316733D02*
X76314943Y-33364352D01*
X76314943Y-33364352D02*
X76267324Y-33411971D01*
X76267324Y-33411971D02*
X76219705Y-33507209D01*
X76219705Y-33507209D02*
X76219705Y-33602447D01*
X76219705Y-33602447D02*
X76267324Y-33745304D01*
X76267324Y-33745304D02*
X76838752Y-34316733D01*
X76838752Y-34316733D02*
X76219705Y-34316733D01*
X75838752Y-33411971D02*
X75791133Y-33364352D01*
X75791133Y-33364352D02*
X75695895Y-33316733D01*
X75695895Y-33316733D02*
X75457800Y-33316733D01*
X75457800Y-33316733D02*
X75362562Y-33364352D01*
X75362562Y-33364352D02*
X75314943Y-33411971D01*
X75314943Y-33411971D02*
X75267324Y-33507209D01*
X75267324Y-33507209D02*
X75267324Y-33602447D01*
X75267324Y-33602447D02*
X75314943Y-33745304D01*
X75314943Y-33745304D02*
X75886371Y-34316733D01*
X75886371Y-34316733D02*
X75267324Y-34316733D01*
X74648276Y-33316733D02*
X74553038Y-33316733D01*
X74553038Y-33316733D02*
X74457800Y-33364352D01*
X74457800Y-33364352D02*
X74410181Y-33411971D01*
X74410181Y-33411971D02*
X74362562Y-33507209D01*
X74362562Y-33507209D02*
X74314943Y-33697685D01*
X74314943Y-33697685D02*
X74314943Y-33935780D01*
X74314943Y-33935780D02*
X74362562Y-34126256D01*
X74362562Y-34126256D02*
X74410181Y-34221494D01*
X74410181Y-34221494D02*
X74457800Y-34269114D01*
X74457800Y-34269114D02*
X74553038Y-34316733D01*
X74553038Y-34316733D02*
X74648276Y-34316733D01*
X74648276Y-34316733D02*
X74743514Y-34269114D01*
X74743514Y-34269114D02*
X74791133Y-34221494D01*
X74791133Y-34221494D02*
X74838752Y-34126256D01*
X74838752Y-34126256D02*
X74886371Y-33935780D01*
X74886371Y-33935780D02*
X74886371Y-33697685D01*
X74886371Y-33697685D02*
X74838752Y-33507209D01*
X74838752Y-33507209D02*
X74791133Y-33411971D01*
X74791133Y-33411971D02*
X74743514Y-33364352D01*
X74743514Y-33364352D02*
X74648276Y-33316733D01*
X73457800Y-33650066D02*
X73457800Y-34316733D01*
X73886371Y-33650066D02*
X73886371Y-34173875D01*
X73886371Y-34173875D02*
X73838752Y-34269114D01*
X73838752Y-34269114D02*
X73743514Y-34316733D01*
X73743514Y-34316733D02*
X73600657Y-34316733D01*
X73600657Y-34316733D02*
X73505419Y-34269114D01*
X73505419Y-34269114D02*
X73457800Y-34221494D01*
X72648276Y-33792923D02*
X72981609Y-33792923D01*
X72981609Y-34316733D02*
X72981609Y-33316733D01*
X72981609Y-33316733D02*
X72505419Y-33316733D01*
D11*
%TO.C,G\u002A\u002A\u002A*%
X29913000Y-35390000D02*
X30488000Y-35865000D01*
X30488000Y-35865000D02*
X30913000Y-35540000D01*
X30913000Y-35540000D02*
X29913000Y-35390000D01*
D12*
X31238000Y-36978605D02*
X32138000Y-36965000D01*
X31637999Y-38360050D02*
X31237999Y-38360050D01*
X31638000Y-37365000D02*
X31388000Y-37365000D01*
X31638000Y-37415000D02*
X31638000Y-37865000D01*
X31638000Y-37865000D02*
X31338000Y-37865000D01*
X31638000Y-38365000D02*
X31638000Y-38865000D01*
X31638000Y-38865000D02*
X31188000Y-38865000D01*
D11*
X31863000Y-34665000D02*
X32213000Y-33490000D01*
D12*
X32138000Y-36965000D02*
X32188000Y-39415000D01*
X32188000Y-39415000D02*
X30988000Y-39415000D01*
D11*
X32213000Y-33490000D02*
X34013000Y-33540000D01*
D12*
X32463000Y-39415000D02*
X33238000Y-36965000D01*
X32863000Y-39415000D02*
X32463000Y-39415000D01*
X33113000Y-38815000D02*
X32863000Y-39415000D01*
X33188000Y-38415000D02*
X33413000Y-37665000D01*
X33238000Y-36965000D02*
X33563000Y-36965000D01*
X33413000Y-37665000D02*
X33688000Y-38415000D01*
D11*
X33438000Y-35590000D02*
X35113000Y-35690000D01*
D12*
X33563000Y-36965000D02*
X34463000Y-39415000D01*
X33688000Y-38415000D02*
X33188000Y-38415000D01*
X33713000Y-38815000D02*
X33113000Y-38815000D01*
X33963000Y-39415000D02*
X33713000Y-38815000D01*
X33963000Y-39415000D02*
X34463000Y-39415000D01*
D11*
X34013000Y-33540000D02*
X31863000Y-34665000D01*
X34138000Y-35015000D02*
X33438000Y-35590000D01*
D12*
X34638000Y-38940000D02*
X34638000Y-39390000D01*
X34638000Y-39390000D02*
X35888000Y-39390000D01*
D11*
X35138000Y-35690000D02*
X34138000Y-35015000D01*
X35288000Y-35240000D02*
X36913000Y-36365000D01*
X35338000Y-32915000D02*
X36463000Y-34140000D01*
X35363000Y-32515000D02*
X35288000Y-35240000D01*
D12*
X35388000Y-38940000D02*
X34638000Y-38940000D01*
X35413000Y-36940000D02*
X35388000Y-38940000D01*
X35863000Y-36940000D02*
X35413000Y-36940000D01*
X35888000Y-39390000D02*
X35863000Y-36940000D01*
X36063000Y-39390000D02*
X36763000Y-38440000D01*
X36163000Y-39390000D02*
X36063000Y-39390000D01*
D11*
X36463000Y-34140000D02*
X35888000Y-35640000D01*
D12*
X36563000Y-39390000D02*
X36163000Y-39390000D01*
X36804269Y-36934594D02*
X37913000Y-36940000D01*
D11*
X36913000Y-36365000D02*
X38588000Y-36140000D01*
D12*
X36963000Y-37390000D02*
X37413000Y-37390000D01*
X37313000Y-38440000D02*
X36563000Y-39390000D01*
X37413000Y-37390000D02*
X37413000Y-37940000D01*
X37413000Y-37940000D02*
X36913000Y-37940000D01*
X37463000Y-38440000D02*
X37313000Y-38440000D01*
X37463000Y-39390000D02*
X37463000Y-38440000D01*
X37913000Y-36940000D02*
X37913000Y-39390000D01*
X37913000Y-39390000D02*
X37463000Y-39390000D01*
D11*
X38063000Y-36590000D02*
X39038000Y-36940000D01*
D12*
X38363000Y-36940000D02*
X39663000Y-36940000D01*
X38363000Y-37440000D02*
X38363000Y-36940000D01*
X38363000Y-38890000D02*
X39213000Y-38890000D01*
X38363000Y-39390000D02*
X38363000Y-38890000D01*
D11*
X38463000Y-36315000D02*
X38063000Y-36590000D01*
D12*
X38563000Y-37890000D02*
X39213000Y-37890000D01*
X38563000Y-38340000D02*
X38563000Y-37890000D01*
D11*
X38588000Y-36140000D02*
X40413000Y-37040000D01*
X38838000Y-34140000D02*
X35363000Y-32515000D01*
X38838000Y-34140000D02*
X41163000Y-35290000D01*
D12*
X39213000Y-37440000D02*
X38363000Y-37440000D01*
X39213000Y-37890000D02*
X39213000Y-37440000D01*
X39213000Y-38340000D02*
X38563000Y-38340000D01*
X39213000Y-38890000D02*
X39213000Y-38340000D01*
D11*
X39238000Y-36915000D02*
X38463000Y-36315000D01*
X39588000Y-32715000D02*
X38838000Y-34140000D01*
X39588000Y-32715000D02*
X41788000Y-33890000D01*
D12*
X39613000Y-39390000D02*
X38363000Y-39390000D01*
X39663000Y-36940000D02*
X39713000Y-39390000D01*
X39713000Y-39390000D02*
X39613000Y-39390000D01*
X40813000Y-36953605D02*
X41713000Y-36940000D01*
D11*
X41163000Y-35290000D02*
X42638000Y-37015000D01*
X41163000Y-35290000D02*
X46813000Y-38140000D01*
D12*
X41212999Y-38335050D02*
X40812999Y-38335050D01*
X41213000Y-37340000D02*
X40963000Y-37340000D01*
X41213000Y-37390000D02*
X41213000Y-37840000D01*
X41213000Y-37840000D02*
X40913000Y-37840000D01*
X41213000Y-38340000D02*
X41213000Y-38840000D01*
X41213000Y-38840000D02*
X40763000Y-38840000D01*
X41713000Y-36940000D02*
X41763000Y-39390000D01*
X41763000Y-39390000D02*
X40563000Y-39390000D01*
D11*
X41788000Y-33890000D02*
X40213000Y-34790000D01*
X41888000Y-33715000D02*
X41163000Y-35290000D01*
D12*
X42163000Y-37790000D02*
X42163000Y-38490000D01*
D11*
X42463000Y-37115000D02*
X35363000Y-32515000D01*
D12*
X42663000Y-37790000D02*
X42663000Y-38440000D01*
D11*
X42913000Y-33965000D02*
X41163000Y-35290000D01*
X42913000Y-33965000D02*
X41888000Y-33715000D01*
X42988000Y-38040000D02*
X43363000Y-38215000D01*
X43313000Y-37640000D02*
X42988000Y-38040000D01*
D12*
X43363000Y-37790000D02*
X43363000Y-38490000D01*
D11*
X43863000Y-38390000D02*
X44413000Y-38665000D01*
D12*
X43863000Y-38490000D02*
X43863000Y-37790000D01*
D11*
X43913000Y-37665000D02*
X44138000Y-38290000D01*
X44138000Y-38290000D02*
X46813000Y-38140000D01*
X44413000Y-38665000D02*
X43838000Y-37865000D01*
X45488000Y-38615000D02*
X44663000Y-38265000D01*
X46813000Y-38140000D02*
X42913000Y-33965000D01*
X46813000Y-38140000D02*
X43913000Y-37665000D01*
X46813000Y-38140000D02*
X45488000Y-38615000D01*
D12*
X30788001Y-38064999D02*
G75*
G02*
X31238000Y-36978606I449999J449999D01*
G01*
X30988001Y-39414998D02*
G75*
G02*
X30811744Y-38106064I249998J699998D01*
G01*
X31188001Y-38864998D02*
G75*
G02*
X31237999Y-38360051I49999J249998D01*
G01*
X31338000Y-37865000D02*
G75*
G02*
X31398634Y-37372464I0J250000D01*
G01*
X36788001Y-38389998D02*
G75*
G02*
X36804269Y-36934595I249999J724998D01*
G01*
X36913001Y-37939998D02*
G75*
G02*
X36913001Y-37390002I124999J274998D01*
G01*
X40363001Y-38039999D02*
G75*
G02*
X40813000Y-36953606I449999J449999D01*
G01*
X40563001Y-39389998D02*
G75*
G02*
X40386744Y-38081064I249998J699998D01*
G01*
X40763001Y-38839998D02*
G75*
G02*
X40812999Y-38335051I49999J249998D01*
G01*
X40913000Y-37840000D02*
G75*
G02*
X40973634Y-37347464I0J250000D01*
G01*
X42163000Y-37790000D02*
G75*
G02*
X43863000Y-37790000I850000J0D01*
G01*
X42663000Y-37790000D02*
G75*
G02*
X43363000Y-37790000I350000J0D01*
G01*
X43363000Y-38490000D02*
G75*
G02*
X42663000Y-38490000I-350000J0D01*
G01*
X43863000Y-38490000D02*
G75*
G02*
X42163000Y-38490000I-850000J0D01*
G01*
D13*
X52360361Y-92385226D02*
X52296542Y-92449045D01*
X52232723Y-92385226D01*
X52296542Y-92321407D01*
X52360361Y-92385226D01*
G36*
X52360361Y-92385226D02*
G01*
X52296542Y-92449045D01*
X52232723Y-92385226D01*
X52296542Y-92321407D01*
X52360361Y-92385226D01*
G37*
D12*
%TO.C,R6*%
X81112086Y-53411914D02*
X80342086Y-53411914D01*
X80342086Y-54781914D02*
X73802086Y-54781914D01*
X80342086Y-52041914D02*
X80342086Y-54781914D01*
X73802086Y-54781914D02*
X73802086Y-52041914D01*
X73802086Y-52041914D02*
X80342086Y-52041914D01*
X73032086Y-53411914D02*
X73802086Y-53411914D01*
%TO.C,S1*%
X42802486Y-74494314D02*
X38865486Y-74468914D01*
X38865486Y-74494314D02*
X38865486Y-84451114D01*
X42802486Y-84451114D02*
X42802486Y-74494314D01*
X38865486Y-84451114D02*
X42802486Y-84451114D01*
%TO.C,R3*%
X81112086Y-41261914D02*
X80342086Y-41261914D01*
X80342086Y-42631914D02*
X73802086Y-42631914D01*
X80342086Y-39891914D02*
X80342086Y-42631914D01*
X73802086Y-42631914D02*
X73802086Y-39891914D01*
X73802086Y-39891914D02*
X80342086Y-39891914D01*
X73032086Y-41261914D02*
X73802086Y-41261914D01*
%TO.C,D3*%
X36042086Y-109161914D02*
X35392086Y-109161914D01*
X35392086Y-110281914D02*
X31152086Y-110281914D01*
X35392086Y-108041914D02*
X35392086Y-110281914D01*
X34792086Y-108041914D02*
X34792086Y-110281914D01*
X34672086Y-108041914D02*
X34672086Y-110281914D01*
X34552086Y-108041914D02*
X34552086Y-110281914D01*
X31152086Y-110281914D02*
X31152086Y-108041914D01*
X31152086Y-108041914D02*
X35392086Y-108041914D01*
X30502086Y-109161914D02*
X31152086Y-109161914D01*
%TO.C,R5*%
X81112086Y-49361914D02*
X80342086Y-49361914D01*
X80342086Y-50731914D02*
X73802086Y-50731914D01*
X80342086Y-47991914D02*
X80342086Y-50731914D01*
X73802086Y-50731914D02*
X73802086Y-47991914D01*
X73802086Y-47991914D02*
X80342086Y-47991914D01*
X73032086Y-49361914D02*
X73802086Y-49361914D01*
%TO.C,U1*%
X60112086Y-41911914D02*
X54812086Y-41911914D01*
X60112086Y-31631914D02*
X60112086Y-41911914D01*
X58462086Y-31631914D02*
X60112086Y-31631914D01*
X54812086Y-41911914D02*
X54812086Y-31631914D01*
X54812086Y-31631914D02*
X56462086Y-31631914D01*
X58462086Y-31631914D02*
G75*
G02*
X56462086Y-31631914I-1000000J0D01*
G01*
%TO.C,R4*%
X81112086Y-45311914D02*
X80342086Y-45311914D01*
X80342086Y-46681914D02*
X73802086Y-46681914D01*
X80342086Y-43941914D02*
X80342086Y-46681914D01*
X73802086Y-46681914D02*
X73802086Y-43941914D01*
X73802086Y-43941914D02*
X80342086Y-43941914D01*
X73032086Y-45311914D02*
X73802086Y-45311914D01*
%TO.C,C1*%
X70111086Y-38012155D02*
X70111086Y-37382155D01*
X70426086Y-37697155D02*
X69796086Y-37697155D01*
X71502086Y-34511914D02*
X65042086Y-34511914D01*
X71502086Y-34471914D02*
X65042086Y-34471914D01*
X71502086Y-34431914D02*
X65042086Y-34431914D01*
X71500086Y-34391914D02*
X65044086Y-34391914D01*
X71499086Y-34351914D02*
X65045086Y-34351914D01*
X71496086Y-34311914D02*
X65048086Y-34311914D01*
X67232086Y-34271914D02*
X65050086Y-34271914D01*
X71494086Y-34271914D02*
X69312086Y-34271914D01*
X67232086Y-34231914D02*
X65054086Y-34231914D01*
X71490086Y-34231914D02*
X69312086Y-34231914D01*
X67232086Y-34191914D02*
X65057086Y-34191914D01*
X71487086Y-34191914D02*
X69312086Y-34191914D01*
X67232086Y-34151914D02*
X65061086Y-34151914D01*
X71483086Y-34151914D02*
X69312086Y-34151914D01*
X67232086Y-34111914D02*
X65066086Y-34111914D01*
X71478086Y-34111914D02*
X69312086Y-34111914D01*
X67232086Y-34071914D02*
X65071086Y-34071914D01*
X71473086Y-34071914D02*
X69312086Y-34071914D01*
X67232086Y-34031914D02*
X65077086Y-34031914D01*
X71467086Y-34031914D02*
X69312086Y-34031914D01*
X67232086Y-33991914D02*
X65083086Y-33991914D01*
X71461086Y-33991914D02*
X69312086Y-33991914D01*
X67232086Y-33951914D02*
X65090086Y-33951914D01*
X71454086Y-33951914D02*
X69312086Y-33951914D01*
X67232086Y-33911914D02*
X65097086Y-33911914D01*
X71447086Y-33911914D02*
X69312086Y-33911914D01*
X67232086Y-33871914D02*
X65105086Y-33871914D01*
X71439086Y-33871914D02*
X69312086Y-33871914D01*
X67232086Y-33831914D02*
X65113086Y-33831914D01*
X71431086Y-33831914D02*
X69312086Y-33831914D01*
X67232086Y-33790914D02*
X65122086Y-33790914D01*
X71422086Y-33790914D02*
X69312086Y-33790914D01*
X67232086Y-33750914D02*
X65131086Y-33750914D01*
X71413086Y-33750914D02*
X69312086Y-33750914D01*
X67232086Y-33710914D02*
X65141086Y-33710914D01*
X71403086Y-33710914D02*
X69312086Y-33710914D01*
X67232086Y-33670914D02*
X65151086Y-33670914D01*
X71393086Y-33670914D02*
X69312086Y-33670914D01*
X67232086Y-33630914D02*
X65162086Y-33630914D01*
X71382086Y-33630914D02*
X69312086Y-33630914D01*
X67232086Y-33590914D02*
X65174086Y-33590914D01*
X71370086Y-33590914D02*
X69312086Y-33590914D01*
X67232086Y-33550914D02*
X65186086Y-33550914D01*
X71358086Y-33550914D02*
X69312086Y-33550914D01*
X67232086Y-33510914D02*
X65198086Y-33510914D01*
X71346086Y-33510914D02*
X69312086Y-33510914D01*
X67232086Y-33470914D02*
X65211086Y-33470914D01*
X71333086Y-33470914D02*
X69312086Y-33470914D01*
X67232086Y-33430914D02*
X65225086Y-33430914D01*
X71319086Y-33430914D02*
X69312086Y-33430914D01*
X67232086Y-33390914D02*
X65239086Y-33390914D01*
X71305086Y-33390914D02*
X69312086Y-33390914D01*
X67232086Y-33350914D02*
X65254086Y-33350914D01*
X71290086Y-33350914D02*
X69312086Y-33350914D01*
X67232086Y-33310914D02*
X65270086Y-33310914D01*
X71274086Y-33310914D02*
X69312086Y-33310914D01*
X67232086Y-33270914D02*
X65286086Y-33270914D01*
X71258086Y-33270914D02*
X69312086Y-33270914D01*
X67232086Y-33230914D02*
X65302086Y-33230914D01*
X71242086Y-33230914D02*
X69312086Y-33230914D01*
X67232086Y-33190914D02*
X65320086Y-33190914D01*
X71224086Y-33190914D02*
X69312086Y-33190914D01*
X67232086Y-33150914D02*
X65338086Y-33150914D01*
X71206086Y-33150914D02*
X69312086Y-33150914D01*
X67232086Y-33110914D02*
X65356086Y-33110914D01*
X71188086Y-33110914D02*
X69312086Y-33110914D01*
X67232086Y-33070914D02*
X65376086Y-33070914D01*
X71168086Y-33070914D02*
X69312086Y-33070914D01*
X67232086Y-33030914D02*
X65396086Y-33030914D01*
X71148086Y-33030914D02*
X69312086Y-33030914D01*
X67232086Y-32990914D02*
X65416086Y-32990914D01*
X71128086Y-32990914D02*
X69312086Y-32990914D01*
X67232086Y-32950914D02*
X65438086Y-32950914D01*
X71106086Y-32950914D02*
X69312086Y-32950914D01*
X67232086Y-32910914D02*
X65460086Y-32910914D01*
X71084086Y-32910914D02*
X69312086Y-32910914D01*
X67232086Y-32870914D02*
X65482086Y-32870914D01*
X71062086Y-32870914D02*
X69312086Y-32870914D01*
X67232086Y-32830914D02*
X65506086Y-32830914D01*
X71038086Y-32830914D02*
X69312086Y-32830914D01*
X67232086Y-32790914D02*
X65530086Y-32790914D01*
X71014086Y-32790914D02*
X69312086Y-32790914D01*
X67232086Y-32750914D02*
X65556086Y-32750914D01*
X70988086Y-32750914D02*
X69312086Y-32750914D01*
X67232086Y-32710914D02*
X65582086Y-32710914D01*
X70962086Y-32710914D02*
X69312086Y-32710914D01*
X67232086Y-32670914D02*
X65608086Y-32670914D01*
X70936086Y-32670914D02*
X69312086Y-32670914D01*
X67232086Y-32630914D02*
X65636086Y-32630914D01*
X70908086Y-32630914D02*
X69312086Y-32630914D01*
X67232086Y-32590914D02*
X65665086Y-32590914D01*
X70879086Y-32590914D02*
X69312086Y-32590914D01*
X67232086Y-32550914D02*
X65694086Y-32550914D01*
X70850086Y-32550914D02*
X69312086Y-32550914D01*
X67232086Y-32510914D02*
X65724086Y-32510914D01*
X70820086Y-32510914D02*
X69312086Y-32510914D01*
X67232086Y-32470914D02*
X65756086Y-32470914D01*
X70788086Y-32470914D02*
X69312086Y-32470914D01*
X67232086Y-32430914D02*
X65788086Y-32430914D01*
X70756086Y-32430914D02*
X69312086Y-32430914D01*
X67232086Y-32390914D02*
X65822086Y-32390914D01*
X70722086Y-32390914D02*
X69312086Y-32390914D01*
X67232086Y-32350914D02*
X65856086Y-32350914D01*
X70688086Y-32350914D02*
X69312086Y-32350914D01*
X67232086Y-32310914D02*
X65892086Y-32310914D01*
X70652086Y-32310914D02*
X69312086Y-32310914D01*
X67232086Y-32270914D02*
X65929086Y-32270914D01*
X70615086Y-32270914D02*
X69312086Y-32270914D01*
X67232086Y-32230914D02*
X65967086Y-32230914D01*
X70577086Y-32230914D02*
X69312086Y-32230914D01*
X70537086Y-32190914D02*
X66007086Y-32190914D01*
X70496086Y-32150914D02*
X66048086Y-32150914D01*
X70454086Y-32110914D02*
X66090086Y-32110914D01*
X70409086Y-32070914D02*
X66135086Y-32070914D01*
X70364086Y-32030914D02*
X66180086Y-32030914D01*
X70316086Y-31990914D02*
X66228086Y-31990914D01*
X70267086Y-31950914D02*
X66277086Y-31950914D01*
X70216086Y-31910914D02*
X66328086Y-31910914D01*
X70162086Y-31870914D02*
X66382086Y-31870914D01*
X70106086Y-31830914D02*
X66438086Y-31830914D01*
X70048086Y-31790914D02*
X66496086Y-31790914D01*
X69986086Y-31750914D02*
X66558086Y-31750914D01*
X69922086Y-31710914D02*
X66622086Y-31710914D01*
X69853086Y-31670914D02*
X66691086Y-31670914D01*
X69781086Y-31630914D02*
X66763086Y-31630914D01*
X69704086Y-31590914D02*
X66840086Y-31590914D01*
X69622086Y-31550914D02*
X66922086Y-31550914D01*
X69534086Y-31510914D02*
X67010086Y-31510914D01*
X69437086Y-31470914D02*
X67107086Y-31470914D01*
X69331086Y-31430914D02*
X67213086Y-31430914D01*
X69212086Y-31390914D02*
X67332086Y-31390914D01*
X69074086Y-31350914D02*
X67470086Y-31350914D01*
X68905086Y-31310914D02*
X67639086Y-31310914D01*
X68674086Y-31270914D02*
X67870086Y-31270914D01*
X71542086Y-34511914D02*
G75*
G02*
X65002086Y-34511914I-3270000J0D01*
G01*
X65002086Y-34511914D02*
G75*
G02*
X71542086Y-34511914I3270000J0D01*
G01*
%TD*%
M02*
