%TF.GenerationSoftware,KiCad,Pcbnew,8.0.1*%
%TF.CreationDate,2024-04-02T10:43:05+02:00*%
%TF.ProjectId,Baerli,42616572-6c69-42e6-9b69-6361645f7063,rev?*%
%TF.SameCoordinates,Original*%
%TF.FileFunction,Copper,L2,Bot*%
%TF.FilePolarity,Positive*%
%FSLAX46Y46*%
G04 Gerber Fmt 4.6, Leading zero omitted, Abs format (unit mm)*
G04 Created by KiCad (PCBNEW 8.0.1) date 2024-04-02 10:43:05*
%MOMM*%
%LPD*%
G01*
G04 APERTURE LIST*
%ADD10C,0.300000*%
%TA.AperFunction,NonConductor*%
%ADD11C,0.300000*%
%TD*%
%TA.AperFunction,ComponentPad*%
%ADD12R,1.200000X1.500000*%
%TD*%
%TA.AperFunction,ComponentPad*%
%ADD13C,1.500000*%
%TD*%
%TA.AperFunction,ComponentPad*%
%ADD14R,1.500000X1.500000*%
%TD*%
%TA.AperFunction,ComponentPad*%
%ADD15C,1.600000*%
%TD*%
%TA.AperFunction,ComponentPad*%
%ADD16O,1.600000X1.600000*%
%TD*%
%TA.AperFunction,ComponentPad*%
%ADD17C,2.000000*%
%TD*%
%TA.AperFunction,ComponentPad*%
%ADD18R,1.600000X1.600000*%
%TD*%
%TA.AperFunction,SMDPad,CuDef*%
%ADD19R,2.000000X5.000000*%
%TD*%
%TA.AperFunction,SMDPad,CuDef*%
%ADD20C,17.780000*%
%TD*%
%TA.AperFunction,ViaPad*%
%ADD21C,0.600000*%
%TD*%
%TA.AperFunction,Conductor*%
%ADD22C,0.250000*%
%TD*%
G04 APERTURE END LIST*
D10*
D11*
X43895489Y-42218828D02*
X43895489Y-40718828D01*
X43038346Y-42218828D02*
X43681203Y-41361685D01*
X43038346Y-40718828D02*
X43895489Y-41575971D01*
X42395489Y-42218828D02*
X42395489Y-40718828D01*
X42395489Y-41433114D02*
X41538346Y-41433114D01*
X41538346Y-42218828D02*
X41538346Y-40718828D01*
X40324060Y-41433114D02*
X40824060Y-41433114D01*
X40824060Y-42218828D02*
X40824060Y-40718828D01*
X40824060Y-40718828D02*
X40109774Y-40718828D01*
X38109774Y-40718828D02*
X37966917Y-40718828D01*
X37966917Y-40718828D02*
X37824060Y-40790257D01*
X37824060Y-40790257D02*
X37752632Y-40861685D01*
X37752632Y-40861685D02*
X37681203Y-41004542D01*
X37681203Y-41004542D02*
X37609774Y-41290257D01*
X37609774Y-41290257D02*
X37609774Y-41647400D01*
X37609774Y-41647400D02*
X37681203Y-41933114D01*
X37681203Y-41933114D02*
X37752632Y-42075971D01*
X37752632Y-42075971D02*
X37824060Y-42147400D01*
X37824060Y-42147400D02*
X37966917Y-42218828D01*
X37966917Y-42218828D02*
X38109774Y-42218828D01*
X38109774Y-42218828D02*
X38252632Y-42147400D01*
X38252632Y-42147400D02*
X38324060Y-42075971D01*
X38324060Y-42075971D02*
X38395489Y-41933114D01*
X38395489Y-41933114D02*
X38466917Y-41647400D01*
X38466917Y-41647400D02*
X38466917Y-41290257D01*
X38466917Y-41290257D02*
X38395489Y-41004542D01*
X38395489Y-41004542D02*
X38324060Y-40861685D01*
X38324060Y-40861685D02*
X38252632Y-40790257D01*
X38252632Y-40790257D02*
X38109774Y-40718828D01*
X36181203Y-42218828D02*
X37038346Y-42218828D01*
X36609775Y-42218828D02*
X36609775Y-40718828D01*
X36609775Y-40718828D02*
X36752632Y-40933114D01*
X36752632Y-40933114D02*
X36895489Y-41075971D01*
X36895489Y-41075971D02*
X37038346Y-41147400D01*
X35538347Y-42075971D02*
X35466918Y-42147400D01*
X35466918Y-42147400D02*
X35538347Y-42218828D01*
X35538347Y-42218828D02*
X35609775Y-42147400D01*
X35609775Y-42147400D02*
X35538347Y-42075971D01*
X35538347Y-42075971D02*
X35538347Y-42218828D01*
X34895489Y-40861685D02*
X34824061Y-40790257D01*
X34824061Y-40790257D02*
X34681204Y-40718828D01*
X34681204Y-40718828D02*
X34324061Y-40718828D01*
X34324061Y-40718828D02*
X34181204Y-40790257D01*
X34181204Y-40790257D02*
X34109775Y-40861685D01*
X34109775Y-40861685D02*
X34038346Y-41004542D01*
X34038346Y-41004542D02*
X34038346Y-41147400D01*
X34038346Y-41147400D02*
X34109775Y-41361685D01*
X34109775Y-41361685D02*
X34966918Y-42218828D01*
X34966918Y-42218828D02*
X34038346Y-42218828D01*
X33109775Y-40718828D02*
X32966918Y-40718828D01*
X32966918Y-40718828D02*
X32824061Y-40790257D01*
X32824061Y-40790257D02*
X32752633Y-40861685D01*
X32752633Y-40861685D02*
X32681204Y-41004542D01*
X32681204Y-41004542D02*
X32609775Y-41290257D01*
X32609775Y-41290257D02*
X32609775Y-41647400D01*
X32609775Y-41647400D02*
X32681204Y-41933114D01*
X32681204Y-41933114D02*
X32752633Y-42075971D01*
X32752633Y-42075971D02*
X32824061Y-42147400D01*
X32824061Y-42147400D02*
X32966918Y-42218828D01*
X32966918Y-42218828D02*
X33109775Y-42218828D01*
X33109775Y-42218828D02*
X33252633Y-42147400D01*
X33252633Y-42147400D02*
X33324061Y-42075971D01*
X33324061Y-42075971D02*
X33395490Y-41933114D01*
X33395490Y-41933114D02*
X33466918Y-41647400D01*
X33466918Y-41647400D02*
X33466918Y-41290257D01*
X33466918Y-41290257D02*
X33395490Y-41004542D01*
X33395490Y-41004542D02*
X33324061Y-40861685D01*
X33324061Y-40861685D02*
X33252633Y-40790257D01*
X33252633Y-40790257D02*
X33109775Y-40718828D01*
X32038347Y-40861685D02*
X31966919Y-40790257D01*
X31966919Y-40790257D02*
X31824062Y-40718828D01*
X31824062Y-40718828D02*
X31466919Y-40718828D01*
X31466919Y-40718828D02*
X31324062Y-40790257D01*
X31324062Y-40790257D02*
X31252633Y-40861685D01*
X31252633Y-40861685D02*
X31181204Y-41004542D01*
X31181204Y-41004542D02*
X31181204Y-41147400D01*
X31181204Y-41147400D02*
X31252633Y-41361685D01*
X31252633Y-41361685D02*
X32109776Y-42218828D01*
X32109776Y-42218828D02*
X31181204Y-42218828D01*
X29895491Y-41218828D02*
X29895491Y-42218828D01*
X30252633Y-40647400D02*
X30609776Y-41718828D01*
X30609776Y-41718828D02*
X29681205Y-41718828D01*
D12*
%TO.P,REF\u002A\u002A,1*%
%TO.N,Net-(Q1-E)*%
X50991086Y-92260914D03*
X54039086Y-84386914D03*
X54166086Y-97594914D03*
X62225137Y-103955914D03*
X66739086Y-85750914D03*
X70676086Y-108530914D03*
X77472086Y-101161914D03*
X78907086Y-80500914D03*
X82614086Y-93403914D03*
X83695984Y-85910914D03*
D13*
%TO.P,REF\u002A\u002A,2*%
%TO.N,Net-(Q2-E)*%
X53291086Y-92260914D03*
X55739086Y-85986914D03*
X56466086Y-97594914D03*
X63825137Y-102355914D03*
X66739086Y-88036914D03*
%TO.N,N/C*%
X70676086Y-106230914D03*
%TO.N,Net-(Q2-E)*%
X75872086Y-99561914D03*
X77407086Y-82100914D03*
X80214086Y-93403914D03*
X81395984Y-85910914D03*
%TD*%
D14*
%TO.P,T2,1*%
%TO.N,Net-(Q2-E)*%
X92202000Y-111252000D03*
D13*
%TO.P,T2,2*%
%TO.N,Net-(Q1-C)*%
X94742000Y-108712000D03*
%TO.P,T2,3*%
%TO.N,Net-(Q2-C)*%
X97282000Y-111252000D03*
%TD*%
D14*
%TO.P,T1,1*%
%TO.N,Net-(Q1-E)*%
X39878000Y-111506000D03*
D13*
%TO.P,T1,2*%
%TO.N,Net-(Q1-B)*%
X42418000Y-108966000D03*
%TO.P,T1,3*%
%TO.N,Net-(Q1-C)*%
X44958000Y-111506000D03*
%TD*%
D15*
%TO.P,R6,1*%
%TO.N,Net-(S1-E)*%
X82152086Y-53411914D03*
D16*
%TO.P,R6,2*%
%TO.N,Net-(Q2-C)*%
X71992086Y-53411914D03*
%TD*%
D17*
%TO.P,S1,1,A*%
%TO.N,Net-(S1-A-Pad1)*%
X40872086Y-76881914D03*
%TO.P,S1,2,E*%
%TO.N,Net-(S1-E)*%
X40872086Y-79421914D03*
%TO.P,S1,3,A*%
%TO.N,unconnected-(S1-A-Pad3)*%
X40872086Y-81961914D03*
%TD*%
D15*
%TO.P,R3,1*%
%TO.N,Net-(D3-K)*%
X82152086Y-41261914D03*
D16*
%TO.P,R3,2*%
%TO.N,Net-(Q1-B)*%
X71992086Y-41261914D03*
%TD*%
D18*
%TO.P,D3,1,K*%
%TO.N,Net-(D3-K)*%
X37082086Y-109161914D03*
D16*
%TO.P,D3,2,A*%
%TO.N,Net-(D3-A)*%
X29462086Y-109161914D03*
%TD*%
D15*
%TO.P,R5,1*%
%TO.N,Net-(S1-E)*%
X82152086Y-49361914D03*
D16*
%TO.P,R5,2*%
%TO.N,Net-(Q1-C)*%
X71992086Y-49361914D03*
%TD*%
D18*
%TO.P,U1,1,GND*%
%TO.N,Net-(Q1-E)*%
X61272086Y-32961914D03*
D16*
%TO.P,U1,2,TR*%
%TO.N,Net-(D3-K)*%
X61272086Y-35501914D03*
%TO.P,U1,3,Q*%
%TO.N,unconnected-(U1-Q-Pad3)*%
X61272086Y-38041914D03*
%TO.P,U1,4,R*%
%TO.N,Net-(S1-E)*%
X61272086Y-40581914D03*
%TO.P,U1,5,CV*%
%TO.N,unconnected-(U1-CV-Pad5)*%
X53652086Y-40581914D03*
%TO.P,U1,6,THR*%
%TO.N,Net-(D3-K)*%
X53652086Y-38041914D03*
%TO.P,U1,7,DIS*%
%TO.N,Net-(D3-A)*%
X53652086Y-35501914D03*
%TO.P,U1,8,VCC*%
%TO.N,Net-(S1-E)*%
X53652086Y-32961914D03*
%TD*%
D17*
%TO.P,P1,1,1*%
%TO.N,Net-(S1-E)*%
X103968086Y-103601914D03*
%TO.P,P1,2,2*%
%TO.N,unconnected-(P1-Pad2)*%
X103968086Y-98521914D03*
%TO.P,P1,3,3*%
%TO.N,Net-(D3-A)*%
X97872086Y-101061914D03*
X101428086Y-101061914D03*
%TD*%
D19*
%TO.P,U2,1*%
%TO.N,Net-(S1-A-Pad1)*%
X52504086Y-46907914D03*
X48948086Y-46907914D03*
X52504086Y-72801914D03*
X48948086Y-72801914D03*
D20*
%TO.P,U2,2*%
%TO.N,Net-(Q1-E)*%
X50472086Y-59861914D03*
%TD*%
D15*
%TO.P,R4,1*%
%TO.N,Net-(Q1-B)*%
X82152086Y-45311914D03*
D16*
%TO.P,R4,2*%
%TO.N,Net-(Q1-E)*%
X71992086Y-45311914D03*
%TD*%
D17*
%TO.P,P2,1,1*%
%TO.N,Net-(D3-A)*%
X31919086Y-98521914D03*
%TO.P,P2,2,2*%
%TO.N,unconnected-(P2-Pad2)*%
X31919086Y-103601914D03*
%TO.P,P2,3,3*%
%TO.N,Net-(D3-K)*%
X38015086Y-101061914D03*
X34459086Y-101061914D03*
%TD*%
D18*
%TO.P,C1,1*%
%TO.N,Net-(D3-K)*%
X68272086Y-35761914D03*
D15*
%TO.P,C1,2*%
%TO.N,Net-(Q1-E)*%
X68272086Y-33261914D03*
%TD*%
D21*
%TO.N,Net-(D3-K)*%
X58672086Y-74361914D03*
%TO.N,Net-(Q1-B)*%
X64272086Y-74337414D03*
%TD*%
D22*
%TO.N,Net-(D3-K)*%
X34459086Y-101061914D02*
X38015086Y-101061914D01*
X55972086Y-77061914D02*
X58672086Y-74361914D01*
X39572086Y-99504914D02*
X39572086Y-87661914D01*
X39572086Y-87661914D02*
X41603706Y-87661914D01*
X82152086Y-37341914D02*
X82152086Y-41261914D01*
X53652086Y-38041914D02*
X56392086Y-38041914D01*
X38015086Y-101061914D02*
X39572086Y-99504914D01*
X68272086Y-35761914D02*
X80572086Y-35761914D01*
X53572086Y-77061914D02*
X55972086Y-77061914D01*
X52203706Y-77061914D02*
X53572086Y-77061914D01*
X41603706Y-87661914D02*
X52203706Y-77061914D01*
X58932086Y-35501914D02*
X61272086Y-35501914D01*
X56392086Y-38041914D02*
X58932086Y-35501914D01*
X38015086Y-108228914D02*
X37082086Y-109161914D01*
X38015086Y-101061914D02*
X38015086Y-108228914D01*
X80572086Y-35761914D02*
X82152086Y-37341914D01*
X61272086Y-35501914D02*
X68012086Y-35501914D01*
X68012086Y-35501914D02*
X68272086Y-35761914D01*
%TO.N,Net-(Q1-E)*%
X54166086Y-97594914D02*
X54166086Y-99455914D01*
X50472086Y-59861914D02*
X63872086Y-59861914D01*
X64350086Y-83361914D02*
X66739086Y-85750914D01*
X66739086Y-50564914D02*
X66739086Y-63261914D01*
X66739086Y-63261914D02*
X66739086Y-85750914D01*
X50991086Y-92260914D02*
X50991086Y-96380914D01*
X74545086Y-104661914D02*
X70676086Y-108530914D01*
X77472086Y-104661914D02*
X74545086Y-104661914D01*
X77472086Y-101161914D02*
X77472086Y-104661914D01*
X54166086Y-99455914D02*
X58666086Y-103955914D01*
X71992086Y-45311914D02*
X66739086Y-50564914D01*
X83695984Y-92322016D02*
X82614086Y-93403914D01*
X52952086Y-96380914D02*
X54166086Y-97594914D01*
X61272086Y-32961914D02*
X67972086Y-32961914D01*
X66739086Y-62728914D02*
X66739086Y-63261914D01*
X83695984Y-85910914D02*
X83695984Y-92322016D01*
X50991086Y-96380914D02*
X52952086Y-96380914D01*
X80868086Y-83083016D02*
X83695984Y-85910914D01*
X58666086Y-103955914D02*
X62225137Y-103955914D01*
X54039086Y-84386914D02*
X55064086Y-83361914D01*
X82614086Y-96019914D02*
X77472086Y-101161914D01*
X54039086Y-84386914D02*
X50991086Y-87434914D01*
X63872086Y-59861914D02*
X66739086Y-62728914D01*
X67972086Y-32961914D02*
X68272086Y-33261914D01*
X66800137Y-108530914D02*
X70676086Y-108530914D01*
X78907086Y-80500914D02*
X80868086Y-82461914D01*
X62225137Y-103955914D02*
X66800137Y-108530914D01*
X80868086Y-82461914D02*
X80868086Y-83083016D01*
X50991086Y-87434914D02*
X50991086Y-92260914D01*
X55064086Y-83361914D02*
X64350086Y-83361914D01*
X82614086Y-93403914D02*
X82614086Y-96019914D01*
%TO.N,Net-(D3-A)*%
X31919086Y-98521914D02*
X29712086Y-98521914D01*
X29712086Y-98521914D02*
X29462086Y-98771914D01*
X29462086Y-98771914D02*
X29462086Y-109161914D01*
%TO.N,Net-(S1-E)*%
X75372086Y-43361914D02*
X78872086Y-46861914D01*
X78872086Y-46861914D02*
X78872086Y-49161914D01*
X64592086Y-40581914D02*
X67372086Y-43361914D01*
X67372086Y-43361914D02*
X75372086Y-43361914D01*
X61272086Y-40581914D02*
X64592086Y-40581914D01*
X82152086Y-49361914D02*
X82152086Y-53411914D01*
X78872086Y-49161914D02*
X79072086Y-49361914D01*
X79072086Y-49361914D02*
X82152086Y-49361914D01*
%TO.N,Net-(Q1-B)*%
X51272086Y-79661914D02*
X42372086Y-88561914D01*
X64272086Y-74561914D02*
X59172086Y-79661914D01*
X42418000Y-88607828D02*
X42418000Y-108966000D01*
X64272086Y-74337414D02*
X64272086Y-74561914D01*
X77372086Y-41261914D02*
X79472086Y-43361914D01*
X80202086Y-43361914D02*
X82152086Y-45311914D01*
X42372086Y-88561914D02*
X42418000Y-88607828D01*
X71992086Y-41261914D02*
X77372086Y-41261914D01*
X59172086Y-79661914D02*
X51272086Y-79661914D01*
X79472086Y-43361914D02*
X80202086Y-43361914D01*
%TO.N,Net-(Q1-C)*%
X54356000Y-111061914D02*
X53911914Y-111506000D01*
X92044578Y-104634406D02*
X92044578Y-73934406D01*
X53911914Y-111506000D02*
X44958000Y-111506000D01*
X54356000Y-111061914D02*
X66572086Y-111061914D01*
X76272086Y-50961914D02*
X74672086Y-49361914D01*
X92044578Y-73934406D02*
X86172086Y-68061914D01*
X74672086Y-49361914D02*
X71992086Y-49361914D01*
X84572086Y-113782086D02*
X84572086Y-112861914D01*
X94742000Y-108712000D02*
X94742000Y-115570000D01*
X94742000Y-115570000D02*
X86360000Y-115570000D01*
X86360000Y-115570000D02*
X84572086Y-113782086D01*
X92044578Y-104634406D02*
X94742000Y-107331828D01*
X94742000Y-107331828D02*
X94742000Y-108712000D01*
X84872086Y-68061914D02*
X76272086Y-59461914D01*
X76272086Y-59461914D02*
X76272086Y-50961914D01*
X68372086Y-112861914D02*
X84572086Y-112861914D01*
X66572086Y-111061914D02*
X68372086Y-112861914D01*
X86172086Y-68061914D02*
X84872086Y-68061914D01*
%TO.N,Net-(Q2-E)*%
X53291086Y-92260914D02*
X56592086Y-95561914D01*
X75872086Y-96361914D02*
X75872086Y-99561914D01*
X65472086Y-99561914D02*
X63825137Y-101208863D01*
X81395984Y-85910914D02*
X77585984Y-82100914D01*
X59147086Y-88036914D02*
X66739086Y-88036914D01*
X81395984Y-85910914D02*
X81395984Y-87738016D01*
X57097086Y-85986914D02*
X59147086Y-88036914D01*
X56466086Y-97594914D02*
X59064137Y-97594914D01*
X56466086Y-95687914D02*
X56466086Y-97594914D01*
X81395984Y-87738016D02*
X80214086Y-88919914D01*
X55739086Y-85986914D02*
X57097086Y-85986914D01*
X55739086Y-85986914D02*
X55739086Y-89812914D01*
X75872086Y-99561914D02*
X65472086Y-99561914D01*
X78830086Y-93403914D02*
X75872086Y-96361914D01*
X56592086Y-95561914D02*
X56466086Y-95687914D01*
X77585984Y-82100914D02*
X77407086Y-82100914D01*
X63825137Y-101208863D02*
X63825137Y-102355914D01*
X80214086Y-88919914D02*
X80214086Y-93403914D01*
X59064137Y-97594914D02*
X63825137Y-102355914D01*
X55739086Y-89812914D02*
X53291086Y-92260914D01*
X80214086Y-93403914D02*
X78830086Y-93403914D01*
%TO.N,Net-(S1-A-Pad1)*%
X40132000Y-65024000D02*
X47909914Y-72801914D01*
X48948086Y-46907914D02*
X52504086Y-46907914D01*
X44868086Y-76881914D02*
X40872086Y-76881914D01*
X48948086Y-72801914D02*
X44868086Y-76881914D01*
X48948086Y-46907914D02*
X41738086Y-46907914D01*
X40132000Y-48514000D02*
X40132000Y-65024000D01*
X47909914Y-72801914D02*
X48948086Y-72801914D01*
X41738086Y-46907914D02*
X40132000Y-48514000D01*
X52504086Y-72801914D02*
X48948086Y-72801914D01*
%TD*%
M02*
