%TF.GenerationSoftware,KiCad,Pcbnew,8.0.1*%
%TF.CreationDate,2024-04-02T10:43:05+02:00*%
%TF.ProjectId,Baerli,42616572-6c69-42e6-9b69-6361645f7063,rev?*%
%TF.SameCoordinates,Original*%
%TF.FileFunction,Legend,Top*%
%TF.FilePolarity,Positive*%
%FSLAX46Y46*%
G04 Gerber Fmt 4.6, Leading zero omitted, Abs format (unit mm)*
G04 Created by KiCad (PCBNEW 8.0.1) date 2024-04-02 10:43:05*
%MOMM*%
%LPD*%
G01*
G04 APERTURE LIST*
%ADD10C,0.010000*%
G04 APERTURE END LIST*
D10*
%TO.C,G\u002A\u002A\u002A*%
X68815826Y-46701961D02*
X69088329Y-46938757D01*
X69341630Y-47316026D01*
X69384514Y-47398800D01*
X69547164Y-47781450D01*
X69597073Y-48060246D01*
X69536872Y-48255281D01*
X69502000Y-48296267D01*
X69333146Y-48389551D01*
X69137558Y-48342991D01*
X68898445Y-48150213D01*
X68779032Y-48021877D01*
X68537759Y-47696425D01*
X68372635Y-47369998D01*
X68288497Y-47070924D01*
X68290186Y-46827532D01*
X68382538Y-46668149D01*
X68539554Y-46619867D01*
X68815826Y-46701961D01*
G36*
X68815826Y-46701961D02*
G01*
X69088329Y-46938757D01*
X69341630Y-47316026D01*
X69384514Y-47398800D01*
X69547164Y-47781450D01*
X69597073Y-48060246D01*
X69536872Y-48255281D01*
X69502000Y-48296267D01*
X69333146Y-48389551D01*
X69137558Y-48342991D01*
X68898445Y-48150213D01*
X68779032Y-48021877D01*
X68537759Y-47696425D01*
X68372635Y-47369998D01*
X68288497Y-47070924D01*
X68290186Y-46827532D01*
X68382538Y-46668149D01*
X68539554Y-46619867D01*
X68815826Y-46701961D01*
G37*
X51357985Y-52285759D02*
X51588963Y-52493464D01*
X51794851Y-52792023D01*
X51956209Y-53142478D01*
X52053597Y-53505870D01*
X52067577Y-53843241D01*
X52026208Y-54021275D01*
X51906317Y-54130716D01*
X51706445Y-54147858D01*
X51485332Y-54077515D01*
X51335614Y-53964700D01*
X51140604Y-53693674D01*
X50967287Y-53345275D01*
X50846879Y-52991929D01*
X50809460Y-52743958D01*
X50834692Y-52436803D01*
X50925257Y-52266506D01*
X51095469Y-52208458D01*
X51121356Y-52207867D01*
X51357985Y-52285759D01*
G36*
X51357985Y-52285759D02*
G01*
X51588963Y-52493464D01*
X51794851Y-52792023D01*
X51956209Y-53142478D01*
X52053597Y-53505870D01*
X52067577Y-53843241D01*
X52026208Y-54021275D01*
X51906317Y-54130716D01*
X51706445Y-54147858D01*
X51485332Y-54077515D01*
X51335614Y-53964700D01*
X51140604Y-53693674D01*
X50967287Y-53345275D01*
X50846879Y-52991929D01*
X50809460Y-52743958D01*
X50834692Y-52436803D01*
X50925257Y-52266506D01*
X51095469Y-52208458D01*
X51121356Y-52207867D01*
X51357985Y-52285759D01*
G37*
X101735431Y-93424106D02*
X102716550Y-93644160D01*
X103615359Y-94001700D01*
X104427590Y-94489261D01*
X105148978Y-95099379D01*
X105775257Y-95824588D01*
X106302160Y-96657424D01*
X106725421Y-97590423D01*
X107040774Y-98616119D01*
X107243953Y-99727047D01*
X107330692Y-100915744D01*
X107296723Y-102174743D01*
X107137782Y-103496581D01*
X106970615Y-104362534D01*
X106553313Y-105913982D01*
X105998017Y-107435455D01*
X105315549Y-108913119D01*
X104516729Y-110333138D01*
X103612376Y-111681677D01*
X102613310Y-112944903D01*
X101530352Y-114108981D01*
X100374321Y-115160075D01*
X99156038Y-116084351D01*
X97886323Y-116867975D01*
X96758232Y-117420250D01*
X96094114Y-117679046D01*
X95394420Y-117903691D01*
X94714400Y-118078701D01*
X94109302Y-118188588D01*
X93954117Y-118206216D01*
X93473281Y-118249981D01*
X93115864Y-118276898D01*
X92836877Y-118287799D01*
X92591330Y-118283515D01*
X92334234Y-118264880D01*
X92093866Y-118240608D01*
X91481762Y-118152904D01*
X90936853Y-118018866D01*
X90391010Y-117817905D01*
X89829882Y-117556436D01*
X89444079Y-117346506D01*
X89107152Y-117117819D01*
X88767226Y-116831142D01*
X88399600Y-116474737D01*
X87898098Y-115932881D01*
X87506707Y-115417803D01*
X87188556Y-114872196D01*
X86906773Y-114238757D01*
X86826217Y-114029442D01*
X86557313Y-113207474D01*
X86372370Y-112382183D01*
X86259868Y-111493622D01*
X86221300Y-110881298D01*
X86240791Y-109442854D01*
X86415906Y-107979777D01*
X86737626Y-106507015D01*
X87196932Y-105039517D01*
X87784807Y-103592232D01*
X88492230Y-102180108D01*
X89310184Y-100818095D01*
X90229651Y-99521139D01*
X91241611Y-98304192D01*
X92337046Y-97182200D01*
X93506938Y-96170114D01*
X94742267Y-95282880D01*
X96034016Y-94535449D01*
X96104267Y-94499828D01*
X97241647Y-93992736D01*
X98348668Y-93636850D01*
X99454464Y-93424836D01*
X100588167Y-93349363D01*
X100676267Y-93349002D01*
X101735431Y-93424106D01*
G36*
X101735431Y-93424106D02*
G01*
X102716550Y-93644160D01*
X103615359Y-94001700D01*
X104427590Y-94489261D01*
X105148978Y-95099379D01*
X105775257Y-95824588D01*
X106302160Y-96657424D01*
X106725421Y-97590423D01*
X107040774Y-98616119D01*
X107243953Y-99727047D01*
X107330692Y-100915744D01*
X107296723Y-102174743D01*
X107137782Y-103496581D01*
X106970615Y-104362534D01*
X106553313Y-105913982D01*
X105998017Y-107435455D01*
X105315549Y-108913119D01*
X104516729Y-110333138D01*
X103612376Y-111681677D01*
X102613310Y-112944903D01*
X101530352Y-114108981D01*
X100374321Y-115160075D01*
X99156038Y-116084351D01*
X97886323Y-116867975D01*
X96758232Y-117420250D01*
X96094114Y-117679046D01*
X95394420Y-117903691D01*
X94714400Y-118078701D01*
X94109302Y-118188588D01*
X93954117Y-118206216D01*
X93473281Y-118249981D01*
X93115864Y-118276898D01*
X92836877Y-118287799D01*
X92591330Y-118283515D01*
X92334234Y-118264880D01*
X92093866Y-118240608D01*
X91481762Y-118152904D01*
X90936853Y-118018866D01*
X90391010Y-117817905D01*
X89829882Y-117556436D01*
X89444079Y-117346506D01*
X89107152Y-117117819D01*
X88767226Y-116831142D01*
X88399600Y-116474737D01*
X87898098Y-115932881D01*
X87506707Y-115417803D01*
X87188556Y-114872196D01*
X86906773Y-114238757D01*
X86826217Y-114029442D01*
X86557313Y-113207474D01*
X86372370Y-112382183D01*
X86259868Y-111493622D01*
X86221300Y-110881298D01*
X86240791Y-109442854D01*
X86415906Y-107979777D01*
X86737626Y-106507015D01*
X87196932Y-105039517D01*
X87784807Y-103592232D01*
X88492230Y-102180108D01*
X89310184Y-100818095D01*
X90229651Y-99521139D01*
X91241611Y-98304192D01*
X92337046Y-97182200D01*
X93506938Y-96170114D01*
X94742267Y-95282880D01*
X96034016Y-94535449D01*
X96104267Y-94499828D01*
X97241647Y-93992736D01*
X98348668Y-93636850D01*
X99454464Y-93424836D01*
X100588167Y-93349363D01*
X100676267Y-93349002D01*
X101735431Y-93424106D01*
G37*
X32138305Y-92819091D02*
X32750832Y-92861846D01*
X33317542Y-92945804D01*
X33899466Y-93080476D01*
X34557633Y-93275375D01*
X34689443Y-93317760D01*
X36052536Y-93845895D01*
X37384452Y-94529273D01*
X38674009Y-95354987D01*
X39910023Y-96310130D01*
X41081313Y-97381796D01*
X42176695Y-98557079D01*
X43184987Y-99823072D01*
X44095005Y-101166870D01*
X44895569Y-102575565D01*
X45575494Y-104036251D01*
X46123598Y-105536022D01*
X46505323Y-106954989D01*
X46571841Y-107278609D01*
X46620721Y-107586844D01*
X46654513Y-107915057D01*
X46675772Y-108298609D01*
X46687048Y-108772861D01*
X46690895Y-109373174D01*
X46690998Y-109527200D01*
X46684106Y-110280834D01*
X46658688Y-110901350D01*
X46607503Y-111424589D01*
X46523308Y-111886391D01*
X46398862Y-112322596D01*
X46226923Y-112769042D01*
X46000249Y-113261571D01*
X45892234Y-113480309D01*
X45360883Y-114364380D01*
X44715299Y-115130203D01*
X43966201Y-115769438D01*
X43124306Y-116273751D01*
X42200329Y-116634805D01*
X41665198Y-116768457D01*
X40965445Y-116873330D01*
X40199477Y-116926291D01*
X39452398Y-116923374D01*
X39030969Y-116891200D01*
X37805980Y-116674562D01*
X36556379Y-116301881D01*
X35297888Y-115781575D01*
X34046229Y-115122061D01*
X32817122Y-114331756D01*
X31626288Y-113419077D01*
X30489450Y-112392441D01*
X30325963Y-112230550D01*
X29201433Y-111011208D01*
X28188609Y-109724182D01*
X27293672Y-108383414D01*
X26522809Y-107002845D01*
X25882202Y-105596416D01*
X25378035Y-104178068D01*
X25016492Y-102761743D01*
X24803756Y-101361381D01*
X24746013Y-99990925D01*
X24755696Y-99672644D01*
X24824651Y-98787527D01*
X24954939Y-98008262D01*
X25160474Y-97278145D01*
X25455165Y-96540470D01*
X25599193Y-96234534D01*
X25817813Y-95805936D01*
X26017972Y-95471380D01*
X26240028Y-95174711D01*
X26524339Y-94859773D01*
X26757539Y-94622760D01*
X27465634Y-94000584D01*
X28213388Y-93519704D01*
X29045305Y-93154010D01*
X29518725Y-93002761D01*
X29835498Y-92920903D01*
X30141175Y-92865168D01*
X30481344Y-92830883D01*
X30901597Y-92813377D01*
X31418934Y-92808027D01*
X32138305Y-92819091D01*
G36*
X32138305Y-92819091D02*
G01*
X32750832Y-92861846D01*
X33317542Y-92945804D01*
X33899466Y-93080476D01*
X34557633Y-93275375D01*
X34689443Y-93317760D01*
X36052536Y-93845895D01*
X37384452Y-94529273D01*
X38674009Y-95354987D01*
X39910023Y-96310130D01*
X41081313Y-97381796D01*
X42176695Y-98557079D01*
X43184987Y-99823072D01*
X44095005Y-101166870D01*
X44895569Y-102575565D01*
X45575494Y-104036251D01*
X46123598Y-105536022D01*
X46505323Y-106954989D01*
X46571841Y-107278609D01*
X46620721Y-107586844D01*
X46654513Y-107915057D01*
X46675772Y-108298609D01*
X46687048Y-108772861D01*
X46690895Y-109373174D01*
X46690998Y-109527200D01*
X46684106Y-110280834D01*
X46658688Y-110901350D01*
X46607503Y-111424589D01*
X46523308Y-111886391D01*
X46398862Y-112322596D01*
X46226923Y-112769042D01*
X46000249Y-113261571D01*
X45892234Y-113480309D01*
X45360883Y-114364380D01*
X44715299Y-115130203D01*
X43966201Y-115769438D01*
X43124306Y-116273751D01*
X42200329Y-116634805D01*
X41665198Y-116768457D01*
X40965445Y-116873330D01*
X40199477Y-116926291D01*
X39452398Y-116923374D01*
X39030969Y-116891200D01*
X37805980Y-116674562D01*
X36556379Y-116301881D01*
X35297888Y-115781575D01*
X34046229Y-115122061D01*
X32817122Y-114331756D01*
X31626288Y-113419077D01*
X30489450Y-112392441D01*
X30325963Y-112230550D01*
X29201433Y-111011208D01*
X28188609Y-109724182D01*
X27293672Y-108383414D01*
X26522809Y-107002845D01*
X25882202Y-105596416D01*
X25378035Y-104178068D01*
X25016492Y-102761743D01*
X24803756Y-101361381D01*
X24746013Y-99990925D01*
X24755696Y-99672644D01*
X24824651Y-98787527D01*
X24954939Y-98008262D01*
X25160474Y-97278145D01*
X25455165Y-96540470D01*
X25599193Y-96234534D01*
X25817813Y-95805936D01*
X26017972Y-95471380D01*
X26240028Y-95174711D01*
X26524339Y-94859773D01*
X26757539Y-94622760D01*
X27465634Y-94000584D01*
X28213388Y-93519704D01*
X29045305Y-93154010D01*
X29518725Y-93002761D01*
X29835498Y-92920903D01*
X30141175Y-92865168D01*
X30481344Y-92830883D01*
X30901597Y-92813377D01*
X31418934Y-92808027D01*
X32138305Y-92819091D01*
G37*
X95138573Y-63311386D02*
X95697933Y-63395013D01*
X96035851Y-63496205D01*
X96479718Y-63671136D01*
X96993259Y-63901643D01*
X97540197Y-64169565D01*
X98084257Y-64456739D01*
X98589163Y-64745003D01*
X99018641Y-65016194D01*
X99216394Y-65156629D01*
X100126897Y-65943859D01*
X100906649Y-66835765D01*
X101557330Y-67834975D01*
X102080622Y-68944118D01*
X102478206Y-70165822D01*
X102516787Y-70317047D01*
X102606221Y-70700068D01*
X102668723Y-71038468D01*
X102709066Y-71379499D01*
X102732023Y-71770415D01*
X102742365Y-72258468D01*
X102744356Y-72570200D01*
X102728801Y-73417565D01*
X102670300Y-74142553D01*
X102560523Y-74788544D01*
X102391141Y-75398919D01*
X102153823Y-76017059D01*
X102029055Y-76295534D01*
X101865716Y-76650129D01*
X101678235Y-77061191D01*
X101532675Y-77383190D01*
X101064092Y-78238752D01*
X100473451Y-78987197D01*
X99755789Y-79632649D01*
X98906139Y-80179233D01*
X97919537Y-80631075D01*
X97404691Y-80812667D01*
X96963861Y-80952599D01*
X96640355Y-81044566D01*
X96391213Y-81095219D01*
X96173476Y-81111208D01*
X95944182Y-81099185D01*
X95720232Y-81073446D01*
X94997878Y-80921049D01*
X94298143Y-80661093D01*
X93810237Y-80396714D01*
X93544384Y-80195299D01*
X93219429Y-79904231D01*
X92873923Y-79563105D01*
X92546417Y-79211521D01*
X92275462Y-78889075D01*
X92105475Y-78645680D01*
X91959017Y-78391857D01*
X93438975Y-77476203D01*
X93883807Y-77198311D01*
X94275130Y-76948732D01*
X94591560Y-76741528D01*
X94811711Y-76590764D01*
X94914198Y-76510501D01*
X94918934Y-76502960D01*
X94872362Y-76403407D01*
X94757874Y-76233314D01*
X94733846Y-76201118D01*
X94607263Y-76033377D01*
X94534531Y-75935685D01*
X94530267Y-75929677D01*
X94453917Y-75959989D01*
X94250913Y-76060139D01*
X93943194Y-76218768D01*
X93552701Y-76424512D01*
X93101372Y-76666010D01*
X92936239Y-76755177D01*
X92459000Y-77009580D01*
X92024800Y-77233725D01*
X91658091Y-77415578D01*
X91383326Y-77543101D01*
X91224959Y-77604260D01*
X91203859Y-77607867D01*
X91056094Y-77571375D01*
X90807662Y-77474815D01*
X90507441Y-77337560D01*
X90448766Y-77308574D01*
X89816354Y-76900869D01*
X89281514Y-76371477D01*
X88853998Y-75743492D01*
X88543559Y-75040007D01*
X88359951Y-74284118D01*
X88312927Y-73498919D01*
X88412240Y-72707502D01*
X88446240Y-72566822D01*
X88508343Y-72328254D01*
X88568810Y-72138215D01*
X88646944Y-71985578D01*
X88762050Y-71859214D01*
X88933433Y-71747996D01*
X89180398Y-71640795D01*
X89522247Y-71526483D01*
X89978287Y-71393932D01*
X90567821Y-71232014D01*
X90935153Y-71132078D01*
X91591463Y-70951722D01*
X92100289Y-70807590D01*
X92478209Y-70693975D01*
X92741797Y-70605173D01*
X92907630Y-70535477D01*
X92992286Y-70479181D01*
X93012339Y-70430580D01*
X93008916Y-70418253D01*
X92939532Y-70239222D01*
X92870140Y-70051795D01*
X92776568Y-69885962D01*
X92641021Y-69855203D01*
X92603634Y-69862492D01*
X92397795Y-69908923D01*
X92077264Y-69978553D01*
X91670664Y-70065414D01*
X91206614Y-70163538D01*
X90713737Y-70266957D01*
X90220653Y-70369702D01*
X89755983Y-70465806D01*
X89348349Y-70549300D01*
X89026372Y-70614217D01*
X88818673Y-70654587D01*
X88754137Y-70665200D01*
X88667392Y-70592085D01*
X88540482Y-70397755D01*
X88392201Y-70119733D01*
X88241342Y-69795544D01*
X88106697Y-69462710D01*
X88016547Y-69192467D01*
X87931976Y-68798269D01*
X87899143Y-68351735D01*
X87906398Y-67917726D01*
X87960937Y-67351893D01*
X88083441Y-66869749D01*
X88293777Y-66430022D01*
X88611812Y-65991440D01*
X89057413Y-65512730D01*
X89070177Y-65500072D01*
X89764962Y-64910454D01*
X90567646Y-64397105D01*
X91447917Y-63969654D01*
X92375458Y-63637728D01*
X93319958Y-63410956D01*
X94251101Y-63298966D01*
X95138573Y-63311386D01*
G36*
X95138573Y-63311386D02*
G01*
X95697933Y-63395013D01*
X96035851Y-63496205D01*
X96479718Y-63671136D01*
X96993259Y-63901643D01*
X97540197Y-64169565D01*
X98084257Y-64456739D01*
X98589163Y-64745003D01*
X99018641Y-65016194D01*
X99216394Y-65156629D01*
X100126897Y-65943859D01*
X100906649Y-66835765D01*
X101557330Y-67834975D01*
X102080622Y-68944118D01*
X102478206Y-70165822D01*
X102516787Y-70317047D01*
X102606221Y-70700068D01*
X102668723Y-71038468D01*
X102709066Y-71379499D01*
X102732023Y-71770415D01*
X102742365Y-72258468D01*
X102744356Y-72570200D01*
X102728801Y-73417565D01*
X102670300Y-74142553D01*
X102560523Y-74788544D01*
X102391141Y-75398919D01*
X102153823Y-76017059D01*
X102029055Y-76295534D01*
X101865716Y-76650129D01*
X101678235Y-77061191D01*
X101532675Y-77383190D01*
X101064092Y-78238752D01*
X100473451Y-78987197D01*
X99755789Y-79632649D01*
X98906139Y-80179233D01*
X97919537Y-80631075D01*
X97404691Y-80812667D01*
X96963861Y-80952599D01*
X96640355Y-81044566D01*
X96391213Y-81095219D01*
X96173476Y-81111208D01*
X95944182Y-81099185D01*
X95720232Y-81073446D01*
X94997878Y-80921049D01*
X94298143Y-80661093D01*
X93810237Y-80396714D01*
X93544384Y-80195299D01*
X93219429Y-79904231D01*
X92873923Y-79563105D01*
X92546417Y-79211521D01*
X92275462Y-78889075D01*
X92105475Y-78645680D01*
X91959017Y-78391857D01*
X93438975Y-77476203D01*
X93883807Y-77198311D01*
X94275130Y-76948732D01*
X94591560Y-76741528D01*
X94811711Y-76590764D01*
X94914198Y-76510501D01*
X94918934Y-76502960D01*
X94872362Y-76403407D01*
X94757874Y-76233314D01*
X94733846Y-76201118D01*
X94607263Y-76033377D01*
X94534531Y-75935685D01*
X94530267Y-75929677D01*
X94453917Y-75959989D01*
X94250913Y-76060139D01*
X93943194Y-76218768D01*
X93552701Y-76424512D01*
X93101372Y-76666010D01*
X92936239Y-76755177D01*
X92459000Y-77009580D01*
X92024800Y-77233725D01*
X91658091Y-77415578D01*
X91383326Y-77543101D01*
X91224959Y-77604260D01*
X91203859Y-77607867D01*
X91056094Y-77571375D01*
X90807662Y-77474815D01*
X90507441Y-77337560D01*
X90448766Y-77308574D01*
X89816354Y-76900869D01*
X89281514Y-76371477D01*
X88853998Y-75743492D01*
X88543559Y-75040007D01*
X88359951Y-74284118D01*
X88312927Y-73498919D01*
X88412240Y-72707502D01*
X88446240Y-72566822D01*
X88508343Y-72328254D01*
X88568810Y-72138215D01*
X88646944Y-71985578D01*
X88762050Y-71859214D01*
X88933433Y-71747996D01*
X89180398Y-71640795D01*
X89522247Y-71526483D01*
X89978287Y-71393932D01*
X90567821Y-71232014D01*
X90935153Y-71132078D01*
X91591463Y-70951722D01*
X92100289Y-70807590D01*
X92478209Y-70693975D01*
X92741797Y-70605173D01*
X92907630Y-70535477D01*
X92992286Y-70479181D01*
X93012339Y-70430580D01*
X93008916Y-70418253D01*
X92939532Y-70239222D01*
X92870140Y-70051795D01*
X92776568Y-69885962D01*
X92641021Y-69855203D01*
X92603634Y-69862492D01*
X92397795Y-69908923D01*
X92077264Y-69978553D01*
X91670664Y-70065414D01*
X91206614Y-70163538D01*
X90713737Y-70266957D01*
X90220653Y-70369702D01*
X89755983Y-70465806D01*
X89348349Y-70549300D01*
X89026372Y-70614217D01*
X88818673Y-70654587D01*
X88754137Y-70665200D01*
X88667392Y-70592085D01*
X88540482Y-70397755D01*
X88392201Y-70119733D01*
X88241342Y-69795544D01*
X88106697Y-69462710D01*
X88016547Y-69192467D01*
X87931976Y-68798269D01*
X87899143Y-68351735D01*
X87906398Y-67917726D01*
X87960937Y-67351893D01*
X88083441Y-66869749D01*
X88293777Y-66430022D01*
X88611812Y-65991440D01*
X89057413Y-65512730D01*
X89070177Y-65500072D01*
X89764962Y-64910454D01*
X90567646Y-64397105D01*
X91447917Y-63969654D01*
X92375458Y-63637728D01*
X93319958Y-63410956D01*
X94251101Y-63298966D01*
X95138573Y-63311386D01*
G37*
X63427298Y-54626584D02*
X64152613Y-54839333D01*
X64791876Y-55167386D01*
X65328008Y-55603323D01*
X65743935Y-56139724D01*
X65855367Y-56344553D01*
X65977394Y-56619356D01*
X66048539Y-56869368D01*
X66081525Y-57159771D01*
X66089100Y-57541867D01*
X66081598Y-57917884D01*
X66049246Y-58200619D01*
X65975728Y-58461236D01*
X65844725Y-58770903D01*
X65771626Y-58926432D01*
X65388771Y-59562088D01*
X64872533Y-60166520D01*
X64258753Y-60702365D01*
X63736644Y-61047928D01*
X63449020Y-61217413D01*
X63282037Y-61336210D01*
X63208198Y-61435656D01*
X63200004Y-61547091D01*
X63216772Y-61640409D01*
X63313916Y-62019629D01*
X63467817Y-62522586D01*
X63667091Y-63117997D01*
X63900352Y-63774581D01*
X64156218Y-64461056D01*
X64423303Y-65146141D01*
X64690223Y-65798554D01*
X64938255Y-66370690D01*
X65195936Y-66944512D01*
X65773862Y-66653473D01*
X66269573Y-66375667D01*
X66748032Y-66043915D01*
X67242502Y-65632031D01*
X67786250Y-65113828D01*
X67982402Y-64914787D01*
X68415740Y-64433494D01*
X68752106Y-63966297D01*
X69004333Y-63479801D01*
X69185250Y-62940615D01*
X69307688Y-62315343D01*
X69384480Y-61570594D01*
X69406498Y-61208486D01*
X69459549Y-60176105D01*
X69233506Y-60119372D01*
X69009780Y-60104724D01*
X68724539Y-60136890D01*
X68633039Y-60156919D01*
X68247852Y-60236629D01*
X67986817Y-60242780D01*
X67819703Y-60171386D01*
X67724413Y-60037087D01*
X67696169Y-59796635D01*
X67811740Y-59559779D01*
X68045805Y-59338254D01*
X68373044Y-59143801D01*
X68768135Y-58988155D01*
X69205756Y-58883056D01*
X69660586Y-58840241D01*
X70107304Y-58871447D01*
X70200790Y-58889157D01*
X70847337Y-59087703D01*
X71366484Y-59383597D01*
X71672551Y-59663725D01*
X71904018Y-59994196D01*
X71970048Y-60291079D01*
X71870824Y-60556070D01*
X71778310Y-60659775D01*
X71522475Y-60818502D01*
X71276908Y-60810595D01*
X71077422Y-60665865D01*
X70871830Y-60485623D01*
X70704467Y-60378304D01*
X70492600Y-60268743D01*
X70491439Y-61339472D01*
X70455241Y-62306580D01*
X70343522Y-63146055D01*
X70148208Y-63885584D01*
X69861225Y-64552856D01*
X69474500Y-65175557D01*
X69308965Y-65394583D01*
X68574474Y-66190144D01*
X67700430Y-66900164D01*
X66696469Y-67519205D01*
X65572228Y-68041828D01*
X64337341Y-68462596D01*
X63494905Y-68675590D01*
X63057886Y-68748606D01*
X62517112Y-68803313D01*
X61918161Y-68838580D01*
X61306608Y-68853273D01*
X60728029Y-68846259D01*
X60228001Y-68816405D01*
X59866934Y-68765791D01*
X59013024Y-68530531D01*
X58245657Y-68196863D01*
X57537503Y-67747439D01*
X56861231Y-67164914D01*
X56189509Y-66431943D01*
X56189445Y-66431867D01*
X55940264Y-66137223D01*
X55726852Y-65892788D01*
X55574548Y-65727098D01*
X55512781Y-65669867D01*
X55443558Y-65715963D01*
X55355915Y-65881175D01*
X55314961Y-65990784D01*
X55193273Y-66247886D01*
X55035931Y-66450034D01*
X54985155Y-66490795D01*
X54831323Y-66574240D01*
X54695611Y-66575373D01*
X54496449Y-66494033D01*
X54487573Y-66489808D01*
X54253346Y-66317406D01*
X54143517Y-66075358D01*
X54158431Y-65752500D01*
X54298433Y-65337668D01*
X54537819Y-64865534D01*
X54950410Y-64288387D01*
X55455372Y-63850328D01*
X56044688Y-63556589D01*
X56710341Y-63412405D01*
X56771418Y-63407119D01*
X57237117Y-63405589D01*
X57561231Y-63485666D01*
X57752129Y-63650295D01*
X57801347Y-63769575D01*
X57789432Y-64011579D01*
X57619394Y-64212971D01*
X57288041Y-64376698D01*
X57072934Y-64442200D01*
X56681126Y-64582909D01*
X56431622Y-64756598D01*
X56335089Y-64954176D01*
X56347870Y-65060195D01*
X56427124Y-65180349D01*
X56605894Y-65388713D01*
X56859546Y-65658336D01*
X57163449Y-65962271D01*
X57240232Y-66036469D01*
X57907219Y-66625025D01*
X58545956Y-67069822D01*
X59191292Y-67384238D01*
X59878071Y-67581653D01*
X60641141Y-67675446D01*
X61515349Y-67678998D01*
X61517934Y-67678896D01*
X61940029Y-67652461D01*
X62396118Y-67607905D01*
X62850150Y-67550619D01*
X63266075Y-67485993D01*
X63607844Y-67419419D01*
X63839404Y-67356289D01*
X63912334Y-67320825D01*
X63897683Y-67234991D01*
X63833876Y-67014465D01*
X63729339Y-66683797D01*
X63592497Y-66267537D01*
X63431775Y-65790237D01*
X63255600Y-65276445D01*
X63072397Y-64750713D01*
X62890591Y-64237591D01*
X62718608Y-63761628D01*
X62564873Y-63347376D01*
X62437813Y-63019385D01*
X62426204Y-62990559D01*
X62020049Y-61986867D01*
X61176325Y-62015065D01*
X60199438Y-61981976D01*
X59317017Y-61815175D01*
X58554600Y-61525424D01*
X58035695Y-61232710D01*
X57644975Y-60918626D01*
X57342122Y-60545066D01*
X57142324Y-60190669D01*
X56988800Y-59852109D01*
X56906009Y-59574746D01*
X56874873Y-59276225D01*
X56873327Y-59029516D01*
X56965072Y-58298763D01*
X57211152Y-57595922D01*
X57597228Y-56933988D01*
X58108958Y-56325958D01*
X58732003Y-55784826D01*
X59452024Y-55323589D01*
X60254679Y-54955241D01*
X61125630Y-54692780D01*
X61786820Y-54576684D01*
X62633009Y-54536561D01*
X63427298Y-54626584D01*
G36*
X63427298Y-54626584D02*
G01*
X64152613Y-54839333D01*
X64791876Y-55167386D01*
X65328008Y-55603323D01*
X65743935Y-56139724D01*
X65855367Y-56344553D01*
X65977394Y-56619356D01*
X66048539Y-56869368D01*
X66081525Y-57159771D01*
X66089100Y-57541867D01*
X66081598Y-57917884D01*
X66049246Y-58200619D01*
X65975728Y-58461236D01*
X65844725Y-58770903D01*
X65771626Y-58926432D01*
X65388771Y-59562088D01*
X64872533Y-60166520D01*
X64258753Y-60702365D01*
X63736644Y-61047928D01*
X63449020Y-61217413D01*
X63282037Y-61336210D01*
X63208198Y-61435656D01*
X63200004Y-61547091D01*
X63216772Y-61640409D01*
X63313916Y-62019629D01*
X63467817Y-62522586D01*
X63667091Y-63117997D01*
X63900352Y-63774581D01*
X64156218Y-64461056D01*
X64423303Y-65146141D01*
X64690223Y-65798554D01*
X64938255Y-66370690D01*
X65195936Y-66944512D01*
X65773862Y-66653473D01*
X66269573Y-66375667D01*
X66748032Y-66043915D01*
X67242502Y-65632031D01*
X67786250Y-65113828D01*
X67982402Y-64914787D01*
X68415740Y-64433494D01*
X68752106Y-63966297D01*
X69004333Y-63479801D01*
X69185250Y-62940615D01*
X69307688Y-62315343D01*
X69384480Y-61570594D01*
X69406498Y-61208486D01*
X69459549Y-60176105D01*
X69233506Y-60119372D01*
X69009780Y-60104724D01*
X68724539Y-60136890D01*
X68633039Y-60156919D01*
X68247852Y-60236629D01*
X67986817Y-60242780D01*
X67819703Y-60171386D01*
X67724413Y-60037087D01*
X67696169Y-59796635D01*
X67811740Y-59559779D01*
X68045805Y-59338254D01*
X68373044Y-59143801D01*
X68768135Y-58988155D01*
X69205756Y-58883056D01*
X69660586Y-58840241D01*
X70107304Y-58871447D01*
X70200790Y-58889157D01*
X70847337Y-59087703D01*
X71366484Y-59383597D01*
X71672551Y-59663725D01*
X71904018Y-59994196D01*
X71970048Y-60291079D01*
X71870824Y-60556070D01*
X71778310Y-60659775D01*
X71522475Y-60818502D01*
X71276908Y-60810595D01*
X71077422Y-60665865D01*
X70871830Y-60485623D01*
X70704467Y-60378304D01*
X70492600Y-60268743D01*
X70491439Y-61339472D01*
X70455241Y-62306580D01*
X70343522Y-63146055D01*
X70148208Y-63885584D01*
X69861225Y-64552856D01*
X69474500Y-65175557D01*
X69308965Y-65394583D01*
X68574474Y-66190144D01*
X67700430Y-66900164D01*
X66696469Y-67519205D01*
X65572228Y-68041828D01*
X64337341Y-68462596D01*
X63494905Y-68675590D01*
X63057886Y-68748606D01*
X62517112Y-68803313D01*
X61918161Y-68838580D01*
X61306608Y-68853273D01*
X60728029Y-68846259D01*
X60228001Y-68816405D01*
X59866934Y-68765791D01*
X59013024Y-68530531D01*
X58245657Y-68196863D01*
X57537503Y-67747439D01*
X56861231Y-67164914D01*
X56189509Y-66431943D01*
X56189445Y-66431867D01*
X55940264Y-66137223D01*
X55726852Y-65892788D01*
X55574548Y-65727098D01*
X55512781Y-65669867D01*
X55443558Y-65715963D01*
X55355915Y-65881175D01*
X55314961Y-65990784D01*
X55193273Y-66247886D01*
X55035931Y-66450034D01*
X54985155Y-66490795D01*
X54831323Y-66574240D01*
X54695611Y-66575373D01*
X54496449Y-66494033D01*
X54487573Y-66489808D01*
X54253346Y-66317406D01*
X54143517Y-66075358D01*
X54158431Y-65752500D01*
X54298433Y-65337668D01*
X54537819Y-64865534D01*
X54950410Y-64288387D01*
X55455372Y-63850328D01*
X56044688Y-63556589D01*
X56710341Y-63412405D01*
X56771418Y-63407119D01*
X57237117Y-63405589D01*
X57561231Y-63485666D01*
X57752129Y-63650295D01*
X57801347Y-63769575D01*
X57789432Y-64011579D01*
X57619394Y-64212971D01*
X57288041Y-64376698D01*
X57072934Y-64442200D01*
X56681126Y-64582909D01*
X56431622Y-64756598D01*
X56335089Y-64954176D01*
X56347870Y-65060195D01*
X56427124Y-65180349D01*
X56605894Y-65388713D01*
X56859546Y-65658336D01*
X57163449Y-65962271D01*
X57240232Y-66036469D01*
X57907219Y-66625025D01*
X58545956Y-67069822D01*
X59191292Y-67384238D01*
X59878071Y-67581653D01*
X60641141Y-67675446D01*
X61515349Y-67678998D01*
X61517934Y-67678896D01*
X61940029Y-67652461D01*
X62396118Y-67607905D01*
X62850150Y-67550619D01*
X63266075Y-67485993D01*
X63607844Y-67419419D01*
X63839404Y-67356289D01*
X63912334Y-67320825D01*
X63897683Y-67234991D01*
X63833876Y-67014465D01*
X63729339Y-66683797D01*
X63592497Y-66267537D01*
X63431775Y-65790237D01*
X63255600Y-65276445D01*
X63072397Y-64750713D01*
X62890591Y-64237591D01*
X62718608Y-63761628D01*
X62564873Y-63347376D01*
X62437813Y-63019385D01*
X62426204Y-62990559D01*
X62020049Y-61986867D01*
X61176325Y-62015065D01*
X60199438Y-61981976D01*
X59317017Y-61815175D01*
X58554600Y-61525424D01*
X58035695Y-61232710D01*
X57644975Y-60918626D01*
X57342122Y-60545066D01*
X57142324Y-60190669D01*
X56988800Y-59852109D01*
X56906009Y-59574746D01*
X56874873Y-59276225D01*
X56873327Y-59029516D01*
X56965072Y-58298763D01*
X57211152Y-57595922D01*
X57597228Y-56933988D01*
X58108958Y-56325958D01*
X58732003Y-55784826D01*
X59452024Y-55323589D01*
X60254679Y-54955241D01*
X61125630Y-54692780D01*
X61786820Y-54576684D01*
X62633009Y-54536561D01*
X63427298Y-54626584D01*
G37*
X85528778Y-65721586D02*
X85945356Y-65727410D01*
X86255975Y-65738985D01*
X86481756Y-65757480D01*
X86643819Y-65784063D01*
X86763283Y-65819904D01*
X86858173Y-65864475D01*
X87137079Y-66016750D01*
X87069840Y-66541808D01*
X87042899Y-66845276D01*
X87022248Y-67258456D01*
X87010259Y-67721776D01*
X87008466Y-68082867D01*
X87060958Y-69002626D01*
X87212644Y-69816405D01*
X87471899Y-70561145D01*
X87656810Y-70942426D01*
X87920556Y-71437263D01*
X87769385Y-72703820D01*
X87688793Y-73541951D01*
X87667513Y-74256379D01*
X87709692Y-74883494D01*
X87819475Y-75459688D01*
X88001009Y-76021354D01*
X88199958Y-76483142D01*
X88512996Y-77022822D01*
X88928496Y-77562128D01*
X89396008Y-78041169D01*
X89752571Y-78326358D01*
X89989399Y-78456604D01*
X90332529Y-78603705D01*
X90723886Y-78743830D01*
X90907961Y-78800499D01*
X91251167Y-78902035D01*
X91525898Y-78987265D01*
X91696586Y-79044925D01*
X91734932Y-79062347D01*
X91777094Y-79145636D01*
X91875048Y-79344860D01*
X92010881Y-79623504D01*
X92073575Y-79752665D01*
X92517294Y-80485614D01*
X92944678Y-80998412D01*
X93494289Y-81581028D01*
X93241497Y-82240281D01*
X93127283Y-82558258D01*
X92982393Y-82991489D01*
X92822249Y-83492287D01*
X92662273Y-84012968D01*
X92594484Y-84240931D01*
X92349660Y-85058282D01*
X92129862Y-85746572D01*
X91919219Y-86341060D01*
X91701857Y-86877003D01*
X91461903Y-87389662D01*
X91183484Y-87914294D01*
X90850726Y-88486158D01*
X90447757Y-89140513D01*
X90241138Y-89468352D01*
X89851374Y-90086594D01*
X89428170Y-90763178D01*
X88964926Y-91508842D01*
X88455041Y-92334327D01*
X87891915Y-93250370D01*
X87268949Y-94267710D01*
X86579541Y-95397087D01*
X85817092Y-96649240D01*
X84975002Y-98034906D01*
X84885771Y-98181867D01*
X84135203Y-99416742D01*
X83461551Y-100521810D01*
X82855011Y-101512710D01*
X82305781Y-102405078D01*
X81804059Y-103214551D01*
X81340042Y-103956766D01*
X80903927Y-104647361D01*
X80485912Y-105301972D01*
X80076194Y-105936237D01*
X79664971Y-106565794D01*
X79242440Y-107206278D01*
X78994357Y-107579867D01*
X78400149Y-108464178D01*
X77804787Y-109333842D01*
X77216650Y-110177682D01*
X76644116Y-110984522D01*
X76095562Y-111743184D01*
X75579365Y-112442491D01*
X75103903Y-113071268D01*
X74677554Y-113618338D01*
X74308694Y-114072522D01*
X74005702Y-114422646D01*
X73776955Y-114657531D01*
X73630830Y-114766002D01*
X73603362Y-114772205D01*
X73491837Y-114745196D01*
X73238537Y-114670167D01*
X72862183Y-114553088D01*
X72381497Y-114399928D01*
X71815200Y-114216656D01*
X71182014Y-114009240D01*
X70500659Y-113783651D01*
X70450267Y-113766874D01*
X69163279Y-113334561D01*
X68016933Y-112940801D01*
X66989250Y-112576939D01*
X66058252Y-112234319D01*
X65201963Y-111904285D01*
X64398403Y-111578181D01*
X63625596Y-111247351D01*
X62861563Y-110903138D01*
X62084326Y-110536887D01*
X61390934Y-110198845D01*
X59556360Y-109241867D01*
X57828658Y-108231767D01*
X56177898Y-107147507D01*
X54574148Y-105968046D01*
X52987480Y-104672345D01*
X51387962Y-103239364D01*
X51083800Y-102953317D01*
X50469598Y-102358324D01*
X49906930Y-101781919D01*
X49384286Y-101207497D01*
X48890156Y-100618450D01*
X48413028Y-99998175D01*
X47941393Y-99330065D01*
X47463740Y-98597515D01*
X46968559Y-97783920D01*
X46444340Y-96872674D01*
X45879573Y-95847171D01*
X45262746Y-94690806D01*
X44971058Y-94134688D01*
X44657724Y-93537544D01*
X44346812Y-92950074D01*
X44053516Y-92400614D01*
X43793030Y-91917499D01*
X43580550Y-91529067D01*
X43435234Y-91270510D01*
X43257460Y-90954995D01*
X43117434Y-90691841D01*
X43033732Y-90516778D01*
X43018267Y-90468427D01*
X43088353Y-90383089D01*
X43236339Y-90305431D01*
X43577794Y-90133214D01*
X43910483Y-89894779D01*
X44180905Y-89633327D01*
X44319142Y-89431054D01*
X44413091Y-89107959D01*
X44452806Y-88691783D01*
X44436570Y-88250431D01*
X44362666Y-87851805D01*
X44359368Y-87840644D01*
X44308173Y-87623804D01*
X44300512Y-87483553D01*
X44308424Y-87465488D01*
X44409780Y-87423079D01*
X44627421Y-87359206D01*
X44884759Y-87294782D01*
X45607079Y-87058656D01*
X46295053Y-86689746D01*
X46971574Y-86174380D01*
X47345890Y-85824719D01*
X47702428Y-85457703D01*
X47965191Y-85148784D01*
X48171041Y-84848319D01*
X48356840Y-84506667D01*
X48417763Y-84381200D01*
X48744453Y-83560594D01*
X48917380Y-82784465D01*
X48939197Y-82032420D01*
X48817837Y-81304152D01*
X48690740Y-80816194D01*
X49030565Y-80315779D01*
X49240842Y-79955910D01*
X49435329Y-79509630D01*
X49629360Y-78940539D01*
X49679502Y-78775115D01*
X49814713Y-78302987D01*
X49904129Y-77932396D01*
X49956980Y-77604738D01*
X49982495Y-77261406D01*
X49989903Y-76843795D01*
X49989992Y-76803534D01*
X49985636Y-76363322D01*
X49963897Y-76027844D01*
X49914059Y-75732632D01*
X49825400Y-75413216D01*
X49694367Y-75025534D01*
X49511318Y-74555603D01*
X49281107Y-74037635D01*
X49044186Y-73560888D01*
X48965702Y-73417702D01*
X48789461Y-73100112D01*
X48653488Y-72841931D01*
X48574139Y-72675052D01*
X48561372Y-72629206D01*
X48680869Y-72584863D01*
X48942596Y-72532922D01*
X49319802Y-72476629D01*
X49785731Y-72419229D01*
X50313629Y-72363966D01*
X50876743Y-72314085D01*
X51448318Y-72272832D01*
X51552166Y-72266446D01*
X53037109Y-72220326D01*
X54397068Y-72270057D01*
X55649265Y-72419560D01*
X56810922Y-72672756D01*
X57899261Y-73033564D01*
X58931503Y-73505905D01*
X59924871Y-74093699D01*
X60101852Y-74212733D01*
X61042272Y-74936439D01*
X61971050Y-75804225D01*
X62867335Y-76791090D01*
X63710274Y-77872031D01*
X64479015Y-79022045D01*
X65152706Y-80216132D01*
X65220774Y-80350414D01*
X65766241Y-81438946D01*
X65912419Y-80687573D01*
X66346218Y-78768151D01*
X66874305Y-76988450D01*
X67498115Y-75346587D01*
X68219085Y-73840677D01*
X69038648Y-72468838D01*
X69958240Y-71229185D01*
X70979297Y-70119834D01*
X72103253Y-69138902D01*
X73331543Y-68284505D01*
X74665602Y-67554760D01*
X76106867Y-66947781D01*
X76479962Y-66816402D01*
X77470258Y-66506997D01*
X78458159Y-66255213D01*
X79471892Y-66057097D01*
X80539678Y-65908697D01*
X81689743Y-65806064D01*
X82950311Y-65745244D01*
X84293267Y-65722516D01*
X84985121Y-65720345D01*
X85528778Y-65721586D01*
G36*
X85528778Y-65721586D02*
G01*
X85945356Y-65727410D01*
X86255975Y-65738985D01*
X86481756Y-65757480D01*
X86643819Y-65784063D01*
X86763283Y-65819904D01*
X86858173Y-65864475D01*
X87137079Y-66016750D01*
X87069840Y-66541808D01*
X87042899Y-66845276D01*
X87022248Y-67258456D01*
X87010259Y-67721776D01*
X87008466Y-68082867D01*
X87060958Y-69002626D01*
X87212644Y-69816405D01*
X87471899Y-70561145D01*
X87656810Y-70942426D01*
X87920556Y-71437263D01*
X87769385Y-72703820D01*
X87688793Y-73541951D01*
X87667513Y-74256379D01*
X87709692Y-74883494D01*
X87819475Y-75459688D01*
X88001009Y-76021354D01*
X88199958Y-76483142D01*
X88512996Y-77022822D01*
X88928496Y-77562128D01*
X89396008Y-78041169D01*
X89752571Y-78326358D01*
X89989399Y-78456604D01*
X90332529Y-78603705D01*
X90723886Y-78743830D01*
X90907961Y-78800499D01*
X91251167Y-78902035D01*
X91525898Y-78987265D01*
X91696586Y-79044925D01*
X91734932Y-79062347D01*
X91777094Y-79145636D01*
X91875048Y-79344860D01*
X92010881Y-79623504D01*
X92073575Y-79752665D01*
X92517294Y-80485614D01*
X92944678Y-80998412D01*
X93494289Y-81581028D01*
X93241497Y-82240281D01*
X93127283Y-82558258D01*
X92982393Y-82991489D01*
X92822249Y-83492287D01*
X92662273Y-84012968D01*
X92594484Y-84240931D01*
X92349660Y-85058282D01*
X92129862Y-85746572D01*
X91919219Y-86341060D01*
X91701857Y-86877003D01*
X91461903Y-87389662D01*
X91183484Y-87914294D01*
X90850726Y-88486158D01*
X90447757Y-89140513D01*
X90241138Y-89468352D01*
X89851374Y-90086594D01*
X89428170Y-90763178D01*
X88964926Y-91508842D01*
X88455041Y-92334327D01*
X87891915Y-93250370D01*
X87268949Y-94267710D01*
X86579541Y-95397087D01*
X85817092Y-96649240D01*
X84975002Y-98034906D01*
X84885771Y-98181867D01*
X84135203Y-99416742D01*
X83461551Y-100521810D01*
X82855011Y-101512710D01*
X82305781Y-102405078D01*
X81804059Y-103214551D01*
X81340042Y-103956766D01*
X80903927Y-104647361D01*
X80485912Y-105301972D01*
X80076194Y-105936237D01*
X79664971Y-106565794D01*
X79242440Y-107206278D01*
X78994357Y-107579867D01*
X78400149Y-108464178D01*
X77804787Y-109333842D01*
X77216650Y-110177682D01*
X76644116Y-110984522D01*
X76095562Y-111743184D01*
X75579365Y-112442491D01*
X75103903Y-113071268D01*
X74677554Y-113618338D01*
X74308694Y-114072522D01*
X74005702Y-114422646D01*
X73776955Y-114657531D01*
X73630830Y-114766002D01*
X73603362Y-114772205D01*
X73491837Y-114745196D01*
X73238537Y-114670167D01*
X72862183Y-114553088D01*
X72381497Y-114399928D01*
X71815200Y-114216656D01*
X71182014Y-114009240D01*
X70500659Y-113783651D01*
X70450267Y-113766874D01*
X69163279Y-113334561D01*
X68016933Y-112940801D01*
X66989250Y-112576939D01*
X66058252Y-112234319D01*
X65201963Y-111904285D01*
X64398403Y-111578181D01*
X63625596Y-111247351D01*
X62861563Y-110903138D01*
X62084326Y-110536887D01*
X61390934Y-110198845D01*
X59556360Y-109241867D01*
X57828658Y-108231767D01*
X56177898Y-107147507D01*
X54574148Y-105968046D01*
X52987480Y-104672345D01*
X51387962Y-103239364D01*
X51083800Y-102953317D01*
X50469598Y-102358324D01*
X49906930Y-101781919D01*
X49384286Y-101207497D01*
X48890156Y-100618450D01*
X48413028Y-99998175D01*
X47941393Y-99330065D01*
X47463740Y-98597515D01*
X46968559Y-97783920D01*
X46444340Y-96872674D01*
X45879573Y-95847171D01*
X45262746Y-94690806D01*
X44971058Y-94134688D01*
X44657724Y-93537544D01*
X44346812Y-92950074D01*
X44053516Y-92400614D01*
X43793030Y-91917499D01*
X43580550Y-91529067D01*
X43435234Y-91270510D01*
X43257460Y-90954995D01*
X43117434Y-90691841D01*
X43033732Y-90516778D01*
X43018267Y-90468427D01*
X43088353Y-90383089D01*
X43236339Y-90305431D01*
X43577794Y-90133214D01*
X43910483Y-89894779D01*
X44180905Y-89633327D01*
X44319142Y-89431054D01*
X44413091Y-89107959D01*
X44452806Y-88691783D01*
X44436570Y-88250431D01*
X44362666Y-87851805D01*
X44359368Y-87840644D01*
X44308173Y-87623804D01*
X44300512Y-87483553D01*
X44308424Y-87465488D01*
X44409780Y-87423079D01*
X44627421Y-87359206D01*
X44884759Y-87294782D01*
X45607079Y-87058656D01*
X46295053Y-86689746D01*
X46971574Y-86174380D01*
X47345890Y-85824719D01*
X47702428Y-85457703D01*
X47965191Y-85148784D01*
X48171041Y-84848319D01*
X48356840Y-84506667D01*
X48417763Y-84381200D01*
X48744453Y-83560594D01*
X48917380Y-82784465D01*
X48939197Y-82032420D01*
X48817837Y-81304152D01*
X48690740Y-80816194D01*
X49030565Y-80315779D01*
X49240842Y-79955910D01*
X49435329Y-79509630D01*
X49629360Y-78940539D01*
X49679502Y-78775115D01*
X49814713Y-78302987D01*
X49904129Y-77932396D01*
X49956980Y-77604738D01*
X49982495Y-77261406D01*
X49989903Y-76843795D01*
X49989992Y-76803534D01*
X49985636Y-76363322D01*
X49963897Y-76027844D01*
X49914059Y-75732632D01*
X49825400Y-75413216D01*
X49694367Y-75025534D01*
X49511318Y-74555603D01*
X49281107Y-74037635D01*
X49044186Y-73560888D01*
X48965702Y-73417702D01*
X48789461Y-73100112D01*
X48653488Y-72841931D01*
X48574139Y-72675052D01*
X48561372Y-72629206D01*
X48680869Y-72584863D01*
X48942596Y-72532922D01*
X49319802Y-72476629D01*
X49785731Y-72419229D01*
X50313629Y-72363966D01*
X50876743Y-72314085D01*
X51448318Y-72272832D01*
X51552166Y-72266446D01*
X53037109Y-72220326D01*
X54397068Y-72270057D01*
X55649265Y-72419560D01*
X56810922Y-72672756D01*
X57899261Y-73033564D01*
X58931503Y-73505905D01*
X59924871Y-74093699D01*
X60101852Y-74212733D01*
X61042272Y-74936439D01*
X61971050Y-75804225D01*
X62867335Y-76791090D01*
X63710274Y-77872031D01*
X64479015Y-79022045D01*
X65152706Y-80216132D01*
X65220774Y-80350414D01*
X65766241Y-81438946D01*
X65912419Y-80687573D01*
X66346218Y-78768151D01*
X66874305Y-76988450D01*
X67498115Y-75346587D01*
X68219085Y-73840677D01*
X69038648Y-72468838D01*
X69958240Y-71229185D01*
X70979297Y-70119834D01*
X72103253Y-69138902D01*
X73331543Y-68284505D01*
X74665602Y-67554760D01*
X76106867Y-66947781D01*
X76479962Y-66816402D01*
X77470258Y-66506997D01*
X78458159Y-66255213D01*
X79471892Y-66057097D01*
X80539678Y-65908697D01*
X81689743Y-65806064D01*
X82950311Y-65745244D01*
X84293267Y-65722516D01*
X84985121Y-65720345D01*
X85528778Y-65721586D01*
G37*
X74839310Y-24357768D02*
X75389069Y-24363276D01*
X75925957Y-24375275D01*
X76408861Y-24392367D01*
X76796667Y-24413153D01*
X77011934Y-24431633D01*
X77409414Y-24491295D01*
X77854156Y-24579698D01*
X78302780Y-24685812D01*
X78711906Y-24798613D01*
X79038152Y-24907072D01*
X79231455Y-24995820D01*
X79430294Y-25087791D01*
X79563925Y-25114533D01*
X79709339Y-25159119D01*
X79937042Y-25274600D01*
X80138404Y-25397830D01*
X80453508Y-25605829D01*
X80782434Y-25823211D01*
X80939297Y-25926997D01*
X81226282Y-26107398D01*
X81516227Y-26275142D01*
X81616630Y-26328489D01*
X81786025Y-26446521D01*
X82044678Y-26666055D01*
X82369728Y-26963999D01*
X82738314Y-27317261D01*
X83127573Y-27702749D01*
X83514644Y-28097370D01*
X83876666Y-28478032D01*
X84190776Y-28821642D01*
X84434113Y-29105108D01*
X84583815Y-29305337D01*
X84610261Y-29352335D01*
X84749521Y-29594809D01*
X84904470Y-29791100D01*
X84922659Y-29808459D01*
X85055058Y-29998175D01*
X85145115Y-30249598D01*
X85149002Y-30269657D01*
X85223824Y-30521679D01*
X85331876Y-30721475D01*
X85340942Y-30732351D01*
X85406013Y-30884572D01*
X85469696Y-31170455D01*
X85527675Y-31554352D01*
X85575633Y-32000616D01*
X85609254Y-32473600D01*
X85624220Y-32937657D01*
X85624404Y-33073200D01*
X85608621Y-33499906D01*
X85570758Y-33959715D01*
X85516600Y-34409399D01*
X85451931Y-34805726D01*
X85382535Y-35105466D01*
X85335525Y-35232200D01*
X85221539Y-35487253D01*
X85112048Y-35782136D01*
X85098217Y-35824867D01*
X85005449Y-36071276D01*
X84908197Y-36260666D01*
X84886601Y-36290534D01*
X84789599Y-36465811D01*
X84722723Y-36664851D01*
X84623156Y-36920360D01*
X84499685Y-37120769D01*
X84383188Y-37300173D01*
X84335600Y-37434585D01*
X84276254Y-37570640D01*
X84199670Y-37652611D01*
X84087667Y-37790590D01*
X83947306Y-38022546D01*
X83860347Y-38192145D01*
X83686014Y-38512080D01*
X83465144Y-38858464D01*
X83340110Y-39031925D01*
X83114438Y-39327559D01*
X82883476Y-39632321D01*
X82769267Y-39784125D01*
X82515267Y-40123267D01*
X83594767Y-41206342D01*
X83941090Y-41560229D01*
X84241332Y-41879287D01*
X84476311Y-42142120D01*
X84626843Y-42327335D01*
X84674267Y-42410278D01*
X84728221Y-42548889D01*
X84860626Y-42731360D01*
X84885934Y-42759532D01*
X85025666Y-42931543D01*
X85095708Y-43059359D01*
X85097600Y-43072721D01*
X85141858Y-43189591D01*
X85253191Y-43383450D01*
X85309267Y-43469013D01*
X85440386Y-43696052D01*
X85514655Y-43890736D01*
X85520934Y-43938000D01*
X85571332Y-44113908D01*
X85690267Y-44310764D01*
X85810602Y-44511591D01*
X85859600Y-44686503D01*
X85891370Y-44846280D01*
X85974013Y-45100744D01*
X86071267Y-45349867D01*
X86208791Y-45770831D01*
X86274952Y-46184913D01*
X86266784Y-46546410D01*
X86181322Y-46809623D01*
X86167311Y-46830292D01*
X86033413Y-46933901D01*
X85793582Y-46997943D01*
X85532311Y-47025984D01*
X85261090Y-47054453D01*
X85073149Y-47091097D01*
X85012934Y-47123284D01*
X85069205Y-47215196D01*
X85207336Y-47362963D01*
X85234141Y-47388275D01*
X85402252Y-47580221D01*
X85593226Y-47849570D01*
X85701190Y-48026162D01*
X85866396Y-48292496D01*
X86029036Y-48515982D01*
X86114983Y-48610785D01*
X86242604Y-48777208D01*
X86282934Y-48907571D01*
X86332946Y-49073643D01*
X86452267Y-49267637D01*
X86575133Y-49500333D01*
X86621600Y-49726819D01*
X86663064Y-49954776D01*
X86766573Y-50226360D01*
X86807460Y-50306131D01*
X86876855Y-50444411D01*
X86926720Y-50589781D01*
X86960367Y-50772577D01*
X86981109Y-51023136D01*
X86992259Y-51371793D01*
X86997130Y-51848884D01*
X86997960Y-52050551D01*
X86997867Y-52578985D01*
X86991887Y-52964898D01*
X86977480Y-53235070D01*
X86952108Y-53416278D01*
X86913232Y-53535304D01*
X86858311Y-53618925D01*
X86848157Y-53630486D01*
X86748614Y-53811096D01*
X86663966Y-54084811D01*
X86631474Y-54260051D01*
X86525685Y-54674231D01*
X86342022Y-55033906D01*
X86108027Y-55289703D01*
X86028612Y-55340706D01*
X85750424Y-55431132D01*
X85469712Y-55391115D01*
X85159835Y-55212590D01*
X84913714Y-55003151D01*
X84462600Y-54581101D01*
X84398361Y-56040317D01*
X84369376Y-56619320D01*
X84337072Y-57065888D01*
X84296587Y-57416909D01*
X84243059Y-57709275D01*
X84171627Y-57979875D01*
X84122366Y-58134534D01*
X84019747Y-58475689D01*
X83944768Y-58788746D01*
X83911871Y-59012279D01*
X83911438Y-59031578D01*
X83850222Y-59297005D01*
X83742934Y-59446867D01*
X83608420Y-59663389D01*
X83573533Y-59862156D01*
X83522362Y-60148692D01*
X83380961Y-60533607D01*
X83167327Y-60985045D01*
X82899460Y-61471152D01*
X82595355Y-61960073D01*
X82273010Y-62419954D01*
X81950423Y-62818939D01*
X81828112Y-62951492D01*
X81305173Y-63492785D01*
X79940096Y-63647245D01*
X78052621Y-63920007D01*
X76297009Y-64296133D01*
X74673815Y-64775414D01*
X73183592Y-65357642D01*
X71826893Y-66042606D01*
X70604273Y-66830100D01*
X69787052Y-67477973D01*
X68976277Y-68271543D01*
X68212772Y-69198942D01*
X67521840Y-70226098D01*
X66928779Y-71318939D01*
X66917556Y-71342348D01*
X66686049Y-71870505D01*
X66433373Y-72522373D01*
X66173496Y-73256012D01*
X65920388Y-74029485D01*
X65688017Y-74800854D01*
X65490352Y-75528181D01*
X65401693Y-75893367D01*
X65308069Y-76285521D01*
X65224344Y-76609565D01*
X65159053Y-76834287D01*
X65120726Y-76928477D01*
X65118421Y-76929529D01*
X65058484Y-76860630D01*
X64944001Y-76680914D01*
X64799692Y-76429202D01*
X64798874Y-76427714D01*
X64447871Y-75855004D01*
X63992294Y-75213978D01*
X63460805Y-74540824D01*
X62882067Y-73871735D01*
X62284741Y-73242900D01*
X62246134Y-73204459D01*
X61433020Y-72447785D01*
X60623567Y-71803698D01*
X59788610Y-71256735D01*
X58898986Y-70791434D01*
X57925533Y-70392331D01*
X56839088Y-70043964D01*
X55760600Y-69765730D01*
X55409007Y-69685553D01*
X55108171Y-69625643D01*
X54823368Y-69583096D01*
X54519872Y-69555006D01*
X54162958Y-69538470D01*
X53717901Y-69530584D01*
X53149976Y-69528443D01*
X52924267Y-69528506D01*
X52291791Y-69530952D01*
X51796850Y-69538704D01*
X51407674Y-69554092D01*
X51092491Y-69579447D01*
X50819530Y-69617097D01*
X50557019Y-69669374D01*
X50359821Y-69716582D01*
X49512660Y-69866648D01*
X48686544Y-69893379D01*
X47996601Y-69809614D01*
X47477936Y-69655219D01*
X46889834Y-69403307D01*
X46280623Y-69078038D01*
X45698633Y-68703569D01*
X45515934Y-68569629D01*
X45160314Y-68286117D01*
X44764503Y-67948490D01*
X44349446Y-67577049D01*
X43936086Y-67192095D01*
X43545369Y-66813931D01*
X43198239Y-66462859D01*
X42915640Y-66159178D01*
X42718517Y-65923193D01*
X42627815Y-65775203D01*
X42625910Y-65768318D01*
X42538345Y-65546733D01*
X42395061Y-65304665D01*
X42376668Y-65279272D01*
X42229627Y-65042571D01*
X42130631Y-64814232D01*
X42124606Y-64792439D01*
X42063594Y-64628733D01*
X42006679Y-64569200D01*
X41926401Y-64497800D01*
X41837207Y-64327847D01*
X41768571Y-64125713D01*
X41748267Y-63987308D01*
X41689908Y-63829823D01*
X41547836Y-63648818D01*
X41532141Y-63633677D01*
X41438508Y-63556597D01*
X52222464Y-63556597D01*
X52341633Y-64584301D01*
X52604836Y-65581149D01*
X53002742Y-66527042D01*
X53526017Y-67401877D01*
X54165330Y-68185555D01*
X54911349Y-68857974D01*
X55338979Y-69157390D01*
X55767651Y-69398946D01*
X56235427Y-69592496D01*
X56806766Y-69764627D01*
X56818934Y-69767835D01*
X57249529Y-69893724D01*
X57770545Y-70065186D01*
X58317241Y-70259982D01*
X58824873Y-70455877D01*
X58839741Y-70461912D01*
X59602900Y-70744184D01*
X60308001Y-70937906D01*
X61002312Y-71049073D01*
X61733101Y-71083683D01*
X62547638Y-71047731D01*
X63066437Y-70998082D01*
X64070508Y-70851185D01*
X65148662Y-70620937D01*
X66089934Y-70371367D01*
X66596831Y-70222031D01*
X66969258Y-70095321D01*
X67237296Y-69973911D01*
X67431028Y-69840475D01*
X67580534Y-69677687D01*
X67715898Y-69468222D01*
X67744303Y-69418525D01*
X67968457Y-69085887D01*
X68299063Y-68680251D01*
X68707955Y-68231341D01*
X69166966Y-67768882D01*
X69647930Y-67322598D01*
X70069267Y-66964997D01*
X70534972Y-66613338D01*
X71071650Y-66246933D01*
X71634436Y-65893419D01*
X72178465Y-65580433D01*
X72658870Y-65335610D01*
X72850971Y-65251524D01*
X73054081Y-65164574D01*
X73201060Y-65076727D01*
X73319800Y-64954681D01*
X73438197Y-64765136D01*
X73584144Y-64474790D01*
X73692513Y-64246860D01*
X73976188Y-63619839D01*
X74182878Y-63085159D01*
X74325552Y-62591697D01*
X74417177Y-62088329D01*
X74470723Y-61523932D01*
X74491334Y-61097867D01*
X74505102Y-60580730D01*
X74501024Y-60180759D01*
X74475395Y-59846378D01*
X74424510Y-59526010D01*
X74356183Y-59215909D01*
X74032286Y-58210015D01*
X73565939Y-57280321D01*
X72968078Y-56431290D01*
X72249642Y-55667387D01*
X71421566Y-54993075D01*
X70494789Y-54412820D01*
X69480248Y-53931084D01*
X68388880Y-53552333D01*
X67231622Y-53281030D01*
X66019412Y-53121640D01*
X64763187Y-53078627D01*
X63473884Y-53156454D01*
X62162441Y-53359586D01*
X60839794Y-53692488D01*
X60830521Y-53695286D01*
X59508391Y-54163407D01*
X58265459Y-54740294D01*
X57111243Y-55416153D01*
X56055263Y-56181189D01*
X55107036Y-57025606D01*
X54276082Y-57939610D01*
X53571920Y-58913404D01*
X53004067Y-59937195D01*
X52582044Y-61001186D01*
X52315367Y-62095584D01*
X52256660Y-62518139D01*
X52222464Y-63556597D01*
X41438508Y-63556597D01*
X41378616Y-63507294D01*
X41288709Y-63497251D01*
X41237104Y-63555419D01*
X41166779Y-63713901D01*
X41156897Y-63771275D01*
X41088959Y-63910494D01*
X40930086Y-64068286D01*
X40742888Y-64191831D01*
X40612510Y-64230534D01*
X40451854Y-64167484D01*
X40249868Y-64011217D01*
X40056080Y-63811055D01*
X39920017Y-63616323D01*
X39885600Y-63506626D01*
X39850527Y-63350607D01*
X39760362Y-63107726D01*
X39679701Y-62926659D01*
X39344679Y-62096763D01*
X39117813Y-61258389D01*
X39111217Y-61224867D01*
X39042297Y-60892089D01*
X38967050Y-60561697D01*
X38942614Y-60462867D01*
X38851714Y-60054122D01*
X38786050Y-59621215D01*
X38742289Y-59127328D01*
X38717099Y-58535645D01*
X38707411Y-57864364D01*
X38699348Y-57353297D01*
X38682064Y-56940953D01*
X38656989Y-56648659D01*
X38625552Y-56497744D01*
X38614810Y-56483045D01*
X38520634Y-56511747D01*
X38402894Y-56651637D01*
X38387929Y-56676649D01*
X38229947Y-56889345D01*
X38060166Y-57041967D01*
X37878734Y-57162044D01*
X37634881Y-57328536D01*
X37522494Y-57406641D01*
X37304627Y-57549063D01*
X37161141Y-57600735D01*
X37032826Y-57574957D01*
X36951566Y-57534891D01*
X36711390Y-57342339D01*
X36500550Y-57065458D01*
X36361496Y-56768972D01*
X36329600Y-56586675D01*
X36288020Y-56345347D01*
X36187360Y-56088191D01*
X36181434Y-56077162D01*
X36130844Y-55964590D01*
X36093015Y-55821101D01*
X36066179Y-55622251D01*
X36048569Y-55343592D01*
X36038416Y-54960678D01*
X36033954Y-54449063D01*
X36033267Y-54028200D01*
X36035038Y-53413678D01*
X36041408Y-52958423D01*
X48184066Y-52958423D01*
X48257192Y-53736720D01*
X48463505Y-54494607D01*
X48787036Y-55209031D01*
X49211814Y-55856937D01*
X49721872Y-56415270D01*
X50301240Y-56860977D01*
X50933949Y-57171003D01*
X51149053Y-57238879D01*
X51719470Y-57322910D01*
X52273842Y-57249982D01*
X52627934Y-57124235D01*
X53048447Y-56853156D01*
X53390665Y-56452148D01*
X53647299Y-55945007D01*
X53811060Y-55355530D01*
X53874661Y-54707512D01*
X53830811Y-54024752D01*
X53729410Y-53528007D01*
X53464584Y-52794336D01*
X53081175Y-52103703D01*
X52603428Y-51487487D01*
X52055588Y-50977067D01*
X51474976Y-50610186D01*
X50852065Y-50364557D01*
X50290794Y-50272766D01*
X49779294Y-50336107D01*
X49305695Y-50555874D01*
X48899689Y-50890846D01*
X48582475Y-51266367D01*
X48367011Y-51670663D01*
X48239786Y-52142774D01*
X48187286Y-52721740D01*
X48184066Y-52958423D01*
X36041408Y-52958423D01*
X36041640Y-52941912D01*
X36055005Y-52586351D01*
X36077065Y-52320445D01*
X36109754Y-52117640D01*
X36155004Y-51951386D01*
X36191717Y-51851226D01*
X36297275Y-51535609D01*
X36297512Y-51338528D01*
X36174859Y-51233700D01*
X35911748Y-51194840D01*
X35751009Y-51191867D01*
X35398107Y-51170562D01*
X35154917Y-51097920D01*
X35036497Y-51022534D01*
X34821330Y-50901034D01*
X34622318Y-50853200D01*
X34408842Y-50808303D01*
X34093688Y-50686929D01*
X33714356Y-50509055D01*
X33308345Y-50294658D01*
X32913156Y-50063714D01*
X32566289Y-49836200D01*
X32305242Y-49632093D01*
X32272205Y-49601264D01*
X31977740Y-49316514D01*
X31647109Y-48996749D01*
X31427541Y-48784370D01*
X31214411Y-48570009D01*
X31060092Y-48399173D01*
X30995908Y-48306697D01*
X30995600Y-48304033D01*
X30946045Y-48203690D01*
X30823967Y-48036859D01*
X30795519Y-48002196D01*
X30675532Y-47829801D01*
X65389935Y-47829801D01*
X65431934Y-48488732D01*
X65577923Y-49160805D01*
X65827989Y-49825871D01*
X66182215Y-50463781D01*
X66640688Y-51054385D01*
X66712727Y-51131654D01*
X67304396Y-51666712D01*
X67898736Y-52033096D01*
X68497446Y-52231462D01*
X69102226Y-52262466D01*
X69476486Y-52199063D01*
X69900204Y-52015108D01*
X70302492Y-51699159D01*
X70641859Y-51287360D01*
X70764985Y-51076538D01*
X70911445Y-50671302D01*
X71005746Y-50158942D01*
X71043373Y-49594825D01*
X71019812Y-49034321D01*
X70961882Y-48661558D01*
X70748217Y-47957522D01*
X70433320Y-47307502D01*
X70034655Y-46724825D01*
X69569683Y-46222816D01*
X69055869Y-45814802D01*
X68510676Y-45514107D01*
X67951566Y-45334057D01*
X67396003Y-45287980D01*
X66861449Y-45389199D01*
X66736817Y-45437494D01*
X66260141Y-45728478D01*
X65887030Y-46133350D01*
X65617568Y-46631961D01*
X65451842Y-47204161D01*
X65389935Y-47829801D01*
X30675532Y-47829801D01*
X30639979Y-47778720D01*
X30535072Y-47562451D01*
X30531504Y-47551200D01*
X30440028Y-47336178D01*
X30360009Y-47212534D01*
X30269314Y-47044376D01*
X30194502Y-46807648D01*
X30190493Y-46789200D01*
X30114498Y-46516836D01*
X30018677Y-46277662D01*
X30018532Y-46277380D01*
X29959002Y-46113136D01*
X29877214Y-45823073D01*
X29783749Y-45447490D01*
X29689187Y-45026688D01*
X29685086Y-45007380D01*
X29556142Y-44254916D01*
X29479908Y-43488044D01*
X29457506Y-42749081D01*
X29490056Y-42080345D01*
X29578682Y-41524151D01*
X29591390Y-41473609D01*
X29591647Y-41472423D01*
X33291208Y-41472423D01*
X33315430Y-42055527D01*
X33392982Y-42730483D01*
X33413037Y-42868983D01*
X33477174Y-43269284D01*
X33544537Y-43573950D01*
X33635399Y-43838374D01*
X33770032Y-44117950D01*
X33968710Y-44468070D01*
X34046271Y-44599251D01*
X34483807Y-45302083D01*
X34882780Y-45865945D01*
X35260830Y-46311606D01*
X35635594Y-46659831D01*
X36024712Y-46931387D01*
X36029712Y-46934367D01*
X36180989Y-47015607D01*
X36246834Y-47040200D01*
X36294158Y-46968575D01*
X36416801Y-46760532D01*
X36608132Y-46427834D01*
X36861518Y-45982245D01*
X37170328Y-45435529D01*
X37527932Y-44799450D01*
X37927698Y-44085772D01*
X38362994Y-43306259D01*
X38827190Y-42472674D01*
X39210167Y-41783303D01*
X39694510Y-40910250D01*
X40155996Y-40077776D01*
X40587847Y-39298146D01*
X40983285Y-38583628D01*
X41335532Y-37946486D01*
X41637809Y-37398988D01*
X41883338Y-36953399D01*
X42065342Y-36621985D01*
X42177042Y-36417013D01*
X42210739Y-36353355D01*
X42238353Y-36232703D01*
X42177825Y-36109130D01*
X42005615Y-35940483D01*
X41956739Y-35898518D01*
X41394906Y-35529628D01*
X40740984Y-35286727D01*
X40014333Y-35168316D01*
X39234315Y-35172897D01*
X38420290Y-35298974D01*
X37591619Y-35545048D01*
X36767663Y-35909621D01*
X36016203Y-36358040D01*
X35218621Y-36997662D01*
X34547365Y-37742409D01*
X34011420Y-38578567D01*
X33619767Y-39492423D01*
X33401712Y-40349401D01*
X33320056Y-40923079D01*
X33291208Y-41472423D01*
X29591647Y-41472423D01*
X29658604Y-41164621D01*
X29728336Y-40757997D01*
X29788842Y-40324835D01*
X29806872Y-40168995D01*
X29855022Y-39785286D01*
X29910305Y-39440986D01*
X29963913Y-39187685D01*
X29987576Y-39110661D01*
X30048862Y-38899636D01*
X30114010Y-38594135D01*
X30158945Y-38325412D01*
X30217660Y-38011446D01*
X30290790Y-37745291D01*
X30351742Y-37604503D01*
X30449508Y-37399449D01*
X30528359Y-37144260D01*
X30530020Y-37136805D01*
X30629050Y-36863447D01*
X30782363Y-36596865D01*
X30795124Y-36579721D01*
X30925595Y-36377881D01*
X30993048Y-36213389D01*
X30995600Y-36189831D01*
X31054076Y-36041068D01*
X31164934Y-35909534D01*
X31293805Y-35734221D01*
X31334267Y-35590088D01*
X31386582Y-35423153D01*
X31517065Y-35210208D01*
X31567100Y-35146765D01*
X31755041Y-34917342D01*
X31922212Y-34704221D01*
X31947967Y-34669921D01*
X32207147Y-34333792D01*
X32504172Y-33969457D01*
X32801741Y-33620891D01*
X33062550Y-33332069D01*
X33207998Y-33184503D01*
X33410010Y-33013330D01*
X33688121Y-32803425D01*
X34007969Y-32577667D01*
X34335189Y-32358932D01*
X34635416Y-32170100D01*
X34874287Y-32034048D01*
X35017436Y-31973653D01*
X35028467Y-31972533D01*
X35169795Y-31916858D01*
X35313600Y-31803200D01*
X35514447Y-31675165D01*
X35692554Y-31633867D01*
X35905327Y-31589896D01*
X36149663Y-31482292D01*
X36179387Y-31464850D01*
X36299074Y-31401533D01*
X36437216Y-31356156D01*
X36622920Y-31325797D01*
X36885292Y-31307532D01*
X37253435Y-31298438D01*
X37756457Y-31295591D01*
X37865414Y-31295517D01*
X38560507Y-31307247D01*
X39205974Y-31346862D01*
X39828922Y-31420508D01*
X40456461Y-31534332D01*
X41115698Y-31694481D01*
X41833744Y-31907101D01*
X42637706Y-32178338D01*
X43554694Y-32514340D01*
X44016042Y-32690078D01*
X44487892Y-32867768D01*
X44915141Y-33021721D01*
X45268806Y-33142039D01*
X45519902Y-33218825D01*
X45633873Y-33242534D01*
X45772647Y-33205891D01*
X46028900Y-33105325D01*
X46369792Y-32954878D01*
X46762487Y-32768595D01*
X46892976Y-32704083D01*
X47313551Y-32498429D01*
X47709960Y-32312429D01*
X48043156Y-32163878D01*
X48274097Y-32070566D01*
X48309934Y-32058379D01*
X48562656Y-31959149D01*
X48763296Y-31848044D01*
X48794338Y-31823905D01*
X48973779Y-31722345D01*
X49222780Y-31640011D01*
X49260005Y-31631837D01*
X49533621Y-31560052D01*
X49859540Y-31452653D01*
X50003267Y-31398373D01*
X50515515Y-31201370D01*
X50928063Y-31060280D01*
X51293663Y-30957318D01*
X51357934Y-30941609D01*
X51630297Y-30869553D01*
X51972651Y-30769871D01*
X52204600Y-30697888D01*
X52925027Y-30493655D01*
X71088108Y-30493655D01*
X71119543Y-30644776D01*
X71122611Y-30648027D01*
X71218715Y-30727445D01*
X71435441Y-30895526D01*
X71759642Y-31142520D01*
X72178176Y-31458672D01*
X72677898Y-31834230D01*
X73245663Y-32259443D01*
X73868328Y-32724556D01*
X74532748Y-33219819D01*
X75225779Y-33735477D01*
X75934277Y-34261779D01*
X76645098Y-34788972D01*
X77345097Y-35307304D01*
X78021130Y-35807022D01*
X78660054Y-36278373D01*
X79248723Y-36711605D01*
X79773994Y-37096966D01*
X80222723Y-37424702D01*
X80581765Y-37685062D01*
X80837976Y-37868292D01*
X80978212Y-37964641D01*
X81000637Y-37977183D01*
X81085547Y-37911382D01*
X81215446Y-37732874D01*
X81352960Y-37497034D01*
X81549366Y-37086127D01*
X81703276Y-36660278D01*
X81825294Y-36179056D01*
X81926027Y-35602029D01*
X82000036Y-35030296D01*
X82049733Y-34579569D01*
X82076057Y-34250386D01*
X82077984Y-33996438D01*
X82054489Y-33771418D01*
X82004548Y-33529017D01*
X81963141Y-33362526D01*
X81605187Y-32243559D01*
X81137738Y-31251087D01*
X80563998Y-30387719D01*
X79887173Y-29656063D01*
X79110470Y-29058726D01*
X78237095Y-28598319D01*
X77270253Y-28277448D01*
X76213150Y-28098722D01*
X75445600Y-28059721D01*
X74505462Y-28121301D01*
X73626599Y-28314488D01*
X72828725Y-28632246D01*
X72131554Y-29067537D01*
X71786558Y-29365765D01*
X71523430Y-29658436D01*
X71307609Y-29966579D01*
X71156649Y-30256287D01*
X71088108Y-30493655D01*
X52925027Y-30493655D01*
X53367609Y-30368188D01*
X54418649Y-30160298D01*
X54852251Y-30106614D01*
X55221342Y-30061085D01*
X55543731Y-30004862D01*
X55769474Y-29947327D01*
X55825917Y-29923681D01*
X55920006Y-29896723D01*
X56106209Y-29873353D01*
X56395280Y-29853212D01*
X56797974Y-29835945D01*
X57325043Y-29821194D01*
X57987241Y-29808604D01*
X58795322Y-29797819D01*
X59760040Y-29788481D01*
X59951600Y-29786923D01*
X60902133Y-29780122D01*
X61699455Y-29776337D01*
X62359667Y-29775926D01*
X62898870Y-29779249D01*
X63333166Y-29786665D01*
X63678654Y-29798531D01*
X63951438Y-29815208D01*
X64167617Y-29837054D01*
X64343294Y-29864427D01*
X64451410Y-29887215D01*
X64791495Y-29951261D01*
X65228331Y-30012046D01*
X65689450Y-30060107D01*
X65894306Y-30075631D01*
X66774392Y-30132530D01*
X67231780Y-29653290D01*
X67654712Y-29181432D01*
X68008824Y-28713680D01*
X68336383Y-28189903D01*
X68596396Y-27711946D01*
X68860525Y-27240526D01*
X69153022Y-26778441D01*
X69441868Y-26373319D01*
X69695041Y-26072786D01*
X69705861Y-26061693D01*
X69898389Y-25889675D01*
X70133872Y-25710579D01*
X70363368Y-25558131D01*
X70537932Y-25466058D01*
X70588909Y-25453200D01*
X70729887Y-25397539D01*
X70873600Y-25283867D01*
X71073694Y-25155885D01*
X71250752Y-25114534D01*
X71452011Y-25056187D01*
X71658219Y-24914568D01*
X71670237Y-24902867D01*
X71855032Y-24758606D01*
X72021573Y-24690819D01*
X72033918Y-24690108D01*
X72190680Y-24665074D01*
X72449219Y-24600855D01*
X72722643Y-24520775D01*
X72942157Y-24459146D01*
X73169141Y-24414565D01*
X73435473Y-24384576D01*
X73773031Y-24366725D01*
X74213693Y-24358556D01*
X74789335Y-24357614D01*
X74839310Y-24357768D01*
G36*
X74839310Y-24357768D02*
G01*
X75389069Y-24363276D01*
X75925957Y-24375275D01*
X76408861Y-24392367D01*
X76796667Y-24413153D01*
X77011934Y-24431633D01*
X77409414Y-24491295D01*
X77854156Y-24579698D01*
X78302780Y-24685812D01*
X78711906Y-24798613D01*
X79038152Y-24907072D01*
X79231455Y-24995820D01*
X79430294Y-25087791D01*
X79563925Y-25114533D01*
X79709339Y-25159119D01*
X79937042Y-25274600D01*
X80138404Y-25397830D01*
X80453508Y-25605829D01*
X80782434Y-25823211D01*
X80939297Y-25926997D01*
X81226282Y-26107398D01*
X81516227Y-26275142D01*
X81616630Y-26328489D01*
X81786025Y-26446521D01*
X82044678Y-26666055D01*
X82369728Y-26963999D01*
X82738314Y-27317261D01*
X83127573Y-27702749D01*
X83514644Y-28097370D01*
X83876666Y-28478032D01*
X84190776Y-28821642D01*
X84434113Y-29105108D01*
X84583815Y-29305337D01*
X84610261Y-29352335D01*
X84749521Y-29594809D01*
X84904470Y-29791100D01*
X84922659Y-29808459D01*
X85055058Y-29998175D01*
X85145115Y-30249598D01*
X85149002Y-30269657D01*
X85223824Y-30521679D01*
X85331876Y-30721475D01*
X85340942Y-30732351D01*
X85406013Y-30884572D01*
X85469696Y-31170455D01*
X85527675Y-31554352D01*
X85575633Y-32000616D01*
X85609254Y-32473600D01*
X85624220Y-32937657D01*
X85624404Y-33073200D01*
X85608621Y-33499906D01*
X85570758Y-33959715D01*
X85516600Y-34409399D01*
X85451931Y-34805726D01*
X85382535Y-35105466D01*
X85335525Y-35232200D01*
X85221539Y-35487253D01*
X85112048Y-35782136D01*
X85098217Y-35824867D01*
X85005449Y-36071276D01*
X84908197Y-36260666D01*
X84886601Y-36290534D01*
X84789599Y-36465811D01*
X84722723Y-36664851D01*
X84623156Y-36920360D01*
X84499685Y-37120769D01*
X84383188Y-37300173D01*
X84335600Y-37434585D01*
X84276254Y-37570640D01*
X84199670Y-37652611D01*
X84087667Y-37790590D01*
X83947306Y-38022546D01*
X83860347Y-38192145D01*
X83686014Y-38512080D01*
X83465144Y-38858464D01*
X83340110Y-39031925D01*
X83114438Y-39327559D01*
X82883476Y-39632321D01*
X82769267Y-39784125D01*
X82515267Y-40123267D01*
X83594767Y-41206342D01*
X83941090Y-41560229D01*
X84241332Y-41879287D01*
X84476311Y-42142120D01*
X84626843Y-42327335D01*
X84674267Y-42410278D01*
X84728221Y-42548889D01*
X84860626Y-42731360D01*
X84885934Y-42759532D01*
X85025666Y-42931543D01*
X85095708Y-43059359D01*
X85097600Y-43072721D01*
X85141858Y-43189591D01*
X85253191Y-43383450D01*
X85309267Y-43469013D01*
X85440386Y-43696052D01*
X85514655Y-43890736D01*
X85520934Y-43938000D01*
X85571332Y-44113908D01*
X85690267Y-44310764D01*
X85810602Y-44511591D01*
X85859600Y-44686503D01*
X85891370Y-44846280D01*
X85974013Y-45100744D01*
X86071267Y-45349867D01*
X86208791Y-45770831D01*
X86274952Y-46184913D01*
X86266784Y-46546410D01*
X86181322Y-46809623D01*
X86167311Y-46830292D01*
X86033413Y-46933901D01*
X85793582Y-46997943D01*
X85532311Y-47025984D01*
X85261090Y-47054453D01*
X85073149Y-47091097D01*
X85012934Y-47123284D01*
X85069205Y-47215196D01*
X85207336Y-47362963D01*
X85234141Y-47388275D01*
X85402252Y-47580221D01*
X85593226Y-47849570D01*
X85701190Y-48026162D01*
X85866396Y-48292496D01*
X86029036Y-48515982D01*
X86114983Y-48610785D01*
X86242604Y-48777208D01*
X86282934Y-48907571D01*
X86332946Y-49073643D01*
X86452267Y-49267637D01*
X86575133Y-49500333D01*
X86621600Y-49726819D01*
X86663064Y-49954776D01*
X86766573Y-50226360D01*
X86807460Y-50306131D01*
X86876855Y-50444411D01*
X86926720Y-50589781D01*
X86960367Y-50772577D01*
X86981109Y-51023136D01*
X86992259Y-51371793D01*
X86997130Y-51848884D01*
X86997960Y-52050551D01*
X86997867Y-52578985D01*
X86991887Y-52964898D01*
X86977480Y-53235070D01*
X86952108Y-53416278D01*
X86913232Y-53535304D01*
X86858311Y-53618925D01*
X86848157Y-53630486D01*
X86748614Y-53811096D01*
X86663966Y-54084811D01*
X86631474Y-54260051D01*
X86525685Y-54674231D01*
X86342022Y-55033906D01*
X86108027Y-55289703D01*
X86028612Y-55340706D01*
X85750424Y-55431132D01*
X85469712Y-55391115D01*
X85159835Y-55212590D01*
X84913714Y-55003151D01*
X84462600Y-54581101D01*
X84398361Y-56040317D01*
X84369376Y-56619320D01*
X84337072Y-57065888D01*
X84296587Y-57416909D01*
X84243059Y-57709275D01*
X84171627Y-57979875D01*
X84122366Y-58134534D01*
X84019747Y-58475689D01*
X83944768Y-58788746D01*
X83911871Y-59012279D01*
X83911438Y-59031578D01*
X83850222Y-59297005D01*
X83742934Y-59446867D01*
X83608420Y-59663389D01*
X83573533Y-59862156D01*
X83522362Y-60148692D01*
X83380961Y-60533607D01*
X83167327Y-60985045D01*
X82899460Y-61471152D01*
X82595355Y-61960073D01*
X82273010Y-62419954D01*
X81950423Y-62818939D01*
X81828112Y-62951492D01*
X81305173Y-63492785D01*
X79940096Y-63647245D01*
X78052621Y-63920007D01*
X76297009Y-64296133D01*
X74673815Y-64775414D01*
X73183592Y-65357642D01*
X71826893Y-66042606D01*
X70604273Y-66830100D01*
X69787052Y-67477973D01*
X68976277Y-68271543D01*
X68212772Y-69198942D01*
X67521840Y-70226098D01*
X66928779Y-71318939D01*
X66917556Y-71342348D01*
X66686049Y-71870505D01*
X66433373Y-72522373D01*
X66173496Y-73256012D01*
X65920388Y-74029485D01*
X65688017Y-74800854D01*
X65490352Y-75528181D01*
X65401693Y-75893367D01*
X65308069Y-76285521D01*
X65224344Y-76609565D01*
X65159053Y-76834287D01*
X65120726Y-76928477D01*
X65118421Y-76929529D01*
X65058484Y-76860630D01*
X64944001Y-76680914D01*
X64799692Y-76429202D01*
X64798874Y-76427714D01*
X64447871Y-75855004D01*
X63992294Y-75213978D01*
X63460805Y-74540824D01*
X62882067Y-73871735D01*
X62284741Y-73242900D01*
X62246134Y-73204459D01*
X61433020Y-72447785D01*
X60623567Y-71803698D01*
X59788610Y-71256735D01*
X58898986Y-70791434D01*
X57925533Y-70392331D01*
X56839088Y-70043964D01*
X55760600Y-69765730D01*
X55409007Y-69685553D01*
X55108171Y-69625643D01*
X54823368Y-69583096D01*
X54519872Y-69555006D01*
X54162958Y-69538470D01*
X53717901Y-69530584D01*
X53149976Y-69528443D01*
X52924267Y-69528506D01*
X52291791Y-69530952D01*
X51796850Y-69538704D01*
X51407674Y-69554092D01*
X51092491Y-69579447D01*
X50819530Y-69617097D01*
X50557019Y-69669374D01*
X50359821Y-69716582D01*
X49512660Y-69866648D01*
X48686544Y-69893379D01*
X47996601Y-69809614D01*
X47477936Y-69655219D01*
X46889834Y-69403307D01*
X46280623Y-69078038D01*
X45698633Y-68703569D01*
X45515934Y-68569629D01*
X45160314Y-68286117D01*
X44764503Y-67948490D01*
X44349446Y-67577049D01*
X43936086Y-67192095D01*
X43545369Y-66813931D01*
X43198239Y-66462859D01*
X42915640Y-66159178D01*
X42718517Y-65923193D01*
X42627815Y-65775203D01*
X42625910Y-65768318D01*
X42538345Y-65546733D01*
X42395061Y-65304665D01*
X42376668Y-65279272D01*
X42229627Y-65042571D01*
X42130631Y-64814232D01*
X42124606Y-64792439D01*
X42063594Y-64628733D01*
X42006679Y-64569200D01*
X41926401Y-64497800D01*
X41837207Y-64327847D01*
X41768571Y-64125713D01*
X41748267Y-63987308D01*
X41689908Y-63829823D01*
X41547836Y-63648818D01*
X41532141Y-63633677D01*
X41438508Y-63556597D01*
X52222464Y-63556597D01*
X52341633Y-64584301D01*
X52604836Y-65581149D01*
X53002742Y-66527042D01*
X53526017Y-67401877D01*
X54165330Y-68185555D01*
X54911349Y-68857974D01*
X55338979Y-69157390D01*
X55767651Y-69398946D01*
X56235427Y-69592496D01*
X56806766Y-69764627D01*
X56818934Y-69767835D01*
X57249529Y-69893724D01*
X57770545Y-70065186D01*
X58317241Y-70259982D01*
X58824873Y-70455877D01*
X58839741Y-70461912D01*
X59602900Y-70744184D01*
X60308001Y-70937906D01*
X61002312Y-71049073D01*
X61733101Y-71083683D01*
X62547638Y-71047731D01*
X63066437Y-70998082D01*
X64070508Y-70851185D01*
X65148662Y-70620937D01*
X66089934Y-70371367D01*
X66596831Y-70222031D01*
X66969258Y-70095321D01*
X67237296Y-69973911D01*
X67431028Y-69840475D01*
X67580534Y-69677687D01*
X67715898Y-69468222D01*
X67744303Y-69418525D01*
X67968457Y-69085887D01*
X68299063Y-68680251D01*
X68707955Y-68231341D01*
X69166966Y-67768882D01*
X69647930Y-67322598D01*
X70069267Y-66964997D01*
X70534972Y-66613338D01*
X71071650Y-66246933D01*
X71634436Y-65893419D01*
X72178465Y-65580433D01*
X72658870Y-65335610D01*
X72850971Y-65251524D01*
X73054081Y-65164574D01*
X73201060Y-65076727D01*
X73319800Y-64954681D01*
X73438197Y-64765136D01*
X73584144Y-64474790D01*
X73692513Y-64246860D01*
X73976188Y-63619839D01*
X74182878Y-63085159D01*
X74325552Y-62591697D01*
X74417177Y-62088329D01*
X74470723Y-61523932D01*
X74491334Y-61097867D01*
X74505102Y-60580730D01*
X74501024Y-60180759D01*
X74475395Y-59846378D01*
X74424510Y-59526010D01*
X74356183Y-59215909D01*
X74032286Y-58210015D01*
X73565939Y-57280321D01*
X72968078Y-56431290D01*
X72249642Y-55667387D01*
X71421566Y-54993075D01*
X70494789Y-54412820D01*
X69480248Y-53931084D01*
X68388880Y-53552333D01*
X67231622Y-53281030D01*
X66019412Y-53121640D01*
X64763187Y-53078627D01*
X63473884Y-53156454D01*
X62162441Y-53359586D01*
X60839794Y-53692488D01*
X60830521Y-53695286D01*
X59508391Y-54163407D01*
X58265459Y-54740294D01*
X57111243Y-55416153D01*
X56055263Y-56181189D01*
X55107036Y-57025606D01*
X54276082Y-57939610D01*
X53571920Y-58913404D01*
X53004067Y-59937195D01*
X52582044Y-61001186D01*
X52315367Y-62095584D01*
X52256660Y-62518139D01*
X52222464Y-63556597D01*
X41438508Y-63556597D01*
X41378616Y-63507294D01*
X41288709Y-63497251D01*
X41237104Y-63555419D01*
X41166779Y-63713901D01*
X41156897Y-63771275D01*
X41088959Y-63910494D01*
X40930086Y-64068286D01*
X40742888Y-64191831D01*
X40612510Y-64230534D01*
X40451854Y-64167484D01*
X40249868Y-64011217D01*
X40056080Y-63811055D01*
X39920017Y-63616323D01*
X39885600Y-63506626D01*
X39850527Y-63350607D01*
X39760362Y-63107726D01*
X39679701Y-62926659D01*
X39344679Y-62096763D01*
X39117813Y-61258389D01*
X39111217Y-61224867D01*
X39042297Y-60892089D01*
X38967050Y-60561697D01*
X38942614Y-60462867D01*
X38851714Y-60054122D01*
X38786050Y-59621215D01*
X38742289Y-59127328D01*
X38717099Y-58535645D01*
X38707411Y-57864364D01*
X38699348Y-57353297D01*
X38682064Y-56940953D01*
X38656989Y-56648659D01*
X38625552Y-56497744D01*
X38614810Y-56483045D01*
X38520634Y-56511747D01*
X38402894Y-56651637D01*
X38387929Y-56676649D01*
X38229947Y-56889345D01*
X38060166Y-57041967D01*
X37878734Y-57162044D01*
X37634881Y-57328536D01*
X37522494Y-57406641D01*
X37304627Y-57549063D01*
X37161141Y-57600735D01*
X37032826Y-57574957D01*
X36951566Y-57534891D01*
X36711390Y-57342339D01*
X36500550Y-57065458D01*
X36361496Y-56768972D01*
X36329600Y-56586675D01*
X36288020Y-56345347D01*
X36187360Y-56088191D01*
X36181434Y-56077162D01*
X36130844Y-55964590D01*
X36093015Y-55821101D01*
X36066179Y-55622251D01*
X36048569Y-55343592D01*
X36038416Y-54960678D01*
X36033954Y-54449063D01*
X36033267Y-54028200D01*
X36035038Y-53413678D01*
X36041408Y-52958423D01*
X48184066Y-52958423D01*
X48257192Y-53736720D01*
X48463505Y-54494607D01*
X48787036Y-55209031D01*
X49211814Y-55856937D01*
X49721872Y-56415270D01*
X50301240Y-56860977D01*
X50933949Y-57171003D01*
X51149053Y-57238879D01*
X51719470Y-57322910D01*
X52273842Y-57249982D01*
X52627934Y-57124235D01*
X53048447Y-56853156D01*
X53390665Y-56452148D01*
X53647299Y-55945007D01*
X53811060Y-55355530D01*
X53874661Y-54707512D01*
X53830811Y-54024752D01*
X53729410Y-53528007D01*
X53464584Y-52794336D01*
X53081175Y-52103703D01*
X52603428Y-51487487D01*
X52055588Y-50977067D01*
X51474976Y-50610186D01*
X50852065Y-50364557D01*
X50290794Y-50272766D01*
X49779294Y-50336107D01*
X49305695Y-50555874D01*
X48899689Y-50890846D01*
X48582475Y-51266367D01*
X48367011Y-51670663D01*
X48239786Y-52142774D01*
X48187286Y-52721740D01*
X48184066Y-52958423D01*
X36041408Y-52958423D01*
X36041640Y-52941912D01*
X36055005Y-52586351D01*
X36077065Y-52320445D01*
X36109754Y-52117640D01*
X36155004Y-51951386D01*
X36191717Y-51851226D01*
X36297275Y-51535609D01*
X36297512Y-51338528D01*
X36174859Y-51233700D01*
X35911748Y-51194840D01*
X35751009Y-51191867D01*
X35398107Y-51170562D01*
X35154917Y-51097920D01*
X35036497Y-51022534D01*
X34821330Y-50901034D01*
X34622318Y-50853200D01*
X34408842Y-50808303D01*
X34093688Y-50686929D01*
X33714356Y-50509055D01*
X33308345Y-50294658D01*
X32913156Y-50063714D01*
X32566289Y-49836200D01*
X32305242Y-49632093D01*
X32272205Y-49601264D01*
X31977740Y-49316514D01*
X31647109Y-48996749D01*
X31427541Y-48784370D01*
X31214411Y-48570009D01*
X31060092Y-48399173D01*
X30995908Y-48306697D01*
X30995600Y-48304033D01*
X30946045Y-48203690D01*
X30823967Y-48036859D01*
X30795519Y-48002196D01*
X30675532Y-47829801D01*
X65389935Y-47829801D01*
X65431934Y-48488732D01*
X65577923Y-49160805D01*
X65827989Y-49825871D01*
X66182215Y-50463781D01*
X66640688Y-51054385D01*
X66712727Y-51131654D01*
X67304396Y-51666712D01*
X67898736Y-52033096D01*
X68497446Y-52231462D01*
X69102226Y-52262466D01*
X69476486Y-52199063D01*
X69900204Y-52015108D01*
X70302492Y-51699159D01*
X70641859Y-51287360D01*
X70764985Y-51076538D01*
X70911445Y-50671302D01*
X71005746Y-50158942D01*
X71043373Y-49594825D01*
X71019812Y-49034321D01*
X70961882Y-48661558D01*
X70748217Y-47957522D01*
X70433320Y-47307502D01*
X70034655Y-46724825D01*
X69569683Y-46222816D01*
X69055869Y-45814802D01*
X68510676Y-45514107D01*
X67951566Y-45334057D01*
X67396003Y-45287980D01*
X66861449Y-45389199D01*
X66736817Y-45437494D01*
X66260141Y-45728478D01*
X65887030Y-46133350D01*
X65617568Y-46631961D01*
X65451842Y-47204161D01*
X65389935Y-47829801D01*
X30675532Y-47829801D01*
X30639979Y-47778720D01*
X30535072Y-47562451D01*
X30531504Y-47551200D01*
X30440028Y-47336178D01*
X30360009Y-47212534D01*
X30269314Y-47044376D01*
X30194502Y-46807648D01*
X30190493Y-46789200D01*
X30114498Y-46516836D01*
X30018677Y-46277662D01*
X30018532Y-46277380D01*
X29959002Y-46113136D01*
X29877214Y-45823073D01*
X29783749Y-45447490D01*
X29689187Y-45026688D01*
X29685086Y-45007380D01*
X29556142Y-44254916D01*
X29479908Y-43488044D01*
X29457506Y-42749081D01*
X29490056Y-42080345D01*
X29578682Y-41524151D01*
X29591390Y-41473609D01*
X29591647Y-41472423D01*
X33291208Y-41472423D01*
X33315430Y-42055527D01*
X33392982Y-42730483D01*
X33413037Y-42868983D01*
X33477174Y-43269284D01*
X33544537Y-43573950D01*
X33635399Y-43838374D01*
X33770032Y-44117950D01*
X33968710Y-44468070D01*
X34046271Y-44599251D01*
X34483807Y-45302083D01*
X34882780Y-45865945D01*
X35260830Y-46311606D01*
X35635594Y-46659831D01*
X36024712Y-46931387D01*
X36029712Y-46934367D01*
X36180989Y-47015607D01*
X36246834Y-47040200D01*
X36294158Y-46968575D01*
X36416801Y-46760532D01*
X36608132Y-46427834D01*
X36861518Y-45982245D01*
X37170328Y-45435529D01*
X37527932Y-44799450D01*
X37927698Y-44085772D01*
X38362994Y-43306259D01*
X38827190Y-42472674D01*
X39210167Y-41783303D01*
X39694510Y-40910250D01*
X40155996Y-40077776D01*
X40587847Y-39298146D01*
X40983285Y-38583628D01*
X41335532Y-37946486D01*
X41637809Y-37398988D01*
X41883338Y-36953399D01*
X42065342Y-36621985D01*
X42177042Y-36417013D01*
X42210739Y-36353355D01*
X42238353Y-36232703D01*
X42177825Y-36109130D01*
X42005615Y-35940483D01*
X41956739Y-35898518D01*
X41394906Y-35529628D01*
X40740984Y-35286727D01*
X40014333Y-35168316D01*
X39234315Y-35172897D01*
X38420290Y-35298974D01*
X37591619Y-35545048D01*
X36767663Y-35909621D01*
X36016203Y-36358040D01*
X35218621Y-36997662D01*
X34547365Y-37742409D01*
X34011420Y-38578567D01*
X33619767Y-39492423D01*
X33401712Y-40349401D01*
X33320056Y-40923079D01*
X33291208Y-41472423D01*
X29591647Y-41472423D01*
X29658604Y-41164621D01*
X29728336Y-40757997D01*
X29788842Y-40324835D01*
X29806872Y-40168995D01*
X29855022Y-39785286D01*
X29910305Y-39440986D01*
X29963913Y-39187685D01*
X29987576Y-39110661D01*
X30048862Y-38899636D01*
X30114010Y-38594135D01*
X30158945Y-38325412D01*
X30217660Y-38011446D01*
X30290790Y-37745291D01*
X30351742Y-37604503D01*
X30449508Y-37399449D01*
X30528359Y-37144260D01*
X30530020Y-37136805D01*
X30629050Y-36863447D01*
X30782363Y-36596865D01*
X30795124Y-36579721D01*
X30925595Y-36377881D01*
X30993048Y-36213389D01*
X30995600Y-36189831D01*
X31054076Y-36041068D01*
X31164934Y-35909534D01*
X31293805Y-35734221D01*
X31334267Y-35590088D01*
X31386582Y-35423153D01*
X31517065Y-35210208D01*
X31567100Y-35146765D01*
X31755041Y-34917342D01*
X31922212Y-34704221D01*
X31947967Y-34669921D01*
X32207147Y-34333792D01*
X32504172Y-33969457D01*
X32801741Y-33620891D01*
X33062550Y-33332069D01*
X33207998Y-33184503D01*
X33410010Y-33013330D01*
X33688121Y-32803425D01*
X34007969Y-32577667D01*
X34335189Y-32358932D01*
X34635416Y-32170100D01*
X34874287Y-32034048D01*
X35017436Y-31973653D01*
X35028467Y-31972533D01*
X35169795Y-31916858D01*
X35313600Y-31803200D01*
X35514447Y-31675165D01*
X35692554Y-31633867D01*
X35905327Y-31589896D01*
X36149663Y-31482292D01*
X36179387Y-31464850D01*
X36299074Y-31401533D01*
X36437216Y-31356156D01*
X36622920Y-31325797D01*
X36885292Y-31307532D01*
X37253435Y-31298438D01*
X37756457Y-31295591D01*
X37865414Y-31295517D01*
X38560507Y-31307247D01*
X39205974Y-31346862D01*
X39828922Y-31420508D01*
X40456461Y-31534332D01*
X41115698Y-31694481D01*
X41833744Y-31907101D01*
X42637706Y-32178338D01*
X43554694Y-32514340D01*
X44016042Y-32690078D01*
X44487892Y-32867768D01*
X44915141Y-33021721D01*
X45268806Y-33142039D01*
X45519902Y-33218825D01*
X45633873Y-33242534D01*
X45772647Y-33205891D01*
X46028900Y-33105325D01*
X46369792Y-32954878D01*
X46762487Y-32768595D01*
X46892976Y-32704083D01*
X47313551Y-32498429D01*
X47709960Y-32312429D01*
X48043156Y-32163878D01*
X48274097Y-32070566D01*
X48309934Y-32058379D01*
X48562656Y-31959149D01*
X48763296Y-31848044D01*
X48794338Y-31823905D01*
X48973779Y-31722345D01*
X49222780Y-31640011D01*
X49260005Y-31631837D01*
X49533621Y-31560052D01*
X49859540Y-31452653D01*
X50003267Y-31398373D01*
X50515515Y-31201370D01*
X50928063Y-31060280D01*
X51293663Y-30957318D01*
X51357934Y-30941609D01*
X51630297Y-30869553D01*
X51972651Y-30769871D01*
X52204600Y-30697888D01*
X52925027Y-30493655D01*
X71088108Y-30493655D01*
X71119543Y-30644776D01*
X71122611Y-30648027D01*
X71218715Y-30727445D01*
X71435441Y-30895526D01*
X71759642Y-31142520D01*
X72178176Y-31458672D01*
X72677898Y-31834230D01*
X73245663Y-32259443D01*
X73868328Y-32724556D01*
X74532748Y-33219819D01*
X75225779Y-33735477D01*
X75934277Y-34261779D01*
X76645098Y-34788972D01*
X77345097Y-35307304D01*
X78021130Y-35807022D01*
X78660054Y-36278373D01*
X79248723Y-36711605D01*
X79773994Y-37096966D01*
X80222723Y-37424702D01*
X80581765Y-37685062D01*
X80837976Y-37868292D01*
X80978212Y-37964641D01*
X81000637Y-37977183D01*
X81085547Y-37911382D01*
X81215446Y-37732874D01*
X81352960Y-37497034D01*
X81549366Y-37086127D01*
X81703276Y-36660278D01*
X81825294Y-36179056D01*
X81926027Y-35602029D01*
X82000036Y-35030296D01*
X82049733Y-34579569D01*
X82076057Y-34250386D01*
X82077984Y-33996438D01*
X82054489Y-33771418D01*
X82004548Y-33529017D01*
X81963141Y-33362526D01*
X81605187Y-32243559D01*
X81137738Y-31251087D01*
X80563998Y-30387719D01*
X79887173Y-29656063D01*
X79110470Y-29058726D01*
X78237095Y-28598319D01*
X77270253Y-28277448D01*
X76213150Y-28098722D01*
X75445600Y-28059721D01*
X74505462Y-28121301D01*
X73626599Y-28314488D01*
X72828725Y-28632246D01*
X72131554Y-29067537D01*
X71786558Y-29365765D01*
X71523430Y-29658436D01*
X71307609Y-29966579D01*
X71156649Y-30256287D01*
X71088108Y-30493655D01*
X52925027Y-30493655D01*
X53367609Y-30368188D01*
X54418649Y-30160298D01*
X54852251Y-30106614D01*
X55221342Y-30061085D01*
X55543731Y-30004862D01*
X55769474Y-29947327D01*
X55825917Y-29923681D01*
X55920006Y-29896723D01*
X56106209Y-29873353D01*
X56395280Y-29853212D01*
X56797974Y-29835945D01*
X57325043Y-29821194D01*
X57987241Y-29808604D01*
X58795322Y-29797819D01*
X59760040Y-29788481D01*
X59951600Y-29786923D01*
X60902133Y-29780122D01*
X61699455Y-29776337D01*
X62359667Y-29775926D01*
X62898870Y-29779249D01*
X63333166Y-29786665D01*
X63678654Y-29798531D01*
X63951438Y-29815208D01*
X64167617Y-29837054D01*
X64343294Y-29864427D01*
X64451410Y-29887215D01*
X64791495Y-29951261D01*
X65228331Y-30012046D01*
X65689450Y-30060107D01*
X65894306Y-30075631D01*
X66774392Y-30132530D01*
X67231780Y-29653290D01*
X67654712Y-29181432D01*
X68008824Y-28713680D01*
X68336383Y-28189903D01*
X68596396Y-27711946D01*
X68860525Y-27240526D01*
X69153022Y-26778441D01*
X69441868Y-26373319D01*
X69695041Y-26072786D01*
X69705861Y-26061693D01*
X69898389Y-25889675D01*
X70133872Y-25710579D01*
X70363368Y-25558131D01*
X70537932Y-25466058D01*
X70588909Y-25453200D01*
X70729887Y-25397539D01*
X70873600Y-25283867D01*
X71073694Y-25155885D01*
X71250752Y-25114534D01*
X71452011Y-25056187D01*
X71658219Y-24914568D01*
X71670237Y-24902867D01*
X71855032Y-24758606D01*
X72021573Y-24690819D01*
X72033918Y-24690108D01*
X72190680Y-24665074D01*
X72449219Y-24600855D01*
X72722643Y-24520775D01*
X72942157Y-24459146D01*
X73169141Y-24414565D01*
X73435473Y-24384576D01*
X73773031Y-24366725D01*
X74213693Y-24358556D01*
X74789335Y-24357614D01*
X74839310Y-24357768D01*
G37*
X43259127Y-71381337D02*
X43901140Y-71487263D01*
X43991934Y-71509356D01*
X44725842Y-71747004D01*
X45474186Y-72077206D01*
X46166607Y-72466457D01*
X46531934Y-72718938D01*
X46833043Y-72972858D01*
X47199003Y-73320255D01*
X47591169Y-73720581D01*
X47970900Y-74133286D01*
X48299551Y-74517822D01*
X48515651Y-74800466D01*
X48783497Y-75311004D01*
X48950732Y-75936333D01*
X49018095Y-76682838D01*
X48986330Y-77556903D01*
X48911239Y-78208048D01*
X48840907Y-78658900D01*
X48769501Y-78979720D01*
X48681568Y-79209201D01*
X48561659Y-79386031D01*
X48394320Y-79548902D01*
X48366214Y-79572806D01*
X48227536Y-79672064D01*
X48080587Y-79728835D01*
X47906747Y-79736907D01*
X47687398Y-79690069D01*
X47403922Y-79582109D01*
X47037699Y-79406815D01*
X46570111Y-79157975D01*
X45982539Y-78829379D01*
X45761833Y-78703917D01*
X43999737Y-77699687D01*
X43538083Y-78397021D01*
X44188342Y-78721668D01*
X44473208Y-78876779D01*
X44860100Y-79105688D01*
X45312002Y-79385543D01*
X45791899Y-79693490D01*
X46191213Y-79958265D01*
X46663426Y-80278384D01*
X47016764Y-80524898D01*
X47273660Y-80717506D01*
X47456548Y-80875908D01*
X47587860Y-81019804D01*
X47690031Y-81168892D01*
X47785493Y-81342873D01*
X47799880Y-81370888D01*
X47922224Y-81626194D01*
X47998088Y-81845792D01*
X48038356Y-82085490D01*
X48053914Y-82401097D01*
X48055934Y-82683661D01*
X48050993Y-83080546D01*
X48028291Y-83366731D01*
X47976007Y-83600747D01*
X47882320Y-83841121D01*
X47777829Y-84060672D01*
X47408016Y-84637385D01*
X46888821Y-85182937D01*
X46239675Y-85679406D01*
X45647847Y-86025077D01*
X44904008Y-86409255D01*
X44490304Y-86144494D01*
X44296421Y-85997404D01*
X44014050Y-85752847D01*
X43671025Y-85436410D01*
X43295181Y-85073681D01*
X42965696Y-84742957D01*
X41854791Y-83606180D01*
X41479465Y-84213470D01*
X42651033Y-85611840D01*
X43005526Y-86041040D01*
X43327710Y-86442589D01*
X43599494Y-86793015D01*
X43802783Y-87068846D01*
X43919484Y-87246611D01*
X43934965Y-87277450D01*
X44008966Y-87656899D01*
X43945892Y-88059215D01*
X43768784Y-88452155D01*
X43500683Y-88803477D01*
X43164626Y-89080937D01*
X42783656Y-89252292D01*
X42495518Y-89291867D01*
X42306721Y-89278286D01*
X42108880Y-89228229D01*
X41868314Y-89127722D01*
X41551345Y-88962794D01*
X41145402Y-88731752D01*
X40080856Y-88134383D01*
X39130585Y-87647419D01*
X38284451Y-87266399D01*
X37532312Y-86986860D01*
X36864029Y-86804340D01*
X36684953Y-86769007D01*
X36427209Y-86727386D01*
X36297042Y-86727478D01*
X36256084Y-86777292D01*
X36261619Y-86857380D01*
X36306569Y-86942416D01*
X36430547Y-87032888D01*
X36656561Y-87140386D01*
X37007612Y-87276498D01*
X37303267Y-87382134D01*
X38468419Y-87839858D01*
X39500523Y-88357071D01*
X40425860Y-88953992D01*
X41270712Y-89650837D01*
X42061359Y-90467824D01*
X42824082Y-91425171D01*
X43142576Y-91874200D01*
X43743649Y-92753853D01*
X44276950Y-93549874D01*
X44754359Y-94284118D01*
X45187760Y-94978444D01*
X45589034Y-95654708D01*
X45970065Y-96334767D01*
X46342733Y-97040479D01*
X46718923Y-97793700D01*
X47110515Y-98616289D01*
X47529392Y-99530101D01*
X47987437Y-100556994D01*
X48496532Y-101718825D01*
X48504825Y-101737867D01*
X48780564Y-102369198D01*
X49053152Y-102989888D01*
X49310073Y-103571694D01*
X49538811Y-104086371D01*
X49726852Y-104505675D01*
X49861681Y-104801362D01*
X49874159Y-104828200D01*
X49992157Y-105103086D01*
X50153540Y-105511029D01*
X50348075Y-106024463D01*
X50565529Y-106615826D01*
X50795672Y-107257551D01*
X51028269Y-107922076D01*
X51099891Y-108130200D01*
X51360176Y-108896024D01*
X51568522Y-109525014D01*
X51731299Y-110039315D01*
X51854879Y-110461071D01*
X51945633Y-110812425D01*
X52009931Y-111115520D01*
X52054144Y-111392502D01*
X52066240Y-111488964D01*
X52107202Y-111947994D01*
X52135656Y-112492595D01*
X52151358Y-113079690D01*
X52154064Y-113666204D01*
X52143528Y-114209061D01*
X52119507Y-114665183D01*
X52085976Y-114967034D01*
X52058961Y-115199690D01*
X52063808Y-115344906D01*
X52080567Y-115369200D01*
X52192821Y-115330484D01*
X52420540Y-115225588D01*
X52731628Y-115071393D01*
X53093988Y-114884777D01*
X53475520Y-114682620D01*
X53844129Y-114481802D01*
X54167716Y-114299202D01*
X54414185Y-114151700D01*
X54490600Y-114101808D01*
X54750391Y-113915185D01*
X55083672Y-113663475D01*
X55433722Y-113389844D01*
X55572639Y-113278329D01*
X55864435Y-113051704D01*
X56117829Y-112872849D01*
X56298277Y-112765217D01*
X56358904Y-112744534D01*
X56475394Y-112776561D01*
X56719242Y-112865385D01*
X57062589Y-113000121D01*
X57477576Y-113169882D01*
X57859199Y-113330754D01*
X59407602Y-113956363D01*
X60872408Y-114470747D01*
X62289388Y-114882782D01*
X63694311Y-115201346D01*
X65122951Y-115435318D01*
X66611076Y-115593575D01*
X67128129Y-115631140D01*
X68582029Y-115676060D01*
X70151166Y-115633060D01*
X71808253Y-115505658D01*
X73526005Y-115297374D01*
X75277134Y-115011725D01*
X76967873Y-114665830D01*
X81125546Y-114665830D01*
X81148666Y-115273677D01*
X81197070Y-115795716D01*
X81242224Y-116067263D01*
X81500799Y-116888953D01*
X81911024Y-117664607D01*
X82456787Y-118371184D01*
X83121974Y-118985646D01*
X83447495Y-119220330D01*
X83784943Y-119465644D01*
X84150453Y-119762816D01*
X84416215Y-120001971D01*
X84688129Y-120243341D01*
X84960481Y-120452206D01*
X85175106Y-120584024D01*
X85178215Y-120585478D01*
X85409212Y-120705471D01*
X85586956Y-120819490D01*
X85605600Y-120834631D01*
X85768883Y-120948251D01*
X86016775Y-121091660D01*
X86299699Y-121239663D01*
X86568078Y-121367059D01*
X86772336Y-121448654D01*
X86846257Y-121465200D01*
X86995346Y-121502655D01*
X87215280Y-121595920D01*
X87282160Y-121629676D01*
X87597627Y-121759980D01*
X88064193Y-121901662D01*
X88664409Y-122049804D01*
X89119267Y-122147500D01*
X89323038Y-122170425D01*
X89656544Y-122187112D01*
X90080265Y-122196435D01*
X90554679Y-122197267D01*
X90771472Y-122194617D01*
X91294372Y-122182912D01*
X91676658Y-122165858D01*
X91947039Y-122140223D01*
X92134223Y-122102781D01*
X92266916Y-122050301D01*
X92316660Y-122020813D01*
X92559322Y-121920678D01*
X92914374Y-121849054D01*
X93119788Y-121827918D01*
X93478124Y-121781018D01*
X93824052Y-121701358D01*
X94035498Y-121626002D01*
X94296951Y-121524662D01*
X94531118Y-121467210D01*
X94585831Y-121462552D01*
X94777525Y-121424180D01*
X95044186Y-121328793D01*
X95215267Y-121251660D01*
X95473294Y-121135354D01*
X95683135Y-121059420D01*
X95766274Y-121042641D01*
X95910214Y-121004277D01*
X96138675Y-120906993D01*
X96291562Y-120830200D01*
X96546612Y-120708744D01*
X96760858Y-120631274D01*
X96841222Y-120616651D01*
X97014073Y-120565162D01*
X97204934Y-120449200D01*
X97389947Y-120331255D01*
X97534451Y-120281749D01*
X97660556Y-120237873D01*
X97881605Y-120124180D01*
X98151491Y-119964544D01*
X98172058Y-119951611D01*
X98518239Y-119744336D01*
X98929634Y-119514321D01*
X99318173Y-119310781D01*
X99324207Y-119307767D01*
X99649748Y-119134912D01*
X99940304Y-118962376D01*
X100142239Y-118822409D01*
X100168267Y-118800262D01*
X100385637Y-118647604D01*
X100598656Y-118557035D01*
X100780616Y-118473775D01*
X101022349Y-118312283D01*
X101204314Y-118165129D01*
X101419309Y-117984894D01*
X101586164Y-117861429D01*
X101658375Y-117824534D01*
X101780936Y-117773479D01*
X102004527Y-117633668D01*
X102300411Y-117425125D01*
X102639848Y-117167877D01*
X102903162Y-116957121D01*
X103152138Y-116762525D01*
X103356960Y-116619620D01*
X103478174Y-116555642D01*
X103486361Y-116554534D01*
X103610308Y-116492919D01*
X103848604Y-116308849D01*
X104199870Y-116003481D01*
X104662727Y-115577976D01*
X104782600Y-115465334D01*
X105040586Y-115239075D01*
X105291073Y-115047158D01*
X105459231Y-114942524D01*
X105624715Y-114828523D01*
X105875458Y-114615852D01*
X106183989Y-114331990D01*
X106522837Y-114004415D01*
X106864531Y-113660607D01*
X107181600Y-113328043D01*
X107446573Y-113034203D01*
X107631979Y-112806566D01*
X107699626Y-112701497D01*
X107791066Y-112530470D01*
X107903600Y-112365958D01*
X108065312Y-112173342D01*
X108304283Y-111918005D01*
X108491553Y-111725281D01*
X108702546Y-111477568D01*
X108862605Y-111230820D01*
X108925404Y-111077893D01*
X109022333Y-110836144D01*
X109154722Y-110659532D01*
X109315458Y-110467267D01*
X109443180Y-110248586D01*
X109554704Y-110029841D01*
X109713759Y-109746450D01*
X109819119Y-109569534D01*
X109968367Y-109317050D01*
X110081856Y-109109517D01*
X110123974Y-109019200D01*
X110187952Y-108866616D01*
X110292901Y-108637572D01*
X110332938Y-108553534D01*
X110591975Y-107926096D01*
X110815342Y-107212173D01*
X110961140Y-106579991D01*
X111029401Y-106263914D01*
X111100426Y-106007958D01*
X111159891Y-105863019D01*
X111164751Y-105856469D01*
X111196130Y-105744086D01*
X111234772Y-105488987D01*
X111277742Y-105117480D01*
X111322105Y-104655877D01*
X111364926Y-104130485D01*
X111379128Y-103934663D01*
X111430794Y-103273931D01*
X111486272Y-102699784D01*
X111542959Y-102234272D01*
X111598255Y-101899450D01*
X111637129Y-101747706D01*
X111690519Y-101545273D01*
X111728390Y-101270893D01*
X111752589Y-100898749D01*
X111764965Y-100403023D01*
X111767600Y-99925121D01*
X111764858Y-99364301D01*
X111754709Y-98939806D01*
X111734268Y-98618685D01*
X111700652Y-98367991D01*
X111650978Y-98154773D01*
X111598267Y-97990548D01*
X111506828Y-97708075D01*
X111445344Y-97475417D01*
X111428934Y-97368788D01*
X111380980Y-97192373D01*
X111252351Y-96921251D01*
X111065892Y-96594718D01*
X110844448Y-96252071D01*
X110610865Y-95932607D01*
X110550171Y-95857231D01*
X110165864Y-95427299D01*
X109705206Y-94966975D01*
X109223475Y-94528503D01*
X108775949Y-94164129D01*
X108697665Y-94106370D01*
X108318983Y-93828897D01*
X108039833Y-93608935D01*
X107820459Y-93407699D01*
X107621107Y-93186405D01*
X107402021Y-92906267D01*
X107231426Y-92675917D01*
X106992003Y-92370990D01*
X106699403Y-92030645D01*
X106376955Y-91678401D01*
X106047989Y-91337778D01*
X105735833Y-91032295D01*
X105463816Y-90785471D01*
X105255268Y-90620826D01*
X105134480Y-90561867D01*
X104996015Y-90516305D01*
X104822606Y-90414157D01*
X104627338Y-90298345D01*
X104348194Y-90157882D01*
X104147600Y-90067396D01*
X103979448Y-90001125D01*
X103806116Y-89949349D01*
X103601190Y-89909023D01*
X103338258Y-89877102D01*
X102990908Y-89850540D01*
X102532726Y-89826291D01*
X101937299Y-89801310D01*
X101790432Y-89795613D01*
X101144065Y-89768677D01*
X100642949Y-89742122D01*
X100263028Y-89713458D01*
X99980243Y-89680197D01*
X99770537Y-89639850D01*
X99609853Y-89589928D01*
X99546765Y-89563512D01*
X99009886Y-89328686D01*
X98577779Y-89168325D01*
X98205295Y-89078175D01*
X97847282Y-89053982D01*
X97458592Y-89091491D01*
X96994072Y-89186449D01*
X96596822Y-89285543D01*
X95262583Y-89682420D01*
X94076380Y-90147199D01*
X93028767Y-90685541D01*
X92110300Y-91303106D01*
X91311536Y-92005556D01*
X90623029Y-92798551D01*
X90532557Y-92920331D01*
X89795177Y-93946641D01*
X89132166Y-94902824D01*
X88529846Y-95813439D01*
X87974539Y-96703046D01*
X87452566Y-97596203D01*
X86950251Y-98517469D01*
X86453916Y-99491402D01*
X85949882Y-100542562D01*
X85424471Y-101695508D01*
X84864007Y-102974798D01*
X84633203Y-103512724D01*
X84420220Y-104006130D01*
X84163652Y-104592119D01*
X83890547Y-105209378D01*
X83627952Y-105796592D01*
X83530078Y-106013388D01*
X83294419Y-106558132D01*
X83038124Y-107193342D01*
X82769713Y-107893989D01*
X82497708Y-108635041D01*
X82230629Y-109391468D01*
X81976998Y-110138239D01*
X81745335Y-110850324D01*
X81544162Y-111502693D01*
X81382000Y-112070314D01*
X81267369Y-112528157D01*
X81212429Y-112821496D01*
X81156975Y-113390336D01*
X81128165Y-114021582D01*
X81125546Y-114665830D01*
X76967873Y-114665830D01*
X77034355Y-114652229D01*
X78770380Y-114222406D01*
X79387076Y-114050506D01*
X79814885Y-113927555D01*
X79918012Y-112887926D01*
X79950670Y-112582429D01*
X79987754Y-112307768D01*
X80035850Y-112039505D01*
X80101548Y-111753201D01*
X80191436Y-111424416D01*
X80312102Y-111028711D01*
X80470134Y-110541649D01*
X80672121Y-109938788D01*
X80870621Y-109354248D01*
X81103330Y-108681947D01*
X81341565Y-108013359D01*
X81574055Y-107378716D01*
X81789528Y-106808246D01*
X81976715Y-106332178D01*
X82124344Y-105980742D01*
X82147766Y-105928867D01*
X82295440Y-105603256D01*
X82497036Y-105152897D01*
X82739013Y-104608357D01*
X83007829Y-104000200D01*
X83289941Y-103358994D01*
X83571809Y-102715302D01*
X83591940Y-102669200D01*
X84087130Y-101540840D01*
X84530227Y-100547293D01*
X84933245Y-99666639D01*
X85308198Y-98876963D01*
X85667099Y-98156347D01*
X86021962Y-97482873D01*
X86384801Y-96834624D01*
X86767629Y-96189682D01*
X87182460Y-95526130D01*
X87641308Y-94822051D01*
X88156187Y-94055527D01*
X88739110Y-93204640D01*
X88936145Y-92919391D01*
X89243608Y-92487599D01*
X89568648Y-92052471D01*
X89877156Y-91658379D01*
X90135023Y-91349698D01*
X90188909Y-91289623D01*
X90995202Y-90522320D01*
X91937364Y-89833525D01*
X93019427Y-89221148D01*
X94245420Y-88683101D01*
X95619372Y-88217292D01*
X96654624Y-87937194D01*
X97110981Y-87828081D01*
X97448088Y-87758663D01*
X97710084Y-87724166D01*
X97941110Y-87719817D01*
X98185306Y-87740841D01*
X98314209Y-87757719D01*
X98645196Y-87818280D01*
X98933830Y-87896733D01*
X99112372Y-87973346D01*
X99315389Y-88073031D01*
X99466788Y-88106850D01*
X99636987Y-88149583D01*
X99857756Y-88254065D01*
X99892043Y-88274296D01*
X99998955Y-88329570D01*
X100132461Y-88373445D01*
X100315857Y-88408439D01*
X100572436Y-88437069D01*
X100925494Y-88461854D01*
X101398327Y-88485311D01*
X102014230Y-88509960D01*
X102102705Y-88513261D01*
X102736060Y-88538023D01*
X103224600Y-88561168D01*
X103592788Y-88585429D01*
X103865087Y-88613541D01*
X104065959Y-88648237D01*
X104219867Y-88692251D01*
X104351273Y-88748318D01*
X104392370Y-88769148D01*
X104636732Y-88880460D01*
X104839960Y-88945906D01*
X104895771Y-88953200D01*
X105076802Y-89007443D01*
X105353375Y-89156587D01*
X105696991Y-89380259D01*
X106079157Y-89658082D01*
X106471376Y-89969682D01*
X106845152Y-90294685D01*
X107066731Y-90505470D01*
X107413652Y-90867515D01*
X107775914Y-91274298D01*
X108099326Y-91663798D01*
X108246893Y-91856181D01*
X108572664Y-92257360D01*
X108925451Y-92622247D01*
X109221470Y-92872442D01*
X109661916Y-93202239D01*
X110093480Y-93542132D01*
X110492033Y-93871481D01*
X110833449Y-94169646D01*
X111093599Y-94415988D01*
X111248356Y-94589866D01*
X111271180Y-94625867D01*
X111390602Y-94809294D01*
X111576370Y-95049005D01*
X111703518Y-95197520D01*
X111903698Y-95442893D01*
X112065686Y-95679059D01*
X112125191Y-95790187D01*
X112251388Y-96040502D01*
X112375677Y-96245316D01*
X112482821Y-96454838D01*
X112593044Y-96748998D01*
X112648770Y-96937794D01*
X112732941Y-97229979D01*
X112817732Y-97475979D01*
X112862506Y-97578436D01*
X112936633Y-97809839D01*
X112995564Y-98177121D01*
X113039018Y-98647491D01*
X113066718Y-99188154D01*
X113078383Y-99766315D01*
X113073733Y-100349181D01*
X113052489Y-100903957D01*
X113014372Y-101397850D01*
X112959102Y-101798065D01*
X112900488Y-102034200D01*
X112858669Y-102221800D01*
X112810508Y-102546590D01*
X112759708Y-102976724D01*
X112709976Y-103480358D01*
X112665018Y-104025646D01*
X112658696Y-104112100D01*
X112598859Y-104859758D01*
X112536887Y-105456153D01*
X112470428Y-105919357D01*
X112397129Y-106267440D01*
X112362366Y-106387963D01*
X112272304Y-106702090D01*
X112209521Y-106982445D01*
X112189074Y-107146397D01*
X112152721Y-107362929D01*
X112064198Y-107633628D01*
X112028960Y-107716688D01*
X111913204Y-108007513D01*
X111823952Y-108293175D01*
X111810146Y-108351688D01*
X111735456Y-108599119D01*
X111614546Y-108902248D01*
X111546927Y-109047323D01*
X111433481Y-109288258D01*
X111359934Y-109467321D01*
X111344267Y-109525503D01*
X111303068Y-109626488D01*
X111194176Y-109830188D01*
X111039645Y-110095728D01*
X111011286Y-110142657D01*
X110828259Y-110456144D01*
X110665912Y-110755438D01*
X110558809Y-110976767D01*
X110557381Y-110980168D01*
X110440569Y-111211531D01*
X110317920Y-111387608D01*
X110307506Y-111398532D01*
X110190003Y-111552517D01*
X110049310Y-111784729D01*
X110001102Y-111875321D01*
X109825743Y-112160448D01*
X109549914Y-112537289D01*
X109195643Y-112980645D01*
X108784958Y-113465320D01*
X108339887Y-113966114D01*
X107882456Y-114457832D01*
X107434695Y-114915275D01*
X107018630Y-115313246D01*
X106909749Y-115411534D01*
X106605034Y-115684050D01*
X106324349Y-115938086D01*
X106106930Y-116137983D01*
X106020749Y-116219444D01*
X105811013Y-116405340D01*
X105550667Y-116614153D01*
X105459934Y-116682086D01*
X105187175Y-116892889D01*
X104888584Y-117140217D01*
X104769850Y-117243994D01*
X104500094Y-117461385D01*
X104214203Y-117656244D01*
X104092517Y-117725612D01*
X103826242Y-117892178D01*
X103588720Y-118087978D01*
X103554934Y-118122757D01*
X103275125Y-118376835D01*
X102872198Y-118671994D01*
X102547435Y-118881815D01*
X102390334Y-118980281D01*
X102125520Y-119147827D01*
X101787905Y-119362260D01*
X101412404Y-119601385D01*
X101033930Y-119843010D01*
X100823665Y-119977566D01*
X100475080Y-120185773D01*
X100090322Y-120393320D01*
X99849998Y-120510176D01*
X99490679Y-120687537D01*
X99109038Y-120897621D01*
X98921076Y-121011038D01*
X98633929Y-121182081D01*
X98294444Y-121367977D01*
X97940489Y-121550000D01*
X97609930Y-121709426D01*
X97340634Y-121827529D01*
X97170469Y-121885583D01*
X97146568Y-121888534D01*
X97011375Y-121928155D01*
X96807757Y-122025854D01*
X96765273Y-122049662D01*
X96490351Y-122178318D01*
X96210103Y-122268106D01*
X96199647Y-122270352D01*
X95917006Y-122358915D01*
X95649313Y-122484015D01*
X95380782Y-122604599D01*
X95077621Y-122693843D01*
X95046789Y-122699892D01*
X94739664Y-122779018D01*
X94419326Y-122894121D01*
X94369456Y-122915907D01*
X94070928Y-123010562D01*
X93721953Y-123066097D01*
X93596196Y-123072007D01*
X93143035Y-123130139D01*
X92749530Y-123261186D01*
X92589449Y-123327613D01*
X92424916Y-123376883D01*
X92226993Y-123411938D01*
X91966738Y-123435716D01*
X91615213Y-123451160D01*
X91143477Y-123461210D01*
X90727934Y-123466590D01*
X90197869Y-123469077D01*
X89703695Y-123464986D01*
X89279228Y-123455089D01*
X88958280Y-123440159D01*
X88780600Y-123422116D01*
X88470354Y-123352664D01*
X88168980Y-123267415D01*
X88145600Y-123259682D01*
X87888463Y-123179633D01*
X87562032Y-123086484D01*
X87383600Y-123038669D01*
X87002943Y-122930281D01*
X86611693Y-122803343D01*
X86252426Y-122673336D01*
X85967713Y-122555739D01*
X85800129Y-122466033D01*
X85792632Y-122460176D01*
X85656072Y-122372441D01*
X85429099Y-122248717D01*
X85284632Y-122176185D01*
X84994885Y-122016956D01*
X84657853Y-121805623D01*
X84420267Y-121640962D01*
X84100614Y-121410922D01*
X83762181Y-121173896D01*
X83552434Y-121031076D01*
X83334029Y-120874023D01*
X83187971Y-120747489D01*
X83150267Y-120692991D01*
X83086406Y-120617642D01*
X82912855Y-120465099D01*
X82656655Y-120258052D01*
X82367100Y-120035859D01*
X82014378Y-119755152D01*
X81679715Y-119460649D01*
X81407518Y-119192883D01*
X81274524Y-119038579D01*
X80711696Y-118188452D01*
X80281884Y-117312186D01*
X79996236Y-116435659D01*
X79885506Y-115813700D01*
X79847300Y-115540007D01*
X79806038Y-115348904D01*
X79773831Y-115284747D01*
X79673993Y-115305301D01*
X79449892Y-115360251D01*
X79140739Y-115439825D01*
X78959267Y-115487722D01*
X76712371Y-116028995D01*
X74508501Y-116446972D01*
X72359560Y-116740542D01*
X70277451Y-116908591D01*
X68274078Y-116950006D01*
X66361343Y-116863676D01*
X65345521Y-116760507D01*
X63628593Y-116486225D01*
X61868439Y-116086104D01*
X60116507Y-115574699D01*
X58424249Y-114966563D01*
X57269516Y-114476006D01*
X56968004Y-114341664D01*
X56726858Y-114239920D01*
X56586186Y-114187495D01*
X56568857Y-114183867D01*
X56479941Y-114232616D01*
X56291495Y-114363248D01*
X56036596Y-114552338D01*
X55895571Y-114660700D01*
X55098985Y-115219499D01*
X54156066Y-115774926D01*
X53089549Y-116314152D01*
X52463834Y-116596867D01*
X51999347Y-116802020D01*
X51664273Y-116960997D01*
X51430822Y-117090561D01*
X51271206Y-117207474D01*
X51157635Y-117328497D01*
X51090127Y-117425460D01*
X50676190Y-117973819D01*
X50137746Y-118503928D01*
X49622267Y-118915738D01*
X49314676Y-119153202D01*
X49038372Y-119383427D01*
X48837952Y-119568636D01*
X48789241Y-119621392D01*
X48630540Y-119777697D01*
X48499158Y-119854815D01*
X48484863Y-119856534D01*
X48354671Y-119914574D01*
X48217222Y-120036234D01*
X48026709Y-120207695D01*
X47734102Y-120422874D01*
X47372389Y-120662376D01*
X46974556Y-120906805D01*
X46573591Y-121136766D01*
X46202480Y-121332861D01*
X45894211Y-121475696D01*
X45681771Y-121545875D01*
X45642946Y-121549867D01*
X45475058Y-121596228D01*
X45330752Y-121676312D01*
X45157239Y-121759474D01*
X44879081Y-121853930D01*
X44571080Y-121935647D01*
X44206757Y-122026491D01*
X43846073Y-122128080D01*
X43610934Y-122203540D01*
X43435625Y-122252570D01*
X43208508Y-122288970D01*
X42904683Y-122314352D01*
X42499248Y-122330326D01*
X41967305Y-122338504D01*
X41494267Y-122340466D01*
X40890888Y-122339401D01*
X40430779Y-122333410D01*
X40087901Y-122320563D01*
X39836217Y-122298935D01*
X39649690Y-122266598D01*
X39502282Y-122221624D01*
X39419934Y-122186925D01*
X39156091Y-122097934D01*
X38804138Y-122020122D01*
X38479428Y-121974799D01*
X38058113Y-121908684D01*
X37682563Y-121802361D01*
X37524321Y-121734001D01*
X37257648Y-121620669D01*
X37009616Y-121555803D01*
X36940153Y-121549867D01*
X36731511Y-121510212D01*
X36458559Y-121409247D01*
X36311638Y-121338200D01*
X36056617Y-121216912D01*
X35842382Y-121139840D01*
X35761978Y-121125514D01*
X35601890Y-121084460D01*
X35367514Y-120981364D01*
X35241458Y-120913847D01*
X35003782Y-120790912D01*
X34813460Y-120715017D01*
X34753385Y-120703200D01*
X34629499Y-120665315D01*
X34397550Y-120563803D01*
X34097716Y-120416875D01*
X33936528Y-120332936D01*
X33583459Y-120145559D01*
X33137855Y-119909236D01*
X32656833Y-119654250D01*
X32198353Y-119411334D01*
X31806800Y-119200730D01*
X31460443Y-119008476D01*
X31191535Y-118852904D01*
X31032329Y-118752347D01*
X31013020Y-118737590D01*
X30855526Y-118624322D01*
X30618505Y-118474801D01*
X30487497Y-118397967D01*
X30230422Y-118234598D01*
X30013908Y-118068495D01*
X29945208Y-118002642D01*
X29780399Y-117870654D01*
X29646699Y-117824534D01*
X29508033Y-117773086D01*
X29277626Y-117635549D01*
X28991358Y-117437131D01*
X28685106Y-117203040D01*
X28394750Y-116958485D01*
X28328600Y-116898436D01*
X28135522Y-116736919D01*
X27974843Y-116630390D01*
X27947600Y-116618257D01*
X27834285Y-116548587D01*
X27623310Y-116395040D01*
X27346422Y-116182954D01*
X27035368Y-115937664D01*
X26721894Y-115684509D01*
X26437747Y-115448827D01*
X26214673Y-115255953D01*
X26084437Y-115131246D01*
X25953099Y-115007507D01*
X25734475Y-114823950D01*
X25491770Y-114632616D01*
X25110340Y-114313436D01*
X24661737Y-113893377D01*
X24180216Y-113407157D01*
X23700035Y-112889492D01*
X23255448Y-112375099D01*
X23211003Y-112321200D01*
X22949510Y-112003526D01*
X22695718Y-111697034D01*
X22490788Y-111451369D01*
X22429691Y-111378862D01*
X22174224Y-111038903D01*
X21886757Y-110580950D01*
X21555538Y-109986043D01*
X21491898Y-109865867D01*
X21319255Y-109553407D01*
X21130554Y-109233913D01*
X21075838Y-109146200D01*
X20905998Y-108852300D01*
X20715548Y-108480810D01*
X20526677Y-108080079D01*
X20361577Y-107698456D01*
X20242437Y-107384291D01*
X20199765Y-107237396D01*
X20127079Y-106984491D01*
X20019833Y-106689997D01*
X19990160Y-106618538D01*
X19889398Y-106319329D01*
X19806677Y-105963014D01*
X19781716Y-105803983D01*
X19737972Y-105530492D01*
X19687313Y-105324035D01*
X19656498Y-105253650D01*
X19602643Y-105157950D01*
X19555908Y-105007234D01*
X19513579Y-104781297D01*
X19472940Y-104459931D01*
X19431272Y-104022931D01*
X19385862Y-103450090D01*
X19353178Y-102997117D01*
X19310231Y-102455078D01*
X19261093Y-101947428D01*
X19209667Y-101507408D01*
X19159860Y-101168259D01*
X19115574Y-100963223D01*
X19113522Y-100956933D01*
X19034273Y-100618286D01*
X18976682Y-100162101D01*
X18940249Y-99622163D01*
X18924471Y-99032253D01*
X18926117Y-98804107D01*
X20242934Y-98804107D01*
X20247385Y-99414349D01*
X20261949Y-99881104D01*
X20288440Y-100230016D01*
X20328671Y-100486727D01*
X20373258Y-100646624D01*
X20425643Y-100868216D01*
X20481420Y-101235100D01*
X20537734Y-101723349D01*
X20591733Y-102309036D01*
X20627776Y-102780469D01*
X20669490Y-103319607D01*
X20714473Y-103809265D01*
X20759570Y-104221315D01*
X20801628Y-104527633D01*
X20837493Y-104700090D01*
X20845134Y-104719015D01*
X20907233Y-104887817D01*
X20981144Y-105164398D01*
X21051058Y-105489471D01*
X21052229Y-105495648D01*
X21232233Y-106239900D01*
X21482004Y-106983881D01*
X21681944Y-107452867D01*
X21793079Y-107691328D01*
X21877121Y-107879278D01*
X21893534Y-107918534D01*
X21967019Y-108065214D01*
X22092662Y-108286030D01*
X22151733Y-108384200D01*
X22327027Y-108688237D01*
X22497864Y-109011180D01*
X22528639Y-109073621D01*
X22654959Y-109294712D01*
X22775535Y-109442621D01*
X22815015Y-109469217D01*
X22909390Y-109570618D01*
X23016227Y-109777048D01*
X23064181Y-109902365D01*
X23253174Y-110268793D01*
X23560713Y-110644344D01*
X23608592Y-110692102D01*
X23886816Y-110992131D01*
X24166318Y-111339079D01*
X24321257Y-111559200D01*
X24467177Y-111753785D01*
X24693279Y-112017996D01*
X24976259Y-112328292D01*
X25292810Y-112661131D01*
X25619628Y-112992973D01*
X25933407Y-113300277D01*
X26210840Y-113559500D01*
X26428624Y-113747103D01*
X26563451Y-113839544D01*
X26584381Y-113845200D01*
X26675852Y-113899168D01*
X26866815Y-114047391D01*
X27132264Y-114269345D01*
X27447194Y-114544507D01*
X27564423Y-114649534D01*
X27893009Y-114938935D01*
X28183661Y-115182111D01*
X28410588Y-115358429D01*
X28548004Y-115447260D01*
X28569848Y-115453867D01*
X28686436Y-115505477D01*
X28888078Y-115641500D01*
X29133377Y-115833724D01*
X29159996Y-115856034D01*
X29563536Y-116191882D01*
X29857920Y-116425419D01*
X30059093Y-116568450D01*
X30183002Y-116632781D01*
X30217814Y-116639200D01*
X30324756Y-116689816D01*
X30511617Y-116820312D01*
X30668658Y-116945329D01*
X30976067Y-117167647D01*
X31328667Y-117375022D01*
X31471946Y-117444665D01*
X31726646Y-117573239D01*
X31916866Y-117698352D01*
X31981378Y-117764118D01*
X32084555Y-117852823D01*
X32305095Y-117991570D01*
X32606915Y-118158789D01*
X32842695Y-118279000D01*
X33200727Y-118459615D01*
X33524273Y-118630349D01*
X33768100Y-118766964D01*
X33858695Y-118823417D01*
X34100118Y-118967158D01*
X34431487Y-119138193D01*
X34786108Y-119304548D01*
X35097287Y-119434249D01*
X35223274Y-119477639D01*
X35421216Y-119554230D01*
X35684903Y-119677243D01*
X35807384Y-119740161D01*
X36053919Y-119857481D01*
X36255988Y-119929916D01*
X36322298Y-119941200D01*
X36483236Y-119979210D01*
X36706394Y-120073074D01*
X36754187Y-120097499D01*
X37049038Y-120219835D01*
X37360444Y-120302771D01*
X37375753Y-120305301D01*
X37670113Y-120381234D01*
X37979839Y-120502894D01*
X38034527Y-120530002D01*
X38476141Y-120673944D01*
X38851041Y-120706749D01*
X39326157Y-120760254D01*
X39631600Y-120874360D01*
X39747762Y-120931228D01*
X39878038Y-120972510D01*
X40048864Y-121000075D01*
X40286677Y-121015789D01*
X40617913Y-121021520D01*
X41069008Y-121019136D01*
X41578934Y-121011923D01*
X42243029Y-120996929D01*
X42765992Y-120974328D01*
X43175941Y-120941865D01*
X43500992Y-120897284D01*
X43769262Y-120838329D01*
X43780267Y-120835352D01*
X44122780Y-120730290D01*
X44448699Y-120611177D01*
X44643707Y-120524907D01*
X44865098Y-120423528D01*
X45031829Y-120368072D01*
X45060350Y-120364534D01*
X45208751Y-120324782D01*
X45456378Y-120220954D01*
X45757310Y-120076184D01*
X46065626Y-119913611D01*
X46335406Y-119756371D01*
X46517263Y-119630477D01*
X46701509Y-119498926D01*
X46842045Y-119432972D01*
X46855930Y-119431269D01*
X46957926Y-119377491D01*
X47153554Y-119234037D01*
X47411133Y-119025122D01*
X47603525Y-118859769D01*
X47973646Y-118544999D01*
X48389796Y-118207098D01*
X48778274Y-117905516D01*
X48883537Y-117827247D01*
X49467147Y-117334252D01*
X49943160Y-116776858D01*
X50352430Y-116106218D01*
X50399647Y-116014529D01*
X50638637Y-115431883D01*
X50795307Y-114777328D01*
X50875772Y-114019069D01*
X50890102Y-113464200D01*
X50886121Y-112930941D01*
X50869477Y-112461944D01*
X50834553Y-112029876D01*
X50775731Y-111607402D01*
X50687397Y-111167187D01*
X50563931Y-110681899D01*
X50399718Y-110124202D01*
X50189140Y-109466763D01*
X49926582Y-108682247D01*
X49878106Y-108539376D01*
X49657764Y-107898304D01*
X49442513Y-107285898D01*
X49241475Y-106727083D01*
X49063774Y-106246782D01*
X48918532Y-105869922D01*
X48814874Y-105621426D01*
X48793452Y-105576042D01*
X48702071Y-105382639D01*
X48553061Y-105055516D01*
X48356064Y-104616350D01*
X48120721Y-104086819D01*
X47856673Y-103488602D01*
X47573561Y-102843376D01*
X47331238Y-102288200D01*
X46760202Y-100991191D01*
X46235229Y-99832132D01*
X45744912Y-98789687D01*
X45277847Y-97842522D01*
X44822626Y-96969303D01*
X44367845Y-96148695D01*
X43902099Y-95359363D01*
X43413982Y-94579974D01*
X42892088Y-93789193D01*
X42420186Y-93101867D01*
X41916001Y-92390694D01*
X41480182Y-91804795D01*
X41095300Y-91323454D01*
X40743924Y-90925956D01*
X40408626Y-90591584D01*
X40071976Y-90299623D01*
X40042541Y-90275939D01*
X39177180Y-89668871D01*
X38183496Y-89131907D01*
X37052195Y-88660858D01*
X35773985Y-88251536D01*
X35231419Y-88107161D01*
X34745668Y-87987141D01*
X34390417Y-87909071D01*
X34132806Y-87870319D01*
X33939975Y-87868252D01*
X33779064Y-87900239D01*
X33617214Y-87963647D01*
X33590729Y-87975750D01*
X33328572Y-88088517D01*
X33030644Y-88205699D01*
X32985267Y-88222457D01*
X32669899Y-88338213D01*
X32341336Y-88459881D01*
X32300819Y-88474983D01*
X32098853Y-88527099D01*
X31786301Y-88571086D01*
X31347970Y-88608277D01*
X30768671Y-88640000D01*
X30141819Y-88664068D01*
X29517966Y-88686670D01*
X29039257Y-88709472D01*
X28681517Y-88734961D01*
X28420572Y-88765624D01*
X28232249Y-88803949D01*
X28092373Y-88852424D01*
X28033521Y-88880993D01*
X27790447Y-88984639D01*
X27574575Y-89036496D01*
X27546687Y-89037867D01*
X27397290Y-89064564D01*
X27354933Y-89109078D01*
X27286619Y-89185526D01*
X27110651Y-89307163D01*
X26945616Y-89403067D01*
X26615032Y-89625895D01*
X26217272Y-89962987D01*
X25779021Y-90387664D01*
X25326962Y-90873247D01*
X24887779Y-91393060D01*
X24652557Y-91695611D01*
X24301968Y-92136168D01*
X23989049Y-92466125D01*
X23673962Y-92725437D01*
X23523257Y-92828170D01*
X23226476Y-93044181D01*
X22871628Y-93339717D01*
X22485925Y-93687904D01*
X22096583Y-94061868D01*
X21730814Y-94434734D01*
X21415832Y-94779627D01*
X21178849Y-95069672D01*
X21050797Y-95269838D01*
X20911099Y-95540858D01*
X20764152Y-95787190D01*
X20739029Y-95824270D01*
X20627050Y-96031699D01*
X20581600Y-96208205D01*
X20554393Y-96371889D01*
X20484059Y-96629816D01*
X20412267Y-96849186D01*
X20348293Y-97054267D01*
X20302384Y-97270442D01*
X20271718Y-97530273D01*
X20253475Y-97866325D01*
X20244835Y-98311159D01*
X20242934Y-98804107D01*
X18926117Y-98804107D01*
X18928846Y-98426157D01*
X18952872Y-97837658D01*
X18996049Y-97300538D01*
X19057873Y-96848583D01*
X19137843Y-96515574D01*
X19181056Y-96410720D01*
X19274252Y-96167536D01*
X19311600Y-95949437D01*
X19363765Y-95709112D01*
X19507529Y-95371174D01*
X19723797Y-94966149D01*
X19993474Y-94524567D01*
X20297464Y-94076955D01*
X20616672Y-93653841D01*
X20932003Y-93285753D01*
X21061003Y-93152631D01*
X21416040Y-92825622D01*
X21856370Y-92453333D01*
X22324865Y-92082082D01*
X22764395Y-91758186D01*
X22874935Y-91681989D01*
X23117498Y-91478144D01*
X23406747Y-91174031D01*
X23701375Y-90814060D01*
X23777658Y-90711443D01*
X24060964Y-90350535D01*
X24407835Y-89953087D01*
X24790962Y-89546029D01*
X25183033Y-89156294D01*
X25556740Y-88810812D01*
X25884772Y-88536515D01*
X26139820Y-88360333D01*
X26186596Y-88335898D01*
X26410496Y-88210125D01*
X26574824Y-88084130D01*
X26591415Y-88066030D01*
X26733084Y-87964908D01*
X26968662Y-87857038D01*
X27089912Y-87814680D01*
X27414922Y-87708752D01*
X27742157Y-87596301D01*
X27820985Y-87567989D01*
X28051436Y-87513898D01*
X28429096Y-87467229D01*
X28960535Y-87427407D01*
X29652319Y-87393861D01*
X29937652Y-87383355D01*
X30557715Y-87359991D01*
X31033187Y-87336254D01*
X31388792Y-87309552D01*
X31649257Y-87277293D01*
X31839310Y-87236885D01*
X31983676Y-87185738D01*
X32029394Y-87164112D01*
X32248366Y-87064324D01*
X32409278Y-87009497D01*
X32436206Y-87005867D01*
X32561727Y-86972796D01*
X32780050Y-86888342D01*
X32926412Y-86824196D01*
X33470373Y-86653363D01*
X34093199Y-86606291D01*
X34809591Y-86682686D01*
X35250100Y-86777544D01*
X35595293Y-86857515D01*
X35869604Y-86910278D01*
X36038528Y-86929842D01*
X36075600Y-86920856D01*
X36034126Y-86825120D01*
X35904354Y-86641052D01*
X35678263Y-86358371D01*
X35347831Y-85966793D01*
X35173245Y-85764196D01*
X34867806Y-85401644D01*
X34652379Y-85109262D01*
X34500161Y-84834628D01*
X34384351Y-84525321D01*
X34278146Y-84128922D01*
X34228042Y-83915534D01*
X33987566Y-82522150D01*
X33912113Y-81159105D01*
X33999832Y-79832497D01*
X34248871Y-78548425D01*
X34657379Y-77312988D01*
X35223503Y-76132285D01*
X35945392Y-75012416D01*
X36821195Y-73959479D01*
X37436680Y-73346658D01*
X37973342Y-72875765D01*
X38518818Y-72447300D01*
X39041087Y-72083908D01*
X39508125Y-71808235D01*
X39804974Y-71671876D01*
X40365862Y-71510719D01*
X41040468Y-71399195D01*
X41780045Y-71339195D01*
X42535847Y-71332612D01*
X43259127Y-71381337D01*
G36*
X43259127Y-71381337D02*
G01*
X43901140Y-71487263D01*
X43991934Y-71509356D01*
X44725842Y-71747004D01*
X45474186Y-72077206D01*
X46166607Y-72466457D01*
X46531934Y-72718938D01*
X46833043Y-72972858D01*
X47199003Y-73320255D01*
X47591169Y-73720581D01*
X47970900Y-74133286D01*
X48299551Y-74517822D01*
X48515651Y-74800466D01*
X48783497Y-75311004D01*
X48950732Y-75936333D01*
X49018095Y-76682838D01*
X48986330Y-77556903D01*
X48911239Y-78208048D01*
X48840907Y-78658900D01*
X48769501Y-78979720D01*
X48681568Y-79209201D01*
X48561659Y-79386031D01*
X48394320Y-79548902D01*
X48366214Y-79572806D01*
X48227536Y-79672064D01*
X48080587Y-79728835D01*
X47906747Y-79736907D01*
X47687398Y-79690069D01*
X47403922Y-79582109D01*
X47037699Y-79406815D01*
X46570111Y-79157975D01*
X45982539Y-78829379D01*
X45761833Y-78703917D01*
X43999737Y-77699687D01*
X43538083Y-78397021D01*
X44188342Y-78721668D01*
X44473208Y-78876779D01*
X44860100Y-79105688D01*
X45312002Y-79385543D01*
X45791899Y-79693490D01*
X46191213Y-79958265D01*
X46663426Y-80278384D01*
X47016764Y-80524898D01*
X47273660Y-80717506D01*
X47456548Y-80875908D01*
X47587860Y-81019804D01*
X47690031Y-81168892D01*
X47785493Y-81342873D01*
X47799880Y-81370888D01*
X47922224Y-81626194D01*
X47998088Y-81845792D01*
X48038356Y-82085490D01*
X48053914Y-82401097D01*
X48055934Y-82683661D01*
X48050993Y-83080546D01*
X48028291Y-83366731D01*
X47976007Y-83600747D01*
X47882320Y-83841121D01*
X47777829Y-84060672D01*
X47408016Y-84637385D01*
X46888821Y-85182937D01*
X46239675Y-85679406D01*
X45647847Y-86025077D01*
X44904008Y-86409255D01*
X44490304Y-86144494D01*
X44296421Y-85997404D01*
X44014050Y-85752847D01*
X43671025Y-85436410D01*
X43295181Y-85073681D01*
X42965696Y-84742957D01*
X41854791Y-83606180D01*
X41479465Y-84213470D01*
X42651033Y-85611840D01*
X43005526Y-86041040D01*
X43327710Y-86442589D01*
X43599494Y-86793015D01*
X43802783Y-87068846D01*
X43919484Y-87246611D01*
X43934965Y-87277450D01*
X44008966Y-87656899D01*
X43945892Y-88059215D01*
X43768784Y-88452155D01*
X43500683Y-88803477D01*
X43164626Y-89080937D01*
X42783656Y-89252292D01*
X42495518Y-89291867D01*
X42306721Y-89278286D01*
X42108880Y-89228229D01*
X41868314Y-89127722D01*
X41551345Y-88962794D01*
X41145402Y-88731752D01*
X40080856Y-88134383D01*
X39130585Y-87647419D01*
X38284451Y-87266399D01*
X37532312Y-86986860D01*
X36864029Y-86804340D01*
X36684953Y-86769007D01*
X36427209Y-86727386D01*
X36297042Y-86727478D01*
X36256084Y-86777292D01*
X36261619Y-86857380D01*
X36306569Y-86942416D01*
X36430547Y-87032888D01*
X36656561Y-87140386D01*
X37007612Y-87276498D01*
X37303267Y-87382134D01*
X38468419Y-87839858D01*
X39500523Y-88357071D01*
X40425860Y-88953992D01*
X41270712Y-89650837D01*
X42061359Y-90467824D01*
X42824082Y-91425171D01*
X43142576Y-91874200D01*
X43743649Y-92753853D01*
X44276950Y-93549874D01*
X44754359Y-94284118D01*
X45187760Y-94978444D01*
X45589034Y-95654708D01*
X45970065Y-96334767D01*
X46342733Y-97040479D01*
X46718923Y-97793700D01*
X47110515Y-98616289D01*
X47529392Y-99530101D01*
X47987437Y-100556994D01*
X48496532Y-101718825D01*
X48504825Y-101737867D01*
X48780564Y-102369198D01*
X49053152Y-102989888D01*
X49310073Y-103571694D01*
X49538811Y-104086371D01*
X49726852Y-104505675D01*
X49861681Y-104801362D01*
X49874159Y-104828200D01*
X49992157Y-105103086D01*
X50153540Y-105511029D01*
X50348075Y-106024463D01*
X50565529Y-106615826D01*
X50795672Y-107257551D01*
X51028269Y-107922076D01*
X51099891Y-108130200D01*
X51360176Y-108896024D01*
X51568522Y-109525014D01*
X51731299Y-110039315D01*
X51854879Y-110461071D01*
X51945633Y-110812425D01*
X52009931Y-111115520D01*
X52054144Y-111392502D01*
X52066240Y-111488964D01*
X52107202Y-111947994D01*
X52135656Y-112492595D01*
X52151358Y-113079690D01*
X52154064Y-113666204D01*
X52143528Y-114209061D01*
X52119507Y-114665183D01*
X52085976Y-114967034D01*
X52058961Y-115199690D01*
X52063808Y-115344906D01*
X52080567Y-115369200D01*
X52192821Y-115330484D01*
X52420540Y-115225588D01*
X52731628Y-115071393D01*
X53093988Y-114884777D01*
X53475520Y-114682620D01*
X53844129Y-114481802D01*
X54167716Y-114299202D01*
X54414185Y-114151700D01*
X54490600Y-114101808D01*
X54750391Y-113915185D01*
X55083672Y-113663475D01*
X55433722Y-113389844D01*
X55572639Y-113278329D01*
X55864435Y-113051704D01*
X56117829Y-112872849D01*
X56298277Y-112765217D01*
X56358904Y-112744534D01*
X56475394Y-112776561D01*
X56719242Y-112865385D01*
X57062589Y-113000121D01*
X57477576Y-113169882D01*
X57859199Y-113330754D01*
X59407602Y-113956363D01*
X60872408Y-114470747D01*
X62289388Y-114882782D01*
X63694311Y-115201346D01*
X65122951Y-115435318D01*
X66611076Y-115593575D01*
X67128129Y-115631140D01*
X68582029Y-115676060D01*
X70151166Y-115633060D01*
X71808253Y-115505658D01*
X73526005Y-115297374D01*
X75277134Y-115011725D01*
X76967873Y-114665830D01*
X81125546Y-114665830D01*
X81148666Y-115273677D01*
X81197070Y-115795716D01*
X81242224Y-116067263D01*
X81500799Y-116888953D01*
X81911024Y-117664607D01*
X82456787Y-118371184D01*
X83121974Y-118985646D01*
X83447495Y-119220330D01*
X83784943Y-119465644D01*
X84150453Y-119762816D01*
X84416215Y-120001971D01*
X84688129Y-120243341D01*
X84960481Y-120452206D01*
X85175106Y-120584024D01*
X85178215Y-120585478D01*
X85409212Y-120705471D01*
X85586956Y-120819490D01*
X85605600Y-120834631D01*
X85768883Y-120948251D01*
X86016775Y-121091660D01*
X86299699Y-121239663D01*
X86568078Y-121367059D01*
X86772336Y-121448654D01*
X86846257Y-121465200D01*
X86995346Y-121502655D01*
X87215280Y-121595920D01*
X87282160Y-121629676D01*
X87597627Y-121759980D01*
X88064193Y-121901662D01*
X88664409Y-122049804D01*
X89119267Y-122147500D01*
X89323038Y-122170425D01*
X89656544Y-122187112D01*
X90080265Y-122196435D01*
X90554679Y-122197267D01*
X90771472Y-122194617D01*
X91294372Y-122182912D01*
X91676658Y-122165858D01*
X91947039Y-122140223D01*
X92134223Y-122102781D01*
X92266916Y-122050301D01*
X92316660Y-122020813D01*
X92559322Y-121920678D01*
X92914374Y-121849054D01*
X93119788Y-121827918D01*
X93478124Y-121781018D01*
X93824052Y-121701358D01*
X94035498Y-121626002D01*
X94296951Y-121524662D01*
X94531118Y-121467210D01*
X94585831Y-121462552D01*
X94777525Y-121424180D01*
X95044186Y-121328793D01*
X95215267Y-121251660D01*
X95473294Y-121135354D01*
X95683135Y-121059420D01*
X95766274Y-121042641D01*
X95910214Y-121004277D01*
X96138675Y-120906993D01*
X96291562Y-120830200D01*
X96546612Y-120708744D01*
X96760858Y-120631274D01*
X96841222Y-120616651D01*
X97014073Y-120565162D01*
X97204934Y-120449200D01*
X97389947Y-120331255D01*
X97534451Y-120281749D01*
X97660556Y-120237873D01*
X97881605Y-120124180D01*
X98151491Y-119964544D01*
X98172058Y-119951611D01*
X98518239Y-119744336D01*
X98929634Y-119514321D01*
X99318173Y-119310781D01*
X99324207Y-119307767D01*
X99649748Y-119134912D01*
X99940304Y-118962376D01*
X100142239Y-118822409D01*
X100168267Y-118800262D01*
X100385637Y-118647604D01*
X100598656Y-118557035D01*
X100780616Y-118473775D01*
X101022349Y-118312283D01*
X101204314Y-118165129D01*
X101419309Y-117984894D01*
X101586164Y-117861429D01*
X101658375Y-117824534D01*
X101780936Y-117773479D01*
X102004527Y-117633668D01*
X102300411Y-117425125D01*
X102639848Y-117167877D01*
X102903162Y-116957121D01*
X103152138Y-116762525D01*
X103356960Y-116619620D01*
X103478174Y-116555642D01*
X103486361Y-116554534D01*
X103610308Y-116492919D01*
X103848604Y-116308849D01*
X104199870Y-116003481D01*
X104662727Y-115577976D01*
X104782600Y-115465334D01*
X105040586Y-115239075D01*
X105291073Y-115047158D01*
X105459231Y-114942524D01*
X105624715Y-114828523D01*
X105875458Y-114615852D01*
X106183989Y-114331990D01*
X106522837Y-114004415D01*
X106864531Y-113660607D01*
X107181600Y-113328043D01*
X107446573Y-113034203D01*
X107631979Y-112806566D01*
X107699626Y-112701497D01*
X107791066Y-112530470D01*
X107903600Y-112365958D01*
X108065312Y-112173342D01*
X108304283Y-111918005D01*
X108491553Y-111725281D01*
X108702546Y-111477568D01*
X108862605Y-111230820D01*
X108925404Y-111077893D01*
X109022333Y-110836144D01*
X109154722Y-110659532D01*
X109315458Y-110467267D01*
X109443180Y-110248586D01*
X109554704Y-110029841D01*
X109713759Y-109746450D01*
X109819119Y-109569534D01*
X109968367Y-109317050D01*
X110081856Y-109109517D01*
X110123974Y-109019200D01*
X110187952Y-108866616D01*
X110292901Y-108637572D01*
X110332938Y-108553534D01*
X110591975Y-107926096D01*
X110815342Y-107212173D01*
X110961140Y-106579991D01*
X111029401Y-106263914D01*
X111100426Y-106007958D01*
X111159891Y-105863019D01*
X111164751Y-105856469D01*
X111196130Y-105744086D01*
X111234772Y-105488987D01*
X111277742Y-105117480D01*
X111322105Y-104655877D01*
X111364926Y-104130485D01*
X111379128Y-103934663D01*
X111430794Y-103273931D01*
X111486272Y-102699784D01*
X111542959Y-102234272D01*
X111598255Y-101899450D01*
X111637129Y-101747706D01*
X111690519Y-101545273D01*
X111728390Y-101270893D01*
X111752589Y-100898749D01*
X111764965Y-100403023D01*
X111767600Y-99925121D01*
X111764858Y-99364301D01*
X111754709Y-98939806D01*
X111734268Y-98618685D01*
X111700652Y-98367991D01*
X111650978Y-98154773D01*
X111598267Y-97990548D01*
X111506828Y-97708075D01*
X111445344Y-97475417D01*
X111428934Y-97368788D01*
X111380980Y-97192373D01*
X111252351Y-96921251D01*
X111065892Y-96594718D01*
X110844448Y-96252071D01*
X110610865Y-95932607D01*
X110550171Y-95857231D01*
X110165864Y-95427299D01*
X109705206Y-94966975D01*
X109223475Y-94528503D01*
X108775949Y-94164129D01*
X108697665Y-94106370D01*
X108318983Y-93828897D01*
X108039833Y-93608935D01*
X107820459Y-93407699D01*
X107621107Y-93186405D01*
X107402021Y-92906267D01*
X107231426Y-92675917D01*
X106992003Y-92370990D01*
X106699403Y-92030645D01*
X106376955Y-91678401D01*
X106047989Y-91337778D01*
X105735833Y-91032295D01*
X105463816Y-90785471D01*
X105255268Y-90620826D01*
X105134480Y-90561867D01*
X104996015Y-90516305D01*
X104822606Y-90414157D01*
X104627338Y-90298345D01*
X104348194Y-90157882D01*
X104147600Y-90067396D01*
X103979448Y-90001125D01*
X103806116Y-89949349D01*
X103601190Y-89909023D01*
X103338258Y-89877102D01*
X102990908Y-89850540D01*
X102532726Y-89826291D01*
X101937299Y-89801310D01*
X101790432Y-89795613D01*
X101144065Y-89768677D01*
X100642949Y-89742122D01*
X100263028Y-89713458D01*
X99980243Y-89680197D01*
X99770537Y-89639850D01*
X99609853Y-89589928D01*
X99546765Y-89563512D01*
X99009886Y-89328686D01*
X98577779Y-89168325D01*
X98205295Y-89078175D01*
X97847282Y-89053982D01*
X97458592Y-89091491D01*
X96994072Y-89186449D01*
X96596822Y-89285543D01*
X95262583Y-89682420D01*
X94076380Y-90147199D01*
X93028767Y-90685541D01*
X92110300Y-91303106D01*
X91311536Y-92005556D01*
X90623029Y-92798551D01*
X90532557Y-92920331D01*
X89795177Y-93946641D01*
X89132166Y-94902824D01*
X88529846Y-95813439D01*
X87974539Y-96703046D01*
X87452566Y-97596203D01*
X86950251Y-98517469D01*
X86453916Y-99491402D01*
X85949882Y-100542562D01*
X85424471Y-101695508D01*
X84864007Y-102974798D01*
X84633203Y-103512724D01*
X84420220Y-104006130D01*
X84163652Y-104592119D01*
X83890547Y-105209378D01*
X83627952Y-105796592D01*
X83530078Y-106013388D01*
X83294419Y-106558132D01*
X83038124Y-107193342D01*
X82769713Y-107893989D01*
X82497708Y-108635041D01*
X82230629Y-109391468D01*
X81976998Y-110138239D01*
X81745335Y-110850324D01*
X81544162Y-111502693D01*
X81382000Y-112070314D01*
X81267369Y-112528157D01*
X81212429Y-112821496D01*
X81156975Y-113390336D01*
X81128165Y-114021582D01*
X81125546Y-114665830D01*
X76967873Y-114665830D01*
X77034355Y-114652229D01*
X78770380Y-114222406D01*
X79387076Y-114050506D01*
X79814885Y-113927555D01*
X79918012Y-112887926D01*
X79950670Y-112582429D01*
X79987754Y-112307768D01*
X80035850Y-112039505D01*
X80101548Y-111753201D01*
X80191436Y-111424416D01*
X80312102Y-111028711D01*
X80470134Y-110541649D01*
X80672121Y-109938788D01*
X80870621Y-109354248D01*
X81103330Y-108681947D01*
X81341565Y-108013359D01*
X81574055Y-107378716D01*
X81789528Y-106808246D01*
X81976715Y-106332178D01*
X82124344Y-105980742D01*
X82147766Y-105928867D01*
X82295440Y-105603256D01*
X82497036Y-105152897D01*
X82739013Y-104608357D01*
X83007829Y-104000200D01*
X83289941Y-103358994D01*
X83571809Y-102715302D01*
X83591940Y-102669200D01*
X84087130Y-101540840D01*
X84530227Y-100547293D01*
X84933245Y-99666639D01*
X85308198Y-98876963D01*
X85667099Y-98156347D01*
X86021962Y-97482873D01*
X86384801Y-96834624D01*
X86767629Y-96189682D01*
X87182460Y-95526130D01*
X87641308Y-94822051D01*
X88156187Y-94055527D01*
X88739110Y-93204640D01*
X88936145Y-92919391D01*
X89243608Y-92487599D01*
X89568648Y-92052471D01*
X89877156Y-91658379D01*
X90135023Y-91349698D01*
X90188909Y-91289623D01*
X90995202Y-90522320D01*
X91937364Y-89833525D01*
X93019427Y-89221148D01*
X94245420Y-88683101D01*
X95619372Y-88217292D01*
X96654624Y-87937194D01*
X97110981Y-87828081D01*
X97448088Y-87758663D01*
X97710084Y-87724166D01*
X97941110Y-87719817D01*
X98185306Y-87740841D01*
X98314209Y-87757719D01*
X98645196Y-87818280D01*
X98933830Y-87896733D01*
X99112372Y-87973346D01*
X99315389Y-88073031D01*
X99466788Y-88106850D01*
X99636987Y-88149583D01*
X99857756Y-88254065D01*
X99892043Y-88274296D01*
X99998955Y-88329570D01*
X100132461Y-88373445D01*
X100315857Y-88408439D01*
X100572436Y-88437069D01*
X100925494Y-88461854D01*
X101398327Y-88485311D01*
X102014230Y-88509960D01*
X102102705Y-88513261D01*
X102736060Y-88538023D01*
X103224600Y-88561168D01*
X103592788Y-88585429D01*
X103865087Y-88613541D01*
X104065959Y-88648237D01*
X104219867Y-88692251D01*
X104351273Y-88748318D01*
X104392370Y-88769148D01*
X104636732Y-88880460D01*
X104839960Y-88945906D01*
X104895771Y-88953200D01*
X105076802Y-89007443D01*
X105353375Y-89156587D01*
X105696991Y-89380259D01*
X106079157Y-89658082D01*
X106471376Y-89969682D01*
X106845152Y-90294685D01*
X107066731Y-90505470D01*
X107413652Y-90867515D01*
X107775914Y-91274298D01*
X108099326Y-91663798D01*
X108246893Y-91856181D01*
X108572664Y-92257360D01*
X108925451Y-92622247D01*
X109221470Y-92872442D01*
X109661916Y-93202239D01*
X110093480Y-93542132D01*
X110492033Y-93871481D01*
X110833449Y-94169646D01*
X111093599Y-94415988D01*
X111248356Y-94589866D01*
X111271180Y-94625867D01*
X111390602Y-94809294D01*
X111576370Y-95049005D01*
X111703518Y-95197520D01*
X111903698Y-95442893D01*
X112065686Y-95679059D01*
X112125191Y-95790187D01*
X112251388Y-96040502D01*
X112375677Y-96245316D01*
X112482821Y-96454838D01*
X112593044Y-96748998D01*
X112648770Y-96937794D01*
X112732941Y-97229979D01*
X112817732Y-97475979D01*
X112862506Y-97578436D01*
X112936633Y-97809839D01*
X112995564Y-98177121D01*
X113039018Y-98647491D01*
X113066718Y-99188154D01*
X113078383Y-99766315D01*
X113073733Y-100349181D01*
X113052489Y-100903957D01*
X113014372Y-101397850D01*
X112959102Y-101798065D01*
X112900488Y-102034200D01*
X112858669Y-102221800D01*
X112810508Y-102546590D01*
X112759708Y-102976724D01*
X112709976Y-103480358D01*
X112665018Y-104025646D01*
X112658696Y-104112100D01*
X112598859Y-104859758D01*
X112536887Y-105456153D01*
X112470428Y-105919357D01*
X112397129Y-106267440D01*
X112362366Y-106387963D01*
X112272304Y-106702090D01*
X112209521Y-106982445D01*
X112189074Y-107146397D01*
X112152721Y-107362929D01*
X112064198Y-107633628D01*
X112028960Y-107716688D01*
X111913204Y-108007513D01*
X111823952Y-108293175D01*
X111810146Y-108351688D01*
X111735456Y-108599119D01*
X111614546Y-108902248D01*
X111546927Y-109047323D01*
X111433481Y-109288258D01*
X111359934Y-109467321D01*
X111344267Y-109525503D01*
X111303068Y-109626488D01*
X111194176Y-109830188D01*
X111039645Y-110095728D01*
X111011286Y-110142657D01*
X110828259Y-110456144D01*
X110665912Y-110755438D01*
X110558809Y-110976767D01*
X110557381Y-110980168D01*
X110440569Y-111211531D01*
X110317920Y-111387608D01*
X110307506Y-111398532D01*
X110190003Y-111552517D01*
X110049310Y-111784729D01*
X110001102Y-111875321D01*
X109825743Y-112160448D01*
X109549914Y-112537289D01*
X109195643Y-112980645D01*
X108784958Y-113465320D01*
X108339887Y-113966114D01*
X107882456Y-114457832D01*
X107434695Y-114915275D01*
X107018630Y-115313246D01*
X106909749Y-115411534D01*
X106605034Y-115684050D01*
X106324349Y-115938086D01*
X106106930Y-116137983D01*
X106020749Y-116219444D01*
X105811013Y-116405340D01*
X105550667Y-116614153D01*
X105459934Y-116682086D01*
X105187175Y-116892889D01*
X104888584Y-117140217D01*
X104769850Y-117243994D01*
X104500094Y-117461385D01*
X104214203Y-117656244D01*
X104092517Y-117725612D01*
X103826242Y-117892178D01*
X103588720Y-118087978D01*
X103554934Y-118122757D01*
X103275125Y-118376835D01*
X102872198Y-118671994D01*
X102547435Y-118881815D01*
X102390334Y-118980281D01*
X102125520Y-119147827D01*
X101787905Y-119362260D01*
X101412404Y-119601385D01*
X101033930Y-119843010D01*
X100823665Y-119977566D01*
X100475080Y-120185773D01*
X100090322Y-120393320D01*
X99849998Y-120510176D01*
X99490679Y-120687537D01*
X99109038Y-120897621D01*
X98921076Y-121011038D01*
X98633929Y-121182081D01*
X98294444Y-121367977D01*
X97940489Y-121550000D01*
X97609930Y-121709426D01*
X97340634Y-121827529D01*
X97170469Y-121885583D01*
X97146568Y-121888534D01*
X97011375Y-121928155D01*
X96807757Y-122025854D01*
X96765273Y-122049662D01*
X96490351Y-122178318D01*
X96210103Y-122268106D01*
X96199647Y-122270352D01*
X95917006Y-122358915D01*
X95649313Y-122484015D01*
X95380782Y-122604599D01*
X95077621Y-122693843D01*
X95046789Y-122699892D01*
X94739664Y-122779018D01*
X94419326Y-122894121D01*
X94369456Y-122915907D01*
X94070928Y-123010562D01*
X93721953Y-123066097D01*
X93596196Y-123072007D01*
X93143035Y-123130139D01*
X92749530Y-123261186D01*
X92589449Y-123327613D01*
X92424916Y-123376883D01*
X92226993Y-123411938D01*
X91966738Y-123435716D01*
X91615213Y-123451160D01*
X91143477Y-123461210D01*
X90727934Y-123466590D01*
X90197869Y-123469077D01*
X89703695Y-123464986D01*
X89279228Y-123455089D01*
X88958280Y-123440159D01*
X88780600Y-123422116D01*
X88470354Y-123352664D01*
X88168980Y-123267415D01*
X88145600Y-123259682D01*
X87888463Y-123179633D01*
X87562032Y-123086484D01*
X87383600Y-123038669D01*
X87002943Y-122930281D01*
X86611693Y-122803343D01*
X86252426Y-122673336D01*
X85967713Y-122555739D01*
X85800129Y-122466033D01*
X85792632Y-122460176D01*
X85656072Y-122372441D01*
X85429099Y-122248717D01*
X85284632Y-122176185D01*
X84994885Y-122016956D01*
X84657853Y-121805623D01*
X84420267Y-121640962D01*
X84100614Y-121410922D01*
X83762181Y-121173896D01*
X83552434Y-121031076D01*
X83334029Y-120874023D01*
X83187971Y-120747489D01*
X83150267Y-120692991D01*
X83086406Y-120617642D01*
X82912855Y-120465099D01*
X82656655Y-120258052D01*
X82367100Y-120035859D01*
X82014378Y-119755152D01*
X81679715Y-119460649D01*
X81407518Y-119192883D01*
X81274524Y-119038579D01*
X80711696Y-118188452D01*
X80281884Y-117312186D01*
X79996236Y-116435659D01*
X79885506Y-115813700D01*
X79847300Y-115540007D01*
X79806038Y-115348904D01*
X79773831Y-115284747D01*
X79673993Y-115305301D01*
X79449892Y-115360251D01*
X79140739Y-115439825D01*
X78959267Y-115487722D01*
X76712371Y-116028995D01*
X74508501Y-116446972D01*
X72359560Y-116740542D01*
X70277451Y-116908591D01*
X68274078Y-116950006D01*
X66361343Y-116863676D01*
X65345521Y-116760507D01*
X63628593Y-116486225D01*
X61868439Y-116086104D01*
X60116507Y-115574699D01*
X58424249Y-114966563D01*
X57269516Y-114476006D01*
X56968004Y-114341664D01*
X56726858Y-114239920D01*
X56586186Y-114187495D01*
X56568857Y-114183867D01*
X56479941Y-114232616D01*
X56291495Y-114363248D01*
X56036596Y-114552338D01*
X55895571Y-114660700D01*
X55098985Y-115219499D01*
X54156066Y-115774926D01*
X53089549Y-116314152D01*
X52463834Y-116596867D01*
X51999347Y-116802020D01*
X51664273Y-116960997D01*
X51430822Y-117090561D01*
X51271206Y-117207474D01*
X51157635Y-117328497D01*
X51090127Y-117425460D01*
X50676190Y-117973819D01*
X50137746Y-118503928D01*
X49622267Y-118915738D01*
X49314676Y-119153202D01*
X49038372Y-119383427D01*
X48837952Y-119568636D01*
X48789241Y-119621392D01*
X48630540Y-119777697D01*
X48499158Y-119854815D01*
X48484863Y-119856534D01*
X48354671Y-119914574D01*
X48217222Y-120036234D01*
X48026709Y-120207695D01*
X47734102Y-120422874D01*
X47372389Y-120662376D01*
X46974556Y-120906805D01*
X46573591Y-121136766D01*
X46202480Y-121332861D01*
X45894211Y-121475696D01*
X45681771Y-121545875D01*
X45642946Y-121549867D01*
X45475058Y-121596228D01*
X45330752Y-121676312D01*
X45157239Y-121759474D01*
X44879081Y-121853930D01*
X44571080Y-121935647D01*
X44206757Y-122026491D01*
X43846073Y-122128080D01*
X43610934Y-122203540D01*
X43435625Y-122252570D01*
X43208508Y-122288970D01*
X42904683Y-122314352D01*
X42499248Y-122330326D01*
X41967305Y-122338504D01*
X41494267Y-122340466D01*
X40890888Y-122339401D01*
X40430779Y-122333410D01*
X40087901Y-122320563D01*
X39836217Y-122298935D01*
X39649690Y-122266598D01*
X39502282Y-122221624D01*
X39419934Y-122186925D01*
X39156091Y-122097934D01*
X38804138Y-122020122D01*
X38479428Y-121974799D01*
X38058113Y-121908684D01*
X37682563Y-121802361D01*
X37524321Y-121734001D01*
X37257648Y-121620669D01*
X37009616Y-121555803D01*
X36940153Y-121549867D01*
X36731511Y-121510212D01*
X36458559Y-121409247D01*
X36311638Y-121338200D01*
X36056617Y-121216912D01*
X35842382Y-121139840D01*
X35761978Y-121125514D01*
X35601890Y-121084460D01*
X35367514Y-120981364D01*
X35241458Y-120913847D01*
X35003782Y-120790912D01*
X34813460Y-120715017D01*
X34753385Y-120703200D01*
X34629499Y-120665315D01*
X34397550Y-120563803D01*
X34097716Y-120416875D01*
X33936528Y-120332936D01*
X33583459Y-120145559D01*
X33137855Y-119909236D01*
X32656833Y-119654250D01*
X32198353Y-119411334D01*
X31806800Y-119200730D01*
X31460443Y-119008476D01*
X31191535Y-118852904D01*
X31032329Y-118752347D01*
X31013020Y-118737590D01*
X30855526Y-118624322D01*
X30618505Y-118474801D01*
X30487497Y-118397967D01*
X30230422Y-118234598D01*
X30013908Y-118068495D01*
X29945208Y-118002642D01*
X29780399Y-117870654D01*
X29646699Y-117824534D01*
X29508033Y-117773086D01*
X29277626Y-117635549D01*
X28991358Y-117437131D01*
X28685106Y-117203040D01*
X28394750Y-116958485D01*
X28328600Y-116898436D01*
X28135522Y-116736919D01*
X27974843Y-116630390D01*
X27947600Y-116618257D01*
X27834285Y-116548587D01*
X27623310Y-116395040D01*
X27346422Y-116182954D01*
X27035368Y-115937664D01*
X26721894Y-115684509D01*
X26437747Y-115448827D01*
X26214673Y-115255953D01*
X26084437Y-115131246D01*
X25953099Y-115007507D01*
X25734475Y-114823950D01*
X25491770Y-114632616D01*
X25110340Y-114313436D01*
X24661737Y-113893377D01*
X24180216Y-113407157D01*
X23700035Y-112889492D01*
X23255448Y-112375099D01*
X23211003Y-112321200D01*
X22949510Y-112003526D01*
X22695718Y-111697034D01*
X22490788Y-111451369D01*
X22429691Y-111378862D01*
X22174224Y-111038903D01*
X21886757Y-110580950D01*
X21555538Y-109986043D01*
X21491898Y-109865867D01*
X21319255Y-109553407D01*
X21130554Y-109233913D01*
X21075838Y-109146200D01*
X20905998Y-108852300D01*
X20715548Y-108480810D01*
X20526677Y-108080079D01*
X20361577Y-107698456D01*
X20242437Y-107384291D01*
X20199765Y-107237396D01*
X20127079Y-106984491D01*
X20019833Y-106689997D01*
X19990160Y-106618538D01*
X19889398Y-106319329D01*
X19806677Y-105963014D01*
X19781716Y-105803983D01*
X19737972Y-105530492D01*
X19687313Y-105324035D01*
X19656498Y-105253650D01*
X19602643Y-105157950D01*
X19555908Y-105007234D01*
X19513579Y-104781297D01*
X19472940Y-104459931D01*
X19431272Y-104022931D01*
X19385862Y-103450090D01*
X19353178Y-102997117D01*
X19310231Y-102455078D01*
X19261093Y-101947428D01*
X19209667Y-101507408D01*
X19159860Y-101168259D01*
X19115574Y-100963223D01*
X19113522Y-100956933D01*
X19034273Y-100618286D01*
X18976682Y-100162101D01*
X18940249Y-99622163D01*
X18924471Y-99032253D01*
X18926117Y-98804107D01*
X20242934Y-98804107D01*
X20247385Y-99414349D01*
X20261949Y-99881104D01*
X20288440Y-100230016D01*
X20328671Y-100486727D01*
X20373258Y-100646624D01*
X20425643Y-100868216D01*
X20481420Y-101235100D01*
X20537734Y-101723349D01*
X20591733Y-102309036D01*
X20627776Y-102780469D01*
X20669490Y-103319607D01*
X20714473Y-103809265D01*
X20759570Y-104221315D01*
X20801628Y-104527633D01*
X20837493Y-104700090D01*
X20845134Y-104719015D01*
X20907233Y-104887817D01*
X20981144Y-105164398D01*
X21051058Y-105489471D01*
X21052229Y-105495648D01*
X21232233Y-106239900D01*
X21482004Y-106983881D01*
X21681944Y-107452867D01*
X21793079Y-107691328D01*
X21877121Y-107879278D01*
X21893534Y-107918534D01*
X21967019Y-108065214D01*
X22092662Y-108286030D01*
X22151733Y-108384200D01*
X22327027Y-108688237D01*
X22497864Y-109011180D01*
X22528639Y-109073621D01*
X22654959Y-109294712D01*
X22775535Y-109442621D01*
X22815015Y-109469217D01*
X22909390Y-109570618D01*
X23016227Y-109777048D01*
X23064181Y-109902365D01*
X23253174Y-110268793D01*
X23560713Y-110644344D01*
X23608592Y-110692102D01*
X23886816Y-110992131D01*
X24166318Y-111339079D01*
X24321257Y-111559200D01*
X24467177Y-111753785D01*
X24693279Y-112017996D01*
X24976259Y-112328292D01*
X25292810Y-112661131D01*
X25619628Y-112992973D01*
X25933407Y-113300277D01*
X26210840Y-113559500D01*
X26428624Y-113747103D01*
X26563451Y-113839544D01*
X26584381Y-113845200D01*
X26675852Y-113899168D01*
X26866815Y-114047391D01*
X27132264Y-114269345D01*
X27447194Y-114544507D01*
X27564423Y-114649534D01*
X27893009Y-114938935D01*
X28183661Y-115182111D01*
X28410588Y-115358429D01*
X28548004Y-115447260D01*
X28569848Y-115453867D01*
X28686436Y-115505477D01*
X28888078Y-115641500D01*
X29133377Y-115833724D01*
X29159996Y-115856034D01*
X29563536Y-116191882D01*
X29857920Y-116425419D01*
X30059093Y-116568450D01*
X30183002Y-116632781D01*
X30217814Y-116639200D01*
X30324756Y-116689816D01*
X30511617Y-116820312D01*
X30668658Y-116945329D01*
X30976067Y-117167647D01*
X31328667Y-117375022D01*
X31471946Y-117444665D01*
X31726646Y-117573239D01*
X31916866Y-117698352D01*
X31981378Y-117764118D01*
X32084555Y-117852823D01*
X32305095Y-117991570D01*
X32606915Y-118158789D01*
X32842695Y-118279000D01*
X33200727Y-118459615D01*
X33524273Y-118630349D01*
X33768100Y-118766964D01*
X33858695Y-118823417D01*
X34100118Y-118967158D01*
X34431487Y-119138193D01*
X34786108Y-119304548D01*
X35097287Y-119434249D01*
X35223274Y-119477639D01*
X35421216Y-119554230D01*
X35684903Y-119677243D01*
X35807384Y-119740161D01*
X36053919Y-119857481D01*
X36255988Y-119929916D01*
X36322298Y-119941200D01*
X36483236Y-119979210D01*
X36706394Y-120073074D01*
X36754187Y-120097499D01*
X37049038Y-120219835D01*
X37360444Y-120302771D01*
X37375753Y-120305301D01*
X37670113Y-120381234D01*
X37979839Y-120502894D01*
X38034527Y-120530002D01*
X38476141Y-120673944D01*
X38851041Y-120706749D01*
X39326157Y-120760254D01*
X39631600Y-120874360D01*
X39747762Y-120931228D01*
X39878038Y-120972510D01*
X40048864Y-121000075D01*
X40286677Y-121015789D01*
X40617913Y-121021520D01*
X41069008Y-121019136D01*
X41578934Y-121011923D01*
X42243029Y-120996929D01*
X42765992Y-120974328D01*
X43175941Y-120941865D01*
X43500992Y-120897284D01*
X43769262Y-120838329D01*
X43780267Y-120835352D01*
X44122780Y-120730290D01*
X44448699Y-120611177D01*
X44643707Y-120524907D01*
X44865098Y-120423528D01*
X45031829Y-120368072D01*
X45060350Y-120364534D01*
X45208751Y-120324782D01*
X45456378Y-120220954D01*
X45757310Y-120076184D01*
X46065626Y-119913611D01*
X46335406Y-119756371D01*
X46517263Y-119630477D01*
X46701509Y-119498926D01*
X46842045Y-119432972D01*
X46855930Y-119431269D01*
X46957926Y-119377491D01*
X47153554Y-119234037D01*
X47411133Y-119025122D01*
X47603525Y-118859769D01*
X47973646Y-118544999D01*
X48389796Y-118207098D01*
X48778274Y-117905516D01*
X48883537Y-117827247D01*
X49467147Y-117334252D01*
X49943160Y-116776858D01*
X50352430Y-116106218D01*
X50399647Y-116014529D01*
X50638637Y-115431883D01*
X50795307Y-114777328D01*
X50875772Y-114019069D01*
X50890102Y-113464200D01*
X50886121Y-112930941D01*
X50869477Y-112461944D01*
X50834553Y-112029876D01*
X50775731Y-111607402D01*
X50687397Y-111167187D01*
X50563931Y-110681899D01*
X50399718Y-110124202D01*
X50189140Y-109466763D01*
X49926582Y-108682247D01*
X49878106Y-108539376D01*
X49657764Y-107898304D01*
X49442513Y-107285898D01*
X49241475Y-106727083D01*
X49063774Y-106246782D01*
X48918532Y-105869922D01*
X48814874Y-105621426D01*
X48793452Y-105576042D01*
X48702071Y-105382639D01*
X48553061Y-105055516D01*
X48356064Y-104616350D01*
X48120721Y-104086819D01*
X47856673Y-103488602D01*
X47573561Y-102843376D01*
X47331238Y-102288200D01*
X46760202Y-100991191D01*
X46235229Y-99832132D01*
X45744912Y-98789687D01*
X45277847Y-97842522D01*
X44822626Y-96969303D01*
X44367845Y-96148695D01*
X43902099Y-95359363D01*
X43413982Y-94579974D01*
X42892088Y-93789193D01*
X42420186Y-93101867D01*
X41916001Y-92390694D01*
X41480182Y-91804795D01*
X41095300Y-91323454D01*
X40743924Y-90925956D01*
X40408626Y-90591584D01*
X40071976Y-90299623D01*
X40042541Y-90275939D01*
X39177180Y-89668871D01*
X38183496Y-89131907D01*
X37052195Y-88660858D01*
X35773985Y-88251536D01*
X35231419Y-88107161D01*
X34745668Y-87987141D01*
X34390417Y-87909071D01*
X34132806Y-87870319D01*
X33939975Y-87868252D01*
X33779064Y-87900239D01*
X33617214Y-87963647D01*
X33590729Y-87975750D01*
X33328572Y-88088517D01*
X33030644Y-88205699D01*
X32985267Y-88222457D01*
X32669899Y-88338213D01*
X32341336Y-88459881D01*
X32300819Y-88474983D01*
X32098853Y-88527099D01*
X31786301Y-88571086D01*
X31347970Y-88608277D01*
X30768671Y-88640000D01*
X30141819Y-88664068D01*
X29517966Y-88686670D01*
X29039257Y-88709472D01*
X28681517Y-88734961D01*
X28420572Y-88765624D01*
X28232249Y-88803949D01*
X28092373Y-88852424D01*
X28033521Y-88880993D01*
X27790447Y-88984639D01*
X27574575Y-89036496D01*
X27546687Y-89037867D01*
X27397290Y-89064564D01*
X27354933Y-89109078D01*
X27286619Y-89185526D01*
X27110651Y-89307163D01*
X26945616Y-89403067D01*
X26615032Y-89625895D01*
X26217272Y-89962987D01*
X25779021Y-90387664D01*
X25326962Y-90873247D01*
X24887779Y-91393060D01*
X24652557Y-91695611D01*
X24301968Y-92136168D01*
X23989049Y-92466125D01*
X23673962Y-92725437D01*
X23523257Y-92828170D01*
X23226476Y-93044181D01*
X22871628Y-93339717D01*
X22485925Y-93687904D01*
X22096583Y-94061868D01*
X21730814Y-94434734D01*
X21415832Y-94779627D01*
X21178849Y-95069672D01*
X21050797Y-95269838D01*
X20911099Y-95540858D01*
X20764152Y-95787190D01*
X20739029Y-95824270D01*
X20627050Y-96031699D01*
X20581600Y-96208205D01*
X20554393Y-96371889D01*
X20484059Y-96629816D01*
X20412267Y-96849186D01*
X20348293Y-97054267D01*
X20302384Y-97270442D01*
X20271718Y-97530273D01*
X20253475Y-97866325D01*
X20244835Y-98311159D01*
X20242934Y-98804107D01*
X18926117Y-98804107D01*
X18928846Y-98426157D01*
X18952872Y-97837658D01*
X18996049Y-97300538D01*
X19057873Y-96848583D01*
X19137843Y-96515574D01*
X19181056Y-96410720D01*
X19274252Y-96167536D01*
X19311600Y-95949437D01*
X19363765Y-95709112D01*
X19507529Y-95371174D01*
X19723797Y-94966149D01*
X19993474Y-94524567D01*
X20297464Y-94076955D01*
X20616672Y-93653841D01*
X20932003Y-93285753D01*
X21061003Y-93152631D01*
X21416040Y-92825622D01*
X21856370Y-92453333D01*
X22324865Y-92082082D01*
X22764395Y-91758186D01*
X22874935Y-91681989D01*
X23117498Y-91478144D01*
X23406747Y-91174031D01*
X23701375Y-90814060D01*
X23777658Y-90711443D01*
X24060964Y-90350535D01*
X24407835Y-89953087D01*
X24790962Y-89546029D01*
X25183033Y-89156294D01*
X25556740Y-88810812D01*
X25884772Y-88536515D01*
X26139820Y-88360333D01*
X26186596Y-88335898D01*
X26410496Y-88210125D01*
X26574824Y-88084130D01*
X26591415Y-88066030D01*
X26733084Y-87964908D01*
X26968662Y-87857038D01*
X27089912Y-87814680D01*
X27414922Y-87708752D01*
X27742157Y-87596301D01*
X27820985Y-87567989D01*
X28051436Y-87513898D01*
X28429096Y-87467229D01*
X28960535Y-87427407D01*
X29652319Y-87393861D01*
X29937652Y-87383355D01*
X30557715Y-87359991D01*
X31033187Y-87336254D01*
X31388792Y-87309552D01*
X31649257Y-87277293D01*
X31839310Y-87236885D01*
X31983676Y-87185738D01*
X32029394Y-87164112D01*
X32248366Y-87064324D01*
X32409278Y-87009497D01*
X32436206Y-87005867D01*
X32561727Y-86972796D01*
X32780050Y-86888342D01*
X32926412Y-86824196D01*
X33470373Y-86653363D01*
X34093199Y-86606291D01*
X34809591Y-86682686D01*
X35250100Y-86777544D01*
X35595293Y-86857515D01*
X35869604Y-86910278D01*
X36038528Y-86929842D01*
X36075600Y-86920856D01*
X36034126Y-86825120D01*
X35904354Y-86641052D01*
X35678263Y-86358371D01*
X35347831Y-85966793D01*
X35173245Y-85764196D01*
X34867806Y-85401644D01*
X34652379Y-85109262D01*
X34500161Y-84834628D01*
X34384351Y-84525321D01*
X34278146Y-84128922D01*
X34228042Y-83915534D01*
X33987566Y-82522150D01*
X33912113Y-81159105D01*
X33999832Y-79832497D01*
X34248871Y-78548425D01*
X34657379Y-77312988D01*
X35223503Y-76132285D01*
X35945392Y-75012416D01*
X36821195Y-73959479D01*
X37436680Y-73346658D01*
X37973342Y-72875765D01*
X38518818Y-72447300D01*
X39041087Y-72083908D01*
X39508125Y-71808235D01*
X39804974Y-71671876D01*
X40365862Y-71510719D01*
X41040468Y-71399195D01*
X41780045Y-71339195D01*
X42535847Y-71332612D01*
X43259127Y-71381337D01*
G37*
%TD*%
M02*
