<?xml version="1.0" encoding="UTF-8" standalone="no"?>
<!-- Created with Inkscape (http://www.inkscape.org/) -->

<svg
   width="130.0mm"
   height="130.0mm"
   viewBox="0 0 130.0 130.0"
   version="1.1"
   id="svg5"
   inkscape:version="1.1 (c68e22c387, 2021-05-23)"
   sodipodi:docname="Robi_IIb.svg"
   xmlns:inkscape="http://www.inkscape.org/namespaces/inkscape"
   xmlns:sodipodi="http://sodipodi.sourceforge.net/DTD/sodipodi-0.dtd"
   xmlns="http://www.w3.org/2000/svg"
   xmlns:svg="http://www.w3.org/2000/svg">
  <sodipodi:namedview
     id="namedview7"
     pagecolor="#ffffff"
     bordercolor="#666666"
     borderopacity="1.0"
     inkscape:pageshadow="2"
     inkscape:pageopacity="0.0"
     inkscape:pagecheckerboard="0"
     inkscape:document-units="mm"
     showgrid="false"
     inkscape:snap-global="false"
     inkscape:zoom="0.94867185"
     inkscape:cx="4.7434737"
     inkscape:cy="240.86305"
     inkscape:window-width="1920"
     inkscape:window-height="1017"
     inkscape:window-x="-8"
     inkscape:window-y="-8"
     inkscape:window-maximized="1"
     inkscape:current-layer="g17386"
     borderlayer="true"
     showguides="false">
    <inkscape:grid
       spacingx="2.54"
       spacingy="2.54"
       empspacing="1"
       type="xygrid"
       units="mm"
       id="grid17368" />
    <inkscape:grid
       spacingx="2.54"
       spacingy="2.54"
       empspacing="1"
       type="xygrid"
       units="mm"
       id="grid17429" />
  </sodipodi:namedview>
  <defs
     id="defs2" />
  <g
     inkscape:label="Ebene 1"
     inkscape:groupmode="layer"
     id="layer1">
    <path
       d="M 758.60444,872.3951 Z"
       style="fill:none;stroke:#000000;stroke-width:0.0714372;stroke-linecap:round;stroke-linejoin:round;stroke-miterlimit:4;stroke-dasharray:none;stroke-opacity:1"
       id="path3765" />
    <path
       d="M 756.37325,872.3951 Z"
       style="fill:none;stroke:#000000;stroke-width:0.0714372;stroke-linecap:round;stroke-linejoin:round;stroke-miterlimit:4;stroke-dasharray:none;stroke-opacity:1"
       id="path3765-8" />
    <path
       d="M 756.37325,872.3951 Z"
       style="fill:none;stroke:#000000;stroke-width:0.0714372;stroke-linecap:round;stroke-linejoin:round;stroke-miterlimit:4;stroke-dasharray:none;stroke-opacity:1"
       id="path3765-86" />
  </g>
  <g
     inkscape:label="[fixed] BG"
     inkscape:groupmode="layer"
     sodipodi:insensitive="true"
     id="g17382">
    <rect
       x="0"
       y="0"
       width="120.0"
       height="120.0"
       style="fill:#FFFFFF;fill-opacity:1;stroke:none"
       id="rect17380" />
  </g>
  <g
     inkscape:label="Edge.Cuts"
     inkscape:groupmode="layer"
     id="g17384"
     style="display:inline"
     sodipodi:insensitive="true">
    <path
       id="path1292"
       style="fill:none;stroke:#000000;stroke-width:0.0738938;stroke-linecap:round;stroke-linejoin:round"
       d="M 66.6185 8.68482 L 66.6451 8.15804 L 66.7232 7.64647 L 66.8501 7.15271 L 67.0234 6.67934 L 67.2403 6.22897 L 67.4984 5.80417 L 67.795 5.40753 L 68.1275 5.04165 L 68.4934 4.70912 L 68.8901 4.41252 L 69.3149 4.15444 L 69.7652 3.93749 L 70.2386 3.76423 L 70.7324 3.63727 L 71.2439 3.5592 L 71.7707 3.5326 L 72.2975 3.5592 L 72.8091 3.63727 L 73.3028 3.76423 L 73.7762 3.93749 L 74.2266 4.15444 L 74.6514 4.41252 L 75.048 4.70912 L 75.4139 5.04165 L 75.7464 5.40753 L 76.043 5.80417 L 76.3011 6.22897 L 76.518 6.67934 L 76.6913 7.15271 L 76.8183 7.64647 L 76.8963 8.15804 L 76.9229 8.68482 L 76.9062 9.10319 L 76.8568 9.51238 L 76.7761 9.91113 L 76.6654 10.2982 L 76.526 10.6723 L 76.359 11.0322 L 76.166 11.3766 L 75.948 11.7042 L 75.7065 12.0139 L 75.4427 12.3043 L 75.1579 12.5742 L 74.8534 12.8223 L 74.5304 13.0474 L 74.1904 13.2482 L 73.8345 13.4234 L 73.4641 13.5719 L 75.2696 24.6664 L 80.3243 24.7562 L 81.1917 24.7644 L 81.6506 24.7578 L 82.2248 24.7438 L 83.4378 24.7296 L 85.8135 24.7227 L 89.8754 24.7301 L 94.3422 24.7898 L 94.4027 28.4846 L 94.4632 32.1794 L 96.5354 32.1794 L 97.3675 32.19 L 98.1014 32.2187 L 98.6575 32.2613 L 98.9565 32.3133 L 99.011 32.344 L 99.0596 32.396 L 99.1026 32.4753 L 99.1404 32.5877 L 99.2017 32.9361 L 99.246 33.4889 L 99.2759 34.2938 L 99.294 35.3987 L 99.3054 38.6993 L 99.3054 44.9513 L 98.037 45.0174 L 97.3138 45.0673 L 97.0882 45.1051 L 96.9345 45.1623 L 96.8385 45.2469 L 96.786 45.3669 L 96.7628 45.5304 L 96.7549 45.7453 L 96.6998 50.7612 L 96.6585 55.1154 L 87.4491 55.173 L 78.2397 55.2306 L 78.1719 56.168 L 78.1465 56.6986 L 78.1615 56.8647 L 78.2034 56.9781 L 78.2787 57.0489 L 78.3936 57.0871 L 78.5545 57.1026 L 78.7679 57.1055 L 78.9862 57.1085 L 79.1513 57.1281 L 79.2718 57.1801 L 79.3178 57.2232 L 79.3559 57.2805 L 79.4121 57.4452 L 79.4488 57.6901 L 79.4975 58.4842 L 79.5632 59.8628 L 81.1073 59.9231 L 81.614 59.9407 L 82.0092 59.9423 L 82.3216 59.9187 L 82.5799 59.8605 L 82.8127 59.7584 L 83.0486 59.6031 L 83.3161 59.3852 L 83.644 59.0953 L 84.2249 58.6026 L 84.7746 58.1975 L 85.0432 58.0258 L 85.3105 57.8733 L 85.5786 57.7394 L 85.8497 57.6232 L 86.126 57.5237 L 86.4097 57.4402 L 86.7028 57.3718 L 87.0076 57.3177 L 87.6608 57.2488 L 88.3866 57.2266 L 88.901 57.2309 L 89.3354 57.2477 L 89.7083 57.2808 L 90.0381 57.334 L 90.3434 57.4111 L 90.6424 57.5158 L 90.9536 57.652 L 91.2956 57.8234 L 91.7563 58.0815 L 92.1877 58.3582 L 92.59 58.6538 L 92.9634 58.9689 L 93.3082 59.3038 L 93.6247 59.6589 L 93.913 60.0346 L 94.1735 60.4314 L 94.4064 60.8497 L 94.612 61.2898 L 94.7904 61.7522 L 94.942 62.2373 L 95.0669 62.7455 L 95.1655 63.2772 L 95.238 63.8329 L 95.2846 64.4129 L 95.3251 65.0553 L 95.3728 65.5749 L 95.4401 66.0113 L 95.5391 66.4038 L 95.6821 66.7919 L 95.8812 67.215 L 96.1489 67.7126 L 96.4971 68.3241 L 97.3327 69.7929 L 98.0685 71.1246 L 98.7011 72.3121 L 99.2267 73.3479 L 99.6418 74.2248 L 99.9428 74.9352 L 100.126 75.472 L 100.172 75.673 L 100.188 75.8278 L 100.212 76.0307 L 100.282 76.3044 L 100.397 76.644 L 100.554 77.0445 L 100.988 78.0084 L 101.567 79.1566 L 102.281 80.4705 L 102.565 80.9484 L 102.814 81.326 L 103.039 81.6179 L 103.248 81.8383 L 103.454 82.0017 L 103.664 82.1224 L 104.023 82.3296 L 104.467 82.6385 L 104.942 83.0073 L 105.389 83.3944 L 106.394 84.321 L 107.427 84.0455 L 107.927 83.8939 L 108.527 83.6848 L 109.15 83.4459 L 109.721 83.2048 L 110.209 82.9886 L 110.417 82.9078 L 110.613 82.8483 L 110.807 82.8123 L 111.007 82.8021 L 111.223 82.8199 L 111.462 82.8681 L 111.736 82.9489 L 112.051 83.0646 L 112.847 83.4096 L 113.92 83.9215 L 115.345 84.6184 L 116.074 84.9826 L 116.699 85.3125 L 117.24 85.6216 L 117.717 85.9235 L 118.151 86.2313 L 118.561 86.5587 L 118.967 86.919 L 119.389 87.3256 L 119.93 87.8862 L 120.368 88.4017 L 120.552 88.6516 L 120.715 88.901 L 120.858 89.1535 L 120.984 89.4126 L 121.093 89.682 L 121.187 89.9652 L 121.269 90.2658 L 121.339 90.5874 L 121.45 91.308 L 121.535 92.1555 L 121.65 93.5663 L 121.065 93.4193 L 120.616 93.2567 L 119.825 92.9226 L 118.806 92.4656 L 117.668 91.9345 L 115.389 90.8648 L 114.601 90.5123 L 114.007 90.2658 L 113.579 90.1138 L 113.285 90.0447 L 113.179 90.0375 L 113.096 90.0467 L 113.032 90.0708 L 112.983 90.1084 L 112.864 90.2879 L 112.705 90.6047 L 112.337 91.4747 L 112.016 92.3688 L 111.916 92.7156 L 111.879 92.9373 L 111.899 92.9787 L 111.959 93.0393 L 112.188 93.2135 L 112.551 93.4508 L 113.033 93.7423 L 114.294 94.4525 L 115.849 95.2728 L 117.391 96.0746 L 118.654 96.754 L 119.507 97.2393 L 119.739 97.3868 L 119.82 97.4588 L 119.805 97.5314 L 119.762 97.6176 L 119.6 97.8243 L 119.35 98.0657 L 119.031 98.3287 L 118.658 98.5999 L 118.25 98.8663 L 117.822 99.1145 L 117.394 99.3314 L 116.966 99.5159 L 116.547 99.6667 L 116.13 99.7828 L 115.711 99.8634 L 115.284 99.9073 L 114.843 99.9137 L 114.385 99.8816 L 113.903 99.81 L 113.392 99.6979 L 112.847 99.5444 L 112.263 99.3485 L 111.634 99.1093 L 110.956 98.8257 L 110.223 98.4968 L 108.57 97.6993 L 107.64 97.2292 L 106.918 96.8461 L 106.373 96.5246 L 105.976 96.2395 L 105.822 96.1027 L 105.694 95.9654 L 105.588 95.8245 L 105.498 95.677 L 105.357 95.3489 L 105.24 94.9559 L 105.113 94.5259 L 104.944 94.0222 L 104.755 93.5076 L 104.569 93.0447 L 104.138 92.0359 L 102.293 92.0521 L 101.26 92.0434 L 100.891 92.0154 L 100.584 91.9639 L 100.317 91.883 L 100.062 91.7668 L 99.7953 91.6094 L 99.4908 91.4051 L 99.2333 91.214 L 98.9913 91.0082 L 98.7651 90.7882 L 98.5548 90.5542 L 98.3605 90.3065 L 98.1823 90.0455 L 98.0204 89.7714 L 97.875 89.4845 L 97.7461 89.1851 L 97.634 88.8736 L 97.5388 88.5502 L 97.4605 88.2152 L 97.3994 87.869 L 97.3555 87.5118 L 97.3291 87.144 L 97.3203 86.7658 L 97.316 86.2468 L 97.2924 85.8176 L 97.2339 85.433 L 97.1245 85.048 L 96.9486 84.6173 L 96.6903 84.0959 L 95.8634 82.6 L 95.1864 81.4448 L 94.8952 80.9851 L 94.6344 80.6023 L 94.4032 80.2953 L 94.2007 80.0629 L 94.026 79.9039 L 93.8783 79.817 L 93.6685 79.7219 L 93.4686 79.5778 L 93.2498 79.3415 L 92.9835 78.9693 L 92.6411 78.4177 L 92.1938 77.6433 L 90.87 75.2519 L 90.2353 74.1181 L 89.6907 73.1891 L 89.2941 72.5608 L 89.1694 72.3894 L 89.1035 72.3292 L 89.0867 72.3893 L 89.0703 72.5666 L 89.0393 73.2483 L 88.9867 75.7537 L 88.9511 79.4624 L 88.9381 83.9918 L 88.9381 95.6578 L 87.9739 95.8024 L 87.0098 95.947 L 87.4225 96.7564 L 87.5827 97.1199 L 87.7139 97.5114 L 87.8026 97.8836 L 87.8352 98.1898 L 87.8027 98.4919 L 87.7136 98.8482 L 87.5808 99.2317 L 87.4168 99.6152 L 87.2344 99.9716 L 87.0462 100.274 L 86.8649 100.495 L 86.7809 100.566 L 86.7033 100.607 L 86.6511 100.643 L 86.6253 100.708 L 86.626 100.8 L 86.6533 100.922 L 86.7876 101.251 L 87.0283 101.695 L 87.1653 101.943 L 87.2842 102.191 L 87.3853 102.438 L 87.4683 102.683 L 87.5334 102.925 L 87.5805 103.165 L 87.6096 103.402 L 87.6207 103.636 L 87.6138 103.865 L 87.5889 104.09 L 87.546 104.311 L 87.4851 104.526 L 87.4062 104.735 L 87.3092 104.939 L 87.1943 105.135 L 87.0613 105.325 L 86.5081 106.051 L 87.0613 106.866 L 87.1938 107.078 L 87.3088 107.298 L 87.4061 107.525 L 87.4859 107.757 L 87.5481 107.994 L 87.5927 108.234 L 87.6198 108.476 L 87.6292 108.718 L 87.6211 108.961 L 87.5953 109.203 L 87.552 109.442 L 87.4911 109.678 L 87.4125 109.909 L 87.3164 110.135 L 87.2027 110.354 L 87.0713 110.565 L 86.5278 111.366 L 87.2148 112.471 L 87.4143 112.78 L 87.5966 113.035 L 87.7703 113.242 L 87.9439 113.408 L 88.1258 113.541 L 88.3245 113.648 L 88.5484 113.736 L 88.8061 113.812 L 89.3024 113.974 L 89.9853 114.238 L 90.7646 114.57 L 91.5503 114.931 L 92.1969 115.267 L 92.8213 115.642 L 93.4211 116.054 L 93.9936 116.498 L 94.5365 116.972 L 95.0471 117.472 L 95.523 117.996 L 95.9616 118.538 L 96.3604 119.098 L 96.7169 119.67 L 97.0286 120.252 L 97.293 120.84 L 97.5074 121.431 L 97.6696 122.022 L 97.7768 122.61 L 97.8265 123.19 L 97.8418 123.937 L 97.8248 124.17 L 97.782 124.33 L 97.7062 124.433 L 97.5904 124.495 L 97.4275 124.532 L 97.2103 124.559 L 96.7452 124.59 L 95.9467 124.62 L 93.5318 124.673 L 90.3308 124.718 L 86.7089 124.75 L 83.0313 124.768 L 79.6634 124.769 L 76.9703 124.751 L 75.3172 124.71 L 72.3945 124.559 L 72.4164 121.108 L 72.4367 119.672 L 72.476 118.314 L 72.5286 117.186 L 72.5888 116.443 L 72.6322 115.913 L 72.639 115.367 L 72.6106 114.869 L 72.5484 114.483 L 72.5169 114.321 L 72.5006 114.143 L 72.5099 113.753 L 72.57 113.334 L 72.6743 112.908 L 72.8163 112.497 L 72.9897 112.124 L 73.1878 111.809 L 73.2942 111.681 L 73.4044 111.576 L 73.5651 111.422 L 73.6052 111.356 L 73.6183 111.29 L 73.6045 111.221 L 73.5638 111.144 L 73.4014 110.944 L 73.2135 110.717 L 73.0473 110.478 L 72.9029 110.229 L 72.7805 109.97 L 72.6802 109.705 L 72.6021 109.435 L 72.5465 109.161 L 72.5134 108.886 L 72.503 108.612 L 72.5154 108.341 L 72.5509 108.073 L 72.6095 107.813 L 72.6914 107.56 L 72.7968 107.317 L 72.9257 107.086 L 73.0785 106.87 L 73.53 106.296 L 72.9423 105.094 L 72.7223 104.6 L 72.5725 104.15 L 72.5243 103.937 L 72.494 103.731 L 72.4819 103.528 L 72.4879 103.328 L 72.5122 103.13 L 72.555 102.93 L 72.6163 102.728 L 72.6964 102.522 L 72.9132 102.092 L 73.2064 101.625 L 73.7558 100.814 L 73.1856 99.8407 L 72.9684 99.4295 L 72.8054 99.0292 L 72.6967 98.6384 L 72.642 98.2557 L 72.6414 97.8798 L 72.6947 97.5094 L 72.8017 97.143 L 72.9625 96.7794 L 73.0916 96.5135 L 73.1867 96.2857 L 73.2386 96.1203 L 73.2382 96.0415 L 72.9511 96.0029 L 72.2223 95.947 L 69.8801 95.8131 L 68.6728 95.7493 L 67.7981 95.711 L 67.4724 95.709 L 67.2141 95.7226 L 67.018 95.7549 L 66.8788 95.8089 L 66.7913 95.8876 L 66.7503 95.9942 L 66.7505 96.1317 L 66.7866 96.3032 L 66.9459 96.7605 L 67.1861 97.3905 L 67.3022 97.7793 L 67.366 98.1695 L 67.378 98.558 L 67.3387 98.942 L 67.2487 99.3182 L 67.1085 99.6838 L 66.9185 100.036 L 66.6794 100.37 L 66.5473 100.537 L 66.455 100.673 L 66.4041 100.792 L 66.3962 100.907 L 66.433 101.033 L 66.5162 101.183 L 66.8285 101.611 L 66.9789 101.825 L 67.1113 102.048 L 67.2255 102.279 L 67.3215 102.517 L 67.3992 102.76 L 67.4586 103.006 L 67.4995 103.256 L 67.522 103.506 L 67.5259 103.757 L 67.5112 104.006 L 67.4777 104.252 L 67.4255 104.495 L 67.3545 104.732 L 67.2646 104.962 L 67.1556 105.184 L 67.0277 105.397 L 66.457 106.259 L 66.9238 106.853 L 67.0488 107.029 L 67.1591 107.221 L 67.2546 107.425 L 67.3352 107.642 L 67.4008 107.868 L 67.4514 108.103 L 67.4869 108.344 L 67.5071 108.589 L 67.512 108.838 L 67.5015 109.088 L 67.4755 109.338 L 67.434 109.585 L 67.3768 109.829 L 67.3038 110.067 L 67.2149 110.297 L 67.1102 110.518 L 66.6241 111.451 L 67.091 112.282 L 67.218 112.525 L 67.3198 112.762 L 67.3983 113.006 L 67.4554 113.268 L 67.4933 113.559 L 67.5139 113.891 L 67.5111 114.723 L 67.5074 115.674 L 67.5319 117.073 L 67.5802 118.732 L 67.6478 120.462 L 67.7297 122.575 L 67.7442 123.303 L 67.7401 123.847 L 67.7164 124.231 L 67.6726 124.483 L 67.6078 124.627 L 67.5672 124.667 L 67.5212 124.691 L 67.2306 124.72 L 66.5801 124.749 L 64.3853 124.801 L 61.3085 124.844 L 57.7214 124.875 L 53.9957 124.893 L 50.5031 124.895 L 47.6153 124.878 L 45.704 124.839 L 45.704 124.839 L 42.5055 124.715 L 42.4387 123.292 L 42.4241 122.858 L 42.4283 122.487 L 42.457 122.155 L 42.5156 121.839 L 42.6099 121.516 L 42.7454 121.163 L 42.9276 120.755 L 43.1622 120.27 L 43.4394 119.745 L 43.743 119.239 L 44.0728 118.752 L 44.429 118.283 L 44.8112 117.833 L 45.2196 117.402 L 45.6539 116.99 L 46.1142 116.598 L 46.6004 116.224 L 47.1123 115.869 L 47.6499 115.534 L 48.2132 115.218 L 48.802 114.921 L 49.4163 114.644 L 50.056 114.386 L 50.721 114.147 L 51.136 114.002 L 51.479 113.867 L 51.7604 113.736 L 51.9906 113.602 L 52.1799 113.457 L 52.3388 113.296 L 52.4777 113.112 L 52.607 112.896 L 52.7907 112.579 L 52.9845 112.275 L 53.1653 112.018 L 53.3101 111.842 L 53.3864 111.75 L 53.4353 111.659 L 53.4552 111.562 L 53.4451 111.452 L 53.4034 111.325 L 53.329 111.173 L 53.0764 110.772 L 52.7967 110.322 L 52.5908 109.899 L 52.5152 109.693 L 52.4578 109.491 L 52.4185 109.289 L 52.3972 109.087 L 52.3938 108.883 L 52.4082 108.675 L 52.4404 108.464 L 52.4902 108.246 L 52.6424 107.787 L 52.8642 107.287 L 53.4568 106.076 L 53.0244 105.526 L 52.795 105.19 L 52.6201 104.837 L 52.5 104.468 L 52.4349 104.086 L 52.4249 103.692 L 52.4702 103.289 L 52.571 102.879 L 52.7276 102.464 L 52.9118 102.078 L 53.098 101.74 L 53.2646 101.487 L 53.3899 101.354 L 53.4314 101.305 L 53.4441 101.227 L 53.4285 101.123 L 53.3851 100.993 L 53.2169 100.66 L 52.9437 100.24 L 52.798 100.021 L 52.6698 99.801 L 52.5591 99.5806 L 52.4659 99.3598 L 52.3902 99.1388 L 52.332 98.9178 L 52.2913 98.6968 L 52.2681 98.476 L 52.2624 98.2556 L 52.2743 98.0356 L 52.3037 97.8162 L 52.3507 97.5976 L 52.4152 97.3798 L 52.4973 97.163 L 52.597 96.9474 L 52.7143 96.733 L 52.8787 96.4402 L 52.9869 96.2074 L 53.0363 96.028 L 53.0382 95.9563 L 53.0245 95.8956 L 52.9949 95.845 L 52.949 95.8038 L 52.8072 95.7462 L 52.5966 95.7164 L 52.3148 95.7079 L 52.1332 95.7021 L 51.9897 95.6787 L 51.8781 95.6293 L 51.7922 95.5449 L 51.7256 95.4169 L 51.6721 95.2367 L 51.5795 94.6845 L 51.5513 94.2589 L 51.525 93.4367 L 51.4804 90.7957 L 51.4503 87.1488 L 51.4392 82.8832 L 51.4429 78.4964 L 51.4377 76.7622 L 51.4192 75.32 L 51.3808 74.1592 L 51.3159 73.2692 L 51.2716 72.9224 L 51.2182 72.6393 L 51.1549 72.4185 L 51.081 72.2588 L 50.9956 72.1589 L 50.8978 72.1173 L 50.787 72.1328 L 50.6622 72.2041 L 50.5227 72.3297 L 50.3676 72.5084 L 50.1961 72.7389 L 50.0074 73.0199 L 49.5753 73.7277 L 49.0645 74.6213 L 47.7813 76.9234 L 47.1343 78.0312 L 46.5582 78.9295 L 46.3113 79.2786 L 46.0996 79.5496 L 45.929 79.734 L 45.8052 79.8231 L 45.5952 79.9155 L 45.4078 80.0328 L 45.2211 80.2052 L 45.0131 80.463 L 44.7616 80.8365 L 44.4447 81.356 L 43.5265 82.954 L 43.093 83.7229 L 42.7653 84.3268 L 42.5286 84.8099 L 42.3683 85.2162 L 42.2698 85.5898 L 42.2185 85.975 L 42.1997 86.4158 L 42.1988 86.9563 L 42.1906 87.4075 L 42.1607 87.8352 L 42.1085 88.2405 L 42.0332 88.6244 L 41.9341 88.988 L 41.8107 89.3324 L 41.6622 89.6588 L 41.488 89.9681 L 41.2874 90.2616 L 41.0596 90.5401 L 40.8041 90.805 L 40.5202 91.0571 L 40.2071 91.2977 L 39.8643 91.5278 L 39.4909 91.7484 L 39.0865 91.9608 L 38.3648 92.3267 L 38.0236 92.5148 L 38.0167 92.7141 L 38.0499 93.2112 L 38.2118 94.7992 L 38.4702 97.0219 L 37.4186 98.4956 L 36.7457 99.4266 L 36.1175 100.269 L 35.5289 101.027 L 34.9751 101.705 L 34.4511 102.306 L 33.9519 102.834 L 33.4727 103.293 L 33.0085 103.687 L 32.5543 104.02 L 32.1052 104.296 L 31.6563 104.519 L 31.2026 104.693 L 30.7392 104.821 L 30.2612 104.908 L 29.7636 104.957 L 29.2415 104.972 L 28.6629 104.961 L 28.1372 104.926 L 27.672 104.871 L 27.2747 104.796 L 26.9527 104.705 L 26.7134 104.597 L 26.6272 104.538 L 26.5644 104.475 L 26.5261 104.41 L 26.5131 104.342 L 26.5649 104.23 L 26.7133 103.99 L 27.2583 103.179 L 28.0649 102.031 L 29.0499 100.666 L 30.0348 99.2994 L 30.8414 98.1462 L 31.3864 97.3282 L 31.5348 97.0828 L 31.5866 96.9668 L 31.5617 96.903 L 31.4913 96.8005 L 31.2381 96.5029 L 30.876 96.1212 L 30.4538 95.7027 L 30.0205 95.2947 L 29.6251 94.9444 L 29.3165 94.6992 L 29.21 94.6308 L 29.1435 94.6063 L 29.0671 94.649 L 28.917 94.796 L 28.3061 95.5126 L 27.1314 96.9751 L 25.2134 99.4027 L 24.564 100.195 L 23.9837 100.844 L 23.7393 101.093 L 23.5359 101.282 L 23.3815 101.401 L 23.2839 101.443 L 23.2111 101.43 L 23.1361 101.393 L 23.0591 101.331 L 22.9802 101.244 L 22.8174 101 L 22.649 100.663 L 22.4764 100.236 L 22.301 99.7233 L 22.124 99.1268 L 21.9469 98.4499 L 21.841 98.0072 L 21.7674 97.645 L 21.7274 97.334 L 21.7222 97.0449 L 21.7531 96.7484 L 21.8215 96.4154 L 22.0757 95.5223 L 22.2976 94.8879 L 22.591 94.2172 L 22.9609 93.5019 L 23.4126 92.7334 L 23.9514 91.9033 L 24.5825 91.0033 L 25.311 90.0247 L 26.1424 88.9593 L 27.5628 87.1738 L 29.5195 87.0459 L 30.2944 86.9847 L 30.9532 86.9093 L 31.5 86.8185 L 31.9386 86.7111 L 32.273 86.586 L 32.4023 86.5164 L 32.507 86.442 L 32.5876 86.3625 L 32.6445 86.2779 L 32.6783 86.188 L 32.6895 86.0926 L 32.7015 85.998 L 32.7358 85.8671 L 32.8619 85.5204 L 33.0486 85.0997 L 33.2765 84.6524 L 33.5079 84.2609 L 33.7603 83.8997 L 34.0373 83.5654 L 34.3425 83.2549 L 34.6796 82.9646 L 35.0519 82.6914 L 35.4631 82.4318 L 35.9167 82.1826 L 36.0692 82.0906 L 36.2281 81.9696 L 36.3896 81.8241 L 36.5497 81.6585 L 36.8498 81.2842 L 36.9818 81.0842 L 37.0966 80.8816 L 38.5801 78.1065 L 39.0105 77.2703 L 39.1717 76.9184 L 39.2973 76.6098 L 39.3875 76.3437 L 39.4425 76.1197 L 39.4625 75.9369 L 39.4479 75.7948 L 39.4477 75.663 L 39.4934 75.4558 L 39.5821 75.179 L 39.7109 74.8384 L 40.0778 73.9887 L 40.5712 72.9533 L 41.1682 71.7782 L 41.8461 70.5097 L 42.582 69.1942 L 43.3531 67.8778 L 43.6575 67.3636 L 43.8909 66.9427 L 44.0628 66.5836 L 44.1826 66.2545 L 44.2598 65.9238 L 44.3039 65.5598 L 44.3244 65.1309 L 44.3305 64.6054 L 44.3397 64.225 L 44.3641 63.8511 L 44.4036 63.4838 L 44.4577 63.1236 L 44.5262 62.7707 L 44.609 62.4255 L 44.7056 62.0882 L 44.8158 61.7593 L 44.9394 61.439 L 45.076 61.1276 L 45.2254 60.8254 L 45.3873 60.5328 L 45.5615 60.25 L 45.7476 59.9774 L 45.9455 59.7153 L 46.1547 59.464 L 46.3751 59.2238 L 46.6064 58.9951 L 46.8482 58.7781 L 47.1004 58.5731 L 47.3626 58.3805 L 47.6346 58.2006 L 47.916 58.0338 L 48.2067 57.8802 L 48.5064 57.7402 L 48.8147 57.6142 L 49.1314 57.5025 L 49.4563 57.4053 L 49.789 57.323 L 50.1293 57.2559 L 50.4768 57.2044 L 50.8314 57.1686 L 51.1667 57.1515 L 51.4997 57.1521 L 51.8301 57.1704 L 52.1578 57.2064 L 52.4826 57.26 L 52.8044 57.3311 L 53.1229 57.4196 L 53.4381 57.5256 L 53.7497 57.6489 L 54.0577 57.7895 L 54.3617 57.9473 L 54.6616 58.1222 L 54.9574 58.3143 L 55.2487 58.5234 L 55.5355 58.7494 L 55.8175 58.9924 L 56.9084 59.9731 L 59.3575 59.9731 L 61.8067 59.9731 L 61.8067 58.966 L 61.8211 58.5343 L 61.8641 58.1584 L 61.9356 57.8389 L 62.0351 57.5763 L 62.1626 57.3711 L 62.2366 57.2903 L 62.3176 57.2239 L 62.4054 57.1722 L 62.5 57.1352 L 62.6014 57.113 L 62.7095 57.1055 L 62.8397 57.0987 L 62.9407 57.0738 L 63.0154 57.0241 L 63.0664 56.9429 L 63.0964 56.8234 L 63.1082 56.6589 L 63.0877 56.168 L 63.0199 55.2306 L 53.4022 55.1732 L 43.7845 55.1158 L 43.6413 53.0989 L 43.5858 52.0748 L 43.5403 50.7773 L 43.5095 49.3728 L 43.4982 48.0277 L 43.4982 44.9734 L 42.285 44.9734 L 41.0718 44.9734 L 41.0718 38.7144 L 41.0718 32.4553 L 41.7611 32.3174 L 42.1571 32.2639 L 42.7258 32.22 L 43.3912 32.1904 L 44.0772 32.1795 L 45.704 32.1795 L 45.704 30.78 L 45.7463 29.1012 L 45.8479 27.0301 L 45.9917 24.6796 L 50.0259 24.6796 L 51.1284 24.6723 L 51.4824 24.6587 L 51.6267 24.6402 L 52.1004 24.6183 L 53.4423 24.5941 L 56.1913 24.5692 L 68.0667 24.5222 L 70.1923 13.672 L 69.8044 13.5335 L 69.4328 13.3647 L 69.0788 13.1673 L 68.7435 12.9427 L 68.4282 12.6925 L 68.134 12.4182 L 67.8622 12.1213 L 67.6139 11.8034 L 67.3904 11.4659 L 67.1928 11.1104 L 67.0223 10.7385 L 66.8801 10.3516 L 66.7674 9.95121 L 66.6855 9.53895 L 66.6354 9.11631 L 66.6185 8.68482 L 66.6185 8.68482"
       sodipodi:nodetypes="sssccccccssscssscccssscsssssssssscssssscsssssssssscsssssscscccssssscsscsssssscsssssscsscsssssssscsscsssssccssssssscssscssssssssssscssssscssssscssssssssssscccssscccsscccccsscssccccs" />
  </g>
  <g
     inkscape:label="F.SilkS"
     inkscape:groupmode="layer"
     id="g17386"
     style="display:inline">
    <g
       id="g854"
       transform="translate(-125.28061,-131.71218)"
       style="fill:#000000;fill-opacity:1">
      <path
         id="path890"
         style="fill:#000000;fill-opacity:1;stroke:#000000;stroke-width:0.220585;stroke-opacity:1"
         d="m 199.42189,157.00792 c -2.55272,6e-4 -5.25069,0.005 -7.96527,0.0149 l -19.74241,0.0679 -0.0582,7.22416 -0.0581,7.22417 2.15364,0.0116 2.15376,0.0116 3.15867,3.62802 3.1588,3.62802 c 3.92638,1.12064 8.05034,1.69509 12.82551,1.74951 4.68288,-0.20512 9.16016,-0.89415 13.18992,-1.89525 l 3.29819,-3.4939 3.66246,-3.63963 h 1.79639 1.79624 l 0.064,-4.35657 c 0.0352,-2.39611 0.0362,-5.6116 0.002,-7.14556 l -0.0616,-2.78898 -3.79861,-0.14669 c -1.56694,-0.0605 -7.91754,-0.0954 -15.57573,-0.0933 z m -12.83009,2.01344 c 3.56998,0.0551 7.01027,3.45536 5.89862,8.05064 -0.83197,3.4392 -3.9356,5.71112 -7.30062,4.99381 -2.53129,-0.53959 -5.00145,-3.47913 -5.01556,-6.43078 -0.0112,-2.35188 1.2618,-4.17255 2.96809,-5.47398 1.05501,-0.80468 2.25947,-1.15803 3.44947,-1.13969 z m 18.65349,0.0308 c 3.56998,0.055 7.01027,3.45536 5.89862,8.05063 -0.83198,3.4392 -3.93559,5.71113 -7.30061,4.99381 -2.53128,-0.53958 -5.00143,-3.47913 -5.01556,-6.43078 -0.0113,-2.35187 1.26181,-4.17254 2.96809,-5.47397 1.05501,-0.80469 2.25946,-1.15804 3.44946,-1.13969 z m -18.47615,0.94938 c -0.99312,-0.0258 -1.93282,0.2469 -2.45673,0.51892 -1.13411,0.58884 -2.53047,2.13075 -2.92392,3.48418 -0.73505,2.52849 0.17252,4.85816 2.2032,6.40701 0.88992,0.67877 1.15197,0.7246 2.59693,0.90684 1.28881,0.16255 1.97333,-0.11071 2.58977,-0.42519 2.69381,-1.37428 3.88789,-5.15367 2.49251,-7.88883 -0.45448,-0.89088 -1.81278,-2.081 -2.73469,-2.56978 -0.55604,-0.29479 -1.1712,-0.41772 -1.76707,-0.43315 z m 18.50505,0.0292 c -0.93752,0.003 -1.81056,0.26212 -2.30828,0.52054 -1.13411,0.58884 -2.53047,2.13074 -2.92392,3.48418 -0.73506,2.52849 0.17252,4.85816 2.2032,6.40701 0.88993,0.67877 1.15197,0.72447 2.59692,0.90671 1.2888,0.16254 1.97333,-0.11071 2.58978,-0.42519 2.6938,-1.37428 3.88788,-5.15353 2.4925,-7.8887 -0.45449,-0.89088 -1.81278,-2.08114 -2.73468,-2.56991 -0.60238,-0.31936 -1.27406,-0.43682 -1.91552,-0.43464 z m -18.04016,0.93939 c 0.55142,-0.0258 1.11583,0.1303 1.80166,0.47718 2.52701,1.27813 3.21639,4.94378 1.3897,7.38976 -1.03618,1.38747 -2.88608,1.89183 -4.38224,1.1948 -2.26498,-1.05521 -3.25,-3.98321 -2.19199,-6.51561 l 0.26459,-0.63305 0.22704,0.65143 c 0.14288,0.40985 0.45743,0.86031 0.92723,0.94141 0.44184,0.0763 0.70986,0.15113 1.29274,-0.15033 1.2124,-0.62705 0.79643,-2.54738 -0.47828,-2.77157 -0.4355,-0.0766 -0.42377,-0.10399 0.14763,-0.3432 0.34485,-0.14437 0.67108,-0.22535 1.00192,-0.24082 z m 18.81936,0.0286 c 0.49959,0.01 1.01854,0.16715 1.6358,0.47936 2.52699,1.27812 3.21639,4.94376 1.38969,7.38975 -1.03618,1.38747 -2.88594,1.89183 -4.3821,1.1948 -2.26498,-1.05521 -3.25013,-3.98321 -2.19213,-6.51561 l 0.2646,-0.63306 0.22704,0.65143 c 0.14288,0.40986 0.45741,0.86032 0.92724,0.94141 0.44182,0.0763 0.70985,0.151 1.29272,-0.15046 1.2124,-0.62705 0.79643,-2.54725 -0.47827,-2.77143 -0.4355,-0.0766 -0.42376,-0.10399 0.14762,-0.3432 0.40233,-0.16843 0.77922,-0.25045 1.16779,-0.24299 z m 13.63712,3.59183 5.4e-4,3.47431 5.4e-4,3.47418 h 0.99814 c 0.86842,0 1.02599,0.0735 1.21317,0.5658 0.11832,0.31119 0.21516,1.23768 0.21516,2.05881 0,0.82113 0.0413,1.53432 0.0918,1.58487 0.0505,0.0506 0.40894,0.0918 0.79636,0.0918 h 0.70437 l 0.1071,-5.55407 h -1.2e-4 l 0.1071,-5.55421 -2.11703,-0.0708 z m -48.63798,0.10967 -2.17822,2.7e-4 -2.17835,1.3e-4 0.1379,0.68938 c 0.0758,0.37933 0.13791,2.888 0.13791,5.57501 v 4.88549 h 0.88225 0.88239 v -1.59001 c 0,-2.27517 0.21445,-2.72145 1.30731,-2.72145 h 0.87698 l 0.0659,-3.41948 z m -1.43374,7.72107 v 6.98456 6.98456 l 12.60968,-0.14641 c 6.93532,-0.0805 18.54905,-0.14642 25.80837,-0.14642 h 13.19883 v -6.83814 -6.83815 h -2.9254 -2.92527 l -3.52686,3.53523 -3.52672,3.5351 c -4.20657,0.79567 -7.8109,2.00443 -13.26447,2.24669 -5.76194,0.0199 -9.53529,-1.35942 -13.41036,-2.36852 l -2.98591,-3.47189 -2.98577,-3.47175 -3.03306,-0.002 z m 11.93583,3.60763 c 9.37652,1.48604 18.30387,1.39995 26.85581,0 v 0.68627 c -9.85315,3.21676 -18.69076,2.92081 -26.85581,0 z m 18.94186,10.88365 c -1.25939,-0.002 -2.95851,0.006 -4.7935,0.0243 l -6.6727,0.0673 v 0.87023 0.87024 h 6.94837 6.94849 v -0.85876 c 0,-0.49793 -0.11592,-0.89183 -0.27581,-0.93749 -0.0758,-0.0217 -0.89545,-0.0337 -2.15485,-0.0358 z m -24.03467,2.49387 c -2.07573,0 -4.55642,1.67869 -5.61256,3.79807 -0.47129,0.94576 -0.56876,1.44924 -0.56876,2.93784 0,1.56449 0.0876,1.9716 0.67843,3.15394 0.80271,1.60635 2.15553,2.80756 3.80361,3.37706 2.07577,0.7173 1.91452,1.14205 1.91835,-5.05013 0.002,-3.00272 0.095,-5.60443 0.20706,-5.78153 0.14043,-0.22202 0.7728,-0.35895 2.03693,-0.44113 l 1.8334,-0.11926 -0.81729,-0.62509 c -0.86524,-0.66192 -2.50172,-1.24977 -3.47917,-1.24977 z m 37.3448,0.0678 c -1.17164,-0.0341 -2.35149,0.33353 -3.53145,1.10241 l -1.06149,0.69167 2.18728,0.16235 c 1.20294,0.0893 2.31967,0.21314 2.48156,0.27527 0.23462,0.09 0.29445,1.23418 0.29445,5.63458 0,6.24007 -0.11429,5.91226 1.76464,5.0635 1.33228,-0.60182 2.58672,-1.84032 3.22269,-3.18162 0.42597,-0.89842 0.52339,-1.46208 0.52514,-3.04008 0.003,-2.8774 -0.93469,-4.62419 -3.16757,-5.89944 -0.89764,-0.51266 -1.80397,-0.78213 -2.71525,-0.80864 z m -25.87928,0.15276 v 0.88225 0.88239 h 8.05132 8.05131 v -0.88239 -0.88225 h -8.05131 z m -10.36055,2.64703 -0.0586,6.12122 c -0.0323,3.36667 -0.032,11.10916 5.4e-4,17.20557 l 0.0592,11.08437 h 17.97357 17.97371 v -17.20554 -17.20558 h -17.97411 z m 2.78226,1.23077 15.01509,-0.12748 14.95744,0.36553 0.68887,1.12755 0.14857,1.0987 c 0.0936,0.69182 0.22041,-1.22038 -0.0754,9.17596 -0.25349,8.90881 -0.1302,10.14845 -0.44499,10.62892 l -1.10418,1.00792 c -10.02619,-0.19557 -18.347,0.30155 -28.37029,-0.0363 -1.32019,-0.0543 -1.11177,-1.0395 -1.32858,-1.30072 -0.23496,-0.28308 -0.43732,-2.23929 -0.49854,-10.23374 -0.0769,-10.04575 -0.36882,-9.52468 0.10963,-10.13056 z m 40.08433,5.37735 c -0.14362,0.0457 -0.37583,0.33758 -0.59267,0.7923 -0.55866,1.17149 -2.19328,2.80871 -3.39085,3.3961 -0.58285,0.2859 -1.09536,0.54859 -1.13888,0.58376 -0.0856,0.0692 3.18623,6.19789 3.55117,6.65189 0.33539,0.41724 0.56243,0.35275 2.25034,-0.63941 0.85631,-0.50334 2.02675,-1.25497 2.60097,-1.67036 l 1.04407,-0.75529 -0.32619,-0.78082 c -0.17941,-0.42941 -1.12082,-2.22131 -2.0919,-3.98203 -0.97109,-1.76072 -1.76559,-3.28819 -1.76559,-3.39435 0,-0.16804 -0.0543,-0.2292 -0.14047,-0.20179 z m -50.64778,0.18841 c -0.25831,0.0194 -0.64916,0.77599 -1.8061,2.90866 -1.90443,3.51053 -2.60266,5.03341 -2.43323,5.30757 0.22914,0.37076 4.72978,3.29521 5.0712,3.29521 0.16215,0 0.48651,-0.27308 0.72086,-0.60671 0.5524,-0.78645 3.35398,-5.9388 3.35329,-6.167 -2.2e-4,-0.0961 -0.55105,-0.46243 -1.22397,-0.81405 -1.30568,-0.68225 -2.50917,-1.91457 -3.22349,-3.30075 -0.19629,-0.3809 -0.30357,-0.6346 -0.45856,-0.62293 z m 54.70031,9.52543 c -0.34158,0 -3.91206,2.40086 -3.91206,2.63055 0,0.11772 0.49634,1.12757 1.10295,2.244 0.60661,1.11642 1.10296,2.11413 1.10296,2.21725 0,0.37231 0.36879,0.17269 1.11469,-0.60334 0.83599,-0.86975 1.73581,-1.41313 2.34854,-1.41834 1.04938,-0.009 1.01754,-0.3138 -0.28405,-2.7228 -0.69751,-1.29097 -1.36039,-2.34732 -1.47303,-2.34732 z m -58.96652,0.004 c -0.11114,0.002 -0.77506,1.09179 -1.47533,2.42106 l -1.27327,2.41675 0.61158,0.1248 c 1.03972,0.21218 2.51714,1.04846 2.99551,1.69549 0.25092,0.3394 0.52158,0.61698 0.60145,0.61698 0.0799,0 0.71245,-1.06393 1.40577,-2.36433 1.44174,-2.70417 1.56362,-2.26837 -1.10106,-3.93665 -0.85944,-0.53807 -1.65351,-0.97639 -1.76465,-0.9741 z m -2.84814,5.74473 c -1.32701,-1.4e-4 -2.64581,0.64122 -3.40921,1.99952 -1.29909,2.31141 -0.39074,5.49271 1.86013,6.5148 0.97807,0.44413 2.79217,0.2615 3.72041,-0.37454 1.70596,-1.16894 2.40355,-3.12622 1.82434,-5.11861 -0.56992,-1.96045 -2.28951,-3.02099 -3.99567,-3.02117 z m 64.85109,0.0147 c -0.22459,-0.007 -0.45585,0.003 -0.69303,0.0294 -3.5655,0.40188 -4.87406,5.11396 -2.13972,7.705 1.30215,1.2339 2.92568,1.38888 4.72152,0.45072 2.09733,-1.09566 2.75718,-3.35109 1.66604,-5.6944 -0.73281,-1.57378 -1.98266,-2.44167 -3.55481,-2.49076 z m 8.93045,0.85821 c -0.18025,0.002 -1.22111,0.34454 -2.31302,0.76016 -1.76194,0.67067 -1.97875,0.81291 -1.9274,1.26395 0.29968,2.63157 -0.13888,4.20333 -1.5265,5.47073 l -0.65602,0.59916 0.54607,1.34404 c 0.30036,0.73918 0.61523,1.65897 0.69978,2.04396 0.14203,0.64666 0.39691,0.81606 3.34558,2.22387 4.4403,2.11996 5.70139,2.35519 7.68016,1.43265 2.13099,-0.99351 2.12206,-1.00712 -1.97129,-3.01711 -2.01219,-0.98806 -3.75727,-1.98107 -3.87804,-2.20672 -0.34549,-0.64557 0.80403,-3.78577 1.52761,-4.17301 0.48579,-0.25999 0.73507,-0.16986 4.90979,1.77545 1.53665,0.71602 2.91018,1.30177 3.05238,1.30177 0.38818,0 0.0691,-1.66023 -0.58187,-3.02738 -0.3018,-0.63382 -0.96455,-1.50915 -1.47276,-1.94523 -0.93724,-0.8042 -6.83317,-3.85451 -7.43447,-3.84629 z m -42.30375,2.2236 c 0.7669,0.004 1.6226,0.0112 2.57801,0.0213 l 6.26289,0.0667 0.43073,0.57701 c 0.40567,0.5435 0.40997,0.6172 0.0732,1.2684 l -0.35752,0.69127 h -7.70919 -7.70906 l -0.3509,-0.67843 c -0.31617,-0.61142 -0.31754,-0.72968 -0.0127,-1.19494 0.40889,-0.62404 1.42619,-0.77739 6.79452,-0.75137 z m -12.2138,0.41898 c 1.17998,0 1.81253,0.30947 2.40769,1.17805 0.74519,1.08753 0.82965,1.92218 0.31281,3.09059 -0.7368,1.66566 -2.15191,2.26572 -3.7277,1.58068 -1.02053,-0.44365 -1.60169,-1.51437 -1.60269,-2.95255 -6e-4,-1.08175 0.0731,-1.25803 0.85551,-2.04045 0.71428,-0.71428 1.00547,-0.85632 1.75438,-0.85632 z m 27.18699,0.033 c 1.42069,0.0315 2.84625,1.08903 2.84802,2.91162 0.002,1.83944 -1.26644,3.2293 -2.94796,3.23093 -0.69429,7.8e-4 -1.00913,-0.15524 -1.69117,-0.83728 -1.01141,-1.0114 -1.27002,-2.05325 -0.84268,-3.39435 0.4268,-1.33942 1.52882,-1.93545 2.63379,-1.91092 z m -27.16416,0.94006 c -0.19987,0.0141 -0.39924,0.12842 -0.76556,0.35482 -0.83132,0.51378 -1.03373,0.99302 -0.3243,0.76785 0.24244,-0.0769 0.71387,-0.14714 1.04771,-0.156 0.33384,-0.009 0.95246,0.0603 1.37471,0.15371 0.67554,0.14943 0.73398,0.12913 0.48624,-0.16938 -0.15486,-0.18658 -0.62753,-0.50356 -1.05041,-0.70423 -0.36817,-0.17471 -0.56853,-0.26084 -0.76839,-0.24677 z m 27.05638,0.12993 c -0.61711,0 -1.67563,0.57337 -1.67564,0.90765 0,0.23953 -0.045,0.24057 0.86308,-0.0199 0.50705,-0.14542 1.06303,-0.1362 1.71656,0.0284 0.53163,0.13386 1.0176,0.19233 1.08,0.12993 0.20674,-0.20675 -1.38513,-1.04609 -1.984,-1.04609 z m -52.08717,0.30363 c -0.42923,0.0164 -1.00417,0.0664 -1.6339,0.14669 l -2.22739,0.28391 -1.18669,1.46884 c -1.76312,2.18219 -3.38143,4.64369 -3.76187,5.72196 -0.43694,1.23844 -0.42899,3.0849 0.0182,4.20259 0.19516,0.48774 0.41856,0.88165 0.49637,0.87523 0.0778,-0.006 0.73701,-0.76943 1.46493,-1.69549 0.72793,-0.92605 1.75833,-2.23605 2.28965,-2.91108 1.13026,-1.43597 1.52034,-1.77883 2.02424,-1.77883 0.49695,0 2.60452,1.73287 2.9743,2.44551 0.38716,0.74615 0.22316,1.05578 -2.46416,4.65183 -1.23757,1.65606 -2.03684,2.91938 -1.94305,3.07113 0.27839,0.45046 3.07744,0.084 4.13884,-0.54189 1.15248,-0.67958 1.59922,-1.16278 4.08508,-4.41842 1.55565,-2.03738 1.95804,-2.70564 1.80327,-2.99483 -0.10957,-0.20474 -0.2673,-1.1247 -0.35063,-2.04423 l -0.15155,-1.67185 -1.00705,-0.28188 c -1.37659,-0.38542 -2.98931,-1.96258 -3.36288,-3.28874 -0.1538,-0.54595 -0.35452,-1.07921 -0.44599,-1.18507 -0.047,-0.0544 -0.33053,-0.0718 -0.75975,-0.0554 z m 31.01153,2.34341 h 7.70703 c 7.39397,0 7.71636,0.0173 7.93543,0.42667 0.36518,0.68235 0.27144,1.52001 -0.19828,1.7714 -0.27022,0.14458 -3.18157,0.22826 -7.9361,0.22826 h -7.50928 l -0.35051,-0.53459 c -0.32007,-0.48849 -0.31999,-0.59333 6e-4,-1.2133 z m 17.60983,5.96278 c -5.1487,-0.007 -5.45949,0.0164 -6.00558,0.44599 -0.84642,0.66578 -1.1732,1.93454 -0.72261,2.80587 0.19442,0.37597 0.47838,0.76221 0.63089,0.85821 0.70128,0.44139 10.23943,0.6719 11.378,0.27499 0.76981,-0.26835 1.58284,-1.40783 1.58284,-2.21833 0,-0.55327 -0.50573,-1.42842 -1.09282,-1.89106 -0.24651,-0.19426 -1.84548,-0.2706 -5.77072,-0.27567 z m -20.5116,0.1071 -5.48978,0.004 -0.56903,0.56904 c -0.6756,0.6756 -0.90818,2.03627 -0.48516,2.83788 0.55535,1.05238 0.97363,1.11674 6.86354,1.05473 l 5.48073,-0.0578 0.51123,-0.64143 c 0.28115,-0.35281 0.55396,-0.86554 0.60632,-1.13942 0.12176,-0.63697 -0.29899,-1.62459 -0.93291,-2.18956 -0.46715,-0.41633 -0.80417,-0.44103 -5.98494,-0.43734 z m 25.99517,5.37984 -5.72641,0.0655 -5.72628,0.0654 -0.53216,0.61899 c -1.02164,1.18845 -0.56338,3.02767 0.85659,3.43826 0.38886,0.11244 2.97515,0.2134 5.74735,0.22434 l 5.04041,0.0199 0.74989,-0.75002 c 0.95883,-0.95883 1.01734,-1.98671 0.17032,-2.99334 z m -27.34502,0.0316 c -4.10766,-0.018 -4.64829,0.22446 -5.14644,1.4167 -0.39294,0.94043 -0.24276,1.6768 0.49177,2.41134 0.80482,0.80482 2.09427,0.90458 8.34185,0.64548 3.46999,-0.1439 3.53796,-0.1563 4.13601,-0.75434 0.8422,-0.84221 0.8289,-1.93197 -0.0355,-2.89948 l -0.64373,-0.72043 -5.15495,-0.0777 c -0.74269,-0.0112 -1.40219,-0.019 -1.98899,-0.0216 z m 22.37052,5.08672 c -1.01027,0.008 -2.08548,0.0356 -2.98172,0.0804 -3.02625,0.15129 -3.30549,0.20198 -3.90977,0.71045 -0.53193,0.44759 -0.6496,0.71522 -0.64386,1.46547 0.008,1.02917 0.33112,1.57687 1.11591,1.89066 0.2923,0.11687 2.9463,0.21882 5.89768,0.22651 l 5.36605,0.014 0.64482,-0.64481 c 0.86802,-0.86802 0.87984,-1.95294 0.0315,-2.90244 -0.59587,-0.6669 -0.67969,-0.68983 -2.92838,-0.80459 -0.63659,-0.0325 -1.58192,-0.0438 -2.59219,-0.0357 z m -26.32595,0.19639 -0.6448,0.64467 c -1.17002,1.17002 -0.65342,3.3705 0.84902,3.61654 0.33097,0.0542 2.91795,0.0854 5.74883,0.0693 l 5.147,-0.0292 0.64332,-0.72031 c 1.01693,-1.1388 0.75476,-2.60683 -0.57863,-3.23957 -0.58669,-0.2784 -1.68471,-0.34144 -5.94226,-0.34144 z m 25.74274,5.07337 c -6.09081,0 -6.27663,0.0373 -6.83721,1.37052 -0.30682,0.72971 -0.20326,1.71916 0.17951,1.7148 0.1375,-0.002 0.86391,-0.19523 1.61417,-0.43046 1.9952,-0.62553 5.8831,-1.11078 8.90062,-1.11078 2.83638,0 3.03951,-0.0972 2.15985,-1.03353 -0.47665,-0.50736 -0.51399,-0.51055 -6.01694,-0.51055 z m -21.97817,0.0943 c -1.74599,0.002 -3.18744,0.0394 -3.49416,0.12196 -0.74322,0.20013 -1.56203,0.89419 -1.55935,1.32176 5.3e-4,0.064 1.41497,0.12952 3.1434,0.1456 3.3289,0.031 6.47435,0.44986 8.65724,1.15266 0.72792,0.23437 1.42275,0.40401 1.54407,0.3771 0.12133,-0.0269 0.2545,-0.33895 0.29593,-0.69356 0.096,-0.82175 -0.56374,-2.06149 -1.16062,-2.18078 -0.76024,-0.15195 -4.51651,-0.24788 -7.42651,-0.24474 z m 25.60713,2.29018 c -3.8252,0.0206 -6.33773,0.35148 -8.70692,1.14658 -2.10045,0.70491 -1.95335,0.36799 -2.06125,4.72476 l -0.096,3.87641 h 12.03658 c 7.89056,0 12.08421,-0.077 12.17476,-0.22353 0.19729,-0.31923 -0.49006,-2.56574 -1.16873,-3.81969 -0.65338,-1.20718 -2.59661,-3.09958 -4.06874,-3.9623 -0.54403,-0.31882 -1.77232,-0.84567 -2.72956,-1.17076 -1.6236,-0.55139 -1.98482,-0.58977 -5.38011,-0.57147 z m -27.46281,0.16992 c -3.59866,-0.0159 -4.11514,0.0306 -5.51462,0.49704 -2.20101,0.73354 -3.7723,1.68804 -5.30487,3.22269 -1.36967,1.37151 -2.09724,2.6306 -2.54289,4.40046 -0.45123,1.79196 -1.29734,1.66081 10.79963,1.67401 5.94144,0.006 11.37056,-0.055 12.0647,-0.13655 l 1.26206,-0.1483 -0.1475,-3.59884 c -0.0811,-1.97939 -0.20088,-3.73797 -0.26608,-3.90788 -0.16824,-0.43844 -1.61876,-0.96382 -4.17409,-1.51194 -1.76566,-0.37872 -2.99818,-0.47661 -6.17634,-0.49069 z"
         sodipodi:nodetypes="cccccccccccccccsccccccsscsccsscsccsssscssccscsscssccsssccccssscccssccccsssccccssscsccccccccccscccsscccccccscccccccccccccccccccccccccscccssssscccccssscccssscsscccccccccccccccccccccccsscccscccsssssssccsssccssscsscssssscsscccssssscssssssccssscccscsccssssssssssccccccccccsccsssscsscccssccsccssscssscsssccccsscssssssssscccsscccsccsccccccscssscccsscccssccccccsscccccssssccccccsscsscsssccccscccsscsscssssccccsssscssscsssssssccssccccssc" />
      <circle
         style="fill:#000000;fill-opacity:1;stroke:#000000;stroke-width:0.123105;stroke-linecap:round;stroke-linejoin:round;stroke-miterlimit:4;stroke-dasharray:none;stroke-opacity:1"
         id="path5395"
         cx="196.95123"
         cy="140.71375"
         r="4.2782345" />
      <path
         style="fill:#000000;fill-opacity:1;stroke:#000000;stroke-width:0.123105;stroke-linecap:round;stroke-linejoin:round;stroke-miterlimit:4;stroke-dasharray:none;stroke-opacity:1"
         d="m 193.98739,156.13022 5.85796,0.0124 -1.83745,-9.862 -1.85562,-0.0516 z"
         id="path15828"
         sodipodi:nodetypes="ccccc" />
    </g>
    <path
       id="path1107"
       style="fill:#000000;fill-opacity:1;stroke:#000000;stroke-width:0.0833702;stroke-opacity:1"
       d="m 57.592771,62.752357 c -1.313334,0 -2.370916,1.057064 -2.370916,2.370397 v 16.733864 c 0,1.313333 1.057582,2.370913 2.370916,2.370913 h 24.682214 c 1.313334,0 2.370915,-1.05758 2.370915,-2.370913 V 65.122754 c 0,-1.313333 -1.057581,-2.370397 -2.370915,-2.370397 z m 1.497584,0.750343 c 0.877625,-0.0181 1.724599,0.562597 1.989026,1.544608 0.19531,0.725329 -0.172117,1.60196 -0.877983,2.095479 -0.300823,0.21037 -0.430554,0.246618 -0.96325,0.268716 -0.536559,0.02225 -0.670324,-0.0022 -1.037145,-0.187584 -0.44577,-0.225319 -0.647367,-0.451998 -0.903304,-1.015958 -0.349337,-0.769752 -0.08062,-1.750036 0.628386,-2.290818 0.359701,-0.274349 0.765355,-0.405445 1.16427,-0.414443 z m 10.962637,0.001 v 5.18e-4 c 0.0706,-0.0014 0.141801,0.0028 0.213942,0.0098 1.401129,0.1446 2.210773,1.563052 1.61437,2.827734 -0.225625,0.478449 -0.447651,0.696569 -0.933277,0.916739 -0.721119,0.326919 -1.807297,0.135914 -2.303735,-0.404627 -0.306451,-0.333679 -0.503277,-0.876491 -0.504878,-1.39423 -0.004,-1.09797 0.854694,-1.951953 1.913578,-1.955953 z m -5.508191,0.0026 v 5.16e-4 c 0.09296,-0.0029 0.187801,-1.8e-4 0.284221,0.0098 1.34938,0.13825 2.165683,1.642211 1.548225,2.852539 -0.184145,0.360921 -0.646584,0.789485 -1.021641,0.946195 -0.347509,0.145161 -1.200007,0.135472 -1.553911,-0.01757 -0.403659,-0.17458 -0.793689,-0.573781 -1.01286,-1.03663 -0.605631,-1.2789 0.361535,-2.711172 1.755966,-2.75487 z m 16.567464,10e-4 c 0.767577,0.01331 1.533186,0.478162 1.836581,1.205613 0.192362,0.461148 0.161901,1.199539 -0.06821,1.651577 -0.226313,0.44464 -0.444615,0.658889 -0.907955,0.891418 -0.735876,0.369282 -1.914932,0.120235 -2.392102,-0.505394 -0.435713,-0.571179 -0.574846,-1.420704 -0.329179,-2.008663 0.178034,-0.426109 0.654822,-0.894784 1.109493,-1.090372 0.239196,-0.102812 0.495506,-0.148177 0.751375,-0.144179 z m -5.50664,0.02687 v 5.16e-4 c 0.866969,3.81e-4 1.364514,0.298313 1.807641,1.081072 0.226527,0.400219 0.218508,1.286113 -0.01602,1.725993 -0.220315,0.4132 -0.627982,0.801881 -1.00614,0.959631 -0.364291,0.15127 -1.216525,0.157445 -1.554427,0.01033 -1.266843,-0.551651 -1.617705,-2.198851 -0.675411,-3.169832 0.479581,-0.494149 0.74976,-0.607714 1.444356,-0.607714 z m -0.06305,5.257044 c 1.017857,-0.0027 1.905795,0.754387 2.034501,1.734777 0.125363,0.954821 -0.479117,1.875756 -1.413867,2.153357 -0.541493,0.160721 -0.743796,0.154297 -1.242819,-0.03772 -0.755719,-0.29083 -1.3224,-1.108368 -1.3224,-1.90686 7.2e-5,-0.330948 0.374677,-1.186704 0.611333,-1.396815 0.264381,-0.234727 1.023272,-0.545975 1.333252,-0.546734 z m 5.518526,0.0088 c 0.07305,0 0.152733,0.0039 0.247013,0.01292 0.768573,0.06968 1.4515,0.55534 1.735295,1.234551 0.12885,0.308639 0.143536,0.99001 0.02997,1.398879 -0.10812,0.389242 -0.570222,0.909584 -0.983919,1.107943 -0.424574,0.203562 -1.054831,0.271706 -1.424719,0.153998 -1.790777,-0.569831 -1.957292,-2.919953 -0.26355,-3.721222 0.284721,-0.134779 0.440769,-0.183552 0.659908,-0.186552 z m -16.455843,0.01344 c 0.31005,3.52e-4 0.612913,0.08216 0.94206,0.249082 0.478353,0.24257 0.60212,0.379706 0.870233,0.965316 0.176826,0.385199 0.207275,0.544452 0.171564,0.8909 -0.08565,0.82991 -0.656693,1.532313 -1.43247,1.762683 -0.529408,0.157271 -0.652957,0.154546 -1.181322,-0.02791 -0.268611,-0.09277 -0.561539,-0.278886 -0.785482,-0.498676 -1.065099,-1.045321 -0.602049,-2.835219 0.842325,-3.2551 0.198413,-0.0577 0.387064,-0.08651 0.573092,-0.0863 z m -5.501473,0.02067 c 0.482137,-0.002 0.624755,0.03295 1.003557,0.245978 0.515951,0.290171 0.924684,0.879943 1.011825,1.460894 0.131693,0.87815 -0.524931,1.874504 -1.407668,2.136304 -0.800203,0.237339 -1.42806,0.06378 -2.038117,-0.564306 -0.886868,-0.913061 -0.60878,-2.490028 0.547253,-3.105237 0.237654,-0.12645 0.467249,-0.172633 0.88315,-0.173633 z m 11.001396,10e-4 c 0.624586,0 0.94701,0.126778 1.390096,0.546738 0.520379,0.49318 0.70993,1.314952 0.48059,2.080492 -0.141833,0.473351 -0.728854,1.036233 -1.257805,1.205611 -0.543065,0.17389 -0.746051,0.170051 -1.295527,-0.02377 -0.525751,-0.185459 -1.044855,-0.702021 -1.189074,-1.183391 -0.232368,-0.775578 -0.0461,-1.582581 0.480073,-2.078942 0.445727,-0.420511 0.767447,-0.546738 1.391647,-0.546738 z m 11.160042,5.089612 h 5.16e-4 c 0.946005,0.01646 1.845318,0.72712 1.947168,1.849501 0.07202,0.794139 -0.464945,1.658983 -1.228865,1.978173 h -5.17e-4 c -0.314376,0.13099 -1.075521,0.134557 -1.478979,0.0067 -0.154573,-0.049 -0.450656,-0.258297 -0.657841,-0.465087 -0.806159,-0.804161 -0.805408,-1.976334 0.0016,-2.783292 0.412843,-0.41284 0.921444,-0.595011 1.416968,-0.586013 z m -11.133171,0.001 c 0.288978,-6.1e-5 0.587928,0.06555 0.880568,0.211357 1.509682,0.752279 1.476776,2.8923 -0.05478,3.57084 -0.391271,0.17339 -1.07618,0.196162 -1.535306,0.05064 -0.425828,-0.13498 -0.994672,-0.748824 -1.162719,-1.254704 -0.444897,-1.33948 0.620008,-2.577939 1.872236,-2.578137 z m -5.467884,0.0031 c 0.509712,0.0073 1.016923,0.212534 1.401982,0.613915 0.389202,0.405699 0.545703,0.800746 0.545703,1.375627 0,0.81851 -0.465823,1.504619 -1.241785,1.828829 v 5.16e-4 c -0.351745,0.14673 -1.126527,0.144555 -1.468644,-0.0041 -0.774647,-0.336672 -1.225147,-1.015823 -1.222147,-1.842783 0.0021,-0.575799 0.180377,-1.015373 0.567925,-1.398363 0.394828,-0.390202 0.907275,-0.580609 1.416966,-0.573608 z m 11.025684,0 c 0.510577,0 0.916456,0.169277 1.310515,0.546219 0.420129,0.40191 0.607815,0.835072 0.610815,1.403532 0.003,0.796859 -0.381495,1.439884 -1.064534,1.780252 -0.793801,0.39557 -1.707138,0.234897 -2.322339,-0.408244 -0.383771,-0.401199 -0.545703,-0.800616 -0.545703,-1.345137 0,-1.09797 0.893765,-1.976622 2.011246,-1.976622 z m -16.433622,0.01137 v 10e-4 c 0.05282,0 0.105918,0.0032 0.160197,0.0072 1.013577,0.08261 1.714302,0.777325 1.794722,1.779736 0.02429,0.302429 4.76e-4,0.628856 -0.05994,0.811837 -0.131048,0.397099 -0.675867,0.986795 -1.083654,1.173054 -0.19599,0.08947 -0.51058,0.147552 -0.807185,0.148312 -1.495687,0.0054 -2.423967,-1.504408 -1.759583,-2.862358 0.342861,-0.700752 0.963959,-1.07325 1.755447,-1.058849 z m 16.345256,5.206915 v 5.19e-4 c 0.996817,0.01525 1.931148,0.802632 1.931148,1.96732 0,0.845132 -0.333804,1.407718 -1.051615,1.77147 -0.548276,0.277288 -1.253096,0.272449 -1.825729,-0.01292 -1.244746,-0.620271 -1.436241,-2.292779 -0.370003,-3.231327 0.396947,-0.349411 0.863102,-0.50206 1.316199,-0.495062 z m -10.998813,5.19e-4 c 0.466072,0.01006 0.931328,0.195013 1.316199,0.553452 0.63096,0.58769 0.798127,1.498788 0.42168,2.297018 -0.225613,0.478451 -0.447638,0.696571 -0.933275,0.916741 -0.77792,0.352661 -1.894692,0.113506 -2.368331,-0.507463 -0.682686,-0.895069 -0.582742,-2.036868 0.242361,-2.763139 0.388274,-0.34177 0.855287,-0.506611 1.321366,-0.496609 z m 5.463233,0.0031 v 0.001 c 0.953231,-0.0036 1.868527,0.689245 1.984375,1.811777 0.07991,0.77434 -0.423396,1.642615 -1.14205,1.969905 -0.419796,0.19023 -1.254537,0.187558 -1.669663,-0.0062 -1.250405,-0.58361 -1.549038,-2.17501 -0.592731,-3.158979 0.410687,-0.422572 0.920774,-0.616535 1.420069,-0.617535 z m 11.03757,5.19e-4 c 0.305922,-0.0069 0.617489,0.05809 0.908471,0.203088 1.515524,0.75519 1.502487,2.866435 -0.02222,3.574976 -0.362405,0.168439 -1.112772,0.191291 -1.566312,0.04754 -0.455926,-0.144511 -1.011507,-0.763045 -1.167371,-1.299144 -0.162914,-0.560491 -0.111625,-0.977162 0.187069,-1.523423 0.341546,-0.62465 0.987339,-0.987939 1.660364,-1.003038 z m -21.882385,0.0072 c 0.715195,0.01132 1.410949,0.411351 1.763199,1.138949 0.449053,0.92763 0.01717,2.161064 -0.907439,2.591573 -0.819973,0.381799 -1.927402,0.16098 -2.41794,-0.48214 -0.659124,-0.864142 -0.587771,-1.999519 0.170532,-2.70578 0.403601,-0.37592 0.902312,-0.5496 1.391648,-0.542602 z" />
  </g>
</svg>
