<?xml version="1.0" encoding="UTF-8" standalone="no"?>
<svg
   width="125mm"
   height="120mm"
   viewBox="0 0 125 120"
   version="1.1"
   id="svg1501"
   sodipodi:docname="Einhorn.svg"
   inkscape:version="1.1 (c68e22c387, 2021-05-23)"
   xmlns:inkscape="http://www.inkscape.org/namespaces/inkscape"
   xmlns:sodipodi="http://sodipodi.sourceforge.net/DTD/sodipodi-0.dtd"
   xmlns="http://www.w3.org/2000/svg"
   xmlns:svg="http://www.w3.org/2000/svg">
  <defs
     id="defs1505" />
  <sodipodi:namedview
     id="namedview1503"
     pagecolor="#ffffff"
     bordercolor="#666666"
     borderopacity="1.0"
     inkscape:pageshadow="2"
     inkscape:pageopacity="0.0"
     inkscape:pagecheckerboard="0"
     inkscape:document-units="mm"
     showgrid="false"
     inkscape:zoom="0.96163364"
     inkscape:cx="182.50193"
     inkscape:cy="237.61648"
     inkscape:window-width="1920"
     inkscape:window-height="1017"
     inkscape:window-x="-8"
     inkscape:window-y="-8"
     inkscape:window-maximized="1"
     inkscape:current-layer="g1775"
     borderlayer="true"
     width="125mm">
    <inkscape:grid
       spacingx="2.54"
       spacingy="2.54"
       empspacing="1"
       type="xygrid"
       units="mm"
       id="grid1744" />
  </sodipodi:namedview>
  <g
     inkscape:groupmode="layer"
     id="layer1"
     inkscape:label="Cut" />
  <g
     inkscape:groupmode="layer"
     id="layer2"
     inkscape:label="Gravieren" />
  <g
     inkscape:label="[fixed] BG"
     inkscape:groupmode="layer"
     sodipodi:insensitive="true"
     id="g1773">
    <rect
       x="0"
       y="0"
       width="120"
       height="120"
       style="fill:#ffffff;fill-opacity:1;stroke:none"
       id="rect1771" />
  </g>
  <g
     inkscape:label="Edge.Cuts"
     inkscape:groupmode="layer"
     id="g1775"
     style="display:inline">
    <path
       id="path1439"
       style="fill:none;stroke:#0000ff;stroke-width:0.0244913mm"
       d="M 82.1094 8.76367 L 81.7421 8.88167 L 81.3819 9.01572 L 81.0283 9.16444 L 80.6807 9.3265 L 80.0017 9.68515 L 79.3407 10.0808 L 78.6937 10.5027 L 78.0564 10.9398 L 76.7946 11.8166 L 76.4229 11.8977 L 76.0452 11.9554 L 75.2781 12.0294 L 74.5067 12.0961 L 74.1235 12.1446 L 73.7441 12.2129 L 73.1343 12.3179 L 72.5283 12.4404 L 71.9264 12.58 L 71.3288 12.7362 L 70.7358 12.9085 L 70.1476 13.0963 L 69.5643 13.2994 L 68.9861 13.5171 L 67.8463 13.9947 L 66.7298 14.5252 L 65.6384 15.105 L 64.5737 15.7302 L 63.8105 16.2877 L 63.0625 16.8673 L 62.3309 17.4689 L 61.617 18.0922 L 60.9222 18.7368 L 60.2477 19.4024 L 59.5948 20.0889 L 58.9649 20.796 L 58.3593 21.5233 L 57.7793 22.2706 L 57.2261 23.0376 L 56.7011 23.8241 L 56.2056 24.6297 L 55.7409 25.4542 L 55.3084 26.2974 L 54.9092 27.1588 L 54.6719 27.7046 L 54.4501 28.2564 L 54.2439 28.8138 L 54.0532 29.3765 L 53.8781 29.9441 L 53.7186 30.5161 L 53.5747 31.0922 L 53.4465 31.672 L 53.3338 32.255 L 53.2368 32.841 L 53.1555 33.4295 L 53.0898 34.0201 L 53.0399 34.6124 L 53.0056 35.206 L 52.9871 35.8006 L 52.9843 36.3957 L 52.9679 37.6351 L 52.9946 38.8734 L 53.0635 40.1097 L 53.1736 41.3428 L 53.324 42.5718 L 53.5137 43.7957 L 53.7418 45.0135 L 54.0074 46.2241 L 54.2981 47.5754 L 54.6048 48.925 L 55.2189 51.6261 L 55.5025 52.9809 L 55.7546 54.3407 L 55.9635 55.7072 L 56.048 56.3935 L 56.1172 57.082 L 55.9501 57.3274 L 55.7437 57.5382 L 55.5058 57.719 L 55.2443 57.8741 L 54.967 58.008 L 54.6816 58.1249 L 54.1181 58.3255 L 53.713 58.4219 L 53.3062 58.4903 L 52.8983 58.5324 L 52.4897 58.5494 L 52.0813 58.5428 L 51.6734 58.514 L 51.2667 58.4644 L 50.8617 58.3954 L 50.4591 58.3085 L 50.0595 58.205 L 49.2714 57.954 L 48.502 57.6538 L 47.7561 57.3156 L 46.9234 56.9924 L 46.0784 56.6986 L 45.2224 56.4353 L 44.357 56.2034 L 43.4834 56.004 L 42.6031 55.8381 L 41.7176 55.7068 L 40.8281 55.6109 L 39.9361 55.5517 L 39.0429 55.5299 L 38.1501 55.5467 L 37.259 55.6031 L 36.3709 55.7002 L 35.4873 55.8388 L 34.6096 56.02 L 33.7392 56.2449 L 33.1408 56.4183 L 32.5495 56.6172 L 31.9663 56.8411 L 31.3923 57.0893 L 30.8284 57.3609 L 30.2759 57.6554 L 29.7357 57.9719 L 29.2089 58.3099 L 28.6966 58.6687 L 28.1998 59.0474 L 27.7197 59.4455 L 27.2572 59.8622 L 26.8135 60.2968 L 26.3896 60.7486 L 25.9866 61.217 L 25.6055 61.7012 L 25.1534 61.3318 L 24.6857 60.9795 L 24.2033 60.6455 L 23.707 60.3311 L 23.1979 60.0373 L 22.6767 59.7655 L 22.1446 59.5169 L 21.6023 59.2928 L 21.0508 59.0943 L 20.491 58.9227 L 19.9239 58.7792 L 19.3504 58.665 L 18.7713 58.5815 L 18.1876 58.5297 L 17.6003 58.5109 L 17.0103 58.5265 L 16.3855 58.5349 L 15.7624 58.5694 L 15.1417 58.6293 L 14.5242 58.7143 L 13.9106 58.8238 L 13.3017 58.9573 L 12.6983 59.1143 L 12.1011 59.2944 L 11.5109 59.4971 L 10.9284 59.7218 L 10.3545 59.9681 L 9.78977 60.2356 L 9.23508 60.5236 L 8.69117 60.8318 L 8.1588 61.1596 L 7.63873 61.5066 L 7.13171 61.8722 L 6.63852 62.256 L 6.1599 62.6575 L 5.69661 63.0762 L 5.24943 63.5116 L 4.8191 63.9632 L 4.40639 64.4306 L 4.01205 64.9132 L 3.63686 65.4105 L 3.28155 65.9222 L 2.9469 66.4476 L 2.63367 66.9863 L 2.34261 67.5378 L 2.07449 68.1016 L 1.83006 68.6773 L 1.61009 69.2643 L 1.4055 69.8875 L 1.23229 70.5207 L 1.09059 71.1619 L 0.980562 71.8097 L 0.902348 72.4622 L 0.856099 73.1179 L 0.841961 73.775 L 0.860084 74.4319 L 0.910614 75.087 L 0.993701 75.7384 L 1.10949 76.3846 L 1.25813 77.0239 L 1.43978 77.6545 L 1.65457 78.2749 L 1.90266 78.8833 L 2.18419 79.4781 L 2.42385 79.9927 L 2.68544 80.4931 L 2.96657 80.9809 L 3.26481 81.4576 L 3.57778 81.9248 L 3.90305 82.384 L 4.58093 83.285 L 5.97859 85.0608 L 6.6599 85.9608 L 6.98775 86.4192 L 7.30386 86.8854 L 7.79025 87.6238 L 8.27026 88.3816 L 8.73184 89.1591 L 9.16296 89.9566 L 9.55155 90.7745 L 9.72614 91.1912 L 9.88559 91.6131 L 10.0284 92.0402 L 10.153 92.4727 L 10.258 92.9104 L 10.3418 93.3535 L 10.3632 93.7435 L 10.338 94.127 L 10.2743 94.5047 L 10.1802 94.8771 L 10.0639 95.2448 L 9.93332 95.6081 L 9.66211 96.3242 L 9.65971 96.469 L 9.6807 96.6024 L 9.72279 96.724 L 9.78371 96.8332 L 9.86118 96.9295 L 9.95292 97.0124 L 10.0567 97.0814 L 10.1701 97.1359 L 10.291 97.1754 L 10.417 97.1993 L 10.546 97.2072 L 10.6755 97.1985 L 10.8034 97.1726 L 10.9273 97.1292 L 11.045 97.0675 L 11.1542 96.9872 L 11.53 96.7962 L 11.9024 96.5892 L 12.2692 96.3664 L 12.6285 96.1277 L 12.978 95.8734 L 13.3159 95.6035 L 13.6398 95.3181 L 13.9479 95.0173 L 14.238 94.7013 L 14.508 94.3702 L 14.7559 94.024 L 14.9796 93.6629 L 15.177 93.2869 L 15.346 92.8963 L 15.4846 92.491 L 15.5907 92.0713 L 15.6251 91.9558 L 15.6444 91.8009 L 15.6617 91.4499 L 15.6717 91.2922 L 15.6908 91.172 L 15.7249 91.1085 L 15.7495 91.104 L 15.7801 91.1209 L 16.2794 91.853 L 16.7706 92.6035 L 17.2369 93.3739 L 17.6615 94.1658 L 17.8528 94.5703 L 18.0274 94.9807 L 18.1832 95.3972 L 18.318 95.82 L 18.4297 96.2493 L 18.5163 96.6853 L 18.5756 97.1282 L 18.6055 97.5781 L 18.6179 99.0487 L 18.6118 99.8041 L 18.5733 100.543 L 18.3295 101.076 L 18.0574 101.593 L 17.7583 102.093 L 17.4333 102.575 L 17.0837 103.038 L 16.7107 103.483 L 16.3154 103.907 L 15.899 104.31 L 15.4627 104.691 L 15.0078 105.05 L 14.5353 105.386 L 14.0465 105.697 L 13.5426 105.983 L 13.0247 106.244 L 12.4941 106.477 L 11.9519 106.684 L 11.8211 106.732 L 11.6995 106.798 L 11.5882 106.878 L 11.4882 106.97 L 11.4005 107.074 L 11.3262 107.187 L 11.2662 107.306 L 11.2215 107.431 L 11.1933 107.559 L 11.1825 107.688 L 11.1902 107.817 L 11.2173 107.942 L 11.265 108.064 L 11.3341 108.179 L 11.4258 108.285 L 11.541 108.381 L 11.8112 108.526 L 12.0972 108.623 L 12.3948 108.686 L 12.6999 108.727 L 13.3164 108.799 L 13.6197 108.856 L 13.9141 108.945 L 14.9473 109.222 L 15.992 109.467 L 17.046 109.671 L 18.107 109.823 L 18.6394 109.877 L 19.1726 109.915 L 19.7065 109.936 L 20.2406 109.938 L 20.7748 109.92 L 21.3087 109.882 L 21.842 109.821 L 22.3745 109.737 L 23.2472 109.57 L 24.1177 109.377 L 24.9805 109.152 L 25.8306 108.886 L 26.6625 108.574 L 27.07 108.399 L 27.471 108.209 L 27.8648 108.004 L 28.2508 107.784 L 28.6283 107.546 L 28.9967 107.291 L 29.4346 106.997 L 29.8653 106.689 L 30.2874 106.368 L 30.6996 106.033 L 31.1007 105.685 L 31.4892 105.323 L 31.8639 104.948 L 32.2236 104.559 L 32.5668 104.156 L 32.8923 103.74 L 33.1988 103.31 L 33.485 102.867 L 33.7496 102.41 L 33.9912 101.939 L 34.2086 101.455 L 34.4004 100.957 L 34.4394 101.244 L 34.467 101.542 L 34.5303 102.146 L 34.5874 102.438 L 34.6756 102.716 L 34.8057 102.972 L 34.8898 103.091 L 34.9883 103.201 L 35.1288 103.255 L 35.2612 103.278 L 35.3856 103.275 L 35.5026 103.247 L 35.6126 103.197 L 35.7159 103.129 L 35.9041 102.946 L 36.0704 102.722 L 36.2179 102.479 L 36.4695 102.022 L 36.7694 101.443 L 37.043 100.851 L 37.29 100.247 L 37.51 99.6322 L 37.7028 99.0086 L 37.8681 98.3772 L 38.0054 97.7392 L 38.1145 97.0958 L 38.195 96.4484 L 38.2467 95.7981 L 38.2691 95.1463 L 38.2621 94.4942 L 38.2252 93.8431 L 38.1581 93.1943 L 38.0605 92.5489 L 37.9321 91.9083 L 37.8961 91.8018 L 37.8854 91.712 L 37.8973 91.6373 L 37.9295 91.5764 L 37.9793 91.5275 L 38.0445 91.4891 L 38.2104 91.4377 L 38.4072 91.4098 L 38.6151 91.393 L 38.814 91.3747 L 38.9841 91.3427 L 39.3808 91.3126 L 39.7826 91.3118 L 40.1788 91.3525 L 40.3714 91.3924 L 40.5586 91.4473 L 40.5751 91.9091 L 40.5589 92.3741 L 40.5117 92.8282 L 40.4355 93.2578 L 40.2823 93.4995 L 40.1422 93.7654 L 40.0283 94.0468 L 39.9539 94.3349 L 39.9356 94.4789 L 39.9321 94.6212 L 39.9451 94.7608 L 39.9761 94.8967 L 40.0269 95.0278 L 40.0992 95.1529 L 40.1945 95.2709 L 40.3145 95.3809 L 40.4774 95.4494 L 40.6399 95.4904 L 40.8016 95.5061 L 40.9624 95.499 L 41.1219 95.4717 L 41.2801 95.4265 L 41.591 95.2925 L 41.8933 95.1168 L 42.1849 94.9189 L 42.7288 94.5356 L 42.8777 94.4357 L 43.0316 94.2942 L 43.3347 94.0032 L 43.4742 93.9121 L 43.5388 93.893 L 43.5991 93.8964 L 43.6546 93.9259 L 43.7046 93.9851 L 43.7485 94.0779 L 43.7857 94.2077 L 43.8845 94.3989 L 43.9473 94.6008 L 43.9731 94.8071 L 43.9609 95.0115 L 43.9097 95.2076 L 43.8185 95.3891 L 43.6864 95.5497 L 43.5123 95.683 L 43.418 95.7624 L 43.3348 95.854 L 43.2035 96.0655 L 43.1236 96.3001 L 43.1 96.5402 L 43.1109 96.657 L 43.1377 96.7686 L 43.181 96.873 L 43.2416 96.9678 L 43.3199 97.051 L 43.4167 97.1204 L 43.5325 97.1738 L 43.668 97.209 L 43.9532 97.2403 L 44.2381 97.254 L 44.5222 97.2508 L 44.8051 97.2315 L 45.0864 97.1967 L 45.3657 97.1473 L 45.9166 97.0074 L 46.4544 96.8178 L 46.9759 96.5844 L 47.4779 96.313 L 47.957 96.0098 L 47.9654 96.3028 L 48.0277 96.5898 L 48.14 96.859 L 48.2986 97.0989 L 48.394 97.2043 L 48.4996 97.298 L 48.6148 97.3785 L 48.7391 97.4445 L 48.8722 97.4945 L 49.0135 97.527 L 49.1625 97.5406 L 49.3188 97.5338 L 50.0564 97.5709 L 50.7955 97.5777 L 51.5346 97.5543 L 52.2726 97.501 L 53.0082 97.418 L 53.74 97.3054 L 54.4668 97.1636 L 55.1873 96.9927 L 55.9003 96.7929 L 56.6045 96.5645 L 57.2985 96.3076 L 57.9811 96.0224 L 58.6511 95.7092 L 59.3071 95.3682 L 59.9479 94.9996 L 60.5723 94.6035 L 60.9044 94.3526 L 61.2599 94.0988 L 61.6169 93.8341 L 61.9533 93.5501 L 62.107 93.3984 L 62.2473 93.2388 L 62.3714 93.0703 L 62.4767 92.8919 L 62.5604 92.7025 L 62.6197 92.5012 L 62.6519 92.2869 L 62.6543 92.0586 L 62.4858 91.5971 L 62.285 91.1479 L 62.0571 90.7097 L 61.8073 90.2814 L 61.5406 89.8618 L 61.2623 89.4498 L 60.6913 88.6437 L 60.6063 88.5141 L 60.4803 88.3598 L 60.2159 88.0493 L 60.1328 87.9292 L 60.1157 87.8859 L 60.1194 87.8567 L 60.1474 87.8439 L 60.2033 87.8497 L 60.4122 87.9264 L 62.2009 88.4313 L 63.9963 88.9123 L 65.7969 89.3744 L 67.6012 89.8225 L 71.2155 90.6968 L 74.8276 91.5748 L 75.3869 91.6934 L 75.9428 91.8316 L 76.4913 91.9943 L 77.0284 92.1865 L 77.5501 92.4128 L 78.0524 92.6782 L 78.5314 92.9875 L 78.9829 93.3457 L 79.3621 93.637 L 79.7235 93.9521 L 80.063 94.2907 L 80.3762 94.6524 L 80.6589 95.0369 L 80.9068 95.4439 L 81.1157 95.8731 L 81.2812 96.3242 L 81.3642 96.4568 L 81.4626 96.5696 L 81.5742 96.663 L 81.6966 96.7374 L 81.8277 96.7929 L 81.9652 96.8299 L 82.1069 96.8488 L 82.2505 96.8498 L 82.3938 96.8331 L 82.5345 96.7992 L 82.6704 96.7484 L 82.7992 96.6808 L 82.9188 96.5969 L 83.0268 96.4969 L 83.121 96.3812 L 83.1992 96.25 L 83.2774 96.1753 L 83.3602 96.0513 L 83.5219 95.755 L 83.5917 95.6322 L 83.6482 95.5592 L 83.67 95.5492 L 83.6868 95.5609 L 83.7031 95.6621 L 83.71 95.989 L 83.682 96.3127 L 83.6297 96.6339 L 83.5639 96.9535 L 83.4349 97.5907 L 83.3931 97.9098 L 83.3809 98.2305 L 83.4504 98.3858 L 83.5362 98.5137 L 83.6365 98.6163 L 83.7498 98.696 L 83.8742 98.755 L 84.0082 98.7956 L 84.1501 98.8201 L 84.2982 98.8308 L 84.6063 98.8199 L 84.919 98.7812 L 85.505 98.693 L 85.9388 98.6141 L 86.3698 98.5154 L 86.7956 98.3956 L 87.2142 98.2531 L 87.6231 98.0865 L 88.0201 97.8944 L 88.403 97.6753 L 88.7695 97.4277 L 88.9255 97.7178 L 89.1007 97.9977 L 89.2942 98.266 L 89.505 98.5214 L 89.732 98.7624 L 89.9742 98.9876 L 90.2304 99.1957 L 90.4998 99.3851 L 90.7812 99.5547 L 91.0736 99.7028 L 91.376 99.8282 L 91.6873 99.9294 L 92.0065 100.005 L 92.3326 100.054 L 92.6645 100.074 L 93.0012 100.065 L 93.5964 100.068 L 94.19 100.051 L 94.782 100.016 L 95.3724 99.9633 L 96.5489 99.8145 L 97.7202 99.6179 L 98.8869 99.3863 L 100.05 99.133 L 102.366 98.6132 L 103.301 98.367 L 104.23 98.1006 L 105.154 97.8156 L 106.072 97.5137 L 106.101 97.399 L 106.099 97.2619 L 106.056 96.9667 L 106.04 96.8316 L 106.046 96.7203 L 106.085 96.6443 L 106.122 96.6232 L 106.172 96.6152 L 106.88 96.5792 L 107.587 96.5247 L 108.291 96.4531 L 108.993 96.3656 L 110.392 96.1481 L 111.784 95.8822 L 113.169 95.5781 L 114.549 95.2458 L 117.291 94.5371 L 117.507 94.4527 L 117.739 94.3807 L 118.213 94.2375 L 118.438 94.1481 L 118.642 94.0347 L 118.817 93.8881 L 118.89 93.7995 L 118.953 93.6992 L 119.005 93.5183 L 119.033 93.339 L 119.04 93.1611 L 119.028 92.9846 L 118.998 92.8094 L 118.955 92.6355 L 118.834 92.2911 L 118.683 91.9506 L 118.522 91.6136 L 118.368 91.2794 L 118.24 90.9473 L 117.971 90.4002 L 117.688 89.8601 L 117.392 89.3271 L 117.082 88.8014 L 116.425 87.7733 L 115.719 86.7777 L 114.967 85.8166 L 114.171 84.8921 L 113.334 84.0061 L 112.457 83.1608 L 112.033 82.854 L 111.601 82.5603 L 110.716 82.0076 L 109.809 81.4925 L 108.885 81.0049 L 107.012 80.0719 L 106.076 79.6063 L 105.149 79.1278 L 103.24 78.2106 L 102.277 77.7668 L 101.306 77.3402 L 100.327 76.9362 L 99.3369 76.5606 L 98.3358 76.2186 L 97.3219 75.9159 L 96.7806 75.8387 L 96.2384 75.777 L 95.1511 75.6938 L 94.061 75.6534 L 92.9689 75.643 L 90.7825 75.6611 L 89.6899 75.664 L 88.5988 75.6456 L 84.9138 75.6436 L 83.0742 75.6193 L 81.2441 75.5547 L 81.0547 74.9495 L 80.8846 74.3387 L 80.5723 73.1094 L 81.2066 72.5796 L 81.83 72.0319 L 82.4336 71.462 L 83.0088 70.8655 L 83.5466 70.2382 L 83.7988 69.9117 L 84.0383 69.5758 L 84.2641 69.2301 L 84.4751 68.8739 L 84.6702 68.5068 L 84.8482 68.1283 L 85.1595 67.4009 L 85.43 66.6575 L 85.6673 65.9026 L 85.8789 65.1406 L 86.3855 65.2033 L 86.8956 65.2355 L 87.4072 65.2374 L 87.9182 65.209 L 88.4265 65.1505 L 88.9302 65.0619 L 89.4272 64.9433 L 89.9155 64.7948 L 90.393 64.6165 L 90.8576 64.4085 L 91.3074 64.1709 L 91.7403 63.9037 L 92.1543 63.6072 L 92.5473 63.2813 L 92.9173 62.9262 L 93.2623 62.5419 L 93.635 62.1134 L 93.9641 61.6509 L 94.2453 61.1589 L 94.4746 60.642 L 94.5684 60.3756 L 94.6477 60.1046 L 94.712 59.8298 L 94.7606 59.5515 L 94.7931 59.2704 L 94.809 58.987 L 94.8077 58.702 L 94.7888 58.4158 L 94.7953 57.8367 L 94.7742 57.2593 L 94.7278 56.6839 L 94.6583 56.1109 L 94.5682 55.5406 L 94.4598 54.9733 L 94.1974 53.849 L 94.0868 53.2131 L 94.0039 52.5628 L 93.9597 51.9052 L 93.9653 51.2472 L 93.9902 50.9203 L 94.0317 50.596 L 94.0912 50.2751 L 94.17 49.9585 L 94.2695 49.6471 L 94.3911 49.3419 L 94.5362 49.0435 L 94.7062 48.7531 L 95.0622 48.1039 L 95.4284 47.4605 L 95.7946 46.817 L 96.1504 46.168 L 96.5239 46.723 L 96.873 47.3024 L 97.1888 47.9038 L 97.4623 48.5247 L 97.6845 49.1624 L 97.7735 49.4868 L 97.8464 49.8145 L 97.902 50.1452 L 97.9391 50.4785 L 97.9567 50.8142 L 97.9536 51.1519 L 97.914 51.4864 L 97.8471 51.8219 L 97.6827 52.4933 L 97.6108 52.828 L 97.5629 53.1611 L 97.5518 53.4922 L 97.5903 53.8205 L 97.6732 53.9502 L 97.7675 54.0517 L 97.8717 54.1269 L 97.9842 54.1776 L 98.1034 54.2059 L 98.2275 54.2137 L 98.3551 54.2029 L 98.4845 54.1754 L 98.7422 54.078 L 98.9878 53.937 L 99.2082 53.7679 L 99.3906 53.5859 L 100.026 52.995 L 100.635 52.3593 L 100.925 52.025 L 101.2 51.6797 L 101.46 51.3237 L 101.701 50.9571 L 101.922 50.5798 L 102.119 50.1921 L 102.291 49.794 L 102.434 49.3857 L 102.547 48.9673 L 102.627 48.5388 L 102.672 48.1003 L 102.679 47.652 L 102.742 46.5463 L 102.781 45.4394 L 103.245 45.7795 L 103.729 46.0818 L 104.231 46.3469 L 104.75 46.5756 L 105.283 46.7685 L 105.827 46.9262 L 106.382 47.0494 L 106.944 47.1387 L 107.511 47.1947 L 108.081 47.218 L 108.652 47.2095 L 109.222 47.1695 L 109.789 47.0989 L 110.349 46.9982 L 110.902 46.8681 L 111.445 46.7092 L 111.568 46.6788 L 111.678 46.6304 L 111.776 46.5662 L 111.86 46.4887 L 111.93 46.3999 L 111.986 46.3023 L 112.027 46.1982 L 112.053 46.0897 L 112.063 45.9793 L 112.056 45.8693 L 112.033 45.7618 L 111.992 45.6592 L 111.933 45.5638 L 111.856 45.4779 L 111.76 45.4038 L 111.645 45.3437 L 111.25 45.2207 L 110.847 45.1276 L 110.027 44.9805 L 109.618 44.9014 L 109.216 44.8019 L 108.822 44.6693 L 108.442 44.4911 L 108.169 44.3552 L 107.906 44.2062 L 107.408 43.8722 L 106.944 43.4961 L 106.511 43.0848 L 106.104 42.6451 L 105.72 42.1841 L 105.354 41.7086 L 105.004 41.2255 L 104.93 41.0865 L 104.822 40.9236 L 104.706 40.7517 L 104.608 40.5859 L 104.552 40.4412 L 104.548 40.3814 L 104.565 40.3325 L 104.606 40.2963 L 104.673 40.2748 L 104.77 40.2698 L 104.9 40.2832 L 105.735 40.1925 L 106.564 40.0727 L 107.389 39.9243 L 108.208 39.7478 L 109.021 39.5439 L 109.826 39.313 L 110.623 39.0556 L 111.412 38.7724 L 111.684 38.7136 L 111.962 38.6034 L 112.224 38.4482 L 112.45 38.2544 L 112.543 38.145 L 112.618 38.0285 L 112.674 37.9055 L 112.708 37.7769 L 112.717 37.6435 L 112.698 37.5062 L 112.65 37.3656 L 112.568 37.2226 L 112.462 37.1036 L 112.346 37.0013 L 112.221 36.9137 L 112.088 36.8389 L 111.805 36.7195 L 111.506 36.6268 L 110.895 36.4573 L 110.601 36.3481 L 110.328 36.2013 L 110.016 36.0476 L 109.714 35.8818 L 109.136 35.5151 L 108.592 35.1047 L 108.083 34.6542 L 107.607 34.1669 L 107.164 33.6464 L 106.754 33.0961 L 106.375 32.5195 L 109.624 30.836 L 112.869 29.144 L 114.483 28.2814 L 116.086 27.4008 L 117.675 26.4967 L 119.248 25.5639 L 119.754 25.1659 L 120.007 24.9444 L 120.24 24.7057 L 120.442 24.4481 L 120.598 24.1699 L 120.654 24.0225 L 120.695 23.8694 L 120.717 23.7102 L 120.719 23.5449 L 120.677 23.3951 L 120.616 23.2622 L 120.538 23.1458 L 120.445 23.0453 L 120.339 22.96 L 120.221 22.8895 L 120.094 22.8331 L 119.959 22.7904 L 119.673 22.7433 L 119.378 22.7437 L 119.089 22.787 L 118.821 22.8687 L 115.104 23.5468 L 111.388 24.2591 L 109.536 24.6381 L 107.691 25.0376 L 105.855 25.4616 L 104.031 25.9141 L 103.908 25.9524 L 103.797 25.9654 L 103.698 25.9553 L 103.61 25.9247 L 103.53 25.8759 L 103.459 25.8113 L 103.339 25.6444 L 103.239 25.4432 L 103.153 25.2271 L 103.071 25.0152 L 102.986 24.8268 L 102.713 24.1074 L 102.417 23.391 L 102.099 22.6804 L 101.756 21.9786 L 101.389 21.2882 L 100.997 20.6122 L 100.579 19.9534 L 100.134 19.3146 L 99.6605 18.6986 L 99.1589 18.1083 L 98.6279 17.5464 L 98.0668 17.0159 L 97.4747 16.5194 L 96.8509 16.06 L 96.1944 15.6403 L 95.5046 15.2633 L 94.9793 14.9851 L 94.4459 14.727 L 93.905 14.4882 L 93.357 14.2679 L 92.8027 14.0652 L 92.2425 13.8794 L 91.677 13.7095 L 91.1069 13.5549 L 89.9547 13.2879 L 88.7906 13.0719 L 87.6191 12.9003 L 86.4449 12.7667 L 85.651 12.684 L 84.8511 12.6216 L 84.0547 12.5636 L 83.2715 12.4941 L 83.1748 12.053 L 83.1122 11.6045 L 83.0279 10.6989 L 82.9759 10.2488 L 82.897 9.80515 L 82.776 9.37145 L 82.6949 9.15941 L 82.5976 8.95117 L 82.4773 8.89721 L 82.3596 8.83293 L 82.2388 8.7809 L 82.1094 8.76367 L 82.1094 8.76367" />
  </g>
  <g
     inkscape:label="F.SilkS"
     inkscape:groupmode="layer"
     id="g1777"
     style="display:inline">
    <path
       style="fill:#000000;fill-opacity:1;stroke:#000000;stroke-width:0.0244913mm"
       d="m 23.13782,107.89208 c 1.71187,-0.44504 2.49745,-0.73372 3.66911,-1.34831 3.73535,-1.95936 6.24842,-4.84438 6.84582,-7.859008 0.071,-0.358494 0.1922,-0.954632 0.26923,-1.32478 0.20201,-0.970537 0.0483,-1.905674 -0.49653,-3.020578 -0.87669,-1.794067 -1.97616,-3.108981 -2.60242,-3.112356 -1.29014,-0.007 -2.80861,-1.19551 -3.15078,-2.466266 -0.14252,-0.529258 -0.28516,-0.629383 -3.36804,-2.364284 -2.1352,-1.201603 -2.30587,-1.298947 -3.24,-1.848179 -2.04099,-1.199962 -5.45188,-3.923725 -6.02745,-4.81321 -0.12972,-0.200457 -0.47855,-0.656079 -0.7752,-1.012476 -0.91338,-1.097358 -1.98526,-3.068023 -2.6082,-4.79518 -0.35151,-0.974603 -0.37395,-1.157298 -0.37395,-3.045603 0,-1.622878 0.0466,-2.145739 0.24264,-2.721608 0.42833,-1.25829 1.00062,-2.177641 1.94542,-3.125362 2.16159,-2.168167 4.39836,-3.166654 7.42073,-3.312578 1.75742,-0.08485 2.28599,0.02792 3.42981,0.731688 1.30186,0.801052 1.41881,0.294244 0.14821,-0.642236 -2.14692,-1.58234 -4.43352,-2.334718 -7.09559,-2.334718 -5.5553,0 -11.17137,3.507265 -13.68149,8.544154 -1.14704,2.301714 -1.51092,4.593499 -1.1472,7.225272 0.1739,1.258256 0.49352,2.233457 1.22426,3.735372 0.64318,1.321968 0.90118,1.723332 2.26093,3.51737 1.45431,1.918797 2.51151,3.474466 3.27254,4.815507 0.37608,0.662691 0.84252,1.479168 1.03656,1.814401 0.40729,0.703616 0.80363,1.929288 1.01358,3.134447 0.13185,0.756924 0.0948,1.766652 -0.094,2.561876 -0.11781,0.496106 0.24219,0.340042 1.03883,-0.450273 1.43,-1.418655 2.18189,-2.997111 2.32451,-4.87991 l 0.0675,-0.891367 -1.22615,-1.247019 C 11.89496,85.76469 10.76429,84.181424 9.7933,82.221854 8.88418,80.387068 8.40864,78.820784 8.21946,77.037865 7.9881,74.857716 8.3239,72.219668 9.04431,70.557864 9.3785,69.786946 9.38112,69.782733 9.46972,69.871313 c 0.0382,0.03821 -0.0455,0.441608 -0.18593,0.896392 -0.54826,1.775205 -0.68097,2.618201 -0.67089,4.261318 0.0215,3.509234 1.02961,6.219277 3.60429,9.689256 1.15286,1.553759 1.43405,1.869466 2.39364,2.68753 0.33444,0.285123 1.06307,1.082046 1.61915,1.770958 2.53849,3.144793 3.70368,6.044232 3.67895,9.154673 -0.0109,1.376742 -0.0541,1.610292 -0.49567,2.68239 -0.91071,2.21115 -3.39086,4.71643 -5.73257,5.79073 -0.35842,0.16443 -0.65166,0.33272 -0.65166,0.37398 0,0.0832 3.81843,0.992 4.536,1.07963 0.24947,0.0305 1.32839,0.0326 2.39758,0.005 1.52811,-0.0398 2.20741,-0.11917 3.17521,-0.37075 z"
       id="path1441" />
    <path
       style="fill:#000000;fill-opacity:1;stroke:#000000;stroke-width:0.0244913mm"
       d="m 36.02474,99.685522 c 0.12355,-0.481221 0.27705,-1.020735 0.34107,-1.198914 0.064,-0.178184 0.20361,-1.002469 0.31016,-1.831682 0.14959,-1.164052 0.16409,-1.769581 0.0636,-2.656793 -0.17324,-1.530047 -0.51034,-2.999854 -0.70515,-3.074626 -0.0867,-0.03326 -0.589,0.0218 -1.11631,0.122364 -0.5273,0.100576 -1.26675,0.182911 -1.6432,0.182999 -0.79249,1.17e-4 -0.98976,0.231012 -0.58719,0.687143 0.40549,0.459452 1.29565,1.910426 1.65574,2.698889 0.43441,0.951189 0.80054,2.643133 0.99802,4.611853 0.18032,1.797745 0.31601,1.888865 0.68322,0.458797 z"
       id="path1443" />
    <path
       style="fill:#000000;fill-opacity:1;stroke:#000000;stroke-width:0.0244913mm"
       d="m 97.00978,97.78499 c 2.88284,-0.581012 4.40783,-0.946795 6.52335,-1.564701 0.71782,-0.209661 0.75193,-0.238276 0.67297,-0.564863 -0.16257,-0.672375 -1.83308,-3.563379 -2.80803,-4.859607 -1.13294,-1.506255 -2.71931,-3.195622 -3.00082,-3.195622 -0.18485,0 -0.22527,0.06882 -0.46546,0.792172 -0.2024,0.609559 -1.39244,2.238447 -2.16954,2.969631 -1.61083,1.515611 -3.03481,2.296898 -4.95758,2.720055 -0.59728,0.131454 -1.13533,0.288385 -1.19569,0.348741 -0.12329,0.123294 0.24812,1.451664 0.57232,2.046994 0.38273,0.702779 0.92348,1.236406 1.45019,1.431092 0.69223,0.255856 3.85565,0.182999 5.37834,-0.123892 z"
       id="path1445" />
    <path
       id="path1447"
       style="fill:#000000;fill-opacity:1;stroke:#000000;stroke-width:0.0925655mm"
       d="m 307.13672,39.582031 -2.44922,1.300781 c -1.34699,0.715238 -4.54417,2.802842 -7.10352,4.638672 -14.10258,10.116473 -22.5004,23.732859 -22.50781,36.490235 -0.004,5.678233 2.20155,14.055334 5.16602,19.630861 1.25658,2.36329 1.17131,3.65021 -0.12696,1.91992 -2.47517,-3.29958 -5.64023,-11.164481 -6.50585,-16.164062 -0.8772,-5.066023 -0.74253,-4.893159 -2.84376,-3.619141 -5.94421,3.604097 -16.2227,13.146547 -20.5664,19.091793 -7.54598,10.32844 -13.41483,25.10512 -16.51563,41.5918 -0.77752,4.13381 -2.39453,19.9809 -2.94921,28.90039 -1.83179,29.45421 -9.66973,45.52086 -24.77344,50.77344 -6.13021,2.13188 -15.03205,1.64622 -22.26172,-1.21289 -1.34702,-0.53266 -3.82718,-1.5259 -5.51172,-2.20703 -4.01919,-1.62499 -10.45197,-3.49224 -16.5293,-4.79688 -6.53023,-1.40194 -19.85903,-1.53349 -26.45117,-0.26172 -8.67299,1.67324 -15.23137,4.26094 -22.13086,8.73047 -7.72274,5.00286 -13.838859,12.50343 -17.304686,21.22461 -0.856516,2.15528 -1.760279,4.30716 -2.009765,4.7832 -0.249449,0.47605 -0.88818,2.68057 -1.419922,4.89844 -2.788838,11.63252 0.370086,28.12248 8.705083,45.42383 1.93568,4.01789 6.37807,11.68505 8.29296,14.31445 l 1.68555,2.31446 2.73047,-1.45704 c 2.712,-1.44724 5.04101,-1.89905 5.04102,-0.97656 0,0.26487 -1.0465,1.014 -2.32618,1.66406 -3.79578,1.92804 -6.7949,4.92049 -8.48828,8.46876 -1.39393,2.9207 -1.51133,3.54619 -1.35547,7.1914 0.15723,3.68015 0.29969,4.15308 1.82227,6.04688 2.05376,2.55403 4.16918,3.5803 8.73633,4.23828 4.14432,0.59706 10.39938,-0.0209 19,-1.87696 9.54217,-2.05923 10.52193,-2.21093 14.15625,-2.21093 6.63012,0 8.0496,1.21455 8.35937,7.1582 0.10658,2.04159 0.33987,3.85738 0.51758,4.0332 0.56693,0.56149 2.65838,-2.55037 3.05273,-4.54101 0.20939,-1.05662 0.67002,-2.01691 1.02344,-2.13477 0.83528,-0.2784 4.29082,3.46746 6.33789,6.8711 0.88437,1.4704 1.88216,4.01589 2.2168,5.65625 0.33449,1.64035 0.75246,3.12749 0.92969,3.30468 0.61024,0.61029 5.45837,-2.47244 6.80078,-4.32422 0.73965,-1.02035 1.49514,-2.78499 1.67773,-3.91992 0.47947,-2.98057 1.34773,-4.08244 3.50977,-4.44922 5.28136,-0.89603 13.17668,-5.99983 20.54101,-13.28125 4.12831,-4.08183 7.04493,-7.83832 7.04493,-9.07031 0,-1.60871 -12.40147,-7.06124 -20.08204,-8.83008 -6.65257,-1.53209 -14.21091,-1.78525 -21.63281,-0.72265 -7.77963,1.1138 -8.93865,1.14439 -9.10351,0.23828 -0.085,-0.46677 1.21249,-1.42246 3.64257,-2.6836 6.15474,-3.19425 10.05991,-7.95272 12.46289,-15.18554 0.98219,-2.9564 0.85847,-12.01081 -0.2207,-16.16407 -1.59912,-6.15496 -7.88787,-18.22191 -12.71289,-24.39257 -0.79971,-1.02272 -1.32878,-1.98371 -1.17578,-2.13672 0.88849,-0.88847 8.11522,7.12391 11.55859,12.81445 5.58407,9.22855 6.64447,12.63563 6.625,21.30664 -0.0113,6.07519 -0.1231,6.87298 -1.35156,9.81446 -1.66756,3.99302 -5.74883,9.40602 -9.0332,11.98242 -1.37371,1.07763 -2.51314,2.13455 -2.5332,2.34765 -0.0189,0.21309 1.12074,0.24217 2.53515,0.0645 11.15668,-1.40171 21.84157,-0.26777 31.11914,3.30468 2.01876,0.77742 3.74198,1.34205 3.83008,1.25391 0.0881,-0.0881 -0.39622,-1.54209 -1.07813,-3.23047 -1.79164,-4.43573 -2.33346,-8.43949 -1.6621,-12.30664 0.60555,-3.48793 1.92724,-8.44861 3.06836,-11.51562 4.47473,-12.02676 4.942,-13.04256 7.99023,-17.36329 2.15282,-3.05153 3.63281,-4.27371 3.63281,-3.00195 0,0.24869 -1.42124,3.31183 -3.1582,6.80664 -3.27088,6.58118 -5.7169,13.39668 -6.61133,18.42383 -0.74808,4.20477 -0.63587,11.30371 0.25391,15.99414 1.40708,7.41734 2.19038,8.15082 11.78906,11.0332 4.00252,1.20193 9.04206,2.71893 11.19726,3.37305 3.42853,1.04057 16.34918,4.82043 23.51172,6.87695 8.67326,2.4903 25.93615,7.25089 31.10352,8.57813 3.3676,0.86497 7.44412,2.23087 9.06055,3.03515 5.56921,2.77122 10.97601,7.2572 13.51562,11.21485 1.65978,2.58658 2.12612,2.83629 2.83399,1.51367 0.68851,-1.28655 2.01953,-8.10767 2.01953,-10.34961 0,-1.07311 0.20185,-2.07563 0.44922,-2.22851 0.70507,-0.43571 4.72926,6.00073 5.95507,9.52539 0.76808,2.20848 1.17481,4.72244 1.32618,8.20507 0.14324,3.2928 0.41028,5.02174 0.77539,5.02344 0.30614,10e-4 1.65883,-0.37796 3.00586,-0.8418 h 0.002 c 3.97822,-1.37006 7.43091,-3.78542 8.55078,-5.98046 0.54951,-1.07706 1,-2.2574 1,-2.62305 0,-0.38045 1.20448,-1.04189 2.81641,-1.54688 4.44642,-1.393 10.75442,-4.49797 15.29492,-7.52929 6.87764,-4.59168 17.78898,-16.35055 17.02344,-18.34571 -0.64952,-1.69254 -32.17134,-17.74459 -42.97266,-21.88281 -2.28994,-0.87728 -4.60381,-1.7835 -5.14258,-2.01367 -0.53881,-0.23017 -2.64586,-0.86944 -4.68359,-1.42187 -3.44451,-0.93379 -5.07711,-1.00391 -23.20508,-1.00391 -14.50768,0 -20.76782,-0.1844 -24.45898,-0.7168 -2.7286,-0.39346 -5.71651,-0.77944 -6.63868,-0.85742 -0.92213,-0.0779 -1.74798,-0.36146 -1.83593,-0.63086 -0.1047,-0.32058 6.96605,-0.51448 20.46093,-0.5625 12.81755,-0.0457 20.80481,-0.25803 21.10547,-0.55859 0.31824,-0.31831 0.29952,-1.96702 -0.0527,-4.82422 -0.88464,-7.17406 -1.58844,-10.53182 -4.39844,-20.99414 -3.78285,-14.08464 -4.2126,-17.24238 -3.80078,-27.86719 l 0.30078,-7.78125 -4.66602,-4.61523 c -2.56705,-2.53799 -6.54826,-7.15619 -8.84765,-10.26368 -2.96292,-4.00431 -7.63615,-9.0967 -16.03906,-17.48242 -12.23513,-12.20991 -14.05229,-14.23597 -17.14844,-19.10742 -11.72376,-18.44599 -12.81094,-37.65366 -2.8125,-49.66797 2.53565,-3.04693 4.27613,-4.39956 4.88086,-3.79492 0.17877,0.17885 -0.35854,0.93554 -1.19336,1.68164 -3.39398,3.03256 -6.61159,9.41312 -7.59571,15.06445 -1.42333,8.17351 1.13834,19.40204 6.7461,29.56641 3.56591,6.46332 7.72382,11.45841 18.42578,22.14062 9.54633,9.52876 14.77671,15.37137 17.20898,19.22461 2.86205,4.53405 8.1879,10.96762 11.00977,13.29883 6.12423,5.05936 12.69762,7.32057 18.68945,6.43164 1.73855,-0.25795 3.35564,-0.65478 3.59375,-0.88281 0.24454,-0.23414 -0.95137,-1.77853 -2.74804,-3.54883 -1.7494,-1.72374 -3.76188,-4.12696 -4.47266,-5.33984 -1.39945,-2.38803 -2.8183,-6.55662 -2.38086,-6.99414 0.5178,-0.51774 1.08594,-0.26611 1.08594,0.48047 0,1.42882 2.54011,5.75636 4.8164,8.20507 6.42274,6.9091 15.03868,9.1341 23.41211,6.04493 7.70245,-2.8416 11.93984,-6.27506 14.7461,-11.94922 1.65074,-3.33777 1.86226,-4.198 2.00781,-8.16797 0.10998,-3.00725 -0.18039,-6.40806 -0.90039,-10.5586 -2.30555,-13.28584 -2.40117,-17.70682 -0.50195,-23.2246 0.54859,-1.5938 2.62327,-6.00262 4.60937,-9.79688 1.98622,-3.79426 3.76971,-7.41687 3.96484,-8.05078 0.31295,-1.0165 -0.67902,-2.17319 -8.41601,-9.79688 -9.67499,-9.53327 -12.09517,-12.86206 -14.11914,-19.42187 -1.65679,-5.36999 -2.28519,-14.07826 -1.64649,-22.79492 0.28536,-3.89574 0.38179,-8.67213 0.21485,-10.61328 -0.42852,-4.981606 -2.02098,-10.753899 -3.73828,-13.554691 -0.80584,-1.314248 -1.35141,-2.50209 -1.21289,-2.640625 0.99983,-0.999784 4.71945,6.027031 5.90429,11.154297 0.65809,2.847599 0.88332,6.482419 1.00196,16.164059 0.26003,21.2128 1.84894,25.98619 11.98242,36.00196 9.41873,9.30932 16.72135,18.19202 19.67187,23.92968 1.35357,2.63224 3.71213,10.17245 4.16016,13.29688 0.2434,1.6973 0.23552,3.82332 -0.0215,5.03125 -0.24341,1.15038 -0.29798,2.23516 -0.1211,2.41211 0.4571,0.45707 2.96673,-2.06393 5.01172,-5.03321 4.473,-6.49462 5.49599,-14.05883 3.66602,-27.14648 -0.58383,-4.17575 -1.40381,-9.90762 -1.82032,-12.73633 -0.4165,-2.82873 -0.87738,-8.72378 -1.02539,-13.10156 -0.14815,-4.37787 -0.46412,-7.96094 -0.70117,-7.96094 -0.23698,0 -2.35514,0.95969 -4.70703,2.13281 -6.9676,3.47529 -10.51231,3.40302 -14.28711,-0.29101 -3.20784,-3.13913 -5.00367,-7.45538 -5.36719,-12.90625 -0.59085,-8.86177 0.38116,-10.91514 5.76563,-12.17774 5.55643,-1.30284 14.4389,-3.70648 14.71484,-3.98242 0.54395,-0.54395 -2.52195,-5.495463 -5.4707,-8.835934 -8.18105,-9.267871 -19.42758,-16.489072 -31.4707,-20.208985 -5.50863,-1.701486 -12.41439,-2.998047 -15.97266,-2.998047 -2.79111,0 -2.71655,-0.17101 -3.0586,6.857422 -0.24944,5.123191 -1.65905,9.959713 -4.23242,14.519532 -1.78979,3.171428 -1.86812,5.179934 -0.46875,12.046872 2.06034,10.11035 6.10873,16.81171 14.23438,23.5625 3.02634,2.51425 4.12456,2.89049 3.59765,1.23047 -0.18368,-0.57886 -0.31117,-3.22807 -0.2832,-5.88672 0.0397,-3.79382 0.26171,-5.24708 1.0293,-6.75195 1.00702,-1.97391 1.9707,-2.9466 1.9707,-1.98828 0,0.29862 -0.35106,1.22444 -0.78125,2.05664 -1.03684,2.0051 -1.00064,7.49654 0.0801,11.91601 0.45993,1.88092 1.02744,3.62885 1.25977,3.88477 0.72283,0.7964 0.46759,2.23047 -0.39649,2.23047 -1.21825,0 -5.86799,-2.74081 -9.39648,-5.53711 -4.34567,-3.44398 -7.5477,-7.47849 -10.10743,-12.74024 -2.43628,-5.00817 -3.04884,-7.56155 -3.51171,-14.625 -0.17348,-2.648707 -0.46909,-4.814448 -0.65625,-4.814448 -0.18709,0 -0.75895,0.462851 -1.27149,1.029297 -0.99745,1.102269 -3.62891,2.631631 -3.62891,2.109371 0,-0.17291 1.22071,-1.630605 2.71094,-3.240231 8.31806,-8.984564 10.03125,-23.801247 4.0918,-35.375 -2.78393,-5.424793 -4.11518,-9.255962 -5.07227,-14.599609 -0.44727,-2.497436 -0.96358,-5.159203 -1.14843,-5.916016 z m -8.38281,89.357419 c 0.35716,0 0.45366,0.86872 0.2832,2.57032 -0.33687,3.36522 0.39283,7.23154 2.05469,10.88671 2.15516,4.74036 2.762,4.82033 2.5957,0.33985 -0.12386,-3.33709 0.0168,-4.05294 1.26367,-6.42188 1.36248,-2.5894 2.69215,-3.96405 3.27344,-3.38281 0.15662,0.15662 -0.18891,2.00526 -0.76563,4.10742 -1.22158,4.45269 -0.89275,6.49995 1.39258,8.68946 1.18897,1.13909 2.01166,1.38835 6.01172,1.81445 8.31224,0.88564 13.28407,3.00858 17.85938,7.63086 3.71584,3.75404 5.19335,7.1765 5.51953,12.78906 0.18576,3.19483 0.0164,4.71457 -0.83789,7.52734 -1.41638,4.6632 -6.61218,15.54962 -8.23242,17.24805 -1.61065,1.68851 -4.4942,1.77909 -8.45118,0.26563 -2.96727,-1.13491 -9.04377,-5.40742 -11.61914,-8.16993 -1.89471,-2.03233 -6.19063,-8.06468 -8.0957,-11.36718 -3.35894,-5.82264 -4.10657,-12.19122 -2.32422,-19.79883 1.19176,-5.08692 1.21025,-4.87787 -0.9375,-10.51758 -1.82196,-4.7841 -1.15243,-14.21094 1.00977,-14.21094 z m 3.5,20.07422 c -2.3246,0.0337 -1.99588,14.47396 0.46289,20.33594 0.5817,1.3869 0.63002,1.24922 0.86132,-2.44922 0.1807,-2.89177 0.59021,-4.63431 1.56446,-6.64844 1.51143,-3.12489 4.59272,-6.16233 7.61914,-7.51172 1.14497,-0.51052 2.08203,-1.188 2.08203,-1.50585 0,-0.47922 -10.08001,-2.25737 -12.58984,-2.22071 z m 22.81836,18.82617 c -2.71488,0.0483 -5.33008,1.93624 -5.33008,5 0,4.84135 4.6816,7.42875 8.68945,4.80274 2.07976,-1.36271 2.78929,-5.35669 1.32227,-7.45117 -1.16047,-1.65684 -2.94136,-2.38256 -4.68164,-2.35157 z m 6.67968,11.49414 c -0.3775,0.0132 -1.35221,0.52132 -2.4375,1.29297 -4.32238,3.07314 -9.35586,3.91108 -14.42968,2.4043 -2.86851,-0.85188 -3.75059,-0.57704 -2.1836,0.67969 4.2378,3.39867 9.27554,7.1491 10.375,7.72265 2.05338,1.07132 4.2362,0.89002 4.90821,-0.4082 0.31377,-0.6061 0.98889,-2.42462 1.5,-4.04101 0.51114,-1.61638 1.30517,-3.87014 1.76367,-5.00586 0.45834,-1.13571 0.75508,-2.29315 0.66211,-2.57227 -0.0174,-0.0525 -0.0709,-0.0752 -0.15821,-0.0723 z"
       transform="scale(0.26458333)" />
    <path
       style="fill:#000000;fill-opacity:1;stroke:#000000;stroke-width:0.0244913mm"
       d="m 89.77249,59.720602 c -0.14443,-0.231281 -0.26151,-0.264702 -0.73887,-0.21089 -0.31198,0.03517 -0.59636,0.03478 -0.63197,-9.79e-4 -0.11061,-0.110618 0.30323,-0.794739 0.56575,-0.935226 0.43312,-0.231786 1.01126,-0.159198 1.23103,0.154599 0.24019,0.342942 0.26315,0.894712 0.0462,1.111646 -0.21326,0.213251 -0.27406,0.197915 -0.47216,-0.119316 z"
       id="path1449" />
    <path
       style="fill:#000000;fill-opacity:1;stroke:#000000;stroke-width:0.0244913mm"
       d="m 77.22078,25.09576 c -0.51443,-1.167971 -0.68057,-1.873767 -0.68462,-2.908491 -0.004,-0.965932 0.2504,-1.679085 0.92231,-2.587674 1.38988,-1.879449 3.10056,-2.015631 3.47354,-0.276512 0.24737,1.15338 0.0859,3.29709 -0.37828,5.02072 -0.18345,0.681251 -0.45649,0.717846 -0.32836,0.04404 0.47664,-2.506442 0.40195,-4.808484 -0.17471,-5.385161 -0.37254,-0.372542 -0.82986,-0.158719 -1.75257,0.819406 -0.88071,0.933614 -1.24668,1.751139 -1.24668,2.784962 0,0.546543 0.28635,1.752393 0.65371,2.752765 0.38916,1.059774 0.007,0.851392 -0.48433,-0.26408 z"
       id="path1459" />
    <path
       style="fill:#000000;fill-opacity:1;stroke:#000000;stroke-width:0.0244913mm"
       d="m 53.09178,95.445819 c 0.59792,-0.104279 1.61157,-0.371077 2.25258,-0.592939 0.64099,-0.221833 1.33739,-0.43646 1.54753,-0.47691 0.89417,-0.172115 3.35006,-1.80187 3.81006,-2.52842 L 60.96,91.44 60.5013,90.524504 c -0.52551,-1.04883 -1.09519,-1.877146 -2.06046,-2.995881 -0.62539,-0.724845 -1.67877,-1.591068 -1.78819,-1.470463 -0.0258,0.02841 -0.19737,0.351313 -0.38132,0.717605 -0.35504,0.706937 -1.47825,2.246466 -1.9995,2.740593 -1.0251,0.971792 -2.59068,1.861458 -4.04762,2.300191 -0.39205,0.118063 -0.79188,0.238815 -0.88854,0.268351 -0.11385,0.03483 -0.14879,0.161143 -0.0992,0.358671 0.0421,0.167721 0.11386,0.881589 0.15947,1.586405 0.0456,0.704782 0.14114,1.354346 0.21228,1.443435 0.18001,0.225453 2.12075,0.210087 3.48357,-0.02758 z"
       id="path1461" />
    <path
       style="fill:#000000;fill-opacity:1;stroke:#000000;stroke-width:0.0244913mm"
       d="m 108.99776,94.404282 c 0.57025,-0.104073 1.44505,-0.254901 1.94399,-0.335203 1.64677,-0.265001 6.0875,-1.457997 6.21895,-1.670714 0.0865,-0.139944 -1.16079,-2.569825 -1.92403,-3.74823 -1.17962,-1.821361 -3.53736,-4.54916 -3.932,-4.54916 -0.0978,0 -0.2917,0.265902 -0.43102,0.590878 -0.67031,1.563741 -2.23929,3.425258 -3.7157,4.408437 -0.93185,0.620561 -2.2862,1.212516 -3.2329,1.413032 -1.22194,0.258819 -1.28048,0.315321 -0.88163,0.851009 0.18339,0.246319 0.60012,0.943568 0.92605,1.549453 1.00797,1.873679 0.73101,1.685184 2.47168,1.682255 0.83588,-0.0015 1.98636,-0.08769 2.55661,-0.191757 z"
       id="path1463" />
    <path
       style="fill:#000000;fill-opacity:1;stroke:#000000;stroke-width:0.0244913mm"
       d="m 103.48975,90.033096 c 1.86188,-0.8137 3.52948,-1.948843 4.98792,-3.3953 1.0918,-1.08283 2.39927,-2.677425 2.39927,-2.926135 0,-0.136985 -0.68574,-0.532338 -3.0456,-1.75592 -1.0692,-0.55437 -2.33376,-1.226446 -2.81014,-1.493456 -0.47637,-0.267033 -1.00126,-0.527552 -1.16638,-0.578916 -0.16515,-0.05136 -0.79597,-0.341031 -1.40185,-0.643676 -1.44811,-0.723346 -3.27168,-1.491036 -4.79518,-2.018682 l -1.23121,-0.426384 -6.99838,-0.08867 c -3.84912,-0.04879 -7.36947,-0.131754 -7.82299,-0.184435 l -0.82459,-0.09576 0.0938,0.95403 c 0.0516,0.524717 0.13249,1.187315 0.17982,1.472409 l 0.086,0.518407 1.35759,0.08685 c 1.77103,0.113307 3.27111,0.580356 6.60638,2.056918 0.89304,0.395354 6.8562,3.388845 8.79807,4.416569 0.92085,0.487377 2.70523,2.19235 3.81445,3.644729 0.72987,0.955647 0.66897,0.939948 1.77308,0.45742 z"
       id="path1465" />
    <path
       style="fill:#000000;fill-opacity:1;stroke:#000000;stroke-width:0.0244913mm"
       d="m 27.66825,86.713641 c 0.0721,-0.267754 0.398,-0.903985 0.72422,-1.413899 0.66764,-1.043546 0.6784,-0.928201 -0.20845,-2.235553 -0.70793,-1.04357 -1.8768,-3.171733 -2.38821,-4.348164 -0.32445,-0.746368 -0.57448,-1.121423 -0.9186,-1.378029 -1.67933,-1.252128 -2.52087,-2.133002 -3.22739,-3.378224 -0.88903,-1.566916 -1.14794,-2.47114 -1.07971,-3.770953 0.0521,-0.992599 0.0969,-1.143549 0.51093,-1.719893 0.52395,-0.72942 1.20138,-1.235989 2.1216,-1.586465 l 0.64799,-0.246799 0.5466,-1.602937 c 0.30063,-0.881624 0.5485,-1.612503 0.5508,-1.624225 0.0166,-0.08431 -1.42833,-0.872263 -1.91732,-1.045574 -2.45319,-0.869392 -7.0251,0.738923 -9.03818,3.179449 -0.85041,1.030981 -1.35448,2.049086 -1.80126,3.638151 -0.37894,1.347767 -0.40844,2.108609 -0.1297,3.345641 0.90515,4.017091 3.86611,7.762299 8.54906,10.813432 1.52754,0.995259 2.01055,1.287856 3.23084,1.95718 0.64654,0.354634 1.49178,0.818573 1.87827,1.030986 0.3865,0.212418 0.90654,0.524717 1.15565,0.693991 0.2491,0.169274 0.49992,0.278726 0.55735,0.243238 0.0574,-0.03551 0.16342,-0.2836 0.23551,-0.551353 z"
       id="path1467" />
    <path
       style="fill:#000000;fill-opacity:1;stroke:#000000;stroke-width:0.0244913mm"
       d="M 24.38748,74.869585 C 23.9334,73.28581 23.78582,72.014514 23.78582,69.68706 v -2.332533 l -0.34652,0.08697 c -0.59631,0.149667 -1.42553,0.846195 -1.7777,1.493251 -0.63728,1.1709 -0.35699,2.784031 0.79972,4.602795 0.58257,0.916 2.00118,2.377108 2.07964,2.141942 0.0233,-0.06981 -0.0458,-0.43425 -0.15348,-0.809869 z"
       id="path1469" />
    <path
       style="fill:#000000;fill-opacity:1;stroke:#000000;stroke-width:0.0244913mm"
       d="m 80.65115,70.71981 c 1.46441,-1.504727 1.82656,-1.966746 2.41014,-3.074777 0.56103,-1.065216 1.11808,-2.728157 1.11808,-3.337809 0,-0.339715 -0.0919,-0.350927 -1.28621,-0.157137 -0.95985,0.155731 -2.1698,0.01122 -3.41321,-0.407638 -0.63398,-0.213584 -0.80536,-0.231463 -0.8988,-0.09385 -0.12885,0.189754 -0.0376,3.173105 0.14004,4.576423 0.10632,0.840185 0.6025,2.972443 0.74553,3.203906 0.14398,0.232981 0.44015,0.05569 1.18444,-0.709088 z"
       id="path1471" />
    <path
       style="fill:#000000;fill-opacity:1;stroke:#000000;stroke-width:0.0244913mm"
       d="m 57.84298,55.880618 c 0.72138,-0.915431 1.52357,-2.704718 1.97591,-4.407208 0.31574,-1.188333 0.7289,-4.688422 0.90634,-7.677994 0.35062,-5.907575 0.99053,-9.098172 2.61224,-13.024797 1.47256,-3.56547 4.10726,-6.652924 7.78665,-9.124662 0.73914,-0.496551 1.0029,-0.748278 1.00416,-0.958365 0.003,-0.610994 0.51169,-2.713148 0.81677,-3.379508 0.48246,-1.05383 1.64879,-2.75169 2.60875,-3.79759 0.46974,-0.51181 0.80932,-0.95541 0.75462,-0.98579 -0.0547,-0.0304 -0.81499,0.0499 -1.68954,0.17828 -5.69134,0.83576 -10.9287,3.98438 -15.07106,9.060468 -2.10927,2.584716 -3.99027,6.206301 -4.5226,8.707575 -0.0654,0.307337 -0.17682,0.792108 -0.24757,1.077236 -0.37308,1.503439 -0.56968,4.049679 -0.49031,6.350403 0.0443,1.283041 0.10555,2.507759 0.13618,2.721607 0.0306,0.213854 0.11472,0.855374 0.18687,1.425591 0.17114,1.352675 0.76594,4.437499 1.44935,7.516792 0.30056,1.354316 0.5906,2.724836 0.64452,3.045599 0.12428,0.739255 0.37887,2.488504 0.46684,3.207579 0.0371,0.302943 0.11722,0.550785 0.17815,0.550785 0.0609,0 0.28311,-0.218693 0.49374,-0.486001 z"
       id="path1473" />
    <path
       style="fill:#000000;fill-opacity:1;stroke:#000000;stroke-width:0.0244913mm"
       d="m 107.56822,45.486576 c 0.0419,-0.06777 -0.25197,-0.333136 -0.653,-0.589678 -2.23797,-1.43163 -3.89649,-4.302517 -4.78023,-8.274553 -0.0568,-0.254984 -0.0348,-0.353317 0.071,-0.31804 0.0842,0.02807 0.33461,0.602389 0.55644,1.276287 0.39986,1.214701 0.40725,1.225644 0.85692,1.270458 1.17632,0.117255 5.14928,-0.616765 6.52139,-1.204831 0.51042,-0.218786 0.57894,-0.492427 0.14227,-0.568394 -0.56806,-0.09887 -1.89329,-0.853371 -2.72651,-1.552294 -0.49036,-0.411347 -1.25521,-1.212042 -1.69965,-1.779358 -0.44448,-0.567317 -0.89493,-1.132038 -1.00106,-1.254941 -0.18013,-0.208592 -0.29867,-0.171037 -1.7839,0.564986 -0.87502,0.433648 -1.60058,0.796624 -1.61236,0.806641 -0.0118,0.01 -0.0692,0.280641 -0.12772,0.601399 -0.20311,1.114071 -0.13008,2.651714 0.3013,6.343619 0.21296,1.822379 0.23071,1.885611 0.66499,2.366287 0.56098,0.620924 1.89099,1.631666 2.48767,1.890485 0.95837,0.415711 2.62968,0.669177 2.78248,0.421961 z"
       id="path1475" />
    <path
       style="fill:#000000;fill-opacity:1;stroke:#000000;stroke-width:0.0244913mm"
       d="m 98.33817,34.57368 c 0.26731,-0.134354 0.48601,-0.276183 0.48601,-0.31511 0,-0.03894 -0.1418,-0.256723 -0.31512,-0.483939 -0.6463,-0.84736 -0.86404,-1.793856 -0.71584,-3.1117 0.0575,-0.510992 0.22434,-1.208358 0.37087,-1.549688 0.21256,-0.495269 0.23122,-0.63411 0.0923,-0.687418 -0.18998,-0.07292 -2.86161,0.609026 -3.29532,0.841145 -0.80201,0.429225 -0.33559,3.656686 0.72846,5.041141 0.50833,0.661374 1.63639,0.774499 2.64869,0.265599 z"
       id="path1477" />
    <path
       style="fill:#000000;fill-opacity:1;stroke:#000000;stroke-width:0.0244913mm"
       d="m 100.4504,33.574684 c 0.56681,-0.275405 1.0889,-0.523698 1.16017,-0.55174 0.0713,-0.02807 0.4921,-0.239951 0.93516,-0.470875 l 0.80557,-0.419899 -0.27702,-0.615986 c -0.20775,-0.461936 -0.27771,-0.876539 -0.27974,-1.657861 -0.002,-0.905057 0.0519,-1.158641 0.41332,-1.93096 0.22882,-0.488993 0.39126,-0.913825 0.361,-0.944106 -0.0498,-0.04978 -1.63233,0.318936 -2.60624,0.607258 -0.21385,0.06329 -0.76787,0.216302 -1.2312,0.339983 -0.46331,0.123686 -0.85845,0.236454 -0.8781,0.250625 -0.0196,0.01416 -0.12762,0.544241 -0.23998,1.178018 -0.28381,1.600904 -0.18679,2.998393 0.27571,3.97111 0.19487,0.409853 0.39403,0.745202 0.44259,0.745202 0.0485,0 0.55201,-0.22533 1.11882,-0.500739 z"
       id="path1479" />
    <path
       style="fill:#000000;fill-opacity:1;stroke:#000000;stroke-width:0.0244913mm"
       d="m 107.89616,29.82284 c 0,-0.06252 -0.10987,-0.213075 -0.24417,-0.334635 -0.1343,-0.121531 -0.31864,-0.486927 -0.40964,-0.811966 -0.19275,-0.688456 -0.0107,-1.664552 0.42653,-2.287087 0.14055,-0.200129 0.21908,-0.40035 0.17448,-0.444954 -0.0446,-0.04457 -0.61958,0.05286 -1.27772,0.216543 -0.65818,0.163685 -1.41531,0.351583 -1.68256,0.417503 -0.57129,0.140963 -0.85136,0.598833 -1.18226,1.93264 -0.23816,0.960069 -0.28479,3.106111 -0.0721,3.318794 0.0988,0.09881 0.73477,-0.154384 2.2032,-0.877137 1.13536,-0.558828 2.06431,-1.06719 2.06431,-1.129701 z"
       id="path1481" />
    <path
       style="fill:#000000;fill-opacity:1;stroke:#000000;stroke-width:0.0244913mm"
       d="m 110.37686,28.740191 c 1.05911,-0.510874 1.9257,-0.999922 1.9257,-1.086773 0,-0.08688 -0.0871,-0.325005 -0.19361,-0.529169 -0.24312,-0.466148 -0.24348,-1.307469 -9.8e-4,-1.732002 0.10186,-0.178184 0.18728,-0.37287 0.18982,-0.432604 0.006,-0.133219 -0.73355,-0.02474 -2.24043,0.328864 -1.08351,0.25424 -1.16059,0.295527 -1.47139,0.787866 -0.3706,0.587077 -0.82102,1.811256 -0.81675,2.219761 0.003,0.314395 0.45996,1.372915 0.59232,1.372915 0.0492,0 0.956,-0.417984 2.01512,-0.928829 z"
       id="path1483" />
    <path
       style="fill:#000000;fill-opacity:1;stroke:#000000;stroke-width:0.0244913mm"
       d="m 114.08425,26.839694 c 0.62385,-0.344382 1.65917,-0.906708 2.3007,-1.24962 1.85867,-0.993525 2.77859,-1.626738 2.78442,-1.916583 0.004,-0.229935 -5.31972,0.839616 -5.75017,1.155084 -0.38671,0.283423 -0.85744,1.293896 -0.85744,1.840674 0,0.462803 0.1143,0.796571 0.27275,0.796571 0.0635,0 0.62586,-0.281749 1.24974,-0.626126 z"
       id="path1485" />
    <path
       style="fill:#000000;fill-opacity:1;stroke:#000000;stroke-width:0.0244913mm"
       d="m 101.22176,26.835776 c 0.82614,-0.214481 0.90434,-0.263419 0.8752,-0.547857 -0.0296,-0.289159 -0.46155,-1.468788 -0.87358,-2.385929 -1.4452,-3.216759 -1.93515,-4.017179 -3.35994,-5.48923 -1.68048,-1.736246 -3.03689,-2.598076 -5.54298,-3.522006 -1.9356,-0.71357 -3.74772,-1.13063 -6.19706,-1.42624 -2.47559,-0.2988 -3.24001,-0.31775 -3.24001,-0.0804 0,0.28345 0.48041,1.5954 0.90007,2.45798 0.21469,0.44128 0.47606,1.13835 0.58085,1.54907 0.10479,0.41072 0.22612,0.804364 0.26965,0.874801 0.0436,0.07044 0.54286,0.12805 1.10966,0.12805 3.34479,0 8.63173,2.32524 11.63965,5.1192 0.8755,0.813215 2.19355,2.48629 2.49473,3.166679 0.20539,0.463998 0.17191,0.460108 1.34379,0.155882 z"
       id="path1487" />
  </g>
</svg>
