%TF.GenerationSoftware,KiCad,Pcbnew,8.0.1*%
%TF.CreationDate,2024-04-02T10:45:20+02:00*%
%TF.ProjectId,Robo_II,526f626f-5f49-4492-9e6b-696361645f70,rev?*%
%TF.SameCoordinates,Original*%
%TF.FileFunction,Legend,Bot*%
%TF.FilePolarity,Positive*%
%FSLAX46Y46*%
G04 Gerber Fmt 4.6, Leading zero omitted, Abs format (unit mm)*
G04 Created by KiCad (PCBNEW 8.0.1) date 2024-04-02 10:45:20*
%MOMM*%
%LPD*%
G01*
G04 APERTURE LIST*
%ADD10C,0.150000*%
%ADD11C,0.300000*%
%ADD12C,0.050000*%
%ADD13C,0.120000*%
%ADD14C,0.010000*%
G04 APERTURE END LIST*
D10*
X56134000Y-73914000D02*
G75*
G02*
X45974000Y-73914000I-5080000J0D01*
G01*
X45974000Y-73914000D02*
G75*
G02*
X56134000Y-73914000I5080000J0D01*
G01*
X97599108Y-73406000D02*
G75*
G02*
X87312892Y-73406000I-5143108J0D01*
G01*
X87312892Y-73406000D02*
G75*
G02*
X97599108Y-73406000I5143108J0D01*
G01*
X95312856Y-54434819D02*
X94741428Y-54434819D01*
X95027142Y-55434819D02*
X95027142Y-54434819D01*
X93884285Y-55434819D02*
X94455713Y-55434819D01*
X94169999Y-55434819D02*
X94169999Y-54434819D01*
X94169999Y-54434819D02*
X94265237Y-54577676D01*
X94265237Y-54577676D02*
X94360475Y-54672914D01*
X94360475Y-54672914D02*
X94455713Y-54720533D01*
X93693809Y-55530057D02*
X92931904Y-55530057D01*
X92360475Y-54911009D02*
X92217618Y-54958628D01*
X92217618Y-54958628D02*
X92169999Y-55006247D01*
X92169999Y-55006247D02*
X92122380Y-55101485D01*
X92122380Y-55101485D02*
X92122380Y-55244342D01*
X92122380Y-55244342D02*
X92169999Y-55339580D01*
X92169999Y-55339580D02*
X92217618Y-55387200D01*
X92217618Y-55387200D02*
X92312856Y-55434819D01*
X92312856Y-55434819D02*
X92693808Y-55434819D01*
X92693808Y-55434819D02*
X92693808Y-54434819D01*
X92693808Y-54434819D02*
X92360475Y-54434819D01*
X92360475Y-54434819D02*
X92265237Y-54482438D01*
X92265237Y-54482438D02*
X92217618Y-54530057D01*
X92217618Y-54530057D02*
X92169999Y-54625295D01*
X92169999Y-54625295D02*
X92169999Y-54720533D01*
X92169999Y-54720533D02*
X92217618Y-54815771D01*
X92217618Y-54815771D02*
X92265237Y-54863390D01*
X92265237Y-54863390D02*
X92360475Y-54911009D01*
X92360475Y-54911009D02*
X92693808Y-54911009D01*
X55744856Y-55284019D02*
X55173428Y-55284019D01*
X55459142Y-56284019D02*
X55459142Y-55284019D01*
X54887713Y-55379257D02*
X54840094Y-55331638D01*
X54840094Y-55331638D02*
X54744856Y-55284019D01*
X54744856Y-55284019D02*
X54506761Y-55284019D01*
X54506761Y-55284019D02*
X54411523Y-55331638D01*
X54411523Y-55331638D02*
X54363904Y-55379257D01*
X54363904Y-55379257D02*
X54316285Y-55474495D01*
X54316285Y-55474495D02*
X54316285Y-55569733D01*
X54316285Y-55569733D02*
X54363904Y-55712590D01*
X54363904Y-55712590D02*
X54935332Y-56284019D01*
X54935332Y-56284019D02*
X54316285Y-56284019D01*
X54125809Y-56379257D02*
X53363904Y-56379257D01*
X52792475Y-55760209D02*
X52649618Y-55807828D01*
X52649618Y-55807828D02*
X52601999Y-55855447D01*
X52601999Y-55855447D02*
X52554380Y-55950685D01*
X52554380Y-55950685D02*
X52554380Y-56093542D01*
X52554380Y-56093542D02*
X52601999Y-56188780D01*
X52601999Y-56188780D02*
X52649618Y-56236400D01*
X52649618Y-56236400D02*
X52744856Y-56284019D01*
X52744856Y-56284019D02*
X53125808Y-56284019D01*
X53125808Y-56284019D02*
X53125808Y-55284019D01*
X53125808Y-55284019D02*
X52792475Y-55284019D01*
X52792475Y-55284019D02*
X52697237Y-55331638D01*
X52697237Y-55331638D02*
X52649618Y-55379257D01*
X52649618Y-55379257D02*
X52601999Y-55474495D01*
X52601999Y-55474495D02*
X52601999Y-55569733D01*
X52601999Y-55569733D02*
X52649618Y-55664971D01*
X52649618Y-55664971D02*
X52697237Y-55712590D01*
X52697237Y-55712590D02*
X52792475Y-55760209D01*
X52792475Y-55760209D02*
X53125808Y-55760209D01*
X58173904Y-90116819D02*
X58173904Y-89116819D01*
X57602476Y-90116819D02*
X58031047Y-89545390D01*
X57602476Y-89116819D02*
X58173904Y-89688247D01*
D11*
X62687104Y-53487733D02*
X61163295Y-53487733D01*
X61925199Y-54249638D02*
X61925199Y-52725828D01*
D10*
X52891904Y-58794819D02*
X52320476Y-58794819D01*
X52606190Y-59794819D02*
X52606190Y-58794819D01*
X52034761Y-58890057D02*
X51987142Y-58842438D01*
X51987142Y-58842438D02*
X51891904Y-58794819D01*
X51891904Y-58794819D02*
X51653809Y-58794819D01*
X51653809Y-58794819D02*
X51558571Y-58842438D01*
X51558571Y-58842438D02*
X51510952Y-58890057D01*
X51510952Y-58890057D02*
X51463333Y-58985295D01*
X51463333Y-58985295D02*
X51463333Y-59080533D01*
X51463333Y-59080533D02*
X51510952Y-59223390D01*
X51510952Y-59223390D02*
X52082380Y-59794819D01*
X52082380Y-59794819D02*
X51463333Y-59794819D01*
X48879887Y-61866009D02*
X48737030Y-61913628D01*
X48737030Y-61913628D02*
X48689411Y-61961247D01*
X48689411Y-61961247D02*
X48641792Y-62056485D01*
X48641792Y-62056485D02*
X48641792Y-62199342D01*
X48641792Y-62199342D02*
X48689411Y-62294580D01*
X48689411Y-62294580D02*
X48737030Y-62342200D01*
X48737030Y-62342200D02*
X48832268Y-62389819D01*
X48832268Y-62389819D02*
X49213220Y-62389819D01*
X49213220Y-62389819D02*
X49213220Y-61389819D01*
X49213220Y-61389819D02*
X48879887Y-61389819D01*
X48879887Y-61389819D02*
X48784649Y-61437438D01*
X48784649Y-61437438D02*
X48737030Y-61485057D01*
X48737030Y-61485057D02*
X48689411Y-61580295D01*
X48689411Y-61580295D02*
X48689411Y-61675533D01*
X48689411Y-61675533D02*
X48737030Y-61770771D01*
X48737030Y-61770771D02*
X48784649Y-61818390D01*
X48784649Y-61818390D02*
X48879887Y-61866009D01*
X48879887Y-61866009D02*
X49213220Y-61866009D01*
X47641792Y-62294580D02*
X47689411Y-62342200D01*
X47689411Y-62342200D02*
X47832268Y-62389819D01*
X47832268Y-62389819D02*
X47927506Y-62389819D01*
X47927506Y-62389819D02*
X48070363Y-62342200D01*
X48070363Y-62342200D02*
X48165601Y-62246961D01*
X48165601Y-62246961D02*
X48213220Y-62151723D01*
X48213220Y-62151723D02*
X48260839Y-61961247D01*
X48260839Y-61961247D02*
X48260839Y-61818390D01*
X48260839Y-61818390D02*
X48213220Y-61627914D01*
X48213220Y-61627914D02*
X48165601Y-61532676D01*
X48165601Y-61532676D02*
X48070363Y-61437438D01*
X48070363Y-61437438D02*
X47927506Y-61389819D01*
X47927506Y-61389819D02*
X47832268Y-61389819D01*
X47832268Y-61389819D02*
X47689411Y-61437438D01*
X47689411Y-61437438D02*
X47641792Y-61485057D01*
X46737030Y-61389819D02*
X47213220Y-61389819D01*
X47213220Y-61389819D02*
X47260839Y-61866009D01*
X47260839Y-61866009D02*
X47213220Y-61818390D01*
X47213220Y-61818390D02*
X47117982Y-61770771D01*
X47117982Y-61770771D02*
X46879887Y-61770771D01*
X46879887Y-61770771D02*
X46784649Y-61818390D01*
X46784649Y-61818390D02*
X46737030Y-61866009D01*
X46737030Y-61866009D02*
X46689411Y-61961247D01*
X46689411Y-61961247D02*
X46689411Y-62199342D01*
X46689411Y-62199342D02*
X46737030Y-62294580D01*
X46737030Y-62294580D02*
X46784649Y-62342200D01*
X46784649Y-62342200D02*
X46879887Y-62389819D01*
X46879887Y-62389819D02*
X47117982Y-62389819D01*
X47117982Y-62389819D02*
X47213220Y-62342200D01*
X47213220Y-62342200D02*
X47260839Y-62294580D01*
X45832268Y-61723152D02*
X45832268Y-62389819D01*
X46070363Y-61342200D02*
X46308458Y-62056485D01*
X46308458Y-62056485D02*
X45689411Y-62056485D01*
X45165601Y-61818390D02*
X45260839Y-61770771D01*
X45260839Y-61770771D02*
X45308458Y-61723152D01*
X45308458Y-61723152D02*
X45356077Y-61627914D01*
X45356077Y-61627914D02*
X45356077Y-61580295D01*
X45356077Y-61580295D02*
X45308458Y-61485057D01*
X45308458Y-61485057D02*
X45260839Y-61437438D01*
X45260839Y-61437438D02*
X45165601Y-61389819D01*
X45165601Y-61389819D02*
X44975125Y-61389819D01*
X44975125Y-61389819D02*
X44879887Y-61437438D01*
X44879887Y-61437438D02*
X44832268Y-61485057D01*
X44832268Y-61485057D02*
X44784649Y-61580295D01*
X44784649Y-61580295D02*
X44784649Y-61627914D01*
X44784649Y-61627914D02*
X44832268Y-61723152D01*
X44832268Y-61723152D02*
X44879887Y-61770771D01*
X44879887Y-61770771D02*
X44975125Y-61818390D01*
X44975125Y-61818390D02*
X45165601Y-61818390D01*
X45165601Y-61818390D02*
X45260839Y-61866009D01*
X45260839Y-61866009D02*
X45308458Y-61913628D01*
X45308458Y-61913628D02*
X45356077Y-62008866D01*
X45356077Y-62008866D02*
X45356077Y-62199342D01*
X45356077Y-62199342D02*
X45308458Y-62294580D01*
X45308458Y-62294580D02*
X45260839Y-62342200D01*
X45260839Y-62342200D02*
X45165601Y-62389819D01*
X45165601Y-62389819D02*
X44975125Y-62389819D01*
X44975125Y-62389819D02*
X44879887Y-62342200D01*
X44879887Y-62342200D02*
X44832268Y-62294580D01*
X44832268Y-62294580D02*
X44784649Y-62199342D01*
X44784649Y-62199342D02*
X44784649Y-62008866D01*
X44784649Y-62008866D02*
X44832268Y-61913628D01*
X44832268Y-61913628D02*
X44879887Y-61866009D01*
X44879887Y-61866009D02*
X44975125Y-61818390D01*
X65150904Y-63764438D02*
X65246142Y-63716819D01*
X65246142Y-63716819D02*
X65388999Y-63716819D01*
X65388999Y-63716819D02*
X65531856Y-63764438D01*
X65531856Y-63764438D02*
X65627094Y-63859676D01*
X65627094Y-63859676D02*
X65674713Y-63954914D01*
X65674713Y-63954914D02*
X65722332Y-64145390D01*
X65722332Y-64145390D02*
X65722332Y-64288247D01*
X65722332Y-64288247D02*
X65674713Y-64478723D01*
X65674713Y-64478723D02*
X65627094Y-64573961D01*
X65627094Y-64573961D02*
X65531856Y-64669200D01*
X65531856Y-64669200D02*
X65388999Y-64716819D01*
X65388999Y-64716819D02*
X65293761Y-64716819D01*
X65293761Y-64716819D02*
X65150904Y-64669200D01*
X65150904Y-64669200D02*
X65103285Y-64621580D01*
X65103285Y-64621580D02*
X65103285Y-64288247D01*
X65103285Y-64288247D02*
X65293761Y-64288247D01*
X64674713Y-64716819D02*
X64674713Y-63716819D01*
X64674713Y-63716819D02*
X64103285Y-64716819D01*
X64103285Y-64716819D02*
X64103285Y-63716819D01*
X63627094Y-64716819D02*
X63627094Y-63716819D01*
X63627094Y-63716819D02*
X63388999Y-63716819D01*
X63388999Y-63716819D02*
X63246142Y-63764438D01*
X63246142Y-63764438D02*
X63150904Y-63859676D01*
X63150904Y-63859676D02*
X63103285Y-63954914D01*
X63103285Y-63954914D02*
X63055666Y-64145390D01*
X63055666Y-64145390D02*
X63055666Y-64288247D01*
X63055666Y-64288247D02*
X63103285Y-64478723D01*
X63103285Y-64478723D02*
X63150904Y-64573961D01*
X63150904Y-64573961D02*
X63246142Y-64669200D01*
X63246142Y-64669200D02*
X63388999Y-64716819D01*
X63388999Y-64716819D02*
X63627094Y-64716819D01*
X62350180Y-123997506D02*
X61635895Y-123997506D01*
X61635895Y-123997506D02*
X61493038Y-124045125D01*
X61493038Y-124045125D02*
X61397800Y-124140363D01*
X61397800Y-124140363D02*
X61350180Y-124283220D01*
X61350180Y-124283220D02*
X61350180Y-124378458D01*
X61350180Y-123045125D02*
X61350180Y-123521315D01*
X61350180Y-123521315D02*
X62350180Y-123521315D01*
X61445419Y-122140363D02*
X61397800Y-122187982D01*
X61397800Y-122187982D02*
X61350180Y-122330839D01*
X61350180Y-122330839D02*
X61350180Y-122426077D01*
X61350180Y-122426077D02*
X61397800Y-122568934D01*
X61397800Y-122568934D02*
X61493038Y-122664172D01*
X61493038Y-122664172D02*
X61588276Y-122711791D01*
X61588276Y-122711791D02*
X61778752Y-122759410D01*
X61778752Y-122759410D02*
X61921609Y-122759410D01*
X61921609Y-122759410D02*
X62112085Y-122711791D01*
X62112085Y-122711791D02*
X62207323Y-122664172D01*
X62207323Y-122664172D02*
X62302561Y-122568934D01*
X62302561Y-122568934D02*
X62350180Y-122426077D01*
X62350180Y-122426077D02*
X62350180Y-122330839D01*
X62350180Y-122330839D02*
X62302561Y-122187982D01*
X62302561Y-122187982D02*
X62254942Y-122140363D01*
X62350180Y-121426077D02*
X61635895Y-121426077D01*
X61635895Y-121426077D02*
X61493038Y-121473696D01*
X61493038Y-121473696D02*
X61397800Y-121568934D01*
X61397800Y-121568934D02*
X61350180Y-121711791D01*
X61350180Y-121711791D02*
X61350180Y-121807029D01*
X61350180Y-120473696D02*
X61350180Y-120949886D01*
X61350180Y-120949886D02*
X62350180Y-120949886D01*
X61445419Y-119568934D02*
X61397800Y-119616553D01*
X61397800Y-119616553D02*
X61350180Y-119759410D01*
X61350180Y-119759410D02*
X61350180Y-119854648D01*
X61350180Y-119854648D02*
X61397800Y-119997505D01*
X61397800Y-119997505D02*
X61493038Y-120092743D01*
X61493038Y-120092743D02*
X61588276Y-120140362D01*
X61588276Y-120140362D02*
X61778752Y-120187981D01*
X61778752Y-120187981D02*
X61921609Y-120187981D01*
X61921609Y-120187981D02*
X62112085Y-120140362D01*
X62112085Y-120140362D02*
X62207323Y-120092743D01*
X62207323Y-120092743D02*
X62302561Y-119997505D01*
X62302561Y-119997505D02*
X62350180Y-119854648D01*
X62350180Y-119854648D02*
X62350180Y-119759410D01*
X62350180Y-119759410D02*
X62302561Y-119616553D01*
X62302561Y-119616553D02*
X62254942Y-119568934D01*
X62350180Y-118854648D02*
X61635895Y-118854648D01*
X61635895Y-118854648D02*
X61493038Y-118902267D01*
X61493038Y-118902267D02*
X61397800Y-118997505D01*
X61397800Y-118997505D02*
X61350180Y-119140362D01*
X61350180Y-119140362D02*
X61350180Y-119235600D01*
X61350180Y-117902267D02*
X61350180Y-118378457D01*
X61350180Y-118378457D02*
X62350180Y-118378457D01*
X61445419Y-116997505D02*
X61397800Y-117045124D01*
X61397800Y-117045124D02*
X61350180Y-117187981D01*
X61350180Y-117187981D02*
X61350180Y-117283219D01*
X61350180Y-117283219D02*
X61397800Y-117426076D01*
X61397800Y-117426076D02*
X61493038Y-117521314D01*
X61493038Y-117521314D02*
X61588276Y-117568933D01*
X61588276Y-117568933D02*
X61778752Y-117616552D01*
X61778752Y-117616552D02*
X61921609Y-117616552D01*
X61921609Y-117616552D02*
X62112085Y-117568933D01*
X62112085Y-117568933D02*
X62207323Y-117521314D01*
X62207323Y-117521314D02*
X62302561Y-117426076D01*
X62302561Y-117426076D02*
X62350180Y-117283219D01*
X62350180Y-117283219D02*
X62350180Y-117187981D01*
X62350180Y-117187981D02*
X62302561Y-117045124D01*
X62302561Y-117045124D02*
X62254942Y-116997505D01*
X62350180Y-116283219D02*
X61635895Y-116283219D01*
X61635895Y-116283219D02*
X61493038Y-116330838D01*
X61493038Y-116330838D02*
X61397800Y-116426076D01*
X61397800Y-116426076D02*
X61350180Y-116568933D01*
X61350180Y-116568933D02*
X61350180Y-116664171D01*
X61350180Y-115330838D02*
X61350180Y-115807028D01*
X61350180Y-115807028D02*
X62350180Y-115807028D01*
X61445419Y-114426076D02*
X61397800Y-114473695D01*
X61397800Y-114473695D02*
X61350180Y-114616552D01*
X61350180Y-114616552D02*
X61350180Y-114711790D01*
X61350180Y-114711790D02*
X61397800Y-114854647D01*
X61397800Y-114854647D02*
X61493038Y-114949885D01*
X61493038Y-114949885D02*
X61588276Y-114997504D01*
X61588276Y-114997504D02*
X61778752Y-115045123D01*
X61778752Y-115045123D02*
X61921609Y-115045123D01*
X61921609Y-115045123D02*
X62112085Y-114997504D01*
X62112085Y-114997504D02*
X62207323Y-114949885D01*
X62207323Y-114949885D02*
X62302561Y-114854647D01*
X62302561Y-114854647D02*
X62350180Y-114711790D01*
X62350180Y-114711790D02*
X62350180Y-114616552D01*
X62350180Y-114616552D02*
X62302561Y-114473695D01*
X62302561Y-114473695D02*
X62254942Y-114426076D01*
X90819887Y-62076009D02*
X90677030Y-62123628D01*
X90677030Y-62123628D02*
X90629411Y-62171247D01*
X90629411Y-62171247D02*
X90581792Y-62266485D01*
X90581792Y-62266485D02*
X90581792Y-62409342D01*
X90581792Y-62409342D02*
X90629411Y-62504580D01*
X90629411Y-62504580D02*
X90677030Y-62552200D01*
X90677030Y-62552200D02*
X90772268Y-62599819D01*
X90772268Y-62599819D02*
X91153220Y-62599819D01*
X91153220Y-62599819D02*
X91153220Y-61599819D01*
X91153220Y-61599819D02*
X90819887Y-61599819D01*
X90819887Y-61599819D02*
X90724649Y-61647438D01*
X90724649Y-61647438D02*
X90677030Y-61695057D01*
X90677030Y-61695057D02*
X90629411Y-61790295D01*
X90629411Y-61790295D02*
X90629411Y-61885533D01*
X90629411Y-61885533D02*
X90677030Y-61980771D01*
X90677030Y-61980771D02*
X90724649Y-62028390D01*
X90724649Y-62028390D02*
X90819887Y-62076009D01*
X90819887Y-62076009D02*
X91153220Y-62076009D01*
X89581792Y-62504580D02*
X89629411Y-62552200D01*
X89629411Y-62552200D02*
X89772268Y-62599819D01*
X89772268Y-62599819D02*
X89867506Y-62599819D01*
X89867506Y-62599819D02*
X90010363Y-62552200D01*
X90010363Y-62552200D02*
X90105601Y-62456961D01*
X90105601Y-62456961D02*
X90153220Y-62361723D01*
X90153220Y-62361723D02*
X90200839Y-62171247D01*
X90200839Y-62171247D02*
X90200839Y-62028390D01*
X90200839Y-62028390D02*
X90153220Y-61837914D01*
X90153220Y-61837914D02*
X90105601Y-61742676D01*
X90105601Y-61742676D02*
X90010363Y-61647438D01*
X90010363Y-61647438D02*
X89867506Y-61599819D01*
X89867506Y-61599819D02*
X89772268Y-61599819D01*
X89772268Y-61599819D02*
X89629411Y-61647438D01*
X89629411Y-61647438D02*
X89581792Y-61695057D01*
X88677030Y-61599819D02*
X89153220Y-61599819D01*
X89153220Y-61599819D02*
X89200839Y-62076009D01*
X89200839Y-62076009D02*
X89153220Y-62028390D01*
X89153220Y-62028390D02*
X89057982Y-61980771D01*
X89057982Y-61980771D02*
X88819887Y-61980771D01*
X88819887Y-61980771D02*
X88724649Y-62028390D01*
X88724649Y-62028390D02*
X88677030Y-62076009D01*
X88677030Y-62076009D02*
X88629411Y-62171247D01*
X88629411Y-62171247D02*
X88629411Y-62409342D01*
X88629411Y-62409342D02*
X88677030Y-62504580D01*
X88677030Y-62504580D02*
X88724649Y-62552200D01*
X88724649Y-62552200D02*
X88819887Y-62599819D01*
X88819887Y-62599819D02*
X89057982Y-62599819D01*
X89057982Y-62599819D02*
X89153220Y-62552200D01*
X89153220Y-62552200D02*
X89200839Y-62504580D01*
X87772268Y-61933152D02*
X87772268Y-62599819D01*
X88010363Y-61552200D02*
X88248458Y-62266485D01*
X88248458Y-62266485D02*
X87629411Y-62266485D01*
X87105601Y-62028390D02*
X87200839Y-61980771D01*
X87200839Y-61980771D02*
X87248458Y-61933152D01*
X87248458Y-61933152D02*
X87296077Y-61837914D01*
X87296077Y-61837914D02*
X87296077Y-61790295D01*
X87296077Y-61790295D02*
X87248458Y-61695057D01*
X87248458Y-61695057D02*
X87200839Y-61647438D01*
X87200839Y-61647438D02*
X87105601Y-61599819D01*
X87105601Y-61599819D02*
X86915125Y-61599819D01*
X86915125Y-61599819D02*
X86819887Y-61647438D01*
X86819887Y-61647438D02*
X86772268Y-61695057D01*
X86772268Y-61695057D02*
X86724649Y-61790295D01*
X86724649Y-61790295D02*
X86724649Y-61837914D01*
X86724649Y-61837914D02*
X86772268Y-61933152D01*
X86772268Y-61933152D02*
X86819887Y-61980771D01*
X86819887Y-61980771D02*
X86915125Y-62028390D01*
X86915125Y-62028390D02*
X87105601Y-62028390D01*
X87105601Y-62028390D02*
X87200839Y-62076009D01*
X87200839Y-62076009D02*
X87248458Y-62123628D01*
X87248458Y-62123628D02*
X87296077Y-62218866D01*
X87296077Y-62218866D02*
X87296077Y-62409342D01*
X87296077Y-62409342D02*
X87248458Y-62504580D01*
X87248458Y-62504580D02*
X87200839Y-62552200D01*
X87200839Y-62552200D02*
X87105601Y-62599819D01*
X87105601Y-62599819D02*
X86915125Y-62599819D01*
X86915125Y-62599819D02*
X86819887Y-62552200D01*
X86819887Y-62552200D02*
X86772268Y-62504580D01*
X86772268Y-62504580D02*
X86724649Y-62409342D01*
X86724649Y-62409342D02*
X86724649Y-62218866D01*
X86724649Y-62218866D02*
X86772268Y-62123628D01*
X86772268Y-62123628D02*
X86819887Y-62076009D01*
X86819887Y-62076009D02*
X86915125Y-62028390D01*
X61698094Y-87156819D02*
X61698094Y-86156819D01*
X61698094Y-86156819D02*
X61459999Y-86156819D01*
X61459999Y-86156819D02*
X61317142Y-86204438D01*
X61317142Y-86204438D02*
X61221904Y-86299676D01*
X61221904Y-86299676D02*
X61174285Y-86394914D01*
X61174285Y-86394914D02*
X61126666Y-86585390D01*
X61126666Y-86585390D02*
X61126666Y-86728247D01*
X61126666Y-86728247D02*
X61174285Y-86918723D01*
X61174285Y-86918723D02*
X61221904Y-87013961D01*
X61221904Y-87013961D02*
X61317142Y-87109200D01*
X61317142Y-87109200D02*
X61459999Y-87156819D01*
X61459999Y-87156819D02*
X61698094Y-87156819D01*
X60174285Y-87156819D02*
X60745713Y-87156819D01*
X60459999Y-87156819D02*
X60459999Y-86156819D01*
X60459999Y-86156819D02*
X60555237Y-86299676D01*
X60555237Y-86299676D02*
X60650475Y-86394914D01*
X60650475Y-86394914D02*
X60745713Y-86442533D01*
X67032094Y-87156819D02*
X67032094Y-86156819D01*
X67032094Y-86156819D02*
X66793999Y-86156819D01*
X66793999Y-86156819D02*
X66651142Y-86204438D01*
X66651142Y-86204438D02*
X66555904Y-86299676D01*
X66555904Y-86299676D02*
X66508285Y-86394914D01*
X66508285Y-86394914D02*
X66460666Y-86585390D01*
X66460666Y-86585390D02*
X66460666Y-86728247D01*
X66460666Y-86728247D02*
X66508285Y-86918723D01*
X66508285Y-86918723D02*
X66555904Y-87013961D01*
X66555904Y-87013961D02*
X66651142Y-87109200D01*
X66651142Y-87109200D02*
X66793999Y-87156819D01*
X66793999Y-87156819D02*
X67032094Y-87156819D01*
X66079713Y-86252057D02*
X66032094Y-86204438D01*
X66032094Y-86204438D02*
X65936856Y-86156819D01*
X65936856Y-86156819D02*
X65698761Y-86156819D01*
X65698761Y-86156819D02*
X65603523Y-86204438D01*
X65603523Y-86204438D02*
X65555904Y-86252057D01*
X65555904Y-86252057D02*
X65508285Y-86347295D01*
X65508285Y-86347295D02*
X65508285Y-86442533D01*
X65508285Y-86442533D02*
X65555904Y-86585390D01*
X65555904Y-86585390D02*
X66127332Y-87156819D01*
X66127332Y-87156819D02*
X65508285Y-87156819D01*
X72620094Y-87156819D02*
X72620094Y-86156819D01*
X72620094Y-86156819D02*
X72381999Y-86156819D01*
X72381999Y-86156819D02*
X72239142Y-86204438D01*
X72239142Y-86204438D02*
X72143904Y-86299676D01*
X72143904Y-86299676D02*
X72096285Y-86394914D01*
X72096285Y-86394914D02*
X72048666Y-86585390D01*
X72048666Y-86585390D02*
X72048666Y-86728247D01*
X72048666Y-86728247D02*
X72096285Y-86918723D01*
X72096285Y-86918723D02*
X72143904Y-87013961D01*
X72143904Y-87013961D02*
X72239142Y-87109200D01*
X72239142Y-87109200D02*
X72381999Y-87156819D01*
X72381999Y-87156819D02*
X72620094Y-87156819D01*
X71191523Y-86490152D02*
X71191523Y-87156819D01*
X71429618Y-86109200D02*
X71667713Y-86823485D01*
X71667713Y-86823485D02*
X71048666Y-86823485D01*
X78208094Y-87156819D02*
X78208094Y-86156819D01*
X78208094Y-86156819D02*
X77969999Y-86156819D01*
X77969999Y-86156819D02*
X77827142Y-86204438D01*
X77827142Y-86204438D02*
X77731904Y-86299676D01*
X77731904Y-86299676D02*
X77684285Y-86394914D01*
X77684285Y-86394914D02*
X77636666Y-86585390D01*
X77636666Y-86585390D02*
X77636666Y-86728247D01*
X77636666Y-86728247D02*
X77684285Y-86918723D01*
X77684285Y-86918723D02*
X77731904Y-87013961D01*
X77731904Y-87013961D02*
X77827142Y-87109200D01*
X77827142Y-87109200D02*
X77969999Y-87156819D01*
X77969999Y-87156819D02*
X78208094Y-87156819D01*
X76731904Y-86156819D02*
X77208094Y-86156819D01*
X77208094Y-86156819D02*
X77255713Y-86633009D01*
X77255713Y-86633009D02*
X77208094Y-86585390D01*
X77208094Y-86585390D02*
X77112856Y-86537771D01*
X77112856Y-86537771D02*
X76874761Y-86537771D01*
X76874761Y-86537771D02*
X76779523Y-86585390D01*
X76779523Y-86585390D02*
X76731904Y-86633009D01*
X76731904Y-86633009D02*
X76684285Y-86728247D01*
X76684285Y-86728247D02*
X76684285Y-86966342D01*
X76684285Y-86966342D02*
X76731904Y-87061580D01*
X76731904Y-87061580D02*
X76779523Y-87109200D01*
X76779523Y-87109200D02*
X76874761Y-87156819D01*
X76874761Y-87156819D02*
X77112856Y-87156819D01*
X77112856Y-87156819D02*
X77208094Y-87109200D01*
X77208094Y-87109200D02*
X77255713Y-87061580D01*
X83542094Y-87156819D02*
X83542094Y-86156819D01*
X83542094Y-86156819D02*
X83303999Y-86156819D01*
X83303999Y-86156819D02*
X83161142Y-86204438D01*
X83161142Y-86204438D02*
X83065904Y-86299676D01*
X83065904Y-86299676D02*
X83018285Y-86394914D01*
X83018285Y-86394914D02*
X82970666Y-86585390D01*
X82970666Y-86585390D02*
X82970666Y-86728247D01*
X82970666Y-86728247D02*
X83018285Y-86918723D01*
X83018285Y-86918723D02*
X83065904Y-87013961D01*
X83065904Y-87013961D02*
X83161142Y-87109200D01*
X83161142Y-87109200D02*
X83303999Y-87156819D01*
X83303999Y-87156819D02*
X83542094Y-87156819D01*
X82113523Y-86156819D02*
X82303999Y-86156819D01*
X82303999Y-86156819D02*
X82399237Y-86204438D01*
X82399237Y-86204438D02*
X82446856Y-86252057D01*
X82446856Y-86252057D02*
X82542094Y-86394914D01*
X82542094Y-86394914D02*
X82589713Y-86585390D01*
X82589713Y-86585390D02*
X82589713Y-86966342D01*
X82589713Y-86966342D02*
X82542094Y-87061580D01*
X82542094Y-87061580D02*
X82494475Y-87109200D01*
X82494475Y-87109200D02*
X82399237Y-87156819D01*
X82399237Y-87156819D02*
X82208761Y-87156819D01*
X82208761Y-87156819D02*
X82113523Y-87109200D01*
X82113523Y-87109200D02*
X82065904Y-87061580D01*
X82065904Y-87061580D02*
X82018285Y-86966342D01*
X82018285Y-86966342D02*
X82018285Y-86728247D01*
X82018285Y-86728247D02*
X82065904Y-86633009D01*
X82065904Y-86633009D02*
X82113523Y-86585390D01*
X82113523Y-86585390D02*
X82208761Y-86537771D01*
X82208761Y-86537771D02*
X82399237Y-86537771D01*
X82399237Y-86537771D02*
X82494475Y-86585390D01*
X82494475Y-86585390D02*
X82542094Y-86633009D01*
X82542094Y-86633009D02*
X82589713Y-86728247D01*
X87987094Y-95450819D02*
X87987094Y-94450819D01*
X87987094Y-94450819D02*
X87748999Y-94450819D01*
X87748999Y-94450819D02*
X87606142Y-94498438D01*
X87606142Y-94498438D02*
X87510904Y-94593676D01*
X87510904Y-94593676D02*
X87463285Y-94688914D01*
X87463285Y-94688914D02*
X87415666Y-94879390D01*
X87415666Y-94879390D02*
X87415666Y-95022247D01*
X87415666Y-95022247D02*
X87463285Y-95212723D01*
X87463285Y-95212723D02*
X87510904Y-95307961D01*
X87510904Y-95307961D02*
X87606142Y-95403200D01*
X87606142Y-95403200D02*
X87748999Y-95450819D01*
X87748999Y-95450819D02*
X87987094Y-95450819D01*
X87082332Y-94450819D02*
X86415666Y-94450819D01*
X86415666Y-94450819D02*
X86844237Y-95450819D01*
X88114094Y-100530819D02*
X88114094Y-99530819D01*
X88114094Y-99530819D02*
X87875999Y-99530819D01*
X87875999Y-99530819D02*
X87733142Y-99578438D01*
X87733142Y-99578438D02*
X87637904Y-99673676D01*
X87637904Y-99673676D02*
X87590285Y-99768914D01*
X87590285Y-99768914D02*
X87542666Y-99959390D01*
X87542666Y-99959390D02*
X87542666Y-100102247D01*
X87542666Y-100102247D02*
X87590285Y-100292723D01*
X87590285Y-100292723D02*
X87637904Y-100387961D01*
X87637904Y-100387961D02*
X87733142Y-100483200D01*
X87733142Y-100483200D02*
X87875999Y-100530819D01*
X87875999Y-100530819D02*
X88114094Y-100530819D01*
X86971237Y-99959390D02*
X87066475Y-99911771D01*
X87066475Y-99911771D02*
X87114094Y-99864152D01*
X87114094Y-99864152D02*
X87161713Y-99768914D01*
X87161713Y-99768914D02*
X87161713Y-99721295D01*
X87161713Y-99721295D02*
X87114094Y-99626057D01*
X87114094Y-99626057D02*
X87066475Y-99578438D01*
X87066475Y-99578438D02*
X86971237Y-99530819D01*
X86971237Y-99530819D02*
X86780761Y-99530819D01*
X86780761Y-99530819D02*
X86685523Y-99578438D01*
X86685523Y-99578438D02*
X86637904Y-99626057D01*
X86637904Y-99626057D02*
X86590285Y-99721295D01*
X86590285Y-99721295D02*
X86590285Y-99768914D01*
X86590285Y-99768914D02*
X86637904Y-99864152D01*
X86637904Y-99864152D02*
X86685523Y-99911771D01*
X86685523Y-99911771D02*
X86780761Y-99959390D01*
X86780761Y-99959390D02*
X86971237Y-99959390D01*
X86971237Y-99959390D02*
X87066475Y-100007009D01*
X87066475Y-100007009D02*
X87114094Y-100054628D01*
X87114094Y-100054628D02*
X87161713Y-100149866D01*
X87161713Y-100149866D02*
X87161713Y-100340342D01*
X87161713Y-100340342D02*
X87114094Y-100435580D01*
X87114094Y-100435580D02*
X87066475Y-100483200D01*
X87066475Y-100483200D02*
X86971237Y-100530819D01*
X86971237Y-100530819D02*
X86780761Y-100530819D01*
X86780761Y-100530819D02*
X86685523Y-100483200D01*
X86685523Y-100483200D02*
X86637904Y-100435580D01*
X86637904Y-100435580D02*
X86590285Y-100340342D01*
X86590285Y-100340342D02*
X86590285Y-100149866D01*
X86590285Y-100149866D02*
X86637904Y-100054628D01*
X86637904Y-100054628D02*
X86685523Y-100007009D01*
X86685523Y-100007009D02*
X86780761Y-99959390D01*
X84177094Y-109420819D02*
X84177094Y-108420819D01*
X84177094Y-108420819D02*
X83938999Y-108420819D01*
X83938999Y-108420819D02*
X83796142Y-108468438D01*
X83796142Y-108468438D02*
X83700904Y-108563676D01*
X83700904Y-108563676D02*
X83653285Y-108658914D01*
X83653285Y-108658914D02*
X83605666Y-108849390D01*
X83605666Y-108849390D02*
X83605666Y-108992247D01*
X83605666Y-108992247D02*
X83653285Y-109182723D01*
X83653285Y-109182723D02*
X83700904Y-109277961D01*
X83700904Y-109277961D02*
X83796142Y-109373200D01*
X83796142Y-109373200D02*
X83938999Y-109420819D01*
X83938999Y-109420819D02*
X84177094Y-109420819D01*
X83129475Y-109420819D02*
X82938999Y-109420819D01*
X82938999Y-109420819D02*
X82843761Y-109373200D01*
X82843761Y-109373200D02*
X82796142Y-109325580D01*
X82796142Y-109325580D02*
X82700904Y-109182723D01*
X82700904Y-109182723D02*
X82653285Y-108992247D01*
X82653285Y-108992247D02*
X82653285Y-108611295D01*
X82653285Y-108611295D02*
X82700904Y-108516057D01*
X82700904Y-108516057D02*
X82748523Y-108468438D01*
X82748523Y-108468438D02*
X82843761Y-108420819D01*
X82843761Y-108420819D02*
X83034237Y-108420819D01*
X83034237Y-108420819D02*
X83129475Y-108468438D01*
X83129475Y-108468438D02*
X83177094Y-108516057D01*
X83177094Y-108516057D02*
X83224713Y-108611295D01*
X83224713Y-108611295D02*
X83224713Y-108849390D01*
X83224713Y-108849390D02*
X83177094Y-108944628D01*
X83177094Y-108944628D02*
X83129475Y-108992247D01*
X83129475Y-108992247D02*
X83034237Y-109039866D01*
X83034237Y-109039866D02*
X82843761Y-109039866D01*
X82843761Y-109039866D02*
X82748523Y-108992247D01*
X82748523Y-108992247D02*
X82700904Y-108944628D01*
X82700904Y-108944628D02*
X82653285Y-108849390D01*
X78811285Y-109420819D02*
X78811285Y-108420819D01*
X78811285Y-108420819D02*
X78573190Y-108420819D01*
X78573190Y-108420819D02*
X78430333Y-108468438D01*
X78430333Y-108468438D02*
X78335095Y-108563676D01*
X78335095Y-108563676D02*
X78287476Y-108658914D01*
X78287476Y-108658914D02*
X78239857Y-108849390D01*
X78239857Y-108849390D02*
X78239857Y-108992247D01*
X78239857Y-108992247D02*
X78287476Y-109182723D01*
X78287476Y-109182723D02*
X78335095Y-109277961D01*
X78335095Y-109277961D02*
X78430333Y-109373200D01*
X78430333Y-109373200D02*
X78573190Y-109420819D01*
X78573190Y-109420819D02*
X78811285Y-109420819D01*
X77287476Y-109420819D02*
X77858904Y-109420819D01*
X77573190Y-109420819D02*
X77573190Y-108420819D01*
X77573190Y-108420819D02*
X77668428Y-108563676D01*
X77668428Y-108563676D02*
X77763666Y-108658914D01*
X77763666Y-108658914D02*
X77858904Y-108706533D01*
X76668428Y-108420819D02*
X76573190Y-108420819D01*
X76573190Y-108420819D02*
X76477952Y-108468438D01*
X76477952Y-108468438D02*
X76430333Y-108516057D01*
X76430333Y-108516057D02*
X76382714Y-108611295D01*
X76382714Y-108611295D02*
X76335095Y-108801771D01*
X76335095Y-108801771D02*
X76335095Y-109039866D01*
X76335095Y-109039866D02*
X76382714Y-109230342D01*
X76382714Y-109230342D02*
X76430333Y-109325580D01*
X76430333Y-109325580D02*
X76477952Y-109373200D01*
X76477952Y-109373200D02*
X76573190Y-109420819D01*
X76573190Y-109420819D02*
X76668428Y-109420819D01*
X76668428Y-109420819D02*
X76763666Y-109373200D01*
X76763666Y-109373200D02*
X76811285Y-109325580D01*
X76811285Y-109325580D02*
X76858904Y-109230342D01*
X76858904Y-109230342D02*
X76906523Y-109039866D01*
X76906523Y-109039866D02*
X76906523Y-108801771D01*
X76906523Y-108801771D02*
X76858904Y-108611295D01*
X76858904Y-108611295D02*
X76811285Y-108516057D01*
X76811285Y-108516057D02*
X76763666Y-108468438D01*
X76763666Y-108468438D02*
X76668428Y-108420819D01*
X73096285Y-109293819D02*
X73096285Y-108293819D01*
X73096285Y-108293819D02*
X72858190Y-108293819D01*
X72858190Y-108293819D02*
X72715333Y-108341438D01*
X72715333Y-108341438D02*
X72620095Y-108436676D01*
X72620095Y-108436676D02*
X72572476Y-108531914D01*
X72572476Y-108531914D02*
X72524857Y-108722390D01*
X72524857Y-108722390D02*
X72524857Y-108865247D01*
X72524857Y-108865247D02*
X72572476Y-109055723D01*
X72572476Y-109055723D02*
X72620095Y-109150961D01*
X72620095Y-109150961D02*
X72715333Y-109246200D01*
X72715333Y-109246200D02*
X72858190Y-109293819D01*
X72858190Y-109293819D02*
X73096285Y-109293819D01*
X71572476Y-109293819D02*
X72143904Y-109293819D01*
X71858190Y-109293819D02*
X71858190Y-108293819D01*
X71858190Y-108293819D02*
X71953428Y-108436676D01*
X71953428Y-108436676D02*
X72048666Y-108531914D01*
X72048666Y-108531914D02*
X72143904Y-108579533D01*
X70620095Y-109293819D02*
X71191523Y-109293819D01*
X70905809Y-109293819D02*
X70905809Y-108293819D01*
X70905809Y-108293819D02*
X71001047Y-108436676D01*
X71001047Y-108436676D02*
X71096285Y-108531914D01*
X71096285Y-108531914D02*
X71191523Y-108579533D01*
X67635285Y-109293819D02*
X67635285Y-108293819D01*
X67635285Y-108293819D02*
X67397190Y-108293819D01*
X67397190Y-108293819D02*
X67254333Y-108341438D01*
X67254333Y-108341438D02*
X67159095Y-108436676D01*
X67159095Y-108436676D02*
X67111476Y-108531914D01*
X67111476Y-108531914D02*
X67063857Y-108722390D01*
X67063857Y-108722390D02*
X67063857Y-108865247D01*
X67063857Y-108865247D02*
X67111476Y-109055723D01*
X67111476Y-109055723D02*
X67159095Y-109150961D01*
X67159095Y-109150961D02*
X67254333Y-109246200D01*
X67254333Y-109246200D02*
X67397190Y-109293819D01*
X67397190Y-109293819D02*
X67635285Y-109293819D01*
X66111476Y-109293819D02*
X66682904Y-109293819D01*
X66397190Y-109293819D02*
X66397190Y-108293819D01*
X66397190Y-108293819D02*
X66492428Y-108436676D01*
X66492428Y-108436676D02*
X66587666Y-108531914D01*
X66587666Y-108531914D02*
X66682904Y-108579533D01*
X65730523Y-108389057D02*
X65682904Y-108341438D01*
X65682904Y-108341438D02*
X65587666Y-108293819D01*
X65587666Y-108293819D02*
X65349571Y-108293819D01*
X65349571Y-108293819D02*
X65254333Y-108341438D01*
X65254333Y-108341438D02*
X65206714Y-108389057D01*
X65206714Y-108389057D02*
X65159095Y-108484295D01*
X65159095Y-108484295D02*
X65159095Y-108579533D01*
X65159095Y-108579533D02*
X65206714Y-108722390D01*
X65206714Y-108722390D02*
X65778142Y-109293819D01*
X65778142Y-109293819D02*
X65159095Y-109293819D01*
X61920285Y-109293819D02*
X61920285Y-108293819D01*
X61920285Y-108293819D02*
X61682190Y-108293819D01*
X61682190Y-108293819D02*
X61539333Y-108341438D01*
X61539333Y-108341438D02*
X61444095Y-108436676D01*
X61444095Y-108436676D02*
X61396476Y-108531914D01*
X61396476Y-108531914D02*
X61348857Y-108722390D01*
X61348857Y-108722390D02*
X61348857Y-108865247D01*
X61348857Y-108865247D02*
X61396476Y-109055723D01*
X61396476Y-109055723D02*
X61444095Y-109150961D01*
X61444095Y-109150961D02*
X61539333Y-109246200D01*
X61539333Y-109246200D02*
X61682190Y-109293819D01*
X61682190Y-109293819D02*
X61920285Y-109293819D01*
X60396476Y-109293819D02*
X60967904Y-109293819D01*
X60682190Y-109293819D02*
X60682190Y-108293819D01*
X60682190Y-108293819D02*
X60777428Y-108436676D01*
X60777428Y-108436676D02*
X60872666Y-108531914D01*
X60872666Y-108531914D02*
X60967904Y-108579533D01*
X60063142Y-108293819D02*
X59444095Y-108293819D01*
X59444095Y-108293819D02*
X59777428Y-108674771D01*
X59777428Y-108674771D02*
X59634571Y-108674771D01*
X59634571Y-108674771D02*
X59539333Y-108722390D01*
X59539333Y-108722390D02*
X59491714Y-108770009D01*
X59491714Y-108770009D02*
X59444095Y-108865247D01*
X59444095Y-108865247D02*
X59444095Y-109103342D01*
X59444095Y-109103342D02*
X59491714Y-109198580D01*
X59491714Y-109198580D02*
X59539333Y-109246200D01*
X59539333Y-109246200D02*
X59634571Y-109293819D01*
X59634571Y-109293819D02*
X59920285Y-109293819D01*
X59920285Y-109293819D02*
X60015523Y-109246200D01*
X60015523Y-109246200D02*
X60063142Y-109198580D01*
X58110285Y-100657819D02*
X58110285Y-99657819D01*
X58110285Y-99657819D02*
X57872190Y-99657819D01*
X57872190Y-99657819D02*
X57729333Y-99705438D01*
X57729333Y-99705438D02*
X57634095Y-99800676D01*
X57634095Y-99800676D02*
X57586476Y-99895914D01*
X57586476Y-99895914D02*
X57538857Y-100086390D01*
X57538857Y-100086390D02*
X57538857Y-100229247D01*
X57538857Y-100229247D02*
X57586476Y-100419723D01*
X57586476Y-100419723D02*
X57634095Y-100514961D01*
X57634095Y-100514961D02*
X57729333Y-100610200D01*
X57729333Y-100610200D02*
X57872190Y-100657819D01*
X57872190Y-100657819D02*
X58110285Y-100657819D01*
X56586476Y-100657819D02*
X57157904Y-100657819D01*
X56872190Y-100657819D02*
X56872190Y-99657819D01*
X56872190Y-99657819D02*
X56967428Y-99800676D01*
X56967428Y-99800676D02*
X57062666Y-99895914D01*
X57062666Y-99895914D02*
X57157904Y-99943533D01*
X55729333Y-99991152D02*
X55729333Y-100657819D01*
X55967428Y-99610200D02*
X56205523Y-100324485D01*
X56205523Y-100324485D02*
X55586476Y-100324485D01*
X58110285Y-95323819D02*
X58110285Y-94323819D01*
X58110285Y-94323819D02*
X57872190Y-94323819D01*
X57872190Y-94323819D02*
X57729333Y-94371438D01*
X57729333Y-94371438D02*
X57634095Y-94466676D01*
X57634095Y-94466676D02*
X57586476Y-94561914D01*
X57586476Y-94561914D02*
X57538857Y-94752390D01*
X57538857Y-94752390D02*
X57538857Y-94895247D01*
X57538857Y-94895247D02*
X57586476Y-95085723D01*
X57586476Y-95085723D02*
X57634095Y-95180961D01*
X57634095Y-95180961D02*
X57729333Y-95276200D01*
X57729333Y-95276200D02*
X57872190Y-95323819D01*
X57872190Y-95323819D02*
X58110285Y-95323819D01*
X56586476Y-95323819D02*
X57157904Y-95323819D01*
X56872190Y-95323819D02*
X56872190Y-94323819D01*
X56872190Y-94323819D02*
X56967428Y-94466676D01*
X56967428Y-94466676D02*
X57062666Y-94561914D01*
X57062666Y-94561914D02*
X57157904Y-94609533D01*
X55681714Y-94323819D02*
X56157904Y-94323819D01*
X56157904Y-94323819D02*
X56205523Y-94800009D01*
X56205523Y-94800009D02*
X56157904Y-94752390D01*
X56157904Y-94752390D02*
X56062666Y-94704771D01*
X56062666Y-94704771D02*
X55824571Y-94704771D01*
X55824571Y-94704771D02*
X55729333Y-94752390D01*
X55729333Y-94752390D02*
X55681714Y-94800009D01*
X55681714Y-94800009D02*
X55634095Y-94895247D01*
X55634095Y-94895247D02*
X55634095Y-95133342D01*
X55634095Y-95133342D02*
X55681714Y-95228580D01*
X55681714Y-95228580D02*
X55729333Y-95276200D01*
X55729333Y-95276200D02*
X55824571Y-95323819D01*
X55824571Y-95323819D02*
X56062666Y-95323819D01*
X56062666Y-95323819D02*
X56157904Y-95276200D01*
X56157904Y-95276200D02*
X56205523Y-95228580D01*
X77128666Y-81893580D02*
X77176285Y-81941200D01*
X77176285Y-81941200D02*
X77319142Y-81988819D01*
X77319142Y-81988819D02*
X77414380Y-81988819D01*
X77414380Y-81988819D02*
X77557237Y-81941200D01*
X77557237Y-81941200D02*
X77652475Y-81845961D01*
X77652475Y-81845961D02*
X77700094Y-81750723D01*
X77700094Y-81750723D02*
X77747713Y-81560247D01*
X77747713Y-81560247D02*
X77747713Y-81417390D01*
X77747713Y-81417390D02*
X77700094Y-81226914D01*
X77700094Y-81226914D02*
X77652475Y-81131676D01*
X77652475Y-81131676D02*
X77557237Y-81036438D01*
X77557237Y-81036438D02*
X77414380Y-80988819D01*
X77414380Y-80988819D02*
X77319142Y-80988819D01*
X77319142Y-80988819D02*
X77176285Y-81036438D01*
X77176285Y-81036438D02*
X77128666Y-81084057D01*
X76176285Y-81988819D02*
X76747713Y-81988819D01*
X76461999Y-81988819D02*
X76461999Y-80988819D01*
X76461999Y-80988819D02*
X76557237Y-81131676D01*
X76557237Y-81131676D02*
X76652475Y-81226914D01*
X76652475Y-81226914D02*
X76747713Y-81274533D01*
X79081047Y-79052057D02*
X79033428Y-79004438D01*
X79033428Y-79004438D02*
X78938190Y-78956819D01*
X78938190Y-78956819D02*
X78700095Y-78956819D01*
X78700095Y-78956819D02*
X78604857Y-79004438D01*
X78604857Y-79004438D02*
X78557238Y-79052057D01*
X78557238Y-79052057D02*
X78509619Y-79147295D01*
X78509619Y-79147295D02*
X78509619Y-79242533D01*
X78509619Y-79242533D02*
X78557238Y-79385390D01*
X78557238Y-79385390D02*
X79128666Y-79956819D01*
X79128666Y-79956819D02*
X78509619Y-79956819D01*
X78128666Y-79052057D02*
X78081047Y-79004438D01*
X78081047Y-79004438D02*
X77985809Y-78956819D01*
X77985809Y-78956819D02*
X77747714Y-78956819D01*
X77747714Y-78956819D02*
X77652476Y-79004438D01*
X77652476Y-79004438D02*
X77604857Y-79052057D01*
X77604857Y-79052057D02*
X77557238Y-79147295D01*
X77557238Y-79147295D02*
X77557238Y-79242533D01*
X77557238Y-79242533D02*
X77604857Y-79385390D01*
X77604857Y-79385390D02*
X78176285Y-79956819D01*
X78176285Y-79956819D02*
X77557238Y-79956819D01*
X76938190Y-78956819D02*
X76842952Y-78956819D01*
X76842952Y-78956819D02*
X76747714Y-79004438D01*
X76747714Y-79004438D02*
X76700095Y-79052057D01*
X76700095Y-79052057D02*
X76652476Y-79147295D01*
X76652476Y-79147295D02*
X76604857Y-79337771D01*
X76604857Y-79337771D02*
X76604857Y-79575866D01*
X76604857Y-79575866D02*
X76652476Y-79766342D01*
X76652476Y-79766342D02*
X76700095Y-79861580D01*
X76700095Y-79861580D02*
X76747714Y-79909200D01*
X76747714Y-79909200D02*
X76842952Y-79956819D01*
X76842952Y-79956819D02*
X76938190Y-79956819D01*
X76938190Y-79956819D02*
X77033428Y-79909200D01*
X77033428Y-79909200D02*
X77081047Y-79861580D01*
X77081047Y-79861580D02*
X77128666Y-79766342D01*
X77128666Y-79766342D02*
X77176285Y-79575866D01*
X77176285Y-79575866D02*
X77176285Y-79337771D01*
X77176285Y-79337771D02*
X77128666Y-79147295D01*
X77128666Y-79147295D02*
X77081047Y-79052057D01*
X77081047Y-79052057D02*
X77033428Y-79004438D01*
X77033428Y-79004438D02*
X76938190Y-78956819D01*
X75747714Y-79290152D02*
X75747714Y-79956819D01*
X76176285Y-79290152D02*
X76176285Y-79813961D01*
X76176285Y-79813961D02*
X76128666Y-79909200D01*
X76128666Y-79909200D02*
X76033428Y-79956819D01*
X76033428Y-79956819D02*
X75890571Y-79956819D01*
X75890571Y-79956819D02*
X75795333Y-79909200D01*
X75795333Y-79909200D02*
X75747714Y-79861580D01*
X74938190Y-79433009D02*
X75271523Y-79433009D01*
X75271523Y-79956819D02*
X75271523Y-78956819D01*
X75271523Y-78956819D02*
X74795333Y-78956819D01*
X55297294Y-52829619D02*
X55297294Y-51829619D01*
X55297294Y-51829619D02*
X55059199Y-51829619D01*
X55059199Y-51829619D02*
X54916342Y-51877238D01*
X54916342Y-51877238D02*
X54821104Y-51972476D01*
X54821104Y-51972476D02*
X54773485Y-52067714D01*
X54773485Y-52067714D02*
X54725866Y-52258190D01*
X54725866Y-52258190D02*
X54725866Y-52401047D01*
X54725866Y-52401047D02*
X54773485Y-52591523D01*
X54773485Y-52591523D02*
X54821104Y-52686761D01*
X54821104Y-52686761D02*
X54916342Y-52782000D01*
X54916342Y-52782000D02*
X55059199Y-52829619D01*
X55059199Y-52829619D02*
X55297294Y-52829619D01*
X54392532Y-51829619D02*
X53773485Y-51829619D01*
X53773485Y-51829619D02*
X54106818Y-52210571D01*
X54106818Y-52210571D02*
X53963961Y-52210571D01*
X53963961Y-52210571D02*
X53868723Y-52258190D01*
X53868723Y-52258190D02*
X53821104Y-52305809D01*
X53821104Y-52305809D02*
X53773485Y-52401047D01*
X53773485Y-52401047D02*
X53773485Y-52639142D01*
X53773485Y-52639142D02*
X53821104Y-52734380D01*
X53821104Y-52734380D02*
X53868723Y-52782000D01*
X53868723Y-52782000D02*
X53963961Y-52829619D01*
X53963961Y-52829619D02*
X54249675Y-52829619D01*
X54249675Y-52829619D02*
X54344913Y-52782000D01*
X54344913Y-52782000D02*
X54392532Y-52734380D01*
X56244857Y-50746819D02*
X56816285Y-50746819D01*
X56530571Y-50746819D02*
X56530571Y-49746819D01*
X56530571Y-49746819D02*
X56625809Y-49889676D01*
X56625809Y-49889676D02*
X56721047Y-49984914D01*
X56721047Y-49984914D02*
X56816285Y-50032533D01*
X55816285Y-50746819D02*
X55816285Y-49746819D01*
X55816285Y-49746819D02*
X55244857Y-50746819D01*
X55244857Y-50746819D02*
X55244857Y-49746819D01*
X54340095Y-50080152D02*
X54340095Y-50746819D01*
X54578190Y-49699200D02*
X54816285Y-50413485D01*
X54816285Y-50413485D02*
X54197238Y-50413485D01*
X53292476Y-50746819D02*
X53863904Y-50746819D01*
X53578190Y-50746819D02*
X53578190Y-49746819D01*
X53578190Y-49746819D02*
X53673428Y-49889676D01*
X53673428Y-49889676D02*
X53768666Y-49984914D01*
X53768666Y-49984914D02*
X53863904Y-50032533D01*
X52435333Y-50080152D02*
X52435333Y-50746819D01*
X52673428Y-49699200D02*
X52911523Y-50413485D01*
X52911523Y-50413485D02*
X52292476Y-50413485D01*
X51768666Y-50175390D02*
X51863904Y-50127771D01*
X51863904Y-50127771D02*
X51911523Y-50080152D01*
X51911523Y-50080152D02*
X51959142Y-49984914D01*
X51959142Y-49984914D02*
X51959142Y-49937295D01*
X51959142Y-49937295D02*
X51911523Y-49842057D01*
X51911523Y-49842057D02*
X51863904Y-49794438D01*
X51863904Y-49794438D02*
X51768666Y-49746819D01*
X51768666Y-49746819D02*
X51578190Y-49746819D01*
X51578190Y-49746819D02*
X51482952Y-49794438D01*
X51482952Y-49794438D02*
X51435333Y-49842057D01*
X51435333Y-49842057D02*
X51387714Y-49937295D01*
X51387714Y-49937295D02*
X51387714Y-49984914D01*
X51387714Y-49984914D02*
X51435333Y-50080152D01*
X51435333Y-50080152D02*
X51482952Y-50127771D01*
X51482952Y-50127771D02*
X51578190Y-50175390D01*
X51578190Y-50175390D02*
X51768666Y-50175390D01*
X51768666Y-50175390D02*
X51863904Y-50223009D01*
X51863904Y-50223009D02*
X51911523Y-50270628D01*
X51911523Y-50270628D02*
X51959142Y-50365866D01*
X51959142Y-50365866D02*
X51959142Y-50556342D01*
X51959142Y-50556342D02*
X51911523Y-50651580D01*
X51911523Y-50651580D02*
X51863904Y-50699200D01*
X51863904Y-50699200D02*
X51768666Y-50746819D01*
X51768666Y-50746819D02*
X51578190Y-50746819D01*
X51578190Y-50746819D02*
X51482952Y-50699200D01*
X51482952Y-50699200D02*
X51435333Y-50651580D01*
X51435333Y-50651580D02*
X51387714Y-50556342D01*
X51387714Y-50556342D02*
X51387714Y-50365866D01*
X51387714Y-50365866D02*
X51435333Y-50270628D01*
X51435333Y-50270628D02*
X51482952Y-50223009D01*
X51482952Y-50223009D02*
X51578190Y-50175390D01*
X58935904Y-50978819D02*
X58935904Y-49978819D01*
X58364476Y-50978819D02*
X58793047Y-50407390D01*
X58364476Y-49978819D02*
X58935904Y-50550247D01*
X58507238Y-77035819D02*
X59078666Y-77035819D01*
X58792952Y-77035819D02*
X58792952Y-76035819D01*
X58792952Y-76035819D02*
X58888190Y-76178676D01*
X58888190Y-76178676D02*
X58983428Y-76273914D01*
X58983428Y-76273914D02*
X59078666Y-76321533D01*
X57888190Y-76035819D02*
X57792952Y-76035819D01*
X57792952Y-76035819D02*
X57697714Y-76083438D01*
X57697714Y-76083438D02*
X57650095Y-76131057D01*
X57650095Y-76131057D02*
X57602476Y-76226295D01*
X57602476Y-76226295D02*
X57554857Y-76416771D01*
X57554857Y-76416771D02*
X57554857Y-76654866D01*
X57554857Y-76654866D02*
X57602476Y-76845342D01*
X57602476Y-76845342D02*
X57650095Y-76940580D01*
X57650095Y-76940580D02*
X57697714Y-76988200D01*
X57697714Y-76988200D02*
X57792952Y-77035819D01*
X57792952Y-77035819D02*
X57888190Y-77035819D01*
X57888190Y-77035819D02*
X57983428Y-76988200D01*
X57983428Y-76988200D02*
X58031047Y-76940580D01*
X58031047Y-76940580D02*
X58078666Y-76845342D01*
X58078666Y-76845342D02*
X58126285Y-76654866D01*
X58126285Y-76654866D02*
X58126285Y-76416771D01*
X58126285Y-76416771D02*
X58078666Y-76226295D01*
X58078666Y-76226295D02*
X58031047Y-76131057D01*
X58031047Y-76131057D02*
X57983428Y-76083438D01*
X57983428Y-76083438D02*
X57888190Y-76035819D01*
X57126285Y-77035819D02*
X57126285Y-76035819D01*
X57031047Y-76654866D02*
X56745333Y-77035819D01*
X56745333Y-76369152D02*
X57126285Y-76750104D01*
X86288476Y-76908819D02*
X86859904Y-76908819D01*
X86574190Y-76908819D02*
X86574190Y-75908819D01*
X86574190Y-75908819D02*
X86669428Y-76051676D01*
X86669428Y-76051676D02*
X86764666Y-76146914D01*
X86764666Y-76146914D02*
X86859904Y-76194533D01*
X85669428Y-75908819D02*
X85574190Y-75908819D01*
X85574190Y-75908819D02*
X85478952Y-75956438D01*
X85478952Y-75956438D02*
X85431333Y-76004057D01*
X85431333Y-76004057D02*
X85383714Y-76099295D01*
X85383714Y-76099295D02*
X85336095Y-76289771D01*
X85336095Y-76289771D02*
X85336095Y-76527866D01*
X85336095Y-76527866D02*
X85383714Y-76718342D01*
X85383714Y-76718342D02*
X85431333Y-76813580D01*
X85431333Y-76813580D02*
X85478952Y-76861200D01*
X85478952Y-76861200D02*
X85574190Y-76908819D01*
X85574190Y-76908819D02*
X85669428Y-76908819D01*
X85669428Y-76908819D02*
X85764666Y-76861200D01*
X85764666Y-76861200D02*
X85812285Y-76813580D01*
X85812285Y-76813580D02*
X85859904Y-76718342D01*
X85859904Y-76718342D02*
X85907523Y-76527866D01*
X85907523Y-76527866D02*
X85907523Y-76289771D01*
X85907523Y-76289771D02*
X85859904Y-76099295D01*
X85859904Y-76099295D02*
X85812285Y-76004057D01*
X85812285Y-76004057D02*
X85764666Y-75956438D01*
X85764666Y-75956438D02*
X85669428Y-75908819D01*
X84907523Y-76908819D02*
X84907523Y-75908819D01*
X84336095Y-76908819D02*
X84764666Y-76337390D01*
X84336095Y-75908819D02*
X84907523Y-76480247D01*
X62227619Y-70038933D02*
X61751428Y-69705600D01*
X62227619Y-69467505D02*
X61227619Y-69467505D01*
X61227619Y-69467505D02*
X61227619Y-69848457D01*
X61227619Y-69848457D02*
X61275238Y-69943695D01*
X61275238Y-69943695D02*
X61322857Y-69991314D01*
X61322857Y-69991314D02*
X61418095Y-70038933D01*
X61418095Y-70038933D02*
X61560952Y-70038933D01*
X61560952Y-70038933D02*
X61656190Y-69991314D01*
X61656190Y-69991314D02*
X61703809Y-69943695D01*
X61703809Y-69943695D02*
X61751428Y-69848457D01*
X61751428Y-69848457D02*
X61751428Y-69467505D01*
X61227619Y-70372267D02*
X61227619Y-70991314D01*
X61227619Y-70991314D02*
X61608571Y-70657981D01*
X61608571Y-70657981D02*
X61608571Y-70800838D01*
X61608571Y-70800838D02*
X61656190Y-70896076D01*
X61656190Y-70896076D02*
X61703809Y-70943695D01*
X61703809Y-70943695D02*
X61799047Y-70991314D01*
X61799047Y-70991314D02*
X62037142Y-70991314D01*
X62037142Y-70991314D02*
X62132380Y-70943695D01*
X62132380Y-70943695D02*
X62180000Y-70896076D01*
X62180000Y-70896076D02*
X62227619Y-70800838D01*
X62227619Y-70800838D02*
X62227619Y-70515124D01*
X62227619Y-70515124D02*
X62180000Y-70419886D01*
X62180000Y-70419886D02*
X62132380Y-70372267D01*
X58806819Y-69238952D02*
X58806819Y-68762762D01*
X58806819Y-68762762D02*
X59283009Y-68715143D01*
X59283009Y-68715143D02*
X59235390Y-68762762D01*
X59235390Y-68762762D02*
X59187771Y-68858000D01*
X59187771Y-68858000D02*
X59187771Y-69096095D01*
X59187771Y-69096095D02*
X59235390Y-69191333D01*
X59235390Y-69191333D02*
X59283009Y-69238952D01*
X59283009Y-69238952D02*
X59378247Y-69286571D01*
X59378247Y-69286571D02*
X59616342Y-69286571D01*
X59616342Y-69286571D02*
X59711580Y-69238952D01*
X59711580Y-69238952D02*
X59759200Y-69191333D01*
X59759200Y-69191333D02*
X59806819Y-69096095D01*
X59806819Y-69096095D02*
X59806819Y-68858000D01*
X59806819Y-68858000D02*
X59759200Y-68762762D01*
X59759200Y-68762762D02*
X59711580Y-68715143D01*
X58806819Y-70143714D02*
X58806819Y-69953238D01*
X58806819Y-69953238D02*
X58854438Y-69858000D01*
X58854438Y-69858000D02*
X58902057Y-69810381D01*
X58902057Y-69810381D02*
X59044914Y-69715143D01*
X59044914Y-69715143D02*
X59235390Y-69667524D01*
X59235390Y-69667524D02*
X59616342Y-69667524D01*
X59616342Y-69667524D02*
X59711580Y-69715143D01*
X59711580Y-69715143D02*
X59759200Y-69762762D01*
X59759200Y-69762762D02*
X59806819Y-69858000D01*
X59806819Y-69858000D02*
X59806819Y-70048476D01*
X59806819Y-70048476D02*
X59759200Y-70143714D01*
X59759200Y-70143714D02*
X59711580Y-70191333D01*
X59711580Y-70191333D02*
X59616342Y-70238952D01*
X59616342Y-70238952D02*
X59378247Y-70238952D01*
X59378247Y-70238952D02*
X59283009Y-70191333D01*
X59283009Y-70191333D02*
X59235390Y-70143714D01*
X59235390Y-70143714D02*
X59187771Y-70048476D01*
X59187771Y-70048476D02*
X59187771Y-69858000D01*
X59187771Y-69858000D02*
X59235390Y-69762762D01*
X59235390Y-69762762D02*
X59283009Y-69715143D01*
X59283009Y-69715143D02*
X59378247Y-69667524D01*
X58806819Y-70858000D02*
X58806819Y-70953238D01*
X58806819Y-70953238D02*
X58854438Y-71048476D01*
X58854438Y-71048476D02*
X58902057Y-71096095D01*
X58902057Y-71096095D02*
X58997295Y-71143714D01*
X58997295Y-71143714D02*
X59187771Y-71191333D01*
X59187771Y-71191333D02*
X59425866Y-71191333D01*
X59425866Y-71191333D02*
X59616342Y-71143714D01*
X59616342Y-71143714D02*
X59711580Y-71096095D01*
X59711580Y-71096095D02*
X59759200Y-71048476D01*
X59759200Y-71048476D02*
X59806819Y-70953238D01*
X59806819Y-70953238D02*
X59806819Y-70858000D01*
X59806819Y-70858000D02*
X59759200Y-70762762D01*
X59759200Y-70762762D02*
X59711580Y-70715143D01*
X59711580Y-70715143D02*
X59616342Y-70667524D01*
X59616342Y-70667524D02*
X59425866Y-70619905D01*
X59425866Y-70619905D02*
X59187771Y-70619905D01*
X59187771Y-70619905D02*
X58997295Y-70667524D01*
X58997295Y-70667524D02*
X58902057Y-70715143D01*
X58902057Y-70715143D02*
X58854438Y-70762762D01*
X58854438Y-70762762D02*
X58806819Y-70858000D01*
X59806819Y-71619905D02*
X58806819Y-71619905D01*
X59425866Y-71715143D02*
X59806819Y-72000857D01*
X59140152Y-72000857D02*
X59521104Y-71619905D01*
X88711066Y-52778819D02*
X89044399Y-52302628D01*
X89282494Y-52778819D02*
X89282494Y-51778819D01*
X89282494Y-51778819D02*
X88901542Y-51778819D01*
X88901542Y-51778819D02*
X88806304Y-51826438D01*
X88806304Y-51826438D02*
X88758685Y-51874057D01*
X88758685Y-51874057D02*
X88711066Y-51969295D01*
X88711066Y-51969295D02*
X88711066Y-52112152D01*
X88711066Y-52112152D02*
X88758685Y-52207390D01*
X88758685Y-52207390D02*
X88806304Y-52255009D01*
X88806304Y-52255009D02*
X88901542Y-52302628D01*
X88901542Y-52302628D02*
X89282494Y-52302628D01*
X87853923Y-52112152D02*
X87853923Y-52778819D01*
X88092018Y-51731200D02*
X88330113Y-52445485D01*
X88330113Y-52445485D02*
X87711066Y-52445485D01*
X90082475Y-49408819D02*
X89463428Y-49408819D01*
X89463428Y-49408819D02*
X89796761Y-49789771D01*
X89796761Y-49789771D02*
X89653904Y-49789771D01*
X89653904Y-49789771D02*
X89558666Y-49837390D01*
X89558666Y-49837390D02*
X89511047Y-49885009D01*
X89511047Y-49885009D02*
X89463428Y-49980247D01*
X89463428Y-49980247D02*
X89463428Y-50218342D01*
X89463428Y-50218342D02*
X89511047Y-50313580D01*
X89511047Y-50313580D02*
X89558666Y-50361200D01*
X89558666Y-50361200D02*
X89653904Y-50408819D01*
X89653904Y-50408819D02*
X89939618Y-50408819D01*
X89939618Y-50408819D02*
X90034856Y-50361200D01*
X90034856Y-50361200D02*
X90082475Y-50313580D01*
X88987237Y-50408819D02*
X88796761Y-50408819D01*
X88796761Y-50408819D02*
X88701523Y-50361200D01*
X88701523Y-50361200D02*
X88653904Y-50313580D01*
X88653904Y-50313580D02*
X88558666Y-50170723D01*
X88558666Y-50170723D02*
X88511047Y-49980247D01*
X88511047Y-49980247D02*
X88511047Y-49599295D01*
X88511047Y-49599295D02*
X88558666Y-49504057D01*
X88558666Y-49504057D02*
X88606285Y-49456438D01*
X88606285Y-49456438D02*
X88701523Y-49408819D01*
X88701523Y-49408819D02*
X88891999Y-49408819D01*
X88891999Y-49408819D02*
X88987237Y-49456438D01*
X88987237Y-49456438D02*
X89034856Y-49504057D01*
X89034856Y-49504057D02*
X89082475Y-49599295D01*
X89082475Y-49599295D02*
X89082475Y-49837390D01*
X89082475Y-49837390D02*
X89034856Y-49932628D01*
X89034856Y-49932628D02*
X88987237Y-49980247D01*
X88987237Y-49980247D02*
X88891999Y-50027866D01*
X88891999Y-50027866D02*
X88701523Y-50027866D01*
X88701523Y-50027866D02*
X88606285Y-49980247D01*
X88606285Y-49980247D02*
X88558666Y-49932628D01*
X88558666Y-49932628D02*
X88511047Y-49837390D01*
X87891999Y-49408819D02*
X87796761Y-49408819D01*
X87796761Y-49408819D02*
X87701523Y-49456438D01*
X87701523Y-49456438D02*
X87653904Y-49504057D01*
X87653904Y-49504057D02*
X87606285Y-49599295D01*
X87606285Y-49599295D02*
X87558666Y-49789771D01*
X87558666Y-49789771D02*
X87558666Y-50027866D01*
X87558666Y-50027866D02*
X87606285Y-50218342D01*
X87606285Y-50218342D02*
X87653904Y-50313580D01*
X87653904Y-50313580D02*
X87701523Y-50361200D01*
X87701523Y-50361200D02*
X87796761Y-50408819D01*
X87796761Y-50408819D02*
X87891999Y-50408819D01*
X87891999Y-50408819D02*
X87987237Y-50361200D01*
X87987237Y-50361200D02*
X88034856Y-50313580D01*
X88034856Y-50313580D02*
X88082475Y-50218342D01*
X88082475Y-50218342D02*
X88130094Y-50027866D01*
X88130094Y-50027866D02*
X88130094Y-49789771D01*
X88130094Y-49789771D02*
X88082475Y-49599295D01*
X88082475Y-49599295D02*
X88034856Y-49504057D01*
X88034856Y-49504057D02*
X87987237Y-49456438D01*
X87987237Y-49456438D02*
X87891999Y-49408819D01*
X87130094Y-50408819D02*
X87130094Y-49408819D01*
X87034856Y-50027866D02*
X86749142Y-50408819D01*
X86749142Y-49742152D02*
X87130094Y-50123104D01*
X87898266Y-65986819D02*
X88231599Y-65510628D01*
X88469694Y-65986819D02*
X88469694Y-64986819D01*
X88469694Y-64986819D02*
X88088742Y-64986819D01*
X88088742Y-64986819D02*
X87993504Y-65034438D01*
X87993504Y-65034438D02*
X87945885Y-65082057D01*
X87945885Y-65082057D02*
X87898266Y-65177295D01*
X87898266Y-65177295D02*
X87898266Y-65320152D01*
X87898266Y-65320152D02*
X87945885Y-65415390D01*
X87945885Y-65415390D02*
X87993504Y-65463009D01*
X87993504Y-65463009D02*
X88088742Y-65510628D01*
X88088742Y-65510628D02*
X88469694Y-65510628D01*
X86993504Y-64986819D02*
X87469694Y-64986819D01*
X87469694Y-64986819D02*
X87517313Y-65463009D01*
X87517313Y-65463009D02*
X87469694Y-65415390D01*
X87469694Y-65415390D02*
X87374456Y-65367771D01*
X87374456Y-65367771D02*
X87136361Y-65367771D01*
X87136361Y-65367771D02*
X87041123Y-65415390D01*
X87041123Y-65415390D02*
X86993504Y-65463009D01*
X86993504Y-65463009D02*
X86945885Y-65558247D01*
X86945885Y-65558247D02*
X86945885Y-65796342D01*
X86945885Y-65796342D02*
X86993504Y-65891580D01*
X86993504Y-65891580D02*
X87041123Y-65939200D01*
X87041123Y-65939200D02*
X87136361Y-65986819D01*
X87136361Y-65986819D02*
X87374456Y-65986819D01*
X87374456Y-65986819D02*
X87469694Y-65939200D01*
X87469694Y-65939200D02*
X87517313Y-65891580D01*
X88320476Y-67690152D02*
X88320476Y-68356819D01*
X88558571Y-67309200D02*
X88796666Y-68023485D01*
X88796666Y-68023485D02*
X88177619Y-68023485D01*
X87796666Y-68356819D02*
X87796666Y-67356819D01*
X87701428Y-67975866D02*
X87415714Y-68356819D01*
X87415714Y-67690152D02*
X87796666Y-68071104D01*
X87082380Y-67356819D02*
X86415714Y-67356819D01*
X86415714Y-67356819D02*
X86844285Y-68356819D01*
X52744666Y-65834419D02*
X53077999Y-65358228D01*
X53316094Y-65834419D02*
X53316094Y-64834419D01*
X53316094Y-64834419D02*
X52935142Y-64834419D01*
X52935142Y-64834419D02*
X52839904Y-64882038D01*
X52839904Y-64882038D02*
X52792285Y-64929657D01*
X52792285Y-64929657D02*
X52744666Y-65024895D01*
X52744666Y-65024895D02*
X52744666Y-65167752D01*
X52744666Y-65167752D02*
X52792285Y-65262990D01*
X52792285Y-65262990D02*
X52839904Y-65310609D01*
X52839904Y-65310609D02*
X52935142Y-65358228D01*
X52935142Y-65358228D02*
X53316094Y-65358228D01*
X51887523Y-64834419D02*
X52077999Y-64834419D01*
X52077999Y-64834419D02*
X52173237Y-64882038D01*
X52173237Y-64882038D02*
X52220856Y-64929657D01*
X52220856Y-64929657D02*
X52316094Y-65072514D01*
X52316094Y-65072514D02*
X52363713Y-65262990D01*
X52363713Y-65262990D02*
X52363713Y-65643942D01*
X52363713Y-65643942D02*
X52316094Y-65739180D01*
X52316094Y-65739180D02*
X52268475Y-65786800D01*
X52268475Y-65786800D02*
X52173237Y-65834419D01*
X52173237Y-65834419D02*
X51982761Y-65834419D01*
X51982761Y-65834419D02*
X51887523Y-65786800D01*
X51887523Y-65786800D02*
X51839904Y-65739180D01*
X51839904Y-65739180D02*
X51792285Y-65643942D01*
X51792285Y-65643942D02*
X51792285Y-65405847D01*
X51792285Y-65405847D02*
X51839904Y-65310609D01*
X51839904Y-65310609D02*
X51887523Y-65262990D01*
X51887523Y-65262990D02*
X51982761Y-65215371D01*
X51982761Y-65215371D02*
X52173237Y-65215371D01*
X52173237Y-65215371D02*
X52268475Y-65262990D01*
X52268475Y-65262990D02*
X52316094Y-65310609D01*
X52316094Y-65310609D02*
X52363713Y-65405847D01*
X53166876Y-68171219D02*
X53738304Y-68171219D01*
X53452590Y-68171219D02*
X53452590Y-67171219D01*
X53452590Y-67171219D02*
X53547828Y-67314076D01*
X53547828Y-67314076D02*
X53643066Y-67409314D01*
X53643066Y-67409314D02*
X53738304Y-67456933D01*
X52547828Y-67171219D02*
X52452590Y-67171219D01*
X52452590Y-67171219D02*
X52357352Y-67218838D01*
X52357352Y-67218838D02*
X52309733Y-67266457D01*
X52309733Y-67266457D02*
X52262114Y-67361695D01*
X52262114Y-67361695D02*
X52214495Y-67552171D01*
X52214495Y-67552171D02*
X52214495Y-67790266D01*
X52214495Y-67790266D02*
X52262114Y-67980742D01*
X52262114Y-67980742D02*
X52309733Y-68075980D01*
X52309733Y-68075980D02*
X52357352Y-68123600D01*
X52357352Y-68123600D02*
X52452590Y-68171219D01*
X52452590Y-68171219D02*
X52547828Y-68171219D01*
X52547828Y-68171219D02*
X52643066Y-68123600D01*
X52643066Y-68123600D02*
X52690685Y-68075980D01*
X52690685Y-68075980D02*
X52738304Y-67980742D01*
X52738304Y-67980742D02*
X52785923Y-67790266D01*
X52785923Y-67790266D02*
X52785923Y-67552171D01*
X52785923Y-67552171D02*
X52738304Y-67361695D01*
X52738304Y-67361695D02*
X52690685Y-67266457D01*
X52690685Y-67266457D02*
X52643066Y-67218838D01*
X52643066Y-67218838D02*
X52547828Y-67171219D01*
X51214495Y-68171219D02*
X51547828Y-67695028D01*
X51785923Y-68171219D02*
X51785923Y-67171219D01*
X51785923Y-67171219D02*
X51404971Y-67171219D01*
X51404971Y-67171219D02*
X51309733Y-67218838D01*
X51309733Y-67218838D02*
X51262114Y-67266457D01*
X51262114Y-67266457D02*
X51214495Y-67361695D01*
X51214495Y-67361695D02*
X51214495Y-67504552D01*
X51214495Y-67504552D02*
X51262114Y-67599790D01*
X51262114Y-67599790D02*
X51309733Y-67647409D01*
X51309733Y-67647409D02*
X51404971Y-67695028D01*
X51404971Y-67695028D02*
X51785923Y-67695028D01*
X96164304Y-67361600D02*
X96021447Y-67409219D01*
X96021447Y-67409219D02*
X95783352Y-67409219D01*
X95783352Y-67409219D02*
X95688114Y-67361600D01*
X95688114Y-67361600D02*
X95640495Y-67313980D01*
X95640495Y-67313980D02*
X95592876Y-67218742D01*
X95592876Y-67218742D02*
X95592876Y-67123504D01*
X95592876Y-67123504D02*
X95640495Y-67028266D01*
X95640495Y-67028266D02*
X95688114Y-66980647D01*
X95688114Y-66980647D02*
X95783352Y-66933028D01*
X95783352Y-66933028D02*
X95973828Y-66885409D01*
X95973828Y-66885409D02*
X96069066Y-66837790D01*
X96069066Y-66837790D02*
X96116685Y-66790171D01*
X96116685Y-66790171D02*
X96164304Y-66694933D01*
X96164304Y-66694933D02*
X96164304Y-66599695D01*
X96164304Y-66599695D02*
X96116685Y-66504457D01*
X96116685Y-66504457D02*
X96069066Y-66456838D01*
X96069066Y-66456838D02*
X95973828Y-66409219D01*
X95973828Y-66409219D02*
X95735733Y-66409219D01*
X95735733Y-66409219D02*
X95592876Y-66456838D01*
X94640495Y-67409219D02*
X95211923Y-67409219D01*
X94926209Y-67409219D02*
X94926209Y-66409219D01*
X94926209Y-66409219D02*
X95021447Y-66552076D01*
X95021447Y-66552076D02*
X95116685Y-66647314D01*
X95116685Y-66647314D02*
X95211923Y-66694933D01*
X73101104Y-71692419D02*
X73101104Y-72501942D01*
X73101104Y-72501942D02*
X73053485Y-72597180D01*
X73053485Y-72597180D02*
X73005866Y-72644800D01*
X73005866Y-72644800D02*
X72910628Y-72692419D01*
X72910628Y-72692419D02*
X72720152Y-72692419D01*
X72720152Y-72692419D02*
X72624914Y-72644800D01*
X72624914Y-72644800D02*
X72577295Y-72597180D01*
X72577295Y-72597180D02*
X72529676Y-72501942D01*
X72529676Y-72501942D02*
X72529676Y-71692419D01*
X71529676Y-72692419D02*
X72101104Y-72692419D01*
X71815390Y-72692419D02*
X71815390Y-71692419D01*
X71815390Y-71692419D02*
X71910628Y-71835276D01*
X71910628Y-71835276D02*
X72005866Y-71930514D01*
X72005866Y-71930514D02*
X72101104Y-71978133D01*
X66704819Y-69469333D02*
X65704819Y-69469333D01*
X65704819Y-69469333D02*
X66704819Y-70040761D01*
X66704819Y-70040761D02*
X65704819Y-70040761D01*
X66181009Y-70516952D02*
X66181009Y-70850285D01*
X66704819Y-70993142D02*
X66704819Y-70516952D01*
X66704819Y-70516952D02*
X65704819Y-70516952D01*
X65704819Y-70516952D02*
X65704819Y-70993142D01*
X65704819Y-71897904D02*
X65704819Y-71421714D01*
X65704819Y-71421714D02*
X66181009Y-71374095D01*
X66181009Y-71374095D02*
X66133390Y-71421714D01*
X66133390Y-71421714D02*
X66085771Y-71516952D01*
X66085771Y-71516952D02*
X66085771Y-71755047D01*
X66085771Y-71755047D02*
X66133390Y-71850285D01*
X66133390Y-71850285D02*
X66181009Y-71897904D01*
X66181009Y-71897904D02*
X66276247Y-71945523D01*
X66276247Y-71945523D02*
X66514342Y-71945523D01*
X66514342Y-71945523D02*
X66609580Y-71897904D01*
X66609580Y-71897904D02*
X66657200Y-71850285D01*
X66657200Y-71850285D02*
X66704819Y-71755047D01*
X66704819Y-71755047D02*
X66704819Y-71516952D01*
X66704819Y-71516952D02*
X66657200Y-71421714D01*
X66657200Y-71421714D02*
X66609580Y-71374095D01*
X65704819Y-72850285D02*
X65704819Y-72374095D01*
X65704819Y-72374095D02*
X66181009Y-72326476D01*
X66181009Y-72326476D02*
X66133390Y-72374095D01*
X66133390Y-72374095D02*
X66085771Y-72469333D01*
X66085771Y-72469333D02*
X66085771Y-72707428D01*
X66085771Y-72707428D02*
X66133390Y-72802666D01*
X66133390Y-72802666D02*
X66181009Y-72850285D01*
X66181009Y-72850285D02*
X66276247Y-72897904D01*
X66276247Y-72897904D02*
X66514342Y-72897904D01*
X66514342Y-72897904D02*
X66609580Y-72850285D01*
X66609580Y-72850285D02*
X66657200Y-72802666D01*
X66657200Y-72802666D02*
X66704819Y-72707428D01*
X66704819Y-72707428D02*
X66704819Y-72469333D01*
X66704819Y-72469333D02*
X66657200Y-72374095D01*
X66657200Y-72374095D02*
X66609580Y-72326476D01*
X65704819Y-73802666D02*
X65704819Y-73326476D01*
X65704819Y-73326476D02*
X66181009Y-73278857D01*
X66181009Y-73278857D02*
X66133390Y-73326476D01*
X66133390Y-73326476D02*
X66085771Y-73421714D01*
X66085771Y-73421714D02*
X66085771Y-73659809D01*
X66085771Y-73659809D02*
X66133390Y-73755047D01*
X66133390Y-73755047D02*
X66181009Y-73802666D01*
X66181009Y-73802666D02*
X66276247Y-73850285D01*
X66276247Y-73850285D02*
X66514342Y-73850285D01*
X66514342Y-73850285D02*
X66609580Y-73802666D01*
X66609580Y-73802666D02*
X66657200Y-73755047D01*
X66657200Y-73755047D02*
X66704819Y-73659809D01*
X66704819Y-73659809D02*
X66704819Y-73421714D01*
X66704819Y-73421714D02*
X66657200Y-73326476D01*
X66657200Y-73326476D02*
X66609580Y-73278857D01*
X66704819Y-74278857D02*
X65704819Y-74278857D01*
X65704819Y-74278857D02*
X65704819Y-74659809D01*
X65704819Y-74659809D02*
X65752438Y-74755047D01*
X65752438Y-74755047D02*
X65800057Y-74802666D01*
X65800057Y-74802666D02*
X65895295Y-74850285D01*
X65895295Y-74850285D02*
X66038152Y-74850285D01*
X66038152Y-74850285D02*
X66133390Y-74802666D01*
X66133390Y-74802666D02*
X66181009Y-74755047D01*
X66181009Y-74755047D02*
X66228628Y-74659809D01*
X66228628Y-74659809D02*
X66228628Y-74278857D01*
D12*
X73813714Y-50732019D02*
X73813714Y-51541542D01*
X73813714Y-51541542D02*
X73770857Y-51636780D01*
X73770857Y-51636780D02*
X73728000Y-51684400D01*
X73728000Y-51684400D02*
X73642285Y-51732019D01*
X73642285Y-51732019D02*
X73470857Y-51732019D01*
X73470857Y-51732019D02*
X73385142Y-51684400D01*
X73385142Y-51684400D02*
X73342285Y-51636780D01*
X73342285Y-51636780D02*
X73299428Y-51541542D01*
X73299428Y-51541542D02*
X73299428Y-50732019D01*
X72913714Y-50827257D02*
X72870857Y-50779638D01*
X72870857Y-50779638D02*
X72785143Y-50732019D01*
X72785143Y-50732019D02*
X72570857Y-50732019D01*
X72570857Y-50732019D02*
X72485143Y-50779638D01*
X72485143Y-50779638D02*
X72442285Y-50827257D01*
X72442285Y-50827257D02*
X72399428Y-50922495D01*
X72399428Y-50922495D02*
X72399428Y-51017733D01*
X72399428Y-51017733D02*
X72442285Y-51160590D01*
X72442285Y-51160590D02*
X72956571Y-51732019D01*
X72956571Y-51732019D02*
X72399428Y-51732019D01*
X76799570Y-57340209D02*
X76670998Y-57387828D01*
X76670998Y-57387828D02*
X76628141Y-57435447D01*
X76628141Y-57435447D02*
X76585284Y-57530685D01*
X76585284Y-57530685D02*
X76585284Y-57673542D01*
X76585284Y-57673542D02*
X76628141Y-57768780D01*
X76628141Y-57768780D02*
X76670998Y-57816400D01*
X76670998Y-57816400D02*
X76756713Y-57864019D01*
X76756713Y-57864019D02*
X77099570Y-57864019D01*
X77099570Y-57864019D02*
X77099570Y-56864019D01*
X77099570Y-56864019D02*
X76799570Y-56864019D01*
X76799570Y-56864019D02*
X76713856Y-56911638D01*
X76713856Y-56911638D02*
X76670998Y-56959257D01*
X76670998Y-56959257D02*
X76628141Y-57054495D01*
X76628141Y-57054495D02*
X76628141Y-57149733D01*
X76628141Y-57149733D02*
X76670998Y-57244971D01*
X76670998Y-57244971D02*
X76713856Y-57292590D01*
X76713856Y-57292590D02*
X76799570Y-57340209D01*
X76799570Y-57340209D02*
X77099570Y-57340209D01*
X76242427Y-57578304D02*
X75813856Y-57578304D01*
X76328141Y-57864019D02*
X76028141Y-56864019D01*
X76028141Y-56864019D02*
X75728141Y-57864019D01*
X75556712Y-56864019D02*
X75042427Y-56864019D01*
X75299569Y-57864019D02*
X75299569Y-56864019D01*
X74956713Y-57959257D02*
X74270998Y-57959257D01*
X74056713Y-57864019D02*
X74056713Y-56864019D01*
X74056713Y-57340209D02*
X73542427Y-57340209D01*
X73542427Y-57864019D02*
X73542427Y-56864019D01*
X72685284Y-57864019D02*
X73113856Y-57864019D01*
X73113856Y-57864019D02*
X73113856Y-56864019D01*
X72385285Y-57864019D02*
X72385285Y-56864019D01*
X72385285Y-56864019D02*
X72170999Y-56864019D01*
X72170999Y-56864019D02*
X72042428Y-56911638D01*
X72042428Y-56911638D02*
X71956713Y-57006876D01*
X71956713Y-57006876D02*
X71913856Y-57102114D01*
X71913856Y-57102114D02*
X71870999Y-57292590D01*
X71870999Y-57292590D02*
X71870999Y-57435447D01*
X71870999Y-57435447D02*
X71913856Y-57625923D01*
X71913856Y-57625923D02*
X71956713Y-57721161D01*
X71956713Y-57721161D02*
X72042428Y-57816400D01*
X72042428Y-57816400D02*
X72170999Y-57864019D01*
X72170999Y-57864019D02*
X72385285Y-57864019D01*
X71699571Y-57959257D02*
X71013856Y-57959257D01*
X70842428Y-57816400D02*
X70713857Y-57864019D01*
X70713857Y-57864019D02*
X70499571Y-57864019D01*
X70499571Y-57864019D02*
X70413857Y-57816400D01*
X70413857Y-57816400D02*
X70370999Y-57768780D01*
X70370999Y-57768780D02*
X70328142Y-57673542D01*
X70328142Y-57673542D02*
X70328142Y-57578304D01*
X70328142Y-57578304D02*
X70370999Y-57483066D01*
X70370999Y-57483066D02*
X70413857Y-57435447D01*
X70413857Y-57435447D02*
X70499571Y-57387828D01*
X70499571Y-57387828D02*
X70670999Y-57340209D01*
X70670999Y-57340209D02*
X70756714Y-57292590D01*
X70756714Y-57292590D02*
X70799571Y-57244971D01*
X70799571Y-57244971D02*
X70842428Y-57149733D01*
X70842428Y-57149733D02*
X70842428Y-57054495D01*
X70842428Y-57054495D02*
X70799571Y-56959257D01*
X70799571Y-56959257D02*
X70756714Y-56911638D01*
X70756714Y-56911638D02*
X70670999Y-56864019D01*
X70670999Y-56864019D02*
X70456714Y-56864019D01*
X70456714Y-56864019D02*
X70328142Y-56911638D01*
X69942428Y-57864019D02*
X69942428Y-56864019D01*
X69942428Y-56864019D02*
X69642428Y-57578304D01*
X69642428Y-57578304D02*
X69342428Y-56864019D01*
X69342428Y-56864019D02*
X69342428Y-57864019D01*
X68913857Y-57864019D02*
X68913857Y-56864019D01*
X68913857Y-56864019D02*
X68699571Y-56864019D01*
X68699571Y-56864019D02*
X68571000Y-56911638D01*
X68571000Y-56911638D02*
X68485285Y-57006876D01*
X68485285Y-57006876D02*
X68442428Y-57102114D01*
X68442428Y-57102114D02*
X68399571Y-57292590D01*
X68399571Y-57292590D02*
X68399571Y-57435447D01*
X68399571Y-57435447D02*
X68442428Y-57625923D01*
X68442428Y-57625923D02*
X68485285Y-57721161D01*
X68485285Y-57721161D02*
X68571000Y-57816400D01*
X68571000Y-57816400D02*
X68699571Y-57864019D01*
X68699571Y-57864019D02*
X68913857Y-57864019D01*
%TO.C,G\u002A\u002A\u002A*%
X85310800Y-111243800D02*
X84835800Y-111818800D01*
X84835800Y-111818800D02*
X85160800Y-112243800D01*
X85160800Y-112243800D02*
X85310800Y-111243800D01*
D13*
X83722195Y-112568800D02*
X83735800Y-113468800D01*
X82340750Y-112968799D02*
X82340750Y-112568799D01*
X83335800Y-112968800D02*
X83335800Y-112718800D01*
X83285800Y-112968800D02*
X82835800Y-112968800D01*
X82835800Y-112968800D02*
X82835800Y-112668800D01*
X82335800Y-112968800D02*
X81835800Y-112968800D01*
X81835800Y-112968800D02*
X81835800Y-112518800D01*
D12*
X86035800Y-113193800D02*
X87210800Y-113543800D01*
D13*
X83735800Y-113468800D02*
X81285800Y-113518800D01*
X81285800Y-113518800D02*
X81285800Y-112318800D01*
D12*
X87210800Y-113543800D02*
X87160800Y-115343800D01*
D13*
X81285800Y-113793800D02*
X83735800Y-114568800D01*
X81285800Y-114193800D02*
X81285800Y-113793800D01*
X81885800Y-114443800D02*
X81285800Y-114193800D01*
X82285800Y-114518800D02*
X83035800Y-114743800D01*
X83735800Y-114568800D02*
X83735800Y-114893800D01*
X83035800Y-114743800D02*
X82285800Y-115018800D01*
D12*
X85110800Y-114768800D02*
X85010800Y-116443800D01*
D13*
X83735800Y-114893800D02*
X81285800Y-115793800D01*
X82285800Y-115018800D02*
X82285800Y-114518800D01*
X81885800Y-115043800D02*
X81885800Y-114443800D01*
X81285800Y-115293800D02*
X81885800Y-115043800D01*
X81285800Y-115293800D02*
X81285800Y-115793800D01*
D12*
X87160800Y-115343800D02*
X86035800Y-113193800D01*
X85685800Y-115468800D02*
X85110800Y-114768800D01*
D13*
X81760800Y-115968800D02*
X81310800Y-115968800D01*
X81310800Y-115968800D02*
X81310800Y-117218800D01*
D12*
X85010800Y-116468800D02*
X85685800Y-115468800D01*
X85460800Y-116618800D02*
X84335800Y-118243800D01*
X87785800Y-116668800D02*
X86560800Y-117793800D01*
X88185800Y-116693800D02*
X85460800Y-116618800D01*
D13*
X81760800Y-116718800D02*
X81760800Y-115968800D01*
X83760800Y-116743800D02*
X81760800Y-116718800D01*
X83760800Y-117193800D02*
X83760800Y-116743800D01*
X81310800Y-117218800D02*
X83760800Y-117193800D01*
X81310800Y-117393800D02*
X82260800Y-118093800D01*
X81310800Y-117493800D02*
X81310800Y-117393800D01*
D12*
X86560800Y-117793800D02*
X85060800Y-117218800D01*
D13*
X81310800Y-117893800D02*
X81310800Y-117493800D01*
X83766206Y-118135069D02*
X83760800Y-119243800D01*
D12*
X84335800Y-118243800D02*
X84560800Y-119918800D01*
D13*
X83310800Y-118293800D02*
X83310800Y-118743800D01*
X82260800Y-118643800D02*
X81310800Y-117893800D01*
X83310800Y-118743800D02*
X82760800Y-118743800D01*
X82760800Y-118743800D02*
X82760800Y-118243800D01*
X82260800Y-118793800D02*
X82260800Y-118643800D01*
X81310800Y-118793800D02*
X82260800Y-118793800D01*
X83760800Y-119243800D02*
X81310800Y-119243800D01*
X81310800Y-119243800D02*
X81310800Y-118793800D01*
D12*
X84110800Y-119393800D02*
X83760800Y-120368800D01*
D13*
X83760800Y-119693800D02*
X83760800Y-120993800D01*
X83260800Y-119693800D02*
X83760800Y-119693800D01*
X81810800Y-119693800D02*
X81810800Y-120543800D01*
X81310800Y-119693800D02*
X81810800Y-119693800D01*
D12*
X84385800Y-119793800D02*
X84110800Y-119393800D01*
D13*
X82810800Y-119893800D02*
X82810800Y-120543800D01*
X82360800Y-119893800D02*
X82810800Y-119893800D01*
D12*
X84560800Y-119918800D02*
X83660800Y-121743800D01*
X86560800Y-120168800D02*
X88185800Y-116693800D01*
X86560800Y-120168800D02*
X85410800Y-122493800D01*
D13*
X83260800Y-120543800D02*
X83260800Y-119693800D01*
X82810800Y-120543800D02*
X83260800Y-120543800D01*
X82360800Y-120543800D02*
X82360800Y-119893800D01*
X81810800Y-120543800D02*
X82360800Y-120543800D01*
D12*
X83785800Y-120568800D02*
X84385800Y-119793800D01*
X87985800Y-120918800D02*
X86560800Y-120168800D01*
X87985800Y-120918800D02*
X86810800Y-123118800D01*
D13*
X81310800Y-120943800D02*
X81310800Y-119693800D01*
X83760800Y-120993800D02*
X81310800Y-121043800D01*
X81310800Y-121043800D02*
X81310800Y-120943800D01*
X83747195Y-122143800D02*
X83760800Y-123043800D01*
D12*
X85410800Y-122493800D02*
X83685800Y-123968800D01*
X85410800Y-122493800D02*
X82560800Y-128143800D01*
D13*
X82365750Y-122543799D02*
X82365750Y-122143799D01*
X83360800Y-122543800D02*
X83360800Y-122293800D01*
X83310800Y-122543800D02*
X82860800Y-122543800D01*
X82860800Y-122543800D02*
X82860800Y-122243800D01*
X82360800Y-122543800D02*
X81860800Y-122543800D01*
X81860800Y-122543800D02*
X81860800Y-122093800D01*
X83760800Y-123043800D02*
X81310800Y-123093800D01*
X81310800Y-123093800D02*
X81310800Y-121893800D01*
D12*
X86810800Y-123118800D02*
X85910800Y-121543800D01*
X86985800Y-123218800D02*
X85410800Y-122493800D01*
D13*
X82910800Y-123493800D02*
X82210800Y-123493800D01*
D12*
X83585800Y-123793800D02*
X88185800Y-116693800D01*
D13*
X82910800Y-123993800D02*
X82260800Y-123993800D01*
D12*
X86735800Y-124243800D02*
X85410800Y-122493800D01*
X86735800Y-124243800D02*
X86985800Y-123218800D01*
X82660800Y-124318800D02*
X82485800Y-124693800D01*
X83060800Y-124643800D02*
X82660800Y-124318800D01*
D13*
X82910800Y-124693800D02*
X82210800Y-124693800D01*
D12*
X82310800Y-125193800D02*
X82035800Y-125743800D01*
D13*
X82210800Y-125193800D02*
X82910800Y-125193800D01*
D12*
X83035800Y-125243800D02*
X82410800Y-125468800D01*
X82410800Y-125468800D02*
X82560800Y-128143800D01*
X82035800Y-125743800D02*
X82835800Y-125168800D01*
X82085800Y-126818800D02*
X82435800Y-125993800D01*
X82560800Y-128143800D02*
X86735800Y-124243800D01*
X82560800Y-128143800D02*
X83035800Y-125243800D01*
X82560800Y-128143800D02*
X82085800Y-126818800D01*
D13*
X82635801Y-112118801D02*
G75*
G02*
X83722194Y-112568800I449999J-449999D01*
G01*
X81285802Y-112318801D02*
G75*
G02*
X82594736Y-112142544I699998J-249998D01*
G01*
X81835802Y-112518801D02*
G75*
G02*
X82340749Y-112568799I249998J-49999D01*
G01*
X82835800Y-112668800D02*
G75*
G02*
X83328336Y-112729434I250000J0D01*
G01*
X82310802Y-118118801D02*
G75*
G02*
X83766205Y-118135069I724998J-249999D01*
G01*
X82760802Y-118243801D02*
G75*
G02*
X83310798Y-118243801I274998J-124999D01*
G01*
X82660801Y-121693801D02*
G75*
G02*
X83747194Y-122143800I449999J-449999D01*
G01*
X81310802Y-121893801D02*
G75*
G02*
X82619736Y-121717544I699998J-249998D01*
G01*
X81860802Y-122093801D02*
G75*
G02*
X82365749Y-122143799I249998J-49999D01*
G01*
X82860800Y-122243800D02*
G75*
G02*
X83353336Y-122304434I250000J0D01*
G01*
X82910800Y-123493800D02*
G75*
G02*
X82910800Y-125193800I0J-850000D01*
G01*
X82910800Y-123993800D02*
G75*
G02*
X82910800Y-124693800I0J-350000D01*
G01*
X82210800Y-124693800D02*
G75*
G02*
X82210800Y-123993800I0J350000D01*
G01*
X82210800Y-125193800D02*
G75*
G02*
X82210800Y-123493800I0J850000D01*
G01*
D14*
X28379393Y-133627342D02*
X28315574Y-133691161D01*
X28251755Y-133627342D01*
X28315574Y-133563523D01*
X28379393Y-133627342D01*
G36*
X28379393Y-133627342D02*
G01*
X28315574Y-133691161D01*
X28251755Y-133627342D01*
X28315574Y-133563523D01*
X28379393Y-133627342D01*
G37*
D13*
%TO.C,C1*%
X68361759Y-83881000D02*
X68991759Y-83881000D01*
X68676759Y-84196000D02*
X68676759Y-83566000D01*
X71862000Y-85272000D02*
X71862000Y-78812000D01*
X71902000Y-85272000D02*
X71902000Y-78812000D01*
X71942000Y-85272000D02*
X71942000Y-78812000D01*
X71982000Y-85270000D02*
X71982000Y-78814000D01*
X72022000Y-85269000D02*
X72022000Y-78815000D01*
X72062000Y-85266000D02*
X72062000Y-78818000D01*
X72102000Y-81002000D02*
X72102000Y-78820000D01*
X72102000Y-85264000D02*
X72102000Y-83082000D01*
X72142000Y-81002000D02*
X72142000Y-78824000D01*
X72142000Y-85260000D02*
X72142000Y-83082000D01*
X72182000Y-81002000D02*
X72182000Y-78827000D01*
X72182000Y-85257000D02*
X72182000Y-83082000D01*
X72222000Y-81002000D02*
X72222000Y-78831000D01*
X72222000Y-85253000D02*
X72222000Y-83082000D01*
X72262000Y-81002000D02*
X72262000Y-78836000D01*
X72262000Y-85248000D02*
X72262000Y-83082000D01*
X72302000Y-81002000D02*
X72302000Y-78841000D01*
X72302000Y-85243000D02*
X72302000Y-83082000D01*
X72342000Y-81002000D02*
X72342000Y-78847000D01*
X72342000Y-85237000D02*
X72342000Y-83082000D01*
X72382000Y-81002000D02*
X72382000Y-78853000D01*
X72382000Y-85231000D02*
X72382000Y-83082000D01*
X72422000Y-81002000D02*
X72422000Y-78860000D01*
X72422000Y-85224000D02*
X72422000Y-83082000D01*
X72462000Y-81002000D02*
X72462000Y-78867000D01*
X72462000Y-85217000D02*
X72462000Y-83082000D01*
X72502000Y-81002000D02*
X72502000Y-78875000D01*
X72502000Y-85209000D02*
X72502000Y-83082000D01*
X72542000Y-81002000D02*
X72542000Y-78883000D01*
X72542000Y-85201000D02*
X72542000Y-83082000D01*
X72583000Y-81002000D02*
X72583000Y-78892000D01*
X72583000Y-85192000D02*
X72583000Y-83082000D01*
X72623000Y-81002000D02*
X72623000Y-78901000D01*
X72623000Y-85183000D02*
X72623000Y-83082000D01*
X72663000Y-81002000D02*
X72663000Y-78911000D01*
X72663000Y-85173000D02*
X72663000Y-83082000D01*
X72703000Y-81002000D02*
X72703000Y-78921000D01*
X72703000Y-85163000D02*
X72703000Y-83082000D01*
X72743000Y-81002000D02*
X72743000Y-78932000D01*
X72743000Y-85152000D02*
X72743000Y-83082000D01*
X72783000Y-81002000D02*
X72783000Y-78944000D01*
X72783000Y-85140000D02*
X72783000Y-83082000D01*
X72823000Y-81002000D02*
X72823000Y-78956000D01*
X72823000Y-85128000D02*
X72823000Y-83082000D01*
X72863000Y-81002000D02*
X72863000Y-78968000D01*
X72863000Y-85116000D02*
X72863000Y-83082000D01*
X72903000Y-81002000D02*
X72903000Y-78981000D01*
X72903000Y-85103000D02*
X72903000Y-83082000D01*
X72943000Y-81002000D02*
X72943000Y-78995000D01*
X72943000Y-85089000D02*
X72943000Y-83082000D01*
X72983000Y-81002000D02*
X72983000Y-79009000D01*
X72983000Y-85075000D02*
X72983000Y-83082000D01*
X73023000Y-81002000D02*
X73023000Y-79024000D01*
X73023000Y-85060000D02*
X73023000Y-83082000D01*
X73063000Y-81002000D02*
X73063000Y-79040000D01*
X73063000Y-85044000D02*
X73063000Y-83082000D01*
X73103000Y-81002000D02*
X73103000Y-79056000D01*
X73103000Y-85028000D02*
X73103000Y-83082000D01*
X73143000Y-81002000D02*
X73143000Y-79072000D01*
X73143000Y-85012000D02*
X73143000Y-83082000D01*
X73183000Y-81002000D02*
X73183000Y-79090000D01*
X73183000Y-84994000D02*
X73183000Y-83082000D01*
X73223000Y-81002000D02*
X73223000Y-79108000D01*
X73223000Y-84976000D02*
X73223000Y-83082000D01*
X73263000Y-81002000D02*
X73263000Y-79126000D01*
X73263000Y-84958000D02*
X73263000Y-83082000D01*
X73303000Y-81002000D02*
X73303000Y-79146000D01*
X73303000Y-84938000D02*
X73303000Y-83082000D01*
X73343000Y-81002000D02*
X73343000Y-79166000D01*
X73343000Y-84918000D02*
X73343000Y-83082000D01*
X73383000Y-81002000D02*
X73383000Y-79186000D01*
X73383000Y-84898000D02*
X73383000Y-83082000D01*
X73423000Y-81002000D02*
X73423000Y-79208000D01*
X73423000Y-84876000D02*
X73423000Y-83082000D01*
X73463000Y-81002000D02*
X73463000Y-79230000D01*
X73463000Y-84854000D02*
X73463000Y-83082000D01*
X73503000Y-81002000D02*
X73503000Y-79252000D01*
X73503000Y-84832000D02*
X73503000Y-83082000D01*
X73543000Y-81002000D02*
X73543000Y-79276000D01*
X73543000Y-84808000D02*
X73543000Y-83082000D01*
X73583000Y-81002000D02*
X73583000Y-79300000D01*
X73583000Y-84784000D02*
X73583000Y-83082000D01*
X73623000Y-81002000D02*
X73623000Y-79326000D01*
X73623000Y-84758000D02*
X73623000Y-83082000D01*
X73663000Y-81002000D02*
X73663000Y-79352000D01*
X73663000Y-84732000D02*
X73663000Y-83082000D01*
X73703000Y-81002000D02*
X73703000Y-79378000D01*
X73703000Y-84706000D02*
X73703000Y-83082000D01*
X73743000Y-81002000D02*
X73743000Y-79406000D01*
X73743000Y-84678000D02*
X73743000Y-83082000D01*
X73783000Y-81002000D02*
X73783000Y-79435000D01*
X73783000Y-84649000D02*
X73783000Y-83082000D01*
X73823000Y-81002000D02*
X73823000Y-79464000D01*
X73823000Y-84620000D02*
X73823000Y-83082000D01*
X73863000Y-81002000D02*
X73863000Y-79494000D01*
X73863000Y-84590000D02*
X73863000Y-83082000D01*
X73903000Y-81002000D02*
X73903000Y-79526000D01*
X73903000Y-84558000D02*
X73903000Y-83082000D01*
X73943000Y-81002000D02*
X73943000Y-79558000D01*
X73943000Y-84526000D02*
X73943000Y-83082000D01*
X73983000Y-81002000D02*
X73983000Y-79592000D01*
X73983000Y-84492000D02*
X73983000Y-83082000D01*
X74023000Y-81002000D02*
X74023000Y-79626000D01*
X74023000Y-84458000D02*
X74023000Y-83082000D01*
X74063000Y-81002000D02*
X74063000Y-79662000D01*
X74063000Y-84422000D02*
X74063000Y-83082000D01*
X74103000Y-81002000D02*
X74103000Y-79699000D01*
X74103000Y-84385000D02*
X74103000Y-83082000D01*
X74143000Y-81002000D02*
X74143000Y-79737000D01*
X74143000Y-84347000D02*
X74143000Y-83082000D01*
X74183000Y-84307000D02*
X74183000Y-79777000D01*
X74223000Y-84266000D02*
X74223000Y-79818000D01*
X74263000Y-84224000D02*
X74263000Y-79860000D01*
X74303000Y-84179000D02*
X74303000Y-79905000D01*
X74343000Y-84134000D02*
X74343000Y-79950000D01*
X74383000Y-84086000D02*
X74383000Y-79998000D01*
X74423000Y-84037000D02*
X74423000Y-80047000D01*
X74463000Y-83986000D02*
X74463000Y-80098000D01*
X74503000Y-83932000D02*
X74503000Y-80152000D01*
X74543000Y-83876000D02*
X74543000Y-80208000D01*
X74583000Y-83818000D02*
X74583000Y-80266000D01*
X74623000Y-83756000D02*
X74623000Y-80328000D01*
X74663000Y-83692000D02*
X74663000Y-80392000D01*
X74703000Y-83623000D02*
X74703000Y-80461000D01*
X74743000Y-83551000D02*
X74743000Y-80533000D01*
X74783000Y-83474000D02*
X74783000Y-80610000D01*
X74823000Y-83392000D02*
X74823000Y-80692000D01*
X74863000Y-83304000D02*
X74863000Y-80780000D01*
X74903000Y-83207000D02*
X74903000Y-80877000D01*
X74943000Y-83101000D02*
X74943000Y-80983000D01*
X74983000Y-82982000D02*
X74983000Y-81102000D01*
X75023000Y-82844000D02*
X75023000Y-81240000D01*
X75063000Y-82675000D02*
X75063000Y-81409000D01*
X75103000Y-82444000D02*
X75103000Y-81640000D01*
X75132000Y-82042000D02*
G75*
G02*
X68592000Y-82042000I-3270000J0D01*
G01*
X68592000Y-82042000D02*
G75*
G02*
X75132000Y-82042000I3270000J0D01*
G01*
%TO.C,D3*%
X57634000Y-52324000D02*
X56984000Y-52324000D01*
X56984000Y-53444000D02*
X52744000Y-53444000D01*
X56984000Y-51204000D02*
X56984000Y-53444000D01*
X56384000Y-51204000D02*
X56384000Y-53444000D01*
X56264000Y-51204000D02*
X56264000Y-53444000D01*
X56144000Y-51204000D02*
X56144000Y-53444000D01*
X52744000Y-53444000D02*
X52744000Y-51204000D01*
X52744000Y-51204000D02*
X56984000Y-51204000D01*
X52094000Y-52324000D02*
X52744000Y-52324000D01*
%TO.C,R3*%
X61722000Y-74398000D02*
X61722000Y-73628000D01*
X60352000Y-73628000D02*
X60352000Y-67088000D01*
X63092000Y-73628000D02*
X60352000Y-73628000D01*
X60352000Y-67088000D02*
X63092000Y-67088000D01*
X63092000Y-67088000D02*
X63092000Y-73628000D01*
X61722000Y-66318000D02*
X61722000Y-67088000D01*
%TO.C,R4*%
X84352000Y-52324000D02*
X85122000Y-52324000D01*
X85122000Y-50954000D02*
X91662000Y-50954000D01*
X85122000Y-53694000D02*
X85122000Y-50954000D01*
X91662000Y-50954000D02*
X91662000Y-53694000D01*
X91662000Y-53694000D02*
X85122000Y-53694000D01*
X92432000Y-52324000D02*
X91662000Y-52324000D01*
%TO.C,R5*%
X91670000Y-65532000D02*
X90900000Y-65532000D01*
X90900000Y-66902000D02*
X84360000Y-66902000D01*
X90900000Y-64162000D02*
X90900000Y-66902000D01*
X84360000Y-66902000D02*
X84360000Y-64162000D01*
X84360000Y-64162000D02*
X90900000Y-64162000D01*
X83590000Y-65532000D02*
X84360000Y-65532000D01*
%TO.C,R6*%
X48538000Y-65278000D02*
X49308000Y-65278000D01*
X49308000Y-63908000D02*
X55848000Y-63908000D01*
X49308000Y-66648000D02*
X49308000Y-63908000D01*
X55848000Y-63908000D02*
X55848000Y-66648000D01*
X55848000Y-66648000D02*
X49308000Y-66648000D01*
X56618000Y-65278000D02*
X55848000Y-65278000D01*
%TO.C,S1*%
X100482400Y-57810400D02*
X96545400Y-57785000D01*
X96545400Y-57810400D02*
X96545400Y-67767200D01*
X100482400Y-67767200D02*
X100482400Y-57810400D01*
X96545400Y-67767200D02*
X100482400Y-67767200D01*
%TO.C,U1*%
X67250000Y-74786000D02*
X67250000Y-69486000D01*
X77530000Y-74786000D02*
X67250000Y-74786000D01*
X77530000Y-73136000D02*
X77530000Y-74786000D01*
X67250000Y-69486000D02*
X77530000Y-69486000D01*
X77530000Y-69486000D02*
X77530000Y-71136000D01*
X77530000Y-73136000D02*
G75*
G02*
X77530000Y-71136000I0J1000000D01*
G01*
%TD*%
M02*
