%TF.GenerationSoftware,KiCad,Pcbnew,8.0.1*%
%TF.CreationDate,2024-04-02T10:45:20+02:00*%
%TF.ProjectId,Robo_II,526f626f-5f49-4492-9e6b-696361645f70,rev?*%
%TF.SameCoordinates,Original*%
%TF.FileFunction,Copper,L2,Bot*%
%TF.FilePolarity,Positive*%
%FSLAX46Y46*%
G04 Gerber Fmt 4.6, Leading zero omitted, Abs format (unit mm)*
G04 Created by KiCad (PCBNEW 8.0.1) date 2024-04-02 10:45:20*
%MOMM*%
%LPD*%
G01*
G04 APERTURE LIST*
%ADD10C,0.300000*%
%TA.AperFunction,NonConductor*%
%ADD11C,0.300000*%
%TD*%
%TA.AperFunction,ComponentPad*%
%ADD12R,1.800000X1.800000*%
%TD*%
%TA.AperFunction,ComponentPad*%
%ADD13C,1.800000*%
%TD*%
%TA.AperFunction,ComponentPad*%
%ADD14R,1.500000X1.500000*%
%TD*%
%TA.AperFunction,ComponentPad*%
%ADD15C,1.500000*%
%TD*%
%TA.AperFunction,ComponentPad*%
%ADD16R,1.600000X1.600000*%
%TD*%
%TA.AperFunction,ComponentPad*%
%ADD17C,1.600000*%
%TD*%
%TA.AperFunction,ComponentPad*%
%ADD18O,1.600000X1.600000*%
%TD*%
%TA.AperFunction,ComponentPad*%
%ADD19C,2.000000*%
%TD*%
%TA.AperFunction,SMDPad,CuDef*%
%ADD20R,5.000000X2.000000*%
%TD*%
%TA.AperFunction,SMDPad,CuDef*%
%ADD21C,17.780000*%
%TD*%
%TA.AperFunction,SMDPad,CuDef*%
%ADD22C,2.500000*%
%TD*%
%TA.AperFunction,SMDPad,CuDef*%
%ADD23C,1.000000*%
%TD*%
%TA.AperFunction,ViaPad*%
%ADD24C,0.600000*%
%TD*%
%TA.AperFunction,Conductor*%
%ADD25C,0.250000*%
%TD*%
G04 APERTURE END LIST*
D10*
D11*
X78039171Y-126395489D02*
X79539171Y-126395489D01*
X78039171Y-125538346D02*
X78896314Y-126181203D01*
X79539171Y-125538346D02*
X78682028Y-126395489D01*
X78039171Y-124895489D02*
X79539171Y-124895489D01*
X78824885Y-124895489D02*
X78824885Y-124038346D01*
X78039171Y-124038346D02*
X79539171Y-124038346D01*
X78824885Y-122824060D02*
X78824885Y-123324060D01*
X78039171Y-123324060D02*
X79539171Y-123324060D01*
X79539171Y-123324060D02*
X79539171Y-122609774D01*
X79539171Y-120609774D02*
X79539171Y-120466917D01*
X79539171Y-120466917D02*
X79467742Y-120324060D01*
X79467742Y-120324060D02*
X79396314Y-120252632D01*
X79396314Y-120252632D02*
X79253457Y-120181203D01*
X79253457Y-120181203D02*
X78967742Y-120109774D01*
X78967742Y-120109774D02*
X78610600Y-120109774D01*
X78610600Y-120109774D02*
X78324885Y-120181203D01*
X78324885Y-120181203D02*
X78182028Y-120252632D01*
X78182028Y-120252632D02*
X78110600Y-120324060D01*
X78110600Y-120324060D02*
X78039171Y-120466917D01*
X78039171Y-120466917D02*
X78039171Y-120609774D01*
X78039171Y-120609774D02*
X78110600Y-120752632D01*
X78110600Y-120752632D02*
X78182028Y-120824060D01*
X78182028Y-120824060D02*
X78324885Y-120895489D01*
X78324885Y-120895489D02*
X78610600Y-120966917D01*
X78610600Y-120966917D02*
X78967742Y-120966917D01*
X78967742Y-120966917D02*
X79253457Y-120895489D01*
X79253457Y-120895489D02*
X79396314Y-120824060D01*
X79396314Y-120824060D02*
X79467742Y-120752632D01*
X79467742Y-120752632D02*
X79539171Y-120609774D01*
X78039171Y-118681203D02*
X78039171Y-119538346D01*
X78039171Y-119109775D02*
X79539171Y-119109775D01*
X79539171Y-119109775D02*
X79324885Y-119252632D01*
X79324885Y-119252632D02*
X79182028Y-119395489D01*
X79182028Y-119395489D02*
X79110600Y-119538346D01*
X78182028Y-118038347D02*
X78110600Y-117966918D01*
X78110600Y-117966918D02*
X78039171Y-118038347D01*
X78039171Y-118038347D02*
X78110600Y-118109775D01*
X78110600Y-118109775D02*
X78182028Y-118038347D01*
X78182028Y-118038347D02*
X78039171Y-118038347D01*
X79396314Y-117395489D02*
X79467742Y-117324061D01*
X79467742Y-117324061D02*
X79539171Y-117181204D01*
X79539171Y-117181204D02*
X79539171Y-116824061D01*
X79539171Y-116824061D02*
X79467742Y-116681204D01*
X79467742Y-116681204D02*
X79396314Y-116609775D01*
X79396314Y-116609775D02*
X79253457Y-116538346D01*
X79253457Y-116538346D02*
X79110600Y-116538346D01*
X79110600Y-116538346D02*
X78896314Y-116609775D01*
X78896314Y-116609775D02*
X78039171Y-117466918D01*
X78039171Y-117466918D02*
X78039171Y-116538346D01*
X79539171Y-115609775D02*
X79539171Y-115466918D01*
X79539171Y-115466918D02*
X79467742Y-115324061D01*
X79467742Y-115324061D02*
X79396314Y-115252633D01*
X79396314Y-115252633D02*
X79253457Y-115181204D01*
X79253457Y-115181204D02*
X78967742Y-115109775D01*
X78967742Y-115109775D02*
X78610600Y-115109775D01*
X78610600Y-115109775D02*
X78324885Y-115181204D01*
X78324885Y-115181204D02*
X78182028Y-115252633D01*
X78182028Y-115252633D02*
X78110600Y-115324061D01*
X78110600Y-115324061D02*
X78039171Y-115466918D01*
X78039171Y-115466918D02*
X78039171Y-115609775D01*
X78039171Y-115609775D02*
X78110600Y-115752633D01*
X78110600Y-115752633D02*
X78182028Y-115824061D01*
X78182028Y-115824061D02*
X78324885Y-115895490D01*
X78324885Y-115895490D02*
X78610600Y-115966918D01*
X78610600Y-115966918D02*
X78967742Y-115966918D01*
X78967742Y-115966918D02*
X79253457Y-115895490D01*
X79253457Y-115895490D02*
X79396314Y-115824061D01*
X79396314Y-115824061D02*
X79467742Y-115752633D01*
X79467742Y-115752633D02*
X79539171Y-115609775D01*
X79396314Y-114538347D02*
X79467742Y-114466919D01*
X79467742Y-114466919D02*
X79539171Y-114324062D01*
X79539171Y-114324062D02*
X79539171Y-113966919D01*
X79539171Y-113966919D02*
X79467742Y-113824062D01*
X79467742Y-113824062D02*
X79396314Y-113752633D01*
X79396314Y-113752633D02*
X79253457Y-113681204D01*
X79253457Y-113681204D02*
X79110600Y-113681204D01*
X79110600Y-113681204D02*
X78896314Y-113752633D01*
X78896314Y-113752633D02*
X78039171Y-114609776D01*
X78039171Y-114609776D02*
X78039171Y-113681204D01*
X79039171Y-112395491D02*
X78039171Y-112395491D01*
X79610600Y-112752633D02*
X78539171Y-113109776D01*
X78539171Y-113109776D02*
X78539171Y-112181205D01*
D12*
%TO.P,D1,1,K*%
%TO.N,Net-(D1-K)*%
X59690000Y-89662000D03*
D13*
%TO.P,D1,2,A*%
%TO.N,Net-(D1-A)*%
X62230000Y-89662000D03*
%TD*%
D12*
%TO.P,D2,1,K*%
%TO.N,Net-(D1-K)*%
X65024000Y-89662000D03*
D13*
%TO.P,D2,2,A*%
%TO.N,Net-(D1-A)*%
X67564000Y-89662000D03*
%TD*%
D12*
%TO.P,D4,1,K*%
%TO.N,Net-(D1-K)*%
X70612000Y-89662000D03*
D13*
%TO.P,D4,2,A*%
%TO.N,Net-(D1-A)*%
X73152000Y-89662000D03*
%TD*%
D12*
%TO.P,D5,1,K*%
%TO.N,Net-(D1-K)*%
X76200000Y-89662000D03*
D13*
%TO.P,D5,2,A*%
%TO.N,Net-(D1-A)*%
X78740000Y-89662000D03*
%TD*%
D12*
%TO.P,D6,1,K*%
%TO.N,Net-(D1-K)*%
X81534000Y-89662000D03*
D13*
%TO.P,D6,2,A*%
%TO.N,Net-(D1-A)*%
X84074000Y-89662000D03*
%TD*%
D12*
%TO.P,D7,1,K*%
%TO.N,Net-(D1-K)*%
X81788000Y-94996000D03*
D13*
%TO.P,D7,2,A*%
%TO.N,Net-(D1-A)*%
X84328000Y-94996000D03*
%TD*%
D12*
%TO.P,D8,1,K*%
%TO.N,Net-(D1-K)*%
X81788000Y-100076000D03*
D13*
%TO.P,D8,2,A*%
%TO.N,Net-(D1-A)*%
X84328000Y-100076000D03*
%TD*%
D12*
%TO.P,D9,1,K*%
%TO.N,Net-(D1-K)*%
X81788000Y-105156000D03*
D13*
%TO.P,D9,2,A*%
%TO.N,Net-(D1-A)*%
X84328000Y-105156000D03*
%TD*%
D12*
%TO.P,D10,1,K*%
%TO.N,Net-(D1-K)*%
X76200000Y-105410000D03*
D13*
%TO.P,D10,2,A*%
%TO.N,Net-(D1-A)*%
X78740000Y-105410000D03*
%TD*%
D12*
%TO.P,D11,1,K*%
%TO.N,Net-(D1-K)*%
X70612000Y-105410000D03*
D13*
%TO.P,D11,2,A*%
%TO.N,Net-(D1-A)*%
X73152000Y-105410000D03*
%TD*%
D12*
%TO.P,D12,1,K*%
%TO.N,Net-(D1-K)*%
X65024000Y-105410000D03*
D13*
%TO.P,D12,2,A*%
%TO.N,Net-(D1-A)*%
X67564000Y-105410000D03*
%TD*%
D12*
%TO.P,D13,1,K*%
%TO.N,Net-(D1-K)*%
X59690000Y-105410000D03*
D13*
%TO.P,D13,2,A*%
%TO.N,Net-(D1-A)*%
X62230000Y-105410000D03*
%TD*%
D12*
%TO.P,D14,1,K*%
%TO.N,Net-(D1-K)*%
X59690000Y-100330000D03*
D13*
%TO.P,D14,2,A*%
%TO.N,Net-(D1-A)*%
X62230000Y-100330000D03*
%TD*%
D12*
%TO.P,D15,1,K*%
%TO.N,Net-(D1-K)*%
X59690000Y-94996000D03*
D13*
%TO.P,D15,2,A*%
%TO.N,Net-(D1-A)*%
X62230000Y-94996000D03*
%TD*%
D14*
%TO.P,T1,1,E*%
%TO.N,Net-(D1-K)*%
X95210000Y-58890000D03*
D15*
%TO.P,T1,2,B*%
%TO.N,Net-(T1-B)*%
X92670000Y-61430000D03*
%TO.P,T1,3,C*%
%TO.N,Net-(T1-C)*%
X90130000Y-58890000D03*
%TD*%
D14*
%TO.P,T2,1,E*%
%TO.N,Net-(D1-A)*%
X54610000Y-59250000D03*
D15*
%TO.P,T2,2,B*%
%TO.N,Net-(T1-C)*%
X52070000Y-61790000D03*
%TO.P,T2,3,C*%
%TO.N,Net-(T2-C)*%
X49530000Y-59250000D03*
%TD*%
D16*
%TO.P,C1,1*%
%TO.N,Net-(D3-K)*%
X70612000Y-82042000D03*
D17*
%TO.P,C1,2*%
%TO.N,Net-(D1-K)*%
X73112000Y-82042000D03*
%TD*%
D16*
%TO.P,D3,1,K*%
%TO.N,Net-(D3-K)*%
X58674000Y-52324000D03*
D18*
%TO.P,D3,2,A*%
%TO.N,Net-(D3-A)*%
X51054000Y-52324000D03*
%TD*%
D19*
%TO.P,P1,1,1*%
%TO.N,Net-(S1-E)*%
X48514000Y-76200000D03*
%TO.P,P1,2,2*%
%TO.N,unconnected-(P1-Pad2)*%
X53594000Y-76200000D03*
%TO.P,P1,3,3*%
%TO.N,Net-(D3-A)*%
X51054000Y-70104000D03*
X51054000Y-73660000D03*
%TD*%
%TO.P,P2,1,1*%
%TO.N,Net-(D3-A)*%
X90170000Y-75946000D03*
%TO.P,P2,2,2*%
%TO.N,unconnected-(P2-Pad2)*%
X95250000Y-75946000D03*
%TO.P,P2,3,3*%
%TO.N,Net-(D3-K)*%
X92710000Y-69850000D03*
X92710000Y-73406000D03*
%TD*%
D17*
%TO.P,R3,1*%
%TO.N,Net-(D3-K)*%
X61722000Y-75438000D03*
D18*
%TO.P,R3,2*%
%TO.N,Net-(T1-B)*%
X61722000Y-65278000D03*
%TD*%
D17*
%TO.P,R4,1*%
%TO.N,Net-(T1-B)*%
X83312000Y-52324000D03*
D18*
%TO.P,R4,2*%
%TO.N,Net-(D1-K)*%
X93472000Y-52324000D03*
%TD*%
D17*
%TO.P,R5,1*%
%TO.N,Net-(S1-E)*%
X92710000Y-65532000D03*
D18*
%TO.P,R5,2*%
%TO.N,Net-(T1-C)*%
X82550000Y-65532000D03*
%TD*%
D17*
%TO.P,R6,1*%
%TO.N,Net-(S1-E)*%
X47498000Y-65278000D03*
D18*
%TO.P,R6,2*%
%TO.N,Net-(T2-C)*%
X57658000Y-65278000D03*
%TD*%
D19*
%TO.P,S1,1,A*%
%TO.N,Net-(S1-A-Pad1)*%
X98552000Y-60198000D03*
%TO.P,S1,2,E*%
%TO.N,Net-(S1-E)*%
X98552000Y-62738000D03*
%TO.P,S1,3,A*%
%TO.N,unconnected-(S1-A-Pad3)*%
X98552000Y-65278000D03*
%TD*%
D16*
%TO.P,U1,1,GND*%
%TO.N,Net-(D1-K)*%
X76200000Y-75946000D03*
D18*
%TO.P,U1,2,TR*%
%TO.N,Net-(D3-K)*%
X73660000Y-75946000D03*
%TO.P,U1,3,Q*%
%TO.N,unconnected-(U1-Q-Pad3)*%
X71120000Y-75946000D03*
%TO.P,U1,4,R*%
%TO.N,Net-(S1-E)*%
X68580000Y-75946000D03*
%TO.P,U1,5,CV*%
%TO.N,unconnected-(U1-CV-Pad5)*%
X68580000Y-68326000D03*
%TO.P,U1,6,THR*%
%TO.N,Net-(D3-K)*%
X71120000Y-68326000D03*
%TO.P,U1,7,DIS*%
%TO.N,Net-(D3-A)*%
X73660000Y-68326000D03*
%TO.P,U1,8,VCC*%
%TO.N,Net-(S1-E)*%
X76200000Y-68326000D03*
%TD*%
D20*
%TO.P,U2,1*%
%TO.N,Net-(S1-A-Pad1)*%
X59944000Y-55880000D03*
X59944000Y-59436000D03*
X85838000Y-55880000D03*
X85838000Y-59436000D03*
D21*
%TO.P,U2,2*%
%TO.N,Net-(D1-K)*%
X72898000Y-57912000D03*
%TD*%
D22*
%TO.P,LP_rund,1*%
%TO.N,Net-(D1-K)*%
X65151000Y-66421000D03*
%TD*%
D23*
%TO.P,LP_rund,1*%
%TO.N,Net-(T1-C)*%
X51104800Y-55880000D03*
%TD*%
%TO.P,LP_rund,1*%
%TO.N,Net-(T1-B)*%
X90680000Y-54970000D03*
%TD*%
D24*
%TO.N,Net-(D1-K)*%
X80772000Y-71882000D03*
X80010000Y-66548000D03*
%TO.N,Net-(S1-E)*%
X75438000Y-70612000D03*
%TO.N,Net-(T1-C)*%
X72689999Y-70729000D03*
X68326000Y-70866000D03*
%TD*%
D25*
%TO.N,Net-(D1-K)*%
X65151000Y-66421000D02*
X72898000Y-58674000D01*
X72898000Y-57912000D02*
X72898000Y-59436000D01*
X80772000Y-71882000D02*
X80772000Y-75438000D01*
X80772000Y-75438000D02*
X80264000Y-75946000D01*
X72898000Y-58674000D02*
X72898000Y-57912000D01*
X72898000Y-59436000D02*
X80010000Y-66548000D01*
X80264000Y-75946000D02*
X76200000Y-75946000D01*
%TO.N,Net-(D1-A)*%
X73152000Y-104521000D02*
X73152000Y-105410000D01*
X74041000Y-103632000D02*
X73152000Y-104521000D01*
X73660000Y-91567000D02*
X73152000Y-91059000D01*
X54610000Y-59250000D02*
X54610000Y-56700000D01*
X62230000Y-105410000D02*
X62230000Y-104140000D01*
X78740000Y-90932000D02*
X78740000Y-91186000D01*
X63373000Y-91440000D02*
X67437000Y-91440000D01*
X62230000Y-102743000D02*
X62992000Y-103505000D01*
X77978000Y-103632000D02*
X74041000Y-103632000D01*
X67818000Y-91440000D02*
X67564000Y-91186000D01*
X65621861Y-78904139D02*
X67564000Y-80846278D01*
X78740000Y-105410000D02*
X78740000Y-104394000D01*
X67564000Y-91186000D02*
X67564000Y-89662000D01*
X67437000Y-91440000D02*
X67564000Y-91313000D01*
X84074000Y-90805000D02*
X83312000Y-91567000D01*
X73152000Y-89662000D02*
X73152000Y-91059000D01*
X62992000Y-103505000D02*
X69469000Y-103505000D01*
X62230000Y-89662000D02*
X62230000Y-94996000D01*
X62865000Y-103505000D02*
X62992000Y-103505000D01*
X84328000Y-100076000D02*
X84328000Y-105156000D01*
X84074000Y-94742000D02*
X84328000Y-94996000D01*
X54610000Y-56700000D02*
X52530000Y-54620000D01*
X68834000Y-103505000D02*
X67564000Y-104775000D01*
X45843431Y-58965393D02*
X45843431Y-77593431D01*
X83312000Y-91567000D02*
X79375000Y-91567000D01*
X78359000Y-91567000D02*
X73660000Y-91567000D01*
X45843431Y-77593431D02*
X47154139Y-78904139D01*
X52530000Y-54620000D02*
X50150000Y-54620000D01*
X67564000Y-80846278D02*
X67564000Y-89662000D01*
X50150000Y-54620000D02*
X45824019Y-58945981D01*
X73152000Y-104267000D02*
X72390000Y-103505000D01*
X82804000Y-103632000D02*
X79629000Y-103632000D01*
X84074000Y-89662000D02*
X84074000Y-90805000D01*
X84328000Y-105156000D02*
X82804000Y-103632000D01*
X72390000Y-103505000D02*
X69469000Y-103505000D01*
X78740000Y-91186000D02*
X78359000Y-91567000D01*
X73152000Y-104521000D02*
X73152000Y-104267000D01*
X67564000Y-104775000D02*
X67564000Y-105410000D01*
X72898000Y-91440000D02*
X67818000Y-91440000D01*
X78740000Y-104521000D02*
X78740000Y-105410000D01*
X62230000Y-94996000D02*
X62230000Y-100330000D01*
X84074000Y-89662000D02*
X84074000Y-94742000D01*
X67564000Y-91313000D02*
X67564000Y-91186000D01*
X45824019Y-58945981D02*
X45843431Y-58965393D01*
X69469000Y-103505000D02*
X68834000Y-103505000D01*
X79629000Y-103632000D02*
X78740000Y-104521000D01*
X62230000Y-104140000D02*
X62865000Y-103505000D01*
X79375000Y-91567000D02*
X78740000Y-90932000D01*
X62230000Y-100330000D02*
X62230000Y-102743000D01*
X62230000Y-90297000D02*
X63373000Y-91440000D01*
X84328000Y-94996000D02*
X84328000Y-100076000D01*
X73152000Y-91186000D02*
X72898000Y-91440000D01*
X47154139Y-78904139D02*
X65621861Y-78904139D01*
X78740000Y-104394000D02*
X77978000Y-103632000D01*
X54864000Y-59182000D02*
X55372000Y-59182000D01*
X73152000Y-91059000D02*
X73152000Y-91186000D01*
X78740000Y-89662000D02*
X78740000Y-90932000D01*
X62230000Y-89662000D02*
X62230000Y-90297000D01*
%TO.N,Net-(D3-A)*%
X77216000Y-69850000D02*
X74422000Y-69850000D01*
X90170000Y-71882000D02*
X88392000Y-70104000D01*
X73152000Y-68834000D02*
X73660000Y-68326000D01*
X90170000Y-75946000D02*
X90170000Y-71882000D01*
X82550000Y-68834000D02*
X78232000Y-68834000D01*
X74422000Y-69850000D02*
X73660000Y-69088000D01*
X83820000Y-70104000D02*
X82550000Y-68834000D01*
X51054000Y-70104000D02*
X73152000Y-70104000D01*
X78232000Y-68834000D02*
X77216000Y-69850000D01*
X88392000Y-70104000D02*
X83820000Y-70104000D01*
X73152000Y-70104000D02*
X73152000Y-68834000D01*
X73660000Y-69088000D02*
X73660000Y-68326000D01*
%TO.N,Net-(S1-E)*%
X76200000Y-68326000D02*
X87884000Y-68326000D01*
X74930000Y-71374000D02*
X73152000Y-71374000D01*
X95758000Y-65532000D02*
X92710000Y-65532000D01*
X75438000Y-70612000D02*
X74930000Y-71120000D01*
X74930000Y-71120000D02*
X74930000Y-71374000D01*
X87884000Y-68326000D02*
X90424000Y-65786000D01*
X92456000Y-65786000D02*
X92710000Y-65532000D01*
X53848000Y-78232000D02*
X50546000Y-78232000D01*
X98552000Y-62738000D02*
X95758000Y-65532000D01*
X54356000Y-77724000D02*
X53848000Y-78232000D01*
X90424000Y-65786000D02*
X92456000Y-65786000D01*
X68580000Y-75946000D02*
X66802000Y-77724000D01*
X50546000Y-78232000D02*
X48514000Y-76200000D01*
X68580000Y-75946000D02*
X73152000Y-71374000D01*
X66802000Y-77724000D02*
X54356000Y-77724000D01*
%TO.N,Net-(S1-A-Pad1)*%
X96774000Y-60909200D02*
X97485200Y-60198000D01*
X86106000Y-63042800D02*
X96266000Y-63042800D01*
X85838000Y-62774800D02*
X86106000Y-63042800D01*
X85838000Y-59436000D02*
X85838000Y-62774800D01*
X96266000Y-63042800D02*
X96774000Y-62534800D01*
X96774000Y-62534800D02*
X96774000Y-60909200D01*
X85838000Y-55880000D02*
X85838000Y-59436000D01*
X97485200Y-60198000D02*
X98552000Y-60198000D01*
X59944000Y-59436000D02*
X59944000Y-55880000D01*
%TO.N,Net-(T1-B)*%
X92670000Y-54265200D02*
X90728800Y-52324000D01*
X90680000Y-54970000D02*
X91965200Y-54970000D01*
X91965200Y-54970000D02*
X92670000Y-54265200D01*
X83312000Y-52324000D02*
X90728800Y-52324000D01*
X92670000Y-61430000D02*
X92670000Y-54265200D01*
%TO.N,Net-(T1-C)*%
X68463000Y-70729000D02*
X68326000Y-70866000D01*
X72689999Y-70729000D02*
X68463000Y-70729000D01*
X48740000Y-61790000D02*
X52070000Y-61790000D01*
X50320000Y-55880000D02*
X47810000Y-58390000D01*
X47810000Y-60860000D02*
X48740000Y-61790000D01*
X51104800Y-55880000D02*
X50320000Y-55880000D01*
X47810000Y-58390000D02*
X47810000Y-60860000D01*
%TO.N,Net-(T2-C)*%
X53380000Y-60820000D02*
X51810000Y-59250000D01*
X54980000Y-60820000D02*
X53380000Y-60820000D01*
X57658000Y-65278000D02*
X57658000Y-63498000D01*
X57658000Y-63498000D02*
X54980000Y-60820000D01*
X51810000Y-59250000D02*
X49530000Y-59250000D01*
%TD*%
M02*
