M48
; DRILL file {KiCad 8.0.1} date 2024-04-02T10:45:24+0200
; FORMAT={-:-/ absolute / inch / decimal}
; #@! TF.CreationDate,2024-04-02T10:45:24+02:00
; #@! TF.GenerationSoftware,Kicad,Pcbnew,8.0.1
; #@! TF.FileFunction,Plated,1,2,PTH
FMAT,2
INCH
; #@! TA.AperFunction,Plated,PTH,ViaDrill
T1C0.0157
; #@! TA.AperFunction,Plated,PTH,ComponentDrill
T2C0.0315
; #@! TA.AperFunction,Plated,PTH,ComponentDrill
T3C0.0354
; #@! TA.AperFunction,Plated,PTH,ComponentDrill
T4C0.0394
; #@! TA.AperFunction,Plated,PTH,ComponentDrill
T5C0.0433
%
G90
G05
T1
X2.69Y-2.79
X2.8618Y-2.7846
X2.97Y-2.78
X3.15Y-2.62
X3.18Y-2.83
T2
X1.87Y-2.57
X1.95Y-2.3327
X2.01Y-2.06
X2.05Y-2.4327
X2.15Y-2.3327
X2.27Y-2.57
X2.31Y-2.06
X2.43Y-2.57
X2.43Y-2.97
X2.7Y-2.69
X2.7Y-2.99
X2.78Y-3.23
X2.8Y-2.69
X2.8Y-2.99
X2.8784Y-3.23
X2.9Y-2.69
X2.9Y-2.99
X3.0Y-2.69
X3.0Y-2.99
X3.25Y-2.58
X3.28Y-2.06
X3.5484Y-2.3185
X3.6484Y-2.4185
X3.65Y-2.58
X3.68Y-2.06
X3.7484Y-2.3185
T3
X2.35Y-3.53
X2.35Y-3.74
X2.35Y-3.95
X2.35Y-4.15
X2.45Y-3.53
X2.45Y-3.74
X2.45Y-3.95
X2.45Y-4.15
X2.56Y-3.53
X2.56Y-4.15
X2.66Y-3.53
X2.66Y-4.15
X2.78Y-3.53
X2.78Y-4.15
X2.88Y-3.53
X2.88Y-4.15
X3.0Y-3.53
X3.0Y-4.15
X3.1Y-3.53
X3.1Y-4.15
X3.21Y-3.53
X3.22Y-3.74
X3.22Y-3.94
X3.22Y-4.14
X3.31Y-3.53
X3.32Y-3.74
X3.32Y-3.94
X3.32Y-4.14
T4
X1.91Y-3.0
X2.01Y-2.76
X2.11Y-3.0
X3.55Y-2.99
X3.65Y-2.75
X3.75Y-2.99
X3.88Y-2.37
X3.88Y-2.47
X3.88Y-2.57
T5
X2.01Y-2.9
X3.65Y-2.89
M30
