%TF.GenerationSoftware,KiCad,Pcbnew,8.0.1*%
%TF.CreationDate,2024-04-02T10:45:20+02:00*%
%TF.ProjectId,Robo_II,526f626f-5f49-4492-9e6b-696361645f70,rev?*%
%TF.SameCoordinates,Original*%
%TF.FileFunction,Copper,L1,Top*%
%TF.FilePolarity,Positive*%
%FSLAX46Y46*%
G04 Gerber Fmt 4.6, Leading zero omitted, Abs format (unit mm)*
G04 Created by KiCad (PCBNEW 8.0.1) date 2024-04-02 10:45:20*
%MOMM*%
%LPD*%
G01*
G04 APERTURE LIST*
%TA.AperFunction,ComponentPad*%
%ADD10R,1.800000X1.800000*%
%TD*%
%TA.AperFunction,ComponentPad*%
%ADD11C,1.800000*%
%TD*%
%TA.AperFunction,ComponentPad*%
%ADD12R,1.500000X1.500000*%
%TD*%
%TA.AperFunction,ComponentPad*%
%ADD13C,1.500000*%
%TD*%
%TA.AperFunction,ComponentPad*%
%ADD14R,1.600000X1.600000*%
%TD*%
%TA.AperFunction,ComponentPad*%
%ADD15C,1.600000*%
%TD*%
%TA.AperFunction,ComponentPad*%
%ADD16O,1.600000X1.600000*%
%TD*%
%TA.AperFunction,ComponentPad*%
%ADD17C,2.000000*%
%TD*%
%TA.AperFunction,ViaPad*%
%ADD18C,0.600000*%
%TD*%
%TA.AperFunction,Conductor*%
%ADD19C,0.250000*%
%TD*%
G04 APERTURE END LIST*
D10*
%TO.P,D1,1,K*%
%TO.N,Net-(D1-K)*%
X59690000Y-89662000D03*
D11*
%TO.P,D1,2,A*%
%TO.N,Net-(D1-A)*%
X62230000Y-89662000D03*
%TD*%
D10*
%TO.P,D2,1,K*%
%TO.N,Net-(D1-K)*%
X65024000Y-89662000D03*
D11*
%TO.P,D2,2,A*%
%TO.N,Net-(D1-A)*%
X67564000Y-89662000D03*
%TD*%
D10*
%TO.P,D4,1,K*%
%TO.N,Net-(D1-K)*%
X70612000Y-89662000D03*
D11*
%TO.P,D4,2,A*%
%TO.N,Net-(D1-A)*%
X73152000Y-89662000D03*
%TD*%
D10*
%TO.P,D5,1,K*%
%TO.N,Net-(D1-K)*%
X76200000Y-89662000D03*
D11*
%TO.P,D5,2,A*%
%TO.N,Net-(D1-A)*%
X78740000Y-89662000D03*
%TD*%
D10*
%TO.P,D6,1,K*%
%TO.N,Net-(D1-K)*%
X81534000Y-89662000D03*
D11*
%TO.P,D6,2,A*%
%TO.N,Net-(D1-A)*%
X84074000Y-89662000D03*
%TD*%
D10*
%TO.P,D7,1,K*%
%TO.N,Net-(D1-K)*%
X81788000Y-94996000D03*
D11*
%TO.P,D7,2,A*%
%TO.N,Net-(D1-A)*%
X84328000Y-94996000D03*
%TD*%
D10*
%TO.P,D8,1,K*%
%TO.N,Net-(D1-K)*%
X81788000Y-100076000D03*
D11*
%TO.P,D8,2,A*%
%TO.N,Net-(D1-A)*%
X84328000Y-100076000D03*
%TD*%
D10*
%TO.P,D9,1,K*%
%TO.N,Net-(D1-K)*%
X81788000Y-105156000D03*
D11*
%TO.P,D9,2,A*%
%TO.N,Net-(D1-A)*%
X84328000Y-105156000D03*
%TD*%
D10*
%TO.P,D10,1,K*%
%TO.N,Net-(D1-K)*%
X76200000Y-105410000D03*
D11*
%TO.P,D10,2,A*%
%TO.N,Net-(D1-A)*%
X78740000Y-105410000D03*
%TD*%
D10*
%TO.P,D11,1,K*%
%TO.N,Net-(D1-K)*%
X70612000Y-105410000D03*
D11*
%TO.P,D11,2,A*%
%TO.N,Net-(D1-A)*%
X73152000Y-105410000D03*
%TD*%
D10*
%TO.P,D12,1,K*%
%TO.N,Net-(D1-K)*%
X65024000Y-105410000D03*
D11*
%TO.P,D12,2,A*%
%TO.N,Net-(D1-A)*%
X67564000Y-105410000D03*
%TD*%
D10*
%TO.P,D13,1,K*%
%TO.N,Net-(D1-K)*%
X59690000Y-105410000D03*
D11*
%TO.P,D13,2,A*%
%TO.N,Net-(D1-A)*%
X62230000Y-105410000D03*
%TD*%
D10*
%TO.P,D14,1,K*%
%TO.N,Net-(D1-K)*%
X59690000Y-100330000D03*
D11*
%TO.P,D14,2,A*%
%TO.N,Net-(D1-A)*%
X62230000Y-100330000D03*
%TD*%
D10*
%TO.P,D15,1,K*%
%TO.N,Net-(D1-K)*%
X59690000Y-94996000D03*
D11*
%TO.P,D15,2,A*%
%TO.N,Net-(D1-A)*%
X62230000Y-94996000D03*
%TD*%
D12*
%TO.P,T1,1,E*%
%TO.N,Net-(D1-K)*%
X95210000Y-58890000D03*
D13*
%TO.P,T1,2,B*%
%TO.N,Net-(T1-B)*%
X92670000Y-61430000D03*
%TO.P,T1,3,C*%
%TO.N,Net-(T1-C)*%
X90130000Y-58890000D03*
%TD*%
D12*
%TO.P,T2,1,E*%
%TO.N,Net-(D1-A)*%
X54610000Y-59250000D03*
D13*
%TO.P,T2,2,B*%
%TO.N,Net-(T1-C)*%
X52070000Y-61790000D03*
%TO.P,T2,3,C*%
%TO.N,Net-(T2-C)*%
X49530000Y-59250000D03*
%TD*%
D14*
%TO.P,C1,1*%
%TO.N,Net-(D3-K)*%
X70612000Y-82042000D03*
D15*
%TO.P,C1,2*%
%TO.N,Net-(D1-K)*%
X73112000Y-82042000D03*
%TD*%
D14*
%TO.P,D3,1,K*%
%TO.N,Net-(D3-K)*%
X58674000Y-52324000D03*
D16*
%TO.P,D3,2,A*%
%TO.N,Net-(D3-A)*%
X51054000Y-52324000D03*
%TD*%
D17*
%TO.P,P1,1,1*%
%TO.N,Net-(S1-E)*%
X48514000Y-76200000D03*
%TO.P,P1,2,2*%
%TO.N,unconnected-(P1-Pad2)*%
X53594000Y-76200000D03*
%TO.P,P1,3,3*%
%TO.N,Net-(D3-A)*%
X51054000Y-70104000D03*
X51054000Y-73660000D03*
%TD*%
%TO.P,P2,1,1*%
%TO.N,Net-(D3-A)*%
X90170000Y-75946000D03*
%TO.P,P2,2,2*%
%TO.N,unconnected-(P2-Pad2)*%
X95250000Y-75946000D03*
%TO.P,P2,3,3*%
%TO.N,Net-(D3-K)*%
X92710000Y-69850000D03*
X92710000Y-73406000D03*
%TD*%
D15*
%TO.P,R3,1*%
%TO.N,Net-(D3-K)*%
X61722000Y-75438000D03*
D16*
%TO.P,R3,2*%
%TO.N,Net-(T1-B)*%
X61722000Y-65278000D03*
%TD*%
D15*
%TO.P,R4,1*%
%TO.N,Net-(T1-B)*%
X83312000Y-52324000D03*
D16*
%TO.P,R4,2*%
%TO.N,Net-(D1-K)*%
X93472000Y-52324000D03*
%TD*%
D15*
%TO.P,R5,1*%
%TO.N,Net-(S1-E)*%
X92710000Y-65532000D03*
D16*
%TO.P,R5,2*%
%TO.N,Net-(T1-C)*%
X82550000Y-65532000D03*
%TD*%
D15*
%TO.P,R6,1*%
%TO.N,Net-(S1-E)*%
X47498000Y-65278000D03*
D16*
%TO.P,R6,2*%
%TO.N,Net-(T2-C)*%
X57658000Y-65278000D03*
%TD*%
D17*
%TO.P,S1,1,A*%
%TO.N,Net-(S1-A-Pad1)*%
X98552000Y-60198000D03*
%TO.P,S1,2,E*%
%TO.N,Net-(S1-E)*%
X98552000Y-62738000D03*
%TO.P,S1,3,A*%
%TO.N,unconnected-(S1-A-Pad3)*%
X98552000Y-65278000D03*
%TD*%
D14*
%TO.P,U1,1,GND*%
%TO.N,Net-(D1-K)*%
X76200000Y-75946000D03*
D16*
%TO.P,U1,2,TR*%
%TO.N,Net-(D3-K)*%
X73660000Y-75946000D03*
%TO.P,U1,3,Q*%
%TO.N,unconnected-(U1-Q-Pad3)*%
X71120000Y-75946000D03*
%TO.P,U1,4,R*%
%TO.N,Net-(S1-E)*%
X68580000Y-75946000D03*
%TO.P,U1,5,CV*%
%TO.N,unconnected-(U1-CV-Pad5)*%
X68580000Y-68326000D03*
%TO.P,U1,6,THR*%
%TO.N,Net-(D3-K)*%
X71120000Y-68326000D03*
%TO.P,U1,7,DIS*%
%TO.N,Net-(D3-A)*%
X73660000Y-68326000D03*
%TO.P,U1,8,VCC*%
%TO.N,Net-(S1-E)*%
X76200000Y-68326000D03*
%TD*%
D18*
%TO.N,Net-(D1-K)*%
X80772000Y-71882000D03*
X80010000Y-66548000D03*
%TO.N,Net-(S1-E)*%
X75438000Y-70612000D03*
%TO.N,Net-(T1-C)*%
X72689999Y-70729000D03*
X68326000Y-70866000D03*
%TD*%
D19*
%TO.N,Net-(D3-K)*%
X71120000Y-70866000D02*
X71120000Y-68326000D01*
X71120000Y-58674000D02*
X64770000Y-52324000D01*
X64770000Y-52324000D02*
X58674000Y-52324000D01*
X73660000Y-77216000D02*
X70612000Y-80264000D01*
X63246000Y-75438000D02*
X67564000Y-79756000D01*
X73660000Y-75946000D02*
X73660000Y-73406000D01*
X67564000Y-81280000D02*
X68326000Y-82042000D01*
X68326000Y-82042000D02*
X70612000Y-82042000D01*
X73660000Y-73406000D02*
X71120000Y-70866000D01*
X70612000Y-80264000D02*
X70612000Y-82042000D01*
X73660000Y-73406000D02*
X92710000Y-73406000D01*
X73660000Y-75946000D02*
X73660000Y-77216000D01*
X92710000Y-73406000D02*
X92710000Y-69850000D01*
X67564000Y-79756000D02*
X67564000Y-81280000D01*
X61722000Y-75438000D02*
X63246000Y-75438000D01*
X71120000Y-68326000D02*
X71120000Y-58674000D01*
%TO.N,Net-(D1-K)*%
X81534000Y-89662000D02*
X81534000Y-90551000D01*
X76136500Y-90614500D02*
X76200000Y-90551000D01*
X59690000Y-105410000D02*
X59690000Y-107061000D01*
X81788000Y-100076000D02*
X81788000Y-105156000D01*
X70612000Y-107315000D02*
X70612000Y-105410000D01*
X80010000Y-66548000D02*
X80772000Y-67310000D01*
X60452000Y-107823000D02*
X64389000Y-107823000D01*
X65024000Y-107188000D02*
X65659000Y-107823000D01*
X80772000Y-67310000D02*
X80772000Y-68072000D01*
X74422000Y-82042000D02*
X73112000Y-82042000D01*
X64516000Y-87630000D02*
X65024000Y-88138000D01*
X76200000Y-90551000D02*
X76200000Y-89662000D01*
X76454000Y-107569000D02*
X76454000Y-107315000D01*
X65024000Y-89662000D02*
X65024000Y-88265000D01*
X59690000Y-89662000D02*
X59690000Y-94996000D01*
X76454000Y-107315000D02*
X76200000Y-107061000D01*
X70612000Y-86614000D02*
X70612000Y-88265000D01*
X65024000Y-88265000D02*
X65659000Y-87630000D01*
X80772000Y-68072000D02*
X80772000Y-71882000D01*
X94996000Y-56410000D02*
X94996000Y-52832000D01*
X70231000Y-107823000D02*
X70612000Y-107442000D01*
X76200000Y-75946000D02*
X76200000Y-80264000D01*
X75184000Y-91567000D02*
X76136500Y-90614500D01*
X70993000Y-107696000D02*
X70612000Y-107315000D01*
X95210000Y-56624000D02*
X94996000Y-56410000D01*
X64389000Y-107823000D02*
X65024000Y-107188000D01*
X81534000Y-89662000D02*
X81534000Y-94742000D01*
X76200000Y-107061000D02*
X76200000Y-107188000D01*
X95210000Y-58890000D02*
X95210000Y-56624000D01*
X70993000Y-91567000D02*
X75184000Y-91567000D01*
X73112000Y-84114000D02*
X70612000Y-86614000D01*
X76200000Y-105410000D02*
X76200000Y-107061000D01*
X59690000Y-88011000D02*
X60071000Y-87630000D01*
X73112000Y-82042000D02*
X73112000Y-84114000D01*
X95504000Y-58724800D02*
X95300800Y-58928000D01*
X77343000Y-91821000D02*
X76136500Y-90614500D01*
X76200000Y-107188000D02*
X75692000Y-107696000D01*
X59690000Y-100330000D02*
X59690000Y-105410000D01*
X76200000Y-80264000D02*
X74422000Y-82042000D01*
X95210000Y-58890000D02*
X95210000Y-66842000D01*
X81534000Y-94742000D02*
X81788000Y-94996000D01*
X81534000Y-90551000D02*
X80264000Y-91821000D01*
X59690000Y-107061000D02*
X60452000Y-107823000D01*
X65659000Y-107823000D02*
X70231000Y-107823000D01*
X70612000Y-89662000D02*
X70612000Y-91186000D01*
X81788000Y-107569000D02*
X76454000Y-107569000D01*
X59690000Y-89662000D02*
X59690000Y-88011000D01*
X80264000Y-91821000D02*
X77343000Y-91821000D01*
X65024000Y-88138000D02*
X65024000Y-89662000D01*
X94488000Y-52324000D02*
X93472000Y-52324000D01*
X70612000Y-107442000D02*
X70612000Y-107315000D01*
X93980000Y-68072000D02*
X95210000Y-66842000D01*
X94996000Y-56642000D02*
X94996000Y-56410000D01*
X81788000Y-94996000D02*
X81788000Y-100076000D01*
X70612000Y-91186000D02*
X70993000Y-91567000D01*
X69977000Y-87630000D02*
X70612000Y-88265000D01*
X65659000Y-87630000D02*
X69977000Y-87630000D01*
X94996000Y-52832000D02*
X94488000Y-52324000D01*
X65024000Y-107188000D02*
X65024000Y-105410000D01*
X81788000Y-105156000D02*
X81788000Y-107569000D01*
X70612000Y-88265000D02*
X70612000Y-89662000D01*
X59690000Y-94996000D02*
X59690000Y-100330000D01*
X93980000Y-68072000D02*
X80772000Y-68072000D01*
X60071000Y-87630000D02*
X64516000Y-87630000D01*
X75692000Y-107696000D02*
X70993000Y-107696000D01*
%TO.N,Net-(D3-A)*%
X46990000Y-62484000D02*
X48768000Y-62484000D01*
X51054000Y-52324000D02*
X51054000Y-54102000D01*
X46990000Y-58166000D02*
X46990000Y-62484000D01*
X48768000Y-62484000D02*
X51054000Y-64770000D01*
X51054000Y-64770000D02*
X51054000Y-70104000D01*
X51054000Y-54102000D02*
X46990000Y-58166000D01*
X51054000Y-73660000D02*
X51054000Y-70104000D01*
%TO.N,Net-(S1-E)*%
X75438000Y-69088000D02*
X75692000Y-68834000D01*
X75438000Y-69088000D02*
X75438000Y-70612000D01*
X47498000Y-75692000D02*
X48006000Y-75692000D01*
X48006000Y-75692000D02*
X48514000Y-76200000D01*
X47498000Y-65278000D02*
X47498000Y-75692000D01*
X75692000Y-68834000D02*
X76200000Y-68326000D01*
%TO.N,Net-(T1-B)*%
X64262000Y-50292000D02*
X56540400Y-50292000D01*
X56489600Y-62077600D02*
X56489600Y-50342800D01*
X66294000Y-52324000D02*
X64262000Y-50292000D01*
X61214000Y-63246000D02*
X61722000Y-63754000D01*
X61722000Y-63754000D02*
X61722000Y-65278000D01*
X56540400Y-50292000D02*
X56388000Y-50292000D01*
X57658000Y-63246000D02*
X61214000Y-63246000D01*
X83312000Y-52324000D02*
X66294000Y-52324000D01*
X57658000Y-63246000D02*
X56489600Y-62077600D01*
X56489600Y-50342800D02*
X56540400Y-50292000D01*
%TO.N,Net-(T1-C)*%
X90130000Y-64048000D02*
X88646000Y-65532000D01*
X66548000Y-69088000D02*
X56896000Y-69088000D01*
X68326000Y-70866000D02*
X66548000Y-69088000D01*
X52070000Y-64262000D02*
X52070000Y-61790000D01*
X78486000Y-72136000D02*
X73660000Y-72136000D01*
X79502000Y-65532000D02*
X82550000Y-65532000D01*
X78486000Y-66548000D02*
X79502000Y-65532000D01*
X73660000Y-72136000D02*
X72689999Y-71165999D01*
X82550000Y-65532000D02*
X88646000Y-65532000D01*
X56896000Y-69088000D02*
X52070000Y-64262000D01*
X72689999Y-71165999D02*
X72689999Y-70729000D01*
X90130000Y-58890000D02*
X90130000Y-64048000D01*
X78486000Y-66548000D02*
X78486000Y-72136000D01*
%TD*%
M02*
